%TF.GenerationSoftware,Altium Limited,Altium Designer,20.0.12 (288)*%
G04 Layer_Color=255*
%FSLAX45Y45*%
%MOMM*%
%TF.FileFunction,Pads,Bot*%
%TF.Part,Single*%
G01*
G75*
%TA.AperFunction,ComponentPad*%
%ADD32O,5.00000X2.40000*%
%ADD33O,2.40000X5.00000*%
%ADD34C,0.65000*%
%ADD35O,1.00000X2.00000*%
%ADD36O,0.90000X1.80000*%
%ADD37C,1.52400*%
%ADD38C,3.25000*%
%ADD39C,2.44500*%
%ADD40C,1.53000*%
%ADD41C,1.39800*%
%ADD42R,1.39800X1.39800*%
%TA.AperFunction,ViaPad*%
%ADD43C,5.00000*%
D32*
X13860001Y3325000D02*
D03*
Y3925000D02*
D03*
D33*
X14339999Y3675000D02*
D03*
D34*
X14792400Y2977200D02*
D03*
X15386200Y3048000D02*
D03*
D35*
X14664700Y3096000D02*
D03*
X15529700D02*
D03*
D36*
X14664700Y2678000D02*
D03*
X15529700D02*
D03*
D37*
X13840001Y6972500D02*
D03*
Y7188500D02*
D03*
Y7404500D02*
D03*
Y7620500D02*
D03*
D38*
X16126001Y3652000D02*
D03*
X17269000D02*
D03*
D39*
X17472002Y3957000D02*
D03*
X15923000D02*
D03*
D40*
X17106001Y3162000D02*
D03*
X17360001D02*
D03*
X16289000D02*
D03*
X16035001D02*
D03*
D41*
X17141499Y4541000D02*
D03*
X17014500Y4287000D02*
D03*
X16887500Y4541000D02*
D03*
X16760500Y4287000D02*
D03*
X16633501Y4541000D02*
D03*
X16506500Y4287000D02*
D03*
X16379500Y4541000D02*
D03*
D42*
X16252499Y4287000D02*
D03*
D43*
X17522501Y8140000D02*
D03*
X13335001D02*
D03*
X17522501Y5142500D02*
D03*
X13337500Y5145000D02*
D03*
%TF.MD5,87c4eafc67f760d2d9cffa8f5880cfcd*%
M02*
