G04*
G04 #@! TF.GenerationSoftware,Altium Limited,Altium Designer,20.0.12 (288)*
G04*
G04 Layer_Color=8421504*
%FSLAX44Y44*%
%MOMM*%
G71*
G01*
G75*
%ADD16R,1.2000X1.4000*%
%ADD17R,3.5000X1.4000*%
%ADD18R,0.8000X0.8000*%
%ADD19R,1.2000X1.2000*%
%ADD20R,1.2000X1.2000*%
%ADD21R,0.8000X0.8000*%
%ADD22R,0.9700X1.0000*%
%ADD23R,1.7000X0.9000*%
G04:AMPARAMS|DCode=24|XSize=1.21mm|YSize=0.59mm|CornerRadius=0.0738mm|HoleSize=0mm|Usage=FLASHONLY|Rotation=90.000|XOffset=0mm|YOffset=0mm|HoleType=Round|Shape=RoundedRectangle|*
%AMROUNDEDRECTD24*
21,1,1.2100,0.4425,0,0,90.0*
21,1,1.0625,0.5900,0,0,90.0*
1,1,0.1475,0.2213,0.5313*
1,1,0.1475,0.2213,-0.5313*
1,1,0.1475,-0.2213,-0.5313*
1,1,0.1475,-0.2213,0.5313*
%
%ADD24ROUNDEDRECTD24*%
%ADD25C,1.5000*%
%ADD26R,0.3000X1.1400*%
G04:AMPARAMS|DCode=27|XSize=0.97mm|YSize=0.26mm|CornerRadius=0.0325mm|HoleSize=0mm|Usage=FLASHONLY|Rotation=180.000|XOffset=0mm|YOffset=0mm|HoleType=Round|Shape=RoundedRectangle|*
%AMROUNDEDRECTD27*
21,1,0.9700,0.1950,0,0,180.0*
21,1,0.9050,0.2600,0,0,180.0*
1,1,0.0650,-0.4525,0.0975*
1,1,0.0650,0.4525,0.0975*
1,1,0.0650,0.4525,-0.0975*
1,1,0.0650,-0.4525,-0.0975*
%
%ADD27ROUNDEDRECTD27*%
G04:AMPARAMS|DCode=28|XSize=0.97mm|YSize=0.26mm|CornerRadius=0.0325mm|HoleSize=0mm|Usage=FLASHONLY|Rotation=90.000|XOffset=0mm|YOffset=0mm|HoleType=Round|Shape=RoundedRectangle|*
%AMROUNDEDRECTD28*
21,1,0.9700,0.1950,0,0,90.0*
21,1,0.9050,0.2600,0,0,90.0*
1,1,0.0650,0.0975,0.4525*
1,1,0.0650,0.0975,-0.4525*
1,1,0.0650,-0.0975,-0.4525*
1,1,0.0650,-0.0975,0.4525*
%
%ADD28ROUNDEDRECTD28*%
%ADD29R,2.0000X2.0000*%
G04:AMPARAMS|DCode=30|XSize=0.24mm|YSize=1mm|CornerRadius=0.06mm|HoleSize=0mm|Usage=FLASHONLY|Rotation=0.000|XOffset=0mm|YOffset=0mm|HoleType=Round|Shape=RoundedRectangle|*
%AMROUNDEDRECTD30*
21,1,0.2400,0.8800,0,0,0.0*
21,1,0.1200,1.0000,0,0,0.0*
1,1,0.1200,0.0600,-0.4400*
1,1,0.1200,-0.0600,-0.4400*
1,1,0.1200,-0.0600,0.4400*
1,1,0.1200,0.0600,0.4400*
%
%ADD30ROUNDEDRECTD30*%
G04:AMPARAMS|DCode=31|XSize=0.24mm|YSize=1mm|CornerRadius=0.06mm|HoleSize=0mm|Usage=FLASHONLY|Rotation=90.000|XOffset=0mm|YOffset=0mm|HoleType=Round|Shape=RoundedRectangle|*
%AMROUNDEDRECTD31*
21,1,0.2400,0.8800,0,0,90.0*
21,1,0.1200,1.0000,0,0,90.0*
1,1,0.1200,0.4400,0.0600*
1,1,0.1200,0.4400,-0.0600*
1,1,0.1200,-0.4400,-0.0600*
1,1,0.1200,-0.4400,0.0600*
%
%ADD31ROUNDEDRECTD31*%
%ADD32R,1.4000X1.2000*%
%ADD33R,1.2000X0.3000*%
%ADD34R,0.3000X1.2000*%
D16*
X1365450Y420250D02*
D03*
X1387750D02*
D03*
X1410050D02*
D03*
X1388750Y574000D02*
D03*
Y552000D02*
D03*
X1405750D02*
D03*
Y574000D02*
D03*
D17*
X1387750Y482250D02*
D03*
D18*
X1481500Y356250D02*
D03*
Y371250D02*
D03*
X1691250Y482000D02*
D03*
Y497000D02*
D03*
X1628500Y594750D02*
D03*
Y609750D02*
D03*
X1315470Y695000D02*
D03*
Y710000D02*
D03*
X1353220Y709750D02*
D03*
Y694750D02*
D03*
X1332720Y710000D02*
D03*
Y695000D02*
D03*
X1548000Y405500D02*
D03*
Y420500D02*
D03*
X1611500Y481750D02*
D03*
Y496750D02*
D03*
X1625500Y481750D02*
D03*
Y496750D02*
D03*
X1663250Y497000D02*
D03*
Y482000D02*
D03*
X1677250D02*
D03*
Y497000D02*
D03*
X1576250Y331250D02*
D03*
Y316250D02*
D03*
X1665000Y533500D02*
D03*
Y518500D02*
D03*
X1656500Y594750D02*
D03*
Y609750D02*
D03*
X1569500Y379500D02*
D03*
Y394500D02*
D03*
X1642500Y594750D02*
D03*
Y609750D02*
D03*
X1523500Y504000D02*
D03*
Y489000D02*
D03*
X1651000Y518500D02*
D03*
Y533500D02*
D03*
X1684500Y594750D02*
D03*
Y609750D02*
D03*
X1698500Y594750D02*
D03*
Y609750D02*
D03*
X1762250Y331000D02*
D03*
Y316000D02*
D03*
X1710250Y741250D02*
D03*
Y756250D02*
D03*
X1696250Y741250D02*
D03*
Y756250D02*
D03*
X1682500Y741250D02*
D03*
Y756250D02*
D03*
X1654750Y741250D02*
D03*
Y756250D02*
D03*
X1640740Y741160D02*
D03*
Y756160D02*
D03*
X1626770Y741160D02*
D03*
Y756160D02*
D03*
X1612800Y741160D02*
D03*
Y756160D02*
D03*
X1598830Y741160D02*
D03*
Y756160D02*
D03*
X1668500Y741250D02*
D03*
Y756250D02*
D03*
X1537750Y504000D02*
D03*
Y489000D02*
D03*
X1639500Y481750D02*
D03*
Y496750D02*
D03*
X1597500Y481750D02*
D03*
Y496750D02*
D03*
X1705250Y482000D02*
D03*
Y497000D02*
D03*
X1637000Y518500D02*
D03*
Y533500D02*
D03*
X1719250Y497000D02*
D03*
Y482000D02*
D03*
X1493000Y488500D02*
D03*
Y503500D02*
D03*
X1670500Y594750D02*
D03*
Y609750D02*
D03*
D19*
X1401750Y639750D02*
D03*
X1422750D02*
D03*
X1745000Y657250D02*
D03*
X1724000D02*
D03*
D20*
X1431500Y464750D02*
D03*
Y443750D02*
D03*
X1344750Y463000D02*
D03*
Y442000D02*
D03*
D21*
X1389750Y535000D02*
D03*
X1404750D02*
D03*
X1390250Y591250D02*
D03*
X1405250D02*
D03*
X1552250Y333000D02*
D03*
X1537250D02*
D03*
X1481250D02*
D03*
X1466250D02*
D03*
X1364000Y740000D02*
D03*
X1349000D02*
D03*
Y761500D02*
D03*
X1364000D02*
D03*
X1579000Y670250D02*
D03*
X1594000D02*
D03*
X1579000Y698000D02*
D03*
X1594000D02*
D03*
X1579000Y642500D02*
D03*
X1594000D02*
D03*
X1579000Y656500D02*
D03*
X1594000D02*
D03*
X1736000Y640250D02*
D03*
X1721000D02*
D03*
X1779000Y685000D02*
D03*
X1764000D02*
D03*
X1579000Y684000D02*
D03*
X1594000D02*
D03*
X1779000Y699000D02*
D03*
X1764000D02*
D03*
X1764000Y671250D02*
D03*
X1779000D02*
D03*
X1410750Y622750D02*
D03*
X1425750D02*
D03*
X1542530Y593670D02*
D03*
X1527530D02*
D03*
D22*
X1325750Y458200D02*
D03*
Y443500D02*
D03*
D23*
X1321470Y639500D02*
D03*
Y680500D02*
D03*
X1353470Y639500D02*
D03*
Y680500D02*
D03*
D24*
X1499500Y350750D02*
D03*
X1509000D02*
D03*
X1518500D02*
D03*
Y375850D02*
D03*
X1509000D02*
D03*
X1499500D02*
D03*
D25*
X1563500Y571250D02*
D03*
Y551250D02*
D03*
Y531000D02*
D03*
D26*
X1507220Y315500D02*
D03*
X1502220D02*
D03*
X1497220D02*
D03*
X1492220D02*
D03*
X1487220D02*
D03*
X1484220D02*
D03*
X1479220D02*
D03*
X1476220D02*
D03*
X1512220D02*
D03*
X1517220D02*
D03*
X1522220D02*
D03*
X1527220D02*
D03*
X1532220D02*
D03*
X1535220D02*
D03*
X1540220D02*
D03*
X1543220D02*
D03*
D27*
X1531700Y410750D02*
D03*
Y415750D02*
D03*
Y420750D02*
D03*
Y425750D02*
D03*
Y430750D02*
D03*
Y435750D02*
D03*
Y440750D02*
D03*
X1484300D02*
D03*
Y435750D02*
D03*
Y430750D02*
D03*
Y425750D02*
D03*
Y420750D02*
D03*
Y415750D02*
D03*
Y410750D02*
D03*
D28*
X1493000Y402050D02*
D03*
X1498000D02*
D03*
X1503000D02*
D03*
X1508000D02*
D03*
X1513000D02*
D03*
X1518000D02*
D03*
X1523000D02*
D03*
Y449450D02*
D03*
X1518000D02*
D03*
X1513000D02*
D03*
X1508000D02*
D03*
X1503000D02*
D03*
X1498000D02*
D03*
X1493000D02*
D03*
D29*
X1508000Y425750D02*
D03*
D30*
X1629390Y717370D02*
D03*
X1634390D02*
D03*
X1639390D02*
D03*
X1644390D02*
D03*
X1649390D02*
D03*
X1654390D02*
D03*
X1659390D02*
D03*
X1664390D02*
D03*
X1669390D02*
D03*
X1674390D02*
D03*
X1679390D02*
D03*
X1684390D02*
D03*
Y632370D02*
D03*
X1679390D02*
D03*
X1674390D02*
D03*
X1669390D02*
D03*
X1664390D02*
D03*
X1659390D02*
D03*
X1654390D02*
D03*
X1649390D02*
D03*
X1644390D02*
D03*
X1639390D02*
D03*
X1634390D02*
D03*
X1629390D02*
D03*
D31*
X1699390Y702370D02*
D03*
Y697370D02*
D03*
Y692370D02*
D03*
Y687370D02*
D03*
Y682370D02*
D03*
Y677370D02*
D03*
Y672370D02*
D03*
Y667370D02*
D03*
Y662370D02*
D03*
Y657370D02*
D03*
Y652370D02*
D03*
Y647370D02*
D03*
X1614390D02*
D03*
Y652370D02*
D03*
Y657370D02*
D03*
Y662370D02*
D03*
Y667370D02*
D03*
Y672370D02*
D03*
Y677370D02*
D03*
Y682370D02*
D03*
Y687370D02*
D03*
Y692370D02*
D03*
Y697370D02*
D03*
Y702370D02*
D03*
D32*
X1723250Y676750D02*
D03*
X1745250D02*
D03*
Y693750D02*
D03*
X1723250D02*
D03*
D33*
X1423240Y593110D02*
D03*
Y588110D02*
D03*
Y583110D02*
D03*
Y578110D02*
D03*
Y573110D02*
D03*
Y568110D02*
D03*
Y563110D02*
D03*
Y558110D02*
D03*
Y553110D02*
D03*
Y548110D02*
D03*
Y543110D02*
D03*
Y538110D02*
D03*
X1508240D02*
D03*
Y543110D02*
D03*
Y548110D02*
D03*
Y553110D02*
D03*
Y558110D02*
D03*
Y563110D02*
D03*
Y568110D02*
D03*
Y573110D02*
D03*
Y578110D02*
D03*
Y583110D02*
D03*
Y588110D02*
D03*
Y593110D02*
D03*
D34*
X1438240Y523110D02*
D03*
X1443240D02*
D03*
X1448240D02*
D03*
X1453240D02*
D03*
X1458240D02*
D03*
X1463240D02*
D03*
X1468240D02*
D03*
X1473240D02*
D03*
X1478240D02*
D03*
X1483240D02*
D03*
X1488240D02*
D03*
X1493240D02*
D03*
Y608110D02*
D03*
X1488240D02*
D03*
X1483240D02*
D03*
X1478240D02*
D03*
X1473240D02*
D03*
X1468240D02*
D03*
X1463240D02*
D03*
X1458240D02*
D03*
X1453240D02*
D03*
X1448240D02*
D03*
X1443240D02*
D03*
X1438240D02*
D03*
M02*
