%TF.GenerationSoftware,Altium Limited,Altium Designer,20.0.12 (288)*%
G04 Layer_Color=16711935*
%FSLAX45Y45*%
%MOMM*%
%TF.FileFunction,Other,Mechanical_13*%
%TF.Part,Single*%
G01*
G75*
%TA.AperFunction,NonConductor*%
%ADD31C,0.20000*%
%ADD58C,0.30000*%
%ADD59C,0.25400*%
%ADD61C,0.12700*%
D31*
X13762500Y5740000D02*
G03*
X13762500Y5740000I-10000J0D01*
G01*
X15005499Y3377500D02*
G03*
X15005499Y3377500I-10000J0D01*
G01*
X14549699Y3155000D02*
G03*
X14549699Y3155000I-10000J0D01*
G01*
X14939999Y3903500D02*
G03*
X14939999Y3903500I-10000J0D01*
G01*
X17245001Y6542500D02*
G03*
X17245001Y6542500I-10000J0D01*
G01*
D58*
X16132500Y4282000D02*
G03*
X16132500Y4282000I-15000J0D01*
G01*
D59*
X14890199Y2495000D02*
Y2564978D01*
X14925189D01*
X14936852Y2553315D01*
Y2529989D01*
X14925189Y2518326D01*
X14890199D01*
X15006828Y2553315D02*
X14995166Y2564978D01*
X14971840D01*
X14960178Y2553315D01*
Y2506663D01*
X14971840Y2495000D01*
X14995166D01*
X15006828Y2506663D01*
X15030154Y2564978D02*
Y2495000D01*
X15065144D01*
X15076807Y2506663D01*
Y2518326D01*
X15065144Y2529989D01*
X15030154D01*
X15065144D01*
X15076807Y2541652D01*
Y2553315D01*
X15065144Y2564978D01*
X15030154D01*
X15216762D02*
X15170110D01*
Y2495000D01*
X15216762D01*
X15170110Y2529989D02*
X15193436D01*
X15286739Y2564978D02*
Y2495000D01*
X15251750D01*
X15240086Y2506663D01*
Y2529989D01*
X15251750Y2541652D01*
X15286739D01*
X15333391Y2471674D02*
X15345055D01*
X15356717Y2483337D01*
Y2541652D01*
X15321729D01*
X15310065Y2529989D01*
Y2506663D01*
X15321729Y2495000D01*
X15356717D01*
X15415031D02*
X15391705D01*
X15380042Y2506663D01*
Y2529989D01*
X15391705Y2541652D01*
X15415031D01*
X15426694Y2529989D01*
Y2518326D01*
X15380042D01*
D61*
X13847501Y5790000D02*
X14097501D01*
Y5470000D02*
Y5790000D01*
X13847501Y5470000D02*
Y5790000D01*
Y5470000D02*
X14097501D01*
X13430000Y4459000D02*
X13510001D01*
Y4299000D02*
Y4459000D01*
X13430000Y4299000D02*
X13510001D01*
X13430000D02*
Y4459000D01*
X14943750Y3551750D02*
Y3714250D01*
X15236250D01*
Y3551750D02*
Y3714250D01*
X14943750Y3551750D02*
X15236250D01*
X14650200Y2420000D02*
Y3155000D01*
Y2420000D02*
X15544200D01*
Y3155000D01*
X14650200D02*
X15544200D01*
X14550200Y2469000D02*
X15644200D01*
X15330000Y4007500D02*
Y4507500D01*
X14830000Y4007500D02*
Y4507500D01*
X15330000D01*
X14830000Y4007500D02*
X15330000D01*
X15897501Y2560000D02*
X17497501D01*
X15897501D02*
Y4700000D01*
X17497501D01*
Y2560000D02*
Y4700000D01*
X17185001Y6637500D02*
Y6887500D01*
X17505000D01*
X17185001Y6637500D02*
X17505000D01*
Y6887500D01*
%TF.MD5,adbc6f2bd15efbf27bdb295995c559f4*%
M02*
