G04*
G04 #@! TF.GenerationSoftware,Altium Limited,Altium Designer,20.0.12 (288)*
G04*
G04 Layer_Color=16711935*
%FSLAX44Y44*%
%MOMM*%
G71*
G01*
G75*
%ADD10C,0.2000*%
%ADD11C,0.2540*%
%ADD12C,0.3000*%
%ADD13C,0.1750*%
%ADD14C,0.1270*%
%ADD15C,0.1000*%
%ADD85C,0.1500*%
D10*
X1400250Y532200D02*
G03*
X1400250Y532200I-1000J0D01*
G01*
X1459500Y317250D02*
G03*
X1459500Y317250I-1000J0D01*
G01*
X1782000Y638500D02*
G03*
X1782000Y638500I-1000J0D01*
G01*
X1497250Y369600D02*
G03*
X1497250Y369600I-1000J0D01*
G01*
D11*
X1544207Y602572D02*
X1546746Y600032D01*
X1551824D01*
X1554363Y602572D01*
Y605111D01*
X1551824Y607650D01*
X1546746D01*
X1544207Y610189D01*
Y612728D01*
X1546746Y615267D01*
X1551824D01*
X1554363Y612728D01*
X1539128Y600032D02*
Y615267D01*
X1534050Y610189D01*
X1528972Y615267D01*
Y600032D01*
X1523893D02*
Y615267D01*
X1516276D01*
X1513737Y612728D01*
Y602572D01*
X1516276Y600032D01*
X1523893D01*
X1493550Y251250D02*
Y258248D01*
X1497049D01*
X1498215Y257081D01*
Y254749D01*
X1497049Y253583D01*
X1493550D01*
X1505213Y257081D02*
X1504047Y258248D01*
X1501714D01*
X1500548Y257081D01*
Y252416D01*
X1501714Y251250D01*
X1504047D01*
X1505213Y252416D01*
X1507545Y258248D02*
Y251250D01*
X1511044D01*
X1512211Y252416D01*
Y253583D01*
X1511044Y254749D01*
X1507545D01*
X1511044D01*
X1512211Y255915D01*
Y257081D01*
X1511044Y258248D01*
X1507545D01*
X1526206D02*
X1521541D01*
Y251250D01*
X1526206D01*
X1521541Y254749D02*
X1523874D01*
X1533204Y258248D02*
Y251250D01*
X1529705D01*
X1528539Y252416D01*
Y254749D01*
X1529705Y255915D01*
X1533204D01*
X1537869Y248917D02*
X1539035D01*
X1540202Y250084D01*
Y255915D01*
X1536703D01*
X1535536Y254749D01*
Y252416D01*
X1536703Y251250D01*
X1540202D01*
X1546033D02*
X1543701D01*
X1542534Y252416D01*
Y254749D01*
X1543701Y255915D01*
X1546033D01*
X1547199Y254749D01*
Y253583D01*
X1542534D01*
D12*
X1622250Y415500D02*
G03*
X1622250Y415500I-1500J0D01*
G01*
X1501000Y325250D02*
X1531000D01*
X1496000Y330250D02*
X1501000Y325250D01*
X1496000Y330250D02*
Y347750D01*
X1531000Y325250D02*
Y370250D01*
X1496000D02*
X1531000D01*
X1496000Y347750D02*
Y370250D01*
D13*
X1569050Y588650D02*
Y626650D01*
X1499050D02*
X1569050D01*
X1499050Y588650D02*
Y626650D01*
Y588650D02*
X1569050D01*
X1338000Y476000D02*
X1354500D01*
Y446000D02*
Y476000D01*
X1338000Y446000D02*
X1354500D01*
X1338000D02*
Y476000D01*
D14*
X1408750Y505200D02*
X1433750D01*
X1408750D02*
Y537200D01*
X1433750Y505200D02*
Y537200D01*
X1408750D02*
X1433750D01*
X1459550Y248650D02*
X1568950D01*
X1469550Y317250D02*
X1558950D01*
Y243750D02*
Y317250D01*
X1469550Y243750D02*
X1558950D01*
X1469550D02*
Y317250D01*
X1598750Y243300D02*
X1758750D01*
X1598750D02*
Y457300D01*
X1758750D01*
Y243300D02*
Y457300D01*
X1746500Y665500D02*
X1771500D01*
Y633500D02*
Y665500D01*
X1746500Y633500D02*
Y665500D01*
Y633500D02*
X1771500D01*
X1536250Y380000D02*
Y430000D01*
X1486250Y380000D02*
Y430000D01*
X1536250D01*
X1486250Y380000D02*
X1536250D01*
X1325000Y433150D02*
X1333000D01*
Y417150D02*
Y433150D01*
X1325000Y417150D02*
X1333000D01*
X1325000D02*
Y433150D01*
D15*
X1357250Y444666D02*
Y441334D01*
X1358916Y443000D02*
X1355584D01*
D85*
X1351248Y469331D02*
X1341252D01*
Y464332D01*
X1342918Y462666D01*
X1349582D01*
X1351248Y464332D01*
Y469331D01*
X1349582Y459334D02*
X1351248Y457668D01*
Y454336D01*
X1349582Y452669D01*
X1347916D01*
X1344584Y456002D01*
X1342918D02*
X1341252D01*
M02*
