%TF.GenerationSoftware,Altium Limited,Altium Designer,20.0.12 (288)*%
G04 Layer_Color=32768*
%FSLAX45Y45*%
%MOMM*%
%TF.FileFunction,Other,Mechanical_15*%
%TF.Part,Single*%
G01*
G75*
%TA.AperFunction,NonConductor*%
%ADD85C,0.05000*%
D85*
X13802499Y5835000D02*
X14142500D01*
X13802499Y5425000D02*
Y5835000D01*
X14142500Y5425000D02*
Y5835000D01*
X13802499Y5425000D02*
X14142500D01*
X13543500Y4230500D02*
Y4527500D01*
X13396500Y4230500D02*
X13543500D01*
X13396500D02*
Y4527500D01*
X13543500D01*
X14918750Y3422000D02*
X15261250D01*
Y3844000D01*
X14918750D02*
X15261250D01*
X14918750Y3422000D02*
Y3844000D01*
X14589700Y2395000D02*
Y3237000D01*
Y2395000D02*
X15604700D01*
Y3237000D01*
X14589700D02*
X15604700D01*
X15390500Y3947000D02*
Y4568000D01*
X14769501Y3947000D02*
Y4568000D01*
Y3947000D02*
X15390500D01*
X14769501Y4568000D02*
X15390500D01*
X15772501Y2535000D02*
X17622501D01*
X15772501D02*
Y4725000D01*
X17622501D01*
Y2535000D02*
Y4725000D01*
X17140001Y6592500D02*
Y6932500D01*
Y6592500D02*
X17550002D01*
X17140001Y6932500D02*
X17550002D01*
Y6592500D02*
Y6932500D01*
%TF.MD5,2e02cc64d73aa26c20a1e0df71d5e3e3*%
M02*
