G04*
G04 #@! TF.GenerationSoftware,Altium Limited,Altium Designer,20.0.12 (288)*
G04*
G04 Layer_Color=8388736*
%FSLAX44Y44*%
%MOMM*%
G71*
G01*
G75*
%ADD34R,1.0032X1.0032*%
%ADD35C,1.0662*%
%ADD36R,1.0032X1.0032*%
%ADD37R,1.4032X1.4032*%
%ADD38R,1.4032X1.6032*%
%ADD39R,1.9032X1.1032*%
%ADD40R,0.5032X1.3432*%
%ADD41R,0.5032X1.4032*%
%ADD42R,1.4032X0.5032*%
G04:AMPARAMS|DCode=43|XSize=0.4432mm|YSize=1.2032mm|CornerRadius=0.1616mm|HoleSize=0mm|Usage=FLASHONLY|Rotation=90.000|XOffset=0mm|YOffset=0mm|HoleType=Round|Shape=RoundedRectangle|*
%AMROUNDEDRECTD43*
21,1,0.4432,0.8800,0,0,90.0*
21,1,0.1200,1.2032,0,0,90.0*
1,1,0.3232,0.4400,0.0600*
1,1,0.3232,0.4400,-0.0600*
1,1,0.3232,-0.4400,-0.0600*
1,1,0.3232,-0.4400,0.0600*
%
%ADD43ROUNDEDRECTD43*%
G04:AMPARAMS|DCode=44|XSize=0.4432mm|YSize=1.2032mm|CornerRadius=0.1616mm|HoleSize=0mm|Usage=FLASHONLY|Rotation=0.000|XOffset=0mm|YOffset=0mm|HoleType=Round|Shape=RoundedRectangle|*
%AMROUNDEDRECTD44*
21,1,0.4432,0.8800,0,0,0.0*
21,1,0.1200,1.2032,0,0,0.0*
1,1,0.3232,0.0600,-0.4400*
1,1,0.3232,-0.0600,-0.4400*
1,1,0.3232,-0.0600,0.4400*
1,1,0.3232,0.0600,0.4400*
%
%ADD44ROUNDEDRECTD44*%
G04:AMPARAMS|DCode=45|XSize=0.8032mm|YSize=1.4032mm|CornerRadius=0.1766mm|HoleSize=0mm|Usage=FLASHONLY|Rotation=0.000|XOffset=0mm|YOffset=0mm|HoleType=Round|Shape=RoundedRectangle|*
%AMROUNDEDRECTD45*
21,1,0.8032,1.0500,0,0,0.0*
21,1,0.4500,1.4032,0,0,0.0*
1,1,0.3532,0.2250,-0.5250*
1,1,0.3532,-0.2250,-0.5250*
1,1,0.3532,-0.2250,0.5250*
1,1,0.3532,0.2250,0.5250*
%
%ADD45ROUNDEDRECTD45*%
G04:AMPARAMS|DCode=46|XSize=1.0032mm|YSize=1.2032mm|CornerRadius=0.2016mm|HoleSize=0mm|Usage=FLASHONLY|Rotation=270.000|XOffset=0mm|YOffset=0mm|HoleType=Round|Shape=RoundedRectangle|*
%AMROUNDEDRECTD46*
21,1,1.0032,0.8000,0,0,270.0*
21,1,0.6000,1.2032,0,0,270.0*
1,1,0.4032,-0.4000,-0.3000*
1,1,0.4032,-0.4000,0.3000*
1,1,0.4032,0.4000,0.3000*
1,1,0.4032,0.4000,-0.3000*
%
%ADD46ROUNDEDRECTD46*%
%ADD47R,1.4032X1.4032*%
G04:AMPARAMS|DCode=48|XSize=1.1732mm|YSize=0.4632mm|CornerRadius=0.1341mm|HoleSize=0mm|Usage=FLASHONLY|Rotation=180.000|XOffset=0mm|YOffset=0mm|HoleType=Round|Shape=RoundedRectangle|*
%AMROUNDEDRECTD48*
21,1,1.1732,0.1950,0,0,180.0*
21,1,0.9050,0.4632,0,0,180.0*
1,1,0.2682,-0.4525,0.0975*
1,1,0.2682,0.4525,0.0975*
1,1,0.2682,0.4525,-0.0975*
1,1,0.2682,-0.4525,-0.0975*
%
%ADD48ROUNDEDRECTD48*%
G04:AMPARAMS|DCode=49|XSize=1.1732mm|YSize=0.4632mm|CornerRadius=0.1341mm|HoleSize=0mm|Usage=FLASHONLY|Rotation=90.000|XOffset=0mm|YOffset=0mm|HoleType=Round|Shape=RoundedRectangle|*
%AMROUNDEDRECTD49*
21,1,1.1732,0.1950,0,0,90.0*
21,1,0.9050,0.4632,0,0,90.0*
1,1,0.2682,0.0975,0.4525*
1,1,0.2682,0.0975,-0.4525*
1,1,0.2682,-0.0975,-0.4525*
1,1,0.2682,-0.0975,0.4525*
%
%ADD49ROUNDEDRECTD49*%
%ADD50R,3.3532X3.3532*%
%ADD51R,1.1732X1.2032*%
%ADD52R,3.7032X1.6032*%
%ADD53C,1.7272*%
%ADD54C,5.2032*%
%ADD55C,1.2702*%
%ADD56O,1.2032X2.2032*%
%ADD57O,1.1032X2.0032*%
%ADD58C,0.8532*%
%ADD59C,3.4532*%
%ADD60C,2.6482*%
%ADD61C,1.7332*%
%ADD62C,1.6012*%
%ADD63R,1.6012X1.6012*%
%ADD64O,2.6032X5.2032*%
%ADD65O,5.2032X2.6032*%
D34*
X1644500Y484250D02*
D03*
Y469250D02*
D03*
X1448250Y557250D02*
D03*
Y542250D02*
D03*
Y528200D02*
D03*
Y513200D02*
D03*
X1373250Y593500D02*
D03*
Y608500D02*
D03*
X1420000D02*
D03*
Y593500D02*
D03*
X1326250Y608500D02*
D03*
Y593500D02*
D03*
X1486750Y348250D02*
D03*
Y363250D02*
D03*
X1551250Y382000D02*
D03*
Y397000D02*
D03*
X1454750Y428250D02*
D03*
Y413250D02*
D03*
X1468750Y428250D02*
D03*
Y413250D02*
D03*
X1680500Y571000D02*
D03*
Y586000D02*
D03*
X1331500Y468750D02*
D03*
Y453750D02*
D03*
X1448250Y484250D02*
D03*
Y499250D02*
D03*
X1333000Y721000D02*
D03*
Y736000D02*
D03*
X1319000Y721000D02*
D03*
Y736000D02*
D03*
X1568000Y560000D02*
D03*
Y545000D02*
D03*
X1616500Y469250D02*
D03*
Y484250D02*
D03*
X1671750Y469250D02*
D03*
Y484250D02*
D03*
X1638500Y571000D02*
D03*
Y586000D02*
D03*
X1652500Y571000D02*
D03*
Y586000D02*
D03*
X1727500Y717000D02*
D03*
Y732000D02*
D03*
X1713500Y717000D02*
D03*
Y732000D02*
D03*
X1699500Y717000D02*
D03*
Y732000D02*
D03*
X1685500Y717000D02*
D03*
Y732000D02*
D03*
X1671500Y717000D02*
D03*
Y732000D02*
D03*
X1657477Y717000D02*
D03*
Y732000D02*
D03*
X1643500Y717000D02*
D03*
Y732000D02*
D03*
X1629500Y717000D02*
D03*
Y732000D02*
D03*
X1615500Y717000D02*
D03*
Y732000D02*
D03*
X1685750Y484250D02*
D03*
Y469250D02*
D03*
X1768750Y425000D02*
D03*
Y410000D02*
D03*
Y318250D02*
D03*
Y303250D02*
D03*
X1588750Y318250D02*
D03*
Y303250D02*
D03*
X1630500Y469250D02*
D03*
Y484250D02*
D03*
X1733250Y642750D02*
D03*
Y657750D02*
D03*
X1658000Y469250D02*
D03*
Y484250D02*
D03*
X1713750Y469250D02*
D03*
Y484250D02*
D03*
X1699750Y469250D02*
D03*
Y484250D02*
D03*
X1741750Y469250D02*
D03*
Y484250D02*
D03*
X1708750Y571000D02*
D03*
Y586000D02*
D03*
X1727750Y484250D02*
D03*
Y469250D02*
D03*
X1694750Y571000D02*
D03*
Y586000D02*
D03*
X1666500Y571000D02*
D03*
Y586000D02*
D03*
D35*
X1521350Y601300D02*
D03*
X1534050D02*
D03*
X1546750D02*
D03*
X1521350Y614000D02*
D03*
X1534050D02*
D03*
X1546750D02*
D03*
D36*
X1597500Y640750D02*
D03*
X1612500D02*
D03*
X1550500Y458750D02*
D03*
X1535500D02*
D03*
X1414000Y492250D02*
D03*
X1429000D02*
D03*
X1428500Y550000D02*
D03*
X1413500D02*
D03*
X1486750Y334250D02*
D03*
X1471750D02*
D03*
X1556750D02*
D03*
X1541750D02*
D03*
X1466500Y576000D02*
D03*
X1481500D02*
D03*
X1597500Y626750D02*
D03*
X1612500D02*
D03*
X1597500Y668750D02*
D03*
X1612500D02*
D03*
X1597500Y682750D02*
D03*
X1612500D02*
D03*
X1597500Y612750D02*
D03*
X1612500D02*
D03*
X1597500Y696750D02*
D03*
X1612500D02*
D03*
X1597500Y654750D02*
D03*
X1612500D02*
D03*
X1766500Y678250D02*
D03*
X1751500D02*
D03*
Y620750D02*
D03*
X1766500D02*
D03*
D37*
X1763500Y589750D02*
D03*
X1742500D02*
D03*
X1457500Y593000D02*
D03*
X1478500D02*
D03*
X1588500Y595750D02*
D03*
X1609500D02*
D03*
D38*
X1429750Y532200D02*
D03*
Y510200D02*
D03*
X1412750D02*
D03*
Y532200D02*
D03*
X1750500Y638500D02*
D03*
Y660500D02*
D03*
X1767500D02*
D03*
Y638500D02*
D03*
X1407050Y407250D02*
D03*
X1384750D02*
D03*
X1362450D02*
D03*
D39*
X1349500Y589460D02*
D03*
Y630460D02*
D03*
X1396750Y589460D02*
D03*
Y630460D02*
D03*
D40*
X1547750Y317250D02*
D03*
X1544750D02*
D03*
X1539750D02*
D03*
X1536750D02*
D03*
X1531750D02*
D03*
X1526750D02*
D03*
X1521750D02*
D03*
X1516750D02*
D03*
X1480750D02*
D03*
X1483750D02*
D03*
X1488750D02*
D03*
X1491750D02*
D03*
X1496750D02*
D03*
X1501750D02*
D03*
X1506750D02*
D03*
X1511750D02*
D03*
D41*
X1481500Y560000D02*
D03*
X1486500D02*
D03*
X1491500D02*
D03*
X1496500D02*
D03*
X1501500D02*
D03*
X1506500D02*
D03*
X1511500D02*
D03*
X1516500D02*
D03*
X1521500D02*
D03*
X1526500D02*
D03*
X1531500D02*
D03*
X1536500D02*
D03*
Y475000D02*
D03*
X1531500D02*
D03*
X1526500D02*
D03*
X1521500D02*
D03*
X1516500D02*
D03*
X1511500D02*
D03*
X1506500D02*
D03*
X1501500D02*
D03*
X1496500D02*
D03*
X1491500D02*
D03*
X1486500D02*
D03*
X1481500D02*
D03*
D42*
X1551500Y545000D02*
D03*
Y540000D02*
D03*
Y535000D02*
D03*
Y530000D02*
D03*
Y525000D02*
D03*
Y520000D02*
D03*
Y515000D02*
D03*
Y510000D02*
D03*
Y505000D02*
D03*
Y500000D02*
D03*
Y495000D02*
D03*
Y490000D02*
D03*
X1466500D02*
D03*
Y495000D02*
D03*
Y500000D02*
D03*
Y505000D02*
D03*
Y510000D02*
D03*
Y515000D02*
D03*
Y520000D02*
D03*
Y525000D02*
D03*
Y530000D02*
D03*
Y535000D02*
D03*
Y540000D02*
D03*
Y545000D02*
D03*
D43*
X1631000Y677000D02*
D03*
Y672000D02*
D03*
Y667000D02*
D03*
Y662000D02*
D03*
Y657000D02*
D03*
Y652000D02*
D03*
Y647000D02*
D03*
Y642000D02*
D03*
Y637000D02*
D03*
Y632000D02*
D03*
Y627000D02*
D03*
Y622000D02*
D03*
X1716000D02*
D03*
Y627000D02*
D03*
Y632000D02*
D03*
Y637000D02*
D03*
Y642000D02*
D03*
Y647000D02*
D03*
Y652000D02*
D03*
Y657000D02*
D03*
Y662000D02*
D03*
Y667000D02*
D03*
Y672000D02*
D03*
Y677000D02*
D03*
D44*
X1646000Y607000D02*
D03*
X1651000D02*
D03*
X1656000D02*
D03*
X1661000D02*
D03*
X1666000D02*
D03*
X1671000D02*
D03*
X1676000D02*
D03*
X1681000D02*
D03*
X1686000D02*
D03*
X1691000D02*
D03*
X1696000D02*
D03*
X1701000D02*
D03*
Y692000D02*
D03*
X1696000D02*
D03*
X1691000D02*
D03*
X1686000D02*
D03*
X1681000D02*
D03*
X1676000D02*
D03*
X1671000D02*
D03*
X1666000D02*
D03*
X1661000D02*
D03*
X1656000D02*
D03*
X1651000D02*
D03*
X1646000D02*
D03*
D45*
X1504000Y359750D02*
D03*
X1513500D02*
D03*
X1523000D02*
D03*
Y335750D02*
D03*
X1513500D02*
D03*
X1504000D02*
D03*
D46*
X1346250Y453500D02*
D03*
Y468500D02*
D03*
D47*
X1426250Y431750D02*
D03*
Y410750D02*
D03*
X1343500Y410500D02*
D03*
Y431500D02*
D03*
D48*
X1534950Y390000D02*
D03*
Y395000D02*
D03*
Y400000D02*
D03*
Y405000D02*
D03*
Y410000D02*
D03*
Y415000D02*
D03*
Y420000D02*
D03*
X1487550D02*
D03*
Y415000D02*
D03*
Y410000D02*
D03*
Y405000D02*
D03*
Y400000D02*
D03*
Y395000D02*
D03*
Y390000D02*
D03*
D49*
X1496250Y381300D02*
D03*
X1501250D02*
D03*
X1506250D02*
D03*
X1511250D02*
D03*
X1516250D02*
D03*
X1521250D02*
D03*
X1526250D02*
D03*
Y428700D02*
D03*
X1521250D02*
D03*
X1516250D02*
D03*
X1511250D02*
D03*
X1506250D02*
D03*
X1501250D02*
D03*
X1496250D02*
D03*
D50*
X1511250Y405000D02*
D03*
D51*
X1329000Y432500D02*
D03*
Y417800D02*
D03*
D52*
X1384750Y469250D02*
D03*
D53*
X1353750Y739600D02*
D03*
Y718000D02*
D03*
Y696400D02*
D03*
Y674800D02*
D03*
D54*
X1752750Y534500D02*
D03*
Y814500D02*
D03*
X1333000D02*
D03*
Y534500D02*
D03*
D55*
X1508650Y617810D02*
D03*
Y597490D02*
D03*
X1559450Y607650D02*
D03*
D56*
X1557500Y311350D02*
D03*
X1471000D02*
D03*
D57*
X1557500Y269550D02*
D03*
X1471000D02*
D03*
D58*
X1543150Y306550D02*
D03*
X1485350D02*
D03*
D59*
X1621600Y352500D02*
D03*
X1735900D02*
D03*
D60*
X1756200Y383000D02*
D03*
X1601300D02*
D03*
D61*
X1719600Y303500D02*
D03*
X1745000D02*
D03*
X1637900D02*
D03*
X1612500D02*
D03*
D62*
X1723150Y441400D02*
D03*
X1710450Y416000D02*
D03*
X1697750Y441400D02*
D03*
X1685050Y416000D02*
D03*
X1672350Y441400D02*
D03*
X1659650Y416000D02*
D03*
X1646950Y441400D02*
D03*
D63*
X1634250Y416000D02*
D03*
D64*
X1430000Y355000D02*
D03*
D65*
X1382000Y380000D02*
D03*
Y320000D02*
D03*
M02*
