G04*
G04 #@! TF.GenerationSoftware,Altium Limited,Altium Designer,20.0.12 (288)*
G04*
G04 Layer_Color=128*
%FSLAX44Y44*%
%MOMM*%
G71*
G01*
G75*
%ADD87C,0.0508*%
D87*
X1349940Y739600D02*
X1357560D01*
X1353750Y735790D02*
Y743410D01*
X1349940Y718000D02*
X1357560D01*
X1353750Y714190D02*
Y721810D01*
X1349940Y696400D02*
X1357560D01*
X1353750Y692590D02*
Y700210D01*
X1349940Y674800D02*
X1357560D01*
X1353750Y670990D02*
Y678610D01*
X1737750Y534500D02*
X1767750D01*
X1752750Y519500D02*
Y549500D01*
X1737750Y814500D02*
X1767750D01*
X1752750Y799500D02*
Y829500D01*
X1318000Y814500D02*
X1348000D01*
X1333000Y799500D02*
Y829500D01*
X1503315Y617810D02*
X1513985D01*
X1508650Y612475D02*
Y623145D01*
X1503315Y597490D02*
X1513985D01*
X1508650Y592155D02*
Y602825D01*
X1554115Y607650D02*
X1564785D01*
X1559450Y602315D02*
Y612985D01*
X1318000Y534500D02*
X1348000D01*
X1333000Y519500D02*
Y549500D01*
X1554250Y311350D02*
X1560750D01*
X1557500Y308100D02*
Y314600D01*
X1554250Y269550D02*
X1560750D01*
X1557500Y266300D02*
Y272800D01*
X1467750Y269550D02*
X1474250D01*
X1471000Y266300D02*
Y272800D01*
X1467750Y311350D02*
X1474250D01*
X1471000Y308100D02*
Y314600D01*
X1539900Y306550D02*
X1546400D01*
X1543150Y303300D02*
Y309800D01*
X1482100Y306550D02*
X1488600D01*
X1485350Y303300D02*
Y309800D01*
X1605350Y352500D02*
X1637850D01*
X1621600Y336250D02*
Y368750D01*
X1719650Y352500D02*
X1752150D01*
X1735900Y336250D02*
Y368750D01*
X1748050Y383000D02*
X1764350D01*
X1756200Y374850D02*
Y391150D01*
X1593150Y383000D02*
X1609450D01*
X1601300Y374850D02*
Y391150D01*
X1714500Y303500D02*
X1724700D01*
X1719600Y298400D02*
Y308600D01*
X1739900Y303500D02*
X1750100D01*
X1745000Y298400D02*
Y308600D01*
X1632800Y303500D02*
X1643000D01*
X1637900Y298400D02*
Y308600D01*
X1607400Y303500D02*
X1617600D01*
X1612500Y298400D02*
Y308600D01*
X1718700Y441400D02*
X1727600D01*
X1723150Y436950D02*
Y445850D01*
X1706000Y416000D02*
X1714900D01*
X1710450Y411550D02*
Y420450D01*
X1693300Y441400D02*
X1702200D01*
X1697750Y436950D02*
Y445850D01*
X1680600Y416000D02*
X1689500D01*
X1685050Y411550D02*
Y420450D01*
X1667900Y441400D02*
X1676800D01*
X1672350Y436950D02*
Y445850D01*
X1655200Y416000D02*
X1664100D01*
X1659650Y411550D02*
Y420450D01*
X1642500Y441400D02*
X1651400D01*
X1646950Y436950D02*
Y445850D01*
X1629800Y416000D02*
X1638700D01*
X1634250Y411550D02*
Y420450D01*
X1423000Y355000D02*
X1437000D01*
X1430000Y348000D02*
Y362000D01*
X1362000Y380000D02*
X1402000D01*
X1382000Y360000D02*
Y400000D01*
X1362000Y320000D02*
X1402000D01*
X1382000Y300000D02*
Y340000D01*
X1510250Y405000D02*
X1512250D01*
X1511250Y404000D02*
Y406000D01*
X1500000Y405500D02*
X1502000D01*
X1501000Y404500D02*
Y406500D01*
X1500250Y395750D02*
X1502250D01*
X1501250Y394750D02*
Y396750D01*
X1510500Y395750D02*
X1512500D01*
X1511500Y394750D02*
Y396750D01*
X1520500Y395750D02*
X1522500D01*
X1521500Y394750D02*
Y396750D01*
X1520000Y405750D02*
X1522000D01*
X1521000Y404750D02*
Y406750D01*
X1520250Y415250D02*
X1522250D01*
X1521250Y414250D02*
Y416250D01*
X1510250Y415250D02*
X1512250D01*
X1511250Y414250D02*
Y416250D01*
X1500250Y415250D02*
X1502250D01*
X1501250Y414250D02*
Y416250D01*
X1505174Y486492D02*
X1507174D01*
X1506174Y485492D02*
Y487492D01*
X1499952Y490429D02*
X1501952D01*
X1500952Y489430D02*
Y491429D01*
X1485000Y548750D02*
X1487000D01*
X1486000Y547750D02*
Y549750D01*
X1533050Y614000D02*
X1535050D01*
X1534050Y613000D02*
Y615000D01*
X1477500Y516750D02*
X1479500D01*
X1478500Y515750D02*
Y517750D01*
X1493834Y485834D02*
X1495834D01*
X1494834Y484834D02*
Y486834D01*
X1704368Y662000D02*
X1706368D01*
X1705368Y661000D02*
Y663000D01*
X1699997Y657134D02*
X1701997D01*
X1700997Y656134D02*
Y658134D01*
X1699750Y667000D02*
X1701750D01*
X1700750Y666000D02*
Y668000D01*
X1489500Y490750D02*
X1491500D01*
X1490500Y489750D02*
Y491750D01*
X1706110Y640652D02*
X1708110D01*
X1707110Y639652D02*
Y641652D01*
X1704000Y672000D02*
X1706000D01*
X1705000Y671000D02*
Y673000D01*
X1640000Y667000D02*
X1642000D01*
X1641000Y666000D02*
Y668000D01*
X1539500Y540000D02*
X1541500D01*
X1540500Y539000D02*
Y541000D01*
X1645000Y682500D02*
X1647000D01*
X1646000Y681500D02*
Y683500D01*
X1750500Y620750D02*
X1752500D01*
X1751500Y619750D02*
Y621750D01*
X1766500Y660500D02*
X1768500D01*
X1767500Y659500D02*
Y661500D01*
X1765500Y678250D02*
X1767500D01*
X1766500Y677250D02*
Y679250D01*
X1712500Y732000D02*
X1714500D01*
X1713500Y731000D02*
Y733000D01*
X1698500Y732000D02*
X1700500D01*
X1699500Y731000D02*
Y733000D01*
X1684500Y732000D02*
X1686500D01*
X1685500Y731000D02*
Y733000D01*
X1670500Y732000D02*
X1672500D01*
X1671500Y731000D02*
Y733000D01*
X1596500Y682750D02*
X1598500D01*
X1597500Y681750D02*
Y683750D01*
X1656476Y732000D02*
X1658477D01*
X1657477Y731000D02*
Y733000D01*
X1640000Y637250D02*
X1642000D01*
X1641000Y636250D02*
Y638250D01*
X1650000Y617000D02*
X1652000D01*
X1651000Y616000D02*
Y618000D01*
X1660000Y617000D02*
X1662000D01*
X1661000Y616000D02*
Y618000D01*
X1675000Y617000D02*
X1677000D01*
X1676000Y616000D02*
Y618000D01*
X1749500Y638500D02*
X1751500D01*
X1750500Y637500D02*
Y639500D01*
X1762500Y589750D02*
X1764500D01*
X1763500Y588750D02*
Y590750D01*
X1637500Y571000D02*
X1639500D01*
X1638500Y570000D02*
Y572000D01*
X1651500Y571000D02*
X1653500D01*
X1652500Y570000D02*
Y572000D01*
X1665500Y571000D02*
X1667500D01*
X1666500Y570000D02*
Y572000D01*
X1679500Y571000D02*
X1681500D01*
X1680500Y570000D02*
Y572000D01*
X1707750Y571000D02*
X1709750D01*
X1708750Y570000D02*
Y572000D01*
X1693750Y571000D02*
X1695750D01*
X1694750Y570000D02*
Y572000D01*
X1684750Y484250D02*
X1686750D01*
X1685750Y483250D02*
Y485250D01*
X1726750Y484250D02*
X1728750D01*
X1727750Y483250D02*
Y485250D01*
X1767750Y425000D02*
X1769750D01*
X1768750Y424000D02*
Y426000D01*
X1470750Y334250D02*
X1472750D01*
X1471750Y333250D02*
Y335250D01*
X1479750Y317250D02*
X1481750D01*
X1480750Y316250D02*
Y318250D01*
X1543750Y317250D02*
X1545750D01*
X1544750Y316250D02*
Y318250D01*
X1555750Y334250D02*
X1557750D01*
X1556750Y333250D02*
Y335250D01*
X1512500Y335750D02*
X1514500D01*
X1513500Y334750D02*
Y336750D01*
X1485750Y348250D02*
X1487750D01*
X1486750Y347250D02*
Y349250D01*
X1549500Y458750D02*
X1551500D01*
X1550500Y457750D02*
Y459750D01*
X1596500Y640750D02*
X1598500D01*
X1597500Y639750D02*
Y641750D01*
X1596500Y626750D02*
X1598500D01*
X1597500Y625750D02*
Y627750D01*
X1596500Y612750D02*
X1598500D01*
X1597500Y611750D02*
Y613750D01*
X1587500Y595750D02*
X1589500D01*
X1588500Y594750D02*
Y596750D01*
X1567000Y560000D02*
X1569000D01*
X1568000Y559000D02*
Y561000D01*
X1530500Y487500D02*
X1532500D01*
X1531500Y486500D02*
Y488500D01*
X1477500Y510000D02*
X1479500D01*
X1478500Y509000D02*
Y511000D01*
X1465500Y576000D02*
X1467500D01*
X1466500Y575000D02*
Y577000D01*
X1456500Y593000D02*
X1458500D01*
X1457500Y592000D02*
Y594000D01*
X1520350Y614000D02*
X1522350D01*
X1521350Y613000D02*
Y615000D01*
X1332000Y721000D02*
X1334000D01*
X1333000Y720000D02*
Y722000D01*
X1325250Y608500D02*
X1327250D01*
X1326250Y607500D02*
Y609500D01*
X1348500Y630460D02*
X1350500D01*
X1349500Y629460D02*
Y631460D01*
X1419000Y608500D02*
X1421000D01*
X1420000Y607500D02*
Y609500D01*
X1411750Y510200D02*
X1413750D01*
X1412750Y509200D02*
Y511200D01*
X1447250Y557250D02*
X1449250D01*
X1448250Y556250D02*
Y558250D01*
X1427500Y550000D02*
X1429500D01*
X1428500Y549000D02*
Y551000D01*
X1428750Y532200D02*
X1430750D01*
X1429750Y531200D02*
Y533200D01*
X1447250Y484250D02*
X1449250D01*
X1448250Y483250D02*
Y485250D01*
X1413000Y492250D02*
X1415000D01*
X1414000Y491250D02*
Y493250D01*
X1425250Y431750D02*
X1427250D01*
X1426250Y430750D02*
Y432750D01*
X1361450Y407250D02*
X1363450D01*
X1362450Y406250D02*
Y408250D01*
X1342500Y410500D02*
X1344500D01*
X1343500Y409500D02*
Y411500D01*
X1330500Y453750D02*
X1332500D01*
X1331500Y452750D02*
Y454750D01*
M02*
