M48
;Layer_Color=9474304
;FILE_FORMAT=4:4
METRIC,LZ
;TYPE=PLATED
T1F00S00C0.2000
T3F00S00C0.7620
T4F00S00C0.8900
T5F00S00C1.0200
T7F00S00C1.6300
T8F00S00C3.0000
;TYPE=NON_PLATED
T9F00S00C0.6500
T10F00S00C3.2500
%
T01
X0147772Y003155
X0145525Y0034025
X0150925Y0034075
X0151725Y0032475
X0154172Y003155
X015625Y00333
X0157625Y0034175
X0156975Y00369
X01509Y0037585
X01503Y003925
X01762Y0034125
X0166325Y00497
X016525Y005135
X01643
X0163325Y0048225
X016Y0051425
X016095Y0053725
X016095Y005555
X01624Y0058071
X0163725Y00598
X01651Y0058775
X0166525Y0058825
X01679Y005875
X0169325Y0058775
X016655Y0057025
X0168075Y005415
X0173Y00573
X01737Y006495
X017455Y0066775
X017455Y0068525
X017235Y0068475
X0170975Y0068225
X017095Y0069225
X0168675Y006875
Y0069725
X016865Y0067725
Y0066791
X0170875Y0065725
Y0064725
X016595Y00645
X0164475
X016345Y0064475
X0162725Y0066225
X01625Y006775
X01645Y00673
X0162375Y0071725
X0160375Y00707
X016035Y0070025
X0164025Y0076675
X016545
X0166825
X0168225
X01696
X0177925Y0069
X0176425Y0066225
X015685Y0067025
Y00698
X0156775Y00642
X0153975Y0065625
X01553Y0059375
X015865Y005955
X0158125Y0058075
X015635Y0055125
Y00531
X0148825Y005345
X0145325Y0053475
X01444Y005345
X01447818Y00512182
X0145825Y0051175
X01493Y00478
X014965Y0043775
Y0043025
X0150425
Y0043775
X0151225
Y0043025
X0152
Y0043775
Y004225
X0151225
X0150425
X014965
X0149625Y0041475
X01504
X01512
X0151975
X01411Y00413
X0138725Y0042025
X0136175Y0042
X0137975Y00535
X0138875Y00552
X0140575Y00574
X0138Y0059175
X0141075Y0062275
X0144325Y006185
X01458Y0062425
X0149325Y00598
X0149375Y00588
X0135347Y006395
X0135325Y007205
X01333
X0133875Y007615
T03
X01384Y0069725
Y0071885
Y0074045
Y0076205
T04
X0162525Y004287
X0165065
X0167605
X0170145
X0171415Y004541
X0168875
X0166335
X0163795
T05
X016035Y003162
X016289
X017106
X01736
T07
X015923Y003957
X017472
T08
X0175225Y0051425
X0133375Y005145
X013335Y00814
X0175225
T09
X0147924Y0029772
X0153862Y003048
T10
X016126Y003652
X017269
M30
