M48
;Layer_Color=9474304
;FILE_FORMAT=4:4
METRIC,LZ
;TYPE=PLATED
T1F00S00C0.2000
T3F00S00C0.7620
T4F00S00C0.8900
T5F00S00C1.0200
T7F00S00C1.6300
T8F00S00C3.0000
;TYPE=NON_PLATED
T9F00S00C0.6500
T10F00S00C1.0670
T11F00S00C3.2500
%
T01
X0148075Y0031725
X0147175Y0033425
X0148675Y0034825
X015135Y0033575
X0155675Y0033425
X0154475Y0031725
X015215Y0039575
X015115
X0150125
X0168575Y0048425
X0172775
X0176875Y00425
X017635Y0058975
X017515Y0062075
X017505Y006385
X017675Y006605
X017665Y0067825
X01705Y00672
X0170075Y00667
X01705368Y00662
X01700997Y00657134
X0170711Y00640652
X01676Y00617
X01661
X01651
X01641Y0063725
Y00667
X01646Y006825
X015975Y0068275
X015975Y0064075
Y0062675
Y0061275
X015885Y0059575
X016385Y00571
X016525
X016665
X016805
X0169475
X0170875
X017135Y00732
X016995
X016855
X016715
X01657477
X0153405Y00614
X0152135
X014575Y00593
X014665Y00576
X0144825Y0055725
X014285Y0055
X0142975Y005322
X0141275Y005102
X01414Y0049225
X0144825Y0048425
X01494834Y00485834
X014905Y0049075
X01500952Y00490429
X01506174Y00486492
X015315Y004875
X015505Y0045875
X0152125Y0041525
X01521Y0040575
X0151125Y00405
X0151125Y0041525
X0150125
X01501Y004055
X0142625Y0043175
X0136245Y0040725
X013435Y004105
X013315Y0045375
X0132625Y006085
X013495Y0063046
X0142Y006085
X01486Y0054875
X014785Y0051675
Y0051
X015405Y0054
X01568Y0056
X01333Y00721
T03
X0135375Y006748
Y006964
Y00718
Y007396
T04
X0163425Y00416
X0165965
X0168505
X0171045
X0172315Y004414
X0169775
X0167235
X0164695
T05
X016125Y003035
X016379
X017196
X01745
T07
X016013Y00383
X017562
T08
X0175275Y005345
X01333
Y008145
X0175275
T09
X0148535Y0030655
X0154315
T10
X0150865Y0059749
Y0061781
X0155945Y0060765
T11
X016216Y003525
X017359
M30
