G04*
G04 #@! TF.GenerationSoftware,Altium Limited,Altium Designer,20.0.12 (288)*
G04*
G04 Layer_Color=2752767*
%FSLAX44Y44*%
%MOMM*%
G71*
G01*
G75*
%ADD10C,0.2000*%
%ADD11C,0.3000*%
%ADD12C,0.2540*%
%ADD14C,0.1270*%
%ADD16C,0.0000*%
%ADD17C,0.0500*%
%ADD87C,0.0508*%
%ADD88C,0.0677*%
%ADD89C,0.0339*%
D10*
X1376250Y574000D02*
G03*
X1376250Y574000I-1000J0D01*
G01*
X1500550Y337750D02*
G03*
X1500550Y337750I-1000J0D01*
G01*
X1454970Y315500D02*
G03*
X1454970Y315500I-1000J0D01*
G01*
X1494000Y390350D02*
G03*
X1494000Y390350I-1000J0D01*
G01*
X1724250Y663250D02*
G03*
X1724250Y663250I-1000J0D01*
G01*
D11*
X1613250Y428200D02*
G03*
X1613250Y428200I-1500J0D01*
G01*
D12*
X1752668Y254500D02*
G03*
X1792720Y294552I0J40052D01*
G01*
X1293000Y294601D02*
G03*
X1333101Y254500I40101J0D01*
G01*
X1333498Y854500D02*
G03*
X1293000Y814002I0J-40498D01*
G01*
X1792720Y814275D02*
G03*
X1752495Y854500I-40225J0D01*
G01*
X1333101Y254500D02*
X1752668D01*
X1792720Y294552D02*
Y814275D01*
X1293000Y294601D02*
Y814002D01*
X1333498Y854500D02*
X1752495D01*
X1489020Y249500D02*
Y256498D01*
X1492519D01*
X1493685Y255331D01*
Y252999D01*
X1492519Y251833D01*
X1489020D01*
X1500683Y255331D02*
X1499517Y256498D01*
X1497184D01*
X1496018Y255331D01*
Y250666D01*
X1497184Y249500D01*
X1499517D01*
X1500683Y250666D01*
X1503015Y256498D02*
Y249500D01*
X1506514D01*
X1507681Y250666D01*
Y251833D01*
X1506514Y252999D01*
X1503015D01*
X1506514D01*
X1507681Y254165D01*
Y255331D01*
X1506514Y256498D01*
X1503015D01*
X1521676D02*
X1517011D01*
Y249500D01*
X1521676D01*
X1517011Y252999D02*
X1519344D01*
X1528674Y256498D02*
Y249500D01*
X1525175D01*
X1524009Y250666D01*
Y252999D01*
X1525175Y254165D01*
X1528674D01*
X1533339Y247167D02*
X1534505D01*
X1535672Y248334D01*
Y254165D01*
X1532173D01*
X1531006Y252999D01*
Y250666D01*
X1532173Y249500D01*
X1535672D01*
X1541503D02*
X1539171D01*
X1538004Y250666D01*
Y252999D01*
X1539171Y254165D01*
X1541503D01*
X1542669Y252999D01*
Y251833D01*
X1538004D01*
D14*
X1384750Y579000D02*
X1409750D01*
Y547000D02*
Y579000D01*
X1384750Y547000D02*
Y579000D01*
Y547000D02*
X1409750D01*
X1321750Y458850D02*
X1329750D01*
Y442850D02*
Y458850D01*
X1321750Y442850D02*
X1329750D01*
X1321750D02*
Y458850D01*
X1494375Y355175D02*
Y371425D01*
X1523625D01*
Y355175D02*
Y371425D01*
X1494375Y355175D02*
X1523625D01*
X1465020Y242000D02*
Y315500D01*
Y242000D02*
X1554420D01*
Y315500D01*
X1465020D02*
X1554420D01*
X1455020Y246900D02*
X1564420D01*
X1533000Y400750D02*
Y450750D01*
X1483000Y400750D02*
Y450750D01*
X1533000D01*
X1483000Y400750D02*
X1533000D01*
X1589750Y256000D02*
X1749750D01*
X1589750D02*
Y470000D01*
X1749750D01*
Y256000D02*
Y470000D01*
X1718250Y672750D02*
Y697750D01*
X1750250D01*
X1718250Y672750D02*
X1750250D01*
Y697750D01*
D16*
X1552894Y318099D02*
G03*
X1549721Y314575I176J-3349D01*
G01*
X1556219Y315115D02*
G03*
X1552905Y318099I-3149J-165D01*
G01*
Y301101D02*
G03*
X1556219Y304085I165J3149D01*
G01*
X1549720Y304092D02*
G03*
X1552928Y301100I3100J108D01*
G01*
X1556220Y304100D02*
Y315100D01*
X1549720Y304100D02*
Y314600D01*
D17*
X1380250Y583500D02*
X1414250D01*
X1380250Y542500D02*
Y583500D01*
X1414250Y542500D02*
Y583500D01*
X1380250Y542500D02*
X1414250D01*
X1333100Y436000D02*
Y465700D01*
X1318400Y436000D02*
X1333100D01*
X1318400D02*
Y465700D01*
X1333100D01*
X1491875Y342200D02*
X1526125D01*
Y384400D01*
X1491875D02*
X1526125D01*
X1491875Y342200D02*
Y384400D01*
X1458970Y239500D02*
Y323700D01*
Y239500D02*
X1560470D01*
Y323700D01*
X1458970D02*
X1560470D01*
X1539050Y394700D02*
Y456800D01*
X1476950Y394700D02*
Y456800D01*
Y394700D02*
X1539050D01*
X1476950Y456800D02*
X1539050D01*
X1577250Y253500D02*
X1762250D01*
X1577250D02*
Y472500D01*
X1762250D01*
Y253500D02*
Y472500D01*
X1713750Y668250D02*
Y702250D01*
Y668250D02*
X1754750D01*
X1713750Y702250D02*
X1754750D01*
Y668250D02*
Y702250D01*
D87*
X1383968Y330468D02*
Y334532D01*
X1388032D01*
Y330468D01*
X1383968D01*
Y390468D02*
Y394532D01*
X1388032D01*
Y390468D01*
X1383968D01*
X1479240Y295688D02*
X1477208Y299752D01*
X1481272D01*
X1479240Y295688D01*
X1538620Y302768D02*
X1536588Y306832D01*
X1540652D01*
X1538620Y302768D01*
X1466470Y307568D02*
X1467486Y308584D01*
X1468502D01*
X1467486Y309600D01*
X1468502Y310616D01*
X1467486D01*
X1466470Y311632D01*
X1465454Y310616D01*
X1464438D01*
X1465454Y309600D01*
X1464438Y308584D01*
X1465454D01*
X1466470Y307568D01*
X1464438Y265768D02*
X1465454Y267800D01*
X1464438Y269832D01*
X1466470Y268816D01*
X1468502Y269832D01*
X1467486Y267800D01*
X1468502Y265768D01*
X1466470Y266784D01*
X1464438Y265768D01*
X1550938D02*
X1551954Y267800D01*
X1550938Y269832D01*
X1552970Y268816D01*
X1555002Y269832D01*
X1553986Y267800D01*
X1555002Y265768D01*
X1552970Y266784D01*
X1550938Y265768D01*
X1551954Y308584D02*
Y307568D01*
X1553986D01*
Y308584D01*
X1555002D01*
Y310616D01*
X1553986D01*
Y311632D01*
X1551954D01*
Y310616D01*
X1550938D01*
Y308584D01*
X1551954D01*
X1381968Y695218D02*
X1382984D01*
X1384000Y696234D01*
X1385016Y695218D01*
X1386032D01*
Y696234D01*
X1385016Y697250D01*
X1386032Y698266D01*
Y699282D01*
X1385016D01*
X1384000Y698266D01*
X1382984Y699282D01*
X1381968D01*
Y698266D01*
X1382984Y697250D01*
X1381968Y696234D01*
Y695218D01*
Y716818D02*
X1382984D01*
X1384000Y717834D01*
X1385016Y716818D01*
X1386032D01*
Y717834D01*
X1385016Y718850D01*
X1386032Y719866D01*
Y720882D01*
X1385016D01*
X1384000Y719866D01*
X1382984Y720882D01*
X1381968D01*
Y719866D01*
X1382984Y718850D01*
X1381968Y717834D01*
Y716818D01*
Y738418D02*
X1382984D01*
X1384000Y739434D01*
X1385016Y738418D01*
X1386032D01*
Y739434D01*
X1385016Y740450D01*
X1386032Y741466D01*
Y742482D01*
X1385016D01*
X1384000Y741466D01*
X1382984Y742482D01*
X1381968D01*
Y741466D01*
X1382984Y740450D01*
X1381968Y739434D01*
Y738418D01*
Y760018D02*
X1382984D01*
X1384000Y761034D01*
X1385016Y760018D01*
X1386032D01*
Y761034D01*
X1385016Y762050D01*
X1386032Y763066D01*
Y764082D01*
X1385016D01*
X1384000Y763066D01*
X1382984Y764082D01*
X1381968D01*
Y763066D01*
X1382984Y762050D01*
X1381968Y761034D01*
Y760018D01*
X1610568Y365200D02*
X1612600Y367232D01*
X1614632Y365200D01*
X1612600Y363168D01*
X1610568Y365200D01*
X1724868D02*
X1726900Y367232D01*
X1728932Y365200D01*
X1726900Y363168D01*
X1724868Y365200D01*
X1745168Y393668D02*
Y397732D01*
X1749232D01*
Y393668D01*
X1745168D01*
X1746184Y394684D02*
Y396716D01*
X1748216D01*
Y394684D01*
X1746184D01*
X1590268Y393668D02*
Y397732D01*
X1594332D01*
Y393668D01*
X1590268D01*
X1591284Y394684D02*
Y396716D01*
X1593316D01*
Y394684D01*
X1591284D01*
X1714150Y452068D02*
X1712118Y456132D01*
X1716182D01*
X1714150Y452068D01*
Y453084D02*
X1713134Y455116D01*
X1715166D01*
X1714150Y453084D01*
X1701450Y426668D02*
X1699418Y430732D01*
X1703482D01*
X1701450Y426668D01*
Y427684D02*
X1700434Y429716D01*
X1702466D01*
X1701450Y427684D01*
X1688750Y452068D02*
X1686718Y456132D01*
X1690782D01*
X1688750Y452068D01*
Y453084D02*
X1687734Y455116D01*
X1689766D01*
X1688750Y453084D01*
X1676050Y426668D02*
X1674018Y430732D01*
X1678082D01*
X1676050Y426668D01*
Y427684D02*
X1675034Y429716D01*
X1677066D01*
X1676050Y427684D01*
X1663350Y452068D02*
X1661318Y456132D01*
X1665382D01*
X1663350Y452068D01*
Y453084D02*
X1662334Y455116D01*
X1664366D01*
X1663350Y453084D01*
X1650650Y426668D02*
X1648618Y430732D01*
X1652682D01*
X1650650Y426668D01*
Y427684D02*
X1649634Y429716D01*
X1651666D01*
X1650650Y427684D01*
X1637950Y452068D02*
X1635918Y456132D01*
X1639982D01*
X1637950Y452068D01*
Y453084D02*
X1636934Y455116D01*
X1638966D01*
X1637950Y453084D01*
X1625250Y426668D02*
X1623218Y430732D01*
X1627282D01*
X1625250Y426668D01*
Y427684D02*
X1624234Y429716D01*
X1626266D01*
X1625250Y427684D01*
X1752250Y811968D02*
X1753266Y812984D01*
X1754282D01*
X1753266Y814000D01*
X1754282Y815016D01*
X1753266D01*
X1752250Y816032D01*
X1751234Y815016D01*
X1750218D01*
X1751234Y814000D01*
X1750218Y812984D01*
X1751234D01*
X1752250Y811968D01*
Y812984D02*
X1752758Y813492D01*
X1753266D01*
X1752758Y814000D01*
X1753266Y814508D01*
X1752758D01*
X1752250Y815016D01*
X1751742Y814508D01*
X1751234D01*
X1751742Y814000D01*
X1751234Y813492D01*
X1751742D01*
X1752250Y812984D01*
X1333500Y811968D02*
X1334516Y812984D01*
X1335532D01*
X1334516Y814000D01*
X1335532Y815016D01*
X1334516D01*
X1333500Y816032D01*
X1332484Y815016D01*
X1331468D01*
X1332484Y814000D01*
X1331468Y812984D01*
X1332484D01*
X1333500Y811968D01*
Y812984D02*
X1334008Y813492D01*
X1334516D01*
X1334008Y814000D01*
X1334516Y814508D01*
X1334008D01*
X1333500Y815016D01*
X1332992Y814508D01*
X1332484D01*
X1332992Y814000D01*
X1332484Y813492D01*
X1332992D01*
X1333500Y812984D01*
X1752250Y512218D02*
X1753266Y513234D01*
X1754282D01*
X1753266Y514250D01*
X1754282Y515266D01*
X1753266D01*
X1752250Y516282D01*
X1751234Y515266D01*
X1750218D01*
X1751234Y514250D01*
X1750218Y513234D01*
X1751234D01*
X1752250Y512218D01*
Y513234D02*
X1752758Y513742D01*
X1753266D01*
X1752758Y514250D01*
X1753266Y514758D01*
X1752758D01*
X1752250Y515266D01*
X1751742Y514758D01*
X1751234D01*
X1751742Y514250D01*
X1751234Y513742D01*
X1751742D01*
X1752250Y513234D01*
X1333750Y512468D02*
X1334766Y513484D01*
X1335782D01*
X1334766Y514500D01*
X1335782Y515516D01*
X1334766D01*
X1333750Y516532D01*
X1332734Y515516D01*
X1331718D01*
X1332734Y514500D01*
X1331718Y513484D01*
X1332734D01*
X1333750Y512468D01*
Y513484D02*
X1334258Y513992D01*
X1334766D01*
X1334258Y514500D01*
X1334766Y515008D01*
X1334258D01*
X1333750Y515516D01*
X1333242Y515008D01*
X1332734D01*
X1333242Y514500D01*
X1332734Y513992D01*
X1333242D01*
X1333750Y513484D01*
X1767964Y752967D02*
X1768981Y754998D01*
X1767964Y757030D01*
X1769996Y756014D01*
X1772029Y757030D01*
X1771013Y754998D01*
X1772029Y752967D01*
X1769996Y753982D01*
X1767964Y752967D01*
X1768981Y753982D02*
X1769489Y754998D01*
X1768981Y756014D01*
X1769996Y755507D01*
X1771013Y756014D01*
X1770504Y754998D01*
X1771013Y753982D01*
X1769996Y754491D01*
X1768981Y753982D01*
X1767964Y747967D02*
X1768981Y749998D01*
X1767964Y752030D01*
X1769996Y751014D01*
X1772029Y752030D01*
X1771013Y749998D01*
X1772029Y747967D01*
X1769996Y748982D01*
X1767964Y747967D01*
X1768981Y748982D02*
X1769489Y749998D01*
X1768981Y751014D01*
X1769996Y750507D01*
X1771013Y751014D01*
X1770504Y749998D01*
X1771013Y748982D01*
X1769996Y749491D01*
X1768981Y748982D01*
X1767964Y742967D02*
X1768981Y744998D01*
X1767964Y747030D01*
X1769996Y746014D01*
X1772029Y747030D01*
X1771013Y744998D01*
X1772029Y742967D01*
X1769996Y743982D01*
X1767964Y742967D01*
X1768981Y743982D02*
X1769489Y744998D01*
X1768981Y746014D01*
X1769996Y745507D01*
X1771013Y746014D01*
X1770504Y744998D01*
X1771013Y743982D01*
X1769996Y744491D01*
X1768981Y743982D01*
X1767964Y737967D02*
X1768981Y739998D01*
X1767964Y742030D01*
X1769996Y741014D01*
X1772029Y742030D01*
X1771013Y739998D01*
X1772029Y737967D01*
X1769996Y738982D01*
X1767964Y737967D01*
X1768981Y738982D02*
X1769489Y739998D01*
X1768981Y741014D01*
X1769996Y740507D01*
X1771013Y741014D01*
X1770504Y739998D01*
X1771013Y738982D01*
X1769996Y739491D01*
X1768981Y738982D01*
X1767964Y732967D02*
X1768981Y734998D01*
X1767964Y737030D01*
X1769996Y736014D01*
X1772029Y737030D01*
X1771013Y734998D01*
X1772029Y732967D01*
X1769996Y733982D01*
X1767964Y732967D01*
X1768981Y733982D02*
X1769489Y734998D01*
X1768981Y736014D01*
X1769996Y735507D01*
X1771013Y736014D01*
X1770504Y734998D01*
X1771013Y733982D01*
X1769996Y734491D01*
X1768981Y733982D01*
X1767964Y727967D02*
X1768981Y729998D01*
X1767964Y732030D01*
X1769996Y731014D01*
X1772029Y732030D01*
X1771013Y729998D01*
X1772029Y727967D01*
X1769996Y728982D01*
X1767964Y727967D01*
X1768981Y728982D02*
X1769489Y729998D01*
X1768981Y731014D01*
X1769996Y730507D01*
X1771013Y731014D01*
X1770504Y729998D01*
X1771013Y728982D01*
X1769996Y729491D01*
X1768981Y728982D01*
X1767964Y722967D02*
X1768981Y724998D01*
X1767964Y727030D01*
X1769996Y726014D01*
X1772029Y727030D01*
X1771013Y724998D01*
X1772029Y722967D01*
X1769996Y723982D01*
X1767964Y722967D01*
X1768981Y723982D02*
X1769489Y724998D01*
X1768981Y726014D01*
X1769996Y725507D01*
X1771013Y726014D01*
X1770504Y724998D01*
X1771013Y723982D01*
X1769996Y724491D01*
X1768981Y723982D01*
X1767964Y717967D02*
X1768981Y719999D01*
X1767964Y722031D01*
X1769996Y721015D01*
X1772029Y722031D01*
X1771013Y719999D01*
X1772029Y717967D01*
X1769996Y718983D01*
X1767964Y717967D01*
X1768981Y718983D02*
X1769489Y719999D01*
X1768981Y721015D01*
X1769996Y720507D01*
X1771013Y721015D01*
X1770504Y719999D01*
X1771013Y718983D01*
X1769996Y719491D01*
X1768981Y718983D01*
X1762964Y752967D02*
X1763981Y754998D01*
X1762964Y757030D01*
X1764996Y756014D01*
X1767029Y757030D01*
X1766013Y754998D01*
X1767029Y752967D01*
X1764996Y753982D01*
X1762964Y752967D01*
X1763981Y753982D02*
X1764489Y754998D01*
X1763981Y756014D01*
X1764996Y755507D01*
X1766013Y756014D01*
X1765504Y754998D01*
X1766013Y753982D01*
X1764996Y754491D01*
X1763981Y753982D01*
X1762964Y747967D02*
X1763981Y749998D01*
X1762964Y752030D01*
X1764996Y751014D01*
X1767029Y752030D01*
X1766013Y749998D01*
X1767029Y747967D01*
X1764996Y748982D01*
X1762964Y747967D01*
X1763981Y748982D02*
X1764489Y749998D01*
X1763981Y751014D01*
X1764996Y750507D01*
X1766013Y751014D01*
X1765504Y749998D01*
X1766013Y748982D01*
X1764996Y749491D01*
X1763981Y748982D01*
X1762964Y742967D02*
X1763981Y744998D01*
X1762964Y747030D01*
X1764996Y746014D01*
X1767029Y747030D01*
X1766013Y744998D01*
X1767029Y742967D01*
X1764996Y743982D01*
X1762964Y742967D01*
X1763981Y743982D02*
X1764489Y744998D01*
X1763981Y746014D01*
X1764996Y745507D01*
X1766013Y746014D01*
X1765504Y744998D01*
X1766013Y743982D01*
X1764996Y744491D01*
X1763981Y743982D01*
X1762964Y737967D02*
X1763981Y739998D01*
X1762964Y742030D01*
X1764996Y741014D01*
X1767029Y742030D01*
X1766013Y739998D01*
X1767029Y737967D01*
X1764996Y738982D01*
X1762964Y737967D01*
X1763981Y738982D02*
X1764489Y739998D01*
X1763981Y741014D01*
X1764996Y740507D01*
X1766013Y741014D01*
X1765504Y739998D01*
X1766013Y738982D01*
X1764996Y739491D01*
X1763981Y738982D01*
X1762964Y732967D02*
X1763981Y734998D01*
X1762964Y737030D01*
X1764996Y736014D01*
X1767029Y737030D01*
X1766013Y734998D01*
X1767029Y732967D01*
X1764996Y733982D01*
X1762964Y732967D01*
X1763981Y733982D02*
X1764489Y734998D01*
X1763981Y736014D01*
X1764996Y735507D01*
X1766013Y736014D01*
X1765504Y734998D01*
X1766013Y733982D01*
X1764996Y734491D01*
X1763981Y733982D01*
X1762964Y727967D02*
X1763981Y729998D01*
X1762964Y732030D01*
X1764996Y731014D01*
X1767029Y732030D01*
X1766013Y729998D01*
X1767029Y727967D01*
X1764996Y728982D01*
X1762964Y727967D01*
X1763981Y728982D02*
X1764489Y729998D01*
X1763981Y731014D01*
X1764996Y730507D01*
X1766013Y731014D01*
X1765504Y729998D01*
X1766013Y728982D01*
X1764996Y729491D01*
X1763981Y728982D01*
X1762964Y722967D02*
X1763981Y724998D01*
X1762964Y727030D01*
X1764996Y726014D01*
X1767029Y727030D01*
X1766013Y724998D01*
X1767029Y722967D01*
X1764996Y723982D01*
X1762964Y722967D01*
X1763981Y723982D02*
X1764489Y724998D01*
X1763981Y726014D01*
X1764996Y725507D01*
X1766013Y726014D01*
X1765504Y724998D01*
X1766013Y723982D01*
X1764996Y724491D01*
X1763981Y723982D01*
X1762964Y717967D02*
X1763981Y719999D01*
X1762964Y722031D01*
X1764996Y721015D01*
X1767029Y722031D01*
X1766013Y719999D01*
X1767029Y717967D01*
X1764996Y718983D01*
X1762964Y717967D01*
X1763981Y718983D02*
X1764489Y719999D01*
X1763981Y721015D01*
X1764996Y720507D01*
X1766013Y721015D01*
X1765504Y719999D01*
X1766013Y718983D01*
X1764996Y719491D01*
X1763981Y718983D01*
X1757964Y752967D02*
X1758981Y754998D01*
X1757964Y757030D01*
X1759996Y756014D01*
X1762029Y757030D01*
X1761013Y754998D01*
X1762029Y752967D01*
X1759996Y753982D01*
X1757964Y752967D01*
X1758981Y753982D02*
X1759489Y754998D01*
X1758981Y756014D01*
X1759996Y755507D01*
X1761013Y756014D01*
X1760504Y754998D01*
X1761013Y753982D01*
X1759996Y754491D01*
X1758981Y753982D01*
X1757964Y747967D02*
X1758981Y749998D01*
X1757964Y752030D01*
X1759996Y751014D01*
X1762029Y752030D01*
X1761013Y749998D01*
X1762029Y747967D01*
X1759996Y748982D01*
X1757964Y747967D01*
X1758981Y748982D02*
X1759489Y749998D01*
X1758981Y751014D01*
X1759996Y750507D01*
X1761013Y751014D01*
X1760504Y749998D01*
X1761013Y748982D01*
X1759996Y749491D01*
X1758981Y748982D01*
X1757964Y742967D02*
X1758981Y744998D01*
X1757964Y747030D01*
X1759996Y746014D01*
X1762029Y747030D01*
X1761013Y744998D01*
X1762029Y742967D01*
X1759996Y743982D01*
X1757964Y742967D01*
X1758981Y743982D02*
X1759489Y744998D01*
X1758981Y746014D01*
X1759996Y745507D01*
X1761013Y746014D01*
X1760504Y744998D01*
X1761013Y743982D01*
X1759996Y744491D01*
X1758981Y743982D01*
X1757964Y737967D02*
X1758981Y739998D01*
X1757964Y742030D01*
X1759996Y741014D01*
X1762029Y742030D01*
X1761013Y739998D01*
X1762029Y737967D01*
X1759996Y738982D01*
X1757964Y737967D01*
X1758981Y738982D02*
X1759489Y739998D01*
X1758981Y741014D01*
X1759996Y740507D01*
X1761013Y741014D01*
X1760504Y739998D01*
X1761013Y738982D01*
X1759996Y739491D01*
X1758981Y738982D01*
X1757964Y732967D02*
X1758981Y734998D01*
X1757964Y737030D01*
X1759996Y736014D01*
X1762029Y737030D01*
X1761013Y734998D01*
X1762029Y732967D01*
X1759996Y733982D01*
X1757964Y732967D01*
X1758981Y733982D02*
X1759489Y734998D01*
X1758981Y736014D01*
X1759996Y735507D01*
X1761013Y736014D01*
X1760504Y734998D01*
X1761013Y733982D01*
X1759996Y734491D01*
X1758981Y733982D01*
X1757964Y727967D02*
X1758981Y729998D01*
X1757964Y732030D01*
X1759996Y731014D01*
X1762029Y732030D01*
X1761013Y729998D01*
X1762029Y727967D01*
X1759996Y728982D01*
X1757964Y727967D01*
X1758981Y728982D02*
X1759489Y729998D01*
X1758981Y731014D01*
X1759996Y730507D01*
X1761013Y731014D01*
X1760504Y729998D01*
X1761013Y728982D01*
X1759996Y729491D01*
X1758981Y728982D01*
X1757964Y722967D02*
X1758981Y724998D01*
X1757964Y727030D01*
X1759996Y726014D01*
X1762029Y727030D01*
X1761013Y724998D01*
X1762029Y722967D01*
X1759996Y723982D01*
X1757964Y722967D01*
X1758981Y723982D02*
X1759489Y724998D01*
X1758981Y726014D01*
X1759996Y725507D01*
X1761013Y726014D01*
X1760504Y724998D01*
X1761013Y723982D01*
X1759996Y724491D01*
X1758981Y723982D01*
X1757964Y717967D02*
X1758981Y719999D01*
X1757964Y722031D01*
X1759996Y721015D01*
X1762029Y722031D01*
X1761013Y719999D01*
X1762029Y717967D01*
X1759996Y718983D01*
X1757964Y717967D01*
X1758981Y718983D02*
X1759489Y719999D01*
X1758981Y721015D01*
X1759996Y720507D01*
X1761013Y721015D01*
X1760504Y719999D01*
X1761013Y718983D01*
X1759996Y719491D01*
X1758981Y718983D01*
X1752964Y752967D02*
X1753981Y754998D01*
X1752964Y757030D01*
X1754996Y756014D01*
X1757029Y757030D01*
X1756013Y754998D01*
X1757029Y752967D01*
X1754996Y753982D01*
X1752964Y752967D01*
X1753981Y753982D02*
X1754489Y754998D01*
X1753981Y756014D01*
X1754996Y755507D01*
X1756013Y756014D01*
X1755504Y754998D01*
X1756013Y753982D01*
X1754996Y754491D01*
X1753981Y753982D01*
X1752964Y747967D02*
X1753981Y749998D01*
X1752964Y752030D01*
X1754996Y751014D01*
X1757029Y752030D01*
X1756013Y749998D01*
X1757029Y747967D01*
X1754996Y748982D01*
X1752964Y747967D01*
X1753981Y748982D02*
X1754489Y749998D01*
X1753981Y751014D01*
X1754996Y750507D01*
X1756013Y751014D01*
X1755504Y749998D01*
X1756013Y748982D01*
X1754996Y749491D01*
X1753981Y748982D01*
X1752964Y742967D02*
X1753981Y744998D01*
X1752964Y747030D01*
X1754996Y746014D01*
X1757029Y747030D01*
X1756013Y744998D01*
X1757029Y742967D01*
X1754996Y743982D01*
X1752964Y742967D01*
X1753981Y743982D02*
X1754489Y744998D01*
X1753981Y746014D01*
X1754996Y745507D01*
X1756013Y746014D01*
X1755504Y744998D01*
X1756013Y743982D01*
X1754996Y744491D01*
X1753981Y743982D01*
X1752964Y737967D02*
X1753981Y739998D01*
X1752964Y742030D01*
X1754996Y741014D01*
X1757029Y742030D01*
X1756013Y739998D01*
X1757029Y737967D01*
X1754996Y738982D01*
X1752964Y737967D01*
X1753981Y738982D02*
X1754489Y739998D01*
X1753981Y741014D01*
X1754996Y740507D01*
X1756013Y741014D01*
X1755504Y739998D01*
X1756013Y738982D01*
X1754996Y739491D01*
X1753981Y738982D01*
X1752964Y732967D02*
X1753981Y734998D01*
X1752964Y737030D01*
X1754996Y736014D01*
X1757029Y737030D01*
X1756013Y734998D01*
X1757029Y732967D01*
X1754996Y733982D01*
X1752964Y732967D01*
X1753981Y733982D02*
X1754489Y734998D01*
X1753981Y736014D01*
X1754996Y735507D01*
X1756013Y736014D01*
X1755504Y734998D01*
X1756013Y733982D01*
X1754996Y734491D01*
X1753981Y733982D01*
X1752964Y727967D02*
X1753981Y729998D01*
X1752964Y732030D01*
X1754996Y731014D01*
X1757029Y732030D01*
X1756013Y729998D01*
X1757029Y727967D01*
X1754996Y728982D01*
X1752964Y727967D01*
X1753981Y728982D02*
X1754489Y729998D01*
X1753981Y731014D01*
X1754996Y730507D01*
X1756013Y731014D01*
X1755504Y729998D01*
X1756013Y728982D01*
X1754996Y729491D01*
X1753981Y728982D01*
X1752964Y722967D02*
X1753981Y724998D01*
X1752964Y727030D01*
X1754996Y726014D01*
X1757029Y727030D01*
X1756013Y724998D01*
X1757029Y722967D01*
X1754996Y723982D01*
X1752964Y722967D01*
X1753981Y723982D02*
X1754489Y724998D01*
X1753981Y726014D01*
X1754996Y725507D01*
X1756013Y726014D01*
X1755504Y724998D01*
X1756013Y723982D01*
X1754996Y724491D01*
X1753981Y723982D01*
X1752964Y717967D02*
X1753981Y719999D01*
X1752964Y722031D01*
X1754996Y721015D01*
X1757029Y722031D01*
X1756013Y719999D01*
X1757029Y717967D01*
X1754996Y718983D01*
X1752964Y717967D01*
X1753981Y718983D02*
X1754489Y719999D01*
X1753981Y721015D01*
X1754996Y720507D01*
X1756013Y721015D01*
X1755504Y719999D01*
X1756013Y718983D01*
X1754996Y719491D01*
X1753981Y718983D01*
X1747964Y752967D02*
X1748981Y754998D01*
X1747964Y757030D01*
X1749996Y756014D01*
X1752029Y757030D01*
X1751013Y754998D01*
X1752029Y752967D01*
X1749996Y753982D01*
X1747964Y752967D01*
X1748981Y753982D02*
X1749489Y754998D01*
X1748981Y756014D01*
X1749996Y755507D01*
X1751013Y756014D01*
X1750504Y754998D01*
X1751013Y753982D01*
X1749996Y754491D01*
X1748981Y753982D01*
X1747964Y747967D02*
X1748981Y749998D01*
X1747964Y752030D01*
X1749996Y751014D01*
X1752029Y752030D01*
X1751013Y749998D01*
X1752029Y747967D01*
X1749996Y748982D01*
X1747964Y747967D01*
X1748981Y748982D02*
X1749489Y749998D01*
X1748981Y751014D01*
X1749996Y750507D01*
X1751013Y751014D01*
X1750504Y749998D01*
X1751013Y748982D01*
X1749996Y749491D01*
X1748981Y748982D01*
X1747964Y742967D02*
X1748981Y744998D01*
X1747964Y747030D01*
X1749996Y746014D01*
X1752029Y747030D01*
X1751013Y744998D01*
X1752029Y742967D01*
X1749996Y743982D01*
X1747964Y742967D01*
X1748981Y743982D02*
X1749489Y744998D01*
X1748981Y746014D01*
X1749996Y745507D01*
X1751013Y746014D01*
X1750504Y744998D01*
X1751013Y743982D01*
X1749996Y744491D01*
X1748981Y743982D01*
X1747964Y737967D02*
X1748981Y739998D01*
X1747964Y742030D01*
X1749996Y741014D01*
X1752029Y742030D01*
X1751013Y739998D01*
X1752029Y737967D01*
X1749996Y738982D01*
X1747964Y737967D01*
X1748981Y738982D02*
X1749489Y739998D01*
X1748981Y741014D01*
X1749996Y740507D01*
X1751013Y741014D01*
X1750504Y739998D01*
X1751013Y738982D01*
X1749996Y739491D01*
X1748981Y738982D01*
X1747964Y732967D02*
X1748981Y734998D01*
X1747964Y737030D01*
X1749996Y736014D01*
X1752029Y737030D01*
X1751013Y734998D01*
X1752029Y732967D01*
X1749996Y733982D01*
X1747964Y732967D01*
X1748981Y733982D02*
X1749489Y734998D01*
X1748981Y736014D01*
X1749996Y735507D01*
X1751013Y736014D01*
X1750504Y734998D01*
X1751013Y733982D01*
X1749996Y734491D01*
X1748981Y733982D01*
X1747964Y727967D02*
X1748981Y729998D01*
X1747964Y732030D01*
X1749996Y731014D01*
X1752029Y732030D01*
X1751013Y729998D01*
X1752029Y727967D01*
X1749996Y728982D01*
X1747964Y727967D01*
X1748981Y728982D02*
X1749489Y729998D01*
X1748981Y731014D01*
X1749996Y730507D01*
X1751013Y731014D01*
X1750504Y729998D01*
X1751013Y728982D01*
X1749996Y729491D01*
X1748981Y728982D01*
X1747964Y722967D02*
X1748981Y724998D01*
X1747964Y727030D01*
X1749996Y726014D01*
X1752029Y727030D01*
X1751013Y724998D01*
X1752029Y722967D01*
X1749996Y723982D01*
X1747964Y722967D01*
X1748981Y723982D02*
X1749489Y724998D01*
X1748981Y726014D01*
X1749996Y725507D01*
X1751013Y726014D01*
X1750504Y724998D01*
X1751013Y723982D01*
X1749996Y724491D01*
X1748981Y723982D01*
X1747964Y717967D02*
X1748981Y719999D01*
X1747964Y722031D01*
X1749996Y721015D01*
X1752029Y722031D01*
X1751013Y719999D01*
X1752029Y717967D01*
X1749996Y718983D01*
X1747964Y717967D01*
X1748981Y718983D02*
X1749489Y719999D01*
X1748981Y721015D01*
X1749996Y720507D01*
X1751013Y721015D01*
X1750504Y719999D01*
X1751013Y718983D01*
X1749996Y719491D01*
X1748981Y718983D01*
X1742964Y752967D02*
X1743981Y754998D01*
X1742964Y757030D01*
X1744996Y756014D01*
X1747029Y757030D01*
X1746013Y754998D01*
X1747029Y752967D01*
X1744996Y753982D01*
X1742964Y752967D01*
X1743981Y753982D02*
X1744489Y754998D01*
X1743981Y756014D01*
X1744996Y755507D01*
X1746013Y756014D01*
X1745504Y754998D01*
X1746013Y753982D01*
X1744996Y754491D01*
X1743981Y753982D01*
X1742964Y747967D02*
X1743981Y749998D01*
X1742964Y752030D01*
X1744996Y751014D01*
X1747029Y752030D01*
X1746013Y749998D01*
X1747029Y747967D01*
X1744996Y748982D01*
X1742964Y747967D01*
X1743981Y748982D02*
X1744489Y749998D01*
X1743981Y751014D01*
X1744996Y750507D01*
X1746013Y751014D01*
X1745504Y749998D01*
X1746013Y748982D01*
X1744996Y749491D01*
X1743981Y748982D01*
X1742964Y742967D02*
X1743981Y744998D01*
X1742964Y747030D01*
X1744996Y746014D01*
X1747029Y747030D01*
X1746013Y744998D01*
X1747029Y742967D01*
X1744996Y743982D01*
X1742964Y742967D01*
X1743981Y743982D02*
X1744489Y744998D01*
X1743981Y746014D01*
X1744996Y745507D01*
X1746013Y746014D01*
X1745504Y744998D01*
X1746013Y743982D01*
X1744996Y744491D01*
X1743981Y743982D01*
X1742964Y737967D02*
X1743981Y739998D01*
X1742964Y742030D01*
X1744996Y741014D01*
X1747029Y742030D01*
X1746013Y739998D01*
X1747029Y737967D01*
X1744996Y738982D01*
X1742964Y737967D01*
X1743981Y738982D02*
X1744489Y739998D01*
X1743981Y741014D01*
X1744996Y740507D01*
X1746013Y741014D01*
X1745504Y739998D01*
X1746013Y738982D01*
X1744996Y739491D01*
X1743981Y738982D01*
X1742964Y732967D02*
X1743981Y734998D01*
X1742964Y737030D01*
X1744996Y736014D01*
X1747029Y737030D01*
X1746013Y734998D01*
X1747029Y732967D01*
X1744996Y733982D01*
X1742964Y732967D01*
X1743981Y733982D02*
X1744489Y734998D01*
X1743981Y736014D01*
X1744996Y735507D01*
X1746013Y736014D01*
X1745504Y734998D01*
X1746013Y733982D01*
X1744996Y734491D01*
X1743981Y733982D01*
X1742964Y727967D02*
X1743981Y729998D01*
X1742964Y732030D01*
X1744996Y731014D01*
X1747029Y732030D01*
X1746013Y729998D01*
X1747029Y727967D01*
X1744996Y728982D01*
X1742964Y727967D01*
X1743981Y728982D02*
X1744489Y729998D01*
X1743981Y731014D01*
X1744996Y730507D01*
X1746013Y731014D01*
X1745504Y729998D01*
X1746013Y728982D01*
X1744996Y729491D01*
X1743981Y728982D01*
X1742964Y722967D02*
X1743981Y724998D01*
X1742964Y727030D01*
X1744996Y726014D01*
X1747029Y727030D01*
X1746013Y724998D01*
X1747029Y722967D01*
X1744996Y723982D01*
X1742964Y722967D01*
X1743981Y723982D02*
X1744489Y724998D01*
X1743981Y726014D01*
X1744996Y725507D01*
X1746013Y726014D01*
X1745504Y724998D01*
X1746013Y723982D01*
X1744996Y724491D01*
X1743981Y723982D01*
X1742964Y717967D02*
X1743981Y719999D01*
X1742964Y722031D01*
X1744996Y721015D01*
X1747029Y722031D01*
X1746013Y719999D01*
X1747029Y717967D01*
X1744996Y718983D01*
X1742964Y717967D01*
X1743981Y718983D02*
X1744489Y719999D01*
X1743981Y721015D01*
X1744996Y720507D01*
X1746013Y721015D01*
X1745504Y719999D01*
X1746013Y718983D01*
X1744996Y719491D01*
X1743981Y718983D01*
X1737964Y752967D02*
X1738981Y754998D01*
X1737964Y757030D01*
X1739996Y756014D01*
X1742029Y757030D01*
X1741013Y754998D01*
X1742029Y752967D01*
X1739996Y753982D01*
X1737964Y752967D01*
X1738981Y753982D02*
X1739489Y754998D01*
X1738981Y756014D01*
X1739996Y755507D01*
X1741013Y756014D01*
X1740504Y754998D01*
X1741013Y753982D01*
X1739996Y754491D01*
X1738981Y753982D01*
X1737964Y747967D02*
X1738981Y749998D01*
X1737964Y752030D01*
X1739996Y751014D01*
X1742029Y752030D01*
X1741013Y749998D01*
X1742029Y747967D01*
X1739996Y748982D01*
X1737964Y747967D01*
X1738981Y748982D02*
X1739489Y749998D01*
X1738981Y751014D01*
X1739996Y750507D01*
X1741013Y751014D01*
X1740504Y749998D01*
X1741013Y748982D01*
X1739996Y749491D01*
X1738981Y748982D01*
X1737964Y742967D02*
X1738981Y744998D01*
X1737964Y747030D01*
X1739996Y746014D01*
X1742029Y747030D01*
X1741013Y744998D01*
X1742029Y742967D01*
X1739996Y743982D01*
X1737964Y742967D01*
X1738981Y743982D02*
X1739489Y744998D01*
X1738981Y746014D01*
X1739996Y745507D01*
X1741013Y746014D01*
X1740504Y744998D01*
X1741013Y743982D01*
X1739996Y744491D01*
X1738981Y743982D01*
X1737964Y737967D02*
X1738981Y739998D01*
X1737964Y742030D01*
X1739996Y741014D01*
X1742029Y742030D01*
X1741013Y739998D01*
X1742029Y737967D01*
X1739996Y738982D01*
X1737964Y737967D01*
X1738981Y738982D02*
X1739489Y739998D01*
X1738981Y741014D01*
X1739996Y740507D01*
X1741013Y741014D01*
X1740504Y739998D01*
X1741013Y738982D01*
X1739996Y739491D01*
X1738981Y738982D01*
X1737964Y732967D02*
X1738981Y734998D01*
X1737964Y737030D01*
X1739996Y736014D01*
X1742029Y737030D01*
X1741013Y734998D01*
X1742029Y732967D01*
X1739996Y733982D01*
X1737964Y732967D01*
X1738981Y733982D02*
X1739489Y734998D01*
X1738981Y736014D01*
X1739996Y735507D01*
X1741013Y736014D01*
X1740504Y734998D01*
X1741013Y733982D01*
X1739996Y734491D01*
X1738981Y733982D01*
X1737964Y727967D02*
X1738981Y729998D01*
X1737964Y732030D01*
X1739996Y731014D01*
X1742029Y732030D01*
X1741013Y729998D01*
X1742029Y727967D01*
X1739996Y728982D01*
X1737964Y727967D01*
X1738981Y728982D02*
X1739489Y729998D01*
X1738981Y731014D01*
X1739996Y730507D01*
X1741013Y731014D01*
X1740504Y729998D01*
X1741013Y728982D01*
X1739996Y729491D01*
X1738981Y728982D01*
X1737964Y722967D02*
X1738981Y724998D01*
X1737964Y727030D01*
X1739996Y726014D01*
X1742029Y727030D01*
X1741013Y724998D01*
X1742029Y722967D01*
X1739996Y723982D01*
X1737964Y722967D01*
X1738981Y723982D02*
X1739489Y724998D01*
X1738981Y726014D01*
X1739996Y725507D01*
X1741013Y726014D01*
X1740504Y724998D01*
X1741013Y723982D01*
X1739996Y724491D01*
X1738981Y723982D01*
X1737964Y717967D02*
X1738981Y719999D01*
X1737964Y722031D01*
X1739996Y721015D01*
X1742029Y722031D01*
X1741013Y719999D01*
X1742029Y717967D01*
X1739996Y718983D01*
X1737964Y717967D01*
X1738981Y718983D02*
X1739489Y719999D01*
X1738981Y721015D01*
X1739996Y720507D01*
X1741013Y721015D01*
X1740504Y719999D01*
X1741013Y718983D01*
X1739996Y719491D01*
X1738981Y718983D01*
X1732964Y752967D02*
X1733981Y754998D01*
X1732964Y757030D01*
X1734996Y756014D01*
X1737029Y757030D01*
X1736013Y754998D01*
X1737029Y752967D01*
X1734996Y753982D01*
X1732964Y752967D01*
X1733981Y753982D02*
X1734489Y754998D01*
X1733981Y756014D01*
X1734996Y755507D01*
X1736013Y756014D01*
X1735504Y754998D01*
X1736013Y753982D01*
X1734996Y754491D01*
X1733981Y753982D01*
X1732964Y747967D02*
X1733981Y749998D01*
X1732964Y752030D01*
X1734996Y751014D01*
X1737029Y752030D01*
X1736013Y749998D01*
X1737029Y747967D01*
X1734996Y748982D01*
X1732964Y747967D01*
X1733981Y748982D02*
X1734489Y749998D01*
X1733981Y751014D01*
X1734996Y750507D01*
X1736013Y751014D01*
X1735504Y749998D01*
X1736013Y748982D01*
X1734996Y749491D01*
X1733981Y748982D01*
X1732964Y742967D02*
X1733981Y744998D01*
X1732964Y747030D01*
X1734996Y746014D01*
X1737029Y747030D01*
X1736013Y744998D01*
X1737029Y742967D01*
X1734996Y743982D01*
X1732964Y742967D01*
X1733981Y743982D02*
X1734489Y744998D01*
X1733981Y746014D01*
X1734996Y745507D01*
X1736013Y746014D01*
X1735504Y744998D01*
X1736013Y743982D01*
X1734996Y744491D01*
X1733981Y743982D01*
X1732964Y737967D02*
X1733981Y739998D01*
X1732964Y742030D01*
X1734996Y741014D01*
X1737029Y742030D01*
X1736013Y739998D01*
X1737029Y737967D01*
X1734996Y738982D01*
X1732964Y737967D01*
X1733981Y738982D02*
X1734489Y739998D01*
X1733981Y741014D01*
X1734996Y740507D01*
X1736013Y741014D01*
X1735504Y739998D01*
X1736013Y738982D01*
X1734996Y739491D01*
X1733981Y738982D01*
X1732964Y732967D02*
X1733981Y734998D01*
X1732964Y737030D01*
X1734996Y736014D01*
X1737029Y737030D01*
X1736013Y734998D01*
X1737029Y732967D01*
X1734996Y733982D01*
X1732964Y732967D01*
X1733981Y733982D02*
X1734489Y734998D01*
X1733981Y736014D01*
X1734996Y735507D01*
X1736013Y736014D01*
X1735504Y734998D01*
X1736013Y733982D01*
X1734996Y734491D01*
X1733981Y733982D01*
X1732964Y727967D02*
X1733981Y729998D01*
X1732964Y732030D01*
X1734996Y731014D01*
X1737029Y732030D01*
X1736013Y729998D01*
X1737029Y727967D01*
X1734996Y728982D01*
X1732964Y727967D01*
X1733981Y728982D02*
X1734489Y729998D01*
X1733981Y731014D01*
X1734996Y730507D01*
X1736013Y731014D01*
X1735504Y729998D01*
X1736013Y728982D01*
X1734996Y729491D01*
X1733981Y728982D01*
X1732964Y722967D02*
X1733981Y724998D01*
X1732964Y727030D01*
X1734996Y726014D01*
X1737029Y727030D01*
X1736013Y724998D01*
X1737029Y722967D01*
X1734996Y723982D01*
X1732964Y722967D01*
X1733981Y723982D02*
X1734489Y724998D01*
X1733981Y726014D01*
X1734996Y725507D01*
X1736013Y726014D01*
X1735504Y724998D01*
X1736013Y723982D01*
X1734996Y724491D01*
X1733981Y723982D01*
X1732964Y717967D02*
X1733981Y719999D01*
X1732964Y722031D01*
X1734996Y721015D01*
X1737029Y722031D01*
X1736013Y719999D01*
X1737029Y717967D01*
X1734996Y718983D01*
X1732964Y717967D01*
X1733981Y718983D02*
X1734489Y719999D01*
X1733981Y721015D01*
X1734996Y720507D01*
X1736013Y721015D01*
X1735504Y719999D01*
X1736013Y718983D01*
X1734996Y719491D01*
X1733981Y718983D01*
X1727964Y752967D02*
X1728981Y754998D01*
X1727964Y757030D01*
X1729996Y756014D01*
X1732029Y757030D01*
X1731013Y754998D01*
X1732029Y752967D01*
X1729996Y753982D01*
X1727964Y752967D01*
X1728981Y753982D02*
X1729489Y754998D01*
X1728981Y756014D01*
X1729996Y755507D01*
X1731013Y756014D01*
X1730504Y754998D01*
X1731013Y753982D01*
X1729996Y754491D01*
X1728981Y753982D01*
X1727964Y747967D02*
X1728981Y749998D01*
X1727964Y752030D01*
X1729996Y751014D01*
X1732029Y752030D01*
X1731013Y749998D01*
X1732029Y747967D01*
X1729996Y748982D01*
X1727964Y747967D01*
X1728981Y748982D02*
X1729489Y749998D01*
X1728981Y751014D01*
X1729996Y750507D01*
X1731013Y751014D01*
X1730504Y749998D01*
X1731013Y748982D01*
X1729996Y749491D01*
X1728981Y748982D01*
X1727964Y742967D02*
X1728981Y744998D01*
X1727964Y747030D01*
X1729996Y746014D01*
X1732029Y747030D01*
X1731013Y744998D01*
X1732029Y742967D01*
X1729996Y743982D01*
X1727964Y742967D01*
X1728981Y743982D02*
X1729489Y744998D01*
X1728981Y746014D01*
X1729996Y745507D01*
X1731013Y746014D01*
X1730504Y744998D01*
X1731013Y743982D01*
X1729996Y744491D01*
X1728981Y743982D01*
X1727964Y737967D02*
X1728981Y739998D01*
X1727964Y742030D01*
X1729996Y741014D01*
X1732029Y742030D01*
X1731013Y739998D01*
X1732029Y737967D01*
X1729996Y738982D01*
X1727964Y737967D01*
X1728981Y738982D02*
X1729489Y739998D01*
X1728981Y741014D01*
X1729996Y740507D01*
X1731013Y741014D01*
X1730504Y739998D01*
X1731013Y738982D01*
X1729996Y739491D01*
X1728981Y738982D01*
X1727964Y732967D02*
X1728981Y734998D01*
X1727964Y737030D01*
X1729996Y736014D01*
X1732029Y737030D01*
X1731013Y734998D01*
X1732029Y732967D01*
X1729996Y733982D01*
X1727964Y732967D01*
X1728981Y733982D02*
X1729489Y734998D01*
X1728981Y736014D01*
X1729996Y735507D01*
X1731013Y736014D01*
X1730504Y734998D01*
X1731013Y733982D01*
X1729996Y734491D01*
X1728981Y733982D01*
X1727964Y727967D02*
X1728981Y729998D01*
X1727964Y732030D01*
X1729996Y731014D01*
X1732029Y732030D01*
X1731013Y729998D01*
X1732029Y727967D01*
X1729996Y728982D01*
X1727964Y727967D01*
X1728981Y728982D02*
X1729489Y729998D01*
X1728981Y731014D01*
X1729996Y730507D01*
X1731013Y731014D01*
X1730504Y729998D01*
X1731013Y728982D01*
X1729996Y729491D01*
X1728981Y728982D01*
X1727964Y722967D02*
X1728981Y724998D01*
X1727964Y727030D01*
X1729996Y726014D01*
X1732029Y727030D01*
X1731013Y724998D01*
X1732029Y722967D01*
X1729996Y723982D01*
X1727964Y722967D01*
X1728981Y723982D02*
X1729489Y724998D01*
X1728981Y726014D01*
X1729996Y725507D01*
X1731013Y726014D01*
X1730504Y724998D01*
X1731013Y723982D01*
X1729996Y724491D01*
X1728981Y723982D01*
X1727964Y717967D02*
X1728981Y719999D01*
X1727964Y722031D01*
X1729996Y721015D01*
X1732029Y722031D01*
X1731013Y719999D01*
X1732029Y717967D01*
X1729996Y718983D01*
X1727964Y717967D01*
X1728981Y718983D02*
X1729489Y719999D01*
X1728981Y721015D01*
X1729996Y720507D01*
X1731013Y721015D01*
X1730504Y719999D01*
X1731013Y718983D01*
X1729996Y719491D01*
X1728981Y718983D01*
X1777964Y607967D02*
X1778980Y609999D01*
X1777964Y612031D01*
X1779996Y611015D01*
X1782028Y612031D01*
X1781012Y609999D01*
X1782028Y607967D01*
X1779996Y608983D01*
X1777964Y607967D01*
X1778980Y608983D02*
X1779488Y609999D01*
X1778980Y611015D01*
X1779996Y610507D01*
X1781012Y611015D01*
X1780504Y609999D01*
X1781012Y608983D01*
X1779996Y609491D01*
X1778980Y608983D01*
X1777964Y602967D02*
X1778980Y604999D01*
X1777964Y607031D01*
X1779996Y606015D01*
X1782028Y607031D01*
X1781012Y604999D01*
X1782028Y602967D01*
X1779996Y603983D01*
X1777964Y602967D01*
X1778980Y603983D02*
X1779488Y604999D01*
X1778980Y606015D01*
X1779996Y605507D01*
X1781012Y606015D01*
X1780504Y604999D01*
X1781012Y603983D01*
X1779996Y604491D01*
X1778980Y603983D01*
X1777964Y597967D02*
X1778980Y599999D01*
X1777964Y602031D01*
X1779996Y601015D01*
X1782028Y602031D01*
X1781012Y599999D01*
X1782028Y597967D01*
X1779996Y598983D01*
X1777964Y597967D01*
X1778980Y598983D02*
X1779488Y599999D01*
X1778980Y601015D01*
X1779996Y600507D01*
X1781012Y601015D01*
X1780504Y599999D01*
X1781012Y598983D01*
X1779996Y599491D01*
X1778980Y598983D01*
X1777964Y592967D02*
X1778980Y594999D01*
X1777964Y597031D01*
X1779996Y596015D01*
X1782028Y597031D01*
X1781012Y594999D01*
X1782028Y592967D01*
X1779996Y593983D01*
X1777964Y592967D01*
X1778980Y593983D02*
X1779488Y594999D01*
X1778980Y596015D01*
X1779996Y595507D01*
X1781012Y596015D01*
X1780504Y594999D01*
X1781012Y593983D01*
X1779996Y594491D01*
X1778980Y593983D01*
X1777964Y587967D02*
X1778980Y589999D01*
X1777964Y592031D01*
X1779996Y591015D01*
X1782028Y592031D01*
X1781012Y589999D01*
X1782028Y587967D01*
X1779996Y588983D01*
X1777964Y587967D01*
X1778980Y588983D02*
X1779488Y589999D01*
X1778980Y591015D01*
X1779996Y590507D01*
X1781012Y591015D01*
X1780504Y589999D01*
X1781012Y588983D01*
X1779996Y589491D01*
X1778980Y588983D01*
X1777964Y582967D02*
X1778980Y584999D01*
X1777964Y587031D01*
X1779996Y586015D01*
X1782028Y587031D01*
X1781012Y584999D01*
X1782028Y582967D01*
X1779996Y583983D01*
X1777964Y582967D01*
X1778980Y583983D02*
X1779488Y584999D01*
X1778980Y586015D01*
X1779996Y585507D01*
X1781012Y586015D01*
X1780504Y584999D01*
X1781012Y583983D01*
X1779996Y584491D01*
X1778980Y583983D01*
X1777964Y577967D02*
X1778980Y579999D01*
X1777964Y582031D01*
X1779996Y581015D01*
X1782028Y582031D01*
X1781012Y579999D01*
X1782028Y577967D01*
X1779996Y578983D01*
X1777964Y577967D01*
X1778980Y578983D02*
X1779488Y579999D01*
X1778980Y581015D01*
X1779996Y580507D01*
X1781012Y581015D01*
X1780504Y579999D01*
X1781012Y578983D01*
X1779996Y579491D01*
X1778980Y578983D01*
X1777964Y572967D02*
X1778980Y574999D01*
X1777964Y577031D01*
X1779996Y576015D01*
X1782028Y577031D01*
X1781012Y574999D01*
X1782028Y572967D01*
X1779996Y573983D01*
X1777964Y572967D01*
X1778980Y573983D02*
X1779488Y574999D01*
X1778980Y576015D01*
X1779996Y575507D01*
X1781012Y576015D01*
X1780504Y574999D01*
X1781012Y573983D01*
X1779996Y574491D01*
X1778980Y573983D01*
X1777964Y567967D02*
X1778980Y569999D01*
X1777964Y572031D01*
X1779996Y571015D01*
X1782028Y572031D01*
X1781012Y569999D01*
X1782028Y567967D01*
X1779996Y568983D01*
X1777964Y567967D01*
X1778980Y568983D02*
X1779488Y569999D01*
X1778980Y571015D01*
X1779996Y570507D01*
X1781012Y571015D01*
X1780504Y569999D01*
X1781012Y568983D01*
X1779996Y569491D01*
X1778980Y568983D01*
X1777964Y562967D02*
X1778980Y564999D01*
X1777964Y567031D01*
X1779996Y566015D01*
X1782028Y567031D01*
X1781012Y564999D01*
X1782028Y562967D01*
X1779996Y563983D01*
X1777964Y562967D01*
X1778980Y563983D02*
X1779488Y564999D01*
X1778980Y566015D01*
X1779996Y565507D01*
X1781012Y566015D01*
X1780504Y564999D01*
X1781012Y563983D01*
X1779996Y564491D01*
X1778980Y563983D01*
X1777964Y557967D02*
X1778980Y559999D01*
X1777964Y562031D01*
X1779996Y561015D01*
X1782028Y562031D01*
X1781012Y559999D01*
X1782028Y557967D01*
X1779996Y558983D01*
X1777964Y557967D01*
X1778980Y558983D02*
X1779488Y559999D01*
X1778980Y561015D01*
X1779996Y560507D01*
X1781012Y561015D01*
X1780504Y559999D01*
X1781012Y558983D01*
X1779996Y559491D01*
X1778980Y558983D01*
X1777964Y552967D02*
X1778980Y554999D01*
X1777964Y557031D01*
X1779996Y556015D01*
X1782028Y557031D01*
X1781012Y554999D01*
X1782028Y552967D01*
X1779996Y553983D01*
X1777964Y552967D01*
X1778980Y553983D02*
X1779488Y554999D01*
X1778980Y556015D01*
X1779996Y555507D01*
X1781012Y556015D01*
X1780504Y554999D01*
X1781012Y553983D01*
X1779996Y554491D01*
X1778980Y553983D01*
X1777964Y547967D02*
X1778980Y549999D01*
X1777964Y552031D01*
X1779996Y551015D01*
X1782028Y552031D01*
X1781012Y549999D01*
X1782028Y547967D01*
X1779996Y548983D01*
X1777964Y547967D01*
X1778980Y548983D02*
X1779488Y549999D01*
X1778980Y551015D01*
X1779996Y550507D01*
X1781012Y551015D01*
X1780504Y549999D01*
X1781012Y548983D01*
X1779996Y549491D01*
X1778980Y548983D01*
X1772964Y547967D02*
X1773980Y549999D01*
X1772964Y552031D01*
X1774996Y551015D01*
X1777028Y552031D01*
X1776013Y549999D01*
X1777028Y547967D01*
X1774996Y548983D01*
X1772964Y547967D01*
X1773980Y548983D02*
X1774489Y549999D01*
X1773980Y551015D01*
X1774996Y550507D01*
X1776013Y551015D01*
X1775504Y549999D01*
X1776013Y548983D01*
X1774996Y549491D01*
X1773980Y548983D01*
X1752964Y607967D02*
X1753981Y609999D01*
X1752964Y612031D01*
X1754996Y611015D01*
X1757029Y612031D01*
X1756013Y609999D01*
X1757029Y607967D01*
X1754996Y608983D01*
X1752964Y607967D01*
X1753981Y608983D02*
X1754489Y609999D01*
X1753981Y611015D01*
X1754996Y610507D01*
X1756013Y611015D01*
X1755504Y609999D01*
X1756013Y608983D01*
X1754996Y609491D01*
X1753981Y608983D01*
X1752964Y602967D02*
X1753981Y604999D01*
X1752964Y607031D01*
X1754996Y606015D01*
X1757029Y607031D01*
X1756013Y604999D01*
X1757029Y602967D01*
X1754996Y603983D01*
X1752964Y602967D01*
X1753981Y603983D02*
X1754489Y604999D01*
X1753981Y606015D01*
X1754996Y605507D01*
X1756013Y606015D01*
X1755504Y604999D01*
X1756013Y603983D01*
X1754996Y604491D01*
X1753981Y603983D01*
X1752964Y597967D02*
X1753981Y599999D01*
X1752964Y602031D01*
X1754996Y601015D01*
X1757029Y602031D01*
X1756013Y599999D01*
X1757029Y597967D01*
X1754996Y598983D01*
X1752964Y597967D01*
X1753981Y598983D02*
X1754489Y599999D01*
X1753981Y601015D01*
X1754996Y600507D01*
X1756013Y601015D01*
X1755504Y599999D01*
X1756013Y598983D01*
X1754996Y599491D01*
X1753981Y598983D01*
X1752964Y592967D02*
X1753981Y594999D01*
X1752964Y597031D01*
X1754996Y596015D01*
X1757029Y597031D01*
X1756013Y594999D01*
X1757029Y592967D01*
X1754996Y593983D01*
X1752964Y592967D01*
X1753981Y593983D02*
X1754489Y594999D01*
X1753981Y596015D01*
X1754996Y595507D01*
X1756013Y596015D01*
X1755504Y594999D01*
X1756013Y593983D01*
X1754996Y594491D01*
X1753981Y593983D01*
X1752964Y587967D02*
X1753981Y589999D01*
X1752964Y592031D01*
X1754996Y591015D01*
X1757029Y592031D01*
X1756013Y589999D01*
X1757029Y587967D01*
X1754996Y588983D01*
X1752964Y587967D01*
X1753981Y588983D02*
X1754489Y589999D01*
X1753981Y591015D01*
X1754996Y590507D01*
X1756013Y591015D01*
X1755504Y589999D01*
X1756013Y588983D01*
X1754996Y589491D01*
X1753981Y588983D01*
X1752964Y582967D02*
X1753981Y584999D01*
X1752964Y587031D01*
X1754996Y586015D01*
X1757029Y587031D01*
X1756013Y584999D01*
X1757029Y582967D01*
X1754996Y583983D01*
X1752964Y582967D01*
X1753981Y583983D02*
X1754489Y584999D01*
X1753981Y586015D01*
X1754996Y585507D01*
X1756013Y586015D01*
X1755504Y584999D01*
X1756013Y583983D01*
X1754996Y584491D01*
X1753981Y583983D01*
X1752964Y577967D02*
X1753981Y579999D01*
X1752964Y582031D01*
X1754996Y581015D01*
X1757029Y582031D01*
X1756013Y579999D01*
X1757029Y577967D01*
X1754996Y578983D01*
X1752964Y577967D01*
X1753981Y578983D02*
X1754489Y579999D01*
X1753981Y581015D01*
X1754996Y580507D01*
X1756013Y581015D01*
X1755504Y579999D01*
X1756013Y578983D01*
X1754996Y579491D01*
X1753981Y578983D01*
X1752964Y572967D02*
X1753981Y574999D01*
X1752964Y577031D01*
X1754996Y576015D01*
X1757029Y577031D01*
X1756013Y574999D01*
X1757029Y572967D01*
X1754996Y573983D01*
X1752964Y572967D01*
X1753981Y573983D02*
X1754489Y574999D01*
X1753981Y576015D01*
X1754996Y575507D01*
X1756013Y576015D01*
X1755504Y574999D01*
X1756013Y573983D01*
X1754996Y574491D01*
X1753981Y573983D01*
X1752964Y567967D02*
X1753981Y569999D01*
X1752964Y572031D01*
X1754996Y571015D01*
X1757029Y572031D01*
X1756013Y569999D01*
X1757029Y567967D01*
X1754996Y568983D01*
X1752964Y567967D01*
X1753981Y568983D02*
X1754489Y569999D01*
X1753981Y571015D01*
X1754996Y570507D01*
X1756013Y571015D01*
X1755504Y569999D01*
X1756013Y568983D01*
X1754996Y569491D01*
X1753981Y568983D01*
X1752964Y562967D02*
X1753981Y564999D01*
X1752964Y567031D01*
X1754996Y566015D01*
X1757029Y567031D01*
X1756013Y564999D01*
X1757029Y562967D01*
X1754996Y563983D01*
X1752964Y562967D01*
X1753981Y563983D02*
X1754489Y564999D01*
X1753981Y566015D01*
X1754996Y565507D01*
X1756013Y566015D01*
X1755504Y564999D01*
X1756013Y563983D01*
X1754996Y564491D01*
X1753981Y563983D01*
X1747964Y607967D02*
X1748981Y609999D01*
X1747964Y612031D01*
X1749996Y611015D01*
X1752029Y612031D01*
X1751013Y609999D01*
X1752029Y607967D01*
X1749996Y608983D01*
X1747964Y607967D01*
X1748981Y608983D02*
X1749489Y609999D01*
X1748981Y611015D01*
X1749996Y610507D01*
X1751013Y611015D01*
X1750504Y609999D01*
X1751013Y608983D01*
X1749996Y609491D01*
X1748981Y608983D01*
X1747964Y602967D02*
X1748981Y604999D01*
X1747964Y607031D01*
X1749996Y606015D01*
X1752029Y607031D01*
X1751013Y604999D01*
X1752029Y602967D01*
X1749996Y603983D01*
X1747964Y602967D01*
X1748981Y603983D02*
X1749489Y604999D01*
X1748981Y606015D01*
X1749996Y605507D01*
X1751013Y606015D01*
X1750504Y604999D01*
X1751013Y603983D01*
X1749996Y604491D01*
X1748981Y603983D01*
X1747964Y597967D02*
X1748981Y599999D01*
X1747964Y602031D01*
X1749996Y601015D01*
X1752029Y602031D01*
X1751013Y599999D01*
X1752029Y597967D01*
X1749996Y598983D01*
X1747964Y597967D01*
X1748981Y598983D02*
X1749489Y599999D01*
X1748981Y601015D01*
X1749996Y600507D01*
X1751013Y601015D01*
X1750504Y599999D01*
X1751013Y598983D01*
X1749996Y599491D01*
X1748981Y598983D01*
X1747964Y592967D02*
X1748981Y594999D01*
X1747964Y597031D01*
X1749996Y596015D01*
X1752029Y597031D01*
X1751013Y594999D01*
X1752029Y592967D01*
X1749996Y593983D01*
X1747964Y592967D01*
X1748981Y593983D02*
X1749489Y594999D01*
X1748981Y596015D01*
X1749996Y595507D01*
X1751013Y596015D01*
X1750504Y594999D01*
X1751013Y593983D01*
X1749996Y594491D01*
X1748981Y593983D01*
X1747964Y587967D02*
X1748981Y589999D01*
X1747964Y592031D01*
X1749996Y591015D01*
X1752029Y592031D01*
X1751013Y589999D01*
X1752029Y587967D01*
X1749996Y588983D01*
X1747964Y587967D01*
X1748981Y588983D02*
X1749489Y589999D01*
X1748981Y591015D01*
X1749996Y590507D01*
X1751013Y591015D01*
X1750504Y589999D01*
X1751013Y588983D01*
X1749996Y589491D01*
X1748981Y588983D01*
X1747964Y582967D02*
X1748981Y584999D01*
X1747964Y587031D01*
X1749996Y586015D01*
X1752029Y587031D01*
X1751013Y584999D01*
X1752029Y582967D01*
X1749996Y583983D01*
X1747964Y582967D01*
X1748981Y583983D02*
X1749489Y584999D01*
X1748981Y586015D01*
X1749996Y585507D01*
X1751013Y586015D01*
X1750504Y584999D01*
X1751013Y583983D01*
X1749996Y584491D01*
X1748981Y583983D01*
X1747964Y577967D02*
X1748981Y579999D01*
X1747964Y582031D01*
X1749996Y581015D01*
X1752029Y582031D01*
X1751013Y579999D01*
X1752029Y577967D01*
X1749996Y578983D01*
X1747964Y577967D01*
X1748981Y578983D02*
X1749489Y579999D01*
X1748981Y581015D01*
X1749996Y580507D01*
X1751013Y581015D01*
X1750504Y579999D01*
X1751013Y578983D01*
X1749996Y579491D01*
X1748981Y578983D01*
X1747964Y572967D02*
X1748981Y574999D01*
X1747964Y577031D01*
X1749996Y576015D01*
X1752029Y577031D01*
X1751013Y574999D01*
X1752029Y572967D01*
X1749996Y573983D01*
X1747964Y572967D01*
X1748981Y573983D02*
X1749489Y574999D01*
X1748981Y576015D01*
X1749996Y575507D01*
X1751013Y576015D01*
X1750504Y574999D01*
X1751013Y573983D01*
X1749996Y574491D01*
X1748981Y573983D01*
X1747964Y567967D02*
X1748981Y569999D01*
X1747964Y572031D01*
X1749996Y571015D01*
X1752029Y572031D01*
X1751013Y569999D01*
X1752029Y567967D01*
X1749996Y568983D01*
X1747964Y567967D01*
X1748981Y568983D02*
X1749489Y569999D01*
X1748981Y571015D01*
X1749996Y570507D01*
X1751013Y571015D01*
X1750504Y569999D01*
X1751013Y568983D01*
X1749996Y569491D01*
X1748981Y568983D01*
X1747964Y562967D02*
X1748981Y564999D01*
X1747964Y567031D01*
X1749996Y566015D01*
X1752029Y567031D01*
X1751013Y564999D01*
X1752029Y562967D01*
X1749996Y563983D01*
X1747964Y562967D01*
X1748981Y563983D02*
X1749489Y564999D01*
X1748981Y566015D01*
X1749996Y565507D01*
X1751013Y566015D01*
X1750504Y564999D01*
X1751013Y563983D01*
X1749996Y564491D01*
X1748981Y563983D01*
X1742964Y607967D02*
X1743981Y609999D01*
X1742964Y612031D01*
X1744996Y611015D01*
X1747029Y612031D01*
X1746013Y609999D01*
X1747029Y607967D01*
X1744996Y608983D01*
X1742964Y607967D01*
X1743981Y608983D02*
X1744489Y609999D01*
X1743981Y611015D01*
X1744996Y610507D01*
X1746013Y611015D01*
X1745504Y609999D01*
X1746013Y608983D01*
X1744996Y609491D01*
X1743981Y608983D01*
X1742964Y602967D02*
X1743981Y604999D01*
X1742964Y607031D01*
X1744996Y606015D01*
X1747029Y607031D01*
X1746013Y604999D01*
X1747029Y602967D01*
X1744996Y603983D01*
X1742964Y602967D01*
X1743981Y603983D02*
X1744489Y604999D01*
X1743981Y606015D01*
X1744996Y605507D01*
X1746013Y606015D01*
X1745504Y604999D01*
X1746013Y603983D01*
X1744996Y604491D01*
X1743981Y603983D01*
X1742964Y597967D02*
X1743981Y599999D01*
X1742964Y602031D01*
X1744996Y601015D01*
X1747029Y602031D01*
X1746013Y599999D01*
X1747029Y597967D01*
X1744996Y598983D01*
X1742964Y597967D01*
X1743981Y598983D02*
X1744489Y599999D01*
X1743981Y601015D01*
X1744996Y600507D01*
X1746013Y601015D01*
X1745504Y599999D01*
X1746013Y598983D01*
X1744996Y599491D01*
X1743981Y598983D01*
X1742964Y592967D02*
X1743981Y594999D01*
X1742964Y597031D01*
X1744996Y596015D01*
X1747029Y597031D01*
X1746013Y594999D01*
X1747029Y592967D01*
X1744996Y593983D01*
X1742964Y592967D01*
X1743981Y593983D02*
X1744489Y594999D01*
X1743981Y596015D01*
X1744996Y595507D01*
X1746013Y596015D01*
X1745504Y594999D01*
X1746013Y593983D01*
X1744996Y594491D01*
X1743981Y593983D01*
X1742964Y587967D02*
X1743981Y589999D01*
X1742964Y592031D01*
X1744996Y591015D01*
X1747029Y592031D01*
X1746013Y589999D01*
X1747029Y587967D01*
X1744996Y588983D01*
X1742964Y587967D01*
X1743981Y588983D02*
X1744489Y589999D01*
X1743981Y591015D01*
X1744996Y590507D01*
X1746013Y591015D01*
X1745504Y589999D01*
X1746013Y588983D01*
X1744996Y589491D01*
X1743981Y588983D01*
X1742964Y582967D02*
X1743981Y584999D01*
X1742964Y587031D01*
X1744996Y586015D01*
X1747029Y587031D01*
X1746013Y584999D01*
X1747029Y582967D01*
X1744996Y583983D01*
X1742964Y582967D01*
X1743981Y583983D02*
X1744489Y584999D01*
X1743981Y586015D01*
X1744996Y585507D01*
X1746013Y586015D01*
X1745504Y584999D01*
X1746013Y583983D01*
X1744996Y584491D01*
X1743981Y583983D01*
X1742964Y577967D02*
X1743981Y579999D01*
X1742964Y582031D01*
X1744996Y581015D01*
X1747029Y582031D01*
X1746013Y579999D01*
X1747029Y577967D01*
X1744996Y578983D01*
X1742964Y577967D01*
X1743981Y578983D02*
X1744489Y579999D01*
X1743981Y581015D01*
X1744996Y580507D01*
X1746013Y581015D01*
X1745504Y579999D01*
X1746013Y578983D01*
X1744996Y579491D01*
X1743981Y578983D01*
X1742964Y572967D02*
X1743981Y574999D01*
X1742964Y577031D01*
X1744996Y576015D01*
X1747029Y577031D01*
X1746013Y574999D01*
X1747029Y572967D01*
X1744996Y573983D01*
X1742964Y572967D01*
X1743981Y573983D02*
X1744489Y574999D01*
X1743981Y576015D01*
X1744996Y575507D01*
X1746013Y576015D01*
X1745504Y574999D01*
X1746013Y573983D01*
X1744996Y574491D01*
X1743981Y573983D01*
X1742964Y567967D02*
X1743981Y569999D01*
X1742964Y572031D01*
X1744996Y571015D01*
X1747029Y572031D01*
X1746013Y569999D01*
X1747029Y567967D01*
X1744996Y568983D01*
X1742964Y567967D01*
X1743981Y568983D02*
X1744489Y569999D01*
X1743981Y571015D01*
X1744996Y570507D01*
X1746013Y571015D01*
X1745504Y569999D01*
X1746013Y568983D01*
X1744996Y569491D01*
X1743981Y568983D01*
X1742964Y562967D02*
X1743981Y564999D01*
X1742964Y567031D01*
X1744996Y566015D01*
X1747029Y567031D01*
X1746013Y564999D01*
X1747029Y562967D01*
X1744996Y563983D01*
X1742964Y562967D01*
X1743981Y563983D02*
X1744489Y564999D01*
X1743981Y566015D01*
X1744996Y565507D01*
X1746013Y566015D01*
X1745504Y564999D01*
X1746013Y563983D01*
X1744996Y564491D01*
X1743981Y563983D01*
X1737964Y607967D02*
X1738981Y609999D01*
X1737964Y612031D01*
X1739996Y611015D01*
X1742029Y612031D01*
X1741013Y609999D01*
X1742029Y607967D01*
X1739996Y608983D01*
X1737964Y607967D01*
X1738981Y608983D02*
X1739489Y609999D01*
X1738981Y611015D01*
X1739996Y610507D01*
X1741013Y611015D01*
X1740504Y609999D01*
X1741013Y608983D01*
X1739996Y609491D01*
X1738981Y608983D01*
X1737964Y602967D02*
X1738981Y604999D01*
X1737964Y607031D01*
X1739996Y606015D01*
X1742029Y607031D01*
X1741013Y604999D01*
X1742029Y602967D01*
X1739996Y603983D01*
X1737964Y602967D01*
X1738981Y603983D02*
X1739489Y604999D01*
X1738981Y606015D01*
X1739996Y605507D01*
X1741013Y606015D01*
X1740504Y604999D01*
X1741013Y603983D01*
X1739996Y604491D01*
X1738981Y603983D01*
X1737964Y597967D02*
X1738981Y599999D01*
X1737964Y602031D01*
X1739996Y601015D01*
X1742029Y602031D01*
X1741013Y599999D01*
X1742029Y597967D01*
X1739996Y598983D01*
X1737964Y597967D01*
X1738981Y598983D02*
X1739489Y599999D01*
X1738981Y601015D01*
X1739996Y600507D01*
X1741013Y601015D01*
X1740504Y599999D01*
X1741013Y598983D01*
X1739996Y599491D01*
X1738981Y598983D01*
X1737964Y562967D02*
X1738981Y564999D01*
X1737964Y567031D01*
X1739996Y566015D01*
X1742029Y567031D01*
X1741013Y564999D01*
X1742029Y562967D01*
X1739996Y563983D01*
X1737964Y562967D01*
X1738981Y563983D02*
X1739489Y564999D01*
X1738981Y566015D01*
X1739996Y565507D01*
X1741013Y566015D01*
X1740504Y564999D01*
X1741013Y563983D01*
X1739996Y564491D01*
X1738981Y563983D01*
X1732964Y607967D02*
X1733981Y609999D01*
X1732964Y612031D01*
X1734996Y611015D01*
X1737029Y612031D01*
X1736013Y609999D01*
X1737029Y607967D01*
X1734996Y608983D01*
X1732964Y607967D01*
X1733981Y608983D02*
X1734489Y609999D01*
X1733981Y611015D01*
X1734996Y610507D01*
X1736013Y611015D01*
X1735504Y609999D01*
X1736013Y608983D01*
X1734996Y609491D01*
X1733981Y608983D01*
X1732964Y602967D02*
X1733981Y604999D01*
X1732964Y607031D01*
X1734996Y606015D01*
X1737029Y607031D01*
X1736013Y604999D01*
X1737029Y602967D01*
X1734996Y603983D01*
X1732964Y602967D01*
X1733981Y603983D02*
X1734489Y604999D01*
X1733981Y606015D01*
X1734996Y605507D01*
X1736013Y606015D01*
X1735504Y604999D01*
X1736013Y603983D01*
X1734996Y604491D01*
X1733981Y603983D01*
X1732964Y597967D02*
X1733981Y599999D01*
X1732964Y602031D01*
X1734996Y601015D01*
X1737029Y602031D01*
X1736013Y599999D01*
X1737029Y597967D01*
X1734996Y598983D01*
X1732964Y597967D01*
X1733981Y598983D02*
X1734489Y599999D01*
X1733981Y601015D01*
X1734996Y600507D01*
X1736013Y601015D01*
X1735504Y599999D01*
X1736013Y598983D01*
X1734996Y599491D01*
X1733981Y598983D01*
X1732964Y562967D02*
X1733981Y564999D01*
X1732964Y567031D01*
X1734996Y566015D01*
X1737029Y567031D01*
X1736013Y564999D01*
X1737029Y562967D01*
X1734996Y563983D01*
X1732964Y562967D01*
X1733981Y563983D02*
X1734489Y564999D01*
X1733981Y566015D01*
X1734996Y565507D01*
X1736013Y566015D01*
X1735504Y564999D01*
X1736013Y563983D01*
X1734996Y564491D01*
X1733981Y563983D01*
X1727964Y607967D02*
X1728981Y609999D01*
X1727964Y612031D01*
X1729996Y611015D01*
X1732029Y612031D01*
X1731013Y609999D01*
X1732029Y607967D01*
X1729996Y608983D01*
X1727964Y607967D01*
X1728981Y608983D02*
X1729489Y609999D01*
X1728981Y611015D01*
X1729996Y610507D01*
X1731013Y611015D01*
X1730504Y609999D01*
X1731013Y608983D01*
X1729996Y609491D01*
X1728981Y608983D01*
X1727964Y602967D02*
X1728981Y604999D01*
X1727964Y607031D01*
X1729996Y606015D01*
X1732029Y607031D01*
X1731013Y604999D01*
X1732029Y602967D01*
X1729996Y603983D01*
X1727964Y602967D01*
X1728981Y603983D02*
X1729489Y604999D01*
X1728981Y606015D01*
X1729996Y605507D01*
X1731013Y606015D01*
X1730504Y604999D01*
X1731013Y603983D01*
X1729996Y604491D01*
X1728981Y603983D01*
X1727964Y597967D02*
X1728981Y599999D01*
X1727964Y602031D01*
X1729996Y601015D01*
X1732029Y602031D01*
X1731013Y599999D01*
X1732029Y597967D01*
X1729996Y598983D01*
X1727964Y597967D01*
X1728981Y598983D02*
X1729489Y599999D01*
X1728981Y601015D01*
X1729996Y600507D01*
X1731013Y601015D01*
X1730504Y599999D01*
X1731013Y598983D01*
X1729996Y599491D01*
X1728981Y598983D01*
X1727964Y562967D02*
X1728981Y564999D01*
X1727964Y567031D01*
X1729996Y566015D01*
X1732029Y567031D01*
X1731013Y564999D01*
X1732029Y562967D01*
X1729996Y563983D01*
X1727964Y562967D01*
X1728981Y563983D02*
X1729489Y564999D01*
X1728981Y566015D01*
X1729996Y565507D01*
X1731013Y566015D01*
X1730504Y564999D01*
X1731013Y563983D01*
X1729996Y564491D01*
X1728981Y563983D01*
X1722964Y607967D02*
X1723981Y609999D01*
X1722964Y612031D01*
X1724996Y611015D01*
X1727029Y612031D01*
X1726013Y609999D01*
X1727029Y607967D01*
X1724996Y608983D01*
X1722964Y607967D01*
X1723981Y608983D02*
X1724489Y609999D01*
X1723981Y611015D01*
X1724996Y610507D01*
X1726013Y611015D01*
X1725504Y609999D01*
X1726013Y608983D01*
X1724996Y609491D01*
X1723981Y608983D01*
X1722964Y602967D02*
X1723981Y604999D01*
X1722964Y607031D01*
X1724996Y606015D01*
X1727029Y607031D01*
X1726013Y604999D01*
X1727029Y602967D01*
X1724996Y603983D01*
X1722964Y602967D01*
X1723981Y603983D02*
X1724489Y604999D01*
X1723981Y606015D01*
X1724996Y605507D01*
X1726013Y606015D01*
X1725504Y604999D01*
X1726013Y603983D01*
X1724996Y604491D01*
X1723981Y603983D01*
X1722964Y597967D02*
X1723981Y599999D01*
X1722964Y602031D01*
X1724996Y601015D01*
X1727029Y602031D01*
X1726013Y599999D01*
X1727029Y597967D01*
X1724996Y598983D01*
X1722964Y597967D01*
X1723981Y598983D02*
X1724489Y599999D01*
X1723981Y601015D01*
X1724996Y600507D01*
X1726013Y601015D01*
X1725504Y599999D01*
X1726013Y598983D01*
X1724996Y599491D01*
X1723981Y598983D01*
X1722964Y562967D02*
X1723981Y564999D01*
X1722964Y567031D01*
X1724996Y566015D01*
X1727029Y567031D01*
X1726013Y564999D01*
X1727029Y562967D01*
X1724996Y563983D01*
X1722964Y562967D01*
X1723981Y563983D02*
X1724489Y564999D01*
X1723981Y566015D01*
X1724996Y565507D01*
X1726013Y566015D01*
X1725504Y564999D01*
X1726013Y563983D01*
X1724996Y564491D01*
X1723981Y563983D01*
X1717965Y562967D02*
X1718981Y564999D01*
X1717965Y567031D01*
X1719997Y566015D01*
X1722029Y567031D01*
X1721013Y564999D01*
X1722029Y562967D01*
X1719997Y563983D01*
X1717965Y562967D01*
X1718981Y563983D02*
X1719489Y564999D01*
X1718981Y566015D01*
X1719997Y565507D01*
X1721013Y566015D01*
X1720505Y564999D01*
X1721013Y563983D01*
X1719997Y564491D01*
X1718981Y563983D01*
X1542965Y697967D02*
X1543981Y699999D01*
X1542965Y702031D01*
X1544997Y701015D01*
X1547029Y702031D01*
X1546013Y699999D01*
X1547029Y697967D01*
X1544997Y698983D01*
X1542965Y697967D01*
X1543981Y698983D02*
X1544489Y699999D01*
X1543981Y701015D01*
X1544997Y700507D01*
X1546013Y701015D01*
X1545505Y699999D01*
X1546013Y698983D01*
X1544997Y699491D01*
X1543981Y698983D01*
X1542965Y692967D02*
X1543981Y694999D01*
X1542965Y697031D01*
X1544997Y696015D01*
X1547029Y697031D01*
X1546013Y694999D01*
X1547029Y692967D01*
X1544997Y693983D01*
X1542965Y692967D01*
X1543981Y693983D02*
X1544489Y694999D01*
X1543981Y696015D01*
X1544997Y695507D01*
X1546013Y696015D01*
X1545505Y694999D01*
X1546013Y693983D01*
X1544997Y694491D01*
X1543981Y693983D01*
X1542965Y687967D02*
X1543981Y689999D01*
X1542965Y692031D01*
X1544997Y691015D01*
X1547029Y692031D01*
X1546013Y689999D01*
X1547029Y687967D01*
X1544997Y688983D01*
X1542965Y687967D01*
X1543981Y688983D02*
X1544489Y689999D01*
X1543981Y691015D01*
X1544997Y690507D01*
X1546013Y691015D01*
X1545505Y689999D01*
X1546013Y688983D01*
X1544997Y689491D01*
X1543981Y688983D01*
X1537965Y697967D02*
X1538981Y699999D01*
X1537965Y702031D01*
X1539997Y701015D01*
X1542029Y702031D01*
X1541013Y699999D01*
X1542029Y697967D01*
X1539997Y698983D01*
X1537965Y697967D01*
X1538981Y698983D02*
X1539489Y699999D01*
X1538981Y701015D01*
X1539997Y700507D01*
X1541013Y701015D01*
X1540505Y699999D01*
X1541013Y698983D01*
X1539997Y699491D01*
X1538981Y698983D01*
X1537965Y692967D02*
X1538981Y694999D01*
X1537965Y697031D01*
X1539997Y696015D01*
X1542029Y697031D01*
X1541013Y694999D01*
X1542029Y692967D01*
X1539997Y693983D01*
X1537965Y692967D01*
X1538981Y693983D02*
X1539489Y694999D01*
X1538981Y696015D01*
X1539997Y695507D01*
X1541013Y696015D01*
X1540505Y694999D01*
X1541013Y693983D01*
X1539997Y694491D01*
X1538981Y693983D01*
X1537965Y687967D02*
X1538981Y689999D01*
X1537965Y692031D01*
X1539997Y691015D01*
X1542029Y692031D01*
X1541013Y689999D01*
X1542029Y687967D01*
X1539997Y688983D01*
X1537965Y687967D01*
X1538981Y688983D02*
X1539489Y689999D01*
X1538981Y691015D01*
X1539997Y690507D01*
X1541013Y691015D01*
X1540505Y689999D01*
X1541013Y688983D01*
X1539997Y689491D01*
X1538981Y688983D01*
X1537965Y682967D02*
X1538981Y684999D01*
X1537965Y687031D01*
X1539997Y686015D01*
X1542029Y687031D01*
X1541013Y684999D01*
X1542029Y682967D01*
X1539997Y683983D01*
X1537965Y682967D01*
X1538981Y683983D02*
X1539489Y684999D01*
X1538981Y686015D01*
X1539997Y685507D01*
X1541013Y686015D01*
X1540505Y684999D01*
X1541013Y683983D01*
X1539997Y684491D01*
X1538981Y683983D01*
X1537965Y677967D02*
X1538981Y679999D01*
X1537965Y682031D01*
X1539997Y681015D01*
X1542029Y682031D01*
X1541013Y679999D01*
X1542029Y677967D01*
X1539997Y678983D01*
X1537965Y677967D01*
X1538981Y678983D02*
X1539489Y679999D01*
X1538981Y681015D01*
X1539997Y680507D01*
X1541013Y681015D01*
X1540505Y679999D01*
X1541013Y678983D01*
X1539997Y679491D01*
X1538981Y678983D01*
X1537965Y672967D02*
X1538981Y674999D01*
X1537965Y677031D01*
X1539997Y676015D01*
X1542029Y677031D01*
X1541013Y674999D01*
X1542029Y672967D01*
X1539997Y673983D01*
X1537965Y672967D01*
X1538981Y673983D02*
X1539489Y674999D01*
X1538981Y676015D01*
X1539997Y675507D01*
X1541013Y676015D01*
X1540505Y674999D01*
X1541013Y673983D01*
X1539997Y674491D01*
X1538981Y673983D01*
X1537965Y667967D02*
X1538981Y669999D01*
X1537965Y672031D01*
X1539997Y671015D01*
X1542029Y672031D01*
X1541013Y669999D01*
X1542029Y667967D01*
X1539997Y668983D01*
X1537965Y667967D01*
X1538981Y668983D02*
X1539489Y669999D01*
X1538981Y671015D01*
X1539997Y670507D01*
X1541013Y671015D01*
X1540505Y669999D01*
X1541013Y668983D01*
X1539997Y669491D01*
X1538981Y668983D01*
X1537965Y662967D02*
X1538981Y664999D01*
X1537965Y667031D01*
X1539997Y666015D01*
X1542029Y667031D01*
X1541013Y664999D01*
X1542029Y662967D01*
X1539997Y663983D01*
X1537965Y662967D01*
X1538981Y663983D02*
X1539489Y664999D01*
X1538981Y666015D01*
X1539997Y665507D01*
X1541013Y666015D01*
X1540505Y664999D01*
X1541013Y663983D01*
X1539997Y664491D01*
X1538981Y663983D01*
X1537965Y657967D02*
X1538981Y659999D01*
X1537965Y662031D01*
X1539997Y661015D01*
X1542029Y662031D01*
X1541013Y659999D01*
X1542029Y657967D01*
X1539997Y658983D01*
X1537965Y657967D01*
X1538981Y658983D02*
X1539489Y659999D01*
X1538981Y661015D01*
X1539997Y660507D01*
X1541013Y661015D01*
X1540505Y659999D01*
X1541013Y658983D01*
X1539997Y659491D01*
X1538981Y658983D01*
X1537965Y652967D02*
X1538981Y654999D01*
X1537965Y657031D01*
X1539997Y656015D01*
X1542029Y657031D01*
X1541013Y654999D01*
X1542029Y652967D01*
X1539997Y653983D01*
X1537965Y652967D01*
X1538981Y653983D02*
X1539489Y654999D01*
X1538981Y656015D01*
X1539997Y655507D01*
X1541013Y656015D01*
X1540505Y654999D01*
X1541013Y653983D01*
X1539997Y654491D01*
X1538981Y653983D01*
X1537965Y647967D02*
X1538981Y649999D01*
X1537965Y652031D01*
X1539997Y651015D01*
X1542029Y652031D01*
X1541013Y649999D01*
X1542029Y647967D01*
X1539997Y648983D01*
X1537965Y647967D01*
X1538981Y648983D02*
X1539489Y649999D01*
X1538981Y651015D01*
X1539997Y650507D01*
X1541013Y651015D01*
X1540505Y649999D01*
X1541013Y648983D01*
X1539997Y649491D01*
X1538981Y648983D01*
X1532965Y697967D02*
X1533981Y699999D01*
X1532965Y702031D01*
X1534997Y701015D01*
X1537029Y702031D01*
X1536013Y699999D01*
X1537029Y697967D01*
X1534997Y698983D01*
X1532965Y697967D01*
X1533981Y698983D02*
X1534489Y699999D01*
X1533981Y701015D01*
X1534997Y700507D01*
X1536013Y701015D01*
X1535505Y699999D01*
X1536013Y698983D01*
X1534997Y699491D01*
X1533981Y698983D01*
X1532965Y692967D02*
X1533981Y694999D01*
X1532965Y697031D01*
X1534997Y696015D01*
X1537029Y697031D01*
X1536013Y694999D01*
X1537029Y692967D01*
X1534997Y693983D01*
X1532965Y692967D01*
X1533981Y693983D02*
X1534489Y694999D01*
X1533981Y696015D01*
X1534997Y695507D01*
X1536013Y696015D01*
X1535505Y694999D01*
X1536013Y693983D01*
X1534997Y694491D01*
X1533981Y693983D01*
X1532965Y687967D02*
X1533981Y689999D01*
X1532965Y692031D01*
X1534997Y691015D01*
X1537029Y692031D01*
X1536013Y689999D01*
X1537029Y687967D01*
X1534997Y688983D01*
X1532965Y687967D01*
X1533981Y688983D02*
X1534489Y689999D01*
X1533981Y691015D01*
X1534997Y690507D01*
X1536013Y691015D01*
X1535505Y689999D01*
X1536013Y688983D01*
X1534997Y689491D01*
X1533981Y688983D01*
X1532965Y682967D02*
X1533981Y684999D01*
X1532965Y687031D01*
X1534997Y686015D01*
X1537029Y687031D01*
X1536013Y684999D01*
X1537029Y682967D01*
X1534997Y683983D01*
X1532965Y682967D01*
X1533981Y683983D02*
X1534489Y684999D01*
X1533981Y686015D01*
X1534997Y685507D01*
X1536013Y686015D01*
X1535505Y684999D01*
X1536013Y683983D01*
X1534997Y684491D01*
X1533981Y683983D01*
X1532965Y677967D02*
X1533981Y679999D01*
X1532965Y682031D01*
X1534997Y681015D01*
X1537029Y682031D01*
X1536013Y679999D01*
X1537029Y677967D01*
X1534997Y678983D01*
X1532965Y677967D01*
X1533981Y678983D02*
X1534489Y679999D01*
X1533981Y681015D01*
X1534997Y680507D01*
X1536013Y681015D01*
X1535505Y679999D01*
X1536013Y678983D01*
X1534997Y679491D01*
X1533981Y678983D01*
X1532965Y672967D02*
X1533981Y674999D01*
X1532965Y677031D01*
X1534997Y676015D01*
X1537029Y677031D01*
X1536013Y674999D01*
X1537029Y672967D01*
X1534997Y673983D01*
X1532965Y672967D01*
X1533981Y673983D02*
X1534489Y674999D01*
X1533981Y676015D01*
X1534997Y675507D01*
X1536013Y676015D01*
X1535505Y674999D01*
X1536013Y673983D01*
X1534997Y674491D01*
X1533981Y673983D01*
X1532965Y667967D02*
X1533981Y669999D01*
X1532965Y672031D01*
X1534997Y671015D01*
X1537029Y672031D01*
X1536013Y669999D01*
X1537029Y667967D01*
X1534997Y668983D01*
X1532965Y667967D01*
X1533981Y668983D02*
X1534489Y669999D01*
X1533981Y671015D01*
X1534997Y670507D01*
X1536013Y671015D01*
X1535505Y669999D01*
X1536013Y668983D01*
X1534997Y669491D01*
X1533981Y668983D01*
X1532965Y662967D02*
X1533981Y664999D01*
X1532965Y667031D01*
X1534997Y666015D01*
X1537029Y667031D01*
X1536013Y664999D01*
X1537029Y662967D01*
X1534997Y663983D01*
X1532965Y662967D01*
X1533981Y663983D02*
X1534489Y664999D01*
X1533981Y666015D01*
X1534997Y665507D01*
X1536013Y666015D01*
X1535505Y664999D01*
X1536013Y663983D01*
X1534997Y664491D01*
X1533981Y663983D01*
X1532965Y657967D02*
X1533981Y659999D01*
X1532965Y662031D01*
X1534997Y661015D01*
X1537029Y662031D01*
X1536013Y659999D01*
X1537029Y657967D01*
X1534997Y658983D01*
X1532965Y657967D01*
X1533981Y658983D02*
X1534489Y659999D01*
X1533981Y661015D01*
X1534997Y660507D01*
X1536013Y661015D01*
X1535505Y659999D01*
X1536013Y658983D01*
X1534997Y659491D01*
X1533981Y658983D01*
X1532965Y652967D02*
X1533981Y654999D01*
X1532965Y657031D01*
X1534997Y656015D01*
X1537029Y657031D01*
X1536013Y654999D01*
X1537029Y652967D01*
X1534997Y653983D01*
X1532965Y652967D01*
X1533981Y653983D02*
X1534489Y654999D01*
X1533981Y656015D01*
X1534997Y655507D01*
X1536013Y656015D01*
X1535505Y654999D01*
X1536013Y653983D01*
X1534997Y654491D01*
X1533981Y653983D01*
X1532965Y647967D02*
X1533981Y649999D01*
X1532965Y652031D01*
X1534997Y651015D01*
X1537029Y652031D01*
X1536013Y649999D01*
X1537029Y647967D01*
X1534997Y648983D01*
X1532965Y647967D01*
X1533981Y648983D02*
X1534489Y649999D01*
X1533981Y651015D01*
X1534997Y650507D01*
X1536013Y651015D01*
X1535505Y649999D01*
X1536013Y648983D01*
X1534997Y649491D01*
X1533981Y648983D01*
X1527965Y697967D02*
X1528981Y699999D01*
X1527965Y702031D01*
X1529997Y701015D01*
X1532029Y702031D01*
X1531013Y699999D01*
X1532029Y697967D01*
X1529997Y698983D01*
X1527965Y697967D01*
X1528981Y698983D02*
X1529489Y699999D01*
X1528981Y701015D01*
X1529997Y700507D01*
X1531013Y701015D01*
X1530505Y699999D01*
X1531013Y698983D01*
X1529997Y699491D01*
X1528981Y698983D01*
X1527965Y692967D02*
X1528981Y694999D01*
X1527965Y697031D01*
X1529997Y696015D01*
X1532029Y697031D01*
X1531013Y694999D01*
X1532029Y692967D01*
X1529997Y693983D01*
X1527965Y692967D01*
X1528981Y693983D02*
X1529489Y694999D01*
X1528981Y696015D01*
X1529997Y695507D01*
X1531013Y696015D01*
X1530505Y694999D01*
X1531013Y693983D01*
X1529997Y694491D01*
X1528981Y693983D01*
X1527965Y687967D02*
X1528981Y689999D01*
X1527965Y692031D01*
X1529997Y691015D01*
X1532029Y692031D01*
X1531013Y689999D01*
X1532029Y687967D01*
X1529997Y688983D01*
X1527965Y687967D01*
X1528981Y688983D02*
X1529489Y689999D01*
X1528981Y691015D01*
X1529997Y690507D01*
X1531013Y691015D01*
X1530505Y689999D01*
X1531013Y688983D01*
X1529997Y689491D01*
X1528981Y688983D01*
X1527965Y682967D02*
X1528981Y684999D01*
X1527965Y687031D01*
X1529997Y686015D01*
X1532029Y687031D01*
X1531013Y684999D01*
X1532029Y682967D01*
X1529997Y683983D01*
X1527965Y682967D01*
X1528981Y683983D02*
X1529489Y684999D01*
X1528981Y686015D01*
X1529997Y685507D01*
X1531013Y686015D01*
X1530505Y684999D01*
X1531013Y683983D01*
X1529997Y684491D01*
X1528981Y683983D01*
X1527965Y677967D02*
X1528981Y679999D01*
X1527965Y682031D01*
X1529997Y681015D01*
X1532029Y682031D01*
X1531013Y679999D01*
X1532029Y677967D01*
X1529997Y678983D01*
X1527965Y677967D01*
X1528981Y678983D02*
X1529489Y679999D01*
X1528981Y681015D01*
X1529997Y680507D01*
X1531013Y681015D01*
X1530505Y679999D01*
X1531013Y678983D01*
X1529997Y679491D01*
X1528981Y678983D01*
X1527965Y672967D02*
X1528981Y674999D01*
X1527965Y677031D01*
X1529997Y676015D01*
X1532029Y677031D01*
X1531013Y674999D01*
X1532029Y672967D01*
X1529997Y673983D01*
X1527965Y672967D01*
X1528981Y673983D02*
X1529489Y674999D01*
X1528981Y676015D01*
X1529997Y675507D01*
X1531013Y676015D01*
X1530505Y674999D01*
X1531013Y673983D01*
X1529997Y674491D01*
X1528981Y673983D01*
X1527965Y667967D02*
X1528981Y669999D01*
X1527965Y672031D01*
X1529997Y671015D01*
X1532029Y672031D01*
X1531013Y669999D01*
X1532029Y667967D01*
X1529997Y668983D01*
X1527965Y667967D01*
X1528981Y668983D02*
X1529489Y669999D01*
X1528981Y671015D01*
X1529997Y670507D01*
X1531013Y671015D01*
X1530505Y669999D01*
X1531013Y668983D01*
X1529997Y669491D01*
X1528981Y668983D01*
X1527965Y662967D02*
X1528981Y664999D01*
X1527965Y667031D01*
X1529997Y666015D01*
X1532029Y667031D01*
X1531013Y664999D01*
X1532029Y662967D01*
X1529997Y663983D01*
X1527965Y662967D01*
X1528981Y663983D02*
X1529489Y664999D01*
X1528981Y666015D01*
X1529997Y665507D01*
X1531013Y666015D01*
X1530505Y664999D01*
X1531013Y663983D01*
X1529997Y664491D01*
X1528981Y663983D01*
X1527965Y657967D02*
X1528981Y659999D01*
X1527965Y662031D01*
X1529997Y661015D01*
X1532029Y662031D01*
X1531013Y659999D01*
X1532029Y657967D01*
X1529997Y658983D01*
X1527965Y657967D01*
X1528981Y658983D02*
X1529489Y659999D01*
X1528981Y661015D01*
X1529997Y660507D01*
X1531013Y661015D01*
X1530505Y659999D01*
X1531013Y658983D01*
X1529997Y659491D01*
X1528981Y658983D01*
X1527965Y652967D02*
X1528981Y654999D01*
X1527965Y657031D01*
X1529997Y656015D01*
X1532029Y657031D01*
X1531013Y654999D01*
X1532029Y652967D01*
X1529997Y653983D01*
X1527965Y652967D01*
X1528981Y653983D02*
X1529489Y654999D01*
X1528981Y656015D01*
X1529997Y655507D01*
X1531013Y656015D01*
X1530505Y654999D01*
X1531013Y653983D01*
X1529997Y654491D01*
X1528981Y653983D01*
X1527965Y647967D02*
X1528981Y649999D01*
X1527965Y652031D01*
X1529997Y651015D01*
X1532029Y652031D01*
X1531013Y649999D01*
X1532029Y647967D01*
X1529997Y648983D01*
X1527965Y647967D01*
X1528981Y648983D02*
X1529489Y649999D01*
X1528981Y651015D01*
X1529997Y650507D01*
X1531013Y651015D01*
X1530505Y649999D01*
X1531013Y648983D01*
X1529997Y649491D01*
X1528981Y648983D01*
X1522965Y697967D02*
X1523981Y699999D01*
X1522965Y702031D01*
X1524997Y701015D01*
X1527029Y702031D01*
X1526013Y699999D01*
X1527029Y697967D01*
X1524997Y698983D01*
X1522965Y697967D01*
X1523981Y698983D02*
X1524489Y699999D01*
X1523981Y701015D01*
X1524997Y700507D01*
X1526013Y701015D01*
X1525505Y699999D01*
X1526013Y698983D01*
X1524997Y699491D01*
X1523981Y698983D01*
X1522965Y692967D02*
X1523981Y694999D01*
X1522965Y697031D01*
X1524997Y696015D01*
X1527029Y697031D01*
X1526013Y694999D01*
X1527029Y692967D01*
X1524997Y693983D01*
X1522965Y692967D01*
X1523981Y693983D02*
X1524489Y694999D01*
X1523981Y696015D01*
X1524997Y695507D01*
X1526013Y696015D01*
X1525505Y694999D01*
X1526013Y693983D01*
X1524997Y694491D01*
X1523981Y693983D01*
X1522965Y687967D02*
X1523981Y689999D01*
X1522965Y692031D01*
X1524997Y691015D01*
X1527029Y692031D01*
X1526013Y689999D01*
X1527029Y687967D01*
X1524997Y688983D01*
X1522965Y687967D01*
X1523981Y688983D02*
X1524489Y689999D01*
X1523981Y691015D01*
X1524997Y690507D01*
X1526013Y691015D01*
X1525505Y689999D01*
X1526013Y688983D01*
X1524997Y689491D01*
X1523981Y688983D01*
X1522965Y682967D02*
X1523981Y684999D01*
X1522965Y687031D01*
X1524997Y686015D01*
X1527029Y687031D01*
X1526013Y684999D01*
X1527029Y682967D01*
X1524997Y683983D01*
X1522965Y682967D01*
X1523981Y683983D02*
X1524489Y684999D01*
X1523981Y686015D01*
X1524997Y685507D01*
X1526013Y686015D01*
X1525505Y684999D01*
X1526013Y683983D01*
X1524997Y684491D01*
X1523981Y683983D01*
X1522965Y677967D02*
X1523981Y679999D01*
X1522965Y682031D01*
X1524997Y681015D01*
X1527029Y682031D01*
X1526013Y679999D01*
X1527029Y677967D01*
X1524997Y678983D01*
X1522965Y677967D01*
X1523981Y678983D02*
X1524489Y679999D01*
X1523981Y681015D01*
X1524997Y680507D01*
X1526013Y681015D01*
X1525505Y679999D01*
X1526013Y678983D01*
X1524997Y679491D01*
X1523981Y678983D01*
X1522965Y672967D02*
X1523981Y674999D01*
X1522965Y677031D01*
X1524997Y676015D01*
X1527029Y677031D01*
X1526013Y674999D01*
X1527029Y672967D01*
X1524997Y673983D01*
X1522965Y672967D01*
X1523981Y673983D02*
X1524489Y674999D01*
X1523981Y676015D01*
X1524997Y675507D01*
X1526013Y676015D01*
X1525505Y674999D01*
X1526013Y673983D01*
X1524997Y674491D01*
X1523981Y673983D01*
X1522965Y667967D02*
X1523981Y669999D01*
X1522965Y672031D01*
X1524997Y671015D01*
X1527029Y672031D01*
X1526013Y669999D01*
X1527029Y667967D01*
X1524997Y668983D01*
X1522965Y667967D01*
X1523981Y668983D02*
X1524489Y669999D01*
X1523981Y671015D01*
X1524997Y670507D01*
X1526013Y671015D01*
X1525505Y669999D01*
X1526013Y668983D01*
X1524997Y669491D01*
X1523981Y668983D01*
X1522965Y662967D02*
X1523981Y664999D01*
X1522965Y667031D01*
X1524997Y666015D01*
X1527029Y667031D01*
X1526013Y664999D01*
X1527029Y662967D01*
X1524997Y663983D01*
X1522965Y662967D01*
X1523981Y663983D02*
X1524489Y664999D01*
X1523981Y666015D01*
X1524997Y665507D01*
X1526013Y666015D01*
X1525505Y664999D01*
X1526013Y663983D01*
X1524997Y664491D01*
X1523981Y663983D01*
X1522965Y657967D02*
X1523981Y659999D01*
X1522965Y662031D01*
X1524997Y661015D01*
X1527029Y662031D01*
X1526013Y659999D01*
X1527029Y657967D01*
X1524997Y658983D01*
X1522965Y657967D01*
X1523981Y658983D02*
X1524489Y659999D01*
X1523981Y661015D01*
X1524997Y660507D01*
X1526013Y661015D01*
X1525505Y659999D01*
X1526013Y658983D01*
X1524997Y659491D01*
X1523981Y658983D01*
X1522965Y652967D02*
X1523981Y654999D01*
X1522965Y657031D01*
X1524997Y656015D01*
X1527029Y657031D01*
X1526013Y654999D01*
X1527029Y652967D01*
X1524997Y653983D01*
X1522965Y652967D01*
X1523981Y653983D02*
X1524489Y654999D01*
X1523981Y656015D01*
X1524997Y655507D01*
X1526013Y656015D01*
X1525505Y654999D01*
X1526013Y653983D01*
X1524997Y654491D01*
X1523981Y653983D01*
X1522965Y647967D02*
X1523981Y649999D01*
X1522965Y652031D01*
X1524997Y651015D01*
X1527029Y652031D01*
X1526013Y649999D01*
X1527029Y647967D01*
X1524997Y648983D01*
X1522965Y647967D01*
X1523981Y648983D02*
X1524489Y649999D01*
X1523981Y651015D01*
X1524997Y650507D01*
X1526013Y651015D01*
X1525505Y649999D01*
X1526013Y648983D01*
X1524997Y649491D01*
X1523981Y648983D01*
X1517965Y697967D02*
X1518981Y699999D01*
X1517965Y702031D01*
X1519997Y701015D01*
X1522029Y702031D01*
X1521013Y699999D01*
X1522029Y697967D01*
X1519997Y698983D01*
X1517965Y697967D01*
X1518981Y698983D02*
X1519489Y699999D01*
X1518981Y701015D01*
X1519997Y700507D01*
X1521013Y701015D01*
X1520505Y699999D01*
X1521013Y698983D01*
X1519997Y699491D01*
X1518981Y698983D01*
X1517965Y692967D02*
X1518981Y694999D01*
X1517965Y697031D01*
X1519997Y696015D01*
X1522029Y697031D01*
X1521013Y694999D01*
X1522029Y692967D01*
X1519997Y693983D01*
X1517965Y692967D01*
X1518981Y693983D02*
X1519489Y694999D01*
X1518981Y696015D01*
X1519997Y695507D01*
X1521013Y696015D01*
X1520505Y694999D01*
X1521013Y693983D01*
X1519997Y694491D01*
X1518981Y693983D01*
X1517965Y687967D02*
X1518981Y689999D01*
X1517965Y692031D01*
X1519997Y691015D01*
X1522029Y692031D01*
X1521013Y689999D01*
X1522029Y687967D01*
X1519997Y688983D01*
X1517965Y687967D01*
X1518981Y688983D02*
X1519489Y689999D01*
X1518981Y691015D01*
X1519997Y690507D01*
X1521013Y691015D01*
X1520505Y689999D01*
X1521013Y688983D01*
X1519997Y689491D01*
X1518981Y688983D01*
X1517965Y682967D02*
X1518981Y684999D01*
X1517965Y687031D01*
X1519997Y686015D01*
X1522029Y687031D01*
X1521013Y684999D01*
X1522029Y682967D01*
X1519997Y683983D01*
X1517965Y682967D01*
X1518981Y683983D02*
X1519489Y684999D01*
X1518981Y686015D01*
X1519997Y685507D01*
X1521013Y686015D01*
X1520505Y684999D01*
X1521013Y683983D01*
X1519997Y684491D01*
X1518981Y683983D01*
X1517965Y677967D02*
X1518981Y679999D01*
X1517965Y682031D01*
X1519997Y681015D01*
X1522029Y682031D01*
X1521013Y679999D01*
X1522029Y677967D01*
X1519997Y678983D01*
X1517965Y677967D01*
X1518981Y678983D02*
X1519489Y679999D01*
X1518981Y681015D01*
X1519997Y680507D01*
X1521013Y681015D01*
X1520505Y679999D01*
X1521013Y678983D01*
X1519997Y679491D01*
X1518981Y678983D01*
X1517965Y672967D02*
X1518981Y674999D01*
X1517965Y677031D01*
X1519997Y676015D01*
X1522029Y677031D01*
X1521013Y674999D01*
X1522029Y672967D01*
X1519997Y673983D01*
X1517965Y672967D01*
X1518981Y673983D02*
X1519489Y674999D01*
X1518981Y676015D01*
X1519997Y675507D01*
X1521013Y676015D01*
X1520505Y674999D01*
X1521013Y673983D01*
X1519997Y674491D01*
X1518981Y673983D01*
X1517965Y667967D02*
X1518981Y669999D01*
X1517965Y672031D01*
X1519997Y671015D01*
X1522029Y672031D01*
X1521013Y669999D01*
X1522029Y667967D01*
X1519997Y668983D01*
X1517965Y667967D01*
X1518981Y668983D02*
X1519489Y669999D01*
X1518981Y671015D01*
X1519997Y670507D01*
X1521013Y671015D01*
X1520505Y669999D01*
X1521013Y668983D01*
X1519997Y669491D01*
X1518981Y668983D01*
X1517965Y662967D02*
X1518981Y664999D01*
X1517965Y667031D01*
X1519997Y666015D01*
X1522029Y667031D01*
X1521013Y664999D01*
X1522029Y662967D01*
X1519997Y663983D01*
X1517965Y662967D01*
X1518981Y663983D02*
X1519489Y664999D01*
X1518981Y666015D01*
X1519997Y665507D01*
X1521013Y666015D01*
X1520505Y664999D01*
X1521013Y663983D01*
X1519997Y664491D01*
X1518981Y663983D01*
X1517965Y657967D02*
X1518981Y659999D01*
X1517965Y662031D01*
X1519997Y661015D01*
X1522029Y662031D01*
X1521013Y659999D01*
X1522029Y657967D01*
X1519997Y658983D01*
X1517965Y657967D01*
X1518981Y658983D02*
X1519489Y659999D01*
X1518981Y661015D01*
X1519997Y660507D01*
X1521013Y661015D01*
X1520505Y659999D01*
X1521013Y658983D01*
X1519997Y659491D01*
X1518981Y658983D01*
X1517965Y652967D02*
X1518981Y654999D01*
X1517965Y657031D01*
X1519997Y656015D01*
X1522029Y657031D01*
X1521013Y654999D01*
X1522029Y652967D01*
X1519997Y653983D01*
X1517965Y652967D01*
X1518981Y653983D02*
X1519489Y654999D01*
X1518981Y656015D01*
X1519997Y655507D01*
X1521013Y656015D01*
X1520505Y654999D01*
X1521013Y653983D01*
X1519997Y654491D01*
X1518981Y653983D01*
X1517965Y647967D02*
X1518981Y649999D01*
X1517965Y652031D01*
X1519997Y651015D01*
X1522029Y652031D01*
X1521013Y649999D01*
X1522029Y647967D01*
X1519997Y648983D01*
X1517965Y647967D01*
X1518981Y648983D02*
X1519489Y649999D01*
X1518981Y651015D01*
X1519997Y650507D01*
X1521013Y651015D01*
X1520505Y649999D01*
X1521013Y648983D01*
X1519997Y649491D01*
X1518981Y648983D01*
X1512965Y697967D02*
X1513981Y699999D01*
X1512965Y702031D01*
X1514997Y701015D01*
X1517029Y702031D01*
X1516013Y699999D01*
X1517029Y697967D01*
X1514997Y698983D01*
X1512965Y697967D01*
X1513981Y698983D02*
X1514489Y699999D01*
X1513981Y701015D01*
X1514997Y700507D01*
X1516013Y701015D01*
X1515505Y699999D01*
X1516013Y698983D01*
X1514997Y699491D01*
X1513981Y698983D01*
X1512965Y692967D02*
X1513981Y694999D01*
X1512965Y697031D01*
X1514997Y696015D01*
X1517029Y697031D01*
X1516013Y694999D01*
X1517029Y692967D01*
X1514997Y693983D01*
X1512965Y692967D01*
X1513981Y693983D02*
X1514489Y694999D01*
X1513981Y696015D01*
X1514997Y695507D01*
X1516013Y696015D01*
X1515505Y694999D01*
X1516013Y693983D01*
X1514997Y694491D01*
X1513981Y693983D01*
X1512965Y687967D02*
X1513981Y689999D01*
X1512965Y692031D01*
X1514997Y691015D01*
X1517029Y692031D01*
X1516013Y689999D01*
X1517029Y687967D01*
X1514997Y688983D01*
X1512965Y687967D01*
X1513981Y688983D02*
X1514489Y689999D01*
X1513981Y691015D01*
X1514997Y690507D01*
X1516013Y691015D01*
X1515505Y689999D01*
X1516013Y688983D01*
X1514997Y689491D01*
X1513981Y688983D01*
X1512965Y682967D02*
X1513981Y684999D01*
X1512965Y687031D01*
X1514997Y686015D01*
X1517029Y687031D01*
X1516013Y684999D01*
X1517029Y682967D01*
X1514997Y683983D01*
X1512965Y682967D01*
X1513981Y683983D02*
X1514489Y684999D01*
X1513981Y686015D01*
X1514997Y685507D01*
X1516013Y686015D01*
X1515505Y684999D01*
X1516013Y683983D01*
X1514997Y684491D01*
X1513981Y683983D01*
X1512965Y677967D02*
X1513981Y679999D01*
X1512965Y682031D01*
X1514997Y681015D01*
X1517029Y682031D01*
X1516013Y679999D01*
X1517029Y677967D01*
X1514997Y678983D01*
X1512965Y677967D01*
X1513981Y678983D02*
X1514489Y679999D01*
X1513981Y681015D01*
X1514997Y680507D01*
X1516013Y681015D01*
X1515505Y679999D01*
X1516013Y678983D01*
X1514997Y679491D01*
X1513981Y678983D01*
X1512965Y672967D02*
X1513981Y674999D01*
X1512965Y677031D01*
X1514997Y676015D01*
X1517029Y677031D01*
X1516013Y674999D01*
X1517029Y672967D01*
X1514997Y673983D01*
X1512965Y672967D01*
X1513981Y673983D02*
X1514489Y674999D01*
X1513981Y676015D01*
X1514997Y675507D01*
X1516013Y676015D01*
X1515505Y674999D01*
X1516013Y673983D01*
X1514997Y674491D01*
X1513981Y673983D01*
X1512965Y667967D02*
X1513981Y669999D01*
X1512965Y672031D01*
X1514997Y671015D01*
X1517029Y672031D01*
X1516013Y669999D01*
X1517029Y667967D01*
X1514997Y668983D01*
X1512965Y667967D01*
X1513981Y668983D02*
X1514489Y669999D01*
X1513981Y671015D01*
X1514997Y670507D01*
X1516013Y671015D01*
X1515505Y669999D01*
X1516013Y668983D01*
X1514997Y669491D01*
X1513981Y668983D01*
X1512965Y662967D02*
X1513981Y664999D01*
X1512965Y667031D01*
X1514997Y666015D01*
X1517029Y667031D01*
X1516013Y664999D01*
X1517029Y662967D01*
X1514997Y663983D01*
X1512965Y662967D01*
X1513981Y663983D02*
X1514489Y664999D01*
X1513981Y666015D01*
X1514997Y665507D01*
X1516013Y666015D01*
X1515505Y664999D01*
X1516013Y663983D01*
X1514997Y664491D01*
X1513981Y663983D01*
X1512965Y657967D02*
X1513981Y659999D01*
X1512965Y662031D01*
X1514997Y661015D01*
X1517029Y662031D01*
X1516013Y659999D01*
X1517029Y657967D01*
X1514997Y658983D01*
X1512965Y657967D01*
X1513981Y658983D02*
X1514489Y659999D01*
X1513981Y661015D01*
X1514997Y660507D01*
X1516013Y661015D01*
X1515505Y659999D01*
X1516013Y658983D01*
X1514997Y659491D01*
X1513981Y658983D01*
X1512965Y652967D02*
X1513981Y654999D01*
X1512965Y657031D01*
X1514997Y656015D01*
X1517029Y657031D01*
X1516013Y654999D01*
X1517029Y652967D01*
X1514997Y653983D01*
X1512965Y652967D01*
X1513981Y653983D02*
X1514489Y654999D01*
X1513981Y656015D01*
X1514997Y655507D01*
X1516013Y656015D01*
X1515505Y654999D01*
X1516013Y653983D01*
X1514997Y654491D01*
X1513981Y653983D01*
X1512965Y647967D02*
X1513981Y649999D01*
X1512965Y652031D01*
X1514997Y651015D01*
X1517029Y652031D01*
X1516013Y649999D01*
X1517029Y647967D01*
X1514997Y648983D01*
X1512965Y647967D01*
X1513981Y648983D02*
X1514489Y649999D01*
X1513981Y651015D01*
X1514997Y650507D01*
X1516013Y651015D01*
X1515505Y649999D01*
X1516013Y648983D01*
X1514997Y649491D01*
X1513981Y648983D01*
X1507965Y697967D02*
X1508981Y699999D01*
X1507965Y702031D01*
X1509997Y701015D01*
X1512029Y702031D01*
X1511013Y699999D01*
X1512029Y697967D01*
X1509997Y698983D01*
X1507965Y697967D01*
X1508981Y698983D02*
X1509489Y699999D01*
X1508981Y701015D01*
X1509997Y700507D01*
X1511013Y701015D01*
X1510505Y699999D01*
X1511013Y698983D01*
X1509997Y699491D01*
X1508981Y698983D01*
X1507965Y692967D02*
X1508981Y694999D01*
X1507965Y697031D01*
X1509997Y696015D01*
X1512029Y697031D01*
X1511013Y694999D01*
X1512029Y692967D01*
X1509997Y693983D01*
X1507965Y692967D01*
X1508981Y693983D02*
X1509489Y694999D01*
X1508981Y696015D01*
X1509997Y695507D01*
X1511013Y696015D01*
X1510505Y694999D01*
X1511013Y693983D01*
X1509997Y694491D01*
X1508981Y693983D01*
X1507965Y687967D02*
X1508981Y689999D01*
X1507965Y692031D01*
X1509997Y691015D01*
X1512029Y692031D01*
X1511013Y689999D01*
X1512029Y687967D01*
X1509997Y688983D01*
X1507965Y687967D01*
X1508981Y688983D02*
X1509489Y689999D01*
X1508981Y691015D01*
X1509997Y690507D01*
X1511013Y691015D01*
X1510505Y689999D01*
X1511013Y688983D01*
X1509997Y689491D01*
X1508981Y688983D01*
X1507965Y682967D02*
X1508981Y684999D01*
X1507965Y687031D01*
X1509997Y686015D01*
X1512029Y687031D01*
X1511013Y684999D01*
X1512029Y682967D01*
X1509997Y683983D01*
X1507965Y682967D01*
X1508981Y683983D02*
X1509489Y684999D01*
X1508981Y686015D01*
X1509997Y685507D01*
X1511013Y686015D01*
X1510505Y684999D01*
X1511013Y683983D01*
X1509997Y684491D01*
X1508981Y683983D01*
X1507965Y677967D02*
X1508981Y679999D01*
X1507965Y682031D01*
X1509997Y681015D01*
X1512029Y682031D01*
X1511013Y679999D01*
X1512029Y677967D01*
X1509997Y678983D01*
X1507965Y677967D01*
X1508981Y678983D02*
X1509489Y679999D01*
X1508981Y681015D01*
X1509997Y680507D01*
X1511013Y681015D01*
X1510505Y679999D01*
X1511013Y678983D01*
X1509997Y679491D01*
X1508981Y678983D01*
X1507965Y672967D02*
X1508981Y674999D01*
X1507965Y677031D01*
X1509997Y676015D01*
X1512029Y677031D01*
X1511013Y674999D01*
X1512029Y672967D01*
X1509997Y673983D01*
X1507965Y672967D01*
X1508981Y673983D02*
X1509489Y674999D01*
X1508981Y676015D01*
X1509997Y675507D01*
X1511013Y676015D01*
X1510505Y674999D01*
X1511013Y673983D01*
X1509997Y674491D01*
X1508981Y673983D01*
X1507965Y667967D02*
X1508981Y669999D01*
X1507965Y672031D01*
X1509997Y671015D01*
X1512029Y672031D01*
X1511013Y669999D01*
X1512029Y667967D01*
X1509997Y668983D01*
X1507965Y667967D01*
X1508981Y668983D02*
X1509489Y669999D01*
X1508981Y671015D01*
X1509997Y670507D01*
X1511013Y671015D01*
X1510505Y669999D01*
X1511013Y668983D01*
X1509997Y669491D01*
X1508981Y668983D01*
X1507965Y662967D02*
X1508981Y664999D01*
X1507965Y667031D01*
X1509997Y666015D01*
X1512029Y667031D01*
X1511013Y664999D01*
X1512029Y662967D01*
X1509997Y663983D01*
X1507965Y662967D01*
X1508981Y663983D02*
X1509489Y664999D01*
X1508981Y666015D01*
X1509997Y665507D01*
X1511013Y666015D01*
X1510505Y664999D01*
X1511013Y663983D01*
X1509997Y664491D01*
X1508981Y663983D01*
X1507965Y657967D02*
X1508981Y659999D01*
X1507965Y662031D01*
X1509997Y661015D01*
X1512029Y662031D01*
X1511013Y659999D01*
X1512029Y657967D01*
X1509997Y658983D01*
X1507965Y657967D01*
X1508981Y658983D02*
X1509489Y659999D01*
X1508981Y661015D01*
X1509997Y660507D01*
X1511013Y661015D01*
X1510505Y659999D01*
X1511013Y658983D01*
X1509997Y659491D01*
X1508981Y658983D01*
X1507965Y652967D02*
X1508981Y654999D01*
X1507965Y657031D01*
X1509997Y656015D01*
X1512029Y657031D01*
X1511013Y654999D01*
X1512029Y652967D01*
X1509997Y653983D01*
X1507965Y652967D01*
X1508981Y653983D02*
X1509489Y654999D01*
X1508981Y656015D01*
X1509997Y655507D01*
X1511013Y656015D01*
X1510505Y654999D01*
X1511013Y653983D01*
X1509997Y654491D01*
X1508981Y653983D01*
X1507965Y647967D02*
X1508981Y649999D01*
X1507965Y652031D01*
X1509997Y651015D01*
X1512029Y652031D01*
X1511013Y649999D01*
X1512029Y647967D01*
X1509997Y648983D01*
X1507965Y647967D01*
X1508981Y648983D02*
X1509489Y649999D01*
X1508981Y651015D01*
X1509997Y650507D01*
X1511013Y651015D01*
X1510505Y649999D01*
X1511013Y648983D01*
X1509997Y649491D01*
X1508981Y648983D01*
X1502965Y697967D02*
X1503981Y699999D01*
X1502965Y702031D01*
X1504997Y701015D01*
X1507029Y702031D01*
X1506013Y699999D01*
X1507029Y697967D01*
X1504997Y698983D01*
X1502965Y697967D01*
X1503981Y698983D02*
X1504489Y699999D01*
X1503981Y701015D01*
X1504997Y700507D01*
X1506013Y701015D01*
X1505505Y699999D01*
X1506013Y698983D01*
X1504997Y699491D01*
X1503981Y698983D01*
X1502965Y692967D02*
X1503981Y694999D01*
X1502965Y697031D01*
X1504997Y696015D01*
X1507029Y697031D01*
X1506013Y694999D01*
X1507029Y692967D01*
X1504997Y693983D01*
X1502965Y692967D01*
X1503981Y693983D02*
X1504489Y694999D01*
X1503981Y696015D01*
X1504997Y695507D01*
X1506013Y696015D01*
X1505505Y694999D01*
X1506013Y693983D01*
X1504997Y694491D01*
X1503981Y693983D01*
X1502965Y687967D02*
X1503981Y689999D01*
X1502965Y692031D01*
X1504997Y691015D01*
X1507029Y692031D01*
X1506013Y689999D01*
X1507029Y687967D01*
X1504997Y688983D01*
X1502965Y687967D01*
X1503981Y688983D02*
X1504489Y689999D01*
X1503981Y691015D01*
X1504997Y690507D01*
X1506013Y691015D01*
X1505505Y689999D01*
X1506013Y688983D01*
X1504997Y689491D01*
X1503981Y688983D01*
X1502965Y682967D02*
X1503981Y684999D01*
X1502965Y687031D01*
X1504997Y686015D01*
X1507029Y687031D01*
X1506013Y684999D01*
X1507029Y682967D01*
X1504997Y683983D01*
X1502965Y682967D01*
X1503981Y683983D02*
X1504489Y684999D01*
X1503981Y686015D01*
X1504997Y685507D01*
X1506013Y686015D01*
X1505505Y684999D01*
X1506013Y683983D01*
X1504997Y684491D01*
X1503981Y683983D01*
X1502965Y677967D02*
X1503981Y679999D01*
X1502965Y682031D01*
X1504997Y681015D01*
X1507029Y682031D01*
X1506013Y679999D01*
X1507029Y677967D01*
X1504997Y678983D01*
X1502965Y677967D01*
X1503981Y678983D02*
X1504489Y679999D01*
X1503981Y681015D01*
X1504997Y680507D01*
X1506013Y681015D01*
X1505505Y679999D01*
X1506013Y678983D01*
X1504997Y679491D01*
X1503981Y678983D01*
X1502965Y672967D02*
X1503981Y674999D01*
X1502965Y677031D01*
X1504997Y676015D01*
X1507029Y677031D01*
X1506013Y674999D01*
X1507029Y672967D01*
X1504997Y673983D01*
X1502965Y672967D01*
X1503981Y673983D02*
X1504489Y674999D01*
X1503981Y676015D01*
X1504997Y675507D01*
X1506013Y676015D01*
X1505505Y674999D01*
X1506013Y673983D01*
X1504997Y674491D01*
X1503981Y673983D01*
X1502965Y667967D02*
X1503981Y669999D01*
X1502965Y672031D01*
X1504997Y671015D01*
X1507029Y672031D01*
X1506013Y669999D01*
X1507029Y667967D01*
X1504997Y668983D01*
X1502965Y667967D01*
X1503981Y668983D02*
X1504489Y669999D01*
X1503981Y671015D01*
X1504997Y670507D01*
X1506013Y671015D01*
X1505505Y669999D01*
X1506013Y668983D01*
X1504997Y669491D01*
X1503981Y668983D01*
X1502965Y662967D02*
X1503981Y664999D01*
X1502965Y667031D01*
X1504997Y666015D01*
X1507029Y667031D01*
X1506013Y664999D01*
X1507029Y662967D01*
X1504997Y663983D01*
X1502965Y662967D01*
X1503981Y663983D02*
X1504489Y664999D01*
X1503981Y666015D01*
X1504997Y665507D01*
X1506013Y666015D01*
X1505505Y664999D01*
X1506013Y663983D01*
X1504997Y664491D01*
X1503981Y663983D01*
X1502965Y657967D02*
X1503981Y659999D01*
X1502965Y662031D01*
X1504997Y661015D01*
X1507029Y662031D01*
X1506013Y659999D01*
X1507029Y657967D01*
X1504997Y658983D01*
X1502965Y657967D01*
X1503981Y658983D02*
X1504489Y659999D01*
X1503981Y661015D01*
X1504997Y660507D01*
X1506013Y661015D01*
X1505505Y659999D01*
X1506013Y658983D01*
X1504997Y659491D01*
X1503981Y658983D01*
X1502965Y652967D02*
X1503981Y654999D01*
X1502965Y657031D01*
X1504997Y656015D01*
X1507029Y657031D01*
X1506013Y654999D01*
X1507029Y652967D01*
X1504997Y653983D01*
X1502965Y652967D01*
X1503981Y653983D02*
X1504489Y654999D01*
X1503981Y656015D01*
X1504997Y655507D01*
X1506013Y656015D01*
X1505505Y654999D01*
X1506013Y653983D01*
X1504997Y654491D01*
X1503981Y653983D01*
X1502965Y647967D02*
X1503981Y649999D01*
X1502965Y652031D01*
X1504997Y651015D01*
X1507029Y652031D01*
X1506013Y649999D01*
X1507029Y647967D01*
X1504997Y648983D01*
X1502965Y647967D01*
X1503981Y648983D02*
X1504489Y649999D01*
X1503981Y651015D01*
X1504997Y650507D01*
X1506013Y651015D01*
X1505505Y649999D01*
X1506013Y648983D01*
X1504997Y649491D01*
X1503981Y648983D01*
X1497965Y697967D02*
X1498981Y699999D01*
X1497965Y702031D01*
X1499997Y701015D01*
X1502029Y702031D01*
X1501013Y699999D01*
X1502029Y697967D01*
X1499997Y698983D01*
X1497965Y697967D01*
X1498981Y698983D02*
X1499489Y699999D01*
X1498981Y701015D01*
X1499997Y700507D01*
X1501013Y701015D01*
X1500505Y699999D01*
X1501013Y698983D01*
X1499997Y699491D01*
X1498981Y698983D01*
X1497965Y692967D02*
X1498981Y694999D01*
X1497965Y697031D01*
X1499997Y696015D01*
X1502029Y697031D01*
X1501013Y694999D01*
X1502029Y692967D01*
X1499997Y693983D01*
X1497965Y692967D01*
X1498981Y693983D02*
X1499489Y694999D01*
X1498981Y696015D01*
X1499997Y695507D01*
X1501013Y696015D01*
X1500505Y694999D01*
X1501013Y693983D01*
X1499997Y694491D01*
X1498981Y693983D01*
X1497965Y687967D02*
X1498981Y689999D01*
X1497965Y692031D01*
X1499997Y691015D01*
X1502029Y692031D01*
X1501013Y689999D01*
X1502029Y687967D01*
X1499997Y688983D01*
X1497965Y687967D01*
X1498981Y688983D02*
X1499489Y689999D01*
X1498981Y691015D01*
X1499997Y690507D01*
X1501013Y691015D01*
X1500505Y689999D01*
X1501013Y688983D01*
X1499997Y689491D01*
X1498981Y688983D01*
X1497965Y682967D02*
X1498981Y684999D01*
X1497965Y687031D01*
X1499997Y686015D01*
X1502029Y687031D01*
X1501013Y684999D01*
X1502029Y682967D01*
X1499997Y683983D01*
X1497965Y682967D01*
X1498981Y683983D02*
X1499489Y684999D01*
X1498981Y686015D01*
X1499997Y685507D01*
X1501013Y686015D01*
X1500505Y684999D01*
X1501013Y683983D01*
X1499997Y684491D01*
X1498981Y683983D01*
X1497965Y677967D02*
X1498981Y679999D01*
X1497965Y682031D01*
X1499997Y681015D01*
X1502029Y682031D01*
X1501013Y679999D01*
X1502029Y677967D01*
X1499997Y678983D01*
X1497965Y677967D01*
X1498981Y678983D02*
X1499489Y679999D01*
X1498981Y681015D01*
X1499997Y680507D01*
X1501013Y681015D01*
X1500505Y679999D01*
X1501013Y678983D01*
X1499997Y679491D01*
X1498981Y678983D01*
X1497965Y672967D02*
X1498981Y674999D01*
X1497965Y677031D01*
X1499997Y676015D01*
X1502029Y677031D01*
X1501013Y674999D01*
X1502029Y672967D01*
X1499997Y673983D01*
X1497965Y672967D01*
X1498981Y673983D02*
X1499489Y674999D01*
X1498981Y676015D01*
X1499997Y675507D01*
X1501013Y676015D01*
X1500505Y674999D01*
X1501013Y673983D01*
X1499997Y674491D01*
X1498981Y673983D01*
X1497965Y667967D02*
X1498981Y669999D01*
X1497965Y672031D01*
X1499997Y671015D01*
X1502029Y672031D01*
X1501013Y669999D01*
X1502029Y667967D01*
X1499997Y668983D01*
X1497965Y667967D01*
X1498981Y668983D02*
X1499489Y669999D01*
X1498981Y671015D01*
X1499997Y670507D01*
X1501013Y671015D01*
X1500505Y669999D01*
X1501013Y668983D01*
X1499997Y669491D01*
X1498981Y668983D01*
X1497965Y662967D02*
X1498981Y664999D01*
X1497965Y667031D01*
X1499997Y666015D01*
X1502029Y667031D01*
X1501013Y664999D01*
X1502029Y662967D01*
X1499997Y663983D01*
X1497965Y662967D01*
X1498981Y663983D02*
X1499489Y664999D01*
X1498981Y666015D01*
X1499997Y665507D01*
X1501013Y666015D01*
X1500505Y664999D01*
X1501013Y663983D01*
X1499997Y664491D01*
X1498981Y663983D01*
X1497965Y657967D02*
X1498981Y659999D01*
X1497965Y662031D01*
X1499997Y661015D01*
X1502029Y662031D01*
X1501013Y659999D01*
X1502029Y657967D01*
X1499997Y658983D01*
X1497965Y657967D01*
X1498981Y658983D02*
X1499489Y659999D01*
X1498981Y661015D01*
X1499997Y660507D01*
X1501013Y661015D01*
X1500505Y659999D01*
X1501013Y658983D01*
X1499997Y659491D01*
X1498981Y658983D01*
X1497965Y652967D02*
X1498981Y654999D01*
X1497965Y657031D01*
X1499997Y656015D01*
X1502029Y657031D01*
X1501013Y654999D01*
X1502029Y652967D01*
X1499997Y653983D01*
X1497965Y652967D01*
X1498981Y653983D02*
X1499489Y654999D01*
X1498981Y656015D01*
X1499997Y655507D01*
X1501013Y656015D01*
X1500505Y654999D01*
X1501013Y653983D01*
X1499997Y654491D01*
X1498981Y653983D01*
X1497965Y647967D02*
X1498981Y649999D01*
X1497965Y652031D01*
X1499997Y651015D01*
X1502029Y652031D01*
X1501013Y649999D01*
X1502029Y647967D01*
X1499997Y648983D01*
X1497965Y647967D01*
X1498981Y648983D02*
X1499489Y649999D01*
X1498981Y651015D01*
X1499997Y650507D01*
X1501013Y651015D01*
X1500505Y649999D01*
X1501013Y648983D01*
X1499997Y649491D01*
X1498981Y648983D01*
X1492965Y697967D02*
X1493981Y699999D01*
X1492965Y702031D01*
X1494997Y701015D01*
X1497029Y702031D01*
X1496013Y699999D01*
X1497029Y697967D01*
X1494997Y698983D01*
X1492965Y697967D01*
X1493981Y698983D02*
X1494489Y699999D01*
X1493981Y701015D01*
X1494997Y700507D01*
X1496013Y701015D01*
X1495505Y699999D01*
X1496013Y698983D01*
X1494997Y699491D01*
X1493981Y698983D01*
X1492965Y692967D02*
X1493981Y694999D01*
X1492965Y697031D01*
X1494997Y696015D01*
X1497029Y697031D01*
X1496013Y694999D01*
X1497029Y692967D01*
X1494997Y693983D01*
X1492965Y692967D01*
X1493981Y693983D02*
X1494489Y694999D01*
X1493981Y696015D01*
X1494997Y695507D01*
X1496013Y696015D01*
X1495505Y694999D01*
X1496013Y693983D01*
X1494997Y694491D01*
X1493981Y693983D01*
X1492965Y687967D02*
X1493981Y689999D01*
X1492965Y692031D01*
X1494997Y691015D01*
X1497029Y692031D01*
X1496013Y689999D01*
X1497029Y687967D01*
X1494997Y688983D01*
X1492965Y687967D01*
X1493981Y688983D02*
X1494489Y689999D01*
X1493981Y691015D01*
X1494997Y690507D01*
X1496013Y691015D01*
X1495505Y689999D01*
X1496013Y688983D01*
X1494997Y689491D01*
X1493981Y688983D01*
X1492965Y682967D02*
X1493981Y684999D01*
X1492965Y687031D01*
X1494997Y686015D01*
X1497029Y687031D01*
X1496013Y684999D01*
X1497029Y682967D01*
X1494997Y683983D01*
X1492965Y682967D01*
X1493981Y683983D02*
X1494489Y684999D01*
X1493981Y686015D01*
X1494997Y685507D01*
X1496013Y686015D01*
X1495505Y684999D01*
X1496013Y683983D01*
X1494997Y684491D01*
X1493981Y683983D01*
X1492965Y677967D02*
X1493981Y679999D01*
X1492965Y682031D01*
X1494997Y681015D01*
X1497029Y682031D01*
X1496013Y679999D01*
X1497029Y677967D01*
X1494997Y678983D01*
X1492965Y677967D01*
X1493981Y678983D02*
X1494489Y679999D01*
X1493981Y681015D01*
X1494997Y680507D01*
X1496013Y681015D01*
X1495505Y679999D01*
X1496013Y678983D01*
X1494997Y679491D01*
X1493981Y678983D01*
X1492965Y672967D02*
X1493981Y674999D01*
X1492965Y677031D01*
X1494997Y676015D01*
X1497029Y677031D01*
X1496013Y674999D01*
X1497029Y672967D01*
X1494997Y673983D01*
X1492965Y672967D01*
X1493981Y673983D02*
X1494489Y674999D01*
X1493981Y676015D01*
X1494997Y675507D01*
X1496013Y676015D01*
X1495505Y674999D01*
X1496013Y673983D01*
X1494997Y674491D01*
X1493981Y673983D01*
X1492965Y667967D02*
X1493981Y669999D01*
X1492965Y672031D01*
X1494997Y671015D01*
X1497029Y672031D01*
X1496013Y669999D01*
X1497029Y667967D01*
X1494997Y668983D01*
X1492965Y667967D01*
X1493981Y668983D02*
X1494489Y669999D01*
X1493981Y671015D01*
X1494997Y670507D01*
X1496013Y671015D01*
X1495505Y669999D01*
X1496013Y668983D01*
X1494997Y669491D01*
X1493981Y668983D01*
X1492965Y662967D02*
X1493981Y664999D01*
X1492965Y667031D01*
X1494997Y666015D01*
X1497029Y667031D01*
X1496013Y664999D01*
X1497029Y662967D01*
X1494997Y663983D01*
X1492965Y662967D01*
X1493981Y663983D02*
X1494489Y664999D01*
X1493981Y666015D01*
X1494997Y665507D01*
X1496013Y666015D01*
X1495505Y664999D01*
X1496013Y663983D01*
X1494997Y664491D01*
X1493981Y663983D01*
X1492965Y657967D02*
X1493981Y659999D01*
X1492965Y662031D01*
X1494997Y661015D01*
X1497029Y662031D01*
X1496013Y659999D01*
X1497029Y657967D01*
X1494997Y658983D01*
X1492965Y657967D01*
X1493981Y658983D02*
X1494489Y659999D01*
X1493981Y661015D01*
X1494997Y660507D01*
X1496013Y661015D01*
X1495505Y659999D01*
X1496013Y658983D01*
X1494997Y659491D01*
X1493981Y658983D01*
X1492965Y652967D02*
X1493981Y654999D01*
X1492965Y657031D01*
X1494997Y656015D01*
X1497029Y657031D01*
X1496013Y654999D01*
X1497029Y652967D01*
X1494997Y653983D01*
X1492965Y652967D01*
X1493981Y653983D02*
X1494489Y654999D01*
X1493981Y656015D01*
X1494997Y655507D01*
X1496013Y656015D01*
X1495505Y654999D01*
X1496013Y653983D01*
X1494997Y654491D01*
X1493981Y653983D01*
X1492965Y647967D02*
X1493981Y649999D01*
X1492965Y652031D01*
X1494997Y651015D01*
X1497029Y652031D01*
X1496013Y649999D01*
X1497029Y647967D01*
X1494997Y648983D01*
X1492965Y647967D01*
X1493981Y648983D02*
X1494489Y649999D01*
X1493981Y651015D01*
X1494997Y650507D01*
X1496013Y651015D01*
X1495505Y649999D01*
X1496013Y648983D01*
X1494997Y649491D01*
X1493981Y648983D01*
X1487965Y697967D02*
X1488981Y699999D01*
X1487965Y702031D01*
X1489997Y701015D01*
X1492029Y702031D01*
X1491013Y699999D01*
X1492029Y697967D01*
X1489997Y698983D01*
X1487965Y697967D01*
X1488981Y698983D02*
X1489489Y699999D01*
X1488981Y701015D01*
X1489997Y700507D01*
X1491013Y701015D01*
X1490505Y699999D01*
X1491013Y698983D01*
X1489997Y699491D01*
X1488981Y698983D01*
X1487965Y692967D02*
X1488981Y694999D01*
X1487965Y697031D01*
X1489997Y696015D01*
X1492029Y697031D01*
X1491013Y694999D01*
X1492029Y692967D01*
X1489997Y693983D01*
X1487965Y692967D01*
X1488981Y693983D02*
X1489489Y694999D01*
X1488981Y696015D01*
X1489997Y695507D01*
X1491013Y696015D01*
X1490505Y694999D01*
X1491013Y693983D01*
X1489997Y694491D01*
X1488981Y693983D01*
X1487965Y687967D02*
X1488981Y689999D01*
X1487965Y692031D01*
X1489997Y691015D01*
X1492029Y692031D01*
X1491013Y689999D01*
X1492029Y687967D01*
X1489997Y688983D01*
X1487965Y687967D01*
X1488981Y688983D02*
X1489489Y689999D01*
X1488981Y691015D01*
X1489997Y690507D01*
X1491013Y691015D01*
X1490505Y689999D01*
X1491013Y688983D01*
X1489997Y689491D01*
X1488981Y688983D01*
X1487965Y682967D02*
X1488981Y684999D01*
X1487965Y687031D01*
X1489997Y686015D01*
X1492029Y687031D01*
X1491013Y684999D01*
X1492029Y682967D01*
X1489997Y683983D01*
X1487965Y682967D01*
X1488981Y683983D02*
X1489489Y684999D01*
X1488981Y686015D01*
X1489997Y685507D01*
X1491013Y686015D01*
X1490505Y684999D01*
X1491013Y683983D01*
X1489997Y684491D01*
X1488981Y683983D01*
X1487965Y677967D02*
X1488981Y679999D01*
X1487965Y682031D01*
X1489997Y681015D01*
X1492029Y682031D01*
X1491013Y679999D01*
X1492029Y677967D01*
X1489997Y678983D01*
X1487965Y677967D01*
X1488981Y678983D02*
X1489489Y679999D01*
X1488981Y681015D01*
X1489997Y680507D01*
X1491013Y681015D01*
X1490505Y679999D01*
X1491013Y678983D01*
X1489997Y679491D01*
X1488981Y678983D01*
X1487965Y672967D02*
X1488981Y674999D01*
X1487965Y677031D01*
X1489997Y676015D01*
X1492029Y677031D01*
X1491013Y674999D01*
X1492029Y672967D01*
X1489997Y673983D01*
X1487965Y672967D01*
X1488981Y673983D02*
X1489489Y674999D01*
X1488981Y676015D01*
X1489997Y675507D01*
X1491013Y676015D01*
X1490505Y674999D01*
X1491013Y673983D01*
X1489997Y674491D01*
X1488981Y673983D01*
X1487965Y667967D02*
X1488981Y669999D01*
X1487965Y672031D01*
X1489997Y671015D01*
X1492029Y672031D01*
X1491013Y669999D01*
X1492029Y667967D01*
X1489997Y668983D01*
X1487965Y667967D01*
X1488981Y668983D02*
X1489489Y669999D01*
X1488981Y671015D01*
X1489997Y670507D01*
X1491013Y671015D01*
X1490505Y669999D01*
X1491013Y668983D01*
X1489997Y669491D01*
X1488981Y668983D01*
X1487965Y662967D02*
X1488981Y664999D01*
X1487965Y667031D01*
X1489997Y666015D01*
X1492029Y667031D01*
X1491013Y664999D01*
X1492029Y662967D01*
X1489997Y663983D01*
X1487965Y662967D01*
X1488981Y663983D02*
X1489489Y664999D01*
X1488981Y666015D01*
X1489997Y665507D01*
X1491013Y666015D01*
X1490505Y664999D01*
X1491013Y663983D01*
X1489997Y664491D01*
X1488981Y663983D01*
X1487965Y657967D02*
X1488981Y659999D01*
X1487965Y662031D01*
X1489997Y661015D01*
X1492029Y662031D01*
X1491013Y659999D01*
X1492029Y657967D01*
X1489997Y658983D01*
X1487965Y657967D01*
X1488981Y658983D02*
X1489489Y659999D01*
X1488981Y661015D01*
X1489997Y660507D01*
X1491013Y661015D01*
X1490505Y659999D01*
X1491013Y658983D01*
X1489997Y659491D01*
X1488981Y658983D01*
X1487965Y652967D02*
X1488981Y654999D01*
X1487965Y657031D01*
X1489997Y656015D01*
X1492029Y657031D01*
X1491013Y654999D01*
X1492029Y652967D01*
X1489997Y653983D01*
X1487965Y652967D01*
X1488981Y653983D02*
X1489489Y654999D01*
X1488981Y656015D01*
X1489997Y655507D01*
X1491013Y656015D01*
X1490505Y654999D01*
X1491013Y653983D01*
X1489997Y654491D01*
X1488981Y653983D01*
X1487965Y647967D02*
X1488981Y649999D01*
X1487965Y652031D01*
X1489997Y651015D01*
X1492029Y652031D01*
X1491013Y649999D01*
X1492029Y647967D01*
X1489997Y648983D01*
X1487965Y647967D01*
X1488981Y648983D02*
X1489489Y649999D01*
X1488981Y651015D01*
X1489997Y650507D01*
X1491013Y651015D01*
X1490505Y649999D01*
X1491013Y648983D01*
X1489997Y649491D01*
X1488981Y648983D01*
X1482965Y697967D02*
X1483981Y699999D01*
X1482965Y702031D01*
X1484997Y701015D01*
X1487029Y702031D01*
X1486013Y699999D01*
X1487029Y697967D01*
X1484997Y698983D01*
X1482965Y697967D01*
X1483981Y698983D02*
X1484489Y699999D01*
X1483981Y701015D01*
X1484997Y700507D01*
X1486013Y701015D01*
X1485505Y699999D01*
X1486013Y698983D01*
X1484997Y699491D01*
X1483981Y698983D01*
X1482965Y692967D02*
X1483981Y694999D01*
X1482965Y697031D01*
X1484997Y696015D01*
X1487029Y697031D01*
X1486013Y694999D01*
X1487029Y692967D01*
X1484997Y693983D01*
X1482965Y692967D01*
X1483981Y693983D02*
X1484489Y694999D01*
X1483981Y696015D01*
X1484997Y695507D01*
X1486013Y696015D01*
X1485505Y694999D01*
X1486013Y693983D01*
X1484997Y694491D01*
X1483981Y693983D01*
X1482965Y687967D02*
X1483981Y689999D01*
X1482965Y692031D01*
X1484997Y691015D01*
X1487029Y692031D01*
X1486013Y689999D01*
X1487029Y687967D01*
X1484997Y688983D01*
X1482965Y687967D01*
X1483981Y688983D02*
X1484489Y689999D01*
X1483981Y691015D01*
X1484997Y690507D01*
X1486013Y691015D01*
X1485505Y689999D01*
X1486013Y688983D01*
X1484997Y689491D01*
X1483981Y688983D01*
X1482965Y682967D02*
X1483981Y684999D01*
X1482965Y687031D01*
X1484997Y686015D01*
X1487029Y687031D01*
X1486013Y684999D01*
X1487029Y682967D01*
X1484997Y683983D01*
X1482965Y682967D01*
X1483981Y683983D02*
X1484489Y684999D01*
X1483981Y686015D01*
X1484997Y685507D01*
X1486013Y686015D01*
X1485505Y684999D01*
X1486013Y683983D01*
X1484997Y684491D01*
X1483981Y683983D01*
X1482965Y677967D02*
X1483981Y679999D01*
X1482965Y682031D01*
X1484997Y681015D01*
X1487029Y682031D01*
X1486013Y679999D01*
X1487029Y677967D01*
X1484997Y678983D01*
X1482965Y677967D01*
X1483981Y678983D02*
X1484489Y679999D01*
X1483981Y681015D01*
X1484997Y680507D01*
X1486013Y681015D01*
X1485505Y679999D01*
X1486013Y678983D01*
X1484997Y679491D01*
X1483981Y678983D01*
X1482965Y672967D02*
X1483981Y674999D01*
X1482965Y677031D01*
X1484997Y676015D01*
X1487029Y677031D01*
X1486013Y674999D01*
X1487029Y672967D01*
X1484997Y673983D01*
X1482965Y672967D01*
X1483981Y673983D02*
X1484489Y674999D01*
X1483981Y676015D01*
X1484997Y675507D01*
X1486013Y676015D01*
X1485505Y674999D01*
X1486013Y673983D01*
X1484997Y674491D01*
X1483981Y673983D01*
X1482965Y667967D02*
X1483981Y669999D01*
X1482965Y672031D01*
X1484997Y671015D01*
X1487029Y672031D01*
X1486013Y669999D01*
X1487029Y667967D01*
X1484997Y668983D01*
X1482965Y667967D01*
X1483981Y668983D02*
X1484489Y669999D01*
X1483981Y671015D01*
X1484997Y670507D01*
X1486013Y671015D01*
X1485505Y669999D01*
X1486013Y668983D01*
X1484997Y669491D01*
X1483981Y668983D01*
X1482965Y662967D02*
X1483981Y664999D01*
X1482965Y667031D01*
X1484997Y666015D01*
X1487029Y667031D01*
X1486013Y664999D01*
X1487029Y662967D01*
X1484997Y663983D01*
X1482965Y662967D01*
X1483981Y663983D02*
X1484489Y664999D01*
X1483981Y666015D01*
X1484997Y665507D01*
X1486013Y666015D01*
X1485505Y664999D01*
X1486013Y663983D01*
X1484997Y664491D01*
X1483981Y663983D01*
X1482965Y657967D02*
X1483981Y659999D01*
X1482965Y662031D01*
X1484997Y661015D01*
X1487029Y662031D01*
X1486013Y659999D01*
X1487029Y657967D01*
X1484997Y658983D01*
X1482965Y657967D01*
X1483981Y658983D02*
X1484489Y659999D01*
X1483981Y661015D01*
X1484997Y660507D01*
X1486013Y661015D01*
X1485505Y659999D01*
X1486013Y658983D01*
X1484997Y659491D01*
X1483981Y658983D01*
X1482965Y652967D02*
X1483981Y654999D01*
X1482965Y657031D01*
X1484997Y656015D01*
X1487029Y657031D01*
X1486013Y654999D01*
X1487029Y652967D01*
X1484997Y653983D01*
X1482965Y652967D01*
X1483981Y653983D02*
X1484489Y654999D01*
X1483981Y656015D01*
X1484997Y655507D01*
X1486013Y656015D01*
X1485505Y654999D01*
X1486013Y653983D01*
X1484997Y654491D01*
X1483981Y653983D01*
X1482965Y647967D02*
X1483981Y649999D01*
X1482965Y652031D01*
X1484997Y651015D01*
X1487029Y652031D01*
X1486013Y649999D01*
X1487029Y647967D01*
X1484997Y648983D01*
X1482965Y647967D01*
X1483981Y648983D02*
X1484489Y649999D01*
X1483981Y651015D01*
X1484997Y650507D01*
X1486013Y651015D01*
X1485505Y649999D01*
X1486013Y648983D01*
X1484997Y649491D01*
X1483981Y648983D01*
X1477965Y697967D02*
X1478981Y699999D01*
X1477965Y702031D01*
X1479997Y701015D01*
X1482029Y702031D01*
X1481013Y699999D01*
X1482029Y697967D01*
X1479997Y698983D01*
X1477965Y697967D01*
X1478981Y698983D02*
X1479489Y699999D01*
X1478981Y701015D01*
X1479997Y700507D01*
X1481013Y701015D01*
X1480505Y699999D01*
X1481013Y698983D01*
X1479997Y699491D01*
X1478981Y698983D01*
X1477965Y692967D02*
X1478981Y694999D01*
X1477965Y697031D01*
X1479997Y696015D01*
X1482029Y697031D01*
X1481013Y694999D01*
X1482029Y692967D01*
X1479997Y693983D01*
X1477965Y692967D01*
X1478981Y693983D02*
X1479489Y694999D01*
X1478981Y696015D01*
X1479997Y695507D01*
X1481013Y696015D01*
X1480505Y694999D01*
X1481013Y693983D01*
X1479997Y694491D01*
X1478981Y693983D01*
X1477965Y687967D02*
X1478981Y689999D01*
X1477965Y692031D01*
X1479997Y691015D01*
X1482029Y692031D01*
X1481013Y689999D01*
X1482029Y687967D01*
X1479997Y688983D01*
X1477965Y687967D01*
X1478981Y688983D02*
X1479489Y689999D01*
X1478981Y691015D01*
X1479997Y690507D01*
X1481013Y691015D01*
X1480505Y689999D01*
X1481013Y688983D01*
X1479997Y689491D01*
X1478981Y688983D01*
X1477965Y682967D02*
X1478981Y684999D01*
X1477965Y687031D01*
X1479997Y686015D01*
X1482029Y687031D01*
X1481013Y684999D01*
X1482029Y682967D01*
X1479997Y683983D01*
X1477965Y682967D01*
X1478981Y683983D02*
X1479489Y684999D01*
X1478981Y686015D01*
X1479997Y685507D01*
X1481013Y686015D01*
X1480505Y684999D01*
X1481013Y683983D01*
X1479997Y684491D01*
X1478981Y683983D01*
X1477965Y677967D02*
X1478981Y679999D01*
X1477965Y682031D01*
X1479997Y681015D01*
X1482029Y682031D01*
X1481013Y679999D01*
X1482029Y677967D01*
X1479997Y678983D01*
X1477965Y677967D01*
X1478981Y678983D02*
X1479489Y679999D01*
X1478981Y681015D01*
X1479997Y680507D01*
X1481013Y681015D01*
X1480505Y679999D01*
X1481013Y678983D01*
X1479997Y679491D01*
X1478981Y678983D01*
X1477965Y672967D02*
X1478981Y674999D01*
X1477965Y677031D01*
X1479997Y676015D01*
X1482029Y677031D01*
X1481013Y674999D01*
X1482029Y672967D01*
X1479997Y673983D01*
X1477965Y672967D01*
X1478981Y673983D02*
X1479489Y674999D01*
X1478981Y676015D01*
X1479997Y675507D01*
X1481013Y676015D01*
X1480505Y674999D01*
X1481013Y673983D01*
X1479997Y674491D01*
X1478981Y673983D01*
X1477965Y667967D02*
X1478981Y669999D01*
X1477965Y672031D01*
X1479997Y671015D01*
X1482029Y672031D01*
X1481013Y669999D01*
X1482029Y667967D01*
X1479997Y668983D01*
X1477965Y667967D01*
X1478981Y668983D02*
X1479489Y669999D01*
X1478981Y671015D01*
X1479997Y670507D01*
X1481013Y671015D01*
X1480505Y669999D01*
X1481013Y668983D01*
X1479997Y669491D01*
X1478981Y668983D01*
X1477965Y662967D02*
X1478981Y664999D01*
X1477965Y667031D01*
X1479997Y666015D01*
X1482029Y667031D01*
X1481013Y664999D01*
X1482029Y662967D01*
X1479997Y663983D01*
X1477965Y662967D01*
X1478981Y663983D02*
X1479489Y664999D01*
X1478981Y666015D01*
X1479997Y665507D01*
X1481013Y666015D01*
X1480505Y664999D01*
X1481013Y663983D01*
X1479997Y664491D01*
X1478981Y663983D01*
X1477965Y657967D02*
X1478981Y659999D01*
X1477965Y662031D01*
X1479997Y661015D01*
X1482029Y662031D01*
X1481013Y659999D01*
X1482029Y657967D01*
X1479997Y658983D01*
X1477965Y657967D01*
X1478981Y658983D02*
X1479489Y659999D01*
X1478981Y661015D01*
X1479997Y660507D01*
X1481013Y661015D01*
X1480505Y659999D01*
X1481013Y658983D01*
X1479997Y659491D01*
X1478981Y658983D01*
X1477965Y652967D02*
X1478981Y654999D01*
X1477965Y657031D01*
X1479997Y656015D01*
X1482029Y657031D01*
X1481013Y654999D01*
X1482029Y652967D01*
X1479997Y653983D01*
X1477965Y652967D01*
X1478981Y653983D02*
X1479489Y654999D01*
X1478981Y656015D01*
X1479997Y655507D01*
X1481013Y656015D01*
X1480505Y654999D01*
X1481013Y653983D01*
X1479997Y654491D01*
X1478981Y653983D01*
X1477965Y647967D02*
X1478981Y649999D01*
X1477965Y652031D01*
X1479997Y651015D01*
X1482029Y652031D01*
X1481013Y649999D01*
X1482029Y647967D01*
X1479997Y648983D01*
X1477965Y647967D01*
X1478981Y648983D02*
X1479489Y649999D01*
X1478981Y651015D01*
X1479997Y650507D01*
X1481013Y651015D01*
X1480505Y649999D01*
X1481013Y648983D01*
X1479997Y649491D01*
X1478981Y648983D01*
X1472965Y697967D02*
X1473981Y699999D01*
X1472965Y702031D01*
X1474997Y701015D01*
X1477029Y702031D01*
X1476013Y699999D01*
X1477029Y697967D01*
X1474997Y698983D01*
X1472965Y697967D01*
X1473981Y698983D02*
X1474489Y699999D01*
X1473981Y701015D01*
X1474997Y700507D01*
X1476013Y701015D01*
X1475505Y699999D01*
X1476013Y698983D01*
X1474997Y699491D01*
X1473981Y698983D01*
X1472965Y692967D02*
X1473981Y694999D01*
X1472965Y697031D01*
X1474997Y696015D01*
X1477029Y697031D01*
X1476013Y694999D01*
X1477029Y692967D01*
X1474997Y693983D01*
X1472965Y692967D01*
X1473981Y693983D02*
X1474489Y694999D01*
X1473981Y696015D01*
X1474997Y695507D01*
X1476013Y696015D01*
X1475505Y694999D01*
X1476013Y693983D01*
X1474997Y694491D01*
X1473981Y693983D01*
X1472965Y687967D02*
X1473981Y689999D01*
X1472965Y692031D01*
X1474997Y691015D01*
X1477029Y692031D01*
X1476013Y689999D01*
X1477029Y687967D01*
X1474997Y688983D01*
X1472965Y687967D01*
X1473981Y688983D02*
X1474489Y689999D01*
X1473981Y691015D01*
X1474997Y690507D01*
X1476013Y691015D01*
X1475505Y689999D01*
X1476013Y688983D01*
X1474997Y689491D01*
X1473981Y688983D01*
X1472965Y682967D02*
X1473981Y684999D01*
X1472965Y687031D01*
X1474997Y686015D01*
X1477029Y687031D01*
X1476013Y684999D01*
X1477029Y682967D01*
X1474997Y683983D01*
X1472965Y682967D01*
X1473981Y683983D02*
X1474489Y684999D01*
X1473981Y686015D01*
X1474997Y685507D01*
X1476013Y686015D01*
X1475505Y684999D01*
X1476013Y683983D01*
X1474997Y684491D01*
X1473981Y683983D01*
X1472965Y677967D02*
X1473981Y679999D01*
X1472965Y682031D01*
X1474997Y681015D01*
X1477029Y682031D01*
X1476013Y679999D01*
X1477029Y677967D01*
X1474997Y678983D01*
X1472965Y677967D01*
X1473981Y678983D02*
X1474489Y679999D01*
X1473981Y681015D01*
X1474997Y680507D01*
X1476013Y681015D01*
X1475505Y679999D01*
X1476013Y678983D01*
X1474997Y679491D01*
X1473981Y678983D01*
X1472965Y672967D02*
X1473981Y674999D01*
X1472965Y677031D01*
X1474997Y676015D01*
X1477029Y677031D01*
X1476013Y674999D01*
X1477029Y672967D01*
X1474997Y673983D01*
X1472965Y672967D01*
X1473981Y673983D02*
X1474489Y674999D01*
X1473981Y676015D01*
X1474997Y675507D01*
X1476013Y676015D01*
X1475505Y674999D01*
X1476013Y673983D01*
X1474997Y674491D01*
X1473981Y673983D01*
X1472965Y667967D02*
X1473981Y669999D01*
X1472965Y672031D01*
X1474997Y671015D01*
X1477029Y672031D01*
X1476013Y669999D01*
X1477029Y667967D01*
X1474997Y668983D01*
X1472965Y667967D01*
X1473981Y668983D02*
X1474489Y669999D01*
X1473981Y671015D01*
X1474997Y670507D01*
X1476013Y671015D01*
X1475505Y669999D01*
X1476013Y668983D01*
X1474997Y669491D01*
X1473981Y668983D01*
X1472965Y662967D02*
X1473981Y664999D01*
X1472965Y667031D01*
X1474997Y666015D01*
X1477029Y667031D01*
X1476013Y664999D01*
X1477029Y662967D01*
X1474997Y663983D01*
X1472965Y662967D01*
X1473981Y663983D02*
X1474489Y664999D01*
X1473981Y666015D01*
X1474997Y665507D01*
X1476013Y666015D01*
X1475505Y664999D01*
X1476013Y663983D01*
X1474997Y664491D01*
X1473981Y663983D01*
X1472965Y657967D02*
X1473981Y659999D01*
X1472965Y662031D01*
X1474997Y661015D01*
X1477029Y662031D01*
X1476013Y659999D01*
X1477029Y657967D01*
X1474997Y658983D01*
X1472965Y657967D01*
X1473981Y658983D02*
X1474489Y659999D01*
X1473981Y661015D01*
X1474997Y660507D01*
X1476013Y661015D01*
X1475505Y659999D01*
X1476013Y658983D01*
X1474997Y659491D01*
X1473981Y658983D01*
X1472965Y652967D02*
X1473981Y654999D01*
X1472965Y657031D01*
X1474997Y656015D01*
X1477029Y657031D01*
X1476013Y654999D01*
X1477029Y652967D01*
X1474997Y653983D01*
X1472965Y652967D01*
X1473981Y653983D02*
X1474489Y654999D01*
X1473981Y656015D01*
X1474997Y655507D01*
X1476013Y656015D01*
X1475505Y654999D01*
X1476013Y653983D01*
X1474997Y654491D01*
X1473981Y653983D01*
X1472965Y647967D02*
X1473981Y649999D01*
X1472965Y652031D01*
X1474997Y651015D01*
X1477029Y652031D01*
X1476013Y649999D01*
X1477029Y647967D01*
X1474997Y648983D01*
X1472965Y647967D01*
X1473981Y648983D02*
X1474489Y649999D01*
X1473981Y651015D01*
X1474997Y650507D01*
X1476013Y651015D01*
X1475505Y649999D01*
X1476013Y648983D01*
X1474997Y649491D01*
X1473981Y648983D01*
X1467965Y697967D02*
X1468981Y699999D01*
X1467965Y702031D01*
X1469997Y701015D01*
X1472029Y702031D01*
X1471013Y699999D01*
X1472029Y697967D01*
X1469997Y698983D01*
X1467965Y697967D01*
X1468981Y698983D02*
X1469489Y699999D01*
X1468981Y701015D01*
X1469997Y700507D01*
X1471013Y701015D01*
X1470505Y699999D01*
X1471013Y698983D01*
X1469997Y699491D01*
X1468981Y698983D01*
X1467965Y692967D02*
X1468981Y694999D01*
X1467965Y697031D01*
X1469997Y696015D01*
X1472029Y697031D01*
X1471013Y694999D01*
X1472029Y692967D01*
X1469997Y693983D01*
X1467965Y692967D01*
X1468981Y693983D02*
X1469489Y694999D01*
X1468981Y696015D01*
X1469997Y695507D01*
X1471013Y696015D01*
X1470505Y694999D01*
X1471013Y693983D01*
X1469997Y694491D01*
X1468981Y693983D01*
X1467965Y687967D02*
X1468981Y689999D01*
X1467965Y692031D01*
X1469997Y691015D01*
X1472029Y692031D01*
X1471013Y689999D01*
X1472029Y687967D01*
X1469997Y688983D01*
X1467965Y687967D01*
X1468981Y688983D02*
X1469489Y689999D01*
X1468981Y691015D01*
X1469997Y690507D01*
X1471013Y691015D01*
X1470505Y689999D01*
X1471013Y688983D01*
X1469997Y689491D01*
X1468981Y688983D01*
X1467965Y682967D02*
X1468981Y684999D01*
X1467965Y687031D01*
X1469997Y686015D01*
X1472029Y687031D01*
X1471013Y684999D01*
X1472029Y682967D01*
X1469997Y683983D01*
X1467965Y682967D01*
X1468981Y683983D02*
X1469489Y684999D01*
X1468981Y686015D01*
X1469997Y685507D01*
X1471013Y686015D01*
X1470505Y684999D01*
X1471013Y683983D01*
X1469997Y684491D01*
X1468981Y683983D01*
X1467965Y677967D02*
X1468981Y679999D01*
X1467965Y682031D01*
X1469997Y681015D01*
X1472029Y682031D01*
X1471013Y679999D01*
X1472029Y677967D01*
X1469997Y678983D01*
X1467965Y677967D01*
X1468981Y678983D02*
X1469489Y679999D01*
X1468981Y681015D01*
X1469997Y680507D01*
X1471013Y681015D01*
X1470505Y679999D01*
X1471013Y678983D01*
X1469997Y679491D01*
X1468981Y678983D01*
X1467965Y672967D02*
X1468981Y674999D01*
X1467965Y677031D01*
X1469997Y676015D01*
X1472029Y677031D01*
X1471013Y674999D01*
X1472029Y672967D01*
X1469997Y673983D01*
X1467965Y672967D01*
X1468981Y673983D02*
X1469489Y674999D01*
X1468981Y676015D01*
X1469997Y675507D01*
X1471013Y676015D01*
X1470505Y674999D01*
X1471013Y673983D01*
X1469997Y674491D01*
X1468981Y673983D01*
X1467965Y667967D02*
X1468981Y669999D01*
X1467965Y672031D01*
X1469997Y671015D01*
X1472029Y672031D01*
X1471013Y669999D01*
X1472029Y667967D01*
X1469997Y668983D01*
X1467965Y667967D01*
X1468981Y668983D02*
X1469489Y669999D01*
X1468981Y671015D01*
X1469997Y670507D01*
X1471013Y671015D01*
X1470505Y669999D01*
X1471013Y668983D01*
X1469997Y669491D01*
X1468981Y668983D01*
X1467965Y662967D02*
X1468981Y664999D01*
X1467965Y667031D01*
X1469997Y666015D01*
X1472029Y667031D01*
X1471013Y664999D01*
X1472029Y662967D01*
X1469997Y663983D01*
X1467965Y662967D01*
X1468981Y663983D02*
X1469489Y664999D01*
X1468981Y666015D01*
X1469997Y665507D01*
X1471013Y666015D01*
X1470505Y664999D01*
X1471013Y663983D01*
X1469997Y664491D01*
X1468981Y663983D01*
X1467965Y657967D02*
X1468981Y659999D01*
X1467965Y662031D01*
X1469997Y661015D01*
X1472029Y662031D01*
X1471013Y659999D01*
X1472029Y657967D01*
X1469997Y658983D01*
X1467965Y657967D01*
X1468981Y658983D02*
X1469489Y659999D01*
X1468981Y661015D01*
X1469997Y660507D01*
X1471013Y661015D01*
X1470505Y659999D01*
X1471013Y658983D01*
X1469997Y659491D01*
X1468981Y658983D01*
X1467965Y652967D02*
X1468981Y654999D01*
X1467965Y657031D01*
X1469997Y656015D01*
X1472029Y657031D01*
X1471013Y654999D01*
X1472029Y652967D01*
X1469997Y653983D01*
X1467965Y652967D01*
X1468981Y653983D02*
X1469489Y654999D01*
X1468981Y656015D01*
X1469997Y655507D01*
X1471013Y656015D01*
X1470505Y654999D01*
X1471013Y653983D01*
X1469997Y654491D01*
X1468981Y653983D01*
X1467965Y647967D02*
X1468981Y649999D01*
X1467965Y652031D01*
X1469997Y651015D01*
X1472029Y652031D01*
X1471013Y649999D01*
X1472029Y647967D01*
X1469997Y648983D01*
X1467965Y647967D01*
X1468981Y648983D02*
X1469489Y649999D01*
X1468981Y651015D01*
X1469997Y650507D01*
X1471013Y651015D01*
X1470505Y649999D01*
X1471013Y648983D01*
X1469997Y649491D01*
X1468981Y648983D01*
X1462965Y697967D02*
X1463981Y699999D01*
X1462965Y702031D01*
X1464997Y701015D01*
X1467029Y702031D01*
X1466013Y699999D01*
X1467029Y697967D01*
X1464997Y698983D01*
X1462965Y697967D01*
X1463981Y698983D02*
X1464489Y699999D01*
X1463981Y701015D01*
X1464997Y700507D01*
X1466013Y701015D01*
X1465505Y699999D01*
X1466013Y698983D01*
X1464997Y699491D01*
X1463981Y698983D01*
X1462965Y692967D02*
X1463981Y694999D01*
X1462965Y697031D01*
X1464997Y696015D01*
X1467029Y697031D01*
X1466013Y694999D01*
X1467029Y692967D01*
X1464997Y693983D01*
X1462965Y692967D01*
X1463981Y693983D02*
X1464489Y694999D01*
X1463981Y696015D01*
X1464997Y695507D01*
X1466013Y696015D01*
X1465505Y694999D01*
X1466013Y693983D01*
X1464997Y694491D01*
X1463981Y693983D01*
X1462965Y687967D02*
X1463981Y689999D01*
X1462965Y692031D01*
X1464997Y691015D01*
X1467029Y692031D01*
X1466013Y689999D01*
X1467029Y687967D01*
X1464997Y688983D01*
X1462965Y687967D01*
X1463981Y688983D02*
X1464489Y689999D01*
X1463981Y691015D01*
X1464997Y690507D01*
X1466013Y691015D01*
X1465505Y689999D01*
X1466013Y688983D01*
X1464997Y689491D01*
X1463981Y688983D01*
X1462965Y682967D02*
X1463981Y684999D01*
X1462965Y687031D01*
X1464997Y686015D01*
X1467029Y687031D01*
X1466013Y684999D01*
X1467029Y682967D01*
X1464997Y683983D01*
X1462965Y682967D01*
X1463981Y683983D02*
X1464489Y684999D01*
X1463981Y686015D01*
X1464997Y685507D01*
X1466013Y686015D01*
X1465505Y684999D01*
X1466013Y683983D01*
X1464997Y684491D01*
X1463981Y683983D01*
X1462965Y677967D02*
X1463981Y679999D01*
X1462965Y682031D01*
X1464997Y681015D01*
X1467029Y682031D01*
X1466013Y679999D01*
X1467029Y677967D01*
X1464997Y678983D01*
X1462965Y677967D01*
X1463981Y678983D02*
X1464489Y679999D01*
X1463981Y681015D01*
X1464997Y680507D01*
X1466013Y681015D01*
X1465505Y679999D01*
X1466013Y678983D01*
X1464997Y679491D01*
X1463981Y678983D01*
X1462965Y672967D02*
X1463981Y674999D01*
X1462965Y677031D01*
X1464997Y676015D01*
X1467029Y677031D01*
X1466013Y674999D01*
X1467029Y672967D01*
X1464997Y673983D01*
X1462965Y672967D01*
X1463981Y673983D02*
X1464489Y674999D01*
X1463981Y676015D01*
X1464997Y675507D01*
X1466013Y676015D01*
X1465505Y674999D01*
X1466013Y673983D01*
X1464997Y674491D01*
X1463981Y673983D01*
X1462965Y667967D02*
X1463981Y669999D01*
X1462965Y672031D01*
X1464997Y671015D01*
X1467029Y672031D01*
X1466013Y669999D01*
X1467029Y667967D01*
X1464997Y668983D01*
X1462965Y667967D01*
X1463981Y668983D02*
X1464489Y669999D01*
X1463981Y671015D01*
X1464997Y670507D01*
X1466013Y671015D01*
X1465505Y669999D01*
X1466013Y668983D01*
X1464997Y669491D01*
X1463981Y668983D01*
X1462965Y662967D02*
X1463981Y664999D01*
X1462965Y667031D01*
X1464997Y666015D01*
X1467029Y667031D01*
X1466013Y664999D01*
X1467029Y662967D01*
X1464997Y663983D01*
X1462965Y662967D01*
X1463981Y663983D02*
X1464489Y664999D01*
X1463981Y666015D01*
X1464997Y665507D01*
X1466013Y666015D01*
X1465505Y664999D01*
X1466013Y663983D01*
X1464997Y664491D01*
X1463981Y663983D01*
X1462965Y657967D02*
X1463981Y659999D01*
X1462965Y662031D01*
X1464997Y661015D01*
X1467029Y662031D01*
X1466013Y659999D01*
X1467029Y657967D01*
X1464997Y658983D01*
X1462965Y657967D01*
X1463981Y658983D02*
X1464489Y659999D01*
X1463981Y661015D01*
X1464997Y660507D01*
X1466013Y661015D01*
X1465505Y659999D01*
X1466013Y658983D01*
X1464997Y659491D01*
X1463981Y658983D01*
X1462965Y652967D02*
X1463981Y654999D01*
X1462965Y657031D01*
X1464997Y656015D01*
X1467029Y657031D01*
X1466013Y654999D01*
X1467029Y652967D01*
X1464997Y653983D01*
X1462965Y652967D01*
X1463981Y653983D02*
X1464489Y654999D01*
X1463981Y656015D01*
X1464997Y655507D01*
X1466013Y656015D01*
X1465505Y654999D01*
X1466013Y653983D01*
X1464997Y654491D01*
X1463981Y653983D01*
X1462965Y647967D02*
X1463981Y649999D01*
X1462965Y652031D01*
X1464997Y651015D01*
X1467029Y652031D01*
X1466013Y649999D01*
X1467029Y647967D01*
X1464997Y648983D01*
X1462965Y647967D01*
X1463981Y648983D02*
X1464489Y649999D01*
X1463981Y651015D01*
X1464997Y650507D01*
X1466013Y651015D01*
X1465505Y649999D01*
X1466013Y648983D01*
X1464997Y649491D01*
X1463981Y648983D01*
X1457965Y697967D02*
X1458981Y699999D01*
X1457965Y702031D01*
X1459997Y701015D01*
X1462029Y702031D01*
X1461013Y699999D01*
X1462029Y697967D01*
X1459997Y698983D01*
X1457965Y697967D01*
X1458981Y698983D02*
X1459489Y699999D01*
X1458981Y701015D01*
X1459997Y700507D01*
X1461013Y701015D01*
X1460505Y699999D01*
X1461013Y698983D01*
X1459997Y699491D01*
X1458981Y698983D01*
X1457965Y692967D02*
X1458981Y694999D01*
X1457965Y697031D01*
X1459997Y696015D01*
X1462029Y697031D01*
X1461013Y694999D01*
X1462029Y692967D01*
X1459997Y693983D01*
X1457965Y692967D01*
X1458981Y693983D02*
X1459489Y694999D01*
X1458981Y696015D01*
X1459997Y695507D01*
X1461013Y696015D01*
X1460505Y694999D01*
X1461013Y693983D01*
X1459997Y694491D01*
X1458981Y693983D01*
X1457965Y687967D02*
X1458981Y689999D01*
X1457965Y692031D01*
X1459997Y691015D01*
X1462029Y692031D01*
X1461013Y689999D01*
X1462029Y687967D01*
X1459997Y688983D01*
X1457965Y687967D01*
X1458981Y688983D02*
X1459489Y689999D01*
X1458981Y691015D01*
X1459997Y690507D01*
X1461013Y691015D01*
X1460505Y689999D01*
X1461013Y688983D01*
X1459997Y689491D01*
X1458981Y688983D01*
X1457965Y682967D02*
X1458981Y684999D01*
X1457965Y687031D01*
X1459997Y686015D01*
X1462029Y687031D01*
X1461013Y684999D01*
X1462029Y682967D01*
X1459997Y683983D01*
X1457965Y682967D01*
X1458981Y683983D02*
X1459489Y684999D01*
X1458981Y686015D01*
X1459997Y685507D01*
X1461013Y686015D01*
X1460505Y684999D01*
X1461013Y683983D01*
X1459997Y684491D01*
X1458981Y683983D01*
X1457965Y677967D02*
X1458981Y679999D01*
X1457965Y682031D01*
X1459997Y681015D01*
X1462029Y682031D01*
X1461013Y679999D01*
X1462029Y677967D01*
X1459997Y678983D01*
X1457965Y677967D01*
X1458981Y678983D02*
X1459489Y679999D01*
X1458981Y681015D01*
X1459997Y680507D01*
X1461013Y681015D01*
X1460505Y679999D01*
X1461013Y678983D01*
X1459997Y679491D01*
X1458981Y678983D01*
X1457965Y672967D02*
X1458981Y674999D01*
X1457965Y677031D01*
X1459997Y676015D01*
X1462029Y677031D01*
X1461013Y674999D01*
X1462029Y672967D01*
X1459997Y673983D01*
X1457965Y672967D01*
X1458981Y673983D02*
X1459489Y674999D01*
X1458981Y676015D01*
X1459997Y675507D01*
X1461013Y676015D01*
X1460505Y674999D01*
X1461013Y673983D01*
X1459997Y674491D01*
X1458981Y673983D01*
X1452965Y697967D02*
X1453981Y699999D01*
X1452965Y702031D01*
X1454997Y701015D01*
X1457029Y702031D01*
X1456013Y699999D01*
X1457029Y697967D01*
X1454997Y698983D01*
X1452965Y697967D01*
X1453981Y698983D02*
X1454489Y699999D01*
X1453981Y701015D01*
X1454997Y700507D01*
X1456013Y701015D01*
X1455505Y699999D01*
X1456013Y698983D01*
X1454997Y699491D01*
X1453981Y698983D01*
X1452965Y692967D02*
X1453981Y694999D01*
X1452965Y697031D01*
X1454997Y696015D01*
X1457029Y697031D01*
X1456013Y694999D01*
X1457029Y692967D01*
X1454997Y693983D01*
X1452965Y692967D01*
X1453981Y693983D02*
X1454489Y694999D01*
X1453981Y696015D01*
X1454997Y695507D01*
X1456013Y696015D01*
X1455505Y694999D01*
X1456013Y693983D01*
X1454997Y694491D01*
X1453981Y693983D01*
X1452965Y687967D02*
X1453981Y689999D01*
X1452965Y692031D01*
X1454997Y691015D01*
X1457029Y692031D01*
X1456013Y689999D01*
X1457029Y687967D01*
X1454997Y688983D01*
X1452965Y687967D01*
X1453981Y688983D02*
X1454489Y689999D01*
X1453981Y691015D01*
X1454997Y690507D01*
X1456013Y691015D01*
X1455505Y689999D01*
X1456013Y688983D01*
X1454997Y689491D01*
X1453981Y688983D01*
X1452965Y682967D02*
X1453981Y684999D01*
X1452965Y687031D01*
X1454997Y686015D01*
X1457029Y687031D01*
X1456013Y684999D01*
X1457029Y682967D01*
X1454997Y683983D01*
X1452965Y682967D01*
X1453981Y683983D02*
X1454489Y684999D01*
X1453981Y686015D01*
X1454997Y685507D01*
X1456013Y686015D01*
X1455505Y684999D01*
X1456013Y683983D01*
X1454997Y684491D01*
X1453981Y683983D01*
X1452965Y677967D02*
X1453981Y679999D01*
X1452965Y682031D01*
X1454997Y681015D01*
X1457029Y682031D01*
X1456013Y679999D01*
X1457029Y677967D01*
X1454997Y678983D01*
X1452965Y677967D01*
X1453981Y678983D02*
X1454489Y679999D01*
X1453981Y681015D01*
X1454997Y680507D01*
X1456013Y681015D01*
X1455505Y679999D01*
X1456013Y678983D01*
X1454997Y679491D01*
X1453981Y678983D01*
X1447965Y697967D02*
X1448981Y699999D01*
X1447965Y702031D01*
X1449997Y701015D01*
X1452029Y702031D01*
X1451013Y699999D01*
X1452029Y697967D01*
X1449997Y698983D01*
X1447965Y697967D01*
X1448981Y698983D02*
X1449489Y699999D01*
X1448981Y701015D01*
X1449997Y700507D01*
X1451013Y701015D01*
X1450505Y699999D01*
X1451013Y698983D01*
X1449997Y699491D01*
X1448981Y698983D01*
X1447965Y692967D02*
X1448981Y694999D01*
X1447965Y697031D01*
X1449997Y696015D01*
X1452029Y697031D01*
X1451013Y694999D01*
X1452029Y692967D01*
X1449997Y693983D01*
X1447965Y692967D01*
X1448981Y693983D02*
X1449489Y694999D01*
X1448981Y696015D01*
X1449997Y695507D01*
X1451013Y696015D01*
X1450505Y694999D01*
X1451013Y693983D01*
X1449997Y694491D01*
X1448981Y693983D01*
X1447965Y687967D02*
X1448981Y689999D01*
X1447965Y692031D01*
X1449997Y691015D01*
X1452029Y692031D01*
X1451013Y689999D01*
X1452029Y687967D01*
X1449997Y688983D01*
X1447965Y687967D01*
X1448981Y688983D02*
X1449489Y689999D01*
X1448981Y691015D01*
X1449997Y690507D01*
X1451013Y691015D01*
X1450505Y689999D01*
X1451013Y688983D01*
X1449997Y689491D01*
X1448981Y688983D01*
X1447965Y682967D02*
X1448981Y684999D01*
X1447965Y687031D01*
X1449997Y686015D01*
X1452029Y687031D01*
X1451013Y684999D01*
X1452029Y682967D01*
X1449997Y683983D01*
X1447965Y682967D01*
X1448981Y683983D02*
X1449489Y684999D01*
X1448981Y686015D01*
X1449997Y685507D01*
X1451013Y686015D01*
X1450505Y684999D01*
X1451013Y683983D01*
X1449997Y684491D01*
X1448981Y683983D01*
X1447965Y667967D02*
X1448981Y669999D01*
X1447965Y672031D01*
X1449997Y671015D01*
X1452029Y672031D01*
X1451013Y669999D01*
X1452029Y667967D01*
X1449997Y668983D01*
X1447965Y667967D01*
X1448981Y668983D02*
X1449489Y669999D01*
X1448981Y671015D01*
X1449997Y670507D01*
X1451013Y671015D01*
X1450505Y669999D01*
X1451013Y668983D01*
X1449997Y669491D01*
X1448981Y668983D01*
X1447965Y662967D02*
X1448981Y664999D01*
X1447965Y667031D01*
X1449997Y666015D01*
X1452029Y667031D01*
X1451013Y664999D01*
X1452029Y662967D01*
X1449997Y663983D01*
X1447965Y662967D01*
X1448981Y663983D02*
X1449489Y664999D01*
X1448981Y666015D01*
X1449997Y665507D01*
X1451013Y666015D01*
X1450505Y664999D01*
X1451013Y663983D01*
X1449997Y664491D01*
X1448981Y663983D01*
X1447965Y657967D02*
X1448981Y659999D01*
X1447965Y662031D01*
X1449997Y661015D01*
X1452029Y662031D01*
X1451013Y659999D01*
X1452029Y657967D01*
X1449997Y658983D01*
X1447965Y657967D01*
X1448981Y658983D02*
X1449489Y659999D01*
X1448981Y661015D01*
X1449997Y660507D01*
X1451013Y661015D01*
X1450505Y659999D01*
X1451013Y658983D01*
X1449997Y659491D01*
X1448981Y658983D01*
X1447965Y652967D02*
X1448981Y654999D01*
X1447965Y657031D01*
X1449997Y656015D01*
X1452029Y657031D01*
X1451013Y654999D01*
X1452029Y652967D01*
X1449997Y653983D01*
X1447965Y652967D01*
X1448981Y653983D02*
X1449489Y654999D01*
X1448981Y656015D01*
X1449997Y655507D01*
X1451013Y656015D01*
X1450505Y654999D01*
X1451013Y653983D01*
X1449997Y654491D01*
X1448981Y653983D01*
X1447965Y647967D02*
X1448981Y649999D01*
X1447965Y652031D01*
X1449997Y651015D01*
X1452029Y652031D01*
X1451013Y649999D01*
X1452029Y647967D01*
X1449997Y648983D01*
X1447965Y647967D01*
X1448981Y648983D02*
X1449489Y649999D01*
X1448981Y651015D01*
X1449997Y650507D01*
X1451013Y651015D01*
X1450505Y649999D01*
X1451013Y648983D01*
X1449997Y649491D01*
X1448981Y648983D01*
X1442965Y697967D02*
X1443981Y699999D01*
X1442965Y702031D01*
X1444997Y701015D01*
X1447029Y702031D01*
X1446013Y699999D01*
X1447029Y697967D01*
X1444997Y698983D01*
X1442965Y697967D01*
X1443981Y698983D02*
X1444489Y699999D01*
X1443981Y701015D01*
X1444997Y700507D01*
X1446013Y701015D01*
X1445505Y699999D01*
X1446013Y698983D01*
X1444997Y699491D01*
X1443981Y698983D01*
X1442965Y692967D02*
X1443981Y694999D01*
X1442965Y697031D01*
X1444997Y696015D01*
X1447029Y697031D01*
X1446013Y694999D01*
X1447029Y692967D01*
X1444997Y693983D01*
X1442965Y692967D01*
X1443981Y693983D02*
X1444489Y694999D01*
X1443981Y696015D01*
X1444997Y695507D01*
X1446013Y696015D01*
X1445505Y694999D01*
X1446013Y693983D01*
X1444997Y694491D01*
X1443981Y693983D01*
X1442965Y687967D02*
X1443981Y689999D01*
X1442965Y692031D01*
X1444997Y691015D01*
X1447029Y692031D01*
X1446013Y689999D01*
X1447029Y687967D01*
X1444997Y688983D01*
X1442965Y687967D01*
X1443981Y688983D02*
X1444489Y689999D01*
X1443981Y691015D01*
X1444997Y690507D01*
X1446013Y691015D01*
X1445505Y689999D01*
X1446013Y688983D01*
X1444997Y689491D01*
X1443981Y688983D01*
X1442965Y682967D02*
X1443981Y684999D01*
X1442965Y687031D01*
X1444997Y686015D01*
X1447029Y687031D01*
X1446013Y684999D01*
X1447029Y682967D01*
X1444997Y683983D01*
X1442965Y682967D01*
X1443981Y683983D02*
X1444489Y684999D01*
X1443981Y686015D01*
X1444997Y685507D01*
X1446013Y686015D01*
X1445505Y684999D01*
X1446013Y683983D01*
X1444997Y684491D01*
X1443981Y683983D01*
X1442965Y667967D02*
X1443981Y669999D01*
X1442965Y672031D01*
X1444997Y671015D01*
X1447029Y672031D01*
X1446013Y669999D01*
X1447029Y667967D01*
X1444997Y668983D01*
X1442965Y667967D01*
X1443981Y668983D02*
X1444489Y669999D01*
X1443981Y671015D01*
X1444997Y670507D01*
X1446013Y671015D01*
X1445505Y669999D01*
X1446013Y668983D01*
X1444997Y669491D01*
X1443981Y668983D01*
X1442965Y662967D02*
X1443981Y664999D01*
X1442965Y667031D01*
X1444997Y666015D01*
X1447029Y667031D01*
X1446013Y664999D01*
X1447029Y662967D01*
X1444997Y663983D01*
X1442965Y662967D01*
X1443981Y663983D02*
X1444489Y664999D01*
X1443981Y666015D01*
X1444997Y665507D01*
X1446013Y666015D01*
X1445505Y664999D01*
X1446013Y663983D01*
X1444997Y664491D01*
X1443981Y663983D01*
X1442965Y657967D02*
X1443981Y659999D01*
X1442965Y662031D01*
X1444997Y661015D01*
X1447029Y662031D01*
X1446013Y659999D01*
X1447029Y657967D01*
X1444997Y658983D01*
X1442965Y657967D01*
X1443981Y658983D02*
X1444489Y659999D01*
X1443981Y661015D01*
X1444997Y660507D01*
X1446013Y661015D01*
X1445505Y659999D01*
X1446013Y658983D01*
X1444997Y659491D01*
X1443981Y658983D01*
X1437965Y697967D02*
X1438981Y699999D01*
X1437965Y702031D01*
X1439997Y701015D01*
X1442029Y702031D01*
X1441013Y699999D01*
X1442029Y697967D01*
X1439997Y698983D01*
X1437965Y697967D01*
X1438981Y698983D02*
X1439489Y699999D01*
X1438981Y701015D01*
X1439997Y700507D01*
X1441013Y701015D01*
X1440505Y699999D01*
X1441013Y698983D01*
X1439997Y699491D01*
X1438981Y698983D01*
X1437965Y692967D02*
X1438981Y694999D01*
X1437965Y697031D01*
X1439997Y696015D01*
X1442029Y697031D01*
X1441013Y694999D01*
X1442029Y692967D01*
X1439997Y693983D01*
X1437965Y692967D01*
X1438981Y693983D02*
X1439489Y694999D01*
X1438981Y696015D01*
X1439997Y695507D01*
X1441013Y696015D01*
X1440505Y694999D01*
X1441013Y693983D01*
X1439997Y694491D01*
X1438981Y693983D01*
X1437965Y687967D02*
X1438981Y689999D01*
X1437965Y692031D01*
X1439997Y691015D01*
X1442029Y692031D01*
X1441013Y689999D01*
X1442029Y687967D01*
X1439997Y688983D01*
X1437965Y687967D01*
X1438981Y688983D02*
X1439489Y689999D01*
X1438981Y691015D01*
X1439997Y690507D01*
X1441013Y691015D01*
X1440505Y689999D01*
X1441013Y688983D01*
X1439997Y689491D01*
X1438981Y688983D01*
X1437965Y682967D02*
X1438981Y684999D01*
X1437965Y687031D01*
X1439997Y686015D01*
X1442029Y687031D01*
X1441013Y684999D01*
X1442029Y682967D01*
X1439997Y683983D01*
X1437965Y682967D01*
X1438981Y683983D02*
X1439489Y684999D01*
X1438981Y686015D01*
X1439997Y685507D01*
X1441013Y686015D01*
X1440505Y684999D01*
X1441013Y683983D01*
X1439997Y684491D01*
X1438981Y683983D01*
X1437965Y667967D02*
X1438981Y669999D01*
X1437965Y672031D01*
X1439997Y671015D01*
X1442029Y672031D01*
X1441013Y669999D01*
X1442029Y667967D01*
X1439997Y668983D01*
X1437965Y667967D01*
X1438981Y668983D02*
X1439489Y669999D01*
X1438981Y671015D01*
X1439997Y670507D01*
X1441013Y671015D01*
X1440505Y669999D01*
X1441013Y668983D01*
X1439997Y669491D01*
X1438981Y668983D01*
X1437965Y662967D02*
X1438981Y664999D01*
X1437965Y667031D01*
X1439997Y666015D01*
X1442029Y667031D01*
X1441013Y664999D01*
X1442029Y662967D01*
X1439997Y663983D01*
X1437965Y662967D01*
X1438981Y663983D02*
X1439489Y664999D01*
X1438981Y666015D01*
X1439997Y665507D01*
X1441013Y666015D01*
X1440505Y664999D01*
X1441013Y663983D01*
X1439997Y664491D01*
X1438981Y663983D01*
X1437965Y657967D02*
X1438981Y659999D01*
X1437965Y662031D01*
X1439997Y661015D01*
X1442029Y662031D01*
X1441013Y659999D01*
X1442029Y657967D01*
X1439997Y658983D01*
X1437965Y657967D01*
X1438981Y658983D02*
X1439489Y659999D01*
X1438981Y661015D01*
X1439997Y660507D01*
X1441013Y661015D01*
X1440505Y659999D01*
X1441013Y658983D01*
X1439997Y659491D01*
X1438981Y658983D01*
X1432965Y697967D02*
X1433981Y699999D01*
X1432965Y702031D01*
X1434997Y701015D01*
X1437029Y702031D01*
X1436013Y699999D01*
X1437029Y697967D01*
X1434997Y698983D01*
X1432965Y697967D01*
X1433981Y698983D02*
X1434489Y699999D01*
X1433981Y701015D01*
X1434997Y700507D01*
X1436013Y701015D01*
X1435505Y699999D01*
X1436013Y698983D01*
X1434997Y699491D01*
X1433981Y698983D01*
X1432965Y692967D02*
X1433981Y694999D01*
X1432965Y697031D01*
X1434997Y696015D01*
X1437029Y697031D01*
X1436013Y694999D01*
X1437029Y692967D01*
X1434997Y693983D01*
X1432965Y692967D01*
X1433981Y693983D02*
X1434489Y694999D01*
X1433981Y696015D01*
X1434997Y695507D01*
X1436013Y696015D01*
X1435505Y694999D01*
X1436013Y693983D01*
X1434997Y694491D01*
X1433981Y693983D01*
X1432965Y687967D02*
X1433981Y689999D01*
X1432965Y692031D01*
X1434997Y691015D01*
X1437029Y692031D01*
X1436013Y689999D01*
X1437029Y687967D01*
X1434997Y688983D01*
X1432965Y687967D01*
X1433981Y688983D02*
X1434489Y689999D01*
X1433981Y691015D01*
X1434997Y690507D01*
X1436013Y691015D01*
X1435505Y689999D01*
X1436013Y688983D01*
X1434997Y689491D01*
X1433981Y688983D01*
X1432965Y682967D02*
X1433981Y684999D01*
X1432965Y687031D01*
X1434997Y686015D01*
X1437029Y687031D01*
X1436013Y684999D01*
X1437029Y682967D01*
X1434997Y683983D01*
X1432965Y682967D01*
X1433981Y683983D02*
X1434489Y684999D01*
X1433981Y686015D01*
X1434997Y685507D01*
X1436013Y686015D01*
X1435505Y684999D01*
X1436013Y683983D01*
X1434997Y684491D01*
X1433981Y683983D01*
X1432965Y667967D02*
X1433981Y669999D01*
X1432965Y672031D01*
X1434997Y671015D01*
X1437029Y672031D01*
X1436013Y669999D01*
X1437029Y667967D01*
X1434997Y668983D01*
X1432965Y667967D01*
X1433981Y668983D02*
X1434489Y669999D01*
X1433981Y671015D01*
X1434997Y670507D01*
X1436013Y671015D01*
X1435505Y669999D01*
X1436013Y668983D01*
X1434997Y669491D01*
X1433981Y668983D01*
X1432965Y662967D02*
X1433981Y664999D01*
X1432965Y667031D01*
X1434997Y666015D01*
X1437029Y667031D01*
X1436013Y664999D01*
X1437029Y662967D01*
X1434997Y663983D01*
X1432965Y662967D01*
X1433981Y663983D02*
X1434489Y664999D01*
X1433981Y666015D01*
X1434997Y665507D01*
X1436013Y666015D01*
X1435505Y664999D01*
X1436013Y663983D01*
X1434997Y664491D01*
X1433981Y663983D01*
X1432965Y657967D02*
X1433981Y659999D01*
X1432965Y662031D01*
X1434997Y661015D01*
X1437029Y662031D01*
X1436013Y659999D01*
X1437029Y657967D01*
X1434997Y658983D01*
X1432965Y657967D01*
X1433981Y658983D02*
X1434489Y659999D01*
X1433981Y661015D01*
X1434997Y660507D01*
X1436013Y661015D01*
X1435505Y659999D01*
X1436013Y658983D01*
X1434997Y659491D01*
X1433981Y658983D01*
X1427965Y697967D02*
X1428981Y699999D01*
X1427965Y702031D01*
X1429997Y701015D01*
X1432029Y702031D01*
X1431013Y699999D01*
X1432029Y697967D01*
X1429997Y698983D01*
X1427965Y697967D01*
X1428981Y698983D02*
X1429489Y699999D01*
X1428981Y701015D01*
X1429997Y700507D01*
X1431013Y701015D01*
X1430505Y699999D01*
X1431013Y698983D01*
X1429997Y699491D01*
X1428981Y698983D01*
X1427965Y692967D02*
X1428981Y694999D01*
X1427965Y697031D01*
X1429997Y696015D01*
X1432029Y697031D01*
X1431013Y694999D01*
X1432029Y692967D01*
X1429997Y693983D01*
X1427965Y692967D01*
X1428981Y693983D02*
X1429489Y694999D01*
X1428981Y696015D01*
X1429997Y695507D01*
X1431013Y696015D01*
X1430505Y694999D01*
X1431013Y693983D01*
X1429997Y694491D01*
X1428981Y693983D01*
X1427965Y687967D02*
X1428981Y689999D01*
X1427965Y692031D01*
X1429997Y691015D01*
X1432029Y692031D01*
X1431013Y689999D01*
X1432029Y687967D01*
X1429997Y688983D01*
X1427965Y687967D01*
X1428981Y688983D02*
X1429489Y689999D01*
X1428981Y691015D01*
X1429997Y690507D01*
X1431013Y691015D01*
X1430505Y689999D01*
X1431013Y688983D01*
X1429997Y689491D01*
X1428981Y688983D01*
X1427965Y682967D02*
X1428981Y684999D01*
X1427965Y687031D01*
X1429997Y686015D01*
X1432029Y687031D01*
X1431013Y684999D01*
X1432029Y682967D01*
X1429997Y683983D01*
X1427965Y682967D01*
X1428981Y683983D02*
X1429489Y684999D01*
X1428981Y686015D01*
X1429997Y685507D01*
X1431013Y686015D01*
X1430505Y684999D01*
X1431013Y683983D01*
X1429997Y684491D01*
X1428981Y683983D01*
X1427965Y667967D02*
X1428981Y669999D01*
X1427965Y672031D01*
X1429997Y671015D01*
X1432029Y672031D01*
X1431013Y669999D01*
X1432029Y667967D01*
X1429997Y668983D01*
X1427965Y667967D01*
X1428981Y668983D02*
X1429489Y669999D01*
X1428981Y671015D01*
X1429997Y670507D01*
X1431013Y671015D01*
X1430505Y669999D01*
X1431013Y668983D01*
X1429997Y669491D01*
X1428981Y668983D01*
X1427965Y662967D02*
X1428981Y664999D01*
X1427965Y667031D01*
X1429997Y666015D01*
X1432029Y667031D01*
X1431013Y664999D01*
X1432029Y662967D01*
X1429997Y663983D01*
X1427965Y662967D01*
X1428981Y663983D02*
X1429489Y664999D01*
X1428981Y666015D01*
X1429997Y665507D01*
X1431013Y666015D01*
X1430505Y664999D01*
X1431013Y663983D01*
X1429997Y664491D01*
X1428981Y663983D01*
X1427965Y657967D02*
X1428981Y659999D01*
X1427965Y662031D01*
X1429997Y661015D01*
X1432029Y662031D01*
X1431013Y659999D01*
X1432029Y657967D01*
X1429997Y658983D01*
X1427965Y657967D01*
X1428981Y658983D02*
X1429489Y659999D01*
X1428981Y661015D01*
X1429997Y660507D01*
X1431013Y661015D01*
X1430505Y659999D01*
X1431013Y658983D01*
X1429997Y659491D01*
X1428981Y658983D01*
X1684718Y695218D02*
X1685734Y697250D01*
X1684718Y699282D01*
X1686750Y698266D01*
X1688782Y699282D01*
X1687766Y697250D01*
X1688782Y695218D01*
X1686750Y696234D01*
X1684718Y695218D01*
X1685734Y696234D02*
X1686242Y697250D01*
X1685734Y698266D01*
X1686750Y697758D01*
X1687766Y698266D01*
X1687258Y697250D01*
X1687766Y696234D01*
X1686750Y696742D01*
X1685734Y696234D01*
X1576968Y654468D02*
X1577984Y656500D01*
X1576968Y658532D01*
X1579000Y657516D01*
X1581032Y658532D01*
X1580016Y656500D01*
X1581032Y654468D01*
X1579000Y655484D01*
X1576968Y654468D01*
X1577984Y655484D02*
X1578492Y656500D01*
X1577984Y657516D01*
X1579000Y657008D01*
X1580016Y657516D01*
X1579508Y656500D01*
X1580016Y655484D01*
X1579000Y655992D01*
X1577984Y655484D01*
X1742468Y645468D02*
X1743484Y647500D01*
X1742468Y649532D01*
X1744500Y648516D01*
X1746532Y649532D01*
X1745516Y647500D01*
X1746532Y645468D01*
X1744500Y646484D01*
X1742468Y645468D01*
X1743484Y646484D02*
X1743992Y647500D01*
X1743484Y648516D01*
X1744500Y648008D01*
X1745516Y648516D01*
X1745008Y647500D01*
X1745516Y646484D01*
X1744500Y646992D01*
X1743484Y646484D01*
X1733968Y638218D02*
X1734984Y640250D01*
X1733968Y642282D01*
X1736000Y641266D01*
X1738032Y642282D01*
X1737016Y640250D01*
X1738032Y638218D01*
X1736000Y639234D01*
X1733968Y638218D01*
X1734984Y639234D02*
X1735492Y640250D01*
X1734984Y641266D01*
X1736000Y640758D01*
X1737016Y641266D01*
X1736508Y640250D01*
X1737016Y639234D01*
X1736000Y639742D01*
X1734984Y639234D01*
X1578859Y528468D02*
X1579875Y530500D01*
X1578859Y532532D01*
X1580891Y531516D01*
X1582923Y532532D01*
X1581907Y530500D01*
X1582923Y528468D01*
X1580891Y529484D01*
X1578859Y528468D01*
X1579875Y529484D02*
X1580383Y530500D01*
X1579875Y531516D01*
X1580891Y531008D01*
X1581907Y531516D01*
X1581399Y530500D01*
X1581907Y529484D01*
X1580891Y529992D01*
X1579875Y529484D01*
X1588468Y528468D02*
X1589484Y530500D01*
X1588468Y532532D01*
X1590500Y531516D01*
X1592532Y532532D01*
X1591516Y530500D01*
X1592532Y528468D01*
X1590500Y529484D01*
X1588468Y528468D01*
X1589484Y529484D02*
X1589992Y530500D01*
X1589484Y531516D01*
X1590500Y531008D01*
X1591516Y531516D01*
X1591008Y530500D01*
X1591516Y529484D01*
X1590500Y529992D01*
X1589484Y529484D01*
X1599144Y523718D02*
X1600160Y525750D01*
X1599144Y527782D01*
X1601176Y526766D01*
X1603208Y527782D01*
X1602192Y525750D01*
X1603208Y523718D01*
X1601176Y524734D01*
X1599144Y523718D01*
X1600160Y524734D02*
X1600668Y525750D01*
X1600160Y526766D01*
X1601176Y526258D01*
X1602192Y526766D01*
X1601684Y525750D01*
X1602192Y524734D01*
X1601176Y525242D01*
X1600160Y524734D01*
X1743718Y689468D02*
X1744734Y691500D01*
X1743718Y693532D01*
X1745750Y692516D01*
X1747782Y693532D01*
X1746766Y691500D01*
X1747782Y689468D01*
X1745750Y690484D01*
X1743718Y689468D01*
X1744734Y690484D02*
X1745242Y691500D01*
X1744734Y692516D01*
X1745750Y692008D01*
X1746766Y692516D01*
X1746258Y691500D01*
X1746766Y690484D01*
X1745750Y690992D01*
X1744734Y690484D01*
X1717468Y494968D02*
X1718484Y497000D01*
X1717468Y499032D01*
X1719500Y498016D01*
X1721532Y499032D01*
X1720516Y497000D01*
X1721532Y494968D01*
X1719500Y495984D01*
X1717468Y494968D01*
X1718484Y495984D02*
X1718992Y497000D01*
X1718484Y498016D01*
X1719500Y497508D01*
X1720516Y498016D01*
X1720008Y497000D01*
X1720516Y495984D01*
X1719500Y496492D01*
X1718484Y495984D01*
X1479468Y369218D02*
X1480484Y371250D01*
X1479468Y373282D01*
X1481500Y372266D01*
X1483532Y373282D01*
X1482516Y371250D01*
X1483532Y369218D01*
X1481500Y370234D01*
X1479468Y369218D01*
X1480484Y370234D02*
X1480992Y371250D01*
X1480484Y372266D01*
X1481500Y371758D01*
X1482516Y372266D01*
X1482008Y371250D01*
X1482516Y370234D01*
X1481500Y370742D01*
X1480484Y370234D01*
X1363418Y418218D02*
X1364434Y420250D01*
X1363418Y422282D01*
X1365450Y421266D01*
X1367482Y422282D01*
X1366466Y420250D01*
X1367482Y418218D01*
X1365450Y419234D01*
X1363418Y418218D01*
X1364434Y419234D02*
X1364942Y420250D01*
X1364434Y421266D01*
X1365450Y420758D01*
X1366466Y421266D01*
X1365958Y420250D01*
X1366466Y419234D01*
X1365450Y419742D01*
X1364434Y419234D01*
X1319438Y637468D02*
X1320454Y639500D01*
X1319438Y641532D01*
X1321470Y640516D01*
X1323502Y641532D01*
X1322486Y639500D01*
X1323502Y637468D01*
X1321470Y638484D01*
X1319438Y637468D01*
X1320454Y638484D02*
X1320962Y639500D01*
X1320454Y640516D01*
X1321470Y640008D01*
X1322486Y640516D01*
X1321978Y639500D01*
X1322486Y638484D01*
X1321470Y638992D01*
X1320454Y638484D01*
X1399718Y637718D02*
X1400734Y639750D01*
X1399718Y641782D01*
X1401750Y640766D01*
X1403782Y641782D01*
X1402766Y639750D01*
X1403782Y637718D01*
X1401750Y638734D01*
X1399718Y637718D01*
X1400734Y638734D02*
X1401242Y639750D01*
X1400734Y640766D01*
X1401750Y640258D01*
X1402766Y640766D01*
X1402258Y639750D01*
X1402766Y638734D01*
X1401750Y639242D01*
X1400734Y638734D01*
X1696468Y592718D02*
X1697484Y594750D01*
X1696468Y596782D01*
X1698500Y595766D01*
X1700532Y596782D01*
X1699516Y594750D01*
X1700532Y592718D01*
X1698500Y593734D01*
X1696468Y592718D01*
X1697484Y593734D02*
X1697992Y594750D01*
X1697484Y595766D01*
X1698500Y595258D01*
X1699516Y595766D01*
X1699008Y594750D01*
X1699516Y593734D01*
X1698500Y594242D01*
X1697484Y593734D01*
X1682468Y592718D02*
X1683484Y594750D01*
X1682468Y596782D01*
X1684500Y595766D01*
X1686532Y596782D01*
X1685516Y594750D01*
X1686532Y592718D01*
X1684500Y593734D01*
X1682468Y592718D01*
X1683484Y593734D02*
X1683992Y594750D01*
X1683484Y595766D01*
X1684500Y595258D01*
X1685516Y595766D01*
X1685008Y594750D01*
X1685516Y593734D01*
X1684500Y594242D01*
X1683484Y593734D01*
X1668468Y592718D02*
X1669484Y594750D01*
X1668468Y596782D01*
X1670500Y595766D01*
X1672532Y596782D01*
X1671516Y594750D01*
X1672532Y592718D01*
X1670500Y593734D01*
X1668468Y592718D01*
X1669484Y593734D02*
X1669992Y594750D01*
X1669484Y595766D01*
X1670500Y595258D01*
X1671516Y595766D01*
X1671008Y594750D01*
X1671516Y593734D01*
X1670500Y594242D01*
X1669484Y593734D01*
X1654468Y592718D02*
X1655484Y594750D01*
X1654468Y596782D01*
X1656500Y595766D01*
X1658532Y596782D01*
X1657516Y594750D01*
X1658532Y592718D01*
X1656500Y593734D01*
X1654468Y592718D01*
X1655484Y593734D02*
X1655992Y594750D01*
X1655484Y595766D01*
X1656500Y595258D01*
X1657516Y595766D01*
X1657008Y594750D01*
X1657516Y593734D01*
X1656500Y594242D01*
X1655484Y593734D01*
X1640468Y592718D02*
X1641484Y594750D01*
X1640468Y596782D01*
X1642500Y595766D01*
X1644532Y596782D01*
X1643516Y594750D01*
X1644532Y592718D01*
X1642500Y593734D01*
X1640468Y592718D01*
X1641484Y593734D02*
X1641992Y594750D01*
X1641484Y595766D01*
X1642500Y595258D01*
X1643516Y595766D01*
X1643008Y594750D01*
X1643516Y593734D01*
X1642500Y594242D01*
X1641484Y593734D01*
X1626468Y592718D02*
X1627484Y594750D01*
X1626468Y596782D01*
X1628500Y595766D01*
X1630532Y596782D01*
X1629516Y594750D01*
X1630532Y592718D01*
X1628500Y593734D01*
X1626468Y592718D01*
X1627484Y593734D02*
X1627992Y594750D01*
X1627484Y595766D01*
X1628500Y595258D01*
X1629516Y595766D01*
X1629008Y594750D01*
X1629516Y593734D01*
X1628500Y594242D01*
X1627484Y593734D01*
X1565718Y668468D02*
X1566734Y670500D01*
X1565718Y672532D01*
X1567750Y671516D01*
X1569782Y672532D01*
X1568766Y670500D01*
X1569782Y668468D01*
X1567750Y669484D01*
X1565718Y668468D01*
X1566734Y669484D02*
X1567242Y670500D01*
X1566734Y671516D01*
X1567750Y671008D01*
X1568766Y671516D01*
X1568258Y670500D01*
X1568766Y669484D01*
X1567750Y669992D01*
X1566734Y669484D01*
X1566468Y697010D02*
X1567484Y699042D01*
X1566468Y701074D01*
X1568500Y700058D01*
X1570532Y701074D01*
X1569516Y699042D01*
X1570532Y697010D01*
X1568500Y698026D01*
X1566468Y697010D01*
X1567484Y698026D02*
X1567992Y699042D01*
X1567484Y700058D01*
X1568500Y699550D01*
X1569516Y700058D01*
X1569008Y699042D01*
X1569516Y698026D01*
X1568500Y698534D01*
X1567484Y698026D01*
X1550968Y591718D02*
X1551984Y593750D01*
X1550968Y595782D01*
X1553000Y594766D01*
X1555032Y595782D01*
X1554016Y593750D01*
X1555032Y591718D01*
X1553000Y592734D01*
X1550968Y591718D01*
X1551984Y592734D02*
X1552492Y593750D01*
X1551984Y594766D01*
X1553000Y594258D01*
X1554016Y594766D01*
X1553508Y593750D01*
X1554016Y592734D01*
X1553000Y593242D01*
X1551984Y592734D01*
X1565718Y639968D02*
X1566734Y642000D01*
X1565718Y644032D01*
X1567750Y643016D01*
X1569782Y644032D01*
X1568766Y642000D01*
X1569782Y639968D01*
X1567750Y640984D01*
X1565718Y639968D01*
X1566734Y640984D02*
X1567242Y642000D01*
X1566734Y643016D01*
X1567750Y642508D01*
X1568766Y643016D01*
X1568258Y642000D01*
X1568766Y640984D01*
X1567750Y641492D01*
X1566734Y640984D01*
X1461843Y423843D02*
X1462859Y425875D01*
X1461843Y427907D01*
X1463875Y426891D01*
X1465907Y427907D01*
X1464891Y425875D01*
X1465907Y423843D01*
X1463875Y424859D01*
X1461843Y423843D01*
X1462859Y424859D02*
X1463367Y425875D01*
X1462859Y426891D01*
X1463875Y426383D01*
X1464891Y426891D01*
X1464383Y425875D01*
X1464891Y424859D01*
X1463875Y425367D01*
X1462859Y424859D01*
X1616523Y505718D02*
X1617539Y507750D01*
X1616523Y509782D01*
X1618555Y508766D01*
X1620587Y509782D01*
X1619571Y507750D01*
X1620587Y505718D01*
X1618555Y506734D01*
X1616523Y505718D01*
X1617539Y506734D02*
X1618047Y507750D01*
X1617539Y508766D01*
X1618555Y508258D01*
X1619571Y508766D01*
X1619063Y507750D01*
X1619571Y506734D01*
X1618555Y507242D01*
X1617539Y506734D01*
X1636718Y504718D02*
X1637734Y506750D01*
X1636718Y508782D01*
X1638750Y507766D01*
X1640782Y508782D01*
X1639766Y506750D01*
X1640782Y504718D01*
X1638750Y505734D01*
X1636718Y504718D01*
X1637734Y505734D02*
X1638242Y506750D01*
X1637734Y507766D01*
X1638750Y507258D01*
X1639766Y507766D01*
X1639258Y506750D01*
X1639766Y505734D01*
X1638750Y506242D01*
X1637734Y505734D01*
X1706718Y655218D02*
X1707734Y657250D01*
X1706718Y659282D01*
X1708750Y658266D01*
X1710782Y659282D01*
X1709766Y657250D01*
X1710782Y655218D01*
X1708750Y656234D01*
X1706718Y655218D01*
X1707734Y656234D02*
X1708242Y657250D01*
X1707734Y658266D01*
X1708750Y657758D01*
X1709766Y658266D01*
X1709258Y657250D01*
X1709766Y656234D01*
X1708750Y656742D01*
X1707734Y656234D01*
X1441218Y619468D02*
X1442234Y621500D01*
X1441218Y623532D01*
X1443250Y622516D01*
X1445282Y623532D01*
X1444266Y621500D01*
X1445282Y619468D01*
X1443250Y620484D01*
X1441218Y619468D01*
X1442234Y620484D02*
X1442742Y621500D01*
X1442234Y622516D01*
X1443250Y622008D01*
X1444266Y622516D01*
X1443758Y621500D01*
X1444266Y620484D01*
X1443250Y620992D01*
X1442234Y620484D01*
X1445786Y510150D02*
X1446802Y512182D01*
X1445786Y514214D01*
X1447818Y513198D01*
X1449850Y514214D01*
X1448834Y512182D01*
X1449850Y510150D01*
X1447818Y511166D01*
X1445786Y510150D01*
X1446802Y511166D02*
X1447310Y512182D01*
X1446802Y513198D01*
X1447818Y512690D01*
X1448834Y513198D01*
X1448326Y512182D01*
X1448834Y511166D01*
X1447818Y511674D01*
X1446802Y511166D01*
X1634968Y516718D02*
X1635984Y518750D01*
X1634968Y520782D01*
X1637000Y519766D01*
X1639032Y520782D01*
X1638016Y518750D01*
X1639032Y516718D01*
X1637000Y517734D01*
X1634968Y516718D01*
X1635984Y517734D02*
X1636492Y518750D01*
X1635984Y519766D01*
X1637000Y519258D01*
X1638016Y519766D01*
X1637508Y518750D01*
X1638016Y517734D01*
X1637000Y518242D01*
X1635984Y517734D01*
X1648968Y516468D02*
X1649984Y518500D01*
X1648968Y520532D01*
X1651000Y519516D01*
X1653032Y520532D01*
X1652016Y518500D01*
X1653032Y516468D01*
X1651000Y517484D01*
X1648968Y516468D01*
X1649984Y517484D02*
X1650492Y518500D01*
X1649984Y519516D01*
X1651000Y519008D01*
X1652016Y519516D01*
X1651508Y518500D01*
X1652016Y517484D01*
X1651000Y517992D01*
X1649984Y517484D01*
X1472218Y423718D02*
X1473234Y425750D01*
X1472218Y427782D01*
X1474250Y426766D01*
X1476282Y427782D01*
X1475266Y425750D01*
X1476282Y423718D01*
X1474250Y424734D01*
X1472218Y423718D01*
X1473234Y424734D02*
X1473742Y425750D01*
X1473234Y426766D01*
X1474250Y426258D01*
X1475266Y426766D01*
X1474758Y425750D01*
X1475266Y424734D01*
X1474250Y425242D01*
X1473234Y424734D01*
X1556950Y331952D02*
X1557966Y333984D01*
X1556950Y336016D01*
X1558982Y335000D01*
X1561014Y336016D01*
X1559998Y333984D01*
X1561014Y331952D01*
X1558982Y332968D01*
X1556950Y331952D01*
X1557966Y332968D02*
X1558474Y333984D01*
X1557966Y335000D01*
X1558982Y334492D01*
X1559998Y335000D01*
X1559490Y333984D01*
X1559998Y332968D01*
X1558982Y333476D01*
X1557966Y332968D01*
X1453718Y330468D02*
X1454734Y332500D01*
X1453718Y334532D01*
X1455750Y333516D01*
X1457782Y334532D01*
X1456766Y332500D01*
X1457782Y330468D01*
X1455750Y331484D01*
X1453718Y330468D01*
X1454734Y331484D02*
X1455242Y332500D01*
X1454734Y333516D01*
X1455750Y333008D01*
X1456766Y333516D01*
X1456258Y332500D01*
X1456766Y331484D01*
X1455750Y331992D01*
X1454734Y331484D01*
X1574218Y339718D02*
X1575234Y341750D01*
X1574218Y343782D01*
X1576250Y342766D01*
X1578282Y343782D01*
X1577266Y341750D01*
X1578282Y339718D01*
X1576250Y340734D01*
X1574218Y339718D01*
X1575234Y340734D02*
X1575742Y341750D01*
X1575234Y342766D01*
X1576250Y342258D01*
X1577266Y342766D01*
X1576758Y341750D01*
X1577266Y340734D01*
X1576250Y341242D01*
X1575234Y340734D01*
X1625218Y660218D02*
X1626234Y662250D01*
X1625218Y664282D01*
X1627250Y663266D01*
X1629282Y664282D01*
X1628266Y662250D01*
X1629282Y660218D01*
X1627250Y661234D01*
X1625218Y660218D01*
X1626234Y661234D02*
X1626742Y662250D01*
X1626234Y663266D01*
X1627250Y662758D01*
X1628266Y663266D01*
X1627758Y662250D01*
X1628266Y661234D01*
X1627250Y661742D01*
X1626234Y661234D01*
X1491718Y585968D02*
X1492734Y588000D01*
X1491718Y590032D01*
X1493750Y589016D01*
X1495782Y590032D01*
X1494766Y588000D01*
X1495782Y585968D01*
X1493750Y586984D01*
X1491718Y585968D01*
X1492734Y586984D02*
X1493242Y588000D01*
X1492734Y589016D01*
X1493750Y588508D01*
X1494766Y589016D01*
X1494258Y588000D01*
X1494766Y586984D01*
X1493750Y587492D01*
X1492734Y586984D01*
X1351718Y676718D02*
X1352734Y678750D01*
X1351718Y680782D01*
X1353750Y679766D01*
X1355782Y680782D01*
X1354766Y678750D01*
X1355782Y676718D01*
X1353750Y677734D01*
X1351718Y676718D01*
X1352734Y677734D02*
X1353242Y678750D01*
X1352734Y679766D01*
X1353750Y679258D01*
X1354766Y679766D01*
X1354258Y678750D01*
X1354766Y677734D01*
X1353750Y678242D01*
X1352734Y677734D01*
X1486218Y532468D02*
X1487234Y534500D01*
X1486218Y536532D01*
X1488250Y535516D01*
X1490282Y536532D01*
X1489266Y534500D01*
X1490282Y532468D01*
X1488250Y533484D01*
X1486218Y532468D01*
X1487234Y533484D02*
X1487742Y534500D01*
X1487234Y535516D01*
X1488250Y535008D01*
X1489266Y535516D01*
X1488758Y534500D01*
X1489266Y533484D01*
X1488250Y533992D01*
X1487234Y533484D01*
X1403718Y571968D02*
X1404734Y574000D01*
X1403718Y576032D01*
X1405750Y575016D01*
X1407782Y576032D01*
X1406766Y574000D01*
X1407782Y571968D01*
X1405750Y572984D01*
X1403718Y571968D01*
X1404734Y572984D02*
X1405242Y574000D01*
X1404734Y575016D01*
X1405750Y574508D01*
X1406766Y575016D01*
X1406258Y574000D01*
X1406766Y572984D01*
X1405750Y573492D01*
X1404734Y572984D01*
X1386718Y549968D02*
X1387734Y552000D01*
X1386718Y554032D01*
X1388750Y553016D01*
X1390782Y554032D01*
X1389766Y552000D01*
X1390782Y549968D01*
X1388750Y550984D01*
X1386718Y549968D01*
X1387734Y550984D02*
X1388242Y552000D01*
X1387734Y553016D01*
X1388750Y552508D01*
X1389766Y553016D01*
X1389258Y552000D01*
X1389766Y550984D01*
X1388750Y551492D01*
X1387734Y550984D01*
X1377718Y532968D02*
X1378734Y535000D01*
X1377718Y537032D01*
X1379750Y536016D01*
X1381782Y537032D01*
X1380766Y535000D01*
X1381782Y532968D01*
X1379750Y533984D01*
X1377718Y532968D01*
X1378734Y533984D02*
X1379242Y535000D01*
X1378734Y536016D01*
X1379750Y535508D01*
X1380766Y536016D01*
X1380258Y535000D01*
X1380766Y533984D01*
X1379750Y534492D01*
X1378734Y533984D01*
X1377968Y589718D02*
X1378984Y591750D01*
X1377968Y593782D01*
X1380000Y592766D01*
X1382032Y593782D01*
X1381016Y591750D01*
X1382032Y589718D01*
X1380000Y590734D01*
X1377968Y589718D01*
X1378984Y590734D02*
X1379492Y591750D01*
X1378984Y592766D01*
X1380000Y592258D01*
X1381016Y592766D01*
X1380508Y591750D01*
X1381016Y590734D01*
X1380000Y591242D01*
X1378984Y590734D01*
X1515218Y322718D02*
X1516234Y324750D01*
X1515218Y326782D01*
X1517250Y325766D01*
X1519282Y326782D01*
X1518266Y324750D01*
X1519282Y322718D01*
X1517250Y323734D01*
X1515218Y322718D01*
X1516234Y323734D02*
X1516742Y324750D01*
X1516234Y325766D01*
X1517250Y325258D01*
X1518266Y325766D01*
X1517758Y324750D01*
X1518266Y323734D01*
X1517250Y324242D01*
X1516234Y323734D01*
X1507218Y338718D02*
X1508234Y340750D01*
X1507218Y342782D01*
X1509250Y341766D01*
X1511282Y342782D01*
X1510266Y340750D01*
X1511282Y338718D01*
X1509250Y339734D01*
X1507218Y338718D01*
X1508234Y339734D02*
X1508742Y340750D01*
X1508234Y341766D01*
X1509250Y341258D01*
X1510266Y341766D01*
X1509758Y340750D01*
X1510266Y339734D01*
X1509250Y340242D01*
X1508234Y339734D01*
X1642968Y670968D02*
X1643984Y673000D01*
X1642968Y675032D01*
X1645000Y674016D01*
X1647032Y675032D01*
X1646016Y673000D01*
X1647032Y670968D01*
X1645000Y671984D01*
X1642968Y670968D01*
X1643984Y671984D02*
X1644492Y673000D01*
X1643984Y674016D01*
X1645000Y673508D01*
X1646016Y674016D01*
X1645508Y673000D01*
X1646016Y671984D01*
X1645000Y672492D01*
X1643984Y671984D01*
X1632468Y642718D02*
X1633484Y644750D01*
X1632468Y646782D01*
X1634500Y645766D01*
X1636532Y646782D01*
X1635516Y644750D01*
X1636532Y642718D01*
X1634500Y643734D01*
X1632468Y642718D01*
X1633484Y643734D02*
X1633992Y644750D01*
X1633484Y645766D01*
X1634500Y645258D01*
X1635516Y645766D01*
X1635008Y644750D01*
X1635516Y643734D01*
X1634500Y644242D01*
X1633484Y643734D01*
X1706718Y645218D02*
X1707734Y647250D01*
X1706718Y649282D01*
X1708750Y648266D01*
X1710782Y649282D01*
X1709766Y647250D01*
X1710782Y645218D01*
X1708750Y646234D01*
X1706718Y645218D01*
X1707734Y646234D02*
X1708242Y647250D01*
X1707734Y648266D01*
X1708750Y647758D01*
X1709766Y648266D01*
X1709258Y647250D01*
X1709766Y646234D01*
X1708750Y646742D01*
X1707734Y646234D01*
X1622968Y675468D02*
X1623984Y677500D01*
X1622968Y679532D01*
X1625000Y678516D01*
X1627032Y679532D01*
X1626016Y677500D01*
X1627032Y675468D01*
X1625000Y676484D01*
X1622968Y675468D01*
X1623984Y676484D02*
X1624492Y677500D01*
X1623984Y678516D01*
X1625000Y678008D01*
X1626016Y678516D01*
X1625508Y677500D01*
X1626016Y676484D01*
X1625000Y676992D01*
X1623984Y676484D01*
X1491218Y595968D02*
X1492234Y598000D01*
X1491218Y600032D01*
X1493250Y599016D01*
X1495282Y600032D01*
X1494266Y598000D01*
X1495282Y595968D01*
X1493250Y596984D01*
X1491218Y595968D01*
X1492234Y596984D02*
X1492742Y598000D01*
X1492234Y599016D01*
X1493250Y598508D01*
X1494266Y599016D01*
X1493758Y598000D01*
X1494266Y596984D01*
X1493250Y597492D01*
X1492234Y596984D01*
X1561468Y549218D02*
X1562484Y551250D01*
X1561468Y553282D01*
X1563500Y552266D01*
X1565532Y553282D01*
X1564516Y551250D01*
X1565532Y549218D01*
X1563500Y550234D01*
X1561468Y549218D01*
X1562484Y550234D02*
X1562992Y551250D01*
X1562484Y552266D01*
X1563500Y551758D01*
X1564516Y552266D01*
X1564008Y551250D01*
X1564516Y550234D01*
X1563500Y550742D01*
X1562484Y550234D01*
X1707468Y690218D02*
X1708484Y692250D01*
X1707468Y694282D01*
X1709500Y693266D01*
X1711532Y694282D01*
X1710516Y692250D01*
X1711532Y690218D01*
X1709500Y691234D01*
X1707468Y690218D01*
X1708484Y691234D02*
X1708992Y692250D01*
X1708484Y693266D01*
X1709500Y692758D01*
X1710516Y693266D01*
X1710008Y692250D01*
X1710516Y691234D01*
X1709500Y691742D01*
X1708484Y691234D01*
X1621718Y715218D02*
X1622734Y717250D01*
X1621718Y719282D01*
X1623750Y718266D01*
X1625782Y719282D01*
X1624766Y717250D01*
X1625782Y715218D01*
X1623750Y716234D01*
X1621718Y715218D01*
X1622734Y716234D02*
X1623242Y717250D01*
X1622734Y718266D01*
X1623750Y717758D01*
X1624766Y718266D01*
X1624258Y717250D01*
X1624766Y716234D01*
X1623750Y716742D01*
X1622734Y716234D01*
X1601468Y698218D02*
X1602484Y700250D01*
X1601468Y702282D01*
X1603500Y701266D01*
X1605532Y702282D01*
X1604516Y700250D01*
X1605532Y698218D01*
X1603500Y699234D01*
X1601468Y698218D01*
X1602484Y699234D02*
X1602992Y700250D01*
X1602484Y701266D01*
X1603500Y700758D01*
X1604516Y701266D01*
X1604008Y700250D01*
X1604516Y699234D01*
X1603500Y699742D01*
X1602484Y699234D01*
X1601718Y704968D02*
X1602734Y707000D01*
X1601718Y709032D01*
X1603750Y708016D01*
X1605782Y709032D01*
X1604766Y707000D01*
X1605782Y704968D01*
X1603750Y705984D01*
X1601718Y704968D01*
X1602734Y705984D02*
X1603242Y707000D01*
X1602734Y708016D01*
X1603750Y707508D01*
X1604766Y708016D01*
X1604258Y707000D01*
X1604766Y705984D01*
X1603750Y706492D01*
X1602734Y705984D01*
X1441968Y532468D02*
X1442984Y534500D01*
X1441968Y536532D01*
X1444000Y535516D01*
X1446032Y536532D01*
X1445016Y534500D01*
X1446032Y532468D01*
X1444000Y533484D01*
X1441968Y532468D01*
X1442984Y533484D02*
X1443492Y534500D01*
X1442984Y535516D01*
X1444000Y535008D01*
X1445016Y535516D01*
X1444508Y534500D01*
X1445016Y533484D01*
X1444000Y533992D01*
X1442984Y533484D01*
X1451218Y532718D02*
X1452234Y534750D01*
X1451218Y536782D01*
X1453250Y535766D01*
X1455282Y536782D01*
X1454266Y534750D01*
X1455282Y532718D01*
X1453250Y533734D01*
X1451218Y532718D01*
X1452234Y533734D02*
X1452742Y534750D01*
X1452234Y535766D01*
X1453250Y535258D01*
X1454266Y535766D01*
X1453758Y534750D01*
X1454266Y533734D01*
X1453250Y534242D01*
X1452234Y533734D01*
X1456218Y509718D02*
X1457234Y511750D01*
X1456218Y513782D01*
X1458250Y512766D01*
X1460282Y513782D01*
X1459266Y511750D01*
X1460282Y509718D01*
X1458250Y510734D01*
X1456218Y509718D01*
X1457234Y510734D02*
X1457742Y511750D01*
X1457234Y512766D01*
X1458250Y512258D01*
X1459266Y512766D01*
X1458758Y511750D01*
X1459266Y510734D01*
X1458250Y511242D01*
X1457234Y510734D01*
X1707718Y680218D02*
X1708734Y682250D01*
X1707718Y684282D01*
X1709750Y683266D01*
X1711782Y684282D01*
X1710766Y682250D01*
X1711782Y680218D01*
X1709750Y681234D01*
X1707718Y680218D01*
X1708734Y681234D02*
X1709242Y682250D01*
X1708734Y683266D01*
X1709750Y682758D01*
X1710766Y683266D01*
X1710258Y682250D01*
X1710766Y681234D01*
X1709750Y681742D01*
X1708734Y681234D01*
X1684718Y685468D02*
X1685734Y687500D01*
X1684718Y689532D01*
X1686750Y688516D01*
X1688782Y689532D01*
X1687766Y687500D01*
X1688782Y685468D01*
X1686750Y686484D01*
X1684718Y685468D01*
X1685734Y686484D02*
X1686242Y687500D01*
X1685734Y688516D01*
X1686750Y688008D01*
X1687766Y688516D01*
X1687258Y687500D01*
X1687766Y686484D01*
X1686750Y686992D01*
X1685734Y686484D01*
X1455968Y622218D02*
X1456984Y624250D01*
X1455968Y626282D01*
X1458000Y625266D01*
X1460032Y626282D01*
X1459016Y624250D01*
X1460032Y622218D01*
X1458000Y623234D01*
X1455968Y622218D01*
X1456984Y623234D02*
X1457492Y624250D01*
X1456984Y625266D01*
X1458000Y624758D01*
X1459016Y625266D01*
X1458508Y624250D01*
X1459016Y623234D01*
X1458000Y623742D01*
X1456984Y623234D01*
X1652468Y764718D02*
X1653484Y766750D01*
X1652468Y768782D01*
X1654500Y767766D01*
X1656532Y768782D01*
X1655516Y766750D01*
X1656532Y764718D01*
X1654500Y765734D01*
X1652468Y764718D01*
X1653484Y765734D02*
X1653992Y766750D01*
X1653484Y767766D01*
X1654500Y767258D01*
X1655516Y767766D01*
X1655008Y766750D01*
X1655516Y765734D01*
X1654500Y766242D01*
X1653484Y765734D01*
X1680218Y764718D02*
X1681234Y766750D01*
X1680218Y768782D01*
X1682250Y767766D01*
X1684282Y768782D01*
X1683266Y766750D01*
X1684282Y764718D01*
X1682250Y765734D01*
X1680218Y764718D01*
X1681234Y765734D02*
X1681742Y766750D01*
X1681234Y767766D01*
X1682250Y767258D01*
X1683266Y767766D01*
X1682758Y766750D01*
X1683266Y765734D01*
X1682250Y766242D01*
X1681234Y765734D01*
X1693968Y764718D02*
X1694984Y766750D01*
X1693968Y768782D01*
X1696000Y767766D01*
X1698032Y768782D01*
X1697016Y766750D01*
X1698032Y764718D01*
X1696000Y765734D01*
X1693968Y764718D01*
X1694984Y765734D02*
X1695492Y766750D01*
X1694984Y767766D01*
X1696000Y767258D01*
X1697016Y767766D01*
X1696508Y766750D01*
X1697016Y765734D01*
X1696000Y766242D01*
X1694984Y765734D01*
X1408718Y620718D02*
X1409734Y622750D01*
X1408718Y624782D01*
X1410750Y623766D01*
X1412782Y624782D01*
X1411766Y622750D01*
X1412782Y620718D01*
X1410750Y621734D01*
X1408718Y620718D01*
X1409734Y621734D02*
X1410242Y622750D01*
X1409734Y623766D01*
X1410750Y623258D01*
X1411766Y623766D01*
X1411258Y622750D01*
X1411766Y621734D01*
X1410750Y622242D01*
X1409734Y621734D01*
X1351218Y718468D02*
X1352234Y720500D01*
X1351218Y722532D01*
X1353250Y721516D01*
X1355282Y722532D01*
X1354266Y720500D01*
X1355282Y718468D01*
X1353250Y719484D01*
X1351218Y718468D01*
X1352234Y719484D02*
X1352742Y720500D01*
X1352234Y721516D01*
X1353250Y721008D01*
X1354266Y721516D01*
X1353758Y720500D01*
X1354266Y719484D01*
X1353250Y719992D01*
X1352234Y719484D01*
X1330968Y718468D02*
X1331984Y720500D01*
X1330968Y722532D01*
X1333000Y721516D01*
X1335032Y722532D01*
X1334016Y720500D01*
X1335032Y718468D01*
X1333000Y719484D01*
X1330968Y718468D01*
X1331984Y719484D02*
X1332492Y720500D01*
X1331984Y721516D01*
X1333000Y721008D01*
X1334016Y721516D01*
X1333508Y720500D01*
X1334016Y719484D01*
X1333000Y719992D01*
X1331984Y719484D01*
X1336718Y759468D02*
X1337734Y761500D01*
X1336718Y763532D01*
X1338750Y762516D01*
X1340782Y763532D01*
X1339766Y761500D01*
X1340782Y759468D01*
X1338750Y760484D01*
X1336718Y759468D01*
X1337734Y760484D02*
X1338242Y761500D01*
X1337734Y762516D01*
X1338750Y762008D01*
X1339766Y762516D01*
X1339258Y761500D01*
X1339766Y760484D01*
X1338750Y760992D01*
X1337734Y760484D01*
X1490968Y475968D02*
X1491984Y478000D01*
X1490968Y480032D01*
X1493000Y479016D01*
X1495032Y480032D01*
X1494016Y478000D01*
X1495032Y475968D01*
X1493000Y476984D01*
X1490968Y475968D01*
X1491984Y476984D02*
X1492492Y478000D01*
X1491984Y479016D01*
X1493000Y478508D01*
X1494016Y479016D01*
X1493508Y478000D01*
X1494016Y476984D01*
X1493000Y477492D01*
X1491984Y476984D01*
X1501968Y412718D02*
X1502984Y414750D01*
X1501968Y416782D01*
X1504000Y415766D01*
X1506032Y416782D01*
X1505016Y414750D01*
X1506032Y412718D01*
X1504000Y413734D01*
X1501968Y412718D01*
X1502984Y413734D02*
X1503492Y414750D01*
X1502984Y415766D01*
X1504000Y415258D01*
X1505016Y415766D01*
X1504508Y414750D01*
X1505016Y413734D01*
X1504000Y414242D01*
X1502984Y413734D01*
X1510218Y420468D02*
X1511234Y422500D01*
X1510218Y424532D01*
X1512250Y423516D01*
X1514282Y424532D01*
X1513266Y422500D01*
X1514282Y420468D01*
X1512250Y421484D01*
X1510218Y420468D01*
X1511234Y421484D02*
X1511742Y422500D01*
X1511234Y423516D01*
X1512250Y423008D01*
X1513266Y423516D01*
X1512758Y422500D01*
X1513266Y421484D01*
X1512250Y421992D01*
X1511234Y421484D01*
X1502218Y420468D02*
X1503234Y422500D01*
X1502218Y424532D01*
X1504250Y423516D01*
X1506282Y424532D01*
X1505266Y422500D01*
X1506282Y420468D01*
X1504250Y421484D01*
X1502218Y420468D01*
X1503234Y421484D02*
X1503742Y422500D01*
X1503234Y423516D01*
X1504250Y423008D01*
X1505266Y423516D01*
X1504758Y422500D01*
X1505266Y421484D01*
X1504250Y421992D01*
X1503234Y421484D01*
X1494218Y412718D02*
X1495234Y414750D01*
X1494218Y416782D01*
X1496250Y415766D01*
X1498282Y416782D01*
X1497266Y414750D01*
X1498282Y412718D01*
X1496250Y413734D01*
X1494218Y412718D01*
X1495234Y413734D02*
X1495742Y414750D01*
X1495234Y415766D01*
X1496250Y415258D01*
X1497266Y415766D01*
X1496758Y414750D01*
X1497266Y413734D01*
X1496250Y414242D01*
X1495234Y413734D01*
X1517718Y412718D02*
X1518734Y414750D01*
X1517718Y416782D01*
X1519750Y415766D01*
X1521782Y416782D01*
X1520766Y414750D01*
X1521782Y412718D01*
X1519750Y413734D01*
X1517718Y412718D01*
X1518734Y413734D02*
X1519242Y414750D01*
X1518734Y415766D01*
X1519750Y415258D01*
X1520766Y415766D01*
X1520258Y414750D01*
X1520766Y413734D01*
X1519750Y414242D01*
X1518734Y413734D01*
X1509968Y412718D02*
X1510984Y414750D01*
X1509968Y416782D01*
X1512000Y415766D01*
X1514032Y416782D01*
X1513016Y414750D01*
X1514032Y412718D01*
X1512000Y413734D01*
X1509968Y412718D01*
X1510984Y413734D02*
X1511492Y414750D01*
X1510984Y415766D01*
X1512000Y415258D01*
X1513016Y415766D01*
X1512508Y414750D01*
X1513016Y413734D01*
X1512000Y414242D01*
X1510984Y413734D01*
X1494468Y420468D02*
X1495484Y422500D01*
X1494468Y424532D01*
X1496500Y423516D01*
X1498532Y424532D01*
X1497516Y422500D01*
X1498532Y420468D01*
X1496500Y421484D01*
X1494468Y420468D01*
X1495484Y421484D02*
X1495992Y422500D01*
X1495484Y423516D01*
X1496500Y423008D01*
X1497516Y423516D01*
X1497008Y422500D01*
X1497516Y421484D01*
X1496500Y421992D01*
X1495484Y421484D01*
X1517968Y420468D02*
X1518984Y422500D01*
X1517968Y424532D01*
X1520000Y423516D01*
X1522032Y424532D01*
X1521016Y422500D01*
X1522032Y420468D01*
X1520000Y421484D01*
X1517968Y420468D01*
X1518984Y421484D02*
X1519492Y422500D01*
X1518984Y423516D01*
X1520000Y423008D01*
X1521016Y423516D01*
X1520508Y422500D01*
X1521016Y421484D01*
X1520000Y421992D01*
X1518984Y421484D01*
X1494468Y428218D02*
X1495484Y430250D01*
X1494468Y432282D01*
X1496500Y431266D01*
X1498532Y432282D01*
X1497516Y430250D01*
X1498532Y428218D01*
X1496500Y429234D01*
X1494468Y428218D01*
X1495484Y429234D02*
X1495992Y430250D01*
X1495484Y431266D01*
X1496500Y430758D01*
X1497516Y431266D01*
X1497008Y430250D01*
X1497516Y429234D01*
X1496500Y429742D01*
X1495484Y429234D01*
X1517968Y428218D02*
X1518984Y430250D01*
X1517968Y432282D01*
X1520000Y431266D01*
X1522032Y432282D01*
X1521016Y430250D01*
X1522032Y428218D01*
X1520000Y429234D01*
X1517968Y428218D01*
X1518984Y429234D02*
X1519492Y430250D01*
X1518984Y431266D01*
X1520000Y430758D01*
X1521016Y431266D01*
X1520508Y430250D01*
X1521016Y429234D01*
X1520000Y429742D01*
X1518984Y429234D01*
X1502218Y428218D02*
X1503234Y430250D01*
X1502218Y432282D01*
X1504250Y431266D01*
X1506282Y432282D01*
X1505266Y430250D01*
X1506282Y428218D01*
X1504250Y429234D01*
X1502218Y428218D01*
X1503234Y429234D02*
X1503742Y430250D01*
X1503234Y431266D01*
X1504250Y430758D01*
X1505266Y431266D01*
X1504758Y430250D01*
X1505266Y429234D01*
X1504250Y429742D01*
X1503234Y429234D01*
X1510218Y428218D02*
X1511234Y430250D01*
X1510218Y432282D01*
X1512250Y431266D01*
X1514282Y432282D01*
X1513266Y430250D01*
X1514282Y428218D01*
X1512250Y429234D01*
X1510218Y428218D01*
X1511234Y429234D02*
X1511742Y430250D01*
X1511234Y431266D01*
X1512250Y430758D01*
X1513266Y431266D01*
X1512758Y430250D01*
X1513266Y429234D01*
X1512250Y429742D01*
X1511234Y429234D01*
X1510218Y435718D02*
X1511234Y437750D01*
X1510218Y439782D01*
X1512250Y438766D01*
X1514282Y439782D01*
X1513266Y437750D01*
X1514282Y435718D01*
X1512250Y436734D01*
X1510218Y435718D01*
X1511234Y436734D02*
X1511742Y437750D01*
X1511234Y438766D01*
X1512250Y438258D01*
X1513266Y438766D01*
X1512758Y437750D01*
X1513266Y436734D01*
X1512250Y437242D01*
X1511234Y436734D01*
X1502218Y435718D02*
X1503234Y437750D01*
X1502218Y439782D01*
X1504250Y438766D01*
X1506282Y439782D01*
X1505266Y437750D01*
X1506282Y435718D01*
X1504250Y436734D01*
X1502218Y435718D01*
X1503234Y436734D02*
X1503742Y437750D01*
X1503234Y438766D01*
X1504250Y438258D01*
X1505266Y438766D01*
X1504758Y437750D01*
X1505266Y436734D01*
X1504250Y437242D01*
X1503234Y436734D01*
X1517968Y435718D02*
X1518984Y437750D01*
X1517968Y439782D01*
X1520000Y438766D01*
X1522032Y439782D01*
X1521016Y437750D01*
X1522032Y435718D01*
X1520000Y436734D01*
X1517968Y435718D01*
X1518984Y436734D02*
X1519492Y437750D01*
X1518984Y438766D01*
X1520000Y438258D01*
X1521016Y438766D01*
X1520508Y437750D01*
X1521016Y436734D01*
X1520000Y437242D01*
X1518984Y436734D01*
X1494468Y435718D02*
X1495484Y437750D01*
X1494468Y439782D01*
X1496500Y438766D01*
X1498532Y439782D01*
X1497516Y437750D01*
X1498532Y435718D01*
X1496500Y436734D01*
X1494468Y435718D01*
X1495484Y436734D02*
X1495992Y437750D01*
X1495484Y438766D01*
X1496500Y438258D01*
X1497516Y438766D01*
X1497008Y437750D01*
X1497516Y436734D01*
X1496500Y437242D01*
X1495484Y436734D01*
X1500968Y390468D02*
X1501984Y392500D01*
X1500968Y394532D01*
X1503000Y393516D01*
X1505032Y394532D01*
X1504016Y392500D01*
X1505032Y390468D01*
X1503000Y391484D01*
X1500968Y390468D01*
X1501984Y391484D02*
X1502492Y392500D01*
X1501984Y393516D01*
X1503000Y393008D01*
X1504016Y393516D01*
X1503508Y392500D01*
X1504016Y391484D01*
X1503000Y391992D01*
X1501984Y391484D01*
X1561468Y528968D02*
X1562484Y531000D01*
X1561468Y533032D01*
X1563500Y532016D01*
X1565532Y533032D01*
X1564516Y531000D01*
X1565532Y528968D01*
X1563500Y529984D01*
X1561468Y528968D01*
X1562484Y529984D02*
X1562992Y531000D01*
X1562484Y532016D01*
X1563500Y531508D01*
X1564516Y532016D01*
X1564008Y531000D01*
X1564516Y529984D01*
X1563500Y530492D01*
X1562484Y529984D01*
X1429468Y462718D02*
X1430484Y464750D01*
X1429468Y466782D01*
X1431500Y465766D01*
X1433532Y466782D01*
X1432516Y464750D01*
X1433532Y462718D01*
X1431500Y463734D01*
X1429468Y462718D01*
X1430484Y463734D02*
X1430992Y464750D01*
X1430484Y465766D01*
X1431500Y465258D01*
X1432516Y465766D01*
X1432008Y464750D01*
X1432516Y463734D01*
X1431500Y464242D01*
X1430484Y463734D01*
X1539688Y313468D02*
X1540704Y315500D01*
X1539688Y317532D01*
X1541720Y316516D01*
X1543752Y317532D01*
X1542736Y315500D01*
X1543752Y313468D01*
X1541720Y314484D01*
X1539688Y313468D01*
X1540704Y314484D02*
X1541212Y315500D01*
X1540704Y316516D01*
X1541720Y316008D01*
X1542736Y316516D01*
X1542228Y315500D01*
X1542736Y314484D01*
X1541720Y314992D01*
X1540704Y314484D01*
X1475688Y313468D02*
X1476704Y315500D01*
X1475688Y317532D01*
X1477720Y316516D01*
X1479752Y317532D01*
X1478736Y315500D01*
X1479752Y313468D01*
X1477720Y314484D01*
X1475688Y313468D01*
X1476704Y314484D02*
X1477212Y315500D01*
X1476704Y316516D01*
X1477720Y316008D01*
X1478736Y316516D01*
X1478228Y315500D01*
X1478736Y314484D01*
X1477720Y314992D01*
X1476704Y314484D01*
X1684468Y675218D02*
X1685484Y677250D01*
X1684468Y679282D01*
X1686500Y678266D01*
X1688532Y679282D01*
X1687516Y677250D01*
X1688532Y675218D01*
X1686500Y676234D01*
X1684468Y675218D01*
X1685484Y676234D02*
X1685992Y677250D01*
X1685484Y678266D01*
X1686500Y677758D01*
X1687516Y678266D01*
X1687008Y677250D01*
X1687516Y676234D01*
X1686500Y676742D01*
X1685484Y676234D01*
X1684468Y665878D02*
X1685484Y667910D01*
X1684468Y669942D01*
X1686500Y668926D01*
X1688532Y669942D01*
X1687516Y667910D01*
X1688532Y665878D01*
X1686500Y666894D01*
X1684468Y665878D01*
X1685484Y666894D02*
X1685992Y667910D01*
X1685484Y668926D01*
X1686500Y668418D01*
X1687516Y668926D01*
X1687008Y667910D01*
X1687516Y666894D01*
X1686500Y667402D01*
X1685484Y666894D01*
X1642718Y642968D02*
X1643734Y645000D01*
X1642718Y647032D01*
X1644750Y646016D01*
X1646782Y647032D01*
X1645766Y645000D01*
X1646782Y642968D01*
X1644750Y643984D01*
X1642718Y642968D01*
X1643734Y643984D02*
X1644242Y645000D01*
X1643734Y646016D01*
X1644750Y645508D01*
X1645766Y646016D01*
X1645258Y645000D01*
X1645766Y643984D01*
X1644750Y644492D01*
X1643734Y643984D01*
X1506968Y373818D02*
X1507984Y375850D01*
X1506968Y377882D01*
X1509000Y376866D01*
X1511032Y377882D01*
X1510016Y375850D01*
X1511032Y373818D01*
X1509000Y374834D01*
X1506968Y373818D01*
X1507984Y374834D02*
X1508492Y375850D01*
X1507984Y376866D01*
X1509000Y376358D01*
X1510016Y376866D01*
X1509508Y375850D01*
X1510016Y374834D01*
X1509000Y375342D01*
X1507984Y374834D01*
X1342718Y460968D02*
X1343734Y463000D01*
X1342718Y465032D01*
X1344750Y464016D01*
X1346782Y465032D01*
X1345766Y463000D01*
X1346782Y460968D01*
X1344750Y461984D01*
X1342718Y460968D01*
X1343734Y461984D02*
X1344242Y463000D01*
X1343734Y464016D01*
X1344750Y463508D01*
X1345766Y464016D01*
X1345258Y463000D01*
X1345766Y461984D01*
X1344750Y462492D01*
X1343734Y461984D01*
X1657468Y642968D02*
X1658484Y645000D01*
X1657468Y647032D01*
X1659500Y646016D01*
X1661532Y647032D01*
X1660516Y645000D01*
X1661532Y642968D01*
X1659500Y643984D01*
X1657468Y642968D01*
X1658484Y643984D02*
X1658992Y645000D01*
X1658484Y646016D01*
X1659500Y645508D01*
X1660516Y646016D01*
X1660008Y645000D01*
X1660516Y643984D01*
X1659500Y644492D01*
X1658484Y643984D01*
X1666218Y764718D02*
X1667234Y766750D01*
X1666218Y768782D01*
X1668250Y767766D01*
X1670282Y768782D01*
X1669266Y766750D01*
X1670282Y764718D01*
X1668250Y765734D01*
X1666218Y764718D01*
X1667234Y765734D02*
X1667742Y766750D01*
X1667234Y767766D01*
X1668250Y767258D01*
X1669266Y767766D01*
X1668758Y766750D01*
X1669266Y765734D01*
X1668250Y766242D01*
X1667234Y765734D01*
X1638218Y764718D02*
X1639234Y766750D01*
X1638218Y768782D01*
X1640250Y767766D01*
X1642282Y768782D01*
X1641266Y766750D01*
X1642282Y764718D01*
X1640250Y765734D01*
X1638218Y764718D01*
X1639234Y765734D02*
X1639742Y766750D01*
X1639234Y767766D01*
X1640250Y767258D01*
X1641266Y767766D01*
X1640758Y766750D01*
X1641266Y765734D01*
X1640250Y766242D01*
X1639234Y765734D01*
X1759968Y339218D02*
X1760984Y341250D01*
X1759968Y343282D01*
X1762000Y342266D01*
X1764032Y343282D01*
X1763016Y341250D01*
X1764032Y339218D01*
X1762000Y340234D01*
X1759968Y339218D01*
X1760984Y340234D02*
X1761492Y341250D01*
X1760984Y342266D01*
X1762000Y341758D01*
X1763016Y342266D01*
X1762508Y341250D01*
X1763016Y340234D01*
X1762000Y340742D01*
X1760984Y340234D01*
X1567718Y366968D02*
X1568734Y369000D01*
X1567718Y371032D01*
X1569750Y370016D01*
X1571782Y371032D01*
X1570766Y369000D01*
X1571782Y366968D01*
X1569750Y367984D01*
X1567718Y366968D01*
X1568734Y367984D02*
X1569242Y369000D01*
X1568734Y370016D01*
X1569750Y369508D01*
X1570766Y370016D01*
X1570258Y369000D01*
X1570766Y367984D01*
X1569750Y368492D01*
X1568734Y367984D01*
X1661218Y494968D02*
X1662234Y497000D01*
X1661218Y499032D01*
X1663250Y498016D01*
X1665282Y499032D01*
X1664266Y497000D01*
X1665282Y494968D01*
X1663250Y495984D01*
X1661218Y494968D01*
X1662234Y495984D02*
X1662742Y497000D01*
X1662234Y498016D01*
X1663250Y497508D01*
X1664266Y498016D01*
X1663758Y497000D01*
X1664266Y495984D01*
X1663250Y496492D01*
X1662234Y495984D01*
X1776968Y696968D02*
X1777984Y699000D01*
X1776968Y701032D01*
X1779000Y700016D01*
X1781032Y701032D01*
X1780016Y699000D01*
X1781032Y696968D01*
X1779000Y697984D01*
X1776968Y696968D01*
X1777984Y697984D02*
X1778492Y699000D01*
X1777984Y700016D01*
X1779000Y699508D01*
X1780016Y700016D01*
X1779508Y699000D01*
X1780016Y697984D01*
X1779000Y698492D01*
X1777984Y697984D01*
X1761968Y669218D02*
X1762984Y671250D01*
X1761968Y673282D01*
X1764000Y672266D01*
X1766032Y673282D01*
X1765016Y671250D01*
X1766032Y669218D01*
X1764000Y670234D01*
X1761968Y669218D01*
X1762984Y670234D02*
X1763492Y671250D01*
X1762984Y672266D01*
X1764000Y671758D01*
X1765016Y672266D01*
X1764508Y671250D01*
X1765016Y670234D01*
X1764000Y670742D01*
X1762984Y670234D01*
X1743218Y674718D02*
X1744234Y676750D01*
X1743218Y678782D01*
X1745250Y677766D01*
X1747282Y678782D01*
X1746266Y676750D01*
X1747282Y674718D01*
X1745250Y675734D01*
X1743218Y674718D01*
X1744234Y675734D02*
X1744742Y676750D01*
X1744234Y677766D01*
X1745250Y677258D01*
X1746266Y677766D01*
X1745758Y676750D01*
X1746266Y675734D01*
X1745250Y676242D01*
X1744234Y675734D01*
X1721218Y691718D02*
X1722234Y693750D01*
X1721218Y695782D01*
X1723250Y694766D01*
X1725282Y695782D01*
X1724266Y693750D01*
X1725282Y691718D01*
X1723250Y692734D01*
X1721218Y691718D01*
X1722234Y692734D02*
X1722742Y693750D01*
X1722234Y694766D01*
X1723250Y694258D01*
X1724266Y694766D01*
X1723758Y693750D01*
X1724266Y692734D01*
X1723250Y693242D01*
X1722234Y692734D01*
D88*
X1436032Y367500D02*
G03*
X1436032Y367500I-2032J0D01*
G01*
X1712632Y316200D02*
G03*
X1712632Y316200I-2032J0D01*
G01*
X1738032D02*
G03*
X1738032Y316200I-2032J0D01*
G01*
X1630932D02*
G03*
X1630932Y316200I-2032J0D01*
G01*
X1605532D02*
G03*
X1605532Y316200I-2032J0D01*
G01*
D89*
X1711616D02*
G03*
X1711616Y316200I-1016J0D01*
G01*
X1737016D02*
G03*
X1737016Y316200I-1016J0D01*
G01*
X1629916D02*
G03*
X1629916Y316200I-1016J0D01*
G01*
X1604516D02*
G03*
X1604516Y316200I-1016J0D01*
G01*
M02*
