M48
;Layer_Color=9474304
;FILE_FORMAT=4:4
METRIC,LZ
;TYPE=PLATED
T1F00S00C0.2000
T3F00S00C0.7620
T4F00S00C0.8900
T5F00S00C1.0200
T7F00S00C1.6300
T8F00S00C3.0000
;TYPE=NON_PLATED
T9F00S00C0.6500
T10F00S00C3.2500
%
T01
X0145575Y003325
X0147772Y003155
X0151725Y0032475
X0150925Y0034075
X01509Y0037585
X01503Y003925
X014815Y0037125
X0156975Y00369
X0157625Y0034175
X01558982Y00333984
X0154172Y003155
X01762Y0034125
X017195Y00497
X0166325
X01651Y005185
X01637Y0051875
X0163875Y0050675
X01618555Y0050775
X01601176Y0052575
X015905Y005305
X016285Y0059475
X016425
X016565
X016705
X016845
X016985
X01724996Y00599999
X01729996
X01734996
X01739996
X01744996
X01749996
X01754996
Y00604999
Y00609999
X01749996
Y00604999
X01744996
Y00609999
X01739996
Y00604999
X01734996
Y00609999
X01729996
Y00604999
X01724996
Y00609999
X01744996Y00594999
X01749996
X01754996
Y00589999
Y00584999
Y00579999
Y00574999
Y00569999
Y00564999
X01749996
Y00569999
Y00574999
Y00579999
Y00584999
Y00589999
X01744996
Y00584999
Y00579999
Y00574999
Y00569999
Y00564999
X01739996
X01734996
X01729996
X01724996
X01719997
X01779996
Y00569999
Y00574999
Y00579999
Y00584999
Y00589999
Y00594999
Y00599999
Y00604999
Y00609999
Y00559999
Y00554999
Y00549999
X01774996
X017445Y006475
X01736Y0064025
X0170875Y0064725
Y0065725
X0170975Y0068225
X017095Y0069225
X0172325Y0069375
X0174575Y006915
X0174525Y0067675
X01764Y0067125
X01779Y00699
X01769996Y00719999
Y00724998
Y00729998
Y00734998
Y00739998
Y00744998
Y00749998
Y00754998
X01764996
Y00749998
Y00744998
Y00739998
Y00734998
Y00729998
Y00724998
Y00719999
X01759996
Y00724998
Y00729998
Y00734998
Y00739998
Y00744998
Y00749998
Y00754998
X01754996
Y00749998
Y00744998
Y00739998
Y00734998
Y00729998
Y00724998
Y00719999
X01749996
Y00724998
Y00729998
Y00734998
Y00739998
Y00744998
Y00749998
Y00754998
X01744996
Y00749998
Y00744998
Y00739998
Y00734998
Y00729998
Y00724998
Y00719999
X01739996
Y00724998
Y00729998
Y00734998
Y00739998
Y00744998
Y00749998
Y00754998
X01734996
Y00749998
Y00744998
Y00739998
Y00734998
Y00729998
Y00724998
Y00719999
X01729996
Y00724998
Y00729998
Y00734998
Y00739998
Y00744998
Y00749998
Y00754998
X01696Y0076675
X0168225
X0166825
X016545
X0164025
X0162375Y0071725
X0160375Y00707
X016035Y0070025
X01625Y006775
X0162725Y0066225
X016345Y0064475
X0164475Y00645
X016595
X01645Y00673
X016865Y0067725
Y0066791
X0168675Y006875
Y0069725
X015685Y00699042
X01544997Y00699999
Y00694999
Y00689999
X01539997
Y00694999
Y00699999
X01534997
Y00694999
Y00689999
Y00684999
X01539997
Y00679999
Y00674999
Y00669999
Y00664999
Y00659999
Y00654999
Y00649999
X01534997
Y00654999
Y00659999
Y00664999
Y00669999
Y00674999
Y00679999
X01529997
Y00684999
Y00689999
Y00694999
Y00699999
X01524997
Y00694999
Y00689999
Y00684999
Y00679999
Y00674999
X01529997
Y00669999
Y00664999
Y00659999
Y00654999
Y00649999
X01524997
Y00654999
Y00659999
Y00664999
Y00669999
X01519997
Y00674999
Y00679999
Y00684999
Y00689999
Y00694999
Y00699999
X01514997
Y00694999
Y00689999
Y00684999
Y00679999
Y00674999
Y00669999
Y00664999
X01519997
Y00659999
Y00654999
Y00649999
X01514997
Y00654999
Y00659999
X01509997
Y00664999
Y00669999
Y00674999
Y00679999
Y00684999
Y00689999
Y00694999
Y00699999
X01504997
Y00694999
Y00689999
Y00684999
Y00679999
Y00674999
Y00669999
Y00664999
Y00659999
Y00654999
X01509997
Y00649999
X01504997
X01499997
Y00654999
Y00659999
Y00664999
Y00669999
Y00674999
Y00679999
Y00684999
Y00689999
Y00694999
Y00699999
X01494997
Y00694999
Y00689999
Y00684999
Y00679999
Y00674999
Y00669999
Y00664999
Y00659999
Y00654999
Y00649999
X01489997
Y00654999
Y00659999
Y00664999
Y00669999
Y00674999
Y00679999
Y00684999
Y00689999
Y00694999
Y00699999
X01484997
Y00694999
Y00689999
Y00684999
Y00679999
Y00674999
Y00669999
Y00664999
Y00659999
Y00654999
Y00649999
X01479997
Y00654999
Y00659999
Y00664999
Y00669999
Y00674999
Y00679999
Y00684999
Y00689999
Y00694999
Y00699999
X01474997
Y00694999
Y00689999
Y00684999
Y00679999
Y00674999
Y00669999
Y00664999
Y00659999
Y00654999
Y00649999
X01469997
Y00654999
Y00659999
Y00664999
Y00669999
Y00674999
Y00679999
Y00684999
Y00689999
Y00694999
Y00699999
X01464997
Y00694999
Y00689999
Y00684999
Y00679999
Y00674999
Y00669999
Y00664999
Y00659999
Y00654999
Y00649999
X01449997
Y00654999
Y00659999
Y00664999
Y00669999
X01444997
Y00664999
Y00659999
X01439997
Y00664999
Y00669999
X01434997
Y00664999
Y00659999
X01429997
Y00664999
Y00669999
Y00684999
X01434997
X01439997
X01444997
X01449997
X01454997
X01459997
Y00689999
Y00694999
Y00699999
X01454997
Y00694999
Y00689999
X01449997
Y00694999
Y00699999
X01444997
Y00694999
Y00689999
X01439997
Y00694999
Y00699999
X01434997
Y00694999
Y00689999
X01429997
Y00694999
Y00699999
X01454997Y00679999
X01459997
Y00674999
X01458Y0062425
X0144325Y006215
X0141075Y0062275
X0140175Y0063975
X0138Y0059175
X0140575Y00574
X0138875Y00552
X0137975Y00535
X01444Y005345
X0145325Y0053475
X01447818Y00512182
X0145825Y0051175
X0148825Y005345
X0149375Y00588
X0149325Y00598
X01553Y0059375
X015635Y0055125
Y00531
X01580891Y005305
X0156775Y00642
X01579Y006565
X0156775Y006705
X0135375Y0067875
X0135325Y007205
X01333
X0133875Y007615
X0132147Y006395
X0134475Y00463
X0136545Y0042025
X01463875Y00425875
X0147425Y0042575
X014965Y004225
X0150425
Y0043025
Y0043775
X014965
Y0043025
X0151225
Y0043775
X0152
Y0043025
Y004225
X0151225
X01512Y0041475
X0151975
X01504
X0149625
X01493Y00478
X014315Y0046475
T03
X01384Y0069725
Y0071885
Y0074045
Y0076205
T04
X0162525Y004287
X0165065
X0167605
X0170145
X0171415Y004541
X0168875
X0166335
X0163795
T05
X016035Y003162
X016289
X017106
X01736
T07
X015923Y003957
X017472
T08
X0175225Y0051425
X0133375Y005145
X013335Y00814
X0175225
T09
X0147924Y0029772
X0153862Y003048
T10
X016126Y003652
X017269
M30
