G04*
G04 #@! TF.GenerationSoftware,Altium Limited,Altium Designer,20.0.12 (288)*
G04*
G04 Layer_Physical_Order=2*
G04 Layer_Color=9720587*
%FSLAX44Y44*%
%MOMM*%
G71*
G01*
G75*
%ADD10C,0.2000*%
%ADD70C,1.5240*%
%ADD71C,5.0000*%
%ADD72C,1.0670*%
%ADD73O,1.0000X2.0000*%
%ADD74O,0.9000X1.8000*%
%ADD75C,0.6500*%
%ADD76C,3.2500*%
%ADD77C,2.4450*%
%ADD78C,1.5300*%
%ADD79C,1.3980*%
%ADD80R,1.3980X1.3980*%
%ADD81O,2.4000X5.0000*%
%ADD82O,5.0000X2.4000*%
%ADD83C,0.4000*%
G36*
X1752495Y854498D02*
X1755133Y854498D01*
X1760365Y853809D01*
X1765462Y852444D01*
X1770338Y850424D01*
X1774908Y847786D01*
X1779094Y844573D01*
X1782825Y840842D01*
X1786038Y836656D01*
X1788676Y832085D01*
X1790695Y827210D01*
X1792061Y822113D01*
X1792750Y816881D01*
X1792750Y814243D01*
X1792750Y814243D01*
X1792750Y814243D01*
X1792750Y294580D01*
X1792750Y291953D01*
X1792064Y286743D01*
X1790704Y281668D01*
X1788694Y276814D01*
X1786067Y272264D01*
X1782868Y268095D01*
X1779153Y264380D01*
X1774984Y261181D01*
X1770434Y258554D01*
X1765580Y256544D01*
X1760505Y255184D01*
X1755295Y254498D01*
X1752668Y254498D01*
X1333101Y254498D01*
X1330472Y254498D01*
X1325261Y255184D01*
X1320183Y256545D01*
X1315327Y258556D01*
X1310774Y261185D01*
X1306604Y264385D01*
X1302887Y268102D01*
X1299687Y272272D01*
X1297058Y276825D01*
X1295047Y281681D01*
X1293686Y286759D01*
X1293000Y291971D01*
X1293000Y294599D01*
X1293000Y814000D01*
X1293000Y816654D01*
X1293693Y821918D01*
X1295067Y827046D01*
X1297099Y831950D01*
X1299753Y836548D01*
X1302985Y840760D01*
X1306738Y844513D01*
X1310950Y847745D01*
X1315548Y850399D01*
X1320452Y852431D01*
X1325580Y853805D01*
X1330844Y854498D01*
X1333498Y854498D01*
X1333498Y854498D01*
X1752495Y854498D01*
D02*
G37*
%LPC*%
G36*
X1752750Y841082D02*
X1748592Y840755D01*
X1744536Y839781D01*
X1740682Y838185D01*
X1737126Y836005D01*
X1733954Y833296D01*
X1731245Y830125D01*
X1729065Y826568D01*
X1727469Y822714D01*
X1726495Y818658D01*
X1726168Y814500D01*
X1726495Y810342D01*
X1727469Y806286D01*
X1729065Y802432D01*
X1731245Y798876D01*
X1733954Y795704D01*
X1737126Y792995D01*
X1740682Y790815D01*
X1744536Y789219D01*
X1748592Y788245D01*
X1752750Y787918D01*
X1756908Y788245D01*
X1760964Y789219D01*
X1764818Y790815D01*
X1768374Y792995D01*
X1771546Y795704D01*
X1774255Y798876D01*
X1776435Y802432D01*
X1778031Y806286D01*
X1779005Y810342D01*
X1779332Y814500D01*
X1779005Y818658D01*
X1778031Y822714D01*
X1776435Y826568D01*
X1774255Y830125D01*
X1771546Y833296D01*
X1768374Y836005D01*
X1764818Y838185D01*
X1760964Y839781D01*
X1756908Y840755D01*
X1752750Y841082D01*
D02*
G37*
G36*
X1333000D02*
X1328842Y840755D01*
X1324786Y839781D01*
X1320932Y838185D01*
X1317375Y836005D01*
X1314204Y833296D01*
X1311495Y830125D01*
X1309315Y826568D01*
X1307719Y822714D01*
X1306745Y818658D01*
X1306418Y814500D01*
X1306745Y810342D01*
X1307719Y806286D01*
X1309315Y802432D01*
X1311495Y798876D01*
X1314204Y795704D01*
X1317375Y792995D01*
X1320932Y790815D01*
X1324786Y789219D01*
X1328842Y788245D01*
X1333000Y787918D01*
X1337158Y788245D01*
X1341214Y789219D01*
X1345068Y790815D01*
X1348625Y792995D01*
X1351796Y795704D01*
X1354505Y798876D01*
X1356685Y802432D01*
X1358281Y806286D01*
X1359255Y810342D01*
X1359582Y814500D01*
X1359255Y818658D01*
X1358281Y822714D01*
X1356685Y826568D01*
X1354505Y830125D01*
X1351796Y833296D01*
X1348625Y836005D01*
X1345068Y838185D01*
X1341214Y839781D01*
X1337158Y840755D01*
X1333000Y841082D01*
D02*
G37*
G36*
X1353750Y748799D02*
X1351369Y748485D01*
X1349151Y747566D01*
X1347245Y746105D01*
X1345784Y744199D01*
X1344865Y741981D01*
X1344551Y739600D01*
X1344865Y737219D01*
X1345784Y735001D01*
X1347245Y733095D01*
X1349151Y731634D01*
X1351369Y730715D01*
X1353750Y730401D01*
X1356131Y730715D01*
X1358349Y731634D01*
X1360254Y733095D01*
X1361716Y735001D01*
X1362635Y737219D01*
X1362949Y739600D01*
X1362635Y741981D01*
X1361716Y744199D01*
X1360254Y746105D01*
X1358349Y747566D01*
X1356131Y748485D01*
X1353750Y748799D01*
D02*
G37*
G36*
Y727199D02*
X1351369Y726885D01*
X1349151Y725966D01*
X1347245Y724504D01*
X1345784Y722599D01*
X1344865Y720381D01*
X1344551Y718000D01*
X1344865Y715619D01*
X1345784Y713401D01*
X1347245Y711496D01*
X1349151Y710034D01*
X1351369Y709115D01*
X1353750Y708801D01*
X1356131Y709115D01*
X1358349Y710034D01*
X1360254Y711496D01*
X1361716Y713401D01*
X1362635Y715619D01*
X1362949Y718000D01*
X1362635Y720381D01*
X1361716Y722599D01*
X1360254Y724504D01*
X1358349Y725966D01*
X1356131Y726885D01*
X1353750Y727199D01*
D02*
G37*
G36*
Y705599D02*
X1351369Y705285D01*
X1349151Y704366D01*
X1347245Y702905D01*
X1345784Y700999D01*
X1344865Y698781D01*
X1344551Y696400D01*
X1344865Y694019D01*
X1345784Y691801D01*
X1347245Y689895D01*
X1349151Y688434D01*
X1351369Y687515D01*
X1353750Y687201D01*
X1356131Y687515D01*
X1358349Y688434D01*
X1360254Y689895D01*
X1361716Y691801D01*
X1362635Y694019D01*
X1362949Y696400D01*
X1362635Y698781D01*
X1361716Y700999D01*
X1360254Y702905D01*
X1358349Y704366D01*
X1356131Y705285D01*
X1353750Y705599D01*
D02*
G37*
G36*
X1508650Y624704D02*
X1506866Y624469D01*
X1505203Y623780D01*
X1503775Y622685D01*
X1502680Y621257D01*
X1501991Y619594D01*
X1501756Y617810D01*
X1501991Y616026D01*
X1502680Y614363D01*
X1503775Y612935D01*
X1505203Y611840D01*
X1506866Y611151D01*
X1508650Y610916D01*
X1510434Y611151D01*
X1512097Y611840D01*
X1513525Y612935D01*
X1514620Y614363D01*
X1515309Y616026D01*
X1515544Y617810D01*
X1515309Y619594D01*
X1514620Y621257D01*
X1513525Y622685D01*
X1512097Y623780D01*
X1510434Y624469D01*
X1508650Y624704D01*
D02*
G37*
G36*
X1559450Y614544D02*
X1557666Y614309D01*
X1556003Y613620D01*
X1554575Y612525D01*
X1553480Y611097D01*
X1552791Y609434D01*
X1552556Y607650D01*
X1552791Y605866D01*
X1553480Y604203D01*
X1554575Y602775D01*
X1556003Y601680D01*
X1557666Y600991D01*
X1559450Y600756D01*
X1561234Y600991D01*
X1562897Y601680D01*
X1564325Y602775D01*
X1565420Y604203D01*
X1566109Y605866D01*
X1566344Y607650D01*
X1566109Y609434D01*
X1565420Y611097D01*
X1564325Y612525D01*
X1562897Y613620D01*
X1561234Y614309D01*
X1559450Y614544D01*
D02*
G37*
G36*
X1508650Y604384D02*
X1506866Y604149D01*
X1505203Y603460D01*
X1503775Y602365D01*
X1502680Y600937D01*
X1501991Y599274D01*
X1501756Y597490D01*
X1501991Y595706D01*
X1502680Y594043D01*
X1503775Y592615D01*
X1505203Y591520D01*
X1506866Y590831D01*
X1508650Y590596D01*
X1510434Y590831D01*
X1512097Y591520D01*
X1513525Y592615D01*
X1514620Y594043D01*
X1515309Y595706D01*
X1515544Y597490D01*
X1515309Y599274D01*
X1514620Y600937D01*
X1513525Y602365D01*
X1512097Y603460D01*
X1510434Y604149D01*
X1508650Y604384D01*
D02*
G37*
G36*
X1705000Y675569D02*
X1703634Y675297D01*
X1702477Y674523D01*
X1701703Y673366D01*
X1701431Y672000D01*
X1701488Y671717D01*
X1700750Y670569D01*
X1699384Y670297D01*
X1698227Y669523D01*
X1697453Y668366D01*
X1697181Y667000D01*
X1697453Y665634D01*
X1698227Y664477D01*
X1699384Y663703D01*
X1700750Y663431D01*
X1700791Y663439D01*
X1701871Y662359D01*
X1701799Y662000D01*
X1701832Y661832D01*
X1700997Y660703D01*
X1699632Y660431D01*
X1698474Y659658D01*
X1697701Y658500D01*
X1697692Y658459D01*
X1584672D01*
X1583696Y658265D01*
X1582869Y657712D01*
X1570198Y645041D01*
X1569645Y644214D01*
X1569451Y643238D01*
Y588905D01*
X1556845Y576299D01*
X1533026D01*
X1532540Y577472D01*
X1535912Y580845D01*
X1536464Y581671D01*
X1536658Y582647D01*
Y605442D01*
X1536599Y605740D01*
Y611515D01*
X1537347Y612634D01*
X1537619Y614000D01*
X1537347Y615366D01*
X1536573Y616523D01*
X1535416Y617297D01*
X1534050Y617569D01*
X1532684Y617297D01*
X1531527Y616523D01*
X1530753Y615366D01*
X1530481Y614000D01*
X1530753Y612634D01*
X1531501Y611515D01*
Y605501D01*
X1531560Y605202D01*
Y583703D01*
X1527657Y579799D01*
X1502744D01*
X1501769Y579605D01*
X1500942Y579052D01*
X1489948Y568058D01*
X1489395Y567231D01*
X1489201Y566255D01*
Y520805D01*
X1487695Y519299D01*
X1480985D01*
X1479866Y520047D01*
X1478500Y520319D01*
X1477134Y520047D01*
X1475977Y519273D01*
X1475203Y518116D01*
X1474931Y516750D01*
X1475203Y515384D01*
X1475977Y514227D01*
X1477134Y513453D01*
X1478500Y513181D01*
X1479866Y513453D01*
X1480985Y514201D01*
X1488751D01*
X1489726Y514395D01*
X1490553Y514948D01*
X1491825Y516219D01*
X1492998Y515733D01*
Y497394D01*
X1489779Y494175D01*
X1489134Y494047D01*
X1487977Y493273D01*
X1487203Y492116D01*
X1486931Y490750D01*
X1487203Y489384D01*
X1487977Y488227D01*
X1489134Y487453D01*
X1490500Y487181D01*
X1491308Y486047D01*
X1491266Y485834D01*
X1491537Y484468D01*
X1492311Y483311D01*
X1493468Y482537D01*
X1494834Y482266D01*
X1496200Y482537D01*
X1497357Y483311D01*
X1498131Y484468D01*
X1498403Y485834D01*
X1498274Y486482D01*
X1499417Y487246D01*
X1499586Y487133D01*
X1500952Y486861D01*
X1501401Y486950D01*
X1502526Y486522D01*
X1502700Y486012D01*
X1502877Y485126D01*
X1503650Y483968D01*
X1504808Y483195D01*
X1506174Y482923D01*
X1507539Y483195D01*
X1508697Y483968D01*
X1509471Y485126D01*
X1509742Y486492D01*
X1509471Y487857D01*
X1508723Y488977D01*
Y559824D01*
X1508849Y559951D01*
X1561500D01*
X1562475Y560145D01*
X1563302Y560698D01*
X1584302Y581698D01*
X1584855Y582524D01*
X1585049Y583500D01*
Y637833D01*
X1589917Y642701D01*
X1706200D01*
X1707175Y642895D01*
X1708002Y643448D01*
X1715170Y650615D01*
X1715723Y651442D01*
X1715916Y652418D01*
Y670753D01*
X1715723Y671729D01*
X1715170Y672556D01*
X1713998Y673727D01*
X1713172Y674280D01*
X1712196Y674474D01*
X1707556D01*
X1707523Y674523D01*
X1706366Y675297D01*
X1705000Y675569D01*
D02*
G37*
G36*
X1752750Y561082D02*
X1748592Y560755D01*
X1744536Y559781D01*
X1740682Y558185D01*
X1737126Y556005D01*
X1733954Y553296D01*
X1731245Y550125D01*
X1729065Y546568D01*
X1727469Y542714D01*
X1726495Y538658D01*
X1726168Y534500D01*
X1726495Y530342D01*
X1727469Y526286D01*
X1729065Y522432D01*
X1731245Y518876D01*
X1733954Y515704D01*
X1737126Y512995D01*
X1740682Y510815D01*
X1744536Y509219D01*
X1748592Y508245D01*
X1752750Y507918D01*
X1756908Y508245D01*
X1760964Y509219D01*
X1764818Y510815D01*
X1768374Y512995D01*
X1771546Y515704D01*
X1774255Y518876D01*
X1776435Y522432D01*
X1778031Y526286D01*
X1779005Y530342D01*
X1779332Y534500D01*
X1779005Y538658D01*
X1778031Y542714D01*
X1776435Y546568D01*
X1774255Y550125D01*
X1771546Y553296D01*
X1768374Y556005D01*
X1764818Y558185D01*
X1760964Y559781D01*
X1756908Y560755D01*
X1752750Y561082D01*
D02*
G37*
G36*
X1333000D02*
X1328842Y560755D01*
X1324786Y559781D01*
X1320932Y558185D01*
X1317375Y556005D01*
X1314204Y553296D01*
X1311495Y550125D01*
X1309315Y546568D01*
X1307719Y542714D01*
X1306745Y538658D01*
X1306418Y534500D01*
X1306745Y530342D01*
X1307719Y526286D01*
X1309315Y522432D01*
X1311495Y518876D01*
X1314204Y515704D01*
X1317375Y512995D01*
X1320932Y510815D01*
X1324786Y509219D01*
X1328842Y508245D01*
X1333000Y507918D01*
X1337158Y508245D01*
X1341214Y509219D01*
X1345068Y510815D01*
X1348625Y512995D01*
X1351796Y515704D01*
X1354505Y518876D01*
X1356685Y522432D01*
X1358281Y526286D01*
X1359255Y530342D01*
X1359582Y534500D01*
X1359255Y538658D01*
X1358281Y542714D01*
X1356685Y546568D01*
X1354505Y550125D01*
X1351796Y553296D01*
X1348625Y556005D01*
X1345068Y558185D01*
X1341214Y559781D01*
X1337158Y560755D01*
X1333000Y561082D01*
D02*
G37*
G36*
X1723150Y449963D02*
X1720934Y449671D01*
X1718868Y448816D01*
X1717095Y447455D01*
X1715734Y445682D01*
X1714879Y443616D01*
X1714587Y441400D01*
X1714879Y439184D01*
X1715734Y437118D01*
X1717095Y435345D01*
X1718868Y433984D01*
X1720934Y433129D01*
X1723150Y432837D01*
X1725366Y433129D01*
X1727432Y433984D01*
X1729205Y435345D01*
X1730566Y437118D01*
X1731422Y439184D01*
X1731713Y441400D01*
X1731422Y443616D01*
X1730566Y445682D01*
X1729205Y447455D01*
X1727432Y448816D01*
X1725366Y449671D01*
X1723150Y449963D01*
D02*
G37*
G36*
X1697750D02*
X1695534Y449671D01*
X1693468Y448816D01*
X1691695Y447455D01*
X1690334Y445682D01*
X1689478Y443616D01*
X1689187Y441400D01*
X1689478Y439184D01*
X1690334Y437118D01*
X1691695Y435345D01*
X1693468Y433984D01*
X1695534Y433129D01*
X1697750Y432837D01*
X1699966Y433129D01*
X1702032Y433984D01*
X1703805Y435345D01*
X1705166Y437118D01*
X1706022Y439184D01*
X1706313Y441400D01*
X1706022Y443616D01*
X1705166Y445682D01*
X1703805Y447455D01*
X1702032Y448816D01*
X1699966Y449671D01*
X1697750Y449963D01*
D02*
G37*
G36*
X1672350D02*
X1670134Y449671D01*
X1668068Y448816D01*
X1666295Y447455D01*
X1664934Y445682D01*
X1664079Y443616D01*
X1663787Y441400D01*
X1664079Y439184D01*
X1664934Y437118D01*
X1666295Y435345D01*
X1668068Y433984D01*
X1670134Y433129D01*
X1672350Y432837D01*
X1674566Y433129D01*
X1676632Y433984D01*
X1678405Y435345D01*
X1679766Y437118D01*
X1680621Y439184D01*
X1680913Y441400D01*
X1680621Y443616D01*
X1679766Y445682D01*
X1678405Y447455D01*
X1676632Y448816D01*
X1674566Y449671D01*
X1672350Y449963D01*
D02*
G37*
G36*
X1646950D02*
X1644734Y449671D01*
X1642668Y448816D01*
X1640895Y447455D01*
X1639534Y445682D01*
X1638678Y443616D01*
X1638387Y441400D01*
X1638678Y439184D01*
X1639534Y437118D01*
X1640895Y435345D01*
X1642668Y433984D01*
X1644734Y433129D01*
X1646950Y432837D01*
X1649166Y433129D01*
X1651232Y433984D01*
X1653005Y435345D01*
X1654366Y437118D01*
X1655222Y439184D01*
X1655513Y441400D01*
X1655222Y443616D01*
X1654366Y445682D01*
X1653005Y447455D01*
X1651232Y448816D01*
X1649166Y449671D01*
X1646950Y449963D01*
D02*
G37*
G36*
X1642740Y424490D02*
X1625760D01*
Y407510D01*
X1642740D01*
Y424490D01*
D02*
G37*
G36*
X1710450Y424563D02*
X1708234Y424271D01*
X1706168Y423416D01*
X1704395Y422055D01*
X1703034Y420282D01*
X1702178Y418216D01*
X1701887Y416000D01*
X1702178Y413784D01*
X1703034Y411718D01*
X1704395Y409945D01*
X1706168Y408584D01*
X1708234Y407729D01*
X1710450Y407437D01*
X1712666Y407729D01*
X1714732Y408584D01*
X1716505Y409945D01*
X1717866Y411718D01*
X1718721Y413784D01*
X1719013Y416000D01*
X1718721Y418216D01*
X1717866Y420282D01*
X1716505Y422055D01*
X1714732Y423416D01*
X1712666Y424271D01*
X1710450Y424563D01*
D02*
G37*
G36*
X1685050D02*
X1682834Y424271D01*
X1680768Y423416D01*
X1678995Y422055D01*
X1677634Y420282D01*
X1676779Y418216D01*
X1676487Y416000D01*
X1676779Y413784D01*
X1677634Y411718D01*
X1678995Y409945D01*
X1680768Y408584D01*
X1682834Y407729D01*
X1685050Y407437D01*
X1687266Y407729D01*
X1689332Y408584D01*
X1691105Y409945D01*
X1692466Y411718D01*
X1693322Y413784D01*
X1693613Y416000D01*
X1693322Y418216D01*
X1692466Y420282D01*
X1691105Y422055D01*
X1689332Y423416D01*
X1687266Y424271D01*
X1685050Y424563D01*
D02*
G37*
G36*
X1659650D02*
X1657434Y424271D01*
X1655368Y423416D01*
X1653595Y422055D01*
X1652234Y420282D01*
X1651378Y418216D01*
X1651087Y416000D01*
X1651378Y413784D01*
X1652234Y411718D01*
X1653595Y409945D01*
X1655368Y408584D01*
X1657434Y407729D01*
X1659650Y407437D01*
X1661866Y407729D01*
X1663932Y408584D01*
X1665705Y409945D01*
X1667066Y411718D01*
X1667921Y413784D01*
X1668213Y416000D01*
X1667921Y418216D01*
X1667066Y420282D01*
X1665705Y422055D01*
X1663932Y423416D01*
X1661866Y424271D01*
X1659650Y424563D01*
D02*
G37*
G36*
X1756200Y396843D02*
X1752617Y396372D01*
X1749278Y394989D01*
X1746411Y392789D01*
X1744211Y389922D01*
X1742828Y386583D01*
X1742357Y383000D01*
X1742828Y379417D01*
X1744211Y376078D01*
X1746411Y373211D01*
X1749278Y371011D01*
X1752617Y369628D01*
X1756200Y369156D01*
X1759783Y369628D01*
X1763122Y371011D01*
X1765989Y373211D01*
X1768189Y376078D01*
X1769572Y379417D01*
X1770043Y383000D01*
X1769572Y386583D01*
X1768189Y389922D01*
X1765989Y392789D01*
X1763122Y394989D01*
X1759783Y396372D01*
X1756200Y396843D01*
D02*
G37*
G36*
X1601300D02*
X1597717Y396372D01*
X1594378Y394989D01*
X1591511Y392789D01*
X1589311Y389922D01*
X1587928Y386583D01*
X1587457Y383000D01*
X1587928Y379417D01*
X1589311Y376078D01*
X1591511Y373211D01*
X1594378Y371011D01*
X1597717Y369628D01*
X1601300Y369156D01*
X1604883Y369628D01*
X1608222Y371011D01*
X1611089Y373211D01*
X1613289Y376078D01*
X1614672Y379417D01*
X1615143Y383000D01*
X1614672Y386583D01*
X1613289Y389922D01*
X1611089Y392789D01*
X1608222Y394989D01*
X1604883Y396372D01*
X1601300Y396843D01*
D02*
G37*
G36*
X1395000Y393616D02*
X1369000D01*
X1365476Y393153D01*
X1362192Y391792D01*
X1359372Y389628D01*
X1357208Y386808D01*
X1355847Y383524D01*
X1355383Y380000D01*
X1355847Y376476D01*
X1357208Y373192D01*
X1359372Y370372D01*
X1362192Y368208D01*
X1365476Y366847D01*
X1369000Y366384D01*
X1395000D01*
X1398524Y366847D01*
X1401808Y368208D01*
X1404628Y370372D01*
X1406792Y373192D01*
X1408152Y376476D01*
X1408616Y380000D01*
X1408152Y383524D01*
X1406792Y386808D01*
X1404628Y389628D01*
X1401808Y391792D01*
X1398524Y393153D01*
X1395000Y393616D01*
D02*
G37*
G36*
X1735900Y370336D02*
X1732420Y369993D01*
X1729075Y368978D01*
X1725991Y367330D01*
X1723288Y365112D01*
X1721070Y362409D01*
X1719422Y359325D01*
X1718407Y355980D01*
X1718064Y352500D01*
X1718407Y349020D01*
X1719422Y345675D01*
X1721070Y342591D01*
X1723288Y339888D01*
X1725991Y337670D01*
X1729075Y336022D01*
X1732420Y335007D01*
X1735900Y334664D01*
X1739380Y335007D01*
X1742726Y336022D01*
X1745809Y337670D01*
X1748512Y339888D01*
X1750730Y342591D01*
X1752378Y345675D01*
X1753393Y349020D01*
X1753736Y352500D01*
X1753393Y355980D01*
X1752378Y359325D01*
X1750730Y362409D01*
X1748512Y365112D01*
X1745809Y367330D01*
X1742726Y368978D01*
X1739380Y369993D01*
X1735900Y370336D01*
D02*
G37*
G36*
X1621600D02*
X1618120Y369993D01*
X1614774Y368978D01*
X1611691Y367330D01*
X1608988Y365112D01*
X1606770Y362409D01*
X1605122Y359325D01*
X1604107Y355980D01*
X1603764Y352500D01*
X1604107Y349020D01*
X1605122Y345675D01*
X1606770Y342591D01*
X1608988Y339888D01*
X1611691Y337670D01*
X1614774Y336022D01*
X1618120Y335007D01*
X1621600Y334664D01*
X1625080Y335007D01*
X1628425Y336022D01*
X1631509Y337670D01*
X1634212Y339888D01*
X1636430Y342591D01*
X1638078Y345675D01*
X1639093Y349020D01*
X1639436Y352500D01*
X1639093Y355980D01*
X1638078Y359325D01*
X1636430Y362409D01*
X1634212Y365112D01*
X1631509Y367330D01*
X1628425Y368978D01*
X1625080Y369993D01*
X1621600Y370336D01*
D02*
G37*
G36*
X1543150Y311393D02*
X1541297Y311024D01*
X1539725Y309974D01*
X1538676Y308403D01*
X1538307Y306550D01*
X1538676Y304697D01*
X1539725Y303125D01*
X1541297Y302076D01*
X1543150Y301707D01*
X1545003Y302076D01*
X1546575Y303125D01*
X1547624Y304697D01*
X1547993Y306550D01*
X1547624Y308403D01*
X1546575Y309974D01*
X1545003Y311024D01*
X1543150Y311393D01*
D02*
G37*
G36*
X1485350D02*
X1483497Y311024D01*
X1481926Y309974D01*
X1480876Y308403D01*
X1480507Y306550D01*
X1480876Y304697D01*
X1481926Y303125D01*
X1483497Y302076D01*
X1485350Y301707D01*
X1487203Y302076D01*
X1488775Y303125D01*
X1489824Y304697D01*
X1490193Y306550D01*
X1489824Y308403D01*
X1488775Y309974D01*
X1487203Y311024D01*
X1485350Y311393D01*
D02*
G37*
G36*
X1745000Y312729D02*
X1742611Y312414D01*
X1740385Y311493D01*
X1738474Y310026D01*
X1737007Y308114D01*
X1736086Y305889D01*
X1735771Y303500D01*
X1736086Y301111D01*
X1737007Y298885D01*
X1738474Y296974D01*
X1740385Y295508D01*
X1742611Y294585D01*
X1745000Y294271D01*
X1747389Y294585D01*
X1749615Y295508D01*
X1751526Y296974D01*
X1752993Y298885D01*
X1753914Y301111D01*
X1754229Y303500D01*
X1753914Y305889D01*
X1752993Y308114D01*
X1751526Y310026D01*
X1749615Y311493D01*
X1747389Y312414D01*
X1745000Y312729D01*
D02*
G37*
G36*
X1719600D02*
X1717211Y312414D01*
X1714986Y311493D01*
X1713074Y310026D01*
X1711608Y308114D01*
X1710686Y305889D01*
X1710371Y303500D01*
X1710686Y301111D01*
X1711608Y298885D01*
X1713074Y296974D01*
X1714986Y295508D01*
X1717211Y294585D01*
X1719600Y294271D01*
X1721989Y294585D01*
X1724214Y295508D01*
X1726126Y296974D01*
X1727592Y298885D01*
X1728515Y301111D01*
X1728829Y303500D01*
X1728515Y305889D01*
X1727592Y308114D01*
X1726126Y310026D01*
X1724214Y311493D01*
X1721989Y312414D01*
X1719600Y312729D01*
D02*
G37*
G36*
X1637900D02*
X1635511Y312414D01*
X1633286Y311493D01*
X1631374Y310026D01*
X1629908Y308114D01*
X1628985Y305889D01*
X1628671Y303500D01*
X1628985Y301111D01*
X1629908Y298885D01*
X1631374Y296974D01*
X1633286Y295508D01*
X1635511Y294585D01*
X1637900Y294271D01*
X1640289Y294585D01*
X1642514Y295508D01*
X1644426Y296974D01*
X1645892Y298885D01*
X1646815Y301111D01*
X1647129Y303500D01*
X1646815Y305889D01*
X1645892Y308114D01*
X1644426Y310026D01*
X1642514Y311493D01*
X1640289Y312414D01*
X1637900Y312729D01*
D02*
G37*
G36*
X1612500D02*
X1610111Y312414D01*
X1607885Y311493D01*
X1605974Y310026D01*
X1604507Y308114D01*
X1603586Y305889D01*
X1603271Y303500D01*
X1603586Y301111D01*
X1604507Y298885D01*
X1605974Y296974D01*
X1607885Y295508D01*
X1610111Y294585D01*
X1612500Y294271D01*
X1614889Y294585D01*
X1617115Y295508D01*
X1619026Y296974D01*
X1620493Y298885D01*
X1621414Y301111D01*
X1621729Y303500D01*
X1621414Y305889D01*
X1620493Y308114D01*
X1619026Y310026D01*
X1617115Y311493D01*
X1614889Y312414D01*
X1612500Y312729D01*
D02*
G37*
%LPD*%
D10*
X1502744Y577250D02*
X1528712D01*
X1534109Y582647D02*
Y605442D01*
X1528712Y577250D02*
X1534109Y582647D01*
X1534050Y605501D02*
X1534109Y605442D01*
X1488751Y516750D02*
X1491750Y519749D01*
X1478500Y516750D02*
X1488751D01*
X1491750Y519749D02*
Y566255D01*
X1534050Y605501D02*
Y614000D01*
X1491750Y566255D02*
X1502744Y577250D01*
X1507793Y562500D02*
X1561500D01*
X1505144Y569750D02*
X1558851D01*
X1506344Y566000D02*
X1560050D01*
X1506174Y560880D02*
X1507793Y562500D01*
X1499047Y494889D02*
Y563653D01*
X1502547Y562203D02*
X1506344Y566000D01*
X1495547Y496338D02*
Y565103D01*
X1504194Y573750D01*
X1506174Y486492D02*
Y560880D01*
X1502547Y492566D02*
Y562203D01*
X1499047Y563653D02*
X1505144Y569750D01*
X1504194Y573750D02*
X1557901D01*
X1500952Y490429D02*
Y490971D01*
X1490500Y491291D02*
X1495547Y496338D01*
X1500952Y490971D02*
X1502547Y492566D01*
X1495000Y490841D02*
X1499047Y494889D01*
X1494834Y485834D02*
X1495000Y486000D01*
Y490841D01*
X1712196Y671925D02*
X1713368Y670753D01*
Y652418D02*
Y670753D01*
X1705075Y671925D02*
X1712196D01*
X1708696Y667000D02*
X1709868Y665828D01*
Y653868D02*
Y665828D01*
X1700750Y667000D02*
X1708696D01*
X1705000Y672000D02*
X1705075Y671925D01*
X1699227Y655910D02*
X1700452Y657134D01*
X1589804Y648750D02*
X1704750D01*
X1705368Y662000D02*
X1705883Y661485D01*
X1704750Y648750D02*
X1709868Y653868D01*
X1706200Y645250D02*
X1713368Y652418D01*
X1700452Y657134D02*
X1700997D01*
X1705883Y657710D02*
Y661485D01*
X1584672Y655910D02*
X1699227D01*
X1572000Y643238D02*
X1584672Y655910D01*
X1579000Y637946D02*
Y640339D01*
X1575500Y641788D02*
X1585961Y652250D01*
X1588354D01*
X1579000Y640339D02*
X1587411Y648750D01*
X1588861Y645250D02*
X1706200D01*
X1582500Y638889D02*
X1588861Y645250D01*
X1582500Y583500D02*
Y638889D01*
X1587411Y648750D02*
X1589804D01*
X1572000Y587849D02*
Y643238D01*
X1575500Y639396D02*
Y641788D01*
X1579000Y584950D02*
Y637946D01*
X1575500Y586399D02*
Y639396D01*
X1588354Y652250D02*
X1702500D01*
X1490500Y490750D02*
Y491291D01*
X1702500Y652250D02*
X1705922Y655672D01*
Y657672D01*
X1705883Y657710D02*
X1705922Y657672D01*
X1560050Y566000D02*
X1579000Y584950D01*
X1557901Y573750D02*
X1572000Y587849D01*
X1561500Y562500D02*
X1582500Y583500D01*
X1558851Y569750D02*
X1575500Y586399D01*
D70*
X1353750Y739600D02*
D03*
Y718000D02*
D03*
Y696400D02*
D03*
Y674800D02*
D03*
D71*
X1752750Y534500D02*
D03*
Y814500D02*
D03*
X1333000D02*
D03*
Y534500D02*
D03*
D72*
X1508650Y617810D02*
D03*
Y597490D02*
D03*
X1559450Y607650D02*
D03*
D73*
X1557500Y311350D02*
D03*
X1471000D02*
D03*
D74*
X1557500Y269550D02*
D03*
X1471000D02*
D03*
D75*
X1543150Y306550D02*
D03*
X1485350D02*
D03*
D76*
X1621600Y352500D02*
D03*
X1735900D02*
D03*
D77*
X1756200Y383000D02*
D03*
X1601300D02*
D03*
D78*
X1719600Y303500D02*
D03*
X1745000D02*
D03*
X1637900D02*
D03*
X1612500D02*
D03*
D79*
X1723150Y441400D02*
D03*
X1710450Y416000D02*
D03*
X1697750Y441400D02*
D03*
X1685050Y416000D02*
D03*
X1672350Y441400D02*
D03*
X1659650Y416000D02*
D03*
X1646950Y441400D02*
D03*
D80*
X1634250Y416000D02*
D03*
D81*
X1430000Y355000D02*
D03*
D82*
X1382000Y380000D02*
D03*
Y320000D02*
D03*
D83*
X1511250Y405000D02*
D03*
X1501000Y405500D02*
D03*
X1501250Y395750D02*
D03*
X1511500D02*
D03*
X1521500D02*
D03*
X1521000Y405750D02*
D03*
X1521250Y415250D02*
D03*
X1511250D02*
D03*
X1501250D02*
D03*
X1506174Y486492D02*
D03*
X1500952Y490429D02*
D03*
X1486000Y548750D02*
D03*
X1534050Y614000D02*
D03*
X1478500Y516750D02*
D03*
X1494834Y485834D02*
D03*
X1705368Y662000D02*
D03*
X1700997Y657134D02*
D03*
X1700750Y667000D02*
D03*
X1490500Y490750D02*
D03*
X1707110Y640652D02*
D03*
X1705000Y672000D02*
D03*
X1641000Y667000D02*
D03*
X1540500Y540000D02*
D03*
X1646000Y682500D02*
D03*
X1751500Y620750D02*
D03*
X1767500Y660500D02*
D03*
X1766500Y678250D02*
D03*
X1713500Y732000D02*
D03*
X1699500D02*
D03*
X1685500D02*
D03*
X1671500D02*
D03*
X1597500Y682750D02*
D03*
X1657477Y732000D02*
D03*
X1641000Y637250D02*
D03*
X1651000Y617000D02*
D03*
X1661000D02*
D03*
X1676000D02*
D03*
X1750500Y638500D02*
D03*
X1763500Y589750D02*
D03*
X1638500Y571000D02*
D03*
X1652500D02*
D03*
X1666500D02*
D03*
X1680500D02*
D03*
X1708750D02*
D03*
X1694750D02*
D03*
X1685750Y484250D02*
D03*
X1727750D02*
D03*
X1768750Y425000D02*
D03*
X1471750Y334250D02*
D03*
X1480750Y317250D02*
D03*
X1544750D02*
D03*
X1556750Y334250D02*
D03*
X1513500Y335750D02*
D03*
X1486750Y348250D02*
D03*
X1550500Y458750D02*
D03*
X1597500Y640750D02*
D03*
Y626750D02*
D03*
Y612750D02*
D03*
X1588500Y595750D02*
D03*
X1568000Y560000D02*
D03*
X1531500Y487500D02*
D03*
X1478500Y510000D02*
D03*
X1466500Y576000D02*
D03*
X1457500Y593000D02*
D03*
X1521350Y614000D02*
D03*
X1333000Y721000D02*
D03*
X1326250Y608500D02*
D03*
X1349500Y630460D02*
D03*
X1420000Y608500D02*
D03*
X1412750Y510200D02*
D03*
X1448250Y557250D02*
D03*
X1428500Y550000D02*
D03*
X1429750Y532200D02*
D03*
X1448250Y484250D02*
D03*
X1414000Y492250D02*
D03*
X1426250Y431750D02*
D03*
X1362450Y407250D02*
D03*
X1343500Y410500D02*
D03*
X1331500Y453750D02*
D03*
M02*
