G04*
G04 #@! TF.GenerationSoftware,Altium Limited,Altium Designer,20.0.12 (288)*
G04*
G04 Layer_Color=65535*
%FSLAX44Y44*%
%MOMM*%
G71*
G01*
G75*
%ADD10C,0.2000*%
%ADD11C,0.2540*%
%ADD12C,0.3000*%
%ADD13C,0.1750*%
%ADD14C,0.1270*%
%ADD15C,0.1000*%
G36*
X1711361Y801250D02*
X1371639D01*
Y838858D01*
X1711361D01*
Y801250D01*
D02*
G37*
G36*
X1511174Y782829D02*
X1511273D01*
X1511541Y782801D01*
X1511837Y782759D01*
X1512147Y782688D01*
X1512485Y782604D01*
X1512796Y782491D01*
X1512810D01*
X1512838Y782477D01*
X1512880Y782449D01*
X1512937Y782421D01*
X1513078Y782350D01*
X1513261Y782223D01*
X1513472Y782082D01*
X1513684Y781899D01*
X1513881Y781687D01*
X1514064Y781448D01*
Y781434D01*
X1514078Y781420D01*
X1514106Y781377D01*
X1514135Y781335D01*
X1514205Y781194D01*
X1514290Y781011D01*
X1514388Y780785D01*
X1514459Y780518D01*
X1514530Y780236D01*
X1514558Y779925D01*
X1513317Y779827D01*
Y779841D01*
Y779869D01*
X1513303Y779911D01*
X1513289Y779982D01*
X1513247Y780137D01*
X1513190Y780348D01*
X1513106Y780574D01*
X1512979Y780799D01*
X1512824Y781011D01*
X1512626Y781208D01*
X1512598Y781222D01*
X1512528Y781279D01*
X1512387Y781363D01*
X1512204Y781448D01*
X1511964Y781532D01*
X1511682Y781617D01*
X1511329Y781673D01*
X1510935Y781687D01*
X1510737D01*
X1510653Y781673D01*
X1510540Y781659D01*
X1510286Y781631D01*
X1510004Y781575D01*
X1509722Y781504D01*
X1509454Y781392D01*
X1509342Y781321D01*
X1509229Y781251D01*
X1509201Y781236D01*
X1509144Y781180D01*
X1509060Y781081D01*
X1508975Y780969D01*
X1508877Y780814D01*
X1508792Y780644D01*
X1508736Y780447D01*
X1508707Y780221D01*
Y780193D01*
Y780137D01*
X1508721Y780038D01*
X1508750Y779925D01*
X1508792Y779784D01*
X1508862Y779643D01*
X1508947Y779502D01*
X1509074Y779361D01*
X1509088Y779347D01*
X1509158Y779305D01*
X1509215Y779263D01*
X1509271Y779235D01*
X1509356Y779192D01*
X1509454Y779136D01*
X1509581Y779094D01*
X1509722Y779037D01*
X1509877Y778981D01*
X1510061Y778910D01*
X1510258Y778854D01*
X1510484Y778783D01*
X1510737Y778727D01*
X1511019Y778657D01*
X1511033D01*
X1511090Y778643D01*
X1511174Y778628D01*
X1511273Y778600D01*
X1511400Y778572D01*
X1511555Y778530D01*
X1511710Y778487D01*
X1511879Y778445D01*
X1512246Y778346D01*
X1512598Y778248D01*
X1512767Y778192D01*
X1512922Y778135D01*
X1513063Y778093D01*
X1513176Y778036D01*
X1513190D01*
X1513218Y778022D01*
X1513261Y777994D01*
X1513317Y777966D01*
X1513472Y777881D01*
X1513655Y777768D01*
X1513867Y777614D01*
X1514078Y777444D01*
X1514276Y777247D01*
X1514445Y777036D01*
X1514459Y777007D01*
X1514515Y776937D01*
X1514572Y776810D01*
X1514656Y776641D01*
X1514727Y776443D01*
X1514797Y776204D01*
X1514840Y775936D01*
X1514854Y775654D01*
Y775640D01*
Y775626D01*
Y775583D01*
Y775527D01*
X1514825Y775372D01*
X1514797Y775175D01*
X1514741Y774949D01*
X1514670Y774709D01*
X1514558Y774456D01*
X1514403Y774188D01*
Y774174D01*
X1514388Y774160D01*
X1514318Y774075D01*
X1514219Y773948D01*
X1514078Y773807D01*
X1513895Y773638D01*
X1513669Y773455D01*
X1513416Y773286D01*
X1513120Y773131D01*
X1513106D01*
X1513078Y773117D01*
X1513035Y773102D01*
X1512979Y773074D01*
X1512894Y773046D01*
X1512796Y773004D01*
X1512570Y772947D01*
X1512302Y772877D01*
X1511978Y772806D01*
X1511626Y772764D01*
X1511245Y772750D01*
X1511019D01*
X1510907Y772764D01*
X1510780D01*
X1510639Y772778D01*
X1510470Y772792D01*
X1510117Y772849D01*
X1509751Y772905D01*
X1509384Y773004D01*
X1509032Y773131D01*
X1509017D01*
X1508989Y773145D01*
X1508947Y773173D01*
X1508891Y773201D01*
X1508721Y773286D01*
X1508524Y773413D01*
X1508299Y773582D01*
X1508059Y773779D01*
X1507833Y774019D01*
X1507622Y774287D01*
Y774301D01*
X1507594Y774329D01*
X1507580Y774371D01*
X1507537Y774428D01*
X1507509Y774498D01*
X1507467Y774583D01*
X1507368Y774794D01*
X1507269Y775062D01*
X1507185Y775358D01*
X1507128Y775696D01*
X1507100Y776049D01*
X1508313Y776161D01*
Y776147D01*
Y776133D01*
X1508327Y776091D01*
Y776035D01*
X1508355Y775908D01*
X1508397Y775724D01*
X1508454Y775541D01*
X1508510Y775330D01*
X1508609Y775132D01*
X1508707Y774949D01*
X1508721Y774935D01*
X1508764Y774879D01*
X1508834Y774780D01*
X1508947Y774681D01*
X1509088Y774554D01*
X1509243Y774428D01*
X1509454Y774301D01*
X1509680Y774188D01*
X1509694D01*
X1509708Y774174D01*
X1509751Y774160D01*
X1509793Y774146D01*
X1509934Y774103D01*
X1510117Y774047D01*
X1510343Y773991D01*
X1510596Y773948D01*
X1510878Y773920D01*
X1511189Y773906D01*
X1511315D01*
X1511456Y773920D01*
X1511626Y773934D01*
X1511823Y773962D01*
X1512048Y773991D01*
X1512274Y774047D01*
X1512485Y774117D01*
X1512514Y774131D01*
X1512584Y774160D01*
X1512683Y774216D01*
X1512810Y774273D01*
X1512937Y774371D01*
X1513078Y774470D01*
X1513218Y774583D01*
X1513331Y774724D01*
X1513345Y774738D01*
X1513374Y774794D01*
X1513416Y774865D01*
X1513472Y774977D01*
X1513529Y775090D01*
X1513571Y775231D01*
X1513599Y775386D01*
X1513613Y775555D01*
Y775569D01*
Y775640D01*
X1513599Y775724D01*
X1513585Y775837D01*
X1513543Y775950D01*
X1513500Y776091D01*
X1513430Y776232D01*
X1513331Y776359D01*
X1513317Y776373D01*
X1513275Y776415D01*
X1513218Y776472D01*
X1513120Y776556D01*
X1513007Y776641D01*
X1512852Y776740D01*
X1512669Y776838D01*
X1512457Y776923D01*
X1512443Y776937D01*
X1512373Y776951D01*
X1512260Y776993D01*
X1512189Y777007D01*
X1512091Y777036D01*
X1511992Y777078D01*
X1511865Y777106D01*
X1511724Y777148D01*
X1511555Y777191D01*
X1511386Y777233D01*
X1511189Y777289D01*
X1510963Y777346D01*
X1510723Y777402D01*
X1510709D01*
X1510667Y777416D01*
X1510596Y777430D01*
X1510512Y777458D01*
X1510399Y777487D01*
X1510272Y777515D01*
X1509990Y777599D01*
X1509680Y777698D01*
X1509356Y777797D01*
X1509074Y777895D01*
X1508947Y777952D01*
X1508834Y778008D01*
X1508820D01*
X1508806Y778022D01*
X1508721Y778079D01*
X1508595Y778149D01*
X1508454Y778262D01*
X1508284Y778389D01*
X1508115Y778544D01*
X1507946Y778727D01*
X1507805Y778924D01*
X1507791Y778953D01*
X1507749Y779023D01*
X1507692Y779136D01*
X1507636Y779277D01*
X1507580Y779460D01*
X1507523Y779672D01*
X1507481Y779897D01*
X1507467Y780137D01*
Y780151D01*
Y780165D01*
Y780207D01*
Y780264D01*
X1507495Y780405D01*
X1507523Y780588D01*
X1507565Y780799D01*
X1507636Y781039D01*
X1507735Y781279D01*
X1507876Y781518D01*
Y781532D01*
X1507890Y781546D01*
X1507960Y781631D01*
X1508059Y781744D01*
X1508186Y781885D01*
X1508355Y782040D01*
X1508566Y782209D01*
X1508820Y782364D01*
X1509102Y782505D01*
X1509116D01*
X1509144Y782519D01*
X1509187Y782533D01*
X1509243Y782561D01*
X1509314Y782590D01*
X1509412Y782618D01*
X1509624Y782674D01*
X1509892Y782731D01*
X1510202Y782787D01*
X1510526Y782829D01*
X1510892Y782843D01*
X1511076D01*
X1511174Y782829D01*
D02*
G37*
G36*
X1453616D02*
X1453715D01*
X1453983Y782801D01*
X1454279Y782759D01*
X1454589Y782688D01*
X1454927Y782604D01*
X1455237Y782491D01*
X1455252D01*
X1455280Y782477D01*
X1455322Y782449D01*
X1455378Y782421D01*
X1455519Y782350D01*
X1455703Y782223D01*
X1455914Y782082D01*
X1456126Y781899D01*
X1456323Y781687D01*
X1456506Y781448D01*
Y781434D01*
X1456520Y781420D01*
X1456548Y781377D01*
X1456577Y781335D01*
X1456647Y781194D01*
X1456732Y781011D01*
X1456830Y780785D01*
X1456901Y780518D01*
X1456971Y780236D01*
X1457000Y779925D01*
X1455759Y779827D01*
Y779841D01*
Y779869D01*
X1455745Y779911D01*
X1455731Y779982D01*
X1455689Y780137D01*
X1455632Y780348D01*
X1455548Y780574D01*
X1455421Y780799D01*
X1455266Y781011D01*
X1455068Y781208D01*
X1455040Y781222D01*
X1454970Y781279D01*
X1454829Y781363D01*
X1454645Y781448D01*
X1454406Y781532D01*
X1454124Y781617D01*
X1453771Y781673D01*
X1453377Y781687D01*
X1453179D01*
X1453095Y781673D01*
X1452982Y781659D01*
X1452728Y781631D01*
X1452446Y781575D01*
X1452164Y781504D01*
X1451897Y781392D01*
X1451784Y781321D01*
X1451671Y781251D01*
X1451643Y781236D01*
X1451586Y781180D01*
X1451502Y781081D01*
X1451417Y780969D01*
X1451319Y780814D01*
X1451234Y780644D01*
X1451178Y780447D01*
X1451149Y780221D01*
Y780193D01*
Y780137D01*
X1451163Y780038D01*
X1451192Y779925D01*
X1451234Y779784D01*
X1451304Y779643D01*
X1451389Y779502D01*
X1451516Y779361D01*
X1451530Y779347D01*
X1451600Y779305D01*
X1451657Y779263D01*
X1451713Y779235D01*
X1451798Y779192D01*
X1451897Y779136D01*
X1452023Y779094D01*
X1452164Y779037D01*
X1452319Y778981D01*
X1452503Y778910D01*
X1452700Y778854D01*
X1452926Y778783D01*
X1453179Y778727D01*
X1453461Y778657D01*
X1453475D01*
X1453532Y778643D01*
X1453616Y778628D01*
X1453715Y778600D01*
X1453842Y778572D01*
X1453997Y778530D01*
X1454152Y778487D01*
X1454321Y778445D01*
X1454688Y778346D01*
X1455040Y778248D01*
X1455209Y778192D01*
X1455364Y778135D01*
X1455505Y778093D01*
X1455618Y778036D01*
X1455632D01*
X1455660Y778022D01*
X1455703Y777994D01*
X1455759Y777966D01*
X1455914Y777881D01*
X1456097Y777768D01*
X1456309Y777614D01*
X1456520Y777444D01*
X1456718Y777247D01*
X1456887Y777036D01*
X1456901Y777007D01*
X1456957Y776937D01*
X1457014Y776810D01*
X1457098Y776641D01*
X1457169Y776443D01*
X1457239Y776204D01*
X1457281Y775936D01*
X1457296Y775654D01*
Y775640D01*
Y775626D01*
Y775583D01*
Y775527D01*
X1457267Y775372D01*
X1457239Y775175D01*
X1457183Y774949D01*
X1457112Y774709D01*
X1457000Y774456D01*
X1456844Y774188D01*
Y774174D01*
X1456830Y774160D01*
X1456760Y774075D01*
X1456661Y773948D01*
X1456520Y773807D01*
X1456337Y773638D01*
X1456111Y773455D01*
X1455858Y773286D01*
X1455562Y773131D01*
X1455548D01*
X1455519Y773117D01*
X1455477Y773102D01*
X1455421Y773074D01*
X1455336Y773046D01*
X1455237Y773004D01*
X1455012Y772947D01*
X1454744Y772877D01*
X1454420Y772806D01*
X1454067Y772764D01*
X1453687Y772750D01*
X1453461D01*
X1453349Y772764D01*
X1453222D01*
X1453081Y772778D01*
X1452912Y772792D01*
X1452559Y772849D01*
X1452193Y772905D01*
X1451826Y773004D01*
X1451474Y773131D01*
X1451460D01*
X1451431Y773145D01*
X1451389Y773173D01*
X1451333Y773201D01*
X1451163Y773286D01*
X1450966Y773413D01*
X1450741Y773582D01*
X1450501Y773779D01*
X1450275Y774019D01*
X1450064Y774287D01*
Y774301D01*
X1450036Y774329D01*
X1450022Y774371D01*
X1449979Y774427D01*
X1449951Y774498D01*
X1449909Y774583D01*
X1449810Y774794D01*
X1449711Y775062D01*
X1449627Y775358D01*
X1449570Y775696D01*
X1449542Y776049D01*
X1450755Y776161D01*
Y776147D01*
Y776133D01*
X1450769Y776091D01*
Y776035D01*
X1450797Y775908D01*
X1450839Y775724D01*
X1450896Y775541D01*
X1450952Y775330D01*
X1451051Y775132D01*
X1451149Y774949D01*
X1451163Y774935D01*
X1451206Y774879D01*
X1451276Y774780D01*
X1451389Y774681D01*
X1451530Y774554D01*
X1451685Y774428D01*
X1451897Y774301D01*
X1452122Y774188D01*
X1452136D01*
X1452150Y774174D01*
X1452193Y774160D01*
X1452235Y774146D01*
X1452376Y774103D01*
X1452559Y774047D01*
X1452785Y773991D01*
X1453038Y773948D01*
X1453320Y773920D01*
X1453630Y773906D01*
X1453757D01*
X1453898Y773920D01*
X1454067Y773934D01*
X1454265Y773962D01*
X1454490Y773991D01*
X1454716Y774047D01*
X1454927Y774117D01*
X1454955Y774131D01*
X1455026Y774160D01*
X1455125Y774216D01*
X1455252Y774273D01*
X1455378Y774371D01*
X1455519Y774470D01*
X1455660Y774583D01*
X1455773Y774724D01*
X1455787Y774738D01*
X1455815Y774794D01*
X1455858Y774865D01*
X1455914Y774977D01*
X1455970Y775090D01*
X1456013Y775231D01*
X1456041Y775386D01*
X1456055Y775555D01*
Y775569D01*
Y775640D01*
X1456041Y775724D01*
X1456027Y775837D01*
X1455985Y775950D01*
X1455942Y776091D01*
X1455872Y776232D01*
X1455773Y776359D01*
X1455759Y776373D01*
X1455717Y776415D01*
X1455660Y776472D01*
X1455562Y776556D01*
X1455449Y776641D01*
X1455294Y776740D01*
X1455111Y776838D01*
X1454899Y776923D01*
X1454885Y776937D01*
X1454815Y776951D01*
X1454702Y776993D01*
X1454631Y777007D01*
X1454533Y777036D01*
X1454434Y777078D01*
X1454307Y777106D01*
X1454166Y777148D01*
X1453997Y777191D01*
X1453828Y777233D01*
X1453630Y777289D01*
X1453405Y777346D01*
X1453165Y777402D01*
X1453151D01*
X1453109Y777416D01*
X1453038Y777430D01*
X1452954Y777458D01*
X1452841Y777487D01*
X1452714Y777515D01*
X1452432Y777599D01*
X1452122Y777698D01*
X1451798Y777797D01*
X1451516Y777895D01*
X1451389Y777952D01*
X1451276Y778008D01*
X1451262D01*
X1451248Y778022D01*
X1451163Y778079D01*
X1451037Y778149D01*
X1450896Y778262D01*
X1450726Y778389D01*
X1450557Y778544D01*
X1450388Y778727D01*
X1450247Y778924D01*
X1450233Y778953D01*
X1450191Y779023D01*
X1450134Y779136D01*
X1450078Y779277D01*
X1450022Y779460D01*
X1449965Y779672D01*
X1449923Y779897D01*
X1449909Y780137D01*
Y780151D01*
Y780165D01*
Y780207D01*
Y780264D01*
X1449937Y780405D01*
X1449965Y780588D01*
X1450007Y780799D01*
X1450078Y781039D01*
X1450177Y781279D01*
X1450318Y781518D01*
Y781532D01*
X1450332Y781546D01*
X1450402Y781631D01*
X1450501Y781744D01*
X1450628Y781885D01*
X1450797Y782040D01*
X1451008Y782209D01*
X1451262Y782364D01*
X1451544Y782505D01*
X1451558D01*
X1451586Y782519D01*
X1451629Y782533D01*
X1451685Y782561D01*
X1451756Y782590D01*
X1451854Y782618D01*
X1452066Y782674D01*
X1452334Y782731D01*
X1452644Y782787D01*
X1452968Y782829D01*
X1453334Y782843D01*
X1453518D01*
X1453616Y782829D01*
D02*
G37*
G36*
X1475847Y772919D02*
X1474550D01*
Y777515D01*
X1469504D01*
Y772919D01*
X1468207D01*
Y782674D01*
X1469504D01*
Y778671D01*
X1474550D01*
Y782674D01*
X1475847D01*
Y772919D01*
D02*
G37*
G36*
X1462808Y778713D02*
X1467079Y772919D01*
X1465373D01*
X1461905Y777839D01*
X1460312Y776302D01*
Y772919D01*
X1459016D01*
Y782674D01*
X1460312D01*
Y777825D01*
X1465134Y782674D01*
X1466896D01*
X1462808Y778713D01*
D02*
G37*
G36*
X1395382Y778713D02*
X1399653Y772919D01*
X1397947D01*
X1394479Y777839D01*
X1392886Y776302D01*
Y772919D01*
X1391590D01*
Y782674D01*
X1392886D01*
Y777825D01*
X1397708Y782674D01*
X1399470D01*
X1395382Y778713D01*
D02*
G37*
G36*
X1533391Y772919D02*
X1532052D01*
X1526949Y780574D01*
Y772919D01*
X1525708D01*
Y782674D01*
X1527034D01*
X1532151Y775005D01*
Y782674D01*
X1533391D01*
Y772919D01*
D02*
G37*
G36*
X1494765D02*
X1493426D01*
X1488323Y780574D01*
Y772919D01*
X1487083D01*
Y782674D01*
X1488408D01*
X1493525Y775005D01*
Y782674D01*
X1494765D01*
Y772919D01*
D02*
G37*
G36*
X1385683Y772919D02*
X1384344D01*
X1379241Y780574D01*
Y772919D01*
X1378000D01*
Y782674D01*
X1379325D01*
X1384442Y775005D01*
Y782674D01*
X1385683D01*
Y772919D01*
D02*
G37*
G36*
X1564602Y781518D02*
X1558836D01*
Y778544D01*
X1564236D01*
Y777388D01*
X1558836D01*
Y774075D01*
X1564828D01*
Y772919D01*
X1557539D01*
Y782674D01*
X1564602D01*
Y781518D01*
D02*
G37*
G36*
X1555975D02*
X1550463Y774766D01*
X1549885Y774075D01*
X1556130D01*
Y772919D01*
X1548405D01*
Y774117D01*
X1553409Y780348D01*
Y780362D01*
X1553437Y780377D01*
X1553508Y780461D01*
X1553606Y780588D01*
X1553733Y780743D01*
X1553888Y780926D01*
X1554057Y781124D01*
X1554241Y781321D01*
X1554424Y781518D01*
X1548968D01*
Y782674D01*
X1555975D01*
Y781518D01*
D02*
G37*
G36*
X1543358Y782660D02*
X1543640Y782646D01*
X1543922Y782618D01*
X1544204Y782576D01*
X1544443Y782533D01*
X1544457D01*
X1544486Y782519D01*
X1544528D01*
X1544584Y782491D01*
X1544739Y782449D01*
X1544937Y782378D01*
X1545162Y782280D01*
X1545402Y782153D01*
X1545641Y782012D01*
X1545867Y781829D01*
X1545881Y781814D01*
X1545895Y781800D01*
X1545938Y781758D01*
X1545994Y781716D01*
X1546135Y781575D01*
X1546304Y781377D01*
X1546487Y781138D01*
X1546685Y780856D01*
X1546868Y780532D01*
X1547023Y780165D01*
Y780151D01*
X1547037Y780123D01*
X1547065Y780066D01*
X1547079Y779982D01*
X1547122Y779883D01*
X1547150Y779770D01*
X1547178Y779643D01*
X1547220Y779488D01*
X1547263Y779333D01*
X1547291Y779150D01*
X1547361Y778755D01*
X1547404Y778318D01*
X1547418Y777839D01*
Y777825D01*
Y777797D01*
Y777726D01*
Y777656D01*
X1547404Y777557D01*
Y777444D01*
X1547390Y777177D01*
X1547347Y776866D01*
X1547305Y776542D01*
X1547234Y776204D01*
X1547150Y775865D01*
Y775851D01*
X1547136Y775823D01*
X1547122Y775781D01*
X1547108Y775724D01*
X1547051Y775569D01*
X1546967Y775372D01*
X1546882Y775146D01*
X1546769Y774921D01*
X1546628Y774681D01*
X1546487Y774456D01*
X1546473Y774428D01*
X1546417Y774357D01*
X1546332Y774258D01*
X1546219Y774131D01*
X1546093Y773991D01*
X1545938Y773850D01*
X1545782Y773695D01*
X1545599Y773568D01*
X1545571Y773553D01*
X1545515Y773511D01*
X1545416Y773455D01*
X1545275Y773384D01*
X1545106Y773300D01*
X1544908Y773229D01*
X1544683Y773145D01*
X1544429Y773074D01*
X1544401D01*
X1544359Y773060D01*
X1544316Y773046D01*
X1544175Y773032D01*
X1543978Y773004D01*
X1543752Y772976D01*
X1543485Y772947D01*
X1543189Y772933D01*
X1542864Y772919D01*
X1539354D01*
Y782674D01*
X1543104D01*
X1543358Y782660D01*
D02*
G37*
G36*
X1537071Y772919D02*
X1535774D01*
Y782674D01*
X1537071D01*
Y772919D01*
D02*
G37*
G36*
X1524679D02*
X1523213D01*
X1522071Y775880D01*
X1517983D01*
X1516926Y772919D01*
X1515558D01*
X1519280Y782674D01*
X1520690D01*
X1524679Y772919D01*
D02*
G37*
G36*
X1485081Y781518D02*
X1479315D01*
Y778544D01*
X1484714D01*
Y777388D01*
X1479315D01*
Y774075D01*
X1485306D01*
Y772919D01*
X1478018D01*
Y782674D01*
X1485081D01*
Y781518D01*
D02*
G37*
G36*
X1448640Y781518D02*
X1445426D01*
Y772919D01*
X1444129D01*
Y781518D01*
X1440915D01*
Y782674D01*
X1448640D01*
Y781518D01*
D02*
G37*
G36*
X1436305D02*
X1430793Y774766D01*
X1430215Y774075D01*
X1436460D01*
Y772919D01*
X1428735D01*
Y774117D01*
X1433740Y780348D01*
Y780362D01*
X1433768Y780377D01*
X1433838Y780461D01*
X1433937Y780588D01*
X1434064Y780743D01*
X1434219Y780926D01*
X1434388Y781124D01*
X1434571Y781321D01*
X1434754Y781518D01*
X1429299D01*
Y782674D01*
X1436305D01*
Y781518D01*
D02*
G37*
G36*
X1412580Y774075D02*
X1417387D01*
Y772919D01*
X1411283D01*
Y782674D01*
X1412580D01*
Y774075D01*
D02*
G37*
G36*
X1389362Y772919D02*
X1388065D01*
Y782674D01*
X1389362D01*
Y772919D01*
D02*
G37*
G36*
X1501433Y782829D02*
X1501560D01*
X1501687Y782815D01*
X1501856Y782787D01*
X1502025Y782759D01*
X1502392Y782688D01*
X1502815Y782576D01*
X1503224Y782406D01*
X1503435Y782308D01*
X1503647Y782195D01*
X1503661Y782181D01*
X1503689Y782167D01*
X1503745Y782124D01*
X1503830Y782082D01*
X1503914Y782012D01*
X1504027Y781927D01*
X1504267Y781730D01*
X1504521Y781476D01*
X1504803Y781166D01*
X1505070Y780799D01*
X1505296Y780391D01*
Y780377D01*
X1505324Y780334D01*
X1505352Y780278D01*
X1505381Y780193D01*
X1505437Y780080D01*
X1505479Y779954D01*
X1505536Y779799D01*
X1505592Y779629D01*
X1505634Y779446D01*
X1505691Y779249D01*
X1505747Y779023D01*
X1505789Y778798D01*
X1505846Y778304D01*
X1505874Y777768D01*
Y777755D01*
Y777698D01*
Y777628D01*
X1505860Y777515D01*
Y777388D01*
X1505846Y777233D01*
X1505818Y777064D01*
X1505803Y776880D01*
X1505733Y776472D01*
X1505620Y776021D01*
X1505465Y775569D01*
X1505381Y775344D01*
X1505268Y775118D01*
Y775104D01*
X1505240Y775062D01*
X1505211Y775005D01*
X1505155Y774921D01*
X1505099Y774822D01*
X1505028Y774724D01*
X1504831Y774456D01*
X1504591Y774174D01*
X1504309Y773878D01*
X1503971Y773596D01*
X1503576Y773342D01*
X1503562D01*
X1503534Y773314D01*
X1503463Y773286D01*
X1503379Y773243D01*
X1503280Y773201D01*
X1503167Y773159D01*
X1503026Y773102D01*
X1502871Y773046D01*
X1502702Y772990D01*
X1502519Y772933D01*
X1502110Y772849D01*
X1501673Y772778D01*
X1501208Y772750D01*
X1501067D01*
X1500982Y772764D01*
X1500855D01*
X1500714Y772792D01*
X1500559Y772806D01*
X1500376Y772835D01*
X1499996Y772919D01*
X1499587Y773032D01*
X1499164Y773201D01*
X1498952Y773300D01*
X1498741Y773413D01*
X1498727Y773427D01*
X1498698Y773441D01*
X1498642Y773483D01*
X1498558Y773539D01*
X1498473Y773596D01*
X1498374Y773680D01*
X1498135Y773892D01*
X1497867Y774146D01*
X1497585Y774456D01*
X1497331Y774808D01*
X1497092Y775217D01*
Y775231D01*
X1497063Y775273D01*
X1497035Y775330D01*
X1497007Y775414D01*
X1496965Y775527D01*
X1496922Y775654D01*
X1496866Y775795D01*
X1496824Y775950D01*
X1496767Y776133D01*
X1496711Y776317D01*
X1496626Y776740D01*
X1496570Y777177D01*
X1496542Y777656D01*
Y777670D01*
Y777684D01*
Y777768D01*
X1496556Y777895D01*
Y778065D01*
X1496584Y778262D01*
X1496612Y778502D01*
X1496655Y778769D01*
X1496711Y779051D01*
X1496767Y779347D01*
X1496852Y779658D01*
X1496965Y779968D01*
X1497092Y780292D01*
X1497232Y780602D01*
X1497416Y780912D01*
X1497613Y781194D01*
X1497839Y781462D01*
X1497853Y781476D01*
X1497895Y781518D01*
X1497980Y781589D01*
X1498078Y781673D01*
X1498205Y781786D01*
X1498360Y781899D01*
X1498544Y782026D01*
X1498755Y782153D01*
X1498981Y782280D01*
X1499234Y782406D01*
X1499516Y782519D01*
X1499812Y782632D01*
X1500136Y782717D01*
X1500475Y782787D01*
X1500827Y782829D01*
X1501208Y782843D01*
X1501335D01*
X1501433Y782829D01*
D02*
G37*
G36*
X1423421Y782829D02*
X1423547D01*
X1423674Y782815D01*
X1423844Y782787D01*
X1424013Y782759D01*
X1424379Y782688D01*
X1424802Y782576D01*
X1425211Y782406D01*
X1425422Y782308D01*
X1425634Y782195D01*
X1425648Y782181D01*
X1425676Y782167D01*
X1425733Y782124D01*
X1425817Y782082D01*
X1425902Y782012D01*
X1426014Y781927D01*
X1426254Y781730D01*
X1426508Y781476D01*
X1426790Y781166D01*
X1427058Y780799D01*
X1427283Y780391D01*
Y780377D01*
X1427311Y780334D01*
X1427339Y780278D01*
X1427368Y780193D01*
X1427424Y780080D01*
X1427466Y779954D01*
X1427523Y779799D01*
X1427579Y779629D01*
X1427621Y779446D01*
X1427678Y779249D01*
X1427734Y779023D01*
X1427776Y778798D01*
X1427833Y778304D01*
X1427861Y777768D01*
Y777754D01*
Y777698D01*
Y777628D01*
X1427847Y777515D01*
Y777388D01*
X1427833Y777233D01*
X1427805Y777064D01*
X1427791Y776880D01*
X1427720Y776472D01*
X1427607Y776021D01*
X1427452Y775569D01*
X1427368Y775344D01*
X1427255Y775118D01*
Y775104D01*
X1427227Y775062D01*
X1427198Y775005D01*
X1427142Y774921D01*
X1427086Y774822D01*
X1427015Y774724D01*
X1426818Y774456D01*
X1426578Y774174D01*
X1426296Y773878D01*
X1425958Y773596D01*
X1425563Y773342D01*
X1425549D01*
X1425521Y773314D01*
X1425450Y773286D01*
X1425366Y773243D01*
X1425267Y773201D01*
X1425155Y773159D01*
X1425013Y773102D01*
X1424858Y773046D01*
X1424689Y772990D01*
X1424506Y772933D01*
X1424097Y772849D01*
X1423660Y772778D01*
X1423195Y772750D01*
X1423054D01*
X1422969Y772764D01*
X1422843D01*
X1422702Y772792D01*
X1422547Y772806D01*
X1422363Y772835D01*
X1421983Y772919D01*
X1421574Y773032D01*
X1421151Y773201D01*
X1420939Y773300D01*
X1420728Y773413D01*
X1420714Y773427D01*
X1420686Y773441D01*
X1420629Y773483D01*
X1420545Y773539D01*
X1420460Y773596D01*
X1420361Y773680D01*
X1420122Y773892D01*
X1419854Y774146D01*
X1419572Y774456D01*
X1419318Y774808D01*
X1419079Y775217D01*
Y775231D01*
X1419050Y775273D01*
X1419022Y775330D01*
X1418994Y775414D01*
X1418952Y775527D01*
X1418909Y775654D01*
X1418853Y775795D01*
X1418811Y775950D01*
X1418754Y776133D01*
X1418698Y776317D01*
X1418613Y776739D01*
X1418557Y777176D01*
X1418529Y777656D01*
Y777670D01*
Y777684D01*
Y777768D01*
X1418543Y777895D01*
Y778065D01*
X1418571Y778262D01*
X1418599Y778502D01*
X1418642Y778769D01*
X1418698Y779051D01*
X1418754Y779347D01*
X1418839Y779658D01*
X1418952Y779968D01*
X1419079Y780292D01*
X1419220Y780602D01*
X1419403Y780912D01*
X1419600Y781194D01*
X1419826Y781462D01*
X1419840Y781476D01*
X1419882Y781518D01*
X1419967Y781589D01*
X1420065Y781673D01*
X1420192Y781786D01*
X1420347Y781899D01*
X1420531Y782026D01*
X1420742Y782153D01*
X1420968Y782280D01*
X1421221Y782406D01*
X1421503Y782519D01*
X1421799Y782632D01*
X1422124Y782717D01*
X1422462Y782787D01*
X1422814Y782829D01*
X1423195Y782843D01*
X1423322D01*
X1423421Y782829D01*
D02*
G37*
G36*
X1405235D02*
X1405362D01*
X1405489Y782815D01*
X1405658Y782787D01*
X1405827Y782759D01*
X1406194Y782688D01*
X1406617Y782576D01*
X1407026Y782406D01*
X1407237Y782308D01*
X1407449Y782195D01*
X1407463Y782181D01*
X1407491Y782167D01*
X1407547Y782124D01*
X1407632Y782082D01*
X1407717Y782012D01*
X1407829Y781927D01*
X1408069Y781730D01*
X1408323Y781476D01*
X1408605Y781166D01*
X1408872Y780799D01*
X1409098Y780391D01*
Y780377D01*
X1409126Y780334D01*
X1409154Y780278D01*
X1409183Y780193D01*
X1409239Y780080D01*
X1409281Y779954D01*
X1409338Y779799D01*
X1409394Y779629D01*
X1409436Y779446D01*
X1409493Y779249D01*
X1409549Y779023D01*
X1409591Y778798D01*
X1409648Y778304D01*
X1409676Y777768D01*
Y777754D01*
Y777698D01*
Y777628D01*
X1409662Y777515D01*
Y777388D01*
X1409648Y777233D01*
X1409620Y777064D01*
X1409606Y776880D01*
X1409535Y776472D01*
X1409422Y776021D01*
X1409267Y775569D01*
X1409183Y775344D01*
X1409070Y775118D01*
Y775104D01*
X1409042Y775062D01*
X1409013Y775005D01*
X1408957Y774921D01*
X1408901Y774822D01*
X1408830Y774724D01*
X1408633Y774456D01*
X1408393Y774174D01*
X1408111Y773878D01*
X1407773Y773596D01*
X1407378Y773342D01*
X1407364D01*
X1407336Y773314D01*
X1407265Y773286D01*
X1407181Y773243D01*
X1407082Y773201D01*
X1406969Y773159D01*
X1406828Y773102D01*
X1406673Y773046D01*
X1406504Y772990D01*
X1406321Y772933D01*
X1405912Y772849D01*
X1405475Y772778D01*
X1405010Y772750D01*
X1404869D01*
X1404784Y772764D01*
X1404657D01*
X1404516Y772792D01*
X1404361Y772806D01*
X1404178Y772835D01*
X1403797Y772919D01*
X1403389Y773032D01*
X1402966Y773201D01*
X1402754Y773300D01*
X1402543Y773413D01*
X1402529Y773427D01*
X1402501Y773441D01*
X1402444Y773483D01*
X1402360Y773539D01*
X1402275Y773596D01*
X1402176Y773680D01*
X1401937Y773892D01*
X1401669Y774146D01*
X1401387Y774456D01*
X1401133Y774808D01*
X1400894Y775217D01*
Y775231D01*
X1400865Y775273D01*
X1400837Y775330D01*
X1400809Y775414D01*
X1400767Y775527D01*
X1400724Y775654D01*
X1400668Y775795D01*
X1400626Y775950D01*
X1400569Y776133D01*
X1400513Y776317D01*
X1400428Y776739D01*
X1400372Y777176D01*
X1400344Y777656D01*
Y777670D01*
Y777684D01*
Y777768D01*
X1400358Y777895D01*
Y778065D01*
X1400386Y778262D01*
X1400414Y778502D01*
X1400457Y778769D01*
X1400513Y779051D01*
X1400569Y779347D01*
X1400654Y779658D01*
X1400767Y779968D01*
X1400894Y780292D01*
X1401035Y780602D01*
X1401218Y780912D01*
X1401415Y781194D01*
X1401641Y781462D01*
X1401655Y781476D01*
X1401697Y781518D01*
X1401782Y781589D01*
X1401880Y781673D01*
X1402007Y781786D01*
X1402162Y781899D01*
X1402345Y782026D01*
X1402557Y782153D01*
X1402782Y782280D01*
X1403036Y782406D01*
X1403318Y782519D01*
X1403614Y782632D01*
X1403938Y782717D01*
X1404277Y782787D01*
X1404629Y782829D01*
X1405010Y782843D01*
X1405137D01*
X1405235Y782829D01*
D02*
G37*
G36*
X1506706Y797591D02*
X1506804D01*
X1507072Y797563D01*
X1507368Y797521D01*
X1507678Y797450D01*
X1508017Y797366D01*
X1508327Y797253D01*
X1508341D01*
X1508369Y797239D01*
X1508411Y797211D01*
X1508468Y797183D01*
X1508609Y797112D01*
X1508792Y796985D01*
X1509003Y796844D01*
X1509215Y796661D01*
X1509412Y796450D01*
X1509595Y796210D01*
Y796196D01*
X1509610Y796182D01*
X1509638Y796140D01*
X1509666Y796097D01*
X1509736Y795956D01*
X1509821Y795773D01*
X1509920Y795547D01*
X1509990Y795280D01*
X1510061Y794998D01*
X1510089Y794688D01*
X1508848Y794589D01*
Y794603D01*
Y794631D01*
X1508834Y794673D01*
X1508820Y794744D01*
X1508778Y794899D01*
X1508721Y795110D01*
X1508637Y795336D01*
X1508510Y795562D01*
X1508355Y795773D01*
X1508158Y795970D01*
X1508129Y795984D01*
X1508059Y796041D01*
X1507918Y796125D01*
X1507735Y796210D01*
X1507495Y796295D01*
X1507213Y796379D01*
X1506861Y796435D01*
X1506466Y796450D01*
X1506269D01*
X1506184Y796435D01*
X1506071Y796421D01*
X1505818Y796393D01*
X1505536Y796337D01*
X1505254Y796266D01*
X1504986Y796154D01*
X1504873Y796083D01*
X1504760Y796013D01*
X1504732Y795999D01*
X1504676Y795942D01*
X1504591Y795844D01*
X1504507Y795731D01*
X1504408Y795576D01*
X1504323Y795406D01*
X1504267Y795209D01*
X1504239Y794984D01*
Y794955D01*
Y794899D01*
X1504253Y794800D01*
X1504281Y794688D01*
X1504323Y794547D01*
X1504394Y794406D01*
X1504478Y794265D01*
X1504605Y794124D01*
X1504619Y794109D01*
X1504690Y794067D01*
X1504746Y794025D01*
X1504803Y793997D01*
X1504887Y793954D01*
X1504986Y793898D01*
X1505113Y793856D01*
X1505254Y793799D01*
X1505409Y793743D01*
X1505592Y793672D01*
X1505789Y793616D01*
X1506015Y793546D01*
X1506269Y793489D01*
X1506551Y793419D01*
X1506565D01*
X1506621Y793405D01*
X1506706Y793391D01*
X1506804Y793362D01*
X1506931Y793334D01*
X1507086Y793292D01*
X1507241Y793250D01*
X1507410Y793207D01*
X1507777Y793109D01*
X1508129Y793010D01*
X1508299Y792954D01*
X1508454Y792897D01*
X1508595Y792855D01*
X1508707Y792798D01*
X1508721D01*
X1508750Y792784D01*
X1508792Y792756D01*
X1508848Y792728D01*
X1509003Y792643D01*
X1509187Y792531D01*
X1509398Y792376D01*
X1509610Y792206D01*
X1509807Y792009D01*
X1509976Y791798D01*
X1509990Y791769D01*
X1510047Y791699D01*
X1510103Y791572D01*
X1510188Y791403D01*
X1510258Y791206D01*
X1510329Y790966D01*
X1510371Y790698D01*
X1510385Y790416D01*
Y790402D01*
Y790388D01*
Y790346D01*
Y790289D01*
X1510357Y790134D01*
X1510329Y789937D01*
X1510272Y789711D01*
X1510202Y789472D01*
X1510089Y789218D01*
X1509934Y788950D01*
Y788936D01*
X1509920Y788922D01*
X1509849Y788837D01*
X1509751Y788710D01*
X1509610Y788569D01*
X1509426Y788400D01*
X1509201Y788217D01*
X1508947Y788048D01*
X1508651Y787893D01*
X1508637D01*
X1508609Y787879D01*
X1508566Y787865D01*
X1508510Y787836D01*
X1508425Y787808D01*
X1508327Y787766D01*
X1508101Y787710D01*
X1507833Y787639D01*
X1507509Y787569D01*
X1507157Y787526D01*
X1506776Y787512D01*
X1506551D01*
X1506438Y787526D01*
X1506311D01*
X1506170Y787540D01*
X1506001Y787554D01*
X1505648Y787611D01*
X1505282Y787667D01*
X1504915Y787766D01*
X1504563Y787893D01*
X1504549D01*
X1504521Y787907D01*
X1504478Y787935D01*
X1504422Y787963D01*
X1504253Y788048D01*
X1504055Y788175D01*
X1503830Y788344D01*
X1503590Y788541D01*
X1503365Y788781D01*
X1503153Y789049D01*
Y789063D01*
X1503125Y789091D01*
X1503111Y789133D01*
X1503069Y789190D01*
X1503040Y789260D01*
X1502998Y789345D01*
X1502899Y789556D01*
X1502801Y789824D01*
X1502716Y790120D01*
X1502660Y790458D01*
X1502632Y790811D01*
X1503844Y790924D01*
Y790910D01*
Y790895D01*
X1503858Y790853D01*
Y790797D01*
X1503886Y790670D01*
X1503929Y790487D01*
X1503985Y790303D01*
X1504041Y790092D01*
X1504140Y789894D01*
X1504239Y789711D01*
X1504253Y789697D01*
X1504295Y789641D01*
X1504366Y789542D01*
X1504478Y789443D01*
X1504619Y789317D01*
X1504774Y789190D01*
X1504986Y789063D01*
X1505211Y788950D01*
X1505225D01*
X1505240Y788936D01*
X1505282Y788922D01*
X1505324Y788908D01*
X1505465Y788866D01*
X1505648Y788809D01*
X1505874Y788753D01*
X1506128Y788710D01*
X1506410Y788682D01*
X1506720Y788668D01*
X1506847D01*
X1506988Y788682D01*
X1507157Y788696D01*
X1507354Y788725D01*
X1507580Y788753D01*
X1507805Y788809D01*
X1508017Y788879D01*
X1508045Y788894D01*
X1508115Y788922D01*
X1508214Y788978D01*
X1508341Y789035D01*
X1508468Y789133D01*
X1508609Y789232D01*
X1508750Y789345D01*
X1508862Y789486D01*
X1508877Y789500D01*
X1508905Y789556D01*
X1508947Y789627D01*
X1509003Y789740D01*
X1509060Y789852D01*
X1509102Y789993D01*
X1509130Y790148D01*
X1509144Y790317D01*
Y790331D01*
Y790402D01*
X1509130Y790487D01*
X1509116Y790599D01*
X1509074Y790712D01*
X1509032Y790853D01*
X1508961Y790994D01*
X1508862Y791121D01*
X1508848Y791135D01*
X1508806Y791177D01*
X1508750Y791234D01*
X1508651Y791318D01*
X1508538Y791403D01*
X1508383Y791502D01*
X1508200Y791600D01*
X1507988Y791685D01*
X1507974Y791699D01*
X1507904Y791713D01*
X1507791Y791755D01*
X1507721Y791769D01*
X1507622Y791798D01*
X1507523Y791840D01*
X1507396Y791868D01*
X1507255Y791910D01*
X1507086Y791953D01*
X1506917Y791995D01*
X1506720Y792051D01*
X1506494Y792108D01*
X1506254Y792164D01*
X1506240D01*
X1506198Y792178D01*
X1506128Y792192D01*
X1506043Y792221D01*
X1505930Y792249D01*
X1505803Y792277D01*
X1505522Y792362D01*
X1505211Y792460D01*
X1504887Y792559D01*
X1504605Y792657D01*
X1504478Y792714D01*
X1504366Y792770D01*
X1504351D01*
X1504337Y792784D01*
X1504253Y792841D01*
X1504126Y792911D01*
X1503985Y793024D01*
X1503816Y793151D01*
X1503647Y793306D01*
X1503477Y793489D01*
X1503336Y793687D01*
X1503322Y793715D01*
X1503280Y793785D01*
X1503224Y793898D01*
X1503167Y794039D01*
X1503111Y794222D01*
X1503055Y794434D01*
X1503012Y794659D01*
X1502998Y794899D01*
Y794913D01*
Y794927D01*
Y794969D01*
Y795026D01*
X1503026Y795167D01*
X1503055Y795350D01*
X1503097Y795562D01*
X1503167Y795801D01*
X1503266Y796041D01*
X1503407Y796281D01*
Y796295D01*
X1503421Y796309D01*
X1503492Y796393D01*
X1503590Y796506D01*
X1503717Y796647D01*
X1503886Y796802D01*
X1504098Y796971D01*
X1504351Y797126D01*
X1504633Y797267D01*
X1504648D01*
X1504676Y797281D01*
X1504718Y797296D01*
X1504774Y797324D01*
X1504845Y797352D01*
X1504944Y797380D01*
X1505155Y797436D01*
X1505423Y797493D01*
X1505733Y797549D01*
X1506057Y797591D01*
X1506424Y797606D01*
X1506607D01*
X1506706Y797591D01*
D02*
G37*
G36*
X1469856Y787681D02*
X1468559D01*
Y792277D01*
X1463512D01*
Y787681D01*
X1462216D01*
Y797436D01*
X1463512D01*
Y793433D01*
X1468559D01*
Y797436D01*
X1469856D01*
Y787681D01*
D02*
G37*
G36*
X1397778Y793391D02*
X1396411D01*
Y794758D01*
X1397778D01*
Y793391D01*
D02*
G37*
G36*
X1391181Y791812D02*
Y787681D01*
X1389884D01*
Y791812D01*
X1386120Y797436D01*
X1387685D01*
X1389602Y794476D01*
Y794462D01*
X1389630Y794434D01*
X1389658Y794391D01*
X1389686Y794335D01*
X1389743Y794265D01*
X1389799Y794180D01*
X1389926Y793969D01*
X1390081Y793715D01*
X1390250Y793433D01*
X1390434Y793137D01*
X1390603Y792827D01*
Y792841D01*
X1390617Y792869D01*
X1390645Y792911D01*
X1390687Y792968D01*
X1390730Y793038D01*
X1390786Y793123D01*
X1390913Y793334D01*
X1391068Y793588D01*
X1391251Y793884D01*
X1391463Y794208D01*
X1391688Y794561D01*
X1393563Y797436D01*
X1395072D01*
X1391181Y791812D01*
D02*
G37*
G36*
X1456816Y793475D02*
X1461088Y787681D01*
X1459382D01*
X1455914Y792601D01*
X1454321Y791065D01*
Y787681D01*
X1453024D01*
Y797436D01*
X1454321D01*
Y792587D01*
X1459142Y797436D01*
X1460905D01*
X1456816Y793475D01*
D02*
G37*
G36*
X1433331Y793475D02*
X1437602Y787681D01*
X1435896D01*
X1432428Y792601D01*
X1430836Y791065D01*
Y787681D01*
X1429539D01*
Y797436D01*
X1430836D01*
Y792587D01*
X1435657Y797436D01*
X1437419D01*
X1433331Y793475D01*
D02*
G37*
G36*
X1491876Y787681D02*
X1490635D01*
Y795844D01*
X1487787Y787681D01*
X1486631D01*
X1483812Y795984D01*
Y787681D01*
X1482572D01*
Y797436D01*
X1484503D01*
X1486815Y790515D01*
Y790501D01*
X1486829Y790472D01*
X1486843Y790430D01*
X1486871Y790360D01*
X1486927Y790191D01*
X1486998Y789979D01*
X1487068Y789740D01*
X1487153Y789500D01*
X1487224Y789274D01*
X1487280Y789077D01*
X1487294Y789105D01*
X1487308Y789176D01*
X1487350Y789303D01*
X1487407Y789472D01*
X1487477Y789697D01*
X1487576Y789965D01*
X1487675Y790275D01*
X1487802Y790642D01*
X1490142Y797436D01*
X1491876D01*
Y787681D01*
D02*
G37*
G36*
X1519844Y791798D02*
Y791784D01*
Y791727D01*
Y791657D01*
Y791558D01*
X1519830Y791431D01*
Y791290D01*
X1519816Y791121D01*
X1519802Y790952D01*
X1519759Y790571D01*
X1519703Y790176D01*
X1519619Y789796D01*
X1519562Y789613D01*
X1519506Y789443D01*
Y789429D01*
X1519492Y789401D01*
X1519463Y789359D01*
X1519435Y789303D01*
X1519351Y789147D01*
X1519224Y788950D01*
X1519055Y788725D01*
X1518857Y788499D01*
X1518604Y788259D01*
X1518293Y788048D01*
X1518279D01*
X1518251Y788020D01*
X1518209Y788006D01*
X1518138Y787963D01*
X1518054Y787921D01*
X1517941Y787879D01*
X1517828Y787836D01*
X1517687Y787780D01*
X1517532Y787724D01*
X1517363Y787681D01*
X1517180Y787639D01*
X1516968Y787597D01*
X1516757Y787569D01*
X1516531Y787540D01*
X1516024Y787512D01*
X1515897D01*
X1515798Y787526D01*
X1515685D01*
X1515544Y787540D01*
X1515389Y787554D01*
X1515234Y787569D01*
X1514882Y787625D01*
X1514501Y787710D01*
X1514135Y787822D01*
X1513782Y787977D01*
X1513768D01*
X1513740Y788006D01*
X1513698Y788034D01*
X1513641Y788062D01*
X1513486Y788175D01*
X1513303Y788330D01*
X1513092Y788527D01*
X1512894Y788753D01*
X1512697Y789035D01*
X1512542Y789345D01*
Y789359D01*
X1512528Y789387D01*
X1512514Y789443D01*
X1512485Y789514D01*
X1512457Y789598D01*
X1512429Y789711D01*
X1512387Y789838D01*
X1512359Y789993D01*
X1512330Y790162D01*
X1512288Y790346D01*
X1512260Y790543D01*
X1512232Y790754D01*
X1512204Y790994D01*
X1512189Y791248D01*
X1512175Y791516D01*
Y791798D01*
Y797436D01*
X1513472D01*
Y791798D01*
Y791784D01*
Y791741D01*
Y791671D01*
Y791586D01*
X1513486Y791488D01*
Y791361D01*
X1513500Y791093D01*
X1513529Y790783D01*
X1513571Y790472D01*
X1513627Y790176D01*
X1513655Y790050D01*
X1513698Y789923D01*
X1513712Y789894D01*
X1513740Y789824D01*
X1513810Y789725D01*
X1513895Y789584D01*
X1513994Y789443D01*
X1514135Y789288D01*
X1514304Y789133D01*
X1514501Y789006D01*
X1514530Y788992D01*
X1514600Y788950D01*
X1514727Y788908D01*
X1514896Y788851D01*
X1515093Y788781D01*
X1515347Y788739D01*
X1515615Y788696D01*
X1515911Y788682D01*
X1516052D01*
X1516136Y788696D01*
X1516263D01*
X1516390Y788710D01*
X1516700Y788767D01*
X1517039Y788837D01*
X1517363Y788950D01*
X1517673Y789105D01*
X1517814Y789204D01*
X1517941Y789317D01*
X1517955Y789331D01*
X1517969Y789345D01*
X1517997Y789387D01*
X1518040Y789443D01*
X1518082Y789528D01*
X1518138Y789613D01*
X1518195Y789740D01*
X1518251Y789866D01*
X1518307Y790021D01*
X1518350Y790205D01*
X1518406Y790416D01*
X1518448Y790642D01*
X1518491Y790895D01*
X1518519Y791163D01*
X1518547Y791473D01*
Y791798D01*
Y797436D01*
X1519844D01*
Y791798D01*
D02*
G37*
G36*
X1560880Y796281D02*
X1555115D01*
Y793306D01*
X1560514D01*
Y792150D01*
X1555115D01*
Y788837D01*
X1561106D01*
Y787681D01*
X1553818D01*
Y797436D01*
X1560880D01*
Y796281D01*
D02*
G37*
G36*
X1552253D02*
X1546741Y789528D01*
X1546163Y788837D01*
X1552408D01*
Y787681D01*
X1544683D01*
Y788879D01*
X1549687Y795110D01*
Y795125D01*
X1549716Y795139D01*
X1549786Y795223D01*
X1549885Y795350D01*
X1550012Y795505D01*
X1550167Y795688D01*
X1550336Y795886D01*
X1550519Y796083D01*
X1550702Y796281D01*
X1545247D01*
Y797436D01*
X1552253D01*
Y796281D01*
D02*
G37*
G36*
X1539636Y797422D02*
X1539918Y797408D01*
X1540200Y797380D01*
X1540482Y797338D01*
X1540722Y797296D01*
X1540736D01*
X1540764Y797281D01*
X1540806D01*
X1540863Y797253D01*
X1541018Y797211D01*
X1541215Y797140D01*
X1541441Y797042D01*
X1541680Y796915D01*
X1541920Y796774D01*
X1542146Y796591D01*
X1542160Y796577D01*
X1542174Y796562D01*
X1542216Y796520D01*
X1542272Y796478D01*
X1542413Y796337D01*
X1542583Y796140D01*
X1542766Y795900D01*
X1542963Y795618D01*
X1543146Y795294D01*
X1543301Y794927D01*
Y794913D01*
X1543315Y794885D01*
X1543344Y794828D01*
X1543358Y794744D01*
X1543400Y794645D01*
X1543428Y794532D01*
X1543457Y794406D01*
X1543499Y794250D01*
X1543541Y794095D01*
X1543569Y793912D01*
X1543640Y793518D01*
X1543682Y793081D01*
X1543696Y792601D01*
Y792587D01*
Y792559D01*
Y792488D01*
Y792418D01*
X1543682Y792319D01*
Y792206D01*
X1543668Y791939D01*
X1543626Y791628D01*
X1543583Y791304D01*
X1543513Y790966D01*
X1543428Y790628D01*
Y790613D01*
X1543414Y790585D01*
X1543400Y790543D01*
X1543386Y790487D01*
X1543330Y790331D01*
X1543245Y790134D01*
X1543161Y789909D01*
X1543048Y789683D01*
X1542907Y789443D01*
X1542766Y789218D01*
X1542752Y789190D01*
X1542695Y789119D01*
X1542611Y789020D01*
X1542498Y788894D01*
X1542371Y788753D01*
X1542216Y788612D01*
X1542061Y788457D01*
X1541878Y788330D01*
X1541849Y788316D01*
X1541793Y788273D01*
X1541694Y788217D01*
X1541553Y788147D01*
X1541384Y788062D01*
X1541187Y787991D01*
X1540961Y787907D01*
X1540708Y787836D01*
X1540679D01*
X1540637Y787822D01*
X1540595Y787808D01*
X1540454Y787794D01*
X1540257Y787766D01*
X1540031Y787738D01*
X1539763Y787710D01*
X1539467Y787695D01*
X1539143Y787681D01*
X1535633D01*
Y797436D01*
X1539382D01*
X1539636Y797422D01*
D02*
G37*
G36*
X1533349Y787681D02*
X1532052D01*
Y797436D01*
X1533349D01*
Y787681D01*
D02*
G37*
G36*
X1526653Y797422D02*
X1526780D01*
X1527076Y797408D01*
X1527386Y797366D01*
X1527724Y797324D01*
X1528034Y797253D01*
X1528190Y797211D01*
X1528316Y797169D01*
X1528330D01*
X1528345Y797154D01*
X1528429Y797112D01*
X1528556Y797056D01*
X1528711Y796957D01*
X1528880Y796830D01*
X1529064Y796661D01*
X1529233Y796464D01*
X1529402Y796238D01*
Y796224D01*
X1529416Y796210D01*
X1529472Y796125D01*
X1529529Y795984D01*
X1529613Y795801D01*
X1529684Y795590D01*
X1529754Y795336D01*
X1529796Y795068D01*
X1529811Y794772D01*
Y794758D01*
Y794730D01*
Y794673D01*
X1529796Y794603D01*
Y794504D01*
X1529782Y794406D01*
X1529726Y794166D01*
X1529641Y793884D01*
X1529529Y793588D01*
X1529359Y793292D01*
X1529247Y793151D01*
X1529134Y793010D01*
X1529120Y792996D01*
X1529106Y792982D01*
X1529064Y792940D01*
X1529007Y792897D01*
X1528937Y792841D01*
X1528852Y792784D01*
X1528739Y792714D01*
X1528627Y792629D01*
X1528486Y792559D01*
X1528330Y792488D01*
X1528161Y792404D01*
X1527978Y792333D01*
X1527767Y792277D01*
X1527555Y792206D01*
X1527315Y792164D01*
X1527062Y792122D01*
X1527090Y792108D01*
X1527146Y792080D01*
X1527231Y792023D01*
X1527344Y791967D01*
X1527597Y791812D01*
X1527724Y791713D01*
X1527837Y791628D01*
X1527865Y791600D01*
X1527936Y791530D01*
X1528049Y791417D01*
X1528190Y791276D01*
X1528345Y791079D01*
X1528528Y790867D01*
X1528711Y790613D01*
X1528908Y790331D01*
X1530586Y787681D01*
X1528979D01*
X1527696Y789711D01*
Y789725D01*
X1527668Y789754D01*
X1527640Y789796D01*
X1527597Y789852D01*
X1527499Y790007D01*
X1527372Y790205D01*
X1527217Y790416D01*
X1527062Y790642D01*
X1526907Y790853D01*
X1526766Y791050D01*
X1526752Y791065D01*
X1526709Y791121D01*
X1526639Y791206D01*
X1526540Y791304D01*
X1526329Y791516D01*
X1526216Y791614D01*
X1526103Y791699D01*
X1526089Y791713D01*
X1526061Y791727D01*
X1526004Y791755D01*
X1525920Y791798D01*
X1525835Y791840D01*
X1525737Y791882D01*
X1525511Y791953D01*
X1525497D01*
X1525469Y791967D01*
X1525412D01*
X1525342Y791981D01*
X1525243Y791995D01*
X1525130D01*
X1524975Y792009D01*
X1523312D01*
Y787681D01*
X1522015D01*
Y797436D01*
X1526540D01*
X1526653Y797422D01*
D02*
G37*
G36*
X1502025Y787681D02*
X1500559D01*
X1499418Y790642D01*
X1495329D01*
X1494272Y787681D01*
X1492905D01*
X1496626Y797436D01*
X1498036D01*
X1502025Y787681D01*
D02*
G37*
G36*
X1427579Y796280D02*
X1421814D01*
Y793306D01*
X1427213D01*
Y792150D01*
X1421814D01*
Y788837D01*
X1427805D01*
Y787681D01*
X1420517D01*
Y797436D01*
X1427579D01*
Y796280D01*
D02*
G37*
G36*
X1414159Y788837D02*
X1418966D01*
Y787681D01*
X1412862D01*
Y797436D01*
X1414159D01*
Y788837D01*
D02*
G37*
G36*
X1411875Y787681D02*
X1410409D01*
X1409267Y790642D01*
X1405179D01*
X1404122Y787681D01*
X1402754D01*
X1406476Y797436D01*
X1407886D01*
X1411875Y787681D01*
D02*
G37*
G36*
X1397778D02*
X1396411D01*
Y789049D01*
X1397778D01*
Y787681D01*
D02*
G37*
G36*
X1381933Y797422D02*
X1382046D01*
X1382300Y797394D01*
X1382581Y797366D01*
X1382878Y797309D01*
X1383174Y797239D01*
X1383441Y797140D01*
X1383456D01*
X1383470Y797126D01*
X1383554Y797084D01*
X1383681Y797013D01*
X1383822Y796915D01*
X1383991Y796788D01*
X1384174Y796633D01*
X1384344Y796435D01*
X1384499Y796224D01*
X1384513Y796196D01*
X1384555Y796111D01*
X1384626Y795999D01*
X1384696Y795829D01*
X1384767Y795632D01*
X1384837Y795421D01*
X1384879Y795181D01*
X1384893Y794941D01*
Y794913D01*
Y794843D01*
X1384879Y794716D01*
X1384851Y794561D01*
X1384809Y794377D01*
X1384738Y794180D01*
X1384654Y793983D01*
X1384541Y793771D01*
X1384527Y793743D01*
X1384485Y793687D01*
X1384400Y793574D01*
X1384287Y793461D01*
X1384146Y793320D01*
X1383977Y793165D01*
X1383766Y793024D01*
X1383526Y792883D01*
X1383540D01*
X1383568Y792869D01*
X1383611Y792855D01*
X1383667Y792827D01*
X1383836Y792770D01*
X1384034Y792672D01*
X1384245Y792545D01*
X1384485Y792390D01*
X1384696Y792206D01*
X1384893Y791981D01*
X1384908Y791953D01*
X1384964Y791868D01*
X1385049Y791741D01*
X1385133Y791572D01*
X1385218Y791347D01*
X1385302Y791107D01*
X1385359Y790825D01*
X1385373Y790515D01*
Y790501D01*
Y790487D01*
Y790402D01*
X1385359Y790261D01*
X1385331Y790092D01*
X1385302Y789894D01*
X1385246Y789683D01*
X1385175Y789457D01*
X1385077Y789232D01*
X1385063Y789204D01*
X1385020Y789133D01*
X1384964Y789035D01*
X1384879Y788894D01*
X1384767Y788753D01*
X1384654Y788598D01*
X1384513Y788443D01*
X1384358Y788316D01*
X1384344Y788301D01*
X1384287Y788259D01*
X1384189Y788203D01*
X1384062Y788147D01*
X1383907Y788062D01*
X1383723Y787977D01*
X1383526Y787907D01*
X1383286Y787836D01*
X1383258D01*
X1383174Y787808D01*
X1383033Y787794D01*
X1382849Y787766D01*
X1382624Y787738D01*
X1382356Y787710D01*
X1382060Y787695D01*
X1381722Y787681D01*
X1378000D01*
Y797436D01*
X1381834D01*
X1381933Y797422D01*
D02*
G37*
G36*
X1476510Y797591D02*
X1476637D01*
X1476764Y797577D01*
X1476933Y797549D01*
X1477102Y797521D01*
X1477468Y797450D01*
X1477891Y797338D01*
X1478300Y797169D01*
X1478512Y797070D01*
X1478723Y796957D01*
X1478737Y796943D01*
X1478765Y796929D01*
X1478822Y796887D01*
X1478906Y796844D01*
X1478991Y796774D01*
X1479104Y796689D01*
X1479343Y796492D01*
X1479597Y796238D01*
X1479879Y795928D01*
X1480147Y795562D01*
X1480372Y795153D01*
Y795139D01*
X1480401Y795096D01*
X1480429Y795040D01*
X1480457Y794955D01*
X1480513Y794843D01*
X1480556Y794716D01*
X1480612Y794561D01*
X1480668Y794391D01*
X1480711Y794208D01*
X1480767Y794011D01*
X1480824Y793785D01*
X1480866Y793560D01*
X1480922Y793066D01*
X1480950Y792531D01*
Y792517D01*
Y792460D01*
Y792390D01*
X1480936Y792277D01*
Y792150D01*
X1480922Y791995D01*
X1480894Y791826D01*
X1480880Y791643D01*
X1480809Y791234D01*
X1480697Y790783D01*
X1480542Y790331D01*
X1480457Y790106D01*
X1480344Y789880D01*
Y789866D01*
X1480316Y789824D01*
X1480288Y789768D01*
X1480231Y789683D01*
X1480175Y789584D01*
X1480105Y789486D01*
X1479907Y789218D01*
X1479668Y788936D01*
X1479386Y788640D01*
X1479047Y788358D01*
X1478653Y788104D01*
X1478638D01*
X1478610Y788076D01*
X1478540Y788048D01*
X1478455Y788006D01*
X1478357Y787963D01*
X1478244Y787921D01*
X1478103Y787865D01*
X1477948Y787808D01*
X1477779Y787752D01*
X1477595Y787695D01*
X1477186Y787611D01*
X1476750Y787540D01*
X1476284Y787512D01*
X1476143D01*
X1476059Y787526D01*
X1475932D01*
X1475791Y787554D01*
X1475636Y787569D01*
X1475453Y787597D01*
X1475072Y787681D01*
X1474663Y787794D01*
X1474240Y787963D01*
X1474029Y788062D01*
X1473817Y788175D01*
X1473803Y788189D01*
X1473775Y788203D01*
X1473719Y788245D01*
X1473634Y788302D01*
X1473549Y788358D01*
X1473451Y788443D01*
X1473211Y788654D01*
X1472943Y788908D01*
X1472661Y789218D01*
X1472408Y789570D01*
X1472168Y789979D01*
Y789993D01*
X1472140Y790035D01*
X1472112Y790092D01*
X1472083Y790176D01*
X1472041Y790289D01*
X1471999Y790416D01*
X1471942Y790557D01*
X1471900Y790712D01*
X1471844Y790895D01*
X1471787Y791079D01*
X1471703Y791502D01*
X1471646Y791939D01*
X1471618Y792418D01*
Y792432D01*
Y792446D01*
Y792531D01*
X1471632Y792657D01*
Y792827D01*
X1471660Y793024D01*
X1471689Y793264D01*
X1471731Y793532D01*
X1471787Y793813D01*
X1471844Y794109D01*
X1471928Y794420D01*
X1472041Y794730D01*
X1472168Y795054D01*
X1472309Y795364D01*
X1472492Y795674D01*
X1472690Y795956D01*
X1472915Y796224D01*
X1472929Y796238D01*
X1472971Y796281D01*
X1473056Y796351D01*
X1473155Y796435D01*
X1473282Y796548D01*
X1473437Y796661D01*
X1473620Y796788D01*
X1473831Y796915D01*
X1474057Y797042D01*
X1474311Y797169D01*
X1474593Y797281D01*
X1474889Y797394D01*
X1475213Y797479D01*
X1475551Y797549D01*
X1475904Y797591D01*
X1476284Y797606D01*
X1476411D01*
X1476510Y797591D01*
D02*
G37*
G36*
X1443185Y797591D02*
X1443311D01*
X1443438Y797577D01*
X1443607Y797549D01*
X1443777Y797521D01*
X1444143Y797450D01*
X1444566Y797338D01*
X1444975Y797169D01*
X1445186Y797070D01*
X1445398Y796957D01*
X1445412Y796943D01*
X1445440Y796929D01*
X1445496Y796887D01*
X1445581Y796844D01*
X1445666Y796774D01*
X1445778Y796689D01*
X1446018Y796492D01*
X1446272Y796238D01*
X1446554Y795928D01*
X1446822Y795562D01*
X1447047Y795153D01*
Y795139D01*
X1447075Y795096D01*
X1447103Y795040D01*
X1447132Y794955D01*
X1447188Y794843D01*
X1447230Y794716D01*
X1447287Y794561D01*
X1447343Y794391D01*
X1447385Y794208D01*
X1447442Y794011D01*
X1447498Y793785D01*
X1447540Y793560D01*
X1447597Y793066D01*
X1447625Y792531D01*
Y792517D01*
Y792460D01*
Y792390D01*
X1447611Y792277D01*
Y792150D01*
X1447597Y791995D01*
X1447569Y791826D01*
X1447555Y791643D01*
X1447484Y791234D01*
X1447371Y790783D01*
X1447216Y790331D01*
X1447132Y790106D01*
X1447019Y789880D01*
Y789866D01*
X1446991Y789824D01*
X1446962Y789768D01*
X1446906Y789683D01*
X1446850Y789584D01*
X1446779Y789486D01*
X1446582Y789218D01*
X1446342Y788936D01*
X1446060Y788640D01*
X1445722Y788358D01*
X1445327Y788104D01*
X1445313D01*
X1445285Y788076D01*
X1445215Y788048D01*
X1445130Y788006D01*
X1445031Y787963D01*
X1444919Y787921D01*
X1444778Y787865D01*
X1444622Y787808D01*
X1444453Y787752D01*
X1444270Y787695D01*
X1443861Y787611D01*
X1443424Y787540D01*
X1442959Y787512D01*
X1442818D01*
X1442733Y787526D01*
X1442607D01*
X1442466Y787554D01*
X1442310Y787569D01*
X1442127Y787597D01*
X1441747Y787681D01*
X1441338Y787794D01*
X1440915Y787963D01*
X1440703Y788062D01*
X1440492Y788175D01*
X1440478Y788189D01*
X1440450Y788203D01*
X1440393Y788245D01*
X1440309Y788301D01*
X1440224Y788358D01*
X1440125Y788443D01*
X1439886Y788654D01*
X1439618Y788908D01*
X1439336Y789218D01*
X1439082Y789570D01*
X1438843Y789979D01*
Y789993D01*
X1438815Y790035D01*
X1438786Y790092D01*
X1438758Y790176D01*
X1438716Y790289D01*
X1438674Y790416D01*
X1438617Y790557D01*
X1438575Y790712D01*
X1438518Y790895D01*
X1438462Y791079D01*
X1438378Y791502D01*
X1438321Y791939D01*
X1438293Y792418D01*
Y792432D01*
Y792446D01*
Y792531D01*
X1438307Y792657D01*
Y792827D01*
X1438335Y793024D01*
X1438363Y793264D01*
X1438406Y793531D01*
X1438462Y793813D01*
X1438518Y794109D01*
X1438603Y794420D01*
X1438716Y794730D01*
X1438843Y795054D01*
X1438984Y795364D01*
X1439167Y795674D01*
X1439364Y795956D01*
X1439590Y796224D01*
X1439604Y796238D01*
X1439646Y796280D01*
X1439731Y796351D01*
X1439830Y796435D01*
X1439956Y796548D01*
X1440111Y796661D01*
X1440295Y796788D01*
X1440506Y796915D01*
X1440732Y797042D01*
X1440985Y797169D01*
X1441267Y797281D01*
X1441563Y797394D01*
X1441888Y797479D01*
X1442226Y797549D01*
X1442578Y797591D01*
X1442959Y797606D01*
X1443086D01*
X1443185Y797591D01*
D02*
G37*
G36*
X1564419Y787681D02*
Y787667D01*
Y787653D01*
Y787611D01*
Y787554D01*
X1564405Y787428D01*
X1564391Y787244D01*
X1564348Y787061D01*
X1564306Y786850D01*
X1564236Y786652D01*
X1564151Y786469D01*
X1564137Y786455D01*
X1564095Y786398D01*
X1564038Y786314D01*
X1563939Y786201D01*
X1563827Y786088D01*
X1563686Y785976D01*
X1563502Y785849D01*
X1563305Y785750D01*
X1562967Y786257D01*
X1562981Y786272D01*
X1563023Y786286D01*
X1563094Y786328D01*
X1563178Y786384D01*
X1563263Y786455D01*
X1563362Y786539D01*
X1563446Y786638D01*
X1563517Y786751D01*
X1563531Y786765D01*
X1563545Y786807D01*
X1563573Y786892D01*
X1563615Y786991D01*
X1563643Y787117D01*
X1563686Y787287D01*
X1563714Y787470D01*
X1563728Y787681D01*
X1563051D01*
Y789049D01*
X1564419D01*
Y787681D01*
D02*
G37*
G36*
X1534823Y573439D02*
X1498177D01*
Y589561D01*
X1534823D01*
Y573439D01*
D02*
G37*
G36*
X1661338Y543372D02*
X1583162D01*
Y559128D01*
X1661338D01*
Y543372D01*
D02*
G37*
G36*
X1460226Y629094D02*
X1414275D01*
Y644906D01*
X1460226D01*
Y629094D01*
D02*
G37*
G36*
X1381240Y566689D02*
X1349260D01*
Y582811D01*
X1381240D01*
Y566689D01*
D02*
G37*
G36*
X1428539Y566753D02*
X1398461D01*
Y582747D01*
X1428539D01*
Y566753D01*
D02*
G37*
G36*
X1327561Y334787D02*
X1311439D01*
Y391213D01*
X1327561D01*
Y334787D01*
D02*
G37*
%LPC*%
G36*
X1663931Y828153D02*
X1661431D01*
X1661200Y827621D01*
X1660899Y827135D01*
X1660575Y826672D01*
X1660251Y826302D01*
X1659974Y826001D01*
X1659719Y825770D01*
X1659627Y825677D01*
X1659557Y825608D01*
X1659511Y825584D01*
X1659488Y825561D01*
X1658979Y825191D01*
X1658493Y824867D01*
X1658053Y824613D01*
X1657660Y824428D01*
X1657336Y824289D01*
X1657104Y824173D01*
X1657012Y824150D01*
X1656942Y824127D01*
X1656919Y824104D01*
X1656896D01*
Y824775D01*
Y812048D01*
X1663931D01*
Y828153D01*
D02*
G37*
G36*
X1645257D02*
X1642758D01*
X1642527Y827621D01*
X1642226Y827135D01*
X1641902Y826672D01*
X1641578Y826302D01*
X1641300Y826001D01*
X1641046Y825770D01*
X1640953Y825677D01*
X1640884Y825608D01*
X1640837Y825584D01*
X1640814Y825561D01*
X1640305Y825191D01*
X1639819Y824867D01*
X1639380Y824613D01*
X1638986Y824428D01*
X1638662Y824289D01*
X1638431Y824173D01*
X1638338Y824150D01*
X1638269Y824127D01*
X1638246Y824104D01*
X1638223D01*
D01*
D01*
Y812048D01*
Y821327D01*
X1639056Y821651D01*
X1639796Y821998D01*
X1640143Y822183D01*
X1640467Y822391D01*
X1640768Y822576D01*
X1641046Y822762D01*
X1641300Y822947D01*
X1641532Y823109D01*
X1641717Y823248D01*
X1641879Y823386D01*
X1642018Y823502D01*
X1642110Y823571D01*
X1642156Y823618D01*
X1642180Y823641D01*
Y812048D01*
X1638223D01*
X1645257D01*
Y828153D01*
D02*
G37*
G36*
X1530925Y828361D02*
X1524331D01*
X1523660Y828338D01*
X1523058Y828269D01*
X1522526Y828176D01*
X1522063Y828084D01*
X1521855Y828014D01*
X1521669Y827968D01*
X1521531Y827922D01*
X1521392Y827875D01*
X1521299Y827829D01*
X1521230Y827806D01*
X1521184Y827783D01*
X1521160D01*
X1520698Y827551D01*
X1520304Y827297D01*
X1519957Y827019D01*
X1519680Y826765D01*
X1519448Y826533D01*
X1519309Y826348D01*
X1519194Y826209D01*
X1519171Y826186D01*
Y826163D01*
X1518939Y825770D01*
X1518777Y825353D01*
X1518661Y824960D01*
X1518592Y824613D01*
X1518546Y824312D01*
X1518499Y824080D01*
Y823988D01*
Y823919D01*
Y823895D01*
Y823872D01*
X1518523Y823525D01*
X1518569Y823178D01*
X1518638Y822877D01*
X1518731Y822576D01*
X1518962Y822021D01*
X1519240Y821535D01*
X1519356Y821327D01*
X1519494Y821165D01*
X1519610Y821003D01*
X1519726Y820864D01*
X1519818Y820771D01*
X1519888Y820702D01*
X1519934Y820656D01*
X1519957Y820633D01*
X1520166Y820471D01*
X1520420Y820309D01*
X1520674Y820147D01*
X1520975Y820008D01*
X1521554Y819730D01*
X1522155Y819499D01*
X1522456Y819406D01*
X1522711Y819314D01*
X1522965Y819244D01*
X1523174Y819175D01*
X1523336Y819129D01*
X1523474Y819082D01*
X1523567Y819059D01*
X1523590D01*
X1523960Y818967D01*
X1524284Y818874D01*
X1524585Y818805D01*
X1524863Y818735D01*
X1525094Y818666D01*
X1525302Y818620D01*
X1525488Y818550D01*
X1525650Y818504D01*
X1525788Y818481D01*
X1525904Y818434D01*
X1526066Y818388D01*
X1526159Y818342D01*
X1526182D01*
X1526483Y818226D01*
X1526714Y818111D01*
X1526922Y817995D01*
X1527084Y817879D01*
X1527200Y817786D01*
X1527269Y817717D01*
X1527316Y817671D01*
X1527339Y817648D01*
X1527454Y817486D01*
X1527547Y817324D01*
X1527593Y817162D01*
X1527639Y817023D01*
X1527663Y816884D01*
X1527686Y816768D01*
Y816699D01*
Y816676D01*
X1527663Y816352D01*
X1527570Y816074D01*
X1527431Y815797D01*
X1527292Y815565D01*
X1527130Y815380D01*
X1527015Y815241D01*
X1526922Y815149D01*
X1526876Y815126D01*
X1526552Y814917D01*
X1526182Y814755D01*
X1525788Y814640D01*
X1525418Y814570D01*
X1525071Y814524D01*
X1524793Y814478D01*
X1524539D01*
X1524007Y814501D01*
X1523544Y814593D01*
X1523150Y814709D01*
X1522803Y814848D01*
X1522526Y814987D01*
X1522341Y815102D01*
X1522225Y815195D01*
X1522179Y815218D01*
X1521878Y815542D01*
X1521646Y815889D01*
X1521438Y816283D01*
X1521299Y816676D01*
X1521184Y817023D01*
X1521091Y817301D01*
X1521068Y817393D01*
Y817486D01*
X1521045Y817532D01*
Y817555D01*
X1517898Y817254D01*
X1517967Y816768D01*
X1518060Y816306D01*
X1518199Y815866D01*
X1518314Y815473D01*
X1518476Y815102D01*
X1518638Y814755D01*
X1518800Y814454D01*
X1518962Y814177D01*
X1519124Y813945D01*
X1519286Y813737D01*
X1519425Y813552D01*
X1519564Y813390D01*
X1519656Y813274D01*
X1519749Y813205D01*
X1519795Y813159D01*
X1519818Y813136D01*
X1520142Y812881D01*
X1520489Y812673D01*
X1520860Y812488D01*
X1521253Y812326D01*
X1521623Y812210D01*
X1522017Y812094D01*
X1522780Y811932D01*
X1523127Y811863D01*
X1523451Y811817D01*
X1523729Y811793D01*
X1523983Y811770D01*
X1524192Y811747D01*
X1530925D01*
X1524492D01*
X1525233Y811770D01*
X1525904Y811840D01*
X1526506Y811932D01*
X1526760Y811979D01*
X1527015Y812048D01*
X1527223Y812094D01*
X1527408Y812141D01*
X1527570Y812187D01*
X1527709Y812233D01*
X1527825Y812279D01*
X1527894Y812302D01*
X1527940Y812326D01*
X1527963D01*
X1528472Y812580D01*
X1528889Y812858D01*
X1529282Y813136D01*
X1529583Y813436D01*
X1529815Y813691D01*
X1530000Y813922D01*
X1530092Y814061D01*
X1530139Y814084D01*
Y814107D01*
X1530393Y814570D01*
X1530601Y815010D01*
X1530740Y815449D01*
X1530833Y815866D01*
X1530879Y816190D01*
X1530902Y816352D01*
X1530925Y816468D01*
Y816699D01*
X1530902Y817254D01*
X1530833Y817740D01*
X1530717Y818180D01*
X1530601Y818550D01*
X1530486Y818851D01*
X1530370Y819059D01*
X1530300Y819198D01*
X1530277Y819244D01*
X1530023Y819614D01*
X1529722Y819939D01*
X1529421Y820216D01*
X1529144Y820448D01*
X1528889Y820633D01*
X1528681Y820771D01*
X1528542Y820864D01*
X1528519Y820887D01*
X1528496D01*
X1528264Y821003D01*
X1528033Y821119D01*
X1527478Y821327D01*
X1526899Y821512D01*
X1526344Y821697D01*
X1526089Y821767D01*
X1525835Y821836D01*
X1525603Y821905D01*
X1525418Y821952D01*
X1525256Y821998D01*
X1525140Y822021D01*
X1525048Y822044D01*
X1525025D01*
X1524608Y822160D01*
X1524238Y822252D01*
X1523891Y822345D01*
X1523567Y822438D01*
X1523312Y822530D01*
X1523058Y822623D01*
X1522850Y822715D01*
X1522664Y822785D01*
X1522502Y822854D01*
X1522387Y822924D01*
X1522271Y822970D01*
X1522202Y823016D01*
X1522086Y823085D01*
X1522063Y823109D01*
X1521901Y823271D01*
X1521785Y823432D01*
X1521716Y823595D01*
X1521669Y823756D01*
X1521623Y823872D01*
X1521600Y823988D01*
Y824057D01*
Y824080D01*
X1521623Y824312D01*
X1521669Y824497D01*
X1521762Y824682D01*
X1521855Y824821D01*
X1521947Y824937D01*
X1522040Y825006D01*
X1522086Y825052D01*
X1522109Y825075D01*
X1522433Y825284D01*
X1522780Y825423D01*
X1523150Y825538D01*
X1523497Y825608D01*
X1523798Y825654D01*
X1524053Y825677D01*
X1524284D01*
X1524770Y825654D01*
X1525187Y825584D01*
X1525534Y825492D01*
X1525811Y825399D01*
X1526043Y825307D01*
X1526205Y825214D01*
X1526297Y825145D01*
X1526320Y825122D01*
X1526552Y824890D01*
X1526760Y824613D01*
X1526922Y824335D01*
X1527038Y824034D01*
X1527130Y823780D01*
X1527177Y823571D01*
X1527223Y823409D01*
Y823386D01*
Y823363D01*
X1530462Y823479D01*
X1530439Y823895D01*
X1530370Y824266D01*
X1530277Y824636D01*
X1530162Y824960D01*
X1530046Y825284D01*
X1529907Y825584D01*
X1529768Y825839D01*
X1529630Y826094D01*
X1529467Y826302D01*
X1529329Y826487D01*
X1529190Y826649D01*
X1529074Y826788D01*
X1528982Y826880D01*
X1528912Y826950D01*
X1528866Y826996D01*
X1528843Y827019D01*
X1528542Y827251D01*
X1528218Y827459D01*
X1527871Y827644D01*
X1527501Y827806D01*
X1527130Y827922D01*
X1526760Y828037D01*
X1526020Y828199D01*
X1525673Y828245D01*
X1525372Y828292D01*
X1525071Y828315D01*
X1524816Y828338D01*
X1524608Y828361D01*
X1530925D01*
D02*
G37*
G36*
X1478098Y828060D02*
X1474859D01*
Y821767D01*
X1468542D01*
Y828060D01*
X1465302D01*
Y812048D01*
X1478098D01*
Y828060D01*
D02*
G37*
G36*
X1680174Y828153D02*
X1679943D01*
X1679527Y828130D01*
X1679133Y828084D01*
X1678740Y827991D01*
X1678393Y827898D01*
X1678069Y827760D01*
X1677768Y827621D01*
X1677513Y827482D01*
X1677259Y827320D01*
X1677051Y827158D01*
X1676842Y827019D01*
X1676680Y826880D01*
X1676565Y826741D01*
X1676449Y826649D01*
X1676380Y826556D01*
X1676333Y826510D01*
X1676310Y826487D01*
X1676033Y826094D01*
X1675801Y825631D01*
X1675593Y825145D01*
X1675408Y824636D01*
X1675269Y824104D01*
X1675130Y823548D01*
X1675038Y823016D01*
X1674945Y822484D01*
X1674899Y821975D01*
X1674852Y821512D01*
X1674806Y821072D01*
X1674783Y820702D01*
X1674760Y820401D01*
Y828153D01*
Y819962D01*
X1674783Y819129D01*
X1674829Y818365D01*
X1674899Y817648D01*
X1674991Y817000D01*
X1675084Y816421D01*
X1675199Y815889D01*
X1675338Y815426D01*
X1675477Y815010D01*
X1675593Y814663D01*
X1675732Y814339D01*
X1675847Y814084D01*
X1675963Y813876D01*
X1676033Y813737D01*
X1676102Y813622D01*
X1676148Y813552D01*
X1676171Y813529D01*
X1676449Y813205D01*
X1676750Y812950D01*
X1677051Y812696D01*
X1677375Y812511D01*
X1677675Y812326D01*
X1677999Y812187D01*
X1678300Y812071D01*
X1678601Y811979D01*
X1678879Y811886D01*
X1679133Y811840D01*
X1679364Y811793D01*
X1679550Y811770D01*
X1679712D01*
X1679850Y811747D01*
X1685149D01*
X1679943D01*
X1680359Y811770D01*
X1680753Y811817D01*
X1681146Y811909D01*
X1681493Y812002D01*
X1681817Y812117D01*
X1682118Y812256D01*
X1682373Y812418D01*
X1682627Y812580D01*
X1682835Y812719D01*
X1683044Y812881D01*
X1683206Y813020D01*
X1683345Y813136D01*
X1683437Y813228D01*
X1683506Y813321D01*
X1683553Y813367D01*
X1683576Y813390D01*
X1683854Y813783D01*
X1684085Y814246D01*
X1684316Y814732D01*
X1684478Y815264D01*
X1684640Y815797D01*
X1684756Y816329D01*
X1684872Y816884D01*
X1684964Y817416D01*
X1685011Y817925D01*
X1685057Y818388D01*
X1685103Y818828D01*
X1685126Y819198D01*
X1685149Y819499D01*
Y820124D01*
Y819939D01*
X1685126Y820771D01*
X1685080Y821535D01*
X1685011Y822229D01*
X1684895Y822877D01*
X1684779Y823479D01*
X1684664Y824011D01*
X1684501Y824497D01*
X1684363Y824913D01*
X1684224Y825307D01*
X1684085Y825608D01*
X1683946Y825885D01*
X1683830Y826117D01*
X1683715Y826279D01*
X1683645Y826394D01*
X1683599Y826464D01*
X1683576Y826487D01*
X1683321Y826788D01*
X1683044Y827042D01*
X1682743Y827251D01*
X1682442Y827459D01*
X1682141Y827621D01*
X1681841Y827737D01*
X1681563Y827852D01*
X1681262Y827945D01*
X1680984Y828014D01*
X1680753Y828060D01*
X1680522Y828107D01*
X1680336Y828130D01*
X1680174Y828153D01*
D02*
G37*
G36*
X1613533Y828060D02*
X1610548D01*
Y817278D01*
X1603930Y828060D01*
X1600806D01*
Y812048D01*
X1613533D01*
Y828060D01*
D02*
G37*
G36*
X1636464D02*
X1628577D01*
X1633016D01*
X1629106Y816213D01*
X1625033Y828060D01*
X1621539D01*
Y812048D01*
Y828060D01*
X1627278Y812048D01*
X1636464D01*
X1630772D01*
X1636464Y828060D01*
D01*
D02*
G37*
G36*
X1672261Y815126D02*
X1669183D01*
Y812048D01*
X1672261D01*
Y815126D01*
D02*
G37*
G36*
X1653587D02*
X1650510D01*
Y812048D01*
X1653587D01*
Y815126D01*
D02*
G37*
G36*
X1580305Y828060D02*
X1577065D01*
Y812048D01*
X1580305D01*
Y828060D01*
D02*
G37*
G36*
X1575075D02*
X1562372D01*
Y812048D01*
Y825353D01*
X1567115D01*
Y812048D01*
X1562372D01*
X1575075D01*
D01*
X1570355D01*
Y825353D01*
X1575075D01*
Y828060D01*
D02*
G37*
G36*
X1561770D02*
X1545711D01*
Y812048D01*
Y828060D01*
X1551913D01*
X1545711Y812048D01*
X1561770D01*
X1555337Y828060D01*
X1561770D01*
D02*
G37*
G36*
X1545249D02*
X1532545D01*
Y812048D01*
Y825353D01*
X1537289D01*
Y812048D01*
X1532545D01*
X1540528D01*
Y825353D01*
X1545249D01*
Y828060D01*
D02*
G37*
G36*
X1503598D02*
X1496378D01*
Y812048D01*
X1510771D01*
D01*
X1508804Y815172D01*
X1508596Y815496D01*
X1508387Y815820D01*
X1508202Y816097D01*
X1508017Y816352D01*
X1507855Y816583D01*
X1507717Y816815D01*
X1507439Y817162D01*
X1507231Y817439D01*
X1507092Y817625D01*
X1506976Y817740D01*
X1506953Y817763D01*
X1506698Y818041D01*
X1506398Y818296D01*
X1506120Y818504D01*
X1505842Y818712D01*
X1505611Y818874D01*
X1505426Y818990D01*
X1505287Y819082D01*
X1505264Y819106D01*
X1505241D01*
X1505634Y819175D01*
X1505981Y819267D01*
X1506305Y819360D01*
X1506629Y819476D01*
X1506907Y819591D01*
X1507161Y819707D01*
X1507416Y819823D01*
X1507624Y819962D01*
X1507809Y820077D01*
X1507971Y820193D01*
X1508110Y820309D01*
X1508202Y820401D01*
X1508295Y820471D01*
X1508364Y820540D01*
X1508387Y820563D01*
X1508411Y820586D01*
X1508596Y820818D01*
X1508758Y821049D01*
X1509035Y821558D01*
X1509220Y822044D01*
X1509336Y822530D01*
X1509429Y822947D01*
X1509452Y823109D01*
Y823271D01*
X1509475Y823386D01*
Y823502D01*
Y823548D01*
Y823571D01*
X1509452Y824080D01*
X1509359Y824566D01*
X1509244Y824983D01*
X1509128Y825353D01*
X1508989Y825654D01*
X1508873Y825885D01*
X1508827Y825955D01*
X1508781Y826024D01*
X1508758Y826047D01*
Y826070D01*
X1508480Y826464D01*
X1508179Y826788D01*
X1507878Y827042D01*
X1507578Y827274D01*
X1507300Y827412D01*
X1507092Y827528D01*
X1506953Y827598D01*
X1506930Y827621D01*
X1506907D01*
X1506675Y827690D01*
X1506421Y827760D01*
X1505842Y827875D01*
X1505217Y827945D01*
X1504616Y828014D01*
X1504315D01*
X1504060Y828037D01*
X1503806D01*
X1503598Y828060D01*
D02*
G37*
G36*
X1493324D02*
X1481453D01*
Y812048D01*
X1493625D01*
Y814755D01*
D01*
X1484693D01*
Y819106D01*
X1492722D01*
Y821813D01*
X1484693D01*
Y825353D01*
X1493324D01*
Y828060D01*
D02*
G37*
G36*
X1463196D02*
X1450493D01*
Y812048D01*
Y825353D01*
X1455236D01*
Y812048D01*
X1450493D01*
X1458476D01*
Y825353D01*
X1463196D01*
Y828060D01*
D02*
G37*
G36*
X1443458Y828060D02*
X1440034D01*
X1433832Y812048D01*
Y828060D01*
D01*
Y812048D01*
X1449891Y812048D01*
D01*
X1443458Y828060D01*
D02*
G37*
G36*
X1432421D02*
X1420550D01*
Y812048D01*
X1432722D01*
Y814755D01*
D01*
X1423790D01*
Y819105D01*
X1431819D01*
Y821813D01*
X1423790D01*
Y825353D01*
X1432421D01*
Y828060D01*
D02*
G37*
G36*
X1418861D02*
X1397851D01*
Y812048D01*
Y828060D01*
X1401646Y812048D01*
X1409024D01*
X1405163D01*
X1408356Y824011D01*
X1411503Y812048D01*
X1418861D01*
X1414997D01*
X1418861Y828060D01*
D01*
D02*
G37*
G36*
X1679828Y811747D02*
X1674760D01*
D01*
X1679828D01*
D02*
G37*
G36*
X1590625Y828361D02*
X1590463D01*
X1589769Y828338D01*
X1589098Y828269D01*
X1588519Y828153D01*
X1588010Y828037D01*
X1587802Y827968D01*
X1587594Y827922D01*
X1587432Y827875D01*
X1587293Y827806D01*
X1587177Y827783D01*
X1587085Y827737D01*
X1587038Y827713D01*
X1587015D01*
X1586599Y827528D01*
X1586205Y827297D01*
X1585858Y827042D01*
X1585557Y826811D01*
X1585303Y826603D01*
X1585095Y826417D01*
X1584979Y826302D01*
X1584956Y826279D01*
X1584933Y826255D01*
X1584609Y825885D01*
X1584308Y825492D01*
X1584053Y825145D01*
X1583845Y824798D01*
X1583683Y824497D01*
X1583544Y824266D01*
X1583521Y824173D01*
X1583475Y824104D01*
X1583452Y824080D01*
Y824057D01*
X1583220Y823409D01*
X1583035Y822715D01*
X1582919Y822021D01*
X1582827Y821373D01*
X1582804Y821072D01*
X1582781Y820795D01*
X1582758Y820563D01*
Y820355D01*
X1582734Y820170D01*
Y811747D01*
Y819939D01*
X1582758Y819244D01*
X1582827Y818573D01*
X1582919Y817949D01*
X1583058Y817370D01*
X1583220Y816838D01*
X1583405Y816352D01*
X1583591Y815889D01*
X1583799Y815496D01*
X1583984Y815126D01*
X1584169Y814825D01*
X1584354Y814547D01*
X1584516Y814316D01*
X1584655Y814154D01*
X1584747Y814015D01*
X1584817Y813945D01*
X1584840Y813922D01*
X1585257Y813529D01*
X1585696Y813205D01*
X1586136Y812904D01*
X1586622Y812673D01*
X1587085Y812465D01*
X1587570Y812279D01*
X1588010Y812141D01*
X1588473Y812025D01*
X1588889Y811932D01*
X1589283Y811863D01*
X1589630Y811817D01*
X1589931Y811793D01*
X1590162Y811770D01*
X1590347Y811747D01*
X1582734Y811747D01*
X1598261Y811747D01*
Y820054D01*
Y820031D01*
X1598238Y820748D01*
X1598168Y821419D01*
X1598076Y822044D01*
X1597937Y822646D01*
X1597775Y823178D01*
X1597590Y823687D01*
X1597405Y824150D01*
X1597197Y824543D01*
X1596988Y824913D01*
X1596803Y825237D01*
X1596618Y825515D01*
X1596456Y825747D01*
X1596340Y825909D01*
X1596225Y826047D01*
X1596155Y826117D01*
X1596132Y826140D01*
X1595716Y826533D01*
X1595276Y826880D01*
X1594813Y827181D01*
X1594350Y827436D01*
X1593864Y827644D01*
X1593402Y827829D01*
X1592939Y827968D01*
X1592499Y828084D01*
X1592083Y828176D01*
X1591689Y828246D01*
X1591342Y828292D01*
X1591041Y828338D01*
X1590810D01*
X1590625Y828361D01*
D02*
G37*
%LPD*%
G36*
X1660853Y812048D02*
X1656896D01*
Y821327D01*
X1657729Y821651D01*
X1658470Y821998D01*
X1658817Y822183D01*
X1659141Y822391D01*
X1659442Y822576D01*
X1659719Y822762D01*
X1659974Y822947D01*
X1660205Y823109D01*
X1660390Y823248D01*
X1660552Y823386D01*
X1660691Y823502D01*
X1660784Y823571D01*
X1660830Y823618D01*
X1660853Y823641D01*
Y812048D01*
D02*
G37*
G36*
X1474859Y812048D02*
X1468542D01*
Y819059D01*
X1474859D01*
Y812048D01*
D02*
G37*
G36*
X1680151Y825584D02*
X1680336Y825561D01*
X1680498Y825492D01*
X1680637Y825423D01*
X1680753Y825353D01*
X1680845Y825307D01*
X1680892Y825261D01*
X1680915Y825237D01*
X1681054Y825076D01*
X1681192Y824867D01*
X1681308Y824636D01*
X1681424Y824404D01*
X1681493Y824173D01*
X1681563Y823988D01*
X1681586Y823872D01*
X1681609Y823849D01*
Y823826D01*
X1681655Y823618D01*
X1681702Y823363D01*
X1681748Y823062D01*
X1681794Y822762D01*
X1681841Y822137D01*
X1681864Y821489D01*
X1681887Y821188D01*
Y820887D01*
X1681910Y820633D01*
Y820401D01*
Y820216D01*
Y820054D01*
Y819962D01*
Y819939D01*
Y819429D01*
X1681887Y818943D01*
Y818504D01*
X1681864Y818111D01*
X1681841Y817740D01*
X1681817Y817416D01*
X1681771Y817115D01*
X1681748Y816861D01*
X1681725Y816630D01*
X1681678Y816444D01*
X1681655Y816283D01*
X1681632Y816144D01*
X1681609Y816051D01*
Y815958D01*
X1681586Y815935D01*
Y815912D01*
X1681493Y815588D01*
X1681378Y815334D01*
X1681262Y815102D01*
X1681169Y814940D01*
X1681077Y814802D01*
X1680984Y814709D01*
X1680938Y814663D01*
X1680915Y814640D01*
X1680753Y814524D01*
X1680591Y814431D01*
X1680429Y814385D01*
X1680267Y814339D01*
X1680151Y814316D01*
X1680036Y814293D01*
X1679943D01*
X1679735Y814316D01*
X1679550Y814339D01*
X1679388Y814408D01*
X1679249Y814478D01*
X1679133Y814524D01*
X1679041Y814593D01*
X1678994Y814616D01*
X1678971Y814640D01*
X1678832Y814802D01*
X1678694Y815010D01*
X1678578Y815241D01*
X1678462Y815473D01*
X1678393Y815681D01*
X1678323Y815866D01*
X1678300Y815982D01*
X1678277Y816028D01*
X1678231Y816259D01*
X1678184Y816514D01*
X1678138Y816792D01*
X1678115Y817092D01*
X1678069Y817740D01*
X1678046Y818388D01*
X1678022Y818689D01*
Y818990D01*
X1677999Y819244D01*
Y819476D01*
Y819661D01*
Y819823D01*
Y819915D01*
Y819939D01*
Y820448D01*
X1678022Y820934D01*
Y821350D01*
X1678046Y821767D01*
X1678069Y822114D01*
X1678092Y822461D01*
X1678115Y822738D01*
X1678161Y823016D01*
X1678184Y823248D01*
X1678208Y823433D01*
X1678231Y823595D01*
X1678254Y823733D01*
X1678277Y823826D01*
Y823919D01*
X1678300Y823942D01*
Y823965D01*
X1678393Y824289D01*
X1678508Y824566D01*
X1678601Y824775D01*
X1678717Y824960D01*
X1678809Y825076D01*
X1678879Y825168D01*
X1678925Y825214D01*
X1678948Y825237D01*
X1679110Y825353D01*
X1679295Y825446D01*
X1679457Y825515D01*
X1679619Y825561D01*
X1679735Y825584D01*
X1679850Y825608D01*
X1679943D01*
X1680151Y825584D01*
D02*
G37*
G36*
X1610293Y812048D02*
X1603791D01*
Y822599D01*
X1610293Y812048D01*
D02*
G37*
G36*
X1555846Y818388D02*
X1551427D01*
X1553602Y824335D01*
X1555846Y818388D01*
D02*
G37*
G36*
X1558276Y812048D02*
X1549136D01*
X1550455Y815681D01*
X1556888D01*
X1558276Y812048D01*
D02*
G37*
G36*
X1503528Y825330D02*
X1504037D01*
X1504246Y825307D01*
X1504384D01*
X1504454Y825284D01*
X1504477D01*
X1504755Y825214D01*
X1505009Y825122D01*
X1505217Y825029D01*
X1505379Y824913D01*
X1505518Y824798D01*
X1505634Y824728D01*
X1505680Y824659D01*
X1505703Y824636D01*
X1505842Y824451D01*
X1505958Y824219D01*
X1506027Y824011D01*
X1506097Y823803D01*
X1506120Y823618D01*
X1506143Y823479D01*
Y823386D01*
Y823340D01*
X1506120Y823085D01*
X1506097Y822854D01*
X1506027Y822646D01*
X1505981Y822461D01*
X1505912Y822322D01*
X1505842Y822229D01*
X1505819Y822160D01*
X1505796Y822137D01*
X1505657Y821975D01*
X1505518Y821836D01*
X1505217Y821628D01*
X1505102Y821558D01*
X1504986Y821512D01*
X1504917Y821466D01*
X1504893D01*
X1504778Y821443D01*
X1504593Y821396D01*
X1504408Y821373D01*
X1504199Y821350D01*
X1503713Y821327D01*
X1503227Y821304D01*
X1502765Y821281D01*
X1499618D01*
Y825353D01*
X1503320D01*
X1503528Y825330D01*
D02*
G37*
G36*
X1500983Y818712D02*
X1501261Y818689D01*
X1501492Y818643D01*
X1501677Y818620D01*
X1501793Y818573D01*
X1501862Y818550D01*
X1501885D01*
X1502070Y818458D01*
X1502256Y818365D01*
X1502417Y818249D01*
X1502579Y818157D01*
X1502695Y818041D01*
X1502788Y817949D01*
X1502834Y817902D01*
X1502857Y817879D01*
X1502950Y817763D01*
X1503065Y817648D01*
X1503320Y817301D01*
X1503598Y816930D01*
X1503898Y816514D01*
X1504153Y816144D01*
X1504269Y815958D01*
X1504361Y815820D01*
X1504454Y815704D01*
X1504523Y815611D01*
X1504546Y815542D01*
X1504570Y815519D01*
X1506883Y812048D01*
X1499618D01*
Y818735D01*
X1500659D01*
X1500983Y818712D01*
D02*
G37*
G36*
X1443967Y818388D02*
X1439548D01*
X1441723Y824335D01*
X1443967Y818388D01*
D02*
G37*
G36*
X1446397Y812048D02*
X1437257Y812048D01*
X1438576Y815681D01*
X1445009Y815681D01*
X1446397Y812048D01*
D02*
G37*
G36*
X1403566Y817046D02*
X1401160Y828060D01*
X1406482D01*
X1403566Y817046D01*
D02*
G37*
G36*
X1413146Y816861D02*
X1410369Y828060D01*
X1415598D01*
X1413146Y816861D01*
D02*
G37*
G36*
X1590880Y825584D02*
X1591227Y825538D01*
X1591550Y825492D01*
X1591851Y825399D01*
X1592384Y825168D01*
X1592638Y825052D01*
X1592846Y824937D01*
X1593055Y824798D01*
X1593217Y824682D01*
X1593355Y824566D01*
X1593494Y824451D01*
X1593587Y824358D01*
X1593656Y824312D01*
X1593679Y824266D01*
X1593703Y824242D01*
X1593911Y823965D01*
X1594119Y823664D01*
X1594281Y823363D01*
X1594420Y823016D01*
X1594628Y822322D01*
X1594767Y821651D01*
X1594836Y821350D01*
X1594859Y821049D01*
X1594883Y820795D01*
X1594906Y820563D01*
X1594929Y820355D01*
Y820216D01*
Y820124D01*
Y820100D01*
X1594906Y819591D01*
X1594883Y819106D01*
X1594813Y818666D01*
X1594744Y818272D01*
X1594651Y817879D01*
X1594536Y817532D01*
X1594420Y817231D01*
X1594304Y816954D01*
X1594188Y816699D01*
X1594073Y816491D01*
X1593980Y816306D01*
X1593864Y816144D01*
X1593795Y816028D01*
X1593726Y815958D01*
X1593703Y815912D01*
X1593679Y815889D01*
X1593448Y815635D01*
X1593193Y815426D01*
X1592916Y815241D01*
X1592661Y815079D01*
X1592384Y814964D01*
X1592129Y814848D01*
X1591620Y814686D01*
X1591180Y814570D01*
X1590995Y814547D01*
X1590833Y814524D01*
X1590694Y814501D01*
X1590509D01*
X1590162Y814524D01*
X1589815Y814570D01*
X1589491Y814640D01*
X1589190Y814732D01*
X1588635Y814940D01*
X1588195Y815218D01*
X1587987Y815334D01*
X1587825Y815473D01*
X1587663Y815588D01*
X1587547Y815704D01*
X1587455Y815773D01*
X1587385Y815843D01*
X1587339Y815889D01*
X1587316Y815912D01*
X1587108Y816190D01*
X1586900Y816491D01*
X1586738Y816815D01*
X1586599Y817162D01*
X1586367Y817833D01*
X1586228Y818504D01*
X1586182Y818828D01*
X1586136Y819106D01*
X1586113Y819383D01*
X1586090Y819614D01*
X1586066Y819800D01*
Y819939D01*
Y820031D01*
Y820054D01*
X1586090Y820563D01*
X1586113Y821026D01*
X1586182Y821466D01*
X1586252Y821882D01*
X1586344Y822252D01*
X1586437Y822599D01*
X1586552Y822900D01*
X1586668Y823178D01*
X1586784Y823432D01*
X1586900Y823641D01*
X1586992Y823803D01*
X1587085Y823965D01*
X1587154Y824080D01*
X1587223Y824150D01*
X1587247Y824196D01*
X1587270Y824219D01*
X1587501Y824474D01*
X1587756Y824682D01*
X1588033Y824867D01*
X1588288Y825029D01*
X1588566Y825168D01*
X1588843Y825261D01*
X1589352Y825446D01*
X1589815Y825538D01*
X1590000Y825561D01*
X1590185Y825584D01*
X1590324Y825608D01*
X1590509D01*
X1590880Y825584D01*
D02*
G37*
G36*
X1598261Y811747D02*
X1590509D01*
X1591157Y811770D01*
X1591759Y811840D01*
X1592337Y811955D01*
X1592870Y812094D01*
X1593378Y812256D01*
X1593841Y812441D01*
X1594258Y812626D01*
X1594651Y812835D01*
X1594975Y813043D01*
X1595276Y813228D01*
X1595531Y813413D01*
X1595739Y813575D01*
X1595924Y813714D01*
X1596040Y813830D01*
X1596109Y813899D01*
X1596132Y813922D01*
X1596502Y814362D01*
X1596826Y814825D01*
X1597127Y815311D01*
X1597359Y815797D01*
X1597567Y816306D01*
X1597752Y816815D01*
X1597891Y817324D01*
X1598006Y817810D01*
X1598076Y818249D01*
X1598145Y818689D01*
X1598192Y819059D01*
X1598238Y819383D01*
Y819661D01*
X1598261Y819869D01*
Y811747D01*
D02*
G37*
%LPC*%
G36*
X1542907Y781518D02*
X1540651D01*
Y774075D01*
X1542963D01*
X1543062Y774089D01*
X1543273Y774103D01*
X1543513Y774117D01*
X1543767Y774146D01*
X1544020Y774188D01*
X1544232Y774244D01*
X1544260Y774258D01*
X1544330Y774273D01*
X1544429Y774315D01*
X1544556Y774371D01*
X1544697Y774456D01*
X1544838Y774540D01*
X1544979Y774639D01*
X1545120Y774752D01*
X1545134Y774780D01*
X1545190Y774836D01*
X1545275Y774935D01*
X1545374Y775076D01*
X1545486Y775259D01*
X1545613Y775471D01*
X1545726Y775710D01*
X1545825Y775978D01*
Y775992D01*
X1545839Y776021D01*
X1545853Y776063D01*
X1545867Y776119D01*
X1545881Y776190D01*
X1545909Y776288D01*
X1545938Y776387D01*
X1545966Y776500D01*
X1546008Y776782D01*
X1546050Y777106D01*
X1546078Y777473D01*
X1546093Y777867D01*
Y777881D01*
Y777938D01*
Y778008D01*
X1546078Y778121D01*
Y778248D01*
X1546064Y778389D01*
X1546050Y778558D01*
X1546036Y778727D01*
X1545966Y779108D01*
X1545881Y779502D01*
X1545754Y779869D01*
X1545670Y780052D01*
X1545585Y780207D01*
Y780221D01*
X1545557Y780250D01*
X1545529Y780292D01*
X1545501Y780348D01*
X1545388Y780489D01*
X1545247Y780658D01*
X1545064Y780842D01*
X1544852Y781025D01*
X1544612Y781180D01*
X1544359Y781307D01*
X1544330Y781321D01*
X1544260Y781335D01*
X1544133Y781377D01*
X1543950Y781420D01*
X1543724Y781448D01*
X1543442Y781490D01*
X1543273Y781504D01*
X1543090D01*
X1542907Y781518D01*
D02*
G37*
G36*
X1519957Y781659D02*
Y781645D01*
X1519943Y781617D01*
Y781561D01*
X1519915Y781504D01*
X1519900Y781406D01*
X1519872Y781307D01*
X1519816Y781067D01*
X1519745Y780785D01*
X1519647Y780475D01*
X1519548Y780137D01*
X1519421Y779784D01*
X1518364Y776937D01*
X1521662D01*
X1520648Y779615D01*
Y779629D01*
X1520634Y779672D01*
X1520605Y779742D01*
X1520577Y779827D01*
X1520535Y779925D01*
X1520493Y780052D01*
X1520450Y780193D01*
X1520394Y780334D01*
X1520281Y780658D01*
X1520168Y780997D01*
X1520056Y781335D01*
X1519957Y781659D01*
D02*
G37*
G36*
X1501208Y781730D02*
X1501081D01*
X1500982Y781716D01*
X1500855Y781702D01*
X1500728Y781673D01*
X1500573Y781645D01*
X1500404Y781617D01*
X1500038Y781504D01*
X1499840Y781420D01*
X1499643Y781335D01*
X1499432Y781222D01*
X1499234Y781095D01*
X1499037Y780955D01*
X1498854Y780785D01*
X1498840Y780771D01*
X1498811Y780743D01*
X1498769Y780687D01*
X1498698Y780602D01*
X1498628Y780503D01*
X1498544Y780377D01*
X1498459Y780221D01*
X1498360Y780038D01*
X1498276Y779841D01*
X1498177Y779601D01*
X1498092Y779347D01*
X1498022Y779065D01*
X1497951Y778755D01*
X1497909Y778403D01*
X1497881Y778036D01*
X1497867Y777642D01*
Y777628D01*
Y777571D01*
Y777473D01*
X1497881Y777346D01*
X1497895Y777205D01*
X1497923Y777036D01*
X1497951Y776838D01*
X1497980Y776641D01*
X1498092Y776190D01*
X1498177Y775964D01*
X1498262Y775724D01*
X1498374Y775499D01*
X1498501Y775273D01*
X1498642Y775062D01*
X1498811Y774865D01*
X1498825Y774850D01*
X1498854Y774822D01*
X1498910Y774766D01*
X1498981Y774709D01*
X1499079Y774625D01*
X1499192Y774540D01*
X1499319Y774456D01*
X1499460Y774357D01*
X1499629Y774258D01*
X1499812Y774174D01*
X1500009Y774089D01*
X1500221Y774005D01*
X1500447Y773948D01*
X1500672Y773892D01*
X1500926Y773864D01*
X1501194Y773850D01*
X1501264D01*
X1501335Y773864D01*
X1501433D01*
X1501560Y773878D01*
X1501701Y773906D01*
X1501870Y773934D01*
X1502039Y773977D01*
X1502237Y774033D01*
X1502420Y774103D01*
X1502632Y774174D01*
X1502829Y774273D01*
X1503026Y774399D01*
X1503224Y774526D01*
X1503421Y774681D01*
X1503604Y774865D01*
X1503618Y774879D01*
X1503647Y774907D01*
X1503689Y774977D01*
X1503759Y775062D01*
X1503830Y775161D01*
X1503900Y775287D01*
X1503985Y775443D01*
X1504084Y775612D01*
X1504168Y775809D01*
X1504253Y776035D01*
X1504323Y776274D01*
X1504408Y776528D01*
X1504464Y776810D01*
X1504507Y777120D01*
X1504535Y777444D01*
X1504549Y777783D01*
Y777797D01*
Y777839D01*
Y777895D01*
Y777980D01*
X1504535Y778079D01*
Y778206D01*
X1504521Y778332D01*
X1504492Y778487D01*
X1504450Y778812D01*
X1504380Y779150D01*
X1504281Y779517D01*
X1504140Y779855D01*
Y779869D01*
X1504126Y779897D01*
X1504098Y779939D01*
X1504070Y779996D01*
X1503971Y780165D01*
X1503844Y780362D01*
X1503675Y780588D01*
X1503463Y780814D01*
X1503224Y781039D01*
X1502956Y781236D01*
X1502942D01*
X1502928Y781265D01*
X1502885Y781279D01*
X1502815Y781321D01*
X1502744Y781349D01*
X1502660Y781392D01*
X1502448Y781490D01*
X1502195Y781575D01*
X1501898Y781659D01*
X1501560Y781716D01*
X1501208Y781730D01*
D02*
G37*
G36*
X1423195Y781730D02*
X1423068D01*
X1422969Y781716D01*
X1422843Y781702D01*
X1422716Y781673D01*
X1422561Y781645D01*
X1422392Y781617D01*
X1422025Y781504D01*
X1421828Y781420D01*
X1421630Y781335D01*
X1421419Y781222D01*
X1421221Y781095D01*
X1421024Y780954D01*
X1420841Y780785D01*
X1420827Y780771D01*
X1420798Y780743D01*
X1420756Y780687D01*
X1420686Y780602D01*
X1420615Y780503D01*
X1420531Y780377D01*
X1420446Y780221D01*
X1420347Y780038D01*
X1420263Y779841D01*
X1420164Y779601D01*
X1420080Y779347D01*
X1420009Y779065D01*
X1419939Y778755D01*
X1419896Y778403D01*
X1419868Y778036D01*
X1419854Y777642D01*
Y777628D01*
Y777571D01*
Y777473D01*
X1419868Y777346D01*
X1419882Y777205D01*
X1419910Y777036D01*
X1419939Y776838D01*
X1419967Y776641D01*
X1420080Y776190D01*
X1420164Y775964D01*
X1420249Y775724D01*
X1420361Y775499D01*
X1420488Y775273D01*
X1420629Y775062D01*
X1420798Y774865D01*
X1420813Y774850D01*
X1420841Y774822D01*
X1420897Y774766D01*
X1420968Y774709D01*
X1421066Y774625D01*
X1421179Y774540D01*
X1421306Y774456D01*
X1421447Y774357D01*
X1421616Y774258D01*
X1421799Y774174D01*
X1421997Y774089D01*
X1422208Y774005D01*
X1422434Y773948D01*
X1422659Y773892D01*
X1422913Y773864D01*
X1423181Y773850D01*
X1423251D01*
X1423322Y773864D01*
X1423421D01*
X1423547Y773878D01*
X1423688Y773906D01*
X1423858Y773934D01*
X1424027Y773976D01*
X1424224Y774033D01*
X1424407Y774103D01*
X1424619Y774174D01*
X1424816Y774273D01*
X1425013Y774399D01*
X1425211Y774526D01*
X1425408Y774681D01*
X1425591Y774865D01*
X1425606Y774879D01*
X1425634Y774907D01*
X1425676Y774977D01*
X1425747Y775062D01*
X1425817Y775161D01*
X1425887Y775287D01*
X1425972Y775443D01*
X1426071Y775612D01*
X1426155Y775809D01*
X1426240Y776035D01*
X1426310Y776274D01*
X1426395Y776528D01*
X1426451Y776810D01*
X1426494Y777120D01*
X1426522Y777444D01*
X1426536Y777783D01*
Y777797D01*
Y777839D01*
Y777895D01*
Y777980D01*
X1426522Y778079D01*
Y778205D01*
X1426508Y778332D01*
X1426480Y778487D01*
X1426437Y778812D01*
X1426367Y779150D01*
X1426268Y779517D01*
X1426127Y779855D01*
Y779869D01*
X1426113Y779897D01*
X1426085Y779939D01*
X1426057Y779996D01*
X1425958Y780165D01*
X1425831Y780362D01*
X1425662Y780588D01*
X1425450Y780814D01*
X1425211Y781039D01*
X1424943Y781236D01*
X1424929D01*
X1424915Y781265D01*
X1424872Y781279D01*
X1424802Y781321D01*
X1424732Y781349D01*
X1424647Y781392D01*
X1424435Y781490D01*
X1424182Y781575D01*
X1423886Y781659D01*
X1423547Y781716D01*
X1423195Y781730D01*
D02*
G37*
G36*
X1405010D02*
X1404883D01*
X1404784Y781716D01*
X1404657Y781702D01*
X1404531Y781673D01*
X1404375Y781645D01*
X1404206Y781617D01*
X1403840Y781504D01*
X1403642Y781420D01*
X1403445Y781335D01*
X1403234Y781222D01*
X1403036Y781095D01*
X1402839Y780954D01*
X1402656Y780785D01*
X1402642Y780771D01*
X1402613Y780743D01*
X1402571Y780687D01*
X1402501Y780602D01*
X1402430Y780503D01*
X1402345Y780377D01*
X1402261Y780221D01*
X1402162Y780038D01*
X1402078Y779841D01*
X1401979Y779601D01*
X1401894Y779347D01*
X1401824Y779065D01*
X1401754Y778755D01*
X1401711Y778403D01*
X1401683Y778036D01*
X1401669Y777642D01*
Y777628D01*
Y777571D01*
Y777473D01*
X1401683Y777346D01*
X1401697Y777205D01*
X1401725Y777036D01*
X1401754Y776838D01*
X1401782Y776641D01*
X1401894Y776190D01*
X1401979Y775964D01*
X1402064Y775724D01*
X1402176Y775499D01*
X1402303Y775273D01*
X1402444Y775062D01*
X1402613Y774865D01*
X1402628Y774850D01*
X1402656Y774822D01*
X1402712Y774766D01*
X1402782Y774709D01*
X1402881Y774625D01*
X1402994Y774540D01*
X1403121Y774456D01*
X1403262Y774357D01*
X1403431Y774258D01*
X1403614Y774174D01*
X1403812Y774089D01*
X1404023Y774005D01*
X1404249Y773948D01*
X1404474Y773892D01*
X1404728Y773864D01*
X1404996Y773850D01*
X1405066D01*
X1405137Y773864D01*
X1405235D01*
X1405362Y773878D01*
X1405503Y773906D01*
X1405672Y773934D01*
X1405842Y773976D01*
X1406039Y774033D01*
X1406222Y774103D01*
X1406434Y774174D01*
X1406631Y774273D01*
X1406828Y774399D01*
X1407026Y774526D01*
X1407223Y774681D01*
X1407406Y774865D01*
X1407421Y774879D01*
X1407449Y774907D01*
X1407491Y774977D01*
X1407561Y775062D01*
X1407632Y775161D01*
X1407702Y775287D01*
X1407787Y775443D01*
X1407886Y775612D01*
X1407970Y775809D01*
X1408055Y776035D01*
X1408125Y776274D01*
X1408210Y776528D01*
X1408266Y776810D01*
X1408309Y777120D01*
X1408337Y777444D01*
X1408351Y777783D01*
Y777797D01*
Y777839D01*
Y777895D01*
Y777980D01*
X1408337Y778079D01*
Y778205D01*
X1408323Y778332D01*
X1408295Y778487D01*
X1408252Y778812D01*
X1408182Y779150D01*
X1408083Y779517D01*
X1407942Y779855D01*
Y779869D01*
X1407928Y779897D01*
X1407900Y779939D01*
X1407872Y779996D01*
X1407773Y780165D01*
X1407646Y780362D01*
X1407477Y780588D01*
X1407265Y780814D01*
X1407026Y781039D01*
X1406758Y781236D01*
X1406744D01*
X1406730Y781265D01*
X1406687Y781279D01*
X1406617Y781321D01*
X1406546Y781349D01*
X1406462Y781392D01*
X1406250Y781490D01*
X1405997Y781575D01*
X1405701Y781659D01*
X1405362Y781716D01*
X1405010Y781730D01*
D02*
G37*
G36*
X1539185Y796281D02*
X1536930D01*
Y788837D01*
X1539241D01*
X1539340Y788851D01*
X1539552Y788866D01*
X1539791Y788879D01*
X1540045Y788908D01*
X1540299Y788950D01*
X1540510Y789006D01*
X1540538Y789020D01*
X1540609Y789035D01*
X1540708Y789077D01*
X1540835Y789133D01*
X1540975Y789218D01*
X1541116Y789303D01*
X1541257Y789401D01*
X1541398Y789514D01*
X1541412Y789542D01*
X1541469Y789598D01*
X1541553Y789697D01*
X1541652Y789838D01*
X1541765Y790021D01*
X1541892Y790233D01*
X1542005Y790472D01*
X1542103Y790740D01*
Y790754D01*
X1542117Y790783D01*
X1542131Y790825D01*
X1542146Y790881D01*
X1542160Y790952D01*
X1542188Y791050D01*
X1542216Y791149D01*
X1542244Y791262D01*
X1542287Y791544D01*
X1542329Y791868D01*
X1542357Y792235D01*
X1542371Y792629D01*
Y792643D01*
Y792700D01*
Y792770D01*
X1542357Y792883D01*
Y793010D01*
X1542343Y793151D01*
X1542329Y793320D01*
X1542315Y793489D01*
X1542244Y793870D01*
X1542160Y794265D01*
X1542033Y794631D01*
X1541948Y794814D01*
X1541864Y794969D01*
Y794984D01*
X1541835Y795012D01*
X1541807Y795054D01*
X1541779Y795110D01*
X1541666Y795251D01*
X1541525Y795421D01*
X1541342Y795604D01*
X1541131Y795787D01*
X1540891Y795942D01*
X1540637Y796069D01*
X1540609Y796083D01*
X1540538Y796097D01*
X1540412Y796140D01*
X1540228Y796182D01*
X1540003Y796210D01*
X1539721Y796252D01*
X1539552Y796266D01*
X1539368D01*
X1539185Y796281D01*
D02*
G37*
G36*
X1526385Y796351D02*
X1523312D01*
Y793123D01*
X1526216D01*
X1526385Y793137D01*
X1526582Y793151D01*
X1526808Y793165D01*
X1527034Y793193D01*
X1527259Y793235D01*
X1527456Y793292D01*
X1527485Y793306D01*
X1527541Y793334D01*
X1527626Y793376D01*
X1527738Y793433D01*
X1527865Y793518D01*
X1527992Y793616D01*
X1528119Y793743D01*
X1528218Y793884D01*
X1528232Y793898D01*
X1528260Y793954D01*
X1528302Y794039D01*
X1528359Y794152D01*
X1528401Y794279D01*
X1528443Y794420D01*
X1528471Y794589D01*
X1528486Y794758D01*
Y794772D01*
Y794786D01*
X1528471Y794871D01*
X1528457Y794998D01*
X1528429Y795167D01*
X1528359Y795336D01*
X1528274Y795533D01*
X1528147Y795717D01*
X1527978Y795900D01*
X1527950Y795914D01*
X1527879Y795970D01*
X1527767Y796041D01*
X1527583Y796125D01*
X1527372Y796210D01*
X1527090Y796281D01*
X1526766Y796337D01*
X1526385Y796351D01*
D02*
G37*
G36*
X1497303Y796421D02*
Y796407D01*
X1497289Y796379D01*
Y796323D01*
X1497261Y796266D01*
X1497247Y796168D01*
X1497218Y796069D01*
X1497162Y795829D01*
X1497092Y795547D01*
X1496993Y795237D01*
X1496894Y794899D01*
X1496767Y794547D01*
X1495710Y791699D01*
X1499009D01*
X1497994Y794377D01*
Y794391D01*
X1497980Y794434D01*
X1497951Y794504D01*
X1497923Y794589D01*
X1497881Y794688D01*
X1497839Y794814D01*
X1497796Y794955D01*
X1497740Y795096D01*
X1497627Y795421D01*
X1497514Y795759D01*
X1497402Y796097D01*
X1497303Y796421D01*
D02*
G37*
G36*
X1407153Y796421D02*
Y796407D01*
X1407139Y796379D01*
Y796323D01*
X1407110Y796266D01*
X1407096Y796168D01*
X1407068Y796069D01*
X1407012Y795829D01*
X1406941Y795547D01*
X1406842Y795237D01*
X1406744Y794899D01*
X1406617Y794547D01*
X1405560Y791699D01*
X1408858D01*
X1407843Y794377D01*
Y794391D01*
X1407829Y794434D01*
X1407801Y794504D01*
X1407773Y794589D01*
X1407731Y794688D01*
X1407688Y794814D01*
X1407646Y794955D01*
X1407590Y795096D01*
X1407477Y795421D01*
X1407364Y795759D01*
X1407251Y796097D01*
X1407153Y796421D01*
D02*
G37*
G36*
X1381609Y796280D02*
X1379297D01*
Y793348D01*
X1381693D01*
X1381877Y793362D01*
X1382074Y793376D01*
X1382271Y793391D01*
X1382469Y793419D01*
X1382624Y793447D01*
X1382652Y793461D01*
X1382708Y793475D01*
X1382793Y793517D01*
X1382906Y793574D01*
X1383018Y793630D01*
X1383145Y793715D01*
X1383272Y793828D01*
X1383371Y793940D01*
X1383385Y793954D01*
X1383413Y793997D01*
X1383456Y794081D01*
X1383498Y794180D01*
X1383540Y794293D01*
X1383582Y794434D01*
X1383611Y794603D01*
X1383625Y794786D01*
Y794814D01*
Y794871D01*
X1383611Y794955D01*
X1383596Y795068D01*
X1383568Y795209D01*
X1383526Y795350D01*
X1383470Y795491D01*
X1383385Y795632D01*
X1383371Y795646D01*
X1383343Y795688D01*
X1383286Y795759D01*
X1383216Y795829D01*
X1383117Y795914D01*
X1383004Y795999D01*
X1382863Y796083D01*
X1382708Y796140D01*
X1382694D01*
X1382624Y796168D01*
X1382525Y796182D01*
X1382370Y796210D01*
X1382159Y796238D01*
X1381919Y796252D01*
X1381609Y796280D01*
D02*
G37*
G36*
X1381863Y792192D02*
X1379297D01*
Y788837D01*
X1382074D01*
X1382370Y788851D01*
X1382497Y788865D01*
X1382610Y788879D01*
X1382624D01*
X1382680Y788894D01*
X1382765Y788908D01*
X1382863Y788936D01*
X1383103Y789020D01*
X1383343Y789133D01*
X1383357Y789147D01*
X1383399Y789176D01*
X1383456Y789218D01*
X1383526Y789274D01*
X1383596Y789359D01*
X1383695Y789443D01*
X1383766Y789556D01*
X1383850Y789683D01*
X1383864Y789697D01*
X1383878Y789739D01*
X1383907Y789824D01*
X1383949Y789923D01*
X1383991Y790035D01*
X1384019Y790176D01*
X1384034Y790346D01*
X1384048Y790515D01*
Y790543D01*
Y790599D01*
X1384034Y790712D01*
X1384005Y790839D01*
X1383977Y790980D01*
X1383921Y791135D01*
X1383850Y791290D01*
X1383752Y791445D01*
X1383737Y791459D01*
X1383695Y791516D01*
X1383639Y791586D01*
X1383554Y791671D01*
X1383441Y791769D01*
X1383300Y791868D01*
X1383145Y791953D01*
X1382962Y792023D01*
X1382934Y792037D01*
X1382878Y792051D01*
X1382751Y792079D01*
X1382596Y792108D01*
X1382398Y792136D01*
X1382159Y792164D01*
X1381863Y792192D01*
D02*
G37*
G36*
X1476284Y796492D02*
X1476157D01*
X1476059Y796478D01*
X1475932Y796464D01*
X1475805Y796435D01*
X1475650Y796407D01*
X1475481Y796379D01*
X1475114Y796266D01*
X1474917Y796182D01*
X1474720Y796097D01*
X1474508Y795984D01*
X1474311Y795858D01*
X1474113Y795717D01*
X1473930Y795547D01*
X1473916Y795533D01*
X1473888Y795505D01*
X1473846Y795449D01*
X1473775Y795364D01*
X1473705Y795266D01*
X1473620Y795139D01*
X1473535Y794984D01*
X1473437Y794800D01*
X1473352Y794603D01*
X1473253Y794363D01*
X1473169Y794109D01*
X1473098Y793828D01*
X1473028Y793518D01*
X1472986Y793165D01*
X1472957Y792798D01*
X1472943Y792404D01*
Y792390D01*
Y792333D01*
Y792235D01*
X1472957Y792108D01*
X1472971Y791967D01*
X1473000Y791798D01*
X1473028Y791600D01*
X1473056Y791403D01*
X1473169Y790952D01*
X1473253Y790726D01*
X1473338Y790487D01*
X1473451Y790261D01*
X1473578Y790035D01*
X1473719Y789824D01*
X1473888Y789627D01*
X1473902Y789613D01*
X1473930Y789584D01*
X1473987Y789528D01*
X1474057Y789472D01*
X1474156Y789387D01*
X1474268Y789303D01*
X1474395Y789218D01*
X1474536Y789119D01*
X1474705Y789020D01*
X1474889Y788936D01*
X1475086Y788851D01*
X1475298Y788767D01*
X1475523Y788710D01*
X1475749Y788654D01*
X1476002Y788626D01*
X1476270Y788612D01*
X1476341D01*
X1476411Y788626D01*
X1476510D01*
X1476637Y788640D01*
X1476778Y788668D01*
X1476947Y788696D01*
X1477116Y788739D01*
X1477313Y788795D01*
X1477497Y788866D01*
X1477708Y788936D01*
X1477905Y789035D01*
X1478103Y789162D01*
X1478300Y789288D01*
X1478497Y789443D01*
X1478681Y789627D01*
X1478695Y789641D01*
X1478723Y789669D01*
X1478765Y789740D01*
X1478836Y789824D01*
X1478906Y789923D01*
X1478977Y790050D01*
X1479061Y790205D01*
X1479160Y790374D01*
X1479245Y790571D01*
X1479329Y790797D01*
X1479400Y791036D01*
X1479484Y791290D01*
X1479541Y791572D01*
X1479583Y791882D01*
X1479611Y792206D01*
X1479625Y792545D01*
Y792559D01*
Y792601D01*
Y792657D01*
Y792742D01*
X1479611Y792841D01*
Y792968D01*
X1479597Y793095D01*
X1479569Y793250D01*
X1479527Y793574D01*
X1479456Y793912D01*
X1479357Y794279D01*
X1479216Y794617D01*
Y794631D01*
X1479202Y794659D01*
X1479174Y794702D01*
X1479146Y794758D01*
X1479047Y794927D01*
X1478920Y795125D01*
X1478751Y795350D01*
X1478540Y795576D01*
X1478300Y795801D01*
X1478032Y795999D01*
X1478018D01*
X1478004Y796027D01*
X1477962Y796041D01*
X1477891Y796083D01*
X1477821Y796111D01*
X1477736Y796154D01*
X1477525Y796252D01*
X1477271Y796337D01*
X1476975Y796421D01*
X1476637Y796478D01*
X1476284Y796492D01*
D02*
G37*
G36*
X1442959Y796492D02*
X1442832D01*
X1442733Y796478D01*
X1442607Y796464D01*
X1442480Y796435D01*
X1442325Y796407D01*
X1442155Y796379D01*
X1441789Y796266D01*
X1441592Y796182D01*
X1441394Y796097D01*
X1441183Y795984D01*
X1440985Y795857D01*
X1440788Y795717D01*
X1440605Y795547D01*
X1440591Y795533D01*
X1440562Y795505D01*
X1440520Y795449D01*
X1440450Y795364D01*
X1440379Y795266D01*
X1440295Y795139D01*
X1440210Y794984D01*
X1440111Y794800D01*
X1440027Y794603D01*
X1439928Y794363D01*
X1439844Y794109D01*
X1439773Y793828D01*
X1439703Y793517D01*
X1439660Y793165D01*
X1439632Y792798D01*
X1439618Y792404D01*
Y792390D01*
Y792333D01*
Y792235D01*
X1439632Y792108D01*
X1439646Y791967D01*
X1439674Y791798D01*
X1439703Y791600D01*
X1439731Y791403D01*
X1439844Y790952D01*
X1439928Y790726D01*
X1440013Y790487D01*
X1440125Y790261D01*
X1440252Y790035D01*
X1440393Y789824D01*
X1440562Y789627D01*
X1440577Y789613D01*
X1440605Y789584D01*
X1440661Y789528D01*
X1440732Y789472D01*
X1440830Y789387D01*
X1440943Y789302D01*
X1441070Y789218D01*
X1441211Y789119D01*
X1441380Y789020D01*
X1441563Y788936D01*
X1441761Y788851D01*
X1441972Y788767D01*
X1442198Y788710D01*
X1442423Y788654D01*
X1442677Y788626D01*
X1442945Y788612D01*
X1443015D01*
X1443086Y788626D01*
X1443185D01*
X1443311Y788640D01*
X1443452Y788668D01*
X1443622Y788696D01*
X1443791Y788739D01*
X1443988Y788795D01*
X1444171Y788865D01*
X1444383Y788936D01*
X1444580Y789035D01*
X1444778Y789162D01*
X1444975Y789288D01*
X1445172Y789443D01*
X1445356Y789627D01*
X1445370Y789641D01*
X1445398Y789669D01*
X1445440Y789739D01*
X1445511Y789824D01*
X1445581Y789923D01*
X1445652Y790050D01*
X1445736Y790205D01*
X1445835Y790374D01*
X1445919Y790571D01*
X1446004Y790797D01*
X1446074Y791036D01*
X1446159Y791290D01*
X1446215Y791572D01*
X1446258Y791882D01*
X1446286Y792206D01*
X1446300Y792545D01*
Y792559D01*
Y792601D01*
Y792657D01*
Y792742D01*
X1446286Y792841D01*
Y792968D01*
X1446272Y793094D01*
X1446244Y793250D01*
X1446201Y793574D01*
X1446131Y793912D01*
X1446032Y794279D01*
X1445891Y794617D01*
Y794631D01*
X1445877Y794659D01*
X1445849Y794702D01*
X1445821Y794758D01*
X1445722Y794927D01*
X1445595Y795125D01*
X1445426Y795350D01*
X1445215Y795576D01*
X1444975Y795801D01*
X1444707Y795999D01*
X1444693D01*
X1444679Y796027D01*
X1444637Y796041D01*
X1444566Y796083D01*
X1444496Y796111D01*
X1444411Y796154D01*
X1444200Y796252D01*
X1443946Y796337D01*
X1443650Y796421D01*
X1443311Y796478D01*
X1442959Y796492D01*
D02*
G37*
G36*
X1505265Y586561D02*
X1505096D01*
X1504687Y586547D01*
X1504320Y586504D01*
X1503996Y586448D01*
X1503714Y586392D01*
X1503587Y586349D01*
X1503474Y586321D01*
X1503390Y586293D01*
X1503305Y586265D01*
X1503249Y586237D01*
X1503206Y586222D01*
X1503178Y586208D01*
X1503164D01*
X1502882Y586067D01*
X1502643Y585912D01*
X1502431Y585743D01*
X1502262Y585588D01*
X1502121Y585447D01*
X1502036Y585334D01*
X1501966Y585250D01*
X1501952Y585236D01*
Y585222D01*
X1501811Y584982D01*
X1501712Y584728D01*
X1501642Y584489D01*
X1501599Y584277D01*
X1501571Y584094D01*
X1501543Y583953D01*
Y583896D01*
Y583854D01*
Y583840D01*
Y583826D01*
X1501557Y583615D01*
X1501585Y583403D01*
X1501628Y583220D01*
X1501684Y583037D01*
X1501825Y582698D01*
X1501994Y582402D01*
X1502065Y582275D01*
X1502149Y582177D01*
X1502220Y582078D01*
X1502290Y581993D01*
X1502347Y581937D01*
X1502389Y581895D01*
X1502417Y581866D01*
X1502431Y581852D01*
X1502558Y581754D01*
X1502713Y581655D01*
X1502868Y581556D01*
X1503051Y581472D01*
X1503404Y581303D01*
X1503770Y581162D01*
X1503954Y581105D01*
X1504109Y581049D01*
X1504264Y581007D01*
X1504391Y580964D01*
X1504489Y580936D01*
X1504574Y580908D01*
X1504630Y580894D01*
X1504644D01*
X1504870Y580837D01*
X1505067Y580781D01*
X1505251Y580739D01*
X1505420Y580696D01*
X1505561Y580654D01*
X1505688Y580626D01*
X1505800Y580584D01*
X1505899Y580555D01*
X1505984Y580541D01*
X1506054Y580513D01*
X1506153Y580485D01*
X1506209Y580457D01*
X1506223D01*
X1506407Y580386D01*
X1506548Y580316D01*
X1506674Y580245D01*
X1506773Y580175D01*
X1506844Y580118D01*
X1506886Y580076D01*
X1506914Y580048D01*
X1506928Y580034D01*
X1506999Y579935D01*
X1507055Y579837D01*
X1507083Y579738D01*
X1507111Y579653D01*
X1507126Y579569D01*
X1507140Y579498D01*
Y579456D01*
Y579442D01*
X1507126Y579244D01*
X1507069Y579075D01*
X1506985Y578906D01*
X1506900Y578765D01*
X1506801Y578652D01*
X1506731Y578568D01*
X1506674Y578511D01*
X1506646Y578497D01*
X1506449Y578371D01*
X1506223Y578272D01*
X1505984Y578201D01*
X1505758Y578159D01*
X1505547Y578131D01*
X1505378Y578103D01*
X1505222D01*
X1504898Y578117D01*
X1504616Y578173D01*
X1504377Y578244D01*
X1504165Y578328D01*
X1503996Y578413D01*
X1503883Y578483D01*
X1503813Y578540D01*
X1503784Y578554D01*
X1503601Y578751D01*
X1503460Y578963D01*
X1503333Y579202D01*
X1503249Y579442D01*
X1503178Y579653D01*
X1503122Y579823D01*
X1503108Y579879D01*
Y579935D01*
X1503094Y579963D01*
Y579977D01*
X1501177Y579794D01*
X1501219Y579498D01*
X1501275Y579216D01*
X1501360Y578948D01*
X1501430Y578709D01*
X1501529Y578483D01*
X1501628Y578272D01*
X1501726Y578088D01*
X1501825Y577919D01*
X1501924Y577778D01*
X1502022Y577651D01*
X1502107Y577539D01*
X1502191Y577440D01*
X1502248Y577370D01*
X1502304Y577327D01*
X1502332Y577299D01*
X1502347Y577285D01*
X1502544Y577130D01*
X1502755Y577003D01*
X1502981Y576890D01*
X1503221Y576792D01*
X1503446Y576721D01*
X1503686Y576651D01*
X1504151Y576552D01*
X1504362Y576510D01*
X1504560Y576482D01*
X1504729Y576467D01*
X1504884Y576453D01*
X1505011Y576439D01*
X1505194D01*
X1505645Y576453D01*
X1506054Y576496D01*
X1506421Y576552D01*
X1506576Y576580D01*
X1506731Y576622D01*
X1506858Y576651D01*
X1506970Y576679D01*
X1507069Y576707D01*
X1507154Y576735D01*
X1507224Y576763D01*
X1507267Y576777D01*
X1507295Y576792D01*
X1507309D01*
X1507619Y576947D01*
X1507873Y577116D01*
X1508112Y577285D01*
X1508295Y577468D01*
X1508436Y577623D01*
X1508549Y577764D01*
X1508606Y577849D01*
X1508634Y577863D01*
Y577877D01*
X1508789Y578159D01*
X1508916Y578427D01*
X1509000Y578695D01*
X1509057Y578948D01*
X1509085Y579146D01*
X1509099Y579244D01*
X1509113Y579315D01*
Y579456D01*
X1509099Y579794D01*
X1509057Y580090D01*
X1508986Y580358D01*
X1508916Y580584D01*
X1508845Y580767D01*
X1508775Y580894D01*
X1508732Y580978D01*
X1508718Y581007D01*
X1508563Y581232D01*
X1508380Y581429D01*
X1508197Y581599D01*
X1508028Y581740D01*
X1507873Y581852D01*
X1507746Y581937D01*
X1507661Y581993D01*
X1507647Y582007D01*
X1507633D01*
X1507492Y582078D01*
X1507351Y582149D01*
X1507013Y582275D01*
X1506660Y582388D01*
X1506322Y582501D01*
X1506167Y582543D01*
X1506012Y582585D01*
X1505871Y582628D01*
X1505758Y582656D01*
X1505659Y582684D01*
X1505589Y582698D01*
X1505533Y582712D01*
X1505518D01*
X1505265Y582783D01*
X1505039Y582839D01*
X1504828Y582896D01*
X1504630Y582952D01*
X1504475Y583008D01*
X1504320Y583065D01*
X1504193Y583121D01*
X1504081Y583163D01*
X1503982Y583206D01*
X1503911Y583248D01*
X1503841Y583276D01*
X1503799Y583304D01*
X1503728Y583347D01*
X1503714Y583361D01*
X1503615Y583460D01*
X1503545Y583558D01*
X1503503Y583657D01*
X1503474Y583755D01*
X1503446Y583826D01*
X1503432Y583896D01*
Y583939D01*
Y583953D01*
X1503446Y584094D01*
X1503474Y584207D01*
X1503531Y584319D01*
X1503587Y584404D01*
X1503643Y584474D01*
X1503700Y584517D01*
X1503728Y584545D01*
X1503742Y584559D01*
X1503940Y584686D01*
X1504151Y584771D01*
X1504377Y584841D01*
X1504588Y584883D01*
X1504771Y584911D01*
X1504926Y584926D01*
X1505067D01*
X1505363Y584911D01*
X1505617Y584869D01*
X1505829Y584813D01*
X1505998Y584756D01*
X1506139Y584700D01*
X1506237Y584644D01*
X1506294Y584601D01*
X1506308Y584587D01*
X1506449Y584446D01*
X1506576Y584277D01*
X1506674Y584108D01*
X1506745Y583925D01*
X1506801Y583770D01*
X1506829Y583643D01*
X1506858Y583544D01*
Y583530D01*
Y583516D01*
X1508831Y583586D01*
X1508817Y583840D01*
X1508775Y584066D01*
X1508718Y584291D01*
X1508648Y584489D01*
X1508578Y584686D01*
X1508493Y584869D01*
X1508408Y585024D01*
X1508324Y585179D01*
X1508225Y585306D01*
X1508141Y585419D01*
X1508056Y585518D01*
X1507985Y585602D01*
X1507929Y585659D01*
X1507887Y585701D01*
X1507858Y585729D01*
X1507844Y585743D01*
X1507661Y585884D01*
X1507464Y586011D01*
X1507252Y586124D01*
X1507027Y586222D01*
X1506801Y586293D01*
X1506576Y586363D01*
X1506125Y586462D01*
X1505913Y586490D01*
X1505730Y586519D01*
X1505547Y586533D01*
X1505392Y586547D01*
X1505265Y586561D01*
D02*
G37*
G36*
X1522632Y586378D02*
X1520645D01*
X1519150Y579555D01*
X1517459Y586378D01*
X1515090D01*
X1513314Y579667D01*
X1511848Y586378D01*
X1509832D01*
X1512144Y576622D01*
X1514287D01*
X1516232Y583911D01*
X1518149Y576622D01*
X1520278D01*
X1522632Y586378D01*
D02*
G37*
G36*
X1527552D02*
X1523661D01*
Y576622D01*
X1527355D01*
X1527735Y576637D01*
X1528088Y576651D01*
X1528384Y576679D01*
X1528623Y576721D01*
X1528821Y576763D01*
X1528976Y576792D01*
X1529018Y576806D01*
X1529060D01*
X1529075Y576820D01*
X1529089D01*
X1529399Y576933D01*
X1529681Y577060D01*
X1529906Y577186D01*
X1530104Y577313D01*
X1530259Y577426D01*
X1530371Y577511D01*
X1530442Y577567D01*
X1530470Y577595D01*
X1530710Y577863D01*
X1530921Y578145D01*
X1531104Y578441D01*
X1531246Y578709D01*
X1531358Y578963D01*
X1531415Y579061D01*
X1531443Y579146D01*
X1531471Y579230D01*
X1531499Y579287D01*
X1531513Y579315D01*
Y579329D01*
X1531612Y579667D01*
X1531697Y580020D01*
X1531753Y580358D01*
X1531781Y580682D01*
X1531795Y580837D01*
X1531809Y580978D01*
Y581091D01*
X1531823Y581204D01*
Y581401D01*
X1531809Y581895D01*
X1531767Y582332D01*
X1531753Y582543D01*
X1531725Y582726D01*
X1531697Y582910D01*
X1531668Y583065D01*
X1531626Y583206D01*
X1531598Y583333D01*
X1531570Y583445D01*
X1531556Y583530D01*
X1531527Y583601D01*
X1531513Y583657D01*
X1531499Y583685D01*
Y583699D01*
X1531372Y584038D01*
X1531217Y584348D01*
X1531062Y584615D01*
X1530907Y584841D01*
X1530780Y585024D01*
X1530668Y585165D01*
X1530597Y585250D01*
X1530583Y585278D01*
X1530569D01*
X1530329Y585504D01*
X1530090Y585687D01*
X1529836Y585842D01*
X1529610Y585969D01*
X1529413Y586067D01*
X1529244Y586138D01*
X1529187Y586152D01*
X1529145Y586166D01*
X1529117Y586180D01*
X1529103D01*
X1528835Y586251D01*
X1528539Y586293D01*
X1528229Y586335D01*
X1527933Y586349D01*
X1527665Y586363D01*
X1527552Y586378D01*
D02*
G37*
%LPD*%
G36*
X1527101Y584714D02*
X1527270D01*
X1527411Y584700D01*
X1527538D01*
X1527665Y584686D01*
X1527764D01*
X1527919Y584658D01*
X1528031Y584644D01*
X1528102Y584630D01*
X1528116D01*
X1528313Y584573D01*
X1528482Y584503D01*
X1528638Y584432D01*
X1528779Y584348D01*
X1528877Y584277D01*
X1528962Y584221D01*
X1529004Y584178D01*
X1529018Y584164D01*
X1529145Y584023D01*
X1529258Y583868D01*
X1529357Y583713D01*
X1529441Y583572D01*
X1529497Y583431D01*
X1529540Y583318D01*
X1529568Y583248D01*
X1529582Y583234D01*
Y583220D01*
X1529653Y582966D01*
X1529709Y582698D01*
X1529737Y582402D01*
X1529765Y582120D01*
X1529779Y581881D01*
X1529794Y581768D01*
Y581669D01*
Y581599D01*
Y581542D01*
Y581500D01*
Y581486D01*
X1529779Y581091D01*
X1529765Y580725D01*
X1529723Y580429D01*
X1529695Y580175D01*
X1529653Y579963D01*
X1529638Y579879D01*
X1529610Y579823D01*
X1529596Y579766D01*
Y579724D01*
X1529582Y579710D01*
Y579696D01*
X1529497Y579470D01*
X1529427Y579273D01*
X1529328Y579118D01*
X1529258Y578991D01*
X1529187Y578892D01*
X1529131Y578822D01*
X1529089Y578779D01*
X1529075Y578765D01*
X1528948Y578666D01*
X1528821Y578582D01*
X1528694Y578511D01*
X1528567Y578455D01*
X1528454Y578413D01*
X1528370Y578385D01*
X1528313Y578356D01*
X1528285D01*
X1528130Y578328D01*
X1527947Y578314D01*
X1527749Y578286D01*
X1527552D01*
X1527369Y578272D01*
X1525635D01*
Y584728D01*
X1526918D01*
X1527101Y584714D01*
D02*
G37*
%LPC*%
G36*
X1611381Y556128D02*
X1609408D01*
Y552293D01*
X1605559D01*
Y556128D01*
X1603586D01*
Y546372D01*
X1605559D01*
Y550644D01*
X1609408D01*
Y546372D01*
X1611381D01*
Y556128D01*
D02*
G37*
G36*
X1640111D02*
X1638292D01*
Y549558D01*
X1634261Y556128D01*
X1632357D01*
Y546372D01*
X1634176D01*
Y552801D01*
X1638137Y546372D01*
X1640111D01*
Y556128D01*
D02*
G37*
G36*
X1658338D02*
X1650599D01*
Y554478D01*
X1653489D01*
Y546372D01*
X1655462D01*
Y554478D01*
X1658338D01*
Y556128D01*
D02*
G37*
G36*
X1649429D02*
X1642197D01*
Y546372D01*
X1649612D01*
Y548022D01*
X1644171D01*
Y550672D01*
X1649062D01*
Y552321D01*
X1644171D01*
Y554478D01*
X1649429D01*
Y556128D01*
D02*
G37*
G36*
X1626916D02*
X1622518D01*
Y546372D01*
X1624491D01*
Y550447D01*
X1625126D01*
X1625323Y550432D01*
X1625492Y550418D01*
X1625633Y550390D01*
X1625746Y550376D01*
X1625816Y550348D01*
X1625859Y550334D01*
X1625873D01*
X1625986Y550277D01*
X1626098Y550221D01*
X1626197Y550150D01*
X1626296Y550094D01*
X1626366Y550024D01*
X1626423Y549967D01*
X1626451Y549939D01*
X1626465Y549925D01*
X1626521Y549854D01*
X1626592Y549784D01*
X1626747Y549572D01*
X1626916Y549347D01*
X1627099Y549093D01*
X1627254Y548868D01*
X1627325Y548755D01*
X1627381Y548670D01*
X1627438Y548600D01*
X1627480Y548543D01*
X1627494Y548501D01*
X1627508Y548487D01*
X1628918Y546372D01*
X1631286D01*
X1630088Y548275D01*
X1629961Y548473D01*
X1629834Y548670D01*
X1629721Y548839D01*
X1629609Y548994D01*
X1629510Y549136D01*
X1629425Y549276D01*
X1629256Y549488D01*
X1629129Y549657D01*
X1629045Y549770D01*
X1628974Y549840D01*
X1628960Y549854D01*
X1628805Y550024D01*
X1628622Y550179D01*
X1628453Y550305D01*
X1628284Y550432D01*
X1628143Y550531D01*
X1628030Y550602D01*
X1627945Y550658D01*
X1627931Y550672D01*
X1627917D01*
X1628157Y550714D01*
X1628368Y550771D01*
X1628565Y550827D01*
X1628763Y550898D01*
X1628932Y550968D01*
X1629087Y551039D01*
X1629242Y551109D01*
X1629369Y551194D01*
X1629482Y551264D01*
X1629580Y551335D01*
X1629665Y551405D01*
X1629721Y551461D01*
X1629778Y551504D01*
X1629820Y551546D01*
X1629834Y551560D01*
X1629848Y551574D01*
X1629961Y551715D01*
X1630060Y551856D01*
X1630229Y552166D01*
X1630342Y552462D01*
X1630412Y552758D01*
X1630468Y553012D01*
X1630483Y553111D01*
Y553209D01*
X1630497Y553280D01*
Y553350D01*
Y553379D01*
Y553393D01*
X1630483Y553703D01*
X1630426Y553999D01*
X1630356Y554253D01*
X1630285Y554478D01*
X1630201Y554661D01*
X1630130Y554802D01*
X1630102Y554845D01*
X1630074Y554887D01*
X1630060Y554901D01*
Y554915D01*
X1629891Y555155D01*
X1629707Y555352D01*
X1629524Y555507D01*
X1629341Y555648D01*
X1629172Y555733D01*
X1629045Y555803D01*
X1628960Y555846D01*
X1628946Y555860D01*
X1628932D01*
X1628791Y555902D01*
X1628636Y555944D01*
X1628284Y556015D01*
X1627903Y556057D01*
X1627536Y556099D01*
X1627353D01*
X1627198Y556114D01*
X1627043D01*
X1626916Y556128D01*
D02*
G37*
G36*
X1620657D02*
X1613425D01*
Y546372D01*
X1620840D01*
Y548022D01*
X1615399D01*
Y550672D01*
X1620291D01*
Y552321D01*
X1615399D01*
Y554478D01*
X1620657D01*
Y556128D01*
D02*
G37*
G36*
X1602303D02*
X1594563D01*
Y554478D01*
X1597453D01*
Y546372D01*
X1599427D01*
Y554478D01*
X1602303D01*
Y556128D01*
D02*
G37*
G36*
X1593393D02*
X1586162D01*
Y546372D01*
X1593577D01*
Y548022D01*
X1588135D01*
Y550672D01*
X1593027D01*
Y552321D01*
X1588135D01*
Y554478D01*
X1593393D01*
Y556128D01*
D02*
G37*
%LPD*%
G36*
X1626874Y554464D02*
X1627184D01*
X1627311Y554450D01*
X1627395D01*
X1627438Y554436D01*
X1627452D01*
X1627621Y554394D01*
X1627776Y554337D01*
X1627903Y554281D01*
X1628002Y554210D01*
X1628086Y554140D01*
X1628157Y554098D01*
X1628185Y554055D01*
X1628199Y554041D01*
X1628284Y553928D01*
X1628354Y553787D01*
X1628396Y553661D01*
X1628439Y553534D01*
X1628453Y553421D01*
X1628467Y553336D01*
Y553280D01*
Y553252D01*
X1628453Y553097D01*
X1628439Y552956D01*
X1628396Y552829D01*
X1628368Y552716D01*
X1628326Y552631D01*
X1628284Y552575D01*
X1628269Y552533D01*
X1628255Y552519D01*
X1628171Y552420D01*
X1628086Y552336D01*
X1627903Y552209D01*
X1627832Y552166D01*
X1627762Y552138D01*
X1627720Y552110D01*
X1627706D01*
X1627635Y552096D01*
X1627522Y552068D01*
X1627410Y552053D01*
X1627283Y552039D01*
X1626987Y552025D01*
X1626691Y552011D01*
X1626409Y551997D01*
X1624491D01*
Y554478D01*
X1626747D01*
X1626874Y554464D01*
D02*
G37*
%LPC*%
G36*
X1434910Y641849D02*
X1432936D01*
Y638015D01*
X1429088D01*
Y641849D01*
X1427114D01*
Y632094D01*
X1429088D01*
Y636366D01*
X1432936D01*
Y632094D01*
X1434910D01*
Y641849D01*
D02*
G37*
G36*
X1457225Y641906D02*
X1455703D01*
X1455562Y641581D01*
X1455379Y641285D01*
X1455181Y641003D01*
X1454984Y640778D01*
X1454815Y640595D01*
X1454660Y640454D01*
X1454603Y640397D01*
X1454561Y640355D01*
X1454533Y640341D01*
X1454519Y640327D01*
X1454209Y640101D01*
X1453913Y639904D01*
X1453645Y639749D01*
X1453405Y639636D01*
X1453208Y639552D01*
X1453067Y639481D01*
X1453011Y639467D01*
X1452968Y639453D01*
X1452954Y639439D01*
X1452940D01*
Y637747D01*
X1453448Y637944D01*
X1453899Y638156D01*
X1454110Y638269D01*
X1454307Y638396D01*
X1454491Y638508D01*
X1454660Y638621D01*
X1454815Y638734D01*
X1454956Y638833D01*
X1455069Y638917D01*
X1455167Y639002D01*
X1455252Y639072D01*
X1455308Y639114D01*
X1455336Y639143D01*
X1455351Y639157D01*
Y632094D01*
X1457225D01*
Y641906D01*
D02*
G37*
G36*
X1449641D02*
X1448119D01*
X1447978Y641581D01*
X1447795Y641285D01*
X1447597Y641003D01*
X1447400Y640778D01*
X1447231Y640595D01*
X1447076Y640454D01*
X1447019Y640397D01*
X1446977Y640355D01*
X1446949Y640341D01*
X1446935Y640327D01*
X1446624Y640101D01*
X1446328Y639904D01*
X1446061Y639749D01*
X1445821Y639636D01*
X1445624Y639552D01*
X1445483Y639481D01*
X1445426Y639467D01*
X1445384Y639453D01*
X1445370Y639439D01*
X1445356D01*
Y637747D01*
X1445863Y637944D01*
X1446314Y638156D01*
X1446526Y638269D01*
X1446723Y638396D01*
X1446906Y638508D01*
X1447076Y638621D01*
X1447231Y638734D01*
X1447372Y638833D01*
X1447484Y638917D01*
X1447583Y639002D01*
X1447668Y639072D01*
X1447724Y639114D01*
X1447752Y639143D01*
X1447766Y639157D01*
Y632094D01*
X1449641D01*
Y641906D01*
D02*
G37*
G36*
X1444003Y641849D02*
X1436263D01*
Y640200D01*
X1439153D01*
Y632094D01*
X1441127D01*
Y640200D01*
X1444003D01*
Y641849D01*
D02*
G37*
G36*
X1421165D02*
X1417275D01*
Y632094D01*
X1420968D01*
X1421349Y632108D01*
X1421701Y632122D01*
X1421997Y632151D01*
X1422237Y632193D01*
X1422434Y632235D01*
X1422589Y632263D01*
X1422631Y632277D01*
X1422674D01*
X1422688Y632292D01*
X1422702D01*
X1423012Y632404D01*
X1423294Y632531D01*
X1423519Y632658D01*
X1423717Y632785D01*
X1423872Y632898D01*
X1423985Y632982D01*
X1424055Y633039D01*
X1424083Y633067D01*
X1424323Y633335D01*
X1424534Y633617D01*
X1424718Y633913D01*
X1424859Y634181D01*
X1424971Y634434D01*
X1425028Y634533D01*
X1425056Y634618D01*
X1425084Y634702D01*
X1425112Y634759D01*
X1425127Y634787D01*
Y634801D01*
X1425225Y635139D01*
X1425310Y635492D01*
X1425366Y635830D01*
X1425394Y636154D01*
X1425408Y636309D01*
X1425423Y636450D01*
Y636563D01*
X1425437Y636676D01*
Y636873D01*
X1425423Y637366D01*
X1425380Y637803D01*
X1425366Y638015D01*
X1425338Y638198D01*
X1425310Y638382D01*
X1425282Y638537D01*
X1425239Y638677D01*
X1425211Y638804D01*
X1425183Y638917D01*
X1425169Y639002D01*
X1425141Y639072D01*
X1425127Y639129D01*
X1425112Y639157D01*
Y639171D01*
X1424986Y639509D01*
X1424831Y639819D01*
X1424675Y640087D01*
X1424520Y640313D01*
X1424393Y640496D01*
X1424281Y640637D01*
X1424210Y640722D01*
X1424196Y640750D01*
X1424182D01*
X1423942Y640975D01*
X1423703Y641159D01*
X1423449Y641314D01*
X1423224Y641441D01*
X1423026Y641539D01*
X1422857Y641610D01*
X1422801Y641624D01*
X1422758Y641638D01*
X1422730Y641652D01*
X1422716D01*
X1422448Y641722D01*
X1422152Y641765D01*
X1421842Y641807D01*
X1421546Y641821D01*
X1421278Y641835D01*
X1421165Y641849D01*
D02*
G37*
%LPD*%
G36*
X1420714Y640186D02*
X1420883D01*
X1421024Y640172D01*
X1421151D01*
X1421278Y640158D01*
X1421377D01*
X1421532Y640129D01*
X1421645Y640115D01*
X1421715Y640101D01*
X1421729D01*
X1421927Y640045D01*
X1422096Y639975D01*
X1422251Y639904D01*
X1422392Y639819D01*
X1422490Y639749D01*
X1422575Y639692D01*
X1422617Y639650D01*
X1422631Y639636D01*
X1422758Y639495D01*
X1422871Y639340D01*
X1422970Y639185D01*
X1423054Y639044D01*
X1423111Y638903D01*
X1423153Y638790D01*
X1423181Y638720D01*
X1423195Y638706D01*
Y638692D01*
X1423266Y638438D01*
X1423322Y638170D01*
X1423350Y637874D01*
X1423379Y637592D01*
X1423393Y637352D01*
X1423407Y637240D01*
Y637141D01*
Y637071D01*
Y637014D01*
Y636972D01*
Y636958D01*
X1423393Y636563D01*
X1423379Y636197D01*
X1423336Y635900D01*
X1423308Y635647D01*
X1423266Y635435D01*
X1423252Y635351D01*
X1423224Y635294D01*
X1423209Y635238D01*
Y635196D01*
X1423195Y635182D01*
Y635167D01*
X1423111Y634942D01*
X1423040Y634744D01*
X1422942Y634589D01*
X1422871Y634463D01*
X1422801Y634364D01*
X1422744Y634293D01*
X1422702Y634251D01*
X1422688Y634237D01*
X1422561Y634138D01*
X1422434Y634054D01*
X1422307Y633983D01*
X1422180Y633927D01*
X1422068Y633885D01*
X1421983Y633856D01*
X1421927Y633828D01*
X1421898D01*
X1421743Y633800D01*
X1421560Y633786D01*
X1421363Y633758D01*
X1421165D01*
X1420982Y633744D01*
X1419248D01*
Y640200D01*
X1420531D01*
X1420714Y640186D01*
D02*
G37*
%LPC*%
G36*
X1365666Y579811D02*
X1365497D01*
X1365088Y579797D01*
X1364721Y579754D01*
X1364397Y579698D01*
X1364115Y579642D01*
X1363988Y579599D01*
X1363876Y579571D01*
X1363791Y579543D01*
X1363706Y579515D01*
X1363650Y579487D01*
X1363608Y579473D01*
X1363580Y579458D01*
X1363565D01*
X1363284Y579317D01*
X1363044Y579162D01*
X1362832Y578993D01*
X1362663Y578838D01*
X1362522Y578697D01*
X1362438Y578584D01*
X1362367Y578500D01*
X1362353Y578486D01*
Y578472D01*
X1362212Y578232D01*
X1362113Y577978D01*
X1362043Y577739D01*
X1362001Y577527D01*
X1361973Y577344D01*
X1361944Y577203D01*
Y577146D01*
Y577104D01*
Y577090D01*
Y577076D01*
X1361958Y576865D01*
X1361987Y576653D01*
X1362029Y576470D01*
X1362085Y576287D01*
X1362226Y575948D01*
X1362395Y575652D01*
X1362466Y575525D01*
X1362550Y575427D01*
X1362621Y575328D01*
X1362691Y575243D01*
X1362748Y575187D01*
X1362790Y575145D01*
X1362818Y575117D01*
X1362832Y575102D01*
X1362959Y575004D01*
X1363114Y574905D01*
X1363269Y574806D01*
X1363453Y574722D01*
X1363805Y574553D01*
X1364172Y574412D01*
X1364355Y574355D01*
X1364510Y574299D01*
X1364665Y574257D01*
X1364792Y574214D01*
X1364890Y574186D01*
X1364975Y574158D01*
X1365031Y574144D01*
X1365046D01*
X1365271Y574087D01*
X1365468Y574031D01*
X1365652Y573989D01*
X1365821Y573946D01*
X1365962Y573904D01*
X1366089Y573876D01*
X1366202Y573834D01*
X1366300Y573806D01*
X1366385Y573791D01*
X1366455Y573763D01*
X1366554Y573735D01*
X1366610Y573707D01*
X1366624D01*
X1366808Y573636D01*
X1366949Y573566D01*
X1367076Y573495D01*
X1367174Y573425D01*
X1367245Y573368D01*
X1367287Y573326D01*
X1367315Y573298D01*
X1367329Y573284D01*
X1367400Y573185D01*
X1367456Y573087D01*
X1367484Y572988D01*
X1367513Y572903D01*
X1367527Y572819D01*
X1367541Y572748D01*
Y572706D01*
Y572692D01*
X1367527Y572495D01*
X1367470Y572325D01*
X1367386Y572156D01*
X1367301Y572015D01*
X1367202Y571902D01*
X1367132Y571818D01*
X1367076Y571761D01*
X1367047Y571747D01*
X1366850Y571620D01*
X1366624Y571522D01*
X1366385Y571451D01*
X1366159Y571409D01*
X1365948Y571381D01*
X1365779Y571353D01*
X1365624D01*
X1365299Y571367D01*
X1365017Y571423D01*
X1364778Y571494D01*
X1364566Y571578D01*
X1364397Y571663D01*
X1364284Y571733D01*
X1364214Y571790D01*
X1364186Y571804D01*
X1364002Y572001D01*
X1363862Y572212D01*
X1363735Y572452D01*
X1363650Y572692D01*
X1363580Y572903D01*
X1363523Y573073D01*
X1363509Y573129D01*
Y573185D01*
X1363495Y573213D01*
Y573228D01*
X1361578Y573044D01*
X1361620Y572748D01*
X1361676Y572466D01*
X1361761Y572198D01*
X1361832Y571959D01*
X1361930Y571733D01*
X1362029Y571522D01*
X1362128Y571339D01*
X1362226Y571169D01*
X1362325Y571028D01*
X1362424Y570901D01*
X1362508Y570789D01*
X1362593Y570690D01*
X1362649Y570620D01*
X1362706Y570577D01*
X1362734Y570549D01*
X1362748Y570535D01*
X1362945Y570380D01*
X1363157Y570253D01*
X1363382Y570140D01*
X1363622Y570042D01*
X1363847Y569971D01*
X1364087Y569901D01*
X1364552Y569802D01*
X1364764Y569760D01*
X1364961Y569731D01*
X1365130Y569717D01*
X1365285Y569703D01*
X1365412Y569689D01*
X1365595D01*
X1366046Y569703D01*
X1366455Y569746D01*
X1366822Y569802D01*
X1366977Y569830D01*
X1367132Y569872D01*
X1367259Y569901D01*
X1367372Y569929D01*
X1367470Y569957D01*
X1367555Y569985D01*
X1367625Y570013D01*
X1367668Y570028D01*
X1367696Y570042D01*
X1367710D01*
X1368020Y570197D01*
X1368274Y570366D01*
X1368513Y570535D01*
X1368697Y570718D01*
X1368838Y570873D01*
X1368951Y571014D01*
X1369007Y571099D01*
X1369035Y571113D01*
Y571127D01*
X1369190Y571409D01*
X1369317Y571677D01*
X1369402Y571945D01*
X1369458Y572198D01*
X1369486Y572396D01*
X1369500Y572495D01*
X1369514Y572565D01*
Y572706D01*
X1369500Y573044D01*
X1369458Y573340D01*
X1369388Y573608D01*
X1369317Y573834D01*
X1369247Y574017D01*
X1369176Y574144D01*
X1369134Y574228D01*
X1369120Y574257D01*
X1368965Y574482D01*
X1368781Y574679D01*
X1368598Y574849D01*
X1368429Y574990D01*
X1368274Y575102D01*
X1368147Y575187D01*
X1368062Y575243D01*
X1368048Y575257D01*
X1368034D01*
X1367893Y575328D01*
X1367752Y575398D01*
X1367414Y575525D01*
X1367061Y575638D01*
X1366723Y575751D01*
X1366568Y575793D01*
X1366413Y575835D01*
X1366272Y575878D01*
X1366159Y575906D01*
X1366061Y575934D01*
X1365990Y575948D01*
X1365934Y575962D01*
X1365920D01*
X1365666Y576033D01*
X1365440Y576089D01*
X1365229Y576146D01*
X1365031Y576202D01*
X1364876Y576258D01*
X1364721Y576315D01*
X1364595Y576371D01*
X1364482Y576413D01*
X1364383Y576456D01*
X1364313Y576498D01*
X1364242Y576526D01*
X1364200Y576554D01*
X1364129Y576597D01*
X1364115Y576611D01*
X1364017Y576710D01*
X1363946Y576808D01*
X1363904Y576907D01*
X1363876Y577006D01*
X1363847Y577076D01*
X1363833Y577146D01*
Y577189D01*
Y577203D01*
X1363847Y577344D01*
X1363876Y577457D01*
X1363932Y577569D01*
X1363988Y577654D01*
X1364045Y577724D01*
X1364101Y577767D01*
X1364129Y577795D01*
X1364143Y577809D01*
X1364341Y577936D01*
X1364552Y578021D01*
X1364778Y578091D01*
X1364989Y578133D01*
X1365172Y578162D01*
X1365327Y578176D01*
X1365468D01*
X1365765Y578162D01*
X1366018Y578119D01*
X1366230Y578063D01*
X1366399Y578006D01*
X1366540Y577950D01*
X1366639Y577894D01*
X1366695Y577851D01*
X1366709Y577837D01*
X1366850Y577696D01*
X1366977Y577527D01*
X1367076Y577358D01*
X1367146Y577175D01*
X1367202Y577020D01*
X1367231Y576893D01*
X1367259Y576794D01*
Y576780D01*
Y576766D01*
X1369232Y576836D01*
X1369218Y577090D01*
X1369176Y577316D01*
X1369120Y577541D01*
X1369049Y577739D01*
X1368979Y577936D01*
X1368894Y578119D01*
X1368810Y578274D01*
X1368725Y578429D01*
X1368626Y578556D01*
X1368542Y578669D01*
X1368457Y578768D01*
X1368387Y578852D01*
X1368330Y578909D01*
X1368288Y578951D01*
X1368260Y578979D01*
X1368246Y578993D01*
X1368062Y579134D01*
X1367865Y579261D01*
X1367654Y579374D01*
X1367428Y579473D01*
X1367202Y579543D01*
X1366977Y579613D01*
X1366526Y579712D01*
X1366314Y579740D01*
X1366131Y579768D01*
X1365948Y579783D01*
X1365793Y579797D01*
X1365666Y579811D01*
D02*
G37*
G36*
X1378240Y579628D02*
X1370501D01*
Y577978D01*
X1373391D01*
Y569872D01*
X1375365D01*
Y577978D01*
X1378240D01*
Y579628D01*
D02*
G37*
G36*
X1356658D02*
X1352260D01*
Y569872D01*
X1354233D01*
Y573946D01*
X1354868D01*
X1355065Y573932D01*
X1355234Y573918D01*
X1355375Y573890D01*
X1355488Y573876D01*
X1355558Y573848D01*
X1355601Y573834D01*
X1355615D01*
X1355728Y573777D01*
X1355840Y573721D01*
X1355939Y573650D01*
X1356038Y573594D01*
X1356108Y573524D01*
X1356165Y573467D01*
X1356193Y573439D01*
X1356207Y573425D01*
X1356263Y573354D01*
X1356334Y573284D01*
X1356489Y573073D01*
X1356658Y572847D01*
X1356841Y572593D01*
X1356996Y572368D01*
X1357067Y572255D01*
X1357123Y572170D01*
X1357180Y572100D01*
X1357222Y572043D01*
X1357236Y572001D01*
X1357250Y571987D01*
X1358660Y569872D01*
X1361028D01*
X1359830Y571776D01*
X1359703Y571973D01*
X1359576Y572170D01*
X1359463Y572339D01*
X1359350Y572495D01*
X1359252Y572635D01*
X1359167Y572776D01*
X1358998Y572988D01*
X1358871Y573157D01*
X1358786Y573270D01*
X1358716Y573340D01*
X1358702Y573354D01*
X1358547Y573524D01*
X1358364Y573679D01*
X1358194Y573806D01*
X1358025Y573932D01*
X1357884Y574031D01*
X1357772Y574101D01*
X1357687Y574158D01*
X1357673Y574172D01*
X1357659D01*
X1357898Y574214D01*
X1358110Y574271D01*
X1358307Y574327D01*
X1358505Y574398D01*
X1358674Y574468D01*
X1358829Y574539D01*
X1358984Y574609D01*
X1359111Y574694D01*
X1359223Y574764D01*
X1359322Y574835D01*
X1359407Y574905D01*
X1359463Y574962D01*
X1359520Y575004D01*
X1359562Y575046D01*
X1359576Y575060D01*
X1359590Y575074D01*
X1359703Y575215D01*
X1359801Y575356D01*
X1359971Y575666D01*
X1360083Y575962D01*
X1360154Y576258D01*
X1360210Y576512D01*
X1360224Y576611D01*
Y576710D01*
X1360238Y576780D01*
Y576851D01*
Y576879D01*
Y576893D01*
X1360224Y577203D01*
X1360168Y577499D01*
X1360098Y577753D01*
X1360027Y577978D01*
X1359942Y578162D01*
X1359872Y578302D01*
X1359844Y578345D01*
X1359816Y578387D01*
X1359801Y578401D01*
Y578415D01*
X1359632Y578655D01*
X1359449Y578852D01*
X1359266Y579007D01*
X1359083Y579148D01*
X1358913Y579233D01*
X1358786Y579303D01*
X1358702Y579346D01*
X1358688Y579360D01*
X1358674D01*
X1358533Y579402D01*
X1358378Y579444D01*
X1358025Y579515D01*
X1357645Y579557D01*
X1357278Y579599D01*
X1357095D01*
X1356940Y579613D01*
X1356785D01*
X1356658Y579628D01*
D02*
G37*
%LPD*%
G36*
X1356616Y577964D02*
X1356926D01*
X1357053Y577950D01*
X1357137D01*
X1357180Y577936D01*
X1357194D01*
X1357363Y577894D01*
X1357518Y577837D01*
X1357645Y577781D01*
X1357743Y577710D01*
X1357828Y577640D01*
X1357898Y577598D01*
X1357927Y577555D01*
X1357941Y577541D01*
X1358025Y577428D01*
X1358096Y577287D01*
X1358138Y577161D01*
X1358180Y577034D01*
X1358194Y576921D01*
X1358209Y576836D01*
Y576780D01*
Y576752D01*
X1358194Y576597D01*
X1358180Y576456D01*
X1358138Y576329D01*
X1358110Y576216D01*
X1358068Y576132D01*
X1358025Y576075D01*
X1358011Y576033D01*
X1357997Y576019D01*
X1357912Y575920D01*
X1357828Y575835D01*
X1357645Y575709D01*
X1357574Y575666D01*
X1357504Y575638D01*
X1357461Y575610D01*
X1357447D01*
X1357377Y575596D01*
X1357264Y575568D01*
X1357151Y575554D01*
X1357024Y575539D01*
X1356728Y575525D01*
X1356432Y575511D01*
X1356150Y575497D01*
X1354233D01*
Y577978D01*
X1356489D01*
X1356616Y577964D01*
D02*
G37*
%LPC*%
G36*
X1418349Y579691D02*
X1410610D01*
Y578042D01*
X1413500D01*
Y569936D01*
X1415474D01*
Y578042D01*
X1418349D01*
Y579691D01*
D02*
G37*
G36*
X1405747D02*
X1401461D01*
Y569936D01*
X1405690D01*
X1405930Y569950D01*
X1406353D01*
X1406522Y569964D01*
X1406790D01*
X1406888Y569978D01*
X1407030D01*
X1407086Y569992D01*
X1407142D01*
X1407424Y570035D01*
X1407678Y570105D01*
X1407903Y570176D01*
X1408101Y570260D01*
X1408256Y570331D01*
X1408369Y570401D01*
X1408439Y570443D01*
X1408467Y570457D01*
X1408665Y570612D01*
X1408820Y570782D01*
X1408975Y570937D01*
X1409088Y571106D01*
X1409186Y571247D01*
X1409257Y571360D01*
X1409299Y571430D01*
X1409313Y571458D01*
X1409412Y571698D01*
X1409496Y571924D01*
X1409553Y572149D01*
X1409581Y572346D01*
X1409609Y572516D01*
X1409623Y572643D01*
Y572755D01*
X1409609Y573065D01*
X1409553Y573347D01*
X1409468Y573587D01*
X1409384Y573813D01*
X1409299Y573982D01*
X1409214Y574109D01*
X1409158Y574193D01*
X1409144Y574221D01*
X1408947Y574447D01*
X1408735Y574630D01*
X1408496Y574785D01*
X1408284Y574898D01*
X1408087Y574997D01*
X1407918Y575067D01*
X1407861Y575081D01*
X1407819Y575095D01*
X1407791Y575109D01*
X1407777D01*
X1408002Y575236D01*
X1408199Y575363D01*
X1408369Y575518D01*
X1408510Y575645D01*
X1408608Y575772D01*
X1408693Y575871D01*
X1408749Y575941D01*
X1408763Y575969D01*
X1408890Y576195D01*
X1408989Y576406D01*
X1409045Y576618D01*
X1409102Y576815D01*
X1409130Y576984D01*
X1409144Y577111D01*
Y577196D01*
Y577210D01*
Y577224D01*
X1409130Y577450D01*
X1409102Y577675D01*
X1409045Y577858D01*
X1408989Y578028D01*
X1408933Y578168D01*
X1408876Y578281D01*
X1408848Y578338D01*
X1408834Y578366D01*
X1408721Y578549D01*
X1408594Y578704D01*
X1408467Y578845D01*
X1408355Y578972D01*
X1408242Y579057D01*
X1408157Y579127D01*
X1408101Y579169D01*
X1408087Y579184D01*
X1407918Y579296D01*
X1407734Y579381D01*
X1407565Y579451D01*
X1407410Y579508D01*
X1407269Y579550D01*
X1407170Y579578D01*
X1407100Y579592D01*
X1407072D01*
X1406832Y579621D01*
X1406564Y579649D01*
X1406282Y579663D01*
X1406000Y579677D01*
X1405747Y579691D01*
D02*
G37*
G36*
X1422508Y579747D02*
X1422367D01*
X1422113Y579733D01*
X1421874Y579705D01*
X1421634Y579649D01*
X1421422Y579592D01*
X1421225Y579508D01*
X1421042Y579423D01*
X1420887Y579339D01*
X1420732Y579240D01*
X1420605Y579141D01*
X1420478Y579057D01*
X1420379Y578972D01*
X1420309Y578887D01*
X1420238Y578831D01*
X1420196Y578775D01*
X1420168Y578746D01*
X1420154Y578732D01*
X1419985Y578493D01*
X1419844Y578211D01*
X1419717Y577915D01*
X1419604Y577605D01*
X1419519Y577280D01*
X1419435Y576942D01*
X1419378Y576618D01*
X1419322Y576294D01*
X1419294Y575984D01*
X1419266Y575702D01*
X1419238Y575434D01*
X1419223Y575208D01*
X1419209Y575025D01*
Y574757D01*
X1419223Y574250D01*
X1419252Y573784D01*
X1419294Y573347D01*
X1419350Y572953D01*
X1419407Y572600D01*
X1419477Y572276D01*
X1419562Y571994D01*
X1419646Y571740D01*
X1419717Y571529D01*
X1419801Y571331D01*
X1419872Y571176D01*
X1419942Y571050D01*
X1419985Y570965D01*
X1420027Y570895D01*
X1420055Y570852D01*
X1420069Y570838D01*
X1420238Y570641D01*
X1420422Y570486D01*
X1420605Y570331D01*
X1420802Y570218D01*
X1420986Y570105D01*
X1421183Y570020D01*
X1421366Y569950D01*
X1421549Y569894D01*
X1421718Y569837D01*
X1421874Y569809D01*
X1422015Y569781D01*
X1422127Y569767D01*
X1422226D01*
X1422311Y569753D01*
X1422367D01*
X1422621Y569767D01*
X1422860Y569795D01*
X1423100Y569851D01*
X1423311Y569908D01*
X1423509Y569978D01*
X1423692Y570063D01*
X1423847Y570161D01*
X1424002Y570260D01*
X1424129Y570345D01*
X1424256Y570443D01*
X1424355Y570528D01*
X1424439Y570598D01*
X1424496Y570655D01*
X1424538Y570711D01*
X1424566Y570739D01*
X1424580Y570754D01*
X1424749Y570993D01*
X1424890Y571275D01*
X1425031Y571571D01*
X1425130Y571895D01*
X1425229Y572220D01*
X1425299Y572544D01*
X1425370Y572882D01*
X1425426Y573206D01*
X1425454Y573517D01*
X1425482Y573798D01*
X1425511Y574066D01*
X1425525Y574292D01*
X1425539Y574475D01*
Y574743D01*
X1425525Y575251D01*
X1425497Y575716D01*
X1425454Y576139D01*
X1425384Y576533D01*
X1425313Y576900D01*
X1425243Y577224D01*
X1425144Y577520D01*
X1425060Y577774D01*
X1424975Y578013D01*
X1424890Y578197D01*
X1424806Y578366D01*
X1424735Y578507D01*
X1424665Y578605D01*
X1424622Y578676D01*
X1424594Y578718D01*
X1424580Y578732D01*
X1424425Y578916D01*
X1424256Y579071D01*
X1424073Y579198D01*
X1423889Y579324D01*
X1423706Y579423D01*
X1423523Y579494D01*
X1423354Y579564D01*
X1423170Y579621D01*
X1423001Y579663D01*
X1422860Y579691D01*
X1422719Y579719D01*
X1422607Y579733D01*
X1422508Y579747D01*
D02*
G37*
%LPD*%
G36*
X1405549Y578056D02*
X1405916D01*
X1406000Y578042D01*
X1406156D01*
X1406212Y578028D01*
X1406226D01*
X1406395Y577999D01*
X1406550Y577957D01*
X1406677Y577901D01*
X1406790Y577844D01*
X1406860Y577788D01*
X1406931Y577732D01*
X1406959Y577703D01*
X1406973Y577689D01*
X1407058Y577576D01*
X1407114Y577450D01*
X1407170Y577337D01*
X1407199Y577224D01*
X1407213Y577111D01*
X1407227Y577027D01*
Y576970D01*
Y576956D01*
X1407213Y576787D01*
X1407184Y576632D01*
X1407128Y576505D01*
X1407086Y576392D01*
X1407030Y576294D01*
X1406973Y576237D01*
X1406945Y576195D01*
X1406931Y576181D01*
X1406818Y576082D01*
X1406691Y576012D01*
X1406564Y575955D01*
X1406437Y575913D01*
X1406310Y575871D01*
X1406226Y575857D01*
X1406170Y575843D01*
X1406085D01*
X1406000Y575828D01*
X1405563D01*
X1405324Y575814D01*
X1403435D01*
Y578070D01*
X1405394D01*
X1405549Y578056D01*
D02*
G37*
G36*
X1405676Y574179D02*
X1405845Y574165D01*
X1406015D01*
X1406156Y574151D01*
X1406282Y574137D01*
X1406381Y574123D01*
X1406480Y574109D01*
X1406550Y574095D01*
X1406663Y574080D01*
X1406733Y574052D01*
X1406747D01*
X1406888Y573996D01*
X1407015Y573925D01*
X1407128Y573855D01*
X1407213Y573770D01*
X1407283Y573714D01*
X1407325Y573657D01*
X1407354Y573615D01*
X1407368Y573601D01*
X1407438Y573474D01*
X1407495Y573347D01*
X1407537Y573235D01*
X1407565Y573108D01*
X1407579Y573009D01*
X1407593Y572924D01*
Y572868D01*
Y572854D01*
X1407579Y572671D01*
X1407551Y572501D01*
X1407509Y572361D01*
X1407452Y572248D01*
X1407396Y572149D01*
X1407354Y572079D01*
X1407325Y572036D01*
X1407311Y572022D01*
X1407199Y571924D01*
X1407086Y571839D01*
X1406959Y571768D01*
X1406846Y571712D01*
X1406747Y571684D01*
X1406663Y571656D01*
X1406607Y571642D01*
X1406593D01*
X1406536Y571628D01*
X1406452D01*
X1406268Y571613D01*
X1406043Y571599D01*
X1405817D01*
X1405606Y571585D01*
X1403435D01*
Y574193D01*
X1405479D01*
X1405676Y574179D01*
D02*
G37*
G36*
X1422494Y578183D02*
X1422607Y578168D01*
X1422705Y578126D01*
X1422790Y578084D01*
X1422860Y578042D01*
X1422917Y578013D01*
X1422945Y577985D01*
X1422959Y577971D01*
X1423044Y577873D01*
X1423128Y577746D01*
X1423199Y577605D01*
X1423269Y577464D01*
X1423311Y577323D01*
X1423354Y577210D01*
X1423368Y577140D01*
X1423382Y577125D01*
Y577111D01*
X1423410Y576984D01*
X1423438Y576829D01*
X1423467Y576646D01*
X1423495Y576463D01*
X1423523Y576082D01*
X1423537Y575687D01*
X1423551Y575504D01*
Y575321D01*
X1423565Y575166D01*
Y575025D01*
Y574912D01*
Y574813D01*
Y574757D01*
Y574743D01*
Y574433D01*
X1423551Y574137D01*
Y573869D01*
X1423537Y573629D01*
X1423523Y573404D01*
X1423509Y573206D01*
X1423481Y573023D01*
X1423467Y572868D01*
X1423452Y572727D01*
X1423424Y572614D01*
X1423410Y572516D01*
X1423396Y572431D01*
X1423382Y572375D01*
Y572318D01*
X1423368Y572304D01*
Y572290D01*
X1423311Y572093D01*
X1423241Y571938D01*
X1423170Y571797D01*
X1423114Y571698D01*
X1423058Y571613D01*
X1423001Y571557D01*
X1422973Y571529D01*
X1422959Y571515D01*
X1422860Y571444D01*
X1422762Y571388D01*
X1422663Y571360D01*
X1422564Y571331D01*
X1422494Y571317D01*
X1422423Y571303D01*
X1422367D01*
X1422240Y571317D01*
X1422127Y571331D01*
X1422029Y571374D01*
X1421944Y571416D01*
X1421874Y571444D01*
X1421817Y571487D01*
X1421789Y571501D01*
X1421775Y571515D01*
X1421690Y571613D01*
X1421606Y571740D01*
X1421535Y571881D01*
X1421465Y572022D01*
X1421422Y572149D01*
X1421380Y572262D01*
X1421366Y572332D01*
X1421352Y572361D01*
X1421324Y572501D01*
X1421296Y572657D01*
X1421267Y572826D01*
X1421253Y573009D01*
X1421225Y573404D01*
X1421211Y573798D01*
X1421197Y573982D01*
Y574165D01*
X1421183Y574320D01*
Y574461D01*
Y574574D01*
Y574673D01*
Y574729D01*
Y574743D01*
Y575053D01*
X1421197Y575349D01*
Y575603D01*
X1421211Y575857D01*
X1421225Y576068D01*
X1421239Y576279D01*
X1421253Y576449D01*
X1421281Y576618D01*
X1421296Y576759D01*
X1421310Y576872D01*
X1421324Y576970D01*
X1421338Y577055D01*
X1421352Y577111D01*
Y577168D01*
X1421366Y577182D01*
Y577196D01*
X1421422Y577393D01*
X1421493Y577562D01*
X1421549Y577689D01*
X1421620Y577802D01*
X1421676Y577873D01*
X1421718Y577929D01*
X1421747Y577957D01*
X1421761Y577971D01*
X1421859Y578042D01*
X1421972Y578098D01*
X1422071Y578140D01*
X1422170Y578168D01*
X1422240Y578183D01*
X1422311Y578197D01*
X1422367D01*
X1422494Y578183D01*
D02*
G37*
%LPC*%
G36*
X1324378Y388213D02*
X1314622D01*
Y379444D01*
X1324378D01*
Y381418D01*
X1320304D01*
Y382052D01*
X1320318Y382249D01*
X1320332Y382419D01*
X1320360Y382560D01*
X1320374Y382672D01*
X1320402Y382743D01*
X1320416Y382785D01*
Y382799D01*
X1320473Y382912D01*
X1320529Y383025D01*
X1320600Y383124D01*
X1320656Y383222D01*
X1320726Y383293D01*
X1320783Y383349D01*
X1320811Y383377D01*
X1320825Y383391D01*
X1320896Y383448D01*
X1320966Y383518D01*
X1321178Y383673D01*
X1321403Y383842D01*
X1321657Y384026D01*
X1321882Y384181D01*
X1321995Y384251D01*
X1322080Y384308D01*
X1322150Y384364D01*
X1322207Y384406D01*
X1322249Y384420D01*
X1322263Y384435D01*
X1324378Y385844D01*
Y388213D01*
X1322475Y387014D01*
X1322277Y386887D01*
X1322080Y386760D01*
X1321911Y386648D01*
X1321756Y386535D01*
X1321615Y386436D01*
X1321474Y386352D01*
X1321262Y386183D01*
X1321093Y386056D01*
X1320980Y385971D01*
X1320910Y385901D01*
X1320896Y385886D01*
X1320726Y385731D01*
X1320571Y385548D01*
X1320444Y385379D01*
X1320318Y385210D01*
X1320219Y385069D01*
X1320148Y384956D01*
X1320092Y384871D01*
X1320078Y384857D01*
Y384843D01*
X1320036Y385083D01*
X1319979Y385294D01*
X1319923Y385492D01*
X1319852Y385689D01*
X1319782Y385858D01*
X1319711Y386013D01*
X1319641Y386168D01*
X1319556Y386295D01*
X1319486Y386408D01*
X1319415Y386507D01*
X1319345Y386591D01*
X1319289Y386648D01*
X1319246Y386704D01*
X1319204Y386746D01*
X1319190Y386760D01*
X1319176Y386775D01*
X1319035Y386887D01*
X1318894Y386986D01*
X1318584Y387155D01*
X1318288Y387268D01*
X1317992Y387338D01*
X1317738Y387395D01*
X1317639Y387409D01*
X1317540D01*
X1317470Y387423D01*
X1317400D01*
X1317371D01*
X1317357D01*
X1317047Y387409D01*
X1316751Y387353D01*
X1316497Y387282D01*
X1316272Y387212D01*
X1316089Y387127D01*
X1315948Y387057D01*
X1315905Y387028D01*
X1315863Y387000D01*
X1315849Y386986D01*
X1315835D01*
X1315595Y386817D01*
X1315398Y386634D01*
X1315243Y386450D01*
X1315102Y386267D01*
X1315017Y386098D01*
X1314947Y385971D01*
X1314904Y385886D01*
X1314890Y385872D01*
Y385858D01*
X1314848Y385717D01*
X1314806Y385562D01*
X1314735Y385210D01*
X1314693Y384829D01*
X1314651Y384463D01*
Y384279D01*
X1314637Y384124D01*
Y383969D01*
X1314622Y383842D01*
Y388213D01*
X1324378D01*
Y388213D01*
D02*
G37*
G36*
Y377767D02*
X1314622D01*
Y370352D01*
X1324378D01*
Y377767D01*
D02*
G37*
G36*
Y369323D02*
X1314622D01*
Y356522D01*
X1314623D01*
X1324378Y358834D01*
Y360977D01*
X1317089Y362923D01*
X1324378Y364840D01*
Y366968D01*
X1314622Y369323D01*
X1324378D01*
Y369323D01*
D02*
G37*
G36*
X1324561Y355930D02*
X1314439D01*
Y346471D01*
X1314439D01*
Y351180D01*
X1314453Y350757D01*
X1314496Y350348D01*
X1314566Y349995D01*
X1314637Y349685D01*
X1314679Y349558D01*
X1314707Y349432D01*
X1314735Y349333D01*
X1314778Y349248D01*
X1314792Y349178D01*
X1314820Y349122D01*
X1314834Y349093D01*
Y349079D01*
X1314947Y348825D01*
X1315088Y348586D01*
X1315243Y348374D01*
X1315384Y348191D01*
X1315511Y348036D01*
X1315623Y347909D01*
X1315694Y347839D01*
X1315708Y347825D01*
X1315722Y347811D01*
X1315948Y347613D01*
X1316187Y347430D01*
X1316399Y347275D01*
X1316610Y347148D01*
X1316793Y347049D01*
X1316934Y346965D01*
X1316991Y346951D01*
X1317033Y346922D01*
X1317047Y346908D01*
X1317061D01*
X1317456Y346767D01*
X1317879Y346655D01*
X1318302Y346584D01*
X1318696Y346528D01*
X1318880Y346514D01*
X1319049Y346499D01*
X1319190Y346485D01*
X1319317D01*
X1319429Y346471D01*
X1319571D01*
X1319993Y346485D01*
X1320402Y346528D01*
X1320783Y346584D01*
X1321135Y346669D01*
X1321460Y346767D01*
X1321756Y346880D01*
X1322038Y346993D01*
X1322277Y347120D01*
X1322503Y347233D01*
X1322686Y347345D01*
X1322855Y347458D01*
X1322996Y347557D01*
X1323095Y347641D01*
X1323179Y347698D01*
X1323222Y347740D01*
X1323236Y347754D01*
X1323475Y348008D01*
X1323673Y348276D01*
X1323856Y348544D01*
X1323997Y348840D01*
X1324124Y349122D01*
X1324237Y349417D01*
X1324321Y349685D01*
X1324392Y349967D01*
X1324448Y350221D01*
X1324490Y350461D01*
X1324519Y350672D01*
X1324533Y350855D01*
X1324547Y350996D01*
X1324561Y351109D01*
Y351209D01*
X1324547Y351603D01*
X1324505Y351969D01*
X1324434Y352322D01*
X1324349Y352646D01*
X1324251Y352956D01*
X1324138Y353238D01*
X1324025Y353492D01*
X1323898Y353731D01*
X1323771Y353929D01*
X1323659Y354112D01*
X1323546Y354267D01*
X1323447Y354394D01*
X1323363Y354507D01*
X1323292Y354577D01*
X1323250Y354619D01*
X1323236Y354633D01*
X1322968Y354859D01*
X1322686Y355056D01*
X1322390Y355240D01*
X1322094Y355381D01*
X1321784Y355507D01*
X1321474Y355620D01*
X1321163Y355705D01*
X1320867Y355775D01*
X1320600Y355818D01*
X1320332Y355860D01*
X1320106Y355888D01*
X1319909Y355916D01*
X1319740D01*
X1319613Y355930D01*
X1324561D01*
Y355930D01*
D02*
G37*
G36*
X1324378Y345259D02*
X1314622D01*
Y337788D01*
X1324378D01*
Y339761D01*
X1320698D01*
Y341509D01*
X1320684Y341721D01*
Y341918D01*
X1320670Y342101D01*
X1320656Y342270D01*
X1320642Y342425D01*
X1320628Y342552D01*
Y342679D01*
X1320614Y342778D01*
X1320600Y342877D01*
X1320585Y342947D01*
Y343003D01*
X1320571Y343046D01*
Y343074D01*
X1320515Y343271D01*
X1320444Y343455D01*
X1320374Y343624D01*
X1320289Y343779D01*
X1320219Y343906D01*
X1320163Y344004D01*
X1320120Y344061D01*
X1320106Y344089D01*
X1319965Y344272D01*
X1319810Y344427D01*
X1319641Y344582D01*
X1319500Y344695D01*
X1319359Y344794D01*
X1319246Y344864D01*
X1319176Y344907D01*
X1319148Y344921D01*
X1318908Y345033D01*
X1318654Y345118D01*
X1318386Y345174D01*
X1318147Y345217D01*
X1317949Y345245D01*
X1317851D01*
X1317780Y345259D01*
X1324378D01*
Y345259D01*
D02*
G37*
%LPD*%
G36*
X1317653Y385379D02*
X1317794Y385365D01*
X1317921Y385323D01*
X1318034Y385294D01*
X1318118Y385252D01*
X1318175Y385210D01*
X1318217Y385196D01*
X1318231Y385182D01*
X1318330Y385097D01*
X1318415Y385013D01*
X1318541Y384829D01*
X1318584Y384759D01*
X1318612Y384688D01*
X1318640Y384646D01*
Y384632D01*
X1318654Y384561D01*
X1318682Y384449D01*
X1318696Y384336D01*
X1318711Y384209D01*
X1318725Y383913D01*
X1318739Y383617D01*
X1318753Y383335D01*
Y381418D01*
X1316272D01*
Y383673D01*
X1316286Y383800D01*
Y384110D01*
X1316300Y384237D01*
Y384322D01*
X1316314Y384364D01*
Y384378D01*
X1316356Y384547D01*
X1316413Y384702D01*
X1316469Y384829D01*
X1316540Y384928D01*
X1316610Y385013D01*
X1316652Y385083D01*
X1316695Y385111D01*
X1316709Y385125D01*
X1316822Y385210D01*
X1316963Y385280D01*
X1317089Y385323D01*
X1317216Y385365D01*
X1317329Y385379D01*
X1317414Y385393D01*
X1317470D01*
X1317498D01*
X1317653Y385379D01*
D02*
G37*
G36*
X1322728Y372325D02*
X1320078D01*
Y377217D01*
X1318429D01*
Y372325D01*
X1316272D01*
Y377583D01*
X1314622D01*
Y377767D01*
X1322728D01*
Y372325D01*
D02*
G37*
G36*
X1321445Y365840D02*
X1314622Y364149D01*
Y367335D01*
X1321445Y365840D01*
D02*
G37*
G36*
X1321333Y360004D02*
X1314622Y358538D01*
Y361781D01*
X1321333Y360004D01*
D02*
G37*
G36*
X1319077Y355916D02*
X1318668Y355874D01*
X1318288Y355818D01*
X1317921Y355733D01*
X1317597Y355634D01*
X1317287Y355522D01*
X1317005Y355409D01*
X1316765Y355282D01*
X1316540Y355155D01*
X1316342Y355042D01*
X1316173Y354930D01*
X1316032Y354831D01*
X1315934Y354760D01*
X1315849Y354690D01*
X1315807Y354647D01*
X1315793Y354633D01*
X1315553Y354380D01*
X1315341Y354112D01*
X1315158Y353830D01*
X1315003Y353548D01*
X1314876Y353252D01*
X1314763Y352970D01*
X1314679Y352688D01*
X1314608Y352420D01*
X1314552Y352166D01*
X1314510Y351927D01*
X1314482Y351715D01*
X1314453Y351532D01*
Y351391D01*
X1314439Y351278D01*
Y355930D01*
X1319514D01*
X1319077Y355916D01*
D02*
G37*
G36*
X1319782Y353886D02*
X1320078Y353872D01*
X1320346Y353830D01*
X1320585Y353788D01*
X1320825Y353731D01*
X1321037Y353661D01*
X1321220Y353590D01*
X1321389Y353520D01*
X1321544Y353449D01*
X1321671Y353379D01*
X1321784Y353322D01*
X1321882Y353252D01*
X1321953Y353210D01*
X1321995Y353167D01*
X1322023Y353153D01*
X1322038Y353139D01*
X1322193Y352998D01*
X1322319Y352843D01*
X1322432Y352674D01*
X1322531Y352519D01*
X1322601Y352350D01*
X1322672Y352195D01*
X1322771Y351884D01*
X1322841Y351617D01*
X1322855Y351504D01*
X1322869Y351405D01*
X1322883Y351321D01*
Y351208D01*
X1322869Y350996D01*
X1322841Y350785D01*
X1322799Y350588D01*
X1322742Y350404D01*
X1322616Y350066D01*
X1322446Y349798D01*
X1322376Y349671D01*
X1322291Y349573D01*
X1322221Y349474D01*
X1322150Y349403D01*
X1322108Y349347D01*
X1322066Y349305D01*
X1322038Y349277D01*
X1322023Y349263D01*
X1321854Y349136D01*
X1321671Y349009D01*
X1321474Y348910D01*
X1321262Y348825D01*
X1320853Y348685D01*
X1320444Y348600D01*
X1320247Y348572D01*
X1320078Y348544D01*
X1319909Y348529D01*
X1319768Y348515D01*
X1319655Y348501D01*
X1319570D01*
X1319514D01*
X1319500D01*
X1319190Y348515D01*
X1318908Y348529D01*
X1318640Y348572D01*
X1318386Y348614D01*
X1318161Y348670D01*
X1317949Y348727D01*
X1317766Y348797D01*
X1317597Y348868D01*
X1317442Y348938D01*
X1317315Y349009D01*
X1317216Y349065D01*
X1317118Y349122D01*
X1317047Y349164D01*
X1317005Y349206D01*
X1316977Y349220D01*
X1316963Y349234D01*
X1316808Y349375D01*
X1316681Y349530D01*
X1316568Y349700D01*
X1316469Y349855D01*
X1316385Y350024D01*
X1316328Y350193D01*
X1316215Y350503D01*
X1316159Y350785D01*
X1316145Y350898D01*
X1316131Y351011D01*
X1316117Y351095D01*
Y351208D01*
X1316131Y351433D01*
X1316159Y351645D01*
X1316187Y351842D01*
X1316244Y352025D01*
X1316385Y352350D01*
X1316455Y352505D01*
X1316526Y352632D01*
X1316610Y352758D01*
X1316681Y352857D01*
X1316751Y352942D01*
X1316822Y353026D01*
X1316878Y353083D01*
X1316906Y353125D01*
X1316934Y353139D01*
X1316949Y353153D01*
X1317118Y353280D01*
X1317301Y353407D01*
X1317484Y353506D01*
X1317696Y353590D01*
X1318118Y353717D01*
X1318527Y353802D01*
X1318711Y353844D01*
X1318894Y353858D01*
X1319049Y353872D01*
X1319190Y353886D01*
X1319317Y353900D01*
X1319401D01*
X1319458D01*
X1319472D01*
X1319782Y353886D01*
D02*
G37*
G36*
X1317216Y345231D02*
X1316836Y345174D01*
X1316526Y345076D01*
X1316244Y344977D01*
X1316131Y344921D01*
X1316032Y344864D01*
X1315948Y344822D01*
X1315863Y344766D01*
X1315807Y344737D01*
X1315764Y344709D01*
X1315750Y344681D01*
X1315736D01*
X1315482Y344455D01*
X1315271Y344230D01*
X1315102Y343990D01*
X1314975Y343779D01*
X1314890Y343581D01*
X1314820Y343426D01*
X1314806Y343370D01*
X1314792Y343328D01*
X1314778Y343299D01*
Y343285D01*
X1314749Y343173D01*
X1314721Y343032D01*
X1314707Y342862D01*
X1314693Y342693D01*
X1314665Y342299D01*
X1314637Y341904D01*
Y341537D01*
X1314622Y341382D01*
Y345259D01*
X1317625D01*
X1317216Y345231D01*
D02*
G37*
G36*
X1317823Y343215D02*
X1317964Y343201D01*
X1318090Y343158D01*
X1318203Y343116D01*
X1318302Y343074D01*
X1318372Y343046D01*
X1318415Y343018D01*
X1318429Y343003D01*
X1318541Y342919D01*
X1318640Y342806D01*
X1318725Y342707D01*
X1318795Y342609D01*
X1318837Y342524D01*
X1318880Y342454D01*
X1318894Y342397D01*
X1318908Y342383D01*
X1318936Y342299D01*
X1318950Y342200D01*
X1318992Y341974D01*
X1319021Y341721D01*
X1319035Y341467D01*
Y341213D01*
X1319049Y341114D01*
Y339761D01*
X1316272D01*
Y341227D01*
X1316286Y341368D01*
Y341495D01*
X1316300Y341622D01*
Y341805D01*
X1316314Y341946D01*
X1316328Y342045D01*
X1316342Y342101D01*
Y342115D01*
X1316385Y342285D01*
X1316441Y342439D01*
X1316512Y342580D01*
X1316596Y342693D01*
X1316667Y342778D01*
X1316723Y342848D01*
X1316765Y342891D01*
X1316779Y342905D01*
X1316920Y343018D01*
X1317061Y343088D01*
X1317216Y343144D01*
X1317357Y343187D01*
X1317484Y343215D01*
X1317583Y343229D01*
X1317639D01*
X1317667D01*
X1317823Y343215D01*
D02*
G37*
D10*
X1400250Y532200D02*
G03*
X1400250Y532200I-1000J0D01*
G01*
X1459500Y317250D02*
G03*
X1459500Y317250I-1000J0D01*
G01*
X1782000Y638500D02*
G03*
X1782000Y638500I-1000J0D01*
G01*
X1497250Y369600D02*
G03*
X1497250Y369600I-1000J0D01*
G01*
X1477850Y544920D02*
X1481580Y548650D01*
X1540150D01*
Y486350D02*
Y548650D01*
X1477850Y486350D02*
X1540150D01*
X1477850D02*
Y544920D01*
X1640350Y616350D02*
Y680000D01*
Y616350D02*
X1706650D01*
Y682650D01*
X1643000D02*
X1706650D01*
X1640350Y680000D02*
X1643000Y682650D01*
X1354250Y469000D02*
Y476000D01*
X1338250Y469000D02*
Y476000D01*
X1354250D01*
D11*
X1462309Y550500D02*
G03*
X1462309Y550500I-559J0D01*
G01*
X1631500Y683350D02*
G03*
X1631500Y683350I-500J0D01*
G01*
X1372750Y773000D02*
Y798000D01*
X1415739Y643634D02*
X1493739D01*
X1326246Y306039D02*
Y390039D01*
X1584627Y557859D02*
X1716377D01*
X1637500Y480750D02*
Y491215D01*
X1651470D01*
Y480750D02*
Y491215D01*
X1651500Y462285D02*
Y472750D01*
X1637530Y462285D02*
X1651500D01*
X1637530D02*
Y472750D01*
X1319500Y581500D02*
X1379750D01*
X1383500D02*
X1426500D01*
X1590535Y647720D02*
X1601000D01*
X1590535Y633750D02*
Y647720D01*
Y633750D02*
X1601000D01*
X1609000Y633780D02*
X1619465D01*
Y647750D01*
X1609000D02*
X1619465D01*
X1759500Y579750D02*
X1773500D01*
Y599750D01*
X1759500D02*
X1773500D01*
X1732500Y579750D02*
X1745500D01*
X1732500D02*
Y599750D01*
X1745500D01*
X1455220Y553750D02*
Y564215D01*
X1441250D02*
X1455220D01*
X1441250Y553750D02*
Y564215D01*
X1441280Y535285D02*
Y545750D01*
Y535285D02*
X1455250D01*
Y545750D01*
X1547000Y451780D02*
X1557465D01*
Y465750D01*
X1547000D02*
X1557465D01*
X1528535Y465720D02*
X1539000D01*
X1528535Y451750D02*
Y465720D01*
Y451750D02*
X1539000D01*
X1407035Y499220D02*
X1417500D01*
X1407035Y485250D02*
Y499220D01*
Y485250D02*
X1417500D01*
X1425500Y485280D02*
X1435965D01*
Y499250D01*
X1425500D02*
X1435965D01*
X1425000Y543030D02*
X1435465D01*
Y557000D01*
X1425000D02*
X1435465D01*
X1406535Y556970D02*
X1417000D01*
X1406535Y543000D02*
Y556970D01*
Y543000D02*
X1417000D01*
X1455220Y524700D02*
Y535165D01*
X1441250D02*
X1455220D01*
X1441250Y524700D02*
Y535165D01*
X1441280Y506235D02*
Y516700D01*
Y506235D02*
X1455250D01*
Y516700D01*
X1366280Y586535D02*
Y597000D01*
Y586535D02*
X1380250D01*
Y597000D01*
X1380220Y605000D02*
Y615465D01*
X1366250D02*
X1380220D01*
X1366250Y605000D02*
Y615465D01*
X1426970Y605000D02*
Y615465D01*
X1413000D02*
X1426970D01*
X1413000Y605000D02*
Y615465D01*
X1413030Y586535D02*
Y597000D01*
Y586535D02*
X1427000D01*
Y597000D01*
X1333220Y605000D02*
Y615465D01*
X1319250D02*
X1333220D01*
X1319250Y605000D02*
Y615465D01*
X1319280Y586535D02*
Y597000D01*
Y586535D02*
X1333250D01*
Y597000D01*
X1479780Y341285D02*
Y351750D01*
Y341285D02*
X1493750D01*
Y351750D01*
X1493720Y359750D02*
Y370215D01*
X1479750D02*
X1493720D01*
X1479750Y359750D02*
Y370215D01*
X1544280Y375035D02*
Y385500D01*
Y375035D02*
X1558250D01*
Y385500D01*
X1558220Y393500D02*
Y403965D01*
X1544250D02*
X1558220D01*
X1544250Y393500D02*
Y403965D01*
X1461720Y424750D02*
Y435215D01*
X1447750D02*
X1461720D01*
X1447750Y424750D02*
Y435215D01*
X1447780Y406285D02*
Y416750D01*
Y406285D02*
X1461750D01*
Y416750D01*
X1475720Y424750D02*
Y435215D01*
X1461750D02*
X1475720D01*
X1461750Y424750D02*
Y435215D01*
X1461780Y406285D02*
Y416750D01*
Y406285D02*
X1475750D01*
Y416750D01*
X1483250Y327280D02*
X1493715D01*
Y341250D01*
X1483250D02*
X1493715D01*
X1464785Y341220D02*
X1475250D01*
X1464785Y327250D02*
Y341220D01*
Y327250D02*
X1475250D01*
X1553250Y327280D02*
X1563715D01*
Y341250D01*
X1553250D02*
X1563715D01*
X1534785Y341220D02*
X1545250D01*
X1534785Y327250D02*
Y341220D01*
Y327250D02*
X1545250D01*
X1447500Y603000D02*
X1461500D01*
X1447500Y583000D02*
Y603000D01*
Y583000D02*
X1461500D01*
X1475500Y603000D02*
X1488500D01*
Y583000D02*
Y603000D01*
X1475500Y583000D02*
X1488500D01*
X1459535Y582970D02*
X1470000D01*
X1459535Y569000D02*
Y582970D01*
Y569000D02*
X1470000D01*
X1478000Y569030D02*
X1488465D01*
Y583000D01*
X1478000D02*
X1488465D01*
X1673530Y564035D02*
Y574500D01*
Y564035D02*
X1687500D01*
Y574500D01*
X1687470Y582500D02*
Y592965D01*
X1673500D02*
X1687470D01*
X1673500Y582500D02*
Y592965D01*
X1590535Y633720D02*
X1601000D01*
X1590535Y619750D02*
Y633720D01*
Y619750D02*
X1601000D01*
X1609000Y619780D02*
X1619465D01*
Y633750D01*
X1609000D02*
X1619465D01*
X1590535Y675720D02*
X1601000D01*
X1590535Y661750D02*
Y675720D01*
Y661750D02*
X1601000D01*
X1609000Y661780D02*
X1619465D01*
Y675750D01*
X1609000D02*
X1619465D01*
X1590535Y689720D02*
X1601000D01*
X1590535Y675750D02*
Y689720D01*
Y675750D02*
X1601000D01*
X1609000Y675780D02*
X1619465D01*
Y689750D01*
X1609000D02*
X1619465D01*
X1590535Y619720D02*
X1601000D01*
X1590535Y605750D02*
Y619720D01*
Y605750D02*
X1601000D01*
X1609000Y605780D02*
X1619465D01*
Y619750D01*
X1609000D02*
X1619465D01*
X1437000Y239000D02*
Y262000D01*
X1412000Y239000D02*
X1437000D01*
X1332000Y238974D02*
Y264000D01*
Y238974D02*
X1358000D01*
X1438000Y383000D02*
Y390000D01*
X1410000D02*
X1438000D01*
X1332000Y368000D02*
Y390000D01*
X1353000D01*
X1338470Y465250D02*
Y475715D01*
X1324500D02*
X1338470D01*
X1324500Y465250D02*
Y475715D01*
X1324530Y446785D02*
Y457250D01*
Y446785D02*
X1338500D01*
Y457250D01*
X1436250Y427750D02*
Y441750D01*
X1416250D02*
X1436250D01*
X1416250Y427750D02*
Y441750D01*
X1436250Y400750D02*
Y413750D01*
X1416250Y400750D02*
X1436250D01*
X1416250D02*
Y413750D01*
X1333500Y400500D02*
Y414500D01*
Y400500D02*
X1353500D01*
Y414500D01*
X1333500Y428500D02*
Y441500D01*
X1353500D01*
Y428500D02*
Y441500D01*
X1441280Y477285D02*
Y487750D01*
Y477285D02*
X1455250D01*
Y487750D01*
X1455220Y495750D02*
Y506215D01*
X1441250D02*
X1455220D01*
X1441250Y495750D02*
Y506215D01*
X1326030Y714035D02*
Y724500D01*
Y714035D02*
X1340000D01*
Y724500D01*
X1339970Y732500D02*
Y742965D01*
X1326000D02*
X1339970D01*
X1326000Y732500D02*
Y742965D01*
X1312030Y714035D02*
Y724500D01*
Y714035D02*
X1326000D01*
Y724500D01*
X1325970Y732500D02*
Y742965D01*
X1312000D02*
X1325970D01*
X1312000Y732500D02*
Y742965D01*
X1574970Y556500D02*
Y566965D01*
X1561000D02*
X1574970D01*
X1561000Y556500D02*
Y566965D01*
X1561030Y538035D02*
Y548500D01*
Y538035D02*
X1575000D01*
Y548500D01*
X1609530Y462285D02*
Y472750D01*
Y462285D02*
X1623500D01*
Y472750D01*
X1623470Y480750D02*
Y491215D01*
X1609500D02*
X1623470D01*
X1609500Y480750D02*
Y491215D01*
X1664780Y462285D02*
Y472750D01*
Y462285D02*
X1678750D01*
Y472750D01*
X1678720Y480750D02*
Y491215D01*
X1664750D02*
X1678720D01*
X1664750Y480750D02*
Y491215D01*
X1578500Y605750D02*
X1592500D01*
X1578500Y585750D02*
Y605750D01*
Y585750D02*
X1592500D01*
X1606500Y605750D02*
X1619500D01*
Y585750D02*
Y605750D01*
X1606500Y585750D02*
X1619500D01*
X1631530Y564035D02*
Y574500D01*
Y564035D02*
X1645500D01*
Y574500D01*
X1645470Y582500D02*
Y592965D01*
X1631500D02*
X1645470D01*
X1631500Y582500D02*
Y592965D01*
X1645530Y564035D02*
Y574500D01*
Y564035D02*
X1659500D01*
Y574500D01*
X1659470Y582500D02*
Y592965D01*
X1645500D02*
X1659470D01*
X1645500Y582500D02*
Y592965D01*
X1720530Y710035D02*
Y720500D01*
Y710035D02*
X1734500D01*
Y720500D01*
X1734470Y728500D02*
Y738965D01*
X1720500D02*
X1734470D01*
X1720500Y728500D02*
Y738965D01*
X1706530Y710035D02*
Y720500D01*
Y710035D02*
X1720500D01*
Y720500D01*
X1720470Y728500D02*
Y738965D01*
X1706500D02*
X1720470D01*
X1706500Y728500D02*
Y738965D01*
X1692530Y710035D02*
Y720500D01*
Y710035D02*
X1706500D01*
Y720500D01*
X1706470Y728500D02*
Y738965D01*
X1692500D02*
X1706470D01*
X1692500Y728500D02*
Y738965D01*
X1678530Y710035D02*
Y720500D01*
Y710035D02*
X1692500D01*
Y720500D01*
X1692470Y728500D02*
Y738965D01*
X1678500D02*
X1692470D01*
X1678500Y728500D02*
Y738965D01*
X1664530Y710035D02*
Y720500D01*
Y710035D02*
X1678500D01*
Y720500D01*
X1678470Y728500D02*
Y738965D01*
X1664500D02*
X1678470D01*
X1664500Y728500D02*
Y738965D01*
X1650506Y710035D02*
Y720500D01*
Y710035D02*
X1664476D01*
Y720500D01*
X1664447Y728500D02*
Y738965D01*
X1650477D02*
X1664447D01*
X1650477Y728500D02*
Y738965D01*
X1636530Y710035D02*
Y720500D01*
Y710035D02*
X1650500D01*
Y720500D01*
X1650470Y728500D02*
Y738965D01*
X1636500D02*
X1650470D01*
X1636500Y728500D02*
Y738965D01*
X1622530Y710035D02*
Y720500D01*
Y710035D02*
X1636500D01*
Y720500D01*
X1636470Y728500D02*
Y738965D01*
X1622500D02*
X1636470D01*
X1622500Y728500D02*
Y738965D01*
X1608530Y710035D02*
Y720500D01*
Y710035D02*
X1622500D01*
Y720500D01*
X1622470Y728500D02*
Y738965D01*
X1608500D02*
X1622470D01*
X1608500Y728500D02*
Y738965D01*
X1692720Y480750D02*
Y491215D01*
X1678750D02*
X1692720D01*
X1678750Y480750D02*
Y491215D01*
X1678780Y462285D02*
Y472750D01*
Y462285D02*
X1692750D01*
Y472750D01*
X1775720Y421500D02*
Y431965D01*
X1761750D02*
X1775720D01*
X1761750Y421500D02*
Y431965D01*
X1761780Y403035D02*
Y413500D01*
Y403035D02*
X1775750D01*
Y413500D01*
X1590535Y703720D02*
X1601000D01*
X1590535Y689750D02*
Y703720D01*
Y689750D02*
X1601000D01*
X1609000Y689780D02*
X1619465D01*
Y703750D01*
X1609000D02*
X1619465D01*
X1775720Y314750D02*
Y325215D01*
X1761750D02*
X1775720D01*
X1761750Y314750D02*
Y325215D01*
X1761780Y296285D02*
Y306750D01*
Y296285D02*
X1775750D01*
Y306750D01*
X1595720Y314750D02*
Y325215D01*
X1581750D02*
X1595720D01*
X1581750Y314750D02*
Y325215D01*
X1581780Y296285D02*
Y306750D01*
Y296285D02*
X1595750D01*
Y306750D01*
X1623530Y462285D02*
Y472750D01*
Y462285D02*
X1637500D01*
Y472750D01*
X1637470Y480750D02*
Y491215D01*
X1623500D02*
X1637470D01*
X1623500Y480750D02*
Y491215D01*
X1726280Y635785D02*
Y646250D01*
Y635785D02*
X1740250D01*
Y646250D01*
X1740220Y654250D02*
Y664715D01*
X1726250D02*
X1740220D01*
X1726250Y654250D02*
Y664715D01*
X1590535Y661720D02*
X1601000D01*
X1590535Y647750D02*
Y661720D01*
Y647750D02*
X1601000D01*
X1609000Y647780D02*
X1619465D01*
Y661750D01*
X1609000D02*
X1619465D01*
X1651030Y462285D02*
Y472750D01*
Y462285D02*
X1665000D01*
Y472750D01*
X1664970Y480750D02*
Y491215D01*
X1651000D02*
X1664970D01*
X1651000Y480750D02*
Y491215D01*
X1706780Y462285D02*
Y472750D01*
Y462285D02*
X1720750D01*
Y472750D01*
X1720720Y480750D02*
Y491215D01*
X1706750D02*
X1720720D01*
X1706750Y480750D02*
Y491215D01*
X1692780Y462285D02*
Y472750D01*
Y462285D02*
X1706750D01*
Y472750D01*
X1706720Y480750D02*
Y491215D01*
X1692750D02*
X1706720D01*
X1692750Y480750D02*
Y491215D01*
X1734780Y462285D02*
Y472750D01*
Y462285D02*
X1748750D01*
Y472750D01*
X1748720Y480750D02*
Y491215D01*
X1734750D02*
X1748720D01*
X1734750Y480750D02*
Y491215D01*
X1763000Y671280D02*
X1773465D01*
Y685250D01*
X1763000D02*
X1773465D01*
X1744535Y685220D02*
X1755000D01*
X1744535Y671250D02*
Y685220D01*
Y671250D02*
X1755000D01*
X1744535Y627720D02*
X1755000D01*
X1744535Y613750D02*
Y627720D01*
Y613750D02*
X1755000D01*
X1763000Y613780D02*
X1773465D01*
Y627750D01*
X1763000D02*
X1773465D01*
X1701780Y564035D02*
Y574500D01*
Y564035D02*
X1715750D01*
Y574500D01*
X1715720Y582500D02*
Y592965D01*
X1701750D02*
X1715720D01*
X1701750Y582500D02*
Y592965D01*
X1734720Y480750D02*
Y491215D01*
X1720750D02*
X1734720D01*
X1720750Y480750D02*
Y491215D01*
X1720780Y462285D02*
Y472750D01*
Y462285D02*
X1734750D01*
Y472750D01*
X1687780Y564035D02*
Y574500D01*
Y564035D02*
X1701750D01*
Y574500D01*
X1701720Y582500D02*
Y592965D01*
X1687750D02*
X1701720D01*
X1687750Y582500D02*
Y592965D01*
X1659530Y564035D02*
Y574500D01*
Y564035D02*
X1673500D01*
Y574500D01*
X1673470Y582500D02*
Y592965D01*
X1659500D02*
X1673470D01*
X1659500Y582500D02*
Y592965D01*
X1356450Y423250D02*
Y453500D01*
X1413200D01*
Y423250D02*
Y453500D01*
X1356450Y423250D02*
X1413200D01*
D12*
X1590250Y415500D02*
G03*
X1590250Y415500I-1500J0D01*
G01*
X1496000Y331473D02*
Y340136D01*
D13*
X1499050Y588650D02*
Y626650D01*
Y588650D02*
X1557050D01*
X1569050Y600650D01*
Y614650D01*
X1557050Y626650D02*
X1569050Y614650D01*
X1499050Y626650D02*
X1557050D01*
D14*
X1408750Y520400D02*
Y522000D01*
X1433750Y520400D02*
Y522000D01*
X1558950Y281750D02*
Y298150D01*
X1469550Y281750D02*
Y298150D01*
Y248650D02*
X1558950D01*
Y257250D01*
X1469550Y248650D02*
Y257250D01*
X1598750Y398500D02*
Y457300D01*
Y243300D02*
Y367500D01*
X1758750Y398500D02*
Y457300D01*
Y243300D02*
Y367500D01*
X1598750Y243300D02*
X1758750D01*
X1598750Y457300D02*
X1758750D01*
X1771500Y648700D02*
Y650300D01*
X1746500Y648700D02*
Y650300D01*
X1536250Y424500D02*
Y430000D01*
X1486250Y424500D02*
Y430000D01*
X1536250Y380000D02*
Y385500D01*
X1486250Y380000D02*
Y385500D01*
X1530750Y430000D02*
X1536250D01*
X1486250D02*
X1491750D01*
X1530750Y380000D02*
X1536250D01*
X1486250D02*
X1491750D01*
D15*
X1338070Y595810D02*
X1340610D01*
X1338070D02*
Y623750D01*
X1360930D01*
Y595810D02*
Y623750D01*
X1340610Y595810D02*
X1360930D01*
X1385320D02*
X1387860D01*
X1385320D02*
Y623750D01*
X1408180D01*
Y595810D02*
Y623750D01*
X1387860Y595810D02*
X1408180D01*
M02*
