G04*
G04 #@! TF.GenerationSoftware,Altium Limited,Altium Designer,20.0.12 (288)*
G04*
G04 Layer_Color=255*
%FSLAX44Y44*%
%MOMM*%
G71*
G01*
G75*
%ADD72O,5.0000X2.4000*%
%ADD73O,2.4000X5.0000*%
%ADD74C,0.6500*%
%ADD75O,1.0000X2.0000*%
%ADD76O,0.9000X1.8000*%
%ADD77C,1.5240*%
%ADD78C,3.2500*%
%ADD79C,2.4450*%
%ADD80C,1.5300*%
%ADD81C,1.3980*%
%ADD82R,1.3980X1.3980*%
%ADD83C,5.0000*%
D72*
X1386000Y332500D02*
D03*
Y392500D02*
D03*
D73*
X1434000Y367500D02*
D03*
D74*
X1479240Y297720D02*
D03*
X1538620Y304800D02*
D03*
D75*
X1466470Y309600D02*
D03*
X1552970D02*
D03*
D76*
X1466470Y267800D02*
D03*
X1552970D02*
D03*
D77*
X1384000Y697250D02*
D03*
Y718850D02*
D03*
Y740450D02*
D03*
Y762050D02*
D03*
D78*
X1612600Y365200D02*
D03*
X1726900D02*
D03*
D79*
X1747200Y395700D02*
D03*
X1592300D02*
D03*
D80*
X1710600Y316200D02*
D03*
X1736000D02*
D03*
X1628900D02*
D03*
X1603500D02*
D03*
D81*
X1714150Y454100D02*
D03*
X1701450Y428700D02*
D03*
X1688750Y454100D02*
D03*
X1676050Y428700D02*
D03*
X1663350Y454100D02*
D03*
X1650650Y428700D02*
D03*
X1637950Y454100D02*
D03*
D82*
X1625250Y428700D02*
D03*
D83*
X1752250Y814000D02*
D03*
X1333500D02*
D03*
X1752250Y514250D02*
D03*
X1333750Y514500D02*
D03*
M02*
