G04*
G04 #@! TF.GenerationSoftware,Altium Limited,Altium Designer,20.0.12 (288)*
G04*
G04 Layer_Color=16711935*
%FSLAX44Y44*%
%MOMM*%
G71*
G01*
G75*
%ADD10C,0.2000*%
%ADD11C,0.3000*%
%ADD12C,0.2540*%
%ADD14C,0.1270*%
%ADD16C,0.0000*%
%ADD17C,0.0500*%
%ADD56O,5.2032X2.6032*%
%ADD57O,2.6032X5.2032*%
%ADD58C,0.8532*%
%ADD59O,1.2032X2.2032*%
%ADD60O,1.1032X2.0032*%
%ADD61C,1.7272*%
%ADD62C,3.4532*%
%ADD63C,2.6482*%
%ADD64C,1.7332*%
%ADD65C,1.6012*%
%ADD66R,1.6012X1.6012*%
%ADD67C,5.2032*%
%ADD68C,0.6032*%
D10*
X1376250Y574000D02*
G03*
X1376250Y574000I-1000J0D01*
G01*
X1500550Y337750D02*
G03*
X1500550Y337750I-1000J0D01*
G01*
X1454970Y315500D02*
G03*
X1454970Y315500I-1000J0D01*
G01*
X1494000Y390350D02*
G03*
X1494000Y390350I-1000J0D01*
G01*
X1724250Y663250D02*
G03*
X1724250Y663250I-1000J0D01*
G01*
D11*
X1613250Y428200D02*
G03*
X1613250Y428200I-1500J0D01*
G01*
D12*
X1752668Y254500D02*
G03*
X1792720Y294552I0J40052D01*
G01*
X1293000Y294601D02*
G03*
X1333101Y254500I40101J0D01*
G01*
X1333498Y854500D02*
G03*
X1293000Y814002I0J-40498D01*
G01*
X1792720Y814275D02*
G03*
X1752495Y854500I-40225J0D01*
G01*
X1333101Y254500D02*
X1752668D01*
X1792720Y294552D02*
Y814275D01*
X1293000Y294601D02*
Y814002D01*
X1333498Y854500D02*
X1752495D01*
X1489020Y249500D02*
Y256498D01*
X1492519D01*
X1493685Y255331D01*
Y252999D01*
X1492519Y251833D01*
X1489020D01*
X1500683Y255331D02*
X1499517Y256498D01*
X1497184D01*
X1496018Y255331D01*
Y250666D01*
X1497184Y249500D01*
X1499517D01*
X1500683Y250666D01*
X1503015Y256498D02*
Y249500D01*
X1506514D01*
X1507681Y250666D01*
Y251833D01*
X1506514Y252999D01*
X1503015D01*
X1506514D01*
X1507681Y254165D01*
Y255331D01*
X1506514Y256498D01*
X1503015D01*
X1521676D02*
X1517011D01*
Y249500D01*
X1521676D01*
X1517011Y252999D02*
X1519344D01*
X1528674Y256498D02*
Y249500D01*
X1525175D01*
X1524009Y250666D01*
Y252999D01*
X1525175Y254165D01*
X1528674D01*
X1533339Y247167D02*
X1534505D01*
X1535672Y248334D01*
Y254165D01*
X1532173D01*
X1531006Y252999D01*
Y250666D01*
X1532173Y249500D01*
X1535672D01*
X1541503D02*
X1539171D01*
X1538004Y250666D01*
Y252999D01*
X1539171Y254165D01*
X1541503D01*
X1542669Y252999D01*
Y251833D01*
X1538004D01*
D14*
X1384750Y579000D02*
X1409750D01*
Y547000D02*
Y579000D01*
X1384750Y547000D02*
Y579000D01*
Y547000D02*
X1409750D01*
X1321750Y458850D02*
X1329750D01*
Y442850D02*
Y458850D01*
X1321750Y442850D02*
X1329750D01*
X1321750D02*
Y458850D01*
X1494375Y355175D02*
Y371425D01*
X1523625D01*
Y355175D02*
Y371425D01*
X1494375Y355175D02*
X1523625D01*
X1465020Y242000D02*
Y315500D01*
Y242000D02*
X1554420D01*
Y315500D01*
X1465020D02*
X1554420D01*
X1455020Y246900D02*
X1564420D01*
X1533000Y400750D02*
Y450750D01*
X1483000Y400750D02*
Y450750D01*
X1533000D01*
X1483000Y400750D02*
X1533000D01*
X1589750Y256000D02*
X1749750D01*
X1589750D02*
Y470000D01*
X1749750D01*
Y256000D02*
Y470000D01*
X1718250Y672750D02*
Y697750D01*
X1750250D01*
X1718250Y672750D02*
X1750250D01*
Y697750D01*
D16*
X1552894Y318099D02*
G03*
X1549721Y314575I176J-3349D01*
G01*
X1556219Y315115D02*
G03*
X1552905Y318099I-3149J-165D01*
G01*
Y301101D02*
G03*
X1556219Y304085I165J3149D01*
G01*
X1549720Y304092D02*
G03*
X1552928Y301100I3100J108D01*
G01*
X1556220Y304100D02*
Y315100D01*
X1549720Y304100D02*
Y314600D01*
D17*
X1380250Y583500D02*
X1414250D01*
X1380250Y542500D02*
Y583500D01*
X1414250Y542500D02*
Y583500D01*
X1380250Y542500D02*
X1414250D01*
X1333100Y436000D02*
Y465700D01*
X1318400Y436000D02*
X1333100D01*
X1318400D02*
Y465700D01*
X1333100D01*
X1491875Y342200D02*
X1526125D01*
Y384400D01*
X1491875D02*
X1526125D01*
X1491875Y342200D02*
Y384400D01*
X1458970Y239500D02*
Y323700D01*
Y239500D02*
X1560470D01*
Y323700D01*
X1458970D02*
X1560470D01*
X1539050Y394700D02*
Y456800D01*
X1476950Y394700D02*
Y456800D01*
Y394700D02*
X1539050D01*
X1476950Y456800D02*
X1539050D01*
X1577250Y253500D02*
X1762250D01*
X1577250D02*
Y472500D01*
X1762250D01*
Y253500D02*
Y472500D01*
X1713750Y668250D02*
Y702250D01*
Y668250D02*
X1754750D01*
X1713750Y702250D02*
X1754750D01*
Y668250D02*
Y702250D01*
D56*
X1386000Y332500D02*
D03*
Y392500D02*
D03*
D57*
X1434000Y367500D02*
D03*
D58*
X1479240Y297720D02*
D03*
X1538620Y304800D02*
D03*
D59*
X1466470Y309600D02*
D03*
X1552970D02*
D03*
D60*
X1466470Y267800D02*
D03*
X1552970D02*
D03*
D61*
X1384000Y697250D02*
D03*
Y718850D02*
D03*
Y740450D02*
D03*
Y762050D02*
D03*
D62*
X1612600Y365200D02*
D03*
X1726900D02*
D03*
D63*
X1747200Y395700D02*
D03*
X1592300D02*
D03*
D64*
X1710600Y316200D02*
D03*
X1736000D02*
D03*
X1628900D02*
D03*
X1603500D02*
D03*
D65*
X1714150Y454100D02*
D03*
X1701450Y428700D02*
D03*
X1688750Y454100D02*
D03*
X1676050Y428700D02*
D03*
X1663350Y454100D02*
D03*
X1650650Y428700D02*
D03*
X1637950Y454100D02*
D03*
D66*
X1625250Y428700D02*
D03*
D67*
X1752250Y814000D02*
D03*
X1333500D02*
D03*
X1752250Y514250D02*
D03*
X1333750Y514500D02*
D03*
D68*
X1579000Y656500D02*
D03*
X1744500Y647500D02*
D03*
X1736000Y640250D02*
D03*
X1719500Y497000D02*
D03*
X1481500Y371250D02*
D03*
X1365450Y420250D02*
D03*
X1321470Y639500D02*
D03*
X1401750Y639750D02*
D03*
M02*
