G04*
G04 #@! TF.GenerationSoftware,Altium Limited,Altium Designer,20.0.12 (288)*
G04*
G04 Layer_Color=128*
%FSLAX44Y44*%
%MOMM*%
G71*
G01*
G75*
%ADD10C,0.2000*%
%ADD11C,0.3000*%
%ADD12C,0.2540*%
%ADD14C,0.1270*%
%ADD16C,0.0000*%
%ADD17C,0.0500*%
%ADD87C,0.0508*%
D10*
X1376250Y574000D02*
G03*
X1376250Y574000I-1000J0D01*
G01*
X1500550Y337750D02*
G03*
X1500550Y337750I-1000J0D01*
G01*
X1454970Y315500D02*
G03*
X1454970Y315500I-1000J0D01*
G01*
X1494000Y390350D02*
G03*
X1494000Y390350I-1000J0D01*
G01*
X1724250Y663250D02*
G03*
X1724250Y663250I-1000J0D01*
G01*
D11*
X1613250Y428200D02*
G03*
X1613250Y428200I-1500J0D01*
G01*
D12*
X1752668Y254500D02*
G03*
X1792720Y294552I0J40052D01*
G01*
X1293000Y294601D02*
G03*
X1333101Y254500I40101J0D01*
G01*
X1333498Y854500D02*
G03*
X1293000Y814002I0J-40498D01*
G01*
X1792720Y814275D02*
G03*
X1752495Y854500I-40225J0D01*
G01*
X1333101Y254500D02*
X1752668D01*
X1792720Y294552D02*
Y814275D01*
X1293000Y294601D02*
Y814002D01*
X1333498Y854500D02*
X1752495D01*
X1489020Y249500D02*
Y256498D01*
X1492519D01*
X1493685Y255331D01*
Y252999D01*
X1492519Y251833D01*
X1489020D01*
X1500683Y255331D02*
X1499517Y256498D01*
X1497184D01*
X1496018Y255331D01*
Y250666D01*
X1497184Y249500D01*
X1499517D01*
X1500683Y250666D01*
X1503015Y256498D02*
Y249500D01*
X1506514D01*
X1507681Y250666D01*
Y251833D01*
X1506514Y252999D01*
X1503015D01*
X1506514D01*
X1507681Y254165D01*
Y255331D01*
X1506514Y256498D01*
X1503015D01*
X1521676D02*
X1517011D01*
Y249500D01*
X1521676D01*
X1517011Y252999D02*
X1519344D01*
X1528674Y256498D02*
Y249500D01*
X1525175D01*
X1524009Y250666D01*
Y252999D01*
X1525175Y254165D01*
X1528674D01*
X1533339Y247167D02*
X1534505D01*
X1535672Y248334D01*
Y254165D01*
X1532173D01*
X1531006Y252999D01*
Y250666D01*
X1532173Y249500D01*
X1535672D01*
X1541503D02*
X1539171D01*
X1538004Y250666D01*
Y252999D01*
X1539171Y254165D01*
X1541503D01*
X1542669Y252999D01*
Y251833D01*
X1538004D01*
D14*
X1384750Y579000D02*
X1409750D01*
Y547000D02*
Y579000D01*
X1384750Y547000D02*
Y579000D01*
Y547000D02*
X1409750D01*
X1321750Y458850D02*
X1329750D01*
Y442850D02*
Y458850D01*
X1321750Y442850D02*
X1329750D01*
X1321750D02*
Y458850D01*
X1494375Y355175D02*
Y371425D01*
X1523625D01*
Y355175D02*
Y371425D01*
X1494375Y355175D02*
X1523625D01*
X1465020Y242000D02*
Y315500D01*
Y242000D02*
X1554420D01*
Y315500D01*
X1465020D02*
X1554420D01*
X1455020Y246900D02*
X1564420D01*
X1533000Y400750D02*
Y450750D01*
X1483000Y400750D02*
Y450750D01*
X1533000D01*
X1483000Y400750D02*
X1533000D01*
X1589750Y256000D02*
X1749750D01*
X1589750D02*
Y470000D01*
X1749750D01*
Y256000D02*
Y470000D01*
X1718250Y672750D02*
Y697750D01*
X1750250D01*
X1718250Y672750D02*
X1750250D01*
Y697750D01*
D16*
X1552894Y318099D02*
G03*
X1549721Y314575I176J-3349D01*
G01*
X1556219Y315115D02*
G03*
X1552905Y318099I-3149J-165D01*
G01*
Y301101D02*
G03*
X1556219Y304085I165J3149D01*
G01*
X1549720Y304092D02*
G03*
X1552928Y301100I3100J108D01*
G01*
X1556220Y304100D02*
Y315100D01*
X1549720Y304100D02*
Y314600D01*
D17*
X1380250Y583500D02*
X1414250D01*
X1380250Y542500D02*
Y583500D01*
X1414250Y542500D02*
Y583500D01*
X1380250Y542500D02*
X1414250D01*
X1333100Y436000D02*
Y465700D01*
X1318400Y436000D02*
X1333100D01*
X1318400D02*
Y465700D01*
X1333100D01*
X1491875Y342200D02*
X1526125D01*
Y384400D01*
X1491875D02*
X1526125D01*
X1491875Y342200D02*
Y384400D01*
X1458970Y239500D02*
Y323700D01*
Y239500D02*
X1560470D01*
Y323700D01*
X1458970D02*
X1560470D01*
X1539050Y394700D02*
Y456800D01*
X1476950Y394700D02*
Y456800D01*
Y394700D02*
X1539050D01*
X1476950Y456800D02*
X1539050D01*
X1577250Y253500D02*
X1762250D01*
X1577250D02*
Y472500D01*
X1762250D01*
Y253500D02*
Y472500D01*
X1713750Y668250D02*
Y702250D01*
Y668250D02*
X1754750D01*
X1713750Y702250D02*
X1754750D01*
Y668250D02*
Y702250D01*
D87*
X1366000Y332500D02*
X1406000D01*
X1386000Y312500D02*
Y352500D01*
X1366000Y392500D02*
X1406000D01*
X1386000Y372500D02*
Y412500D01*
X1427000Y367500D02*
X1441000D01*
X1434000Y360500D02*
Y374500D01*
X1475990Y297720D02*
X1482490D01*
X1479240Y294470D02*
Y300970D01*
X1535370Y304800D02*
X1541870D01*
X1538620Y301550D02*
Y308050D01*
X1463220Y309600D02*
X1469720D01*
X1466470Y306350D02*
Y312850D01*
X1463220Y267800D02*
X1469720D01*
X1466470Y264550D02*
Y271050D01*
X1549720Y267800D02*
X1556220D01*
X1552970Y264550D02*
Y271050D01*
X1549720Y309600D02*
X1556220D01*
X1552970Y306350D02*
Y312850D01*
X1380190Y697250D02*
X1387810D01*
X1384000Y693440D02*
Y701060D01*
X1380190Y718850D02*
X1387810D01*
X1384000Y715040D02*
Y722660D01*
X1380190Y740450D02*
X1387810D01*
X1384000Y736640D02*
Y744260D01*
X1380190Y762050D02*
X1387810D01*
X1384000Y758240D02*
Y765860D01*
X1596350Y365200D02*
X1628850D01*
X1612600Y348950D02*
Y381450D01*
X1710650Y365200D02*
X1743150D01*
X1726900Y348950D02*
Y381450D01*
X1739050Y395700D02*
X1755350D01*
X1747200Y387550D02*
Y403850D01*
X1584150Y395700D02*
X1600450D01*
X1592300Y387550D02*
Y403850D01*
X1705500Y316200D02*
X1715700D01*
X1710600Y311100D02*
Y321300D01*
X1730900Y316200D02*
X1741100D01*
X1736000Y311100D02*
Y321300D01*
X1623800Y316200D02*
X1634000D01*
X1628900Y311100D02*
Y321300D01*
X1598400Y316200D02*
X1608600D01*
X1603500Y311100D02*
Y321300D01*
X1709700Y454100D02*
X1718600D01*
X1714150Y449650D02*
Y458550D01*
X1697000Y428700D02*
X1705900D01*
X1701450Y424250D02*
Y433150D01*
X1684300Y454100D02*
X1693200D01*
X1688750Y449650D02*
Y458550D01*
X1671600Y428700D02*
X1680500D01*
X1676050Y424250D02*
Y433150D01*
X1658900Y454100D02*
X1667800D01*
X1663350Y449650D02*
Y458550D01*
X1646200Y428700D02*
X1655100D01*
X1650650Y424250D02*
Y433150D01*
X1633500Y454100D02*
X1642400D01*
X1637950Y449650D02*
Y458550D01*
X1620800Y428700D02*
X1629700D01*
X1625250Y424250D02*
Y433150D01*
X1737250Y814000D02*
X1767250D01*
X1752250Y799000D02*
Y829000D01*
X1318500Y814000D02*
X1348500D01*
X1333500Y799000D02*
Y829000D01*
X1737250Y514250D02*
X1767250D01*
X1752250Y499250D02*
Y529250D01*
X1318750Y514500D02*
X1348750D01*
X1333750Y499500D02*
Y529500D01*
X1768996Y754998D02*
X1770997D01*
X1769996Y753998D02*
Y755999D01*
X1768996Y749998D02*
X1770997D01*
X1769996Y748998D02*
Y750999D01*
X1768996Y744998D02*
X1770997D01*
X1769996Y743998D02*
Y745999D01*
X1768996Y739998D02*
X1770997D01*
X1769996Y738998D02*
Y740999D01*
X1768996Y734998D02*
X1770997D01*
X1769996Y733998D02*
Y735999D01*
X1768996Y729998D02*
X1770997D01*
X1769996Y728998D02*
Y730999D01*
X1768996Y724998D02*
X1770997D01*
X1769996Y723999D02*
Y725999D01*
X1768996Y719999D02*
X1770997D01*
X1769996Y718999D02*
Y720999D01*
X1763996Y754998D02*
X1765997D01*
X1764996Y753998D02*
Y755999D01*
X1763996Y749998D02*
X1765997D01*
X1764996Y748998D02*
Y750999D01*
X1763996Y744998D02*
X1765997D01*
X1764996Y743998D02*
Y745999D01*
X1763996Y739998D02*
X1765997D01*
X1764996Y738998D02*
Y740999D01*
X1763996Y734998D02*
X1765997D01*
X1764996Y733998D02*
Y735999D01*
X1763996Y729998D02*
X1765997D01*
X1764996Y728998D02*
Y730999D01*
X1763996Y724998D02*
X1765997D01*
X1764996Y723999D02*
Y725999D01*
X1763996Y719999D02*
X1765997D01*
X1764996Y718999D02*
Y720999D01*
X1758996Y754998D02*
X1760997D01*
X1759996Y753998D02*
Y755999D01*
X1758996Y749998D02*
X1760997D01*
X1759996Y748998D02*
Y750999D01*
X1758996Y744998D02*
X1760997D01*
X1759996Y743998D02*
Y745999D01*
X1758996Y739998D02*
X1760997D01*
X1759996Y738998D02*
Y740999D01*
X1758996Y734998D02*
X1760997D01*
X1759996Y733998D02*
Y735999D01*
X1758996Y729998D02*
X1760997D01*
X1759996Y728998D02*
Y730999D01*
X1758996Y724998D02*
X1760997D01*
X1759996Y723999D02*
Y725999D01*
X1758996Y719999D02*
X1760997D01*
X1759996Y718999D02*
Y720999D01*
X1753996Y754998D02*
X1755997D01*
X1754996Y753998D02*
Y755999D01*
X1753996Y749998D02*
X1755997D01*
X1754996Y748998D02*
Y750999D01*
X1753996Y744998D02*
X1755997D01*
X1754996Y743998D02*
Y745999D01*
X1753996Y739998D02*
X1755997D01*
X1754996Y738998D02*
Y740999D01*
X1753996Y734998D02*
X1755997D01*
X1754996Y733998D02*
Y735999D01*
X1753996Y729998D02*
X1755997D01*
X1754996Y728998D02*
Y730999D01*
X1753996Y724998D02*
X1755997D01*
X1754996Y723999D02*
Y725999D01*
X1753996Y719999D02*
X1755997D01*
X1754996Y718999D02*
Y720999D01*
X1748996Y754998D02*
X1750997D01*
X1749996Y753998D02*
Y755999D01*
X1748996Y749998D02*
X1750997D01*
X1749996Y748998D02*
Y750999D01*
X1748996Y744998D02*
X1750997D01*
X1749996Y743998D02*
Y745999D01*
X1748996Y739998D02*
X1750997D01*
X1749996Y738998D02*
Y740999D01*
X1748996Y734998D02*
X1750997D01*
X1749996Y733998D02*
Y735999D01*
X1748996Y729998D02*
X1750997D01*
X1749996Y728998D02*
Y730999D01*
X1748996Y724998D02*
X1750997D01*
X1749996Y723999D02*
Y725999D01*
X1748996Y719999D02*
X1750997D01*
X1749996Y718999D02*
Y720999D01*
X1743996Y754998D02*
X1745997D01*
X1744996Y753998D02*
Y755999D01*
X1743996Y749998D02*
X1745997D01*
X1744996Y748998D02*
Y750999D01*
X1743996Y744998D02*
X1745997D01*
X1744996Y743998D02*
Y745999D01*
X1743996Y739998D02*
X1745997D01*
X1744996Y738998D02*
Y740999D01*
X1743996Y734998D02*
X1745997D01*
X1744996Y733998D02*
Y735999D01*
X1743996Y729998D02*
X1745997D01*
X1744996Y728998D02*
Y730999D01*
X1743996Y724998D02*
X1745997D01*
X1744996Y723999D02*
Y725999D01*
X1743996Y719999D02*
X1745997D01*
X1744996Y718999D02*
Y720999D01*
X1738996Y754998D02*
X1740997D01*
X1739996Y753998D02*
Y755999D01*
X1738996Y749998D02*
X1740997D01*
X1739996Y748998D02*
Y750999D01*
X1738996Y744998D02*
X1740997D01*
X1739996Y743998D02*
Y745999D01*
X1738996Y739998D02*
X1740997D01*
X1739996Y738998D02*
Y740999D01*
X1738996Y734998D02*
X1740997D01*
X1739996Y733998D02*
Y735999D01*
X1738996Y729998D02*
X1740997D01*
X1739996Y728998D02*
Y730999D01*
X1738996Y724998D02*
X1740997D01*
X1739996Y723999D02*
Y725999D01*
X1738996Y719999D02*
X1740997D01*
X1739996Y718999D02*
Y720999D01*
X1733996Y754998D02*
X1735997D01*
X1734996Y753998D02*
Y755999D01*
X1733996Y749998D02*
X1735997D01*
X1734996Y748998D02*
Y750999D01*
X1733996Y744998D02*
X1735997D01*
X1734996Y743998D02*
Y745999D01*
X1733996Y739998D02*
X1735997D01*
X1734996Y738998D02*
Y740999D01*
X1733996Y734998D02*
X1735997D01*
X1734996Y733998D02*
Y735999D01*
X1733996Y729998D02*
X1735997D01*
X1734996Y728998D02*
Y730999D01*
X1733996Y724998D02*
X1735997D01*
X1734996Y723999D02*
Y725999D01*
X1733996Y719999D02*
X1735997D01*
X1734996Y718999D02*
Y720999D01*
X1728996Y754998D02*
X1730997D01*
X1729996Y753998D02*
Y755999D01*
X1728996Y749998D02*
X1730997D01*
X1729996Y748998D02*
Y750999D01*
X1728996Y744998D02*
X1730997D01*
X1729996Y743998D02*
Y745999D01*
X1728996Y739998D02*
X1730997D01*
X1729996Y738998D02*
Y740999D01*
X1728996Y734998D02*
X1730997D01*
X1729996Y733998D02*
Y735999D01*
X1728996Y729998D02*
X1730997D01*
X1729996Y728998D02*
Y730999D01*
X1728996Y724998D02*
X1730997D01*
X1729996Y723999D02*
Y725999D01*
X1728996Y719999D02*
X1730997D01*
X1729996Y718999D02*
Y720999D01*
X1778996Y609999D02*
X1780996D01*
X1779996Y608999D02*
Y610999D01*
X1778996Y604999D02*
X1780996D01*
X1779996Y603999D02*
Y605999D01*
X1778996Y599999D02*
X1780996D01*
X1779996Y598999D02*
Y600999D01*
X1778996Y594999D02*
X1780996D01*
X1779996Y593999D02*
Y595999D01*
X1778996Y589999D02*
X1780996D01*
X1779996Y588999D02*
Y590999D01*
X1778996Y584999D02*
X1780996D01*
X1779996Y583999D02*
Y585999D01*
X1778996Y579999D02*
X1780996D01*
X1779996Y578999D02*
Y580999D01*
X1778996Y574999D02*
X1780996D01*
X1779996Y573999D02*
Y575999D01*
X1778996Y569999D02*
X1780996D01*
X1779996Y568999D02*
Y570999D01*
X1778996Y564999D02*
X1780996D01*
X1779996Y563999D02*
Y565999D01*
X1778996Y559999D02*
X1780996D01*
X1779996Y558999D02*
Y560999D01*
X1778996Y554999D02*
X1780996D01*
X1779996Y553999D02*
Y555999D01*
X1778996Y549999D02*
X1780996D01*
X1779996Y548999D02*
Y550999D01*
X1773996Y549999D02*
X1775996D01*
X1774996Y548999D02*
Y550999D01*
X1753996Y609999D02*
X1755997D01*
X1754996Y608999D02*
Y610999D01*
X1753996Y604999D02*
X1755997D01*
X1754996Y603999D02*
Y605999D01*
X1753996Y599999D02*
X1755997D01*
X1754996Y598999D02*
Y600999D01*
X1753996Y594999D02*
X1755997D01*
X1754996Y593999D02*
Y595999D01*
X1753996Y589999D02*
X1755997D01*
X1754996Y588999D02*
Y590999D01*
X1753996Y584999D02*
X1755997D01*
X1754996Y583999D02*
Y585999D01*
X1753996Y579999D02*
X1755997D01*
X1754996Y578999D02*
Y580999D01*
X1753996Y574999D02*
X1755997D01*
X1754996Y573999D02*
Y575999D01*
X1753996Y569999D02*
X1755997D01*
X1754996Y568999D02*
Y570999D01*
X1753996Y564999D02*
X1755997D01*
X1754996Y563999D02*
Y565999D01*
X1748996Y609999D02*
X1750997D01*
X1749996Y608999D02*
Y610999D01*
X1748996Y604999D02*
X1750997D01*
X1749996Y603999D02*
Y605999D01*
X1748996Y599999D02*
X1750997D01*
X1749996Y598999D02*
Y600999D01*
X1748996Y594999D02*
X1750997D01*
X1749996Y593999D02*
Y595999D01*
X1748996Y589999D02*
X1750997D01*
X1749996Y588999D02*
Y590999D01*
X1748996Y584999D02*
X1750997D01*
X1749996Y583999D02*
Y585999D01*
X1748996Y579999D02*
X1750997D01*
X1749996Y578999D02*
Y580999D01*
X1748996Y574999D02*
X1750997D01*
X1749996Y573999D02*
Y575999D01*
X1748996Y569999D02*
X1750997D01*
X1749996Y568999D02*
Y570999D01*
X1748996Y564999D02*
X1750997D01*
X1749996Y563999D02*
Y565999D01*
X1743996Y609999D02*
X1745997D01*
X1744996Y608999D02*
Y610999D01*
X1743996Y604999D02*
X1745997D01*
X1744996Y603999D02*
Y605999D01*
X1743996Y599999D02*
X1745997D01*
X1744996Y598999D02*
Y600999D01*
X1743996Y594999D02*
X1745997D01*
X1744996Y593999D02*
Y595999D01*
X1743996Y589999D02*
X1745997D01*
X1744996Y588999D02*
Y590999D01*
X1743996Y584999D02*
X1745997D01*
X1744996Y583999D02*
Y585999D01*
X1743996Y579999D02*
X1745997D01*
X1744996Y578999D02*
Y580999D01*
X1743996Y574999D02*
X1745997D01*
X1744996Y573999D02*
Y575999D01*
X1743996Y569999D02*
X1745997D01*
X1744996Y568999D02*
Y570999D01*
X1743996Y564999D02*
X1745997D01*
X1744996Y563999D02*
Y565999D01*
X1738996Y609999D02*
X1740997D01*
X1739996Y608999D02*
Y610999D01*
X1738996Y604999D02*
X1740997D01*
X1739996Y603999D02*
Y605999D01*
X1738996Y599999D02*
X1740997D01*
X1739996Y598999D02*
Y600999D01*
X1738996Y564999D02*
X1740997D01*
X1739996Y563999D02*
Y565999D01*
X1733996Y609999D02*
X1735997D01*
X1734996Y608999D02*
Y610999D01*
X1733996Y604999D02*
X1735997D01*
X1734996Y603999D02*
Y605999D01*
X1733996Y599999D02*
X1735997D01*
X1734996Y598999D02*
Y600999D01*
X1733996Y564999D02*
X1735997D01*
X1734996Y563999D02*
Y565999D01*
X1728996Y609999D02*
X1730997D01*
X1729996Y608999D02*
Y610999D01*
X1728996Y604999D02*
X1730997D01*
X1729996Y603999D02*
Y605999D01*
X1728996Y599999D02*
X1730997D01*
X1729996Y598999D02*
Y600999D01*
X1728996Y564999D02*
X1730997D01*
X1729996Y563999D02*
Y565999D01*
X1723997Y609999D02*
X1725997D01*
X1724996Y608999D02*
Y610999D01*
X1723997Y604999D02*
X1725997D01*
X1724996Y603999D02*
Y605999D01*
X1723997Y599999D02*
X1725997D01*
X1724996Y598999D02*
Y600999D01*
X1723997Y564999D02*
X1725997D01*
X1724996Y563999D02*
Y565999D01*
X1718997Y564999D02*
X1720997D01*
X1719997Y563999D02*
Y565999D01*
X1543997Y699999D02*
X1545997D01*
X1544997Y698999D02*
Y700999D01*
X1543997Y694999D02*
X1545997D01*
X1544997Y693999D02*
Y695999D01*
X1543997Y689999D02*
X1545997D01*
X1544997Y688999D02*
Y690999D01*
X1538997Y699999D02*
X1540997D01*
X1539997Y698999D02*
Y700999D01*
X1538997Y694999D02*
X1540997D01*
X1539997Y693999D02*
Y695999D01*
X1538997Y689999D02*
X1540997D01*
X1539997Y688999D02*
Y690999D01*
X1538997Y684999D02*
X1540997D01*
X1539997Y683999D02*
Y685999D01*
X1538997Y679999D02*
X1540997D01*
X1539997Y678999D02*
Y680999D01*
X1538997Y674999D02*
X1540997D01*
X1539997Y673999D02*
Y675999D01*
X1538997Y669999D02*
X1540997D01*
X1539997Y668999D02*
Y670999D01*
X1538997Y664999D02*
X1540997D01*
X1539997Y663999D02*
Y665999D01*
X1538997Y659999D02*
X1540997D01*
X1539997Y658999D02*
Y660999D01*
X1538997Y654999D02*
X1540997D01*
X1539997Y653999D02*
Y655999D01*
X1538997Y649999D02*
X1540997D01*
X1539997Y648999D02*
Y650999D01*
X1533997Y699999D02*
X1535997D01*
X1534997Y698999D02*
Y700999D01*
X1533997Y694999D02*
X1535997D01*
X1534997Y693999D02*
Y695999D01*
X1533997Y689999D02*
X1535997D01*
X1534997Y688999D02*
Y690999D01*
X1533997Y684999D02*
X1535997D01*
X1534997Y683999D02*
Y685999D01*
X1533997Y679999D02*
X1535997D01*
X1534997Y678999D02*
Y680999D01*
X1533997Y674999D02*
X1535997D01*
X1534997Y673999D02*
Y675999D01*
X1533997Y669999D02*
X1535997D01*
X1534997Y668999D02*
Y670999D01*
X1533997Y664999D02*
X1535997D01*
X1534997Y663999D02*
Y665999D01*
X1533997Y659999D02*
X1535997D01*
X1534997Y658999D02*
Y660999D01*
X1533997Y654999D02*
X1535997D01*
X1534997Y653999D02*
Y655999D01*
X1533997Y649999D02*
X1535997D01*
X1534997Y648999D02*
Y650999D01*
X1528997Y699999D02*
X1530997D01*
X1529997Y698999D02*
Y700999D01*
X1528997Y694999D02*
X1530997D01*
X1529997Y693999D02*
Y695999D01*
X1528997Y689999D02*
X1530997D01*
X1529997Y688999D02*
Y690999D01*
X1528997Y684999D02*
X1530997D01*
X1529997Y683999D02*
Y685999D01*
X1528997Y679999D02*
X1530997D01*
X1529997Y678999D02*
Y680999D01*
X1528997Y674999D02*
X1530997D01*
X1529997Y673999D02*
Y675999D01*
X1528997Y669999D02*
X1530997D01*
X1529997Y668999D02*
Y670999D01*
X1528997Y664999D02*
X1530997D01*
X1529997Y663999D02*
Y665999D01*
X1528997Y659999D02*
X1530997D01*
X1529997Y658999D02*
Y660999D01*
X1528997Y654999D02*
X1530997D01*
X1529997Y653999D02*
Y655999D01*
X1528997Y649999D02*
X1530997D01*
X1529997Y648999D02*
Y650999D01*
X1523997Y699999D02*
X1525997D01*
X1524997Y698999D02*
Y700999D01*
X1523997Y694999D02*
X1525997D01*
X1524997Y693999D02*
Y695999D01*
X1523997Y689999D02*
X1525997D01*
X1524997Y688999D02*
Y690999D01*
X1523997Y684999D02*
X1525997D01*
X1524997Y683999D02*
Y685999D01*
X1523997Y679999D02*
X1525997D01*
X1524997Y678999D02*
Y680999D01*
X1523997Y674999D02*
X1525997D01*
X1524997Y673999D02*
Y675999D01*
X1523997Y669999D02*
X1525997D01*
X1524997Y668999D02*
Y670999D01*
X1523997Y664999D02*
X1525997D01*
X1524997Y663999D02*
Y665999D01*
X1523997Y659999D02*
X1525997D01*
X1524997Y658999D02*
Y660999D01*
X1523997Y654999D02*
X1525997D01*
X1524997Y653999D02*
Y655999D01*
X1523997Y649999D02*
X1525997D01*
X1524997Y648999D02*
Y650999D01*
X1518997Y699999D02*
X1520997D01*
X1519997Y698999D02*
Y700999D01*
X1518997Y694999D02*
X1520997D01*
X1519997Y693999D02*
Y695999D01*
X1518997Y689999D02*
X1520997D01*
X1519997Y688999D02*
Y690999D01*
X1518997Y684999D02*
X1520997D01*
X1519997Y683999D02*
Y685999D01*
X1518997Y679999D02*
X1520997D01*
X1519997Y678999D02*
Y680999D01*
X1518997Y674999D02*
X1520997D01*
X1519997Y673999D02*
Y675999D01*
X1518997Y669999D02*
X1520997D01*
X1519997Y668999D02*
Y670999D01*
X1518997Y664999D02*
X1520997D01*
X1519997Y663999D02*
Y665999D01*
X1518997Y659999D02*
X1520997D01*
X1519997Y658999D02*
Y660999D01*
X1518997Y654999D02*
X1520997D01*
X1519997Y653999D02*
Y655999D01*
X1518997Y649999D02*
X1520997D01*
X1519997Y648999D02*
Y650999D01*
X1513997Y699999D02*
X1515997D01*
X1514997Y698999D02*
Y700999D01*
X1513997Y694999D02*
X1515997D01*
X1514997Y693999D02*
Y695999D01*
X1513997Y689999D02*
X1515997D01*
X1514997Y688999D02*
Y690999D01*
X1513997Y684999D02*
X1515997D01*
X1514997Y683999D02*
Y685999D01*
X1513997Y679999D02*
X1515997D01*
X1514997Y678999D02*
Y680999D01*
X1513997Y674999D02*
X1515997D01*
X1514997Y673999D02*
Y675999D01*
X1513997Y669999D02*
X1515997D01*
X1514997Y668999D02*
Y670999D01*
X1513997Y664999D02*
X1515997D01*
X1514997Y663999D02*
Y665999D01*
X1513997Y659999D02*
X1515997D01*
X1514997Y658999D02*
Y660999D01*
X1513997Y654999D02*
X1515997D01*
X1514997Y653999D02*
Y655999D01*
X1513997Y649999D02*
X1515997D01*
X1514997Y648999D02*
Y650999D01*
X1508997Y699999D02*
X1510997D01*
X1509997Y698999D02*
Y700999D01*
X1508997Y694999D02*
X1510997D01*
X1509997Y693999D02*
Y695999D01*
X1508997Y689999D02*
X1510997D01*
X1509997Y688999D02*
Y690999D01*
X1508997Y684999D02*
X1510997D01*
X1509997Y683999D02*
Y685999D01*
X1508997Y679999D02*
X1510997D01*
X1509997Y678999D02*
Y680999D01*
X1508997Y674999D02*
X1510997D01*
X1509997Y673999D02*
Y675999D01*
X1508997Y669999D02*
X1510997D01*
X1509997Y668999D02*
Y670999D01*
X1508997Y664999D02*
X1510997D01*
X1509997Y663999D02*
Y665999D01*
X1508997Y659999D02*
X1510997D01*
X1509997Y658999D02*
Y660999D01*
X1508997Y654999D02*
X1510997D01*
X1509997Y653999D02*
Y655999D01*
X1508997Y649999D02*
X1510997D01*
X1509997Y648999D02*
Y650999D01*
X1503997Y699999D02*
X1505997D01*
X1504997Y698999D02*
Y700999D01*
X1503997Y694999D02*
X1505997D01*
X1504997Y693999D02*
Y695999D01*
X1503997Y689999D02*
X1505997D01*
X1504997Y688999D02*
Y690999D01*
X1503997Y684999D02*
X1505997D01*
X1504997Y683999D02*
Y685999D01*
X1503997Y679999D02*
X1505997D01*
X1504997Y678999D02*
Y680999D01*
X1503997Y674999D02*
X1505997D01*
X1504997Y673999D02*
Y675999D01*
X1503997Y669999D02*
X1505997D01*
X1504997Y668999D02*
Y670999D01*
X1503997Y664999D02*
X1505997D01*
X1504997Y663999D02*
Y665999D01*
X1503997Y659999D02*
X1505997D01*
X1504997Y658999D02*
Y660999D01*
X1503997Y654999D02*
X1505997D01*
X1504997Y653999D02*
Y655999D01*
X1503997Y649999D02*
X1505997D01*
X1504997Y648999D02*
Y650999D01*
X1498997Y699999D02*
X1500997D01*
X1499997Y698999D02*
Y700999D01*
X1498997Y694999D02*
X1500997D01*
X1499997Y693999D02*
Y695999D01*
X1498997Y689999D02*
X1500997D01*
X1499997Y688999D02*
Y690999D01*
X1498997Y684999D02*
X1500997D01*
X1499997Y683999D02*
Y685999D01*
X1498997Y679999D02*
X1500997D01*
X1499997Y678999D02*
Y680999D01*
X1498997Y674999D02*
X1500997D01*
X1499997Y673999D02*
Y675999D01*
X1498997Y669999D02*
X1500997D01*
X1499997Y668999D02*
Y670999D01*
X1498997Y664999D02*
X1500997D01*
X1499997Y663999D02*
Y665999D01*
X1498997Y659999D02*
X1500997D01*
X1499997Y658999D02*
Y660999D01*
X1498997Y654999D02*
X1500997D01*
X1499997Y653999D02*
Y655999D01*
X1498997Y649999D02*
X1500997D01*
X1499997Y648999D02*
Y650999D01*
X1493997Y699999D02*
X1495997D01*
X1494997Y698999D02*
Y700999D01*
X1493997Y694999D02*
X1495997D01*
X1494997Y693999D02*
Y695999D01*
X1493997Y689999D02*
X1495997D01*
X1494997Y688999D02*
Y690999D01*
X1493997Y684999D02*
X1495997D01*
X1494997Y683999D02*
Y685999D01*
X1493997Y679999D02*
X1495997D01*
X1494997Y678999D02*
Y680999D01*
X1493997Y674999D02*
X1495997D01*
X1494997Y673999D02*
Y675999D01*
X1493997Y669999D02*
X1495997D01*
X1494997Y668999D02*
Y670999D01*
X1493997Y664999D02*
X1495997D01*
X1494997Y663999D02*
Y665999D01*
X1493997Y659999D02*
X1495997D01*
X1494997Y658999D02*
Y660999D01*
X1493997Y654999D02*
X1495997D01*
X1494997Y653999D02*
Y655999D01*
X1493997Y649999D02*
X1495997D01*
X1494997Y648999D02*
Y650999D01*
X1488997Y699999D02*
X1490997D01*
X1489997Y698999D02*
Y700999D01*
X1488997Y694999D02*
X1490997D01*
X1489997Y693999D02*
Y695999D01*
X1488997Y689999D02*
X1490997D01*
X1489997Y688999D02*
Y690999D01*
X1488997Y684999D02*
X1490997D01*
X1489997Y683999D02*
Y685999D01*
X1488997Y679999D02*
X1490997D01*
X1489997Y678999D02*
Y680999D01*
X1488997Y674999D02*
X1490997D01*
X1489997Y673999D02*
Y675999D01*
X1488997Y669999D02*
X1490997D01*
X1489997Y668999D02*
Y670999D01*
X1488997Y664999D02*
X1490997D01*
X1489997Y663999D02*
Y665999D01*
X1488997Y659999D02*
X1490997D01*
X1489997Y658999D02*
Y660999D01*
X1488997Y654999D02*
X1490997D01*
X1489997Y653999D02*
Y655999D01*
X1488997Y649999D02*
X1490997D01*
X1489997Y648999D02*
Y650999D01*
X1483997Y699999D02*
X1485997D01*
X1484997Y698999D02*
Y700999D01*
X1483997Y694999D02*
X1485997D01*
X1484997Y693999D02*
Y695999D01*
X1483997Y689999D02*
X1485997D01*
X1484997Y688999D02*
Y690999D01*
X1483997Y684999D02*
X1485997D01*
X1484997Y683999D02*
Y685999D01*
X1483997Y679999D02*
X1485997D01*
X1484997Y678999D02*
Y680999D01*
X1483997Y674999D02*
X1485997D01*
X1484997Y673999D02*
Y675999D01*
X1483997Y669999D02*
X1485997D01*
X1484997Y668999D02*
Y670999D01*
X1483997Y664999D02*
X1485997D01*
X1484997Y663999D02*
Y665999D01*
X1483997Y659999D02*
X1485997D01*
X1484997Y658999D02*
Y660999D01*
X1483997Y654999D02*
X1485997D01*
X1484997Y653999D02*
Y655999D01*
X1483997Y649999D02*
X1485997D01*
X1484997Y648999D02*
Y650999D01*
X1478997Y699999D02*
X1480997D01*
X1479997Y698999D02*
Y700999D01*
X1478997Y694999D02*
X1480997D01*
X1479997Y693999D02*
Y695999D01*
X1478997Y689999D02*
X1480997D01*
X1479997Y688999D02*
Y690999D01*
X1478997Y684999D02*
X1480997D01*
X1479997Y683999D02*
Y685999D01*
X1478997Y679999D02*
X1480997D01*
X1479997Y678999D02*
Y680999D01*
X1478997Y674999D02*
X1480997D01*
X1479997Y673999D02*
Y675999D01*
X1478997Y669999D02*
X1480997D01*
X1479997Y668999D02*
Y670999D01*
X1478997Y664999D02*
X1480997D01*
X1479997Y663999D02*
Y665999D01*
X1478997Y659999D02*
X1480997D01*
X1479997Y658999D02*
Y660999D01*
X1478997Y654999D02*
X1480997D01*
X1479997Y653999D02*
Y655999D01*
X1478997Y649999D02*
X1480997D01*
X1479997Y648999D02*
Y650999D01*
X1473997Y699999D02*
X1475997D01*
X1474997Y698999D02*
Y700999D01*
X1473997Y694999D02*
X1475997D01*
X1474997Y693999D02*
Y695999D01*
X1473997Y689999D02*
X1475997D01*
X1474997Y688999D02*
Y690999D01*
X1473997Y684999D02*
X1475997D01*
X1474997Y683999D02*
Y685999D01*
X1473997Y679999D02*
X1475997D01*
X1474997Y678999D02*
Y680999D01*
X1473997Y674999D02*
X1475997D01*
X1474997Y673999D02*
Y675999D01*
X1473997Y669999D02*
X1475997D01*
X1474997Y668999D02*
Y670999D01*
X1473997Y664999D02*
X1475997D01*
X1474997Y663999D02*
Y665999D01*
X1473997Y659999D02*
X1475997D01*
X1474997Y658999D02*
Y660999D01*
X1473997Y654999D02*
X1475997D01*
X1474997Y653999D02*
Y655999D01*
X1473997Y649999D02*
X1475997D01*
X1474997Y648999D02*
Y650999D01*
X1468997Y699999D02*
X1470997D01*
X1469997Y698999D02*
Y700999D01*
X1468997Y694999D02*
X1470997D01*
X1469997Y693999D02*
Y695999D01*
X1468997Y689999D02*
X1470997D01*
X1469997Y688999D02*
Y690999D01*
X1468997Y684999D02*
X1470997D01*
X1469997Y683999D02*
Y685999D01*
X1468997Y679999D02*
X1470997D01*
X1469997Y678999D02*
Y680999D01*
X1468997Y674999D02*
X1470997D01*
X1469997Y673999D02*
Y675999D01*
X1468997Y669999D02*
X1470997D01*
X1469997Y668999D02*
Y670999D01*
X1468997Y664999D02*
X1470997D01*
X1469997Y663999D02*
Y665999D01*
X1468997Y659999D02*
X1470997D01*
X1469997Y658999D02*
Y660999D01*
X1468997Y654999D02*
X1470997D01*
X1469997Y653999D02*
Y655999D01*
X1468997Y649999D02*
X1470997D01*
X1469997Y648999D02*
Y650999D01*
X1463997Y699999D02*
X1465997D01*
X1464997Y698999D02*
Y700999D01*
X1463997Y694999D02*
X1465997D01*
X1464997Y693999D02*
Y695999D01*
X1463997Y689999D02*
X1465997D01*
X1464997Y688999D02*
Y690999D01*
X1463997Y684999D02*
X1465997D01*
X1464997Y683999D02*
Y685999D01*
X1463997Y679999D02*
X1465997D01*
X1464997Y678999D02*
Y680999D01*
X1463997Y674999D02*
X1465997D01*
X1464997Y673999D02*
Y675999D01*
X1463997Y669999D02*
X1465997D01*
X1464997Y668999D02*
Y670999D01*
X1463997Y664999D02*
X1465997D01*
X1464997Y663999D02*
Y665999D01*
X1463997Y659999D02*
X1465997D01*
X1464997Y658999D02*
Y660999D01*
X1463997Y654999D02*
X1465997D01*
X1464997Y653999D02*
Y655999D01*
X1463997Y649999D02*
X1465997D01*
X1464997Y648999D02*
Y650999D01*
X1458997Y699999D02*
X1460997D01*
X1459997Y698999D02*
Y700999D01*
X1458997Y694999D02*
X1460997D01*
X1459997Y693999D02*
Y695999D01*
X1458997Y689999D02*
X1460997D01*
X1459997Y688999D02*
Y690999D01*
X1458997Y684999D02*
X1460997D01*
X1459997Y683999D02*
Y685999D01*
X1458997Y679999D02*
X1460997D01*
X1459997Y678999D02*
Y680999D01*
X1458997Y674999D02*
X1460997D01*
X1459997Y673999D02*
Y675999D01*
X1453997Y699999D02*
X1455997D01*
X1454997Y698999D02*
Y700999D01*
X1453997Y694999D02*
X1455997D01*
X1454997Y693999D02*
Y695999D01*
X1453997Y689999D02*
X1455997D01*
X1454997Y688999D02*
Y690999D01*
X1453997Y684999D02*
X1455997D01*
X1454997Y683999D02*
Y685999D01*
X1453997Y679999D02*
X1455997D01*
X1454997Y678999D02*
Y680999D01*
X1448997Y699999D02*
X1450997D01*
X1449997Y698999D02*
Y700999D01*
X1448997Y694999D02*
X1450997D01*
X1449997Y693999D02*
Y695999D01*
X1448997Y689999D02*
X1450997D01*
X1449997Y688999D02*
Y690999D01*
X1448997Y684999D02*
X1450997D01*
X1449997Y683999D02*
Y685999D01*
X1448997Y669999D02*
X1450997D01*
X1449997Y668999D02*
Y670999D01*
X1448997Y664999D02*
X1450997D01*
X1449997Y663999D02*
Y665999D01*
X1448997Y659999D02*
X1450997D01*
X1449997Y658999D02*
Y660999D01*
X1448997Y654999D02*
X1450997D01*
X1449997Y653999D02*
Y655999D01*
X1448997Y649999D02*
X1450997D01*
X1449997Y648999D02*
Y650999D01*
X1443997Y699999D02*
X1445997D01*
X1444997Y698999D02*
Y700999D01*
X1443997Y694999D02*
X1445997D01*
X1444997Y693999D02*
Y695999D01*
X1443997Y689999D02*
X1445997D01*
X1444997Y688999D02*
Y690999D01*
X1443997Y684999D02*
X1445997D01*
X1444997Y683999D02*
Y685999D01*
X1443997Y669999D02*
X1445997D01*
X1444997Y668999D02*
Y670999D01*
X1443997Y664999D02*
X1445997D01*
X1444997Y663999D02*
Y665999D01*
X1443997Y659999D02*
X1445997D01*
X1444997Y658999D02*
Y660999D01*
X1438997Y699999D02*
X1440997D01*
X1439997Y698999D02*
Y700999D01*
X1438997Y694999D02*
X1440997D01*
X1439997Y693999D02*
Y695999D01*
X1438997Y689999D02*
X1440997D01*
X1439997Y688999D02*
Y690999D01*
X1438997Y684999D02*
X1440997D01*
X1439997Y683999D02*
Y685999D01*
X1438997Y669999D02*
X1440997D01*
X1439997Y668999D02*
Y670999D01*
X1438997Y664999D02*
X1440997D01*
X1439997Y663999D02*
Y665999D01*
X1438997Y659999D02*
X1440997D01*
X1439997Y658999D02*
Y660999D01*
X1433997Y699999D02*
X1435997D01*
X1434997Y698999D02*
Y700999D01*
X1433997Y694999D02*
X1435997D01*
X1434997Y693999D02*
Y695999D01*
X1433997Y689999D02*
X1435997D01*
X1434997Y688999D02*
Y690999D01*
X1433997Y684999D02*
X1435997D01*
X1434997Y683999D02*
Y685999D01*
X1433997Y669999D02*
X1435997D01*
X1434997Y668999D02*
Y670999D01*
X1433997Y664999D02*
X1435997D01*
X1434997Y663999D02*
Y665999D01*
X1433997Y659999D02*
X1435997D01*
X1434997Y658999D02*
Y660999D01*
X1428997Y699999D02*
X1430997D01*
X1429997Y698999D02*
Y700999D01*
X1428997Y694999D02*
X1430997D01*
X1429997Y693999D02*
Y695999D01*
X1428997Y689999D02*
X1430997D01*
X1429997Y688999D02*
Y690999D01*
X1428997Y684999D02*
X1430997D01*
X1429997Y683999D02*
Y685999D01*
X1428997Y669999D02*
X1430997D01*
X1429997Y668999D02*
Y670999D01*
X1428997Y664999D02*
X1430997D01*
X1429997Y663999D02*
Y665999D01*
X1428997Y659999D02*
X1430997D01*
X1429997Y658999D02*
Y660999D01*
X1685750Y697250D02*
X1687750D01*
X1686750Y696250D02*
Y698250D01*
X1578000Y656500D02*
X1580000D01*
X1579000Y655500D02*
Y657500D01*
X1743500Y647500D02*
X1745500D01*
X1744500Y646500D02*
Y648500D01*
X1735000Y640250D02*
X1737000D01*
X1736000Y639250D02*
Y641250D01*
X1579891Y530500D02*
X1581891D01*
X1580891Y529500D02*
Y531500D01*
X1589500Y530500D02*
X1591500D01*
X1590500Y529500D02*
Y531500D01*
X1600176Y525750D02*
X1602176D01*
X1601176Y524750D02*
Y526750D01*
X1744750Y691500D02*
X1746750D01*
X1745750Y690500D02*
Y692500D01*
X1718500Y497000D02*
X1720500D01*
X1719500Y496000D02*
Y498000D01*
X1480500Y371250D02*
X1482500D01*
X1481500Y370250D02*
Y372250D01*
X1364450Y420250D02*
X1366450D01*
X1365450Y419250D02*
Y421250D01*
X1320470Y639500D02*
X1322470D01*
X1321470Y638500D02*
Y640500D01*
X1400750Y639750D02*
X1402750D01*
X1401750Y638750D02*
Y640750D01*
X1697500Y594750D02*
X1699500D01*
X1698500Y593750D02*
Y595750D01*
X1683500Y594750D02*
X1685500D01*
X1684500Y593750D02*
Y595750D01*
X1669500Y594750D02*
X1671500D01*
X1670500Y593750D02*
Y595750D01*
X1655500Y594750D02*
X1657500D01*
X1656500Y593750D02*
Y595750D01*
X1641500Y594750D02*
X1643500D01*
X1642500Y593750D02*
Y595750D01*
X1627500Y594750D02*
X1629500D01*
X1628500Y593750D02*
Y595750D01*
X1566750Y670500D02*
X1568750D01*
X1567750Y669500D02*
Y671500D01*
X1567500Y699042D02*
X1569500D01*
X1568500Y698042D02*
Y700042D01*
X1552000Y593750D02*
X1554000D01*
X1553000Y592750D02*
Y594750D01*
X1566750Y642000D02*
X1568750D01*
X1567750Y641000D02*
Y643000D01*
X1462875Y425875D02*
X1464875D01*
X1463875Y424875D02*
Y426875D01*
X1617555Y507750D02*
X1619555D01*
X1618555Y506750D02*
Y508750D01*
X1637750Y506750D02*
X1639750D01*
X1638750Y505750D02*
Y507750D01*
X1707750Y657250D02*
X1709750D01*
X1708750Y656250D02*
Y658250D01*
X1442250Y621500D02*
X1444250D01*
X1443250Y620500D02*
Y622500D01*
X1446818Y512182D02*
X1448818D01*
X1447818Y511182D02*
Y513182D01*
X1636000Y518750D02*
X1638000D01*
X1637000Y517750D02*
Y519750D01*
X1650000Y518500D02*
X1652000D01*
X1651000Y517500D02*
Y519500D01*
X1473250Y425750D02*
X1475250D01*
X1474250Y424750D02*
Y426750D01*
X1557982Y333984D02*
X1559982D01*
X1558982Y332984D02*
Y334984D01*
X1454750Y332500D02*
X1456750D01*
X1455750Y331500D02*
Y333500D01*
X1575250Y341750D02*
X1577250D01*
X1576250Y340750D02*
Y342750D01*
X1626250Y662250D02*
X1628250D01*
X1627250Y661250D02*
Y663250D01*
X1492750Y588000D02*
X1494750D01*
X1493750Y587000D02*
Y589000D01*
X1352750Y678750D02*
X1354750D01*
X1353750Y677750D02*
Y679750D01*
X1487250Y534500D02*
X1489250D01*
X1488250Y533500D02*
Y535500D01*
X1404750Y574000D02*
X1406750D01*
X1405750Y573000D02*
Y575000D01*
X1387750Y552000D02*
X1389750D01*
X1388750Y551000D02*
Y553000D01*
X1378750Y535000D02*
X1380750D01*
X1379750Y534000D02*
Y536000D01*
X1379000Y591750D02*
X1381000D01*
X1380000Y590750D02*
Y592750D01*
X1516250Y324750D02*
X1518250D01*
X1517250Y323750D02*
Y325750D01*
X1508250Y340750D02*
X1510250D01*
X1509250Y339750D02*
Y341750D01*
X1644000Y673000D02*
X1646000D01*
X1645000Y672000D02*
Y674000D01*
X1633500Y644750D02*
X1635500D01*
X1634500Y643750D02*
Y645750D01*
X1707750Y647250D02*
X1709750D01*
X1708750Y646250D02*
Y648250D01*
X1624000Y677500D02*
X1626000D01*
X1625000Y676500D02*
Y678500D01*
X1492250Y598000D02*
X1494250D01*
X1493250Y597000D02*
Y599000D01*
X1562500Y551250D02*
X1564500D01*
X1563500Y550250D02*
Y552250D01*
X1708500Y692250D02*
X1710500D01*
X1709500Y691250D02*
Y693250D01*
X1622750Y717250D02*
X1624750D01*
X1623750Y716250D02*
Y718250D01*
X1602500Y700250D02*
X1604500D01*
X1603500Y699250D02*
Y701250D01*
X1602750Y707000D02*
X1604750D01*
X1603750Y706000D02*
Y708000D01*
X1443000Y534500D02*
X1445000D01*
X1444000Y533500D02*
Y535500D01*
X1452250Y534750D02*
X1454250D01*
X1453250Y533750D02*
Y535750D01*
X1457250Y511750D02*
X1459250D01*
X1458250Y510750D02*
Y512750D01*
X1708750Y682250D02*
X1710750D01*
X1709750Y681250D02*
Y683250D01*
X1685750Y687500D02*
X1687750D01*
X1686750Y686500D02*
Y688500D01*
X1457000Y624250D02*
X1459000D01*
X1458000Y623250D02*
Y625250D01*
X1653500Y766750D02*
X1655500D01*
X1654500Y765750D02*
Y767750D01*
X1681250Y766750D02*
X1683250D01*
X1682250Y765750D02*
Y767750D01*
X1695000Y766750D02*
X1697000D01*
X1696000Y765750D02*
Y767750D01*
X1409750Y622750D02*
X1411750D01*
X1410750Y621750D02*
Y623750D01*
X1352250Y720500D02*
X1354250D01*
X1353250Y719500D02*
Y721500D01*
X1332000Y720500D02*
X1334000D01*
X1333000Y719500D02*
Y721500D01*
X1337750Y761500D02*
X1339750D01*
X1338750Y760500D02*
Y762500D01*
X1492000Y478000D02*
X1494000D01*
X1493000Y477000D02*
Y479000D01*
X1503000Y414750D02*
X1505000D01*
X1504000Y413750D02*
Y415750D01*
X1511250Y422500D02*
X1513250D01*
X1512250Y421500D02*
Y423500D01*
X1503250Y422500D02*
X1505250D01*
X1504250Y421500D02*
Y423500D01*
X1495250Y414750D02*
X1497250D01*
X1496250Y413750D02*
Y415750D01*
X1518750Y414750D02*
X1520750D01*
X1519750Y413750D02*
Y415750D01*
X1511000Y414750D02*
X1513000D01*
X1512000Y413750D02*
Y415750D01*
X1495500Y422500D02*
X1497500D01*
X1496500Y421500D02*
Y423500D01*
X1519000Y422500D02*
X1521000D01*
X1520000Y421500D02*
Y423500D01*
X1495500Y430250D02*
X1497500D01*
X1496500Y429250D02*
Y431250D01*
X1519000Y430250D02*
X1521000D01*
X1520000Y429250D02*
Y431250D01*
X1503250Y430250D02*
X1505250D01*
X1504250Y429250D02*
Y431250D01*
X1511250Y430250D02*
X1513250D01*
X1512250Y429250D02*
Y431250D01*
X1511250Y437750D02*
X1513250D01*
X1512250Y436750D02*
Y438750D01*
X1503250Y437750D02*
X1505250D01*
X1504250Y436750D02*
Y438750D01*
X1519000Y437750D02*
X1521000D01*
X1520000Y436750D02*
Y438750D01*
X1495500Y437750D02*
X1497500D01*
X1496500Y436750D02*
Y438750D01*
X1502000Y392500D02*
X1504000D01*
X1503000Y391500D02*
Y393500D01*
X1562500Y531000D02*
X1564500D01*
X1563500Y530000D02*
Y532000D01*
X1430500Y464750D02*
X1432500D01*
X1431500Y463750D02*
Y465750D01*
X1540720Y315500D02*
X1542720D01*
X1541720Y314500D02*
Y316500D01*
X1476720Y315500D02*
X1478720D01*
X1477720Y314500D02*
Y316500D01*
X1685500Y677250D02*
X1687500D01*
X1686500Y676250D02*
Y678250D01*
X1685500Y667910D02*
X1687500D01*
X1686500Y666910D02*
Y668910D01*
X1643750Y645000D02*
X1645750D01*
X1644750Y644000D02*
Y646000D01*
X1508000Y375850D02*
X1510000D01*
X1509000Y374850D02*
Y376850D01*
X1343750Y463000D02*
X1345750D01*
X1344750Y462000D02*
Y464000D01*
X1658500Y645000D02*
X1660500D01*
X1659500Y644000D02*
Y646000D01*
X1667250Y766750D02*
X1669250D01*
X1668250Y765750D02*
Y767750D01*
X1639250Y766750D02*
X1641250D01*
X1640250Y765750D02*
Y767750D01*
X1761000Y341250D02*
X1763000D01*
X1762000Y340250D02*
Y342250D01*
X1568750Y369000D02*
X1570750D01*
X1569750Y368000D02*
Y370000D01*
X1662250Y497000D02*
X1664250D01*
X1663250Y496000D02*
Y498000D01*
X1778000Y699000D02*
X1780000D01*
X1779000Y698000D02*
Y700000D01*
X1763000Y671250D02*
X1765000D01*
X1764000Y670250D02*
Y672250D01*
X1744250Y676750D02*
X1746250D01*
X1745250Y675750D02*
Y677750D01*
X1722250Y693750D02*
X1724250D01*
X1723250Y692750D02*
Y694750D01*
M02*
