%TF.GenerationSoftware,Altium Limited,Altium Designer,20.0.12 (288)*%
G04 Layer_Physical_Order=1*
G04 Layer_Color=255*
%FSLAX45Y45*%
%MOMM*%
%TF.FileFunction,Copper,L1,Top,Signal*%
%TF.Part,Single*%
G01*
G75*
%TA.AperFunction,SMDPad,CuDef*%
G04:AMPARAMS|DCode=10|XSize=0.6mm|YSize=1.2mm|CornerRadius=0.15mm|HoleSize=0mm|Usage=FLASHONLY|Rotation=0.000|XOffset=0mm|YOffset=0mm|HoleType=Round|Shape=RoundedRectangle|*
%AMROUNDEDRECTD10*
21,1,0.60000,0.90000,0,0,0.0*
21,1,0.30000,1.20000,0,0,0.0*
1,1,0.30000,0.15000,-0.45000*
1,1,0.30000,-0.15000,-0.45000*
1,1,0.30000,-0.15000,0.45000*
1,1,0.30000,0.15000,0.45000*
%
%ADD10ROUNDEDRECTD10*%
%ADD11R,1.20000X1.40000*%
%ADD12R,0.80000X0.80000*%
%ADD13R,0.80000X0.80000*%
%ADD14R,0.97000X1.00000*%
%ADD15R,1.70000X0.90000*%
G04:AMPARAMS|DCode=16|XSize=1.21mm|YSize=0.59mm|CornerRadius=0.07375mm|HoleSize=0mm|Usage=FLASHONLY|Rotation=90.000|XOffset=0mm|YOffset=0mm|HoleType=Round|Shape=RoundedRectangle|*
%AMROUNDEDRECTD16*
21,1,1.21000,0.44250,0,0,90.0*
21,1,1.06250,0.59000,0,0,90.0*
1,1,0.14750,0.22125,0.53125*
1,1,0.14750,0.22125,-0.53125*
1,1,0.14750,-0.22125,-0.53125*
1,1,0.14750,-0.22125,0.53125*
%
%ADD16ROUNDEDRECTD16*%
%ADD17C,1.50000*%
%TA.AperFunction,ConnectorPad*%
%ADD18R,0.30000X1.14000*%
%TA.AperFunction,SMDPad,CuDef*%
G04:AMPARAMS|DCode=19|XSize=0.97mm|YSize=0.26mm|CornerRadius=0.0325mm|HoleSize=0mm|Usage=FLASHONLY|Rotation=180.000|XOffset=0mm|YOffset=0mm|HoleType=Round|Shape=RoundedRectangle|*
%AMROUNDEDRECTD19*
21,1,0.97000,0.19500,0,0,180.0*
21,1,0.90500,0.26000,0,0,180.0*
1,1,0.06500,-0.45250,0.09750*
1,1,0.06500,0.45250,0.09750*
1,1,0.06500,0.45250,-0.09750*
1,1,0.06500,-0.45250,-0.09750*
%
%ADD19ROUNDEDRECTD19*%
G04:AMPARAMS|DCode=20|XSize=0.97mm|YSize=0.26mm|CornerRadius=0.0325mm|HoleSize=0mm|Usage=FLASHONLY|Rotation=90.000|XOffset=0mm|YOffset=0mm|HoleType=Round|Shape=RoundedRectangle|*
%AMROUNDEDRECTD20*
21,1,0.97000,0.19500,0,0,90.0*
21,1,0.90500,0.26000,0,0,90.0*
1,1,0.06500,0.09750,0.45250*
1,1,0.06500,0.09750,-0.45250*
1,1,0.06500,-0.09750,-0.45250*
1,1,0.06500,-0.09750,0.45250*
%
%ADD20ROUNDEDRECTD20*%
%ADD21R,3.15000X3.15000*%
%ADD22R,2.40000X2.40000*%
G04:AMPARAMS|DCode=23|XSize=0.24mm|YSize=1mm|CornerRadius=0.06mm|HoleSize=0mm|Usage=FLASHONLY|Rotation=0.000|XOffset=0mm|YOffset=0mm|HoleType=Round|Shape=RoundedRectangle|*
%AMROUNDEDRECTD23*
21,1,0.24000,0.88000,0,0,0.0*
21,1,0.12000,1.00000,0,0,0.0*
1,1,0.12000,0.06000,-0.44000*
1,1,0.12000,-0.06000,-0.44000*
1,1,0.12000,-0.06000,0.44000*
1,1,0.12000,0.06000,0.44000*
%
%ADD23ROUNDEDRECTD23*%
G04:AMPARAMS|DCode=24|XSize=0.24mm|YSize=1mm|CornerRadius=0.06mm|HoleSize=0mm|Usage=FLASHONLY|Rotation=90.000|XOffset=0mm|YOffset=0mm|HoleType=Round|Shape=RoundedRectangle|*
%AMROUNDEDRECTD24*
21,1,0.24000,0.88000,0,0,90.0*
21,1,0.12000,1.00000,0,0,90.0*
1,1,0.12000,0.44000,0.06000*
1,1,0.12000,0.44000,-0.06000*
1,1,0.12000,-0.44000,-0.06000*
1,1,0.12000,-0.44000,0.06000*
%
%ADD24ROUNDEDRECTD24*%
%ADD25R,1.40000X1.20000*%
%ADD26R,0.60000X0.90000*%
%ADD27R,1.20000X0.30000*%
%ADD28R,0.30000X1.20000*%
%ADD29R,1.30000X1.00000*%
%TA.AperFunction,Conductor*%
%ADD30C,0.20000*%
%TA.AperFunction,NonConductor*%
%ADD31C,0.20000*%
%TA.AperFunction,ComponentPad*%
%ADD32O,5.00000X2.40000*%
%ADD33O,2.40000X5.00000*%
%ADD34C,0.65000*%
%ADD35O,1.00000X2.00000*%
%ADD36O,0.90000X1.80000*%
%ADD37C,1.52400*%
%ADD38C,3.25000*%
%ADD39C,2.44500*%
%ADD40C,1.53000*%
%ADD41C,1.39800*%
%ADD42R,1.39800X1.39800*%
%TA.AperFunction,ViaPad*%
%ADD43C,5.00000*%
%ADD44C,0.40000*%
G36*
X16973241Y7652361D02*
X16972560Y7651361D01*
X16971960Y7650217D01*
X16971440Y7648929D01*
X16971001Y7647498D01*
X16970641Y7645922D01*
X16970360Y7644202D01*
X16970160Y7642339D01*
X16970000Y7638180D01*
X16950000D01*
X16949960Y7640331D01*
X16949640Y7644202D01*
X16949361Y7645922D01*
X16949001Y7647498D01*
X16948560Y7648929D01*
X16948039Y7650217D01*
X16947440Y7651361D01*
X16946761Y7652361D01*
X16946001Y7653217D01*
X16974001D01*
X16973241Y7652361D01*
D02*
G37*
G36*
X16835741D02*
X16835060Y7651361D01*
X16834460Y7650217D01*
X16833940Y7648929D01*
X16833501Y7647498D01*
X16833141Y7645922D01*
X16832860Y7644202D01*
X16832660Y7642339D01*
X16832500Y7638180D01*
X16812500D01*
X16812460Y7640331D01*
X16812140Y7644202D01*
X16811861Y7645922D01*
X16811501Y7647498D01*
X16811060Y7648929D01*
X16810539Y7650217D01*
X16809940Y7651361D01*
X16809261Y7652361D01*
X16808501Y7653217D01*
X16836501D01*
X16835741Y7652361D01*
D02*
G37*
G36*
X16695740D02*
X16695061Y7651361D01*
X16694460Y7650217D01*
X16693941Y7648929D01*
X16693500Y7647498D01*
X16693140Y7645922D01*
X16692860Y7644202D01*
X16692661Y7642339D01*
X16692500Y7638180D01*
X16672501D01*
X16672459Y7640331D01*
X16672141Y7644202D01*
X16671860Y7645922D01*
X16671500Y7647498D01*
X16671060Y7648929D01*
X16670540Y7650217D01*
X16669940Y7651361D01*
X16669260Y7652361D01*
X16668500Y7653217D01*
X16696500D01*
X16695740Y7652361D01*
D02*
G37*
G36*
X16558240D02*
X16557561Y7651361D01*
X16556960Y7650217D01*
X16556441Y7648929D01*
X16556000Y7647498D01*
X16555640Y7645922D01*
X16555360Y7644202D01*
X16555161Y7642339D01*
X16555000Y7638180D01*
X16535001D01*
X16534959Y7640331D01*
X16534641Y7644202D01*
X16534360Y7645922D01*
X16534000Y7647498D01*
X16533560Y7648929D01*
X16533040Y7650217D01*
X16532440Y7651361D01*
X16531760Y7652361D01*
X16531000Y7653217D01*
X16559000D01*
X16558240Y7652361D01*
D02*
G37*
G36*
X16415739D02*
X16415060Y7651361D01*
X16414461Y7650217D01*
X16413940Y7648929D01*
X16413499Y7647498D01*
X16413139Y7645922D01*
X16412860Y7644202D01*
X16412660Y7642339D01*
X16412500Y7638180D01*
X16392500D01*
X16392461Y7640331D01*
X16392140Y7644202D01*
X16391859Y7645922D01*
X16391499Y7647498D01*
X16391060Y7648929D01*
X16390540Y7650217D01*
X16389940Y7651361D01*
X16389259Y7652361D01*
X16388499Y7653217D01*
X16416499D01*
X16415739Y7652361D01*
D02*
G37*
G36*
X16970100Y7618337D02*
X16970399Y7614885D01*
X16970900Y7611839D01*
X16971600Y7609199D01*
X16972501Y7606966D01*
X16973599Y7605138D01*
X16974899Y7603717D01*
X16976401Y7602702D01*
X16978101Y7602093D01*
X16980000Y7601890D01*
X16939999D01*
X16941901Y7602093D01*
X16943600Y7602702D01*
X16945100Y7603717D01*
X16946400Y7605138D01*
X16947501Y7606966D01*
X16948399Y7609199D01*
X16949100Y7611839D01*
X16949600Y7614885D01*
X16949899Y7618337D01*
X16950000Y7622195D01*
X16970000D01*
X16970100Y7618337D01*
D02*
G37*
G36*
X16832600D02*
X16832899Y7614885D01*
X16833400Y7611839D01*
X16834100Y7609199D01*
X16835001Y7606966D01*
X16836099Y7605138D01*
X16837399Y7603717D01*
X16838901Y7602702D01*
X16840601Y7602093D01*
X16842500Y7601890D01*
X16802499D01*
X16804401Y7602093D01*
X16806100Y7602702D01*
X16807600Y7603717D01*
X16808900Y7605138D01*
X16810001Y7606966D01*
X16810899Y7609199D01*
X16811600Y7611839D01*
X16812100Y7614885D01*
X16812399Y7618337D01*
X16812500Y7622195D01*
X16832500D01*
X16832600Y7618337D01*
D02*
G37*
G36*
X16692599D02*
X16692900Y7614885D01*
X16693401Y7611839D01*
X16694099Y7609199D01*
X16695000Y7606966D01*
X16696100Y7605138D01*
X16697400Y7603717D01*
X16698900Y7602702D01*
X16700600Y7602093D01*
X16702499Y7601890D01*
X16662500D01*
X16664400Y7602093D01*
X16666100Y7602702D01*
X16667599Y7603717D01*
X16668900Y7605138D01*
X16670000Y7606966D01*
X16670900Y7609199D01*
X16671600Y7611839D01*
X16672099Y7614885D01*
X16672400Y7618337D01*
X16672501Y7622195D01*
X16692500D01*
X16692599Y7618337D01*
D02*
G37*
G36*
X16555099D02*
X16555400Y7614885D01*
X16555901Y7611839D01*
X16556599Y7609199D01*
X16557500Y7606966D01*
X16558600Y7605138D01*
X16559900Y7603717D01*
X16561400Y7602702D01*
X16563100Y7602093D01*
X16564999Y7601890D01*
X16525000D01*
X16526900Y7602093D01*
X16528600Y7602702D01*
X16530099Y7603717D01*
X16531400Y7605138D01*
X16532500Y7606966D01*
X16533400Y7609199D01*
X16534100Y7611839D01*
X16534599Y7614885D01*
X16534900Y7618337D01*
X16535001Y7622195D01*
X16555000D01*
X16555099Y7618337D01*
D02*
G37*
G36*
X13402638Y7628240D02*
X13403639Y7627560D01*
X13404784Y7626960D01*
X13406071Y7626440D01*
X13407503Y7626000D01*
X13409077Y7625640D01*
X13410799Y7625360D01*
X13412662Y7625160D01*
X13416821Y7625000D01*
Y7605000D01*
X13414668Y7604960D01*
X13410799Y7604640D01*
X13409077Y7604360D01*
X13407503Y7604000D01*
X13406071Y7603560D01*
X13404784Y7603040D01*
X13403639Y7602440D01*
X13402638Y7601760D01*
X13401784Y7601000D01*
Y7629000D01*
X13402638Y7628240D01*
D02*
G37*
G36*
X16412601Y7617437D02*
X16412900Y7613985D01*
X16413400Y7610939D01*
X16414101Y7608299D01*
X16414999Y7606066D01*
X16416100Y7604239D01*
X16417400Y7602817D01*
X16418900Y7601802D01*
X16420599Y7601193D01*
X16422501Y7600990D01*
X16382500D01*
X16384399Y7601193D01*
X16386099Y7601802D01*
X16387601Y7602817D01*
X16388901Y7604239D01*
X16389999Y7606066D01*
X16390900Y7608299D01*
X16391600Y7610939D01*
X16392101Y7613985D01*
X16392400Y7617437D01*
X16392500Y7621295D01*
X16412500D01*
X16412601Y7617437D01*
D02*
G37*
G36*
X13450610Y7595000D02*
X13450407Y7596900D01*
X13449797Y7598600D01*
X13448782Y7600100D01*
X13447362Y7601400D01*
X13445534Y7602500D01*
X13443300Y7603400D01*
X13440660Y7604100D01*
X13437614Y7604600D01*
X13434163Y7604900D01*
X13430305Y7605000D01*
Y7625000D01*
X13434163Y7625100D01*
X13437614Y7625400D01*
X13440660Y7625900D01*
X13443300Y7626600D01*
X13445534Y7627500D01*
X13447362Y7628600D01*
X13448782Y7629900D01*
X13449797Y7631400D01*
X13450407Y7633100D01*
X13450610Y7635000D01*
Y7595000D01*
D02*
G37*
G36*
X16587195Y7372804D02*
X16586298Y7372627D01*
X16585492Y7372094D01*
X16584782Y7371205D01*
X16584167Y7369962D01*
X16583649Y7368363D01*
X16583221Y7366408D01*
X16582890Y7364099D01*
X16582654Y7361434D01*
X16582465Y7355038D01*
X16562465D01*
X16562387Y7358458D01*
X16562154Y7361520D01*
X16561766Y7364224D01*
X16561221Y7366568D01*
X16560522Y7368555D01*
X16559669Y7370183D01*
X16558659Y7371452D01*
X16557494Y7372363D01*
X16556174Y7372915D01*
X16554698Y7373109D01*
X16587195Y7372804D01*
D02*
G37*
G36*
X17120599Y7372906D02*
X17118900Y7372297D01*
X17117400Y7371282D01*
X17116100Y7369861D01*
X17114999Y7368033D01*
X17114101Y7365800D01*
X17113400Y7363160D01*
X17112900Y7360114D01*
X17112601Y7356662D01*
X17112500Y7352804D01*
X17092500D01*
X17092400Y7356662D01*
X17092101Y7360114D01*
X17091600Y7363160D01*
X17090900Y7365800D01*
X17089999Y7368033D01*
X17088901Y7369861D01*
X17087601Y7371282D01*
X17086099Y7372297D01*
X17084399Y7372906D01*
X17082500Y7373109D01*
X17122501D01*
X17120599Y7372906D01*
D02*
G37*
G36*
X16980600D02*
X16978900Y7372297D01*
X16977400Y7371282D01*
X16976100Y7369861D01*
X16975000Y7368033D01*
X16974100Y7365800D01*
X16973399Y7363160D01*
X16972900Y7360114D01*
X16972600Y7356662D01*
X16972501Y7352804D01*
X16952499D01*
X16952400Y7356662D01*
X16952100Y7360114D01*
X16951601Y7363160D01*
X16950900Y7365800D01*
X16950000Y7368033D01*
X16948900Y7369861D01*
X16947600Y7371282D01*
X16946100Y7372297D01*
X16944400Y7372906D01*
X16942500Y7373109D01*
X16982500D01*
X16980600Y7372906D01*
D02*
G37*
G36*
X16840601D02*
X16838901Y7372297D01*
X16837399Y7371282D01*
X16836099Y7369861D01*
X16835001Y7368033D01*
X16834100Y7365800D01*
X16833400Y7363160D01*
X16832899Y7360114D01*
X16832600Y7356662D01*
X16832500Y7352804D01*
X16812500D01*
X16812399Y7356662D01*
X16812100Y7360114D01*
X16811600Y7363160D01*
X16810899Y7365800D01*
X16810001Y7368033D01*
X16808900Y7369861D01*
X16807600Y7371282D01*
X16806100Y7372297D01*
X16804401Y7372906D01*
X16802499Y7373109D01*
X16842500D01*
X16840601Y7372906D01*
D02*
G37*
G36*
X16700600D02*
X16698900Y7372297D01*
X16697400Y7371282D01*
X16696100Y7369861D01*
X16695000Y7368033D01*
X16694099Y7365800D01*
X16693401Y7363160D01*
X16692900Y7360114D01*
X16692599Y7356662D01*
X16692500Y7352804D01*
X16672501D01*
X16672400Y7356662D01*
X16672099Y7360114D01*
X16671600Y7363160D01*
X16670900Y7365800D01*
X16670000Y7368033D01*
X16668900Y7369861D01*
X16667599Y7371282D01*
X16666100Y7372297D01*
X16664400Y7372906D01*
X16662500Y7373109D01*
X16702499D01*
X16700600Y7372906D01*
D02*
G37*
G36*
X16425500Y7372006D02*
X16423801Y7371397D01*
X16422301Y7370382D01*
X16421001Y7368961D01*
X16419901Y7367133D01*
X16419000Y7364900D01*
X16418300Y7362260D01*
X16417799Y7359214D01*
X16417500Y7355763D01*
X16417400Y7351905D01*
X16397400D01*
X16397301Y7355763D01*
X16397000Y7359214D01*
X16396500Y7362260D01*
X16395799Y7364900D01*
X16394901Y7367133D01*
X16393800Y7368961D01*
X16392500Y7370382D01*
X16391000Y7371397D01*
X16389301Y7372006D01*
X16387399Y7372209D01*
X16427400D01*
X16425500Y7372006D01*
D02*
G37*
G36*
X16285800D02*
X16284100Y7371397D01*
X16282600Y7370382D01*
X16281300Y7368961D01*
X16280200Y7367133D01*
X16279300Y7364900D01*
X16278600Y7362260D01*
X16278101Y7359214D01*
X16277800Y7355763D01*
X16277699Y7351905D01*
X16257700D01*
X16257600Y7355763D01*
X16257300Y7359214D01*
X16256799Y7362260D01*
X16256100Y7364900D01*
X16255200Y7367133D01*
X16254100Y7368961D01*
X16252800Y7370382D01*
X16251300Y7371397D01*
X16249600Y7372006D01*
X16247701Y7372209D01*
X16287700D01*
X16285800Y7372006D01*
D02*
G37*
G36*
X16145599D02*
X16143900Y7371397D01*
X16142400Y7370382D01*
X16141100Y7368961D01*
X16139999Y7367133D01*
X16139101Y7364900D01*
X16138400Y7362260D01*
X16137900Y7359214D01*
X16137601Y7355763D01*
X16137500Y7351905D01*
X16117500D01*
X16117400Y7355763D01*
X16117101Y7359214D01*
X16116600Y7362260D01*
X16115900Y7364900D01*
X16114999Y7367133D01*
X16113901Y7368961D01*
X16112601Y7370382D01*
X16111099Y7371397D01*
X16109399Y7372006D01*
X16107500Y7372209D01*
X16147501D01*
X16145599Y7372006D01*
D02*
G37*
G36*
X16005600D02*
X16003900Y7371397D01*
X16002400Y7370382D01*
X16001100Y7368961D01*
X16000000Y7367133D01*
X15999100Y7364900D01*
X15998399Y7362260D01*
X15997900Y7359214D01*
X15997600Y7355763D01*
X15997501Y7351905D01*
X15977499D01*
X15977400Y7355763D01*
X15977100Y7359214D01*
X15976601Y7362260D01*
X15975900Y7364900D01*
X15975000Y7367133D01*
X15973900Y7368961D01*
X15972600Y7370382D01*
X15971100Y7371397D01*
X15969400Y7372006D01*
X15967500Y7372209D01*
X16007500D01*
X16005600Y7372006D01*
D02*
G37*
G36*
X16804260Y7222058D02*
X16783542D01*
X16783611Y7222287D01*
X16783672Y7222912D01*
X16783771Y7225353D01*
X16783900Y7242207D01*
X16803902D01*
X16804260Y7222058D01*
D02*
G37*
G36*
X16754260D02*
X16733542D01*
X16733611Y7222287D01*
X16733672Y7222912D01*
X16733771Y7225353D01*
X16733900Y7242207D01*
X16753902D01*
X16754260Y7222058D01*
D02*
G37*
G36*
X16704260D02*
X16683542D01*
X16683611Y7222287D01*
X16683672Y7222912D01*
X16683772Y7225353D01*
X16683900Y7242207D01*
X16703902D01*
X16704260Y7222058D01*
D02*
G37*
G36*
X16654260D02*
X16633542D01*
X16633611Y7222287D01*
X16633672Y7222912D01*
X16633772Y7225353D01*
X16633900Y7242207D01*
X16653902D01*
X16654260Y7222058D01*
D02*
G37*
G36*
X16604260D02*
X16583542D01*
X16583611Y7222287D01*
X16583672Y7222912D01*
X16583772Y7225353D01*
X16583900Y7242207D01*
X16603902D01*
X16604260Y7222058D01*
D02*
G37*
G36*
X16554260D02*
X16533542D01*
X16533611Y7222287D01*
X16533672Y7222912D01*
X16533772Y7225353D01*
X16533900Y7242207D01*
X16553902D01*
X16554260Y7222058D01*
D02*
G37*
G36*
X16504260D02*
X16483542D01*
X16483611Y7222287D01*
X16483672Y7222912D01*
X16483772Y7225353D01*
X16483900Y7242207D01*
X16503902D01*
X16504260Y7222058D01*
D02*
G37*
G36*
X16855884Y7233054D02*
X16855310Y7223928D01*
X16855096Y7223008D01*
X16854849Y7222390D01*
X16854572Y7222073D01*
X16854259Y7222058D01*
X16834096Y7221958D01*
X16834439Y7222098D01*
X16834746Y7222514D01*
X16835017Y7223206D01*
X16835251Y7224175D01*
X16835449Y7225419D01*
X16835738Y7228737D01*
X16835883Y7233159D01*
X16835901Y7235784D01*
X16855901D01*
X16855884Y7233054D01*
D02*
G37*
G36*
X16282042Y7152500D02*
X16281839Y7154400D01*
X16281230Y7156100D01*
X16280215Y7157600D01*
X16278793Y7158900D01*
X16276965Y7160000D01*
X16274731Y7160900D01*
X16272093Y7161600D01*
X16269048Y7162100D01*
X16265594Y7162400D01*
X16264336Y7162433D01*
X16260799Y7162140D01*
X16259077Y7161860D01*
X16257503Y7161500D01*
X16256071Y7161060D01*
X16254784Y7160540D01*
X16253639Y7159940D01*
X16252638Y7159260D01*
X16251784Y7158500D01*
Y7186500D01*
X16252638Y7185740D01*
X16253639Y7185060D01*
X16254784Y7184460D01*
X16256071Y7183940D01*
X16257503Y7183500D01*
X16259077Y7183140D01*
X16260799Y7182860D01*
X16262662Y7182660D01*
X16264774Y7182579D01*
X16265594Y7182600D01*
X16269048Y7182900D01*
X16272093Y7183400D01*
X16274731Y7184100D01*
X16276965Y7185000D01*
X16278793Y7186100D01*
X16280215Y7187400D01*
X16281230Y7188900D01*
X16281839Y7190600D01*
X16282042Y7192500D01*
Y7152500D01*
D02*
G37*
G36*
X16454192Y7125112D02*
X16454131Y7124487D01*
X16454031Y7122045D01*
X16453902Y7105192D01*
X16433900D01*
X16433542Y7125341D01*
X16454260D01*
X16454192Y7125112D01*
D02*
G37*
G36*
X16095543Y7034058D02*
X16095650Y7013880D01*
X16095528Y7013922D01*
X16095158Y7013961D01*
X16093687Y7014024D01*
X16083395Y7014105D01*
Y7034105D01*
X16095543Y7034058D01*
D02*
G37*
G36*
X17042488Y7033990D02*
X17043114Y7033929D01*
X17045554Y7033829D01*
X17062408Y7033699D01*
Y7013699D01*
X17042259Y7013341D01*
Y7034058D01*
X17042488Y7033990D01*
D02*
G37*
G36*
X17173109Y6992500D02*
X17172906Y6994400D01*
X17172298Y6996100D01*
X17171281Y6997600D01*
X17169861Y6998900D01*
X17168033Y7000000D01*
X17165800Y7000900D01*
X17163161Y7001600D01*
X17160115Y7002100D01*
X17156664Y7002400D01*
X17152805Y7002500D01*
Y7022500D01*
X17156664Y7022600D01*
X17160115Y7022900D01*
X17163161Y7023400D01*
X17165800Y7024100D01*
X17168033Y7025000D01*
X17169861Y7026100D01*
X17171281Y7027400D01*
X17172298Y7028900D01*
X17172906Y7030600D01*
X17173109Y7032500D01*
Y6992500D01*
D02*
G37*
G36*
X16055070Y7001231D02*
X16055301Y7000044D01*
X16055688Y6998812D01*
X16056235Y6997535D01*
X16056938Y6996212D01*
X16057799Y6994844D01*
X16058820Y6993431D01*
X16059996Y6991972D01*
X16062825Y6988918D01*
X16048741Y6974718D01*
X16047192Y6976211D01*
X16044228Y6978720D01*
X16042813Y6979736D01*
X16041444Y6980594D01*
X16040118Y6981293D01*
X16038840Y6981833D01*
X16037605Y6982215D01*
X16036417Y6982438D01*
X16035271Y6982502D01*
X16054999Y7002372D01*
X16055070Y7001231D01*
D02*
G37*
G36*
X17402499Y7632500D02*
X17402499Y6972500D01*
X17320000D01*
Y7060000D01*
X17305000Y7075000D01*
X16887500D01*
X16882500Y7080000D01*
Y7205000D01*
X16897501Y7220000D01*
X17095000D01*
X17172501Y7297500D01*
Y7485000D01*
X17157500Y7500000D01*
X17060001D01*
X17042500Y7517500D01*
X17042500Y7680000D01*
X17054999Y7692499D01*
X17342499Y7692500D01*
X17402499Y7632500D01*
D02*
G37*
G36*
X15700139Y6993240D02*
X15701138Y6992560D01*
X15702283Y6991960D01*
X15703571Y6991440D01*
X15705003Y6991000D01*
X15706578Y6990640D01*
X15708298Y6990360D01*
X15710162Y6990160D01*
X15714320Y6990000D01*
Y6970000D01*
X15712169Y6969960D01*
X15708298Y6969640D01*
X15706578Y6969360D01*
X15705003Y6969000D01*
X15703571Y6968560D01*
X15702283Y6968040D01*
X15701138Y6967440D01*
X15700139Y6966760D01*
X15699283Y6966000D01*
Y6994000D01*
X15700139Y6993240D01*
D02*
G37*
G36*
X16095543Y6963341D02*
X16095316Y6963409D01*
X16094688Y6963470D01*
X16092249Y6963570D01*
X16075394Y6963700D01*
Y6983700D01*
X16095543Y6984058D01*
Y6963341D01*
D02*
G37*
G36*
X16945541D02*
X16945364Y6963295D01*
X16944797Y6963254D01*
X16938599Y6963138D01*
X16926125Y6963100D01*
X16925143Y6983100D01*
X16945541Y6984058D01*
Y6963341D01*
D02*
G37*
G36*
X15750610Y6960000D02*
X15750407Y6961900D01*
X15749799Y6963600D01*
X15748782Y6965100D01*
X15747362Y6966400D01*
X15745534Y6967500D01*
X15743300Y6968400D01*
X15740660Y6969100D01*
X15737614Y6969600D01*
X15734163Y6969900D01*
X15730305Y6970000D01*
Y6990000D01*
X15734163Y6990100D01*
X15737614Y6990400D01*
X15740660Y6990900D01*
X15743300Y6991600D01*
X15745534Y6992500D01*
X15747362Y6993600D01*
X15748782Y6994900D01*
X15749799Y6996400D01*
X15750407Y6998100D01*
X15750610Y7000000D01*
Y6960000D01*
D02*
G37*
G36*
X16882224Y6986196D02*
X16883234Y6985546D01*
X16884387Y6984973D01*
X16885683Y6984475D01*
X16887122Y6984055D01*
X16888702Y6983711D01*
X16890428Y6983443D01*
X16894305Y6983138D01*
X16896460Y6983100D01*
X16897153Y6963100D01*
X16895003Y6963058D01*
X16891141Y6962725D01*
X16889426Y6962433D01*
X16887859Y6962058D01*
X16886435Y6961600D01*
X16885156Y6961059D01*
X16884026Y6960434D01*
X16883038Y6959726D01*
X16882196Y6958935D01*
X16881357Y6986922D01*
X16882224Y6986196D01*
D02*
G37*
G36*
X15914999Y7722500D02*
X15914999Y7330000D01*
X15994662Y7250337D01*
Y6915400D01*
X15889600D01*
X15857500Y6947500D01*
Y7045000D01*
X15817500Y7085000D01*
X14435001D01*
X14389999Y7040000D01*
X14385001Y7045000D01*
X14382401D01*
Y6025601D01*
X14360503Y6047500D01*
X14247501D01*
X14212500Y6082500D01*
Y7375000D01*
X14147501Y7440000D01*
X13950000D01*
X13882500Y7507500D01*
X13755000D01*
X13717500Y7470000D01*
X13592500D01*
X13577499Y7454999D01*
X13577499Y7297499D01*
X13549998Y7269999D01*
X13257500Y7270000D01*
X13239999Y7252500D01*
X13239999Y7050000D01*
X13229999Y7040000D01*
X13110001Y7040000D01*
X13097501Y7052500D01*
X13097501Y7497500D01*
X13142499Y7542500D01*
X13552499Y7542500D01*
X13577499Y7567500D01*
Y7715000D01*
X13607500Y7745000D01*
X15892500D01*
X15914999Y7722500D01*
D02*
G37*
G36*
X16212679Y6914350D02*
X16192261Y6913341D01*
Y6934059D01*
X16192432Y6934114D01*
X16192995Y6934163D01*
X16195290Y6934245D01*
X16211557Y6934350D01*
X16212679Y6914350D01*
D02*
G37*
G36*
X17042535Y6933876D02*
X17043202Y6933713D01*
X17044263Y6933570D01*
X17047557Y6933339D01*
X17062657Y6933100D01*
X17061678Y6913100D01*
X17042259Y6913341D01*
Y6934059D01*
X17042535Y6933876D01*
D02*
G37*
G36*
X17080304Y6908935D02*
X17079462Y6909726D01*
X17078474Y6910434D01*
X17077344Y6911059D01*
X17076065Y6911600D01*
X17074641Y6912058D01*
X17073074Y6912433D01*
X17071359Y6912725D01*
X17069501Y6912933D01*
X17065347Y6913100D01*
X17066040Y6933100D01*
X17068195Y6933138D01*
X17072072Y6933444D01*
X17073798Y6933711D01*
X17075378Y6934055D01*
X17076817Y6934476D01*
X17078113Y6934973D01*
X17079266Y6935546D01*
X17080276Y6936196D01*
X17081143Y6936922D01*
X17080304Y6908935D01*
D02*
G37*
G36*
X16945541Y6884059D02*
Y6863341D01*
X16945262Y6863533D01*
X16944591Y6863704D01*
X16943529Y6863855D01*
X16940228Y6864098D01*
X16925124Y6864350D01*
X16926245Y6884350D01*
X16945541Y6884059D01*
D02*
G37*
G36*
X16192490Y6883991D02*
X16193114Y6883929D01*
X16195557Y6883829D01*
X16212408Y6883700D01*
Y6863700D01*
X16192261Y6863341D01*
Y6884059D01*
X16192490Y6883991D01*
D02*
G37*
G36*
X16095543Y6863341D02*
X16095316Y6863409D01*
X16094688Y6863470D01*
X16092249Y6863570D01*
X16075394Y6863700D01*
Y6883700D01*
X16095543Y6884059D01*
Y6863341D01*
D02*
G37*
G36*
X16883070Y6887734D02*
X16884056Y6887024D01*
X16885187Y6886397D01*
X16886464Y6885854D01*
X16887886Y6885394D01*
X16889455Y6885018D01*
X16891167Y6884726D01*
X16893027Y6884517D01*
X16897180Y6884350D01*
X16896428Y6864350D01*
X16894275Y6864312D01*
X16890395Y6864007D01*
X16888670Y6863741D01*
X16887088Y6863398D01*
X16885649Y6862979D01*
X16884352Y6862484D01*
X16883199Y6861913D01*
X16882188Y6861266D01*
X16881320Y6860543D01*
X16882230Y6888528D01*
X16883070Y6887734D01*
D02*
G37*
G36*
X16192490Y6833991D02*
X16193114Y6833929D01*
X16195557Y6833829D01*
X16212408Y6833700D01*
Y6813700D01*
X16192261Y6813341D01*
Y6834059D01*
X16192490Y6833991D01*
D02*
G37*
G36*
X17042535Y6833877D02*
X17043202Y6833714D01*
X17044263Y6833570D01*
X17047557Y6833340D01*
X17062657Y6833100D01*
X17061678Y6813100D01*
X17042259Y6813341D01*
Y6834059D01*
X17042535Y6833877D01*
D02*
G37*
G36*
X15979593Y6850600D02*
X15980203Y6848900D01*
X15981218Y6847400D01*
X15982639Y6846100D01*
X15984467Y6845000D01*
X15986700Y6844100D01*
X15989340Y6843400D01*
X15992386Y6842900D01*
X15995837Y6842600D01*
X15999695Y6842500D01*
Y6822500D01*
X15995837Y6822400D01*
X15992386Y6822100D01*
X15989340Y6821600D01*
X15986700Y6820900D01*
X15984467Y6820000D01*
X15982639Y6818900D01*
X15981218Y6817600D01*
X15980203Y6816100D01*
X15979593Y6814400D01*
X15979390Y6812500D01*
Y6852500D01*
X15979593Y6850600D01*
D02*
G37*
G36*
X17082803Y6808935D02*
X17081963Y6809726D01*
X17080975Y6810434D01*
X17079843Y6811059D01*
X17078564Y6811601D01*
X17077142Y6812059D01*
X17075574Y6812433D01*
X17073860Y6812725D01*
X17072002Y6812933D01*
X17067847Y6813100D01*
X17068539Y6833100D01*
X17070694Y6833138D01*
X17074573Y6833444D01*
X17076297Y6833712D01*
X17077878Y6834055D01*
X17079317Y6834476D01*
X17080614Y6834973D01*
X17081766Y6835546D01*
X17082776Y6836196D01*
X17083644Y6836922D01*
X17082803Y6808935D01*
D02*
G37*
G36*
X16256221Y6803875D02*
X16256609Y6800056D01*
X16256947Y6798385D01*
X16257382Y6796873D01*
X16257915Y6795520D01*
X16258543Y6794326D01*
X16259268Y6793291D01*
X16260091Y6792415D01*
X16261008Y6791698D01*
X16233527Y6786340D01*
X16234029Y6787184D01*
X16234479Y6788175D01*
X16234875Y6789315D01*
X16235220Y6790604D01*
X16235510Y6792041D01*
X16235934Y6795360D01*
X16236067Y6797241D01*
X16236172Y6801450D01*
X16256174Y6806023D01*
X16256221Y6803875D01*
D02*
G37*
G36*
X16095543Y6784059D02*
Y6763341D01*
X16095212Y6763656D01*
X16094496Y6763938D01*
X16093393Y6764187D01*
X16091904Y6764403D01*
X16087766Y6764735D01*
X16078664Y6764983D01*
X16074857Y6765000D01*
X16077815Y6785000D01*
X16095543Y6784059D01*
D02*
G37*
G36*
X16945541Y6763341D02*
X16945364Y6763295D01*
X16944797Y6763254D01*
X16938599Y6763139D01*
X16926125Y6763100D01*
X16925143Y6783100D01*
X16945541Y6784059D01*
Y6763341D01*
D02*
G37*
G36*
X16879724Y6786196D02*
X16880734Y6785546D01*
X16881886Y6784973D01*
X16883183Y6784476D01*
X16884622Y6784056D01*
X16886203Y6783712D01*
X16887927Y6783444D01*
X16891806Y6783138D01*
X16893961Y6783100D01*
X16894653Y6763100D01*
X16892503Y6763058D01*
X16888640Y6762725D01*
X16886926Y6762434D01*
X16885358Y6762059D01*
X16883936Y6761601D01*
X16882657Y6761059D01*
X16881525Y6760434D01*
X16880537Y6759726D01*
X16879697Y6758935D01*
X16878857Y6786922D01*
X16879724Y6786196D01*
D02*
G37*
G36*
X13635001Y6992500D02*
Y6760000D01*
X13622501Y6747500D01*
X13455000D01*
X13439999Y6762500D01*
X13440001Y6990000D01*
X13455000Y7005000D01*
X13622501D01*
X13635001Y6992500D01*
D02*
G37*
G36*
X13417500Y6987500D02*
Y6765000D01*
X13400000Y6747500D01*
X13114999D01*
X13097501Y6765000D01*
Y6990000D01*
X13110001Y7002500D01*
X13402499D01*
X13417500Y6987500D01*
D02*
G37*
G36*
X16460040Y6757169D02*
X16460361Y6753298D01*
X16460640Y6751578D01*
X16461000Y6750003D01*
X16461440Y6748571D01*
X16461960Y6747283D01*
X16462560Y6746139D01*
X16463240Y6745139D01*
X16464000Y6744283D01*
X16436000D01*
X16436760Y6745139D01*
X16437440Y6746139D01*
X16438040Y6747283D01*
X16438560Y6748571D01*
X16439000Y6750003D01*
X16439360Y6751578D01*
X16439639Y6753298D01*
X16439841Y6755161D01*
X16439999Y6759320D01*
X16460001D01*
X16460040Y6757169D01*
D02*
G37*
G36*
X17682500Y6720000D02*
X17560001D01*
X17545000Y6735000D01*
Y6745000D01*
X17530000Y6760000D01*
X17400000D01*
X17385001Y6775000D01*
Y6922500D01*
X17402499Y6940000D01*
X17682500D01*
Y6720000D01*
D02*
G37*
G36*
X17042488Y6733991D02*
X17043114Y6733930D01*
X17045554Y6733829D01*
X17062408Y6733700D01*
Y6713700D01*
X17042259Y6713341D01*
Y6734059D01*
X17042488Y6733991D01*
D02*
G37*
G36*
X17165610Y6703700D02*
X17165392Y6705600D01*
X17164769Y6707300D01*
X17163745Y6708800D01*
X17162318Y6710100D01*
X17160489Y6711200D01*
X17158257Y6712100D01*
X17155623Y6712800D01*
X17152586Y6713300D01*
X17149147Y6713600D01*
X17145306Y6713700D01*
Y6733700D01*
X17149106Y6733735D01*
X17160306Y6734574D01*
X17162106Y6734958D01*
X17163506Y6735412D01*
X17164505Y6735937D01*
X17165106Y6736531D01*
X17165306Y6737195D01*
X17165610Y6703700D01*
D02*
G37*
G36*
X17810600Y6720407D02*
X17808900Y6719797D01*
X17807401Y6718782D01*
X17806100Y6717361D01*
X17805000Y6715533D01*
X17804102Y6713300D01*
X17803401Y6710660D01*
X17802901Y6707614D01*
X17802602Y6704163D01*
X17802501Y6700305D01*
X17782501D01*
X17782401Y6704163D01*
X17782101Y6707614D01*
X17781601Y6710660D01*
X17780901Y6713300D01*
X17780000Y6715533D01*
X17778902Y6717361D01*
X17777602Y6718782D01*
X17776102Y6719797D01*
X17774400Y6720407D01*
X17772501Y6720610D01*
X17812502D01*
X17810600Y6720407D01*
D02*
G37*
G36*
X15700139Y6715740D02*
X15701138Y6715060D01*
X15702283Y6714460D01*
X15703571Y6713940D01*
X15705003Y6713500D01*
X15706578Y6713140D01*
X15708298Y6712860D01*
X15710162Y6712660D01*
X15714320Y6712500D01*
Y6692500D01*
X15712169Y6692460D01*
X15708298Y6692140D01*
X15706578Y6691860D01*
X15705003Y6691500D01*
X15703571Y6691060D01*
X15702283Y6690540D01*
X15701138Y6689940D01*
X15700139Y6689260D01*
X15699283Y6688500D01*
Y6716500D01*
X15700139Y6715740D01*
D02*
G37*
G36*
X15979593Y6720600D02*
X15980203Y6718900D01*
X15981218Y6717400D01*
X15982639Y6716100D01*
X15984467Y6715000D01*
X15986700Y6714100D01*
X15989340Y6713400D01*
X15992386Y6712900D01*
X15995837Y6712600D01*
X15999695Y6712500D01*
Y6692500D01*
X15995837Y6692400D01*
X15992386Y6692100D01*
X15989340Y6691600D01*
X15986700Y6690900D01*
X15984467Y6690000D01*
X15982639Y6688900D01*
X15981218Y6687600D01*
X15980203Y6686100D01*
X15979593Y6684400D01*
X15979390Y6682500D01*
Y6722500D01*
X15979593Y6720600D01*
D02*
G37*
G36*
X15750610Y6682500D02*
X15750407Y6684400D01*
X15749799Y6686100D01*
X15748782Y6687600D01*
X15747362Y6688900D01*
X15745534Y6690000D01*
X15743300Y6690900D01*
X15740660Y6691600D01*
X15737614Y6692100D01*
X15734163Y6692400D01*
X15730305Y6692500D01*
Y6712500D01*
X15734163Y6712600D01*
X15737614Y6712900D01*
X15740660Y6713400D01*
X15743300Y6714100D01*
X15745534Y6715000D01*
X15747362Y6716100D01*
X15748782Y6717400D01*
X15749799Y6718900D01*
X15750407Y6720600D01*
X15750610Y6722500D01*
Y6682500D01*
D02*
G37*
G36*
X16192490Y6683991D02*
X16193114Y6683930D01*
X16195557Y6683829D01*
X16212408Y6683700D01*
Y6663700D01*
X16192261Y6663341D01*
Y6684059D01*
X16192490Y6683991D01*
D02*
G37*
G36*
X16095543Y6663341D02*
X16095316Y6663409D01*
X16094688Y6663471D01*
X16092249Y6663571D01*
X16075394Y6663700D01*
Y6683700D01*
X16095543Y6684059D01*
Y6663341D01*
D02*
G37*
G36*
X16945541D02*
X16945364Y6663295D01*
X16944797Y6663254D01*
X16938599Y6663139D01*
X16926125Y6663100D01*
X16925143Y6683100D01*
X16945541Y6684059D01*
Y6663341D01*
D02*
G37*
G36*
X17802602Y6678337D02*
X17802901Y6674886D01*
X17803401Y6671840D01*
X17804102Y6669200D01*
X17805000Y6666967D01*
X17806100Y6665139D01*
X17807401Y6663718D01*
X17808900Y6662703D01*
X17810600Y6662093D01*
X17812502Y6661890D01*
X17772501D01*
X17774400Y6662093D01*
X17776102Y6662703D01*
X17777602Y6663718D01*
X17778902Y6665139D01*
X17780000Y6666967D01*
X17780901Y6669200D01*
X17781601Y6671840D01*
X17782101Y6674886D01*
X17782401Y6678337D01*
X17782501Y6682195D01*
X17802501D01*
X17802602Y6678337D01*
D02*
G37*
G36*
X16883427Y6687207D02*
X16884201Y6686345D01*
X16885149Y6685584D01*
X16886267Y6684925D01*
X16887558Y6684367D01*
X16889021Y6683911D01*
X16890656Y6683556D01*
X16892464Y6683303D01*
X16894444Y6683151D01*
X16896596Y6683100D01*
X16889000Y6663100D01*
X16886783Y6663083D01*
X16878230Y6662510D01*
X16877026Y6662296D01*
X16875990Y6662050D01*
X16875124Y6661772D01*
X16874425Y6661460D01*
X16882825Y6688170D01*
X16883427Y6687207D01*
D02*
G37*
G36*
X16347501Y6673700D02*
X16327499Y6643700D01*
X16327299Y6647500D01*
X16326700Y6650900D01*
X16325700Y6653900D01*
X16324300Y6656500D01*
X16322501Y6658700D01*
X16320300Y6660500D01*
X16317700Y6661900D01*
X16314700Y6662900D01*
X16311301Y6663500D01*
X16307500Y6663700D01*
Y6683700D01*
X16311301Y6683900D01*
X16314700Y6684500D01*
X16317700Y6685500D01*
X16320300Y6686900D01*
X16322501Y6688700D01*
X16324300Y6690900D01*
X16325700Y6693500D01*
X16326700Y6696500D01*
X16327299Y6699900D01*
X16327499Y6703700D01*
X16347501Y6673700D01*
D02*
G37*
G36*
X16815199Y6649900D02*
X16815800Y6646500D01*
X16816800Y6643500D01*
X16818201Y6640900D01*
X16820000Y6638700D01*
X16822200Y6636900D01*
X16824800Y6635500D01*
X16827800Y6634500D01*
X16831200Y6633900D01*
X16835001Y6633700D01*
X16805000Y6613700D01*
X16775000Y6633700D01*
X16778799Y6633900D01*
X16782201Y6634500D01*
X16785201Y6635500D01*
X16787801Y6636900D01*
X16789999Y6638700D01*
X16791800Y6640900D01*
X16793201Y6643500D01*
X16794200Y6646500D01*
X16794800Y6649900D01*
X16795000Y6653700D01*
X16814999D01*
X16815199Y6649900D01*
D02*
G37*
G36*
X17042496Y6633972D02*
X17043127Y6633894D01*
X17044156Y6633825D01*
X17062450Y6633600D01*
X17062366Y6613600D01*
X17042259Y6613341D01*
Y6634059D01*
X17042496Y6633972D01*
D02*
G37*
G36*
X16945541Y6613341D02*
X16945312Y6613409D01*
X16944688Y6613471D01*
X16942247Y6613571D01*
X16925394Y6613700D01*
Y6633700D01*
X16945541Y6634059D01*
Y6613341D01*
D02*
G37*
G36*
X16192535Y6633877D02*
X16193204Y6633714D01*
X16194263Y6633570D01*
X16197559Y6633340D01*
X16212659Y6633100D01*
X16211678Y6613100D01*
X16192261Y6613341D01*
Y6634059D01*
X16192535Y6633877D01*
D02*
G37*
G36*
X16257803Y6608935D02*
X16256963Y6609726D01*
X16255975Y6610434D01*
X16254843Y6611059D01*
X16253564Y6611601D01*
X16252142Y6612059D01*
X16250574Y6612434D01*
X16248860Y6612725D01*
X16247002Y6612933D01*
X16242847Y6613100D01*
X16243539Y6633100D01*
X16245694Y6633138D01*
X16249573Y6633444D01*
X16251297Y6633712D01*
X16252879Y6634056D01*
X16254318Y6634476D01*
X16255614Y6634973D01*
X16256767Y6635546D01*
X16257776Y6636196D01*
X16258644Y6636922D01*
X16257803Y6608935D01*
D02*
G37*
G36*
X17253101Y6617907D02*
X17251401Y6617297D01*
X17249899Y6616282D01*
X17248601Y6614861D01*
X17247501Y6613034D01*
X17246600Y6610800D01*
X17245900Y6608160D01*
X17245401Y6605115D01*
X17245100Y6601663D01*
X17245001Y6597805D01*
X17225002D01*
X17224901Y6601663D01*
X17224602Y6605115D01*
X17224101Y6608160D01*
X17223401Y6610800D01*
X17222501Y6613034D01*
X17221400Y6614861D01*
X17220100Y6616282D01*
X17218600Y6617297D01*
X17216901Y6617907D01*
X17215001Y6618110D01*
X17255000D01*
X17253101Y6617907D01*
D02*
G37*
G36*
X17072804Y6558935D02*
X17071962Y6559726D01*
X17070975Y6560434D01*
X17069843Y6561059D01*
X17068565Y6561601D01*
X17067142Y6562059D01*
X17065575Y6562434D01*
X17063860Y6562725D01*
X17062001Y6562934D01*
X17057848Y6563100D01*
X17057848Y6563148D01*
X17042259Y6563341D01*
Y6584059D01*
X17042535Y6583877D01*
X17043202Y6583714D01*
X17044263Y6583570D01*
X17047557Y6583340D01*
X17060487Y6583135D01*
X17060693Y6583138D01*
X17064572Y6583444D01*
X17066296Y6583712D01*
X17067879Y6584056D01*
X17069318Y6584476D01*
X17070615Y6584973D01*
X17071767Y6585546D01*
X17072777Y6586196D01*
X17073643Y6586922D01*
X17072804Y6558935D01*
D02*
G37*
G36*
X17804771Y6582677D02*
X17804295Y6582293D01*
X17803876Y6581653D01*
X17803510Y6580756D01*
X17803201Y6579604D01*
X17802950Y6578195D01*
X17802753Y6576531D01*
X17802528Y6572433D01*
X17802501Y6570001D01*
X17782501D01*
X17782474Y6572433D01*
X17782053Y6578195D01*
X17781799Y6579604D01*
X17781491Y6580756D01*
X17781126Y6581653D01*
X17780705Y6582293D01*
X17780229Y6582677D01*
X17779697Y6582805D01*
X17805305D01*
X17804771Y6582677D01*
D02*
G37*
G36*
X16095543Y6563341D02*
X16095316Y6563410D01*
X16094688Y6563471D01*
X16092249Y6563571D01*
X16075394Y6563700D01*
Y6583700D01*
X16095543Y6584059D01*
Y6563341D01*
D02*
G37*
G36*
X15412639Y6575740D02*
X15413638Y6575060D01*
X15414783Y6574460D01*
X15416071Y6573940D01*
X15417503Y6573500D01*
X15419078Y6573140D01*
X15420798Y6572860D01*
X15422662Y6572660D01*
X15426820Y6572500D01*
Y6552500D01*
X15424669Y6552460D01*
X15420798Y6552140D01*
X15419078Y6551860D01*
X15417503Y6551500D01*
X15416071Y6551060D01*
X15414783Y6550540D01*
X15413638Y6549940D01*
X15412639Y6549260D01*
X15411783Y6548500D01*
Y6576500D01*
X15412639Y6575740D01*
D02*
G37*
G36*
X15979594Y6583100D02*
X15980203Y6581400D01*
X15981218Y6579900D01*
X15982639Y6578600D01*
X15984467Y6577500D01*
X15986700Y6576600D01*
X15989340Y6575900D01*
X15992386Y6575400D01*
X15995837Y6575100D01*
X15999695Y6575000D01*
Y6555000D01*
X15995837Y6554900D01*
X15992386Y6554600D01*
X15989340Y6554100D01*
X15986700Y6553400D01*
X15984467Y6552500D01*
X15982639Y6551400D01*
X15981218Y6550100D01*
X15980203Y6548600D01*
X15979594Y6546900D01*
X15979391Y6545000D01*
Y6585000D01*
X15979594Y6583100D01*
D02*
G37*
G36*
X15750610Y6545000D02*
X15750407Y6546900D01*
X15749799Y6548600D01*
X15748782Y6550100D01*
X15747362Y6551400D01*
X15745534Y6552500D01*
X15743300Y6553400D01*
X15740662Y6554100D01*
X15737614Y6554600D01*
X15734163Y6554900D01*
X15730305Y6555000D01*
Y6575000D01*
X15734163Y6575100D01*
X15737614Y6575400D01*
X15740662Y6575900D01*
X15743300Y6576600D01*
X15745534Y6577500D01*
X15747362Y6578600D01*
X15748782Y6579900D01*
X15749799Y6581400D01*
X15750407Y6583100D01*
X15750610Y6585000D01*
Y6545000D01*
D02*
G37*
G36*
X15689594Y6583100D02*
X15690202Y6581400D01*
X15691219Y6579900D01*
X15692639Y6578600D01*
X15694467Y6577500D01*
X15696700Y6576600D01*
X15699339Y6575900D01*
X15702386Y6575400D01*
X15705838Y6575100D01*
X15709695Y6575000D01*
Y6555000D01*
X15705838Y6554900D01*
X15702386Y6554600D01*
X15699339Y6554100D01*
X15696700Y6553400D01*
X15694467Y6552500D01*
X15692639Y6551400D01*
X15691219Y6550100D01*
X15690202Y6548600D01*
X15689594Y6546900D01*
X15689391Y6545000D01*
Y6585000D01*
X15689594Y6583100D01*
D02*
G37*
G36*
X15460609Y6542500D02*
X15460406Y6544400D01*
X15459798Y6546100D01*
X15458783Y6547600D01*
X15457362Y6548900D01*
X15455534Y6550000D01*
X15453300Y6550900D01*
X15450661Y6551600D01*
X15447615Y6552100D01*
X15444164Y6552400D01*
X15440305Y6552500D01*
Y6572500D01*
X15444164Y6572600D01*
X15447615Y6572900D01*
X15450661Y6573400D01*
X15453300Y6574100D01*
X15455534Y6575000D01*
X15457362Y6576100D01*
X15458783Y6577400D01*
X15459798Y6578900D01*
X15460406Y6580600D01*
X15460609Y6582500D01*
Y6542500D01*
D02*
G37*
G36*
X16192490Y6533991D02*
X16193114Y6533930D01*
X16195557Y6533830D01*
X16212408Y6533700D01*
Y6513700D01*
X16192261Y6513342D01*
Y6534059D01*
X16192490Y6533991D01*
D02*
G37*
G36*
X16095543Y6513342D02*
X16095316Y6513410D01*
X16094688Y6513471D01*
X16092249Y6513571D01*
X16075394Y6513700D01*
Y6533700D01*
X16095543Y6534059D01*
Y6513342D01*
D02*
G37*
G36*
X17072804Y6458935D02*
X17071962Y6459726D01*
X17070975Y6460434D01*
X17069843Y6461059D01*
X17068565Y6461600D01*
X17067142Y6462059D01*
X17065575Y6462434D01*
X17063860Y6462725D01*
X17062001Y6462933D01*
X17057848Y6463100D01*
X17057848Y6463148D01*
X17042259Y6463342D01*
Y6484059D01*
X17042535Y6483877D01*
X17043202Y6483714D01*
X17044263Y6483570D01*
X17047557Y6483340D01*
X17060487Y6483135D01*
X17060693Y6483138D01*
X17064572Y6483444D01*
X17066296Y6483712D01*
X17067879Y6484056D01*
X17069318Y6484476D01*
X17070615Y6484973D01*
X17071767Y6485546D01*
X17072777Y6486196D01*
X17073643Y6486922D01*
X17072804Y6458935D01*
D02*
G37*
G36*
X16608601Y6435338D02*
X16607812Y6434495D01*
X16607108Y6433507D01*
X16606485Y6432373D01*
X16605945Y6431095D01*
X16605489Y6429671D01*
X16605115Y6428102D01*
X16604823Y6426388D01*
X16604617Y6424528D01*
X16604449Y6420374D01*
X16584450Y6421009D01*
X16584412Y6423162D01*
X16584105Y6427040D01*
X16583836Y6428764D01*
X16583492Y6430346D01*
X16583069Y6431784D01*
X16582570Y6433079D01*
X16581995Y6434232D01*
X16581342Y6435241D01*
X16580614Y6436107D01*
X16608601Y6435338D01*
D02*
G37*
G36*
X16460158Y6434516D02*
X16459311Y6433712D01*
X16458554Y6432759D01*
X16457886Y6431657D01*
X16457304Y6430405D01*
X16456815Y6429004D01*
X16456413Y6427454D01*
X16456102Y6425754D01*
X16455879Y6423905D01*
X16455745Y6421907D01*
X16455701Y6419759D01*
X16435701Y6421852D01*
X16435666Y6424012D01*
X16435393Y6427904D01*
X16435152Y6429636D01*
X16434843Y6431225D01*
X16434467Y6432672D01*
X16434019Y6433977D01*
X16433505Y6435139D01*
X16432922Y6436158D01*
X16432272Y6437035D01*
X16460158Y6434516D01*
D02*
G37*
G36*
X16358603Y6432838D02*
X16357814Y6431995D01*
X16357108Y6431007D01*
X16356485Y6429873D01*
X16355945Y6428595D01*
X16355489Y6427171D01*
X16355115Y6425602D01*
X16354823Y6423888D01*
X16354617Y6422028D01*
X16354451Y6417874D01*
X16334451Y6418509D01*
X16334412Y6420662D01*
X16334105Y6424540D01*
X16333836Y6426264D01*
X16333492Y6427845D01*
X16333069Y6429284D01*
X16332570Y6430579D01*
X16331995Y6431731D01*
X16331342Y6432741D01*
X16330614Y6433607D01*
X16358603Y6432838D01*
D02*
G37*
G36*
X15692639Y6433240D02*
X15693639Y6432560D01*
X15694783Y6431960D01*
X15696071Y6431440D01*
X15697504Y6431000D01*
X15699078Y6430640D01*
X15700798Y6430360D01*
X15702663Y6430160D01*
X15706821Y6430000D01*
Y6410000D01*
X15704669Y6409960D01*
X15700798Y6409640D01*
X15699078Y6409360D01*
X15697504Y6409000D01*
X15696071Y6408560D01*
X15694783Y6408040D01*
X15693639Y6407440D01*
X15692639Y6406760D01*
X15691783Y6406000D01*
Y6434000D01*
X15692639Y6433240D01*
D02*
G37*
G36*
X15979594Y6443100D02*
X15980203Y6441400D01*
X15981218Y6439900D01*
X15982639Y6438600D01*
X15984467Y6437500D01*
X15986700Y6436600D01*
X15989340Y6435900D01*
X15992386Y6435400D01*
X15995837Y6435100D01*
X15999695Y6435000D01*
Y6415000D01*
X15995837Y6414900D01*
X15992386Y6414600D01*
X15989340Y6414100D01*
X15986700Y6413400D01*
X15984467Y6412500D01*
X15982639Y6411400D01*
X15981218Y6410100D01*
X15980203Y6408600D01*
X15979594Y6406900D01*
X15979391Y6405000D01*
Y6445000D01*
X15979594Y6443100D01*
D02*
G37*
G36*
X15750610Y6400000D02*
X15750407Y6401900D01*
X15749799Y6403600D01*
X15748782Y6405100D01*
X15747362Y6406400D01*
X15745534Y6407500D01*
X15743300Y6408400D01*
X15740662Y6409100D01*
X15737614Y6409600D01*
X15734163Y6409900D01*
X15730305Y6410000D01*
Y6430000D01*
X15734163Y6430100D01*
X15737614Y6430400D01*
X15740662Y6430900D01*
X15743300Y6431600D01*
X15745534Y6432500D01*
X15747362Y6433600D01*
X15748782Y6434900D01*
X15749799Y6436400D01*
X15750407Y6438100D01*
X15750610Y6440000D01*
Y6400000D01*
D02*
G37*
G36*
X16704260Y6372059D02*
X16683542D01*
X16683611Y6372288D01*
X16683672Y6372913D01*
X16683772Y6375355D01*
X16683900Y6392208D01*
X16703902D01*
X16704260Y6372059D01*
D02*
G37*
G36*
X16604449Y6391599D02*
X16604260Y6372059D01*
X16583542D01*
X16583714Y6372331D01*
X16583868Y6372995D01*
X16584006Y6374051D01*
X16584222Y6377342D01*
X16584450Y6392436D01*
X16604449Y6391599D01*
D02*
G37*
G36*
X16504260Y6372059D02*
X16483542D01*
X16483611Y6372288D01*
X16483672Y6372913D01*
X16483772Y6375355D01*
X16483900Y6392208D01*
X16503902D01*
X16504260Y6372059D01*
D02*
G37*
G36*
X16404260D02*
X16383543D01*
X16383611Y6372288D01*
X16383672Y6372913D01*
X16383772Y6375355D01*
X16383900Y6392208D01*
X16403902D01*
X16404260Y6372059D01*
D02*
G37*
G36*
X16354451Y6391600D02*
X16354260Y6372059D01*
X16333543D01*
X16333714Y6372331D01*
X16333870Y6372995D01*
X16334006Y6374051D01*
X16334224Y6377342D01*
X16334451Y6392436D01*
X16354451Y6391600D01*
D02*
G37*
G36*
X16455701Y6388582D02*
X16456065Y6367700D01*
X16433542Y6372059D01*
X16433952Y6372429D01*
X16434319Y6373181D01*
X16434644Y6374315D01*
X16434924Y6375832D01*
X16435161Y6377730D01*
X16435506Y6382673D01*
X16435701Y6392953D01*
X16455701Y6388582D01*
D02*
G37*
G36*
X13230600Y6350407D02*
X13228900Y6349798D01*
X13227400Y6348782D01*
X13226100Y6347361D01*
X13225000Y6345534D01*
X13224100Y6343300D01*
X13223399Y6340660D01*
X13222900Y6337615D01*
X13222600Y6334163D01*
X13222501Y6330305D01*
X13202499D01*
X13202400Y6334163D01*
X13202100Y6337615D01*
X13201601Y6340660D01*
X13200900Y6343300D01*
X13200000Y6345534D01*
X13198900Y6347361D01*
X13197600Y6348782D01*
X13196100Y6349798D01*
X13194400Y6350407D01*
X13192500Y6350610D01*
X13232500D01*
X13230600Y6350407D01*
D02*
G37*
G36*
X16754192Y6275113D02*
X16754131Y6274488D01*
X16754030Y6272047D01*
X16753902Y6255193D01*
X16733900D01*
X16733542Y6275342D01*
X16754260D01*
X16754192Y6275113D01*
D02*
G37*
G36*
X16654192D02*
X16654131Y6274488D01*
X16654030Y6272047D01*
X16653902Y6255193D01*
X16633900D01*
X16633542Y6275342D01*
X16654260D01*
X16654192Y6275113D01*
D02*
G37*
G36*
X16504192D02*
X16504131Y6274488D01*
X16504030Y6272047D01*
X16503902Y6255193D01*
X16483900D01*
X16483542Y6275342D01*
X16504260D01*
X16504192Y6275113D01*
D02*
G37*
G36*
X16404192D02*
X16404131Y6274488D01*
X16404031Y6272047D01*
X16403902Y6255193D01*
X16383900D01*
X16383543Y6275342D01*
X16404260D01*
X16404192Y6275113D01*
D02*
G37*
G36*
X16806033Y6279425D02*
X16806006Y6278758D01*
X16805901Y6259304D01*
X16785901Y6254365D01*
X16785876Y6258174D01*
X16785052Y6271517D01*
X16784744Y6273044D01*
X16784390Y6274190D01*
X16783990Y6274956D01*
X16783542Y6275342D01*
X16806065Y6279701D01*
X16806033Y6279425D01*
D02*
G37*
G36*
X14594142Y6228209D02*
X14593526Y6227193D01*
X14592979Y6226033D01*
X14592508Y6224732D01*
X14592108Y6223288D01*
X14591782Y6221701D01*
X14591527Y6219972D01*
X14591237Y6216087D01*
X14591200Y6213931D01*
X14571201Y6212540D01*
X14571156Y6214689D01*
X14570811Y6218544D01*
X14570509Y6220251D01*
X14570120Y6221811D01*
X14569646Y6223224D01*
X14569086Y6224489D01*
X14568437Y6225608D01*
X14567703Y6226579D01*
X14566882Y6227403D01*
X14594832Y6229083D01*
X14594142Y6228209D01*
D02*
G37*
G36*
X16522600Y6185837D02*
X16522900Y6182385D01*
X16523399Y6179340D01*
X16524100Y6176700D01*
X16525000Y6174466D01*
X16526100Y6172639D01*
X16527400Y6171218D01*
X16528900Y6170203D01*
X16530600Y6169593D01*
X16532500Y6169390D01*
X16492500D01*
X16494400Y6169593D01*
X16496100Y6170203D01*
X16497600Y6171218D01*
X16498900Y6172639D01*
X16500002Y6174466D01*
X16500900Y6176700D01*
X16501601Y6179340D01*
X16502100Y6182385D01*
X16502400Y6185837D01*
X16502499Y6189695D01*
X16522501D01*
X16522600Y6185837D01*
D02*
G37*
G36*
X16382600D02*
X16382899Y6182385D01*
X16383400Y6179340D01*
X16384100Y6176700D01*
X16385001Y6174466D01*
X16386099Y6172639D01*
X16387399Y6171218D01*
X16388901Y6170203D01*
X16390601Y6169593D01*
X16392500Y6169390D01*
X16352499D01*
X16354401Y6169593D01*
X16356100Y6170203D01*
X16357600Y6171218D01*
X16358900Y6172639D01*
X16360001Y6174466D01*
X16360899Y6176700D01*
X16361600Y6179340D01*
X16362100Y6182385D01*
X16362399Y6185837D01*
X16362500Y6189695D01*
X16382500D01*
X16382600Y6185837D01*
D02*
G37*
G36*
X16942599Y6185837D02*
X16942900Y6182385D01*
X16943401Y6179339D01*
X16944099Y6176700D01*
X16945000Y6174466D01*
X16946100Y6172639D01*
X16947400Y6171218D01*
X16948900Y6170202D01*
X16950600Y6169593D01*
X16952499Y6169390D01*
X16912500D01*
X16914400Y6169593D01*
X16916100Y6170202D01*
X16917599Y6171218D01*
X16918900Y6172639D01*
X16920000Y6174466D01*
X16920900Y6176700D01*
X16921600Y6179339D01*
X16922099Y6182385D01*
X16922400Y6185837D01*
X16922501Y6189695D01*
X16942500D01*
X16942599Y6185837D01*
D02*
G37*
G36*
X16802600D02*
X16802901Y6182385D01*
X16803400Y6179339D01*
X16804100Y6176700D01*
X16805000Y6174466D01*
X16806100Y6172639D01*
X16807401Y6171218D01*
X16808900Y6170202D01*
X16810600Y6169593D01*
X16812500Y6169390D01*
X16772501D01*
X16774400Y6169593D01*
X16776100Y6170202D01*
X16777600Y6171218D01*
X16778900Y6172639D01*
X16780000Y6174466D01*
X16780901Y6176700D01*
X16781599Y6179339D01*
X16782100Y6182385D01*
X16782401Y6185837D01*
X16782500Y6189695D01*
X16802499D01*
X16802600Y6185837D01*
D02*
G37*
G36*
X16654001D02*
X16654301Y6182385D01*
X16654800Y6179339D01*
X16655501Y6176700D01*
X16656401Y6174466D01*
X16657501Y6172639D01*
X16658801Y6171218D01*
X16660301Y6170202D01*
X16662001Y6169593D01*
X16663901Y6169390D01*
X16623901D01*
X16625801Y6169593D01*
X16627501Y6170202D01*
X16629001Y6171218D01*
X16630301Y6172639D01*
X16631401Y6174466D01*
X16632301Y6176700D01*
X16633002Y6179339D01*
X16633501Y6182385D01*
X16633801Y6185837D01*
X16633900Y6189695D01*
X16653902D01*
X16654001Y6185837D01*
D02*
G37*
G36*
X14446465Y6170683D02*
X14445702Y6169828D01*
X14445020Y6168829D01*
X14444418Y6167686D01*
X14443896Y6166398D01*
X14443454Y6164967D01*
X14443092Y6163392D01*
X14442812Y6161673D01*
X14442612Y6159810D01*
X14442451Y6155651D01*
X14422450Y6155708D01*
X14422411Y6157860D01*
X14422092Y6161731D01*
X14421812Y6163451D01*
X14421454Y6165028D01*
X14421016Y6166460D01*
X14420499Y6167749D01*
X14419901Y6168894D01*
X14419221Y6169895D01*
X14418465Y6170752D01*
X14446465Y6170683D01*
D02*
G37*
G36*
X17167500Y6545000D02*
X17262500D01*
X17272501Y6535000D01*
Y6335000D01*
X17297501Y6310000D01*
X17372501Y6310000D01*
X17420000Y6262500D01*
X17180000Y6025000D01*
X17125000Y6080000D01*
Y6557500D01*
X17139999Y6572500D01*
X17167500Y6545000D01*
D02*
G37*
G36*
X14942490Y6007198D02*
X14942812Y6003327D01*
X14943092Y6001608D01*
X14943454Y6000033D01*
X14943895Y5998602D01*
X14944417Y5997315D01*
X14945020Y5996172D01*
X14945702Y5995173D01*
X14946465Y5994318D01*
X14918465Y5994248D01*
X14919221Y5995105D01*
X14919899Y5996106D01*
X14920497Y5997251D01*
X14921014Y5998539D01*
X14921454Y5999972D01*
X14921812Y6001548D01*
X14922092Y6003268D01*
X14922292Y6005132D01*
X14922450Y6009292D01*
X14942450Y6009349D01*
X14942490Y6007198D01*
D02*
G37*
G36*
X15515717Y5923500D02*
X15514861Y5924260D01*
X15513861Y5924940D01*
X15512717Y5925540D01*
X15511429Y5926060D01*
X15509998Y5926500D01*
X15508421Y5926860D01*
X15506702Y5927140D01*
X15504839Y5927340D01*
X15500679Y5927500D01*
Y5947500D01*
X15502831Y5947540D01*
X15506702Y5947860D01*
X15508421Y5948140D01*
X15509998Y5948500D01*
X15511429Y5948940D01*
X15512717Y5949460D01*
X15513861Y5950060D01*
X15514861Y5950740D01*
X15515717Y5951500D01*
Y5923500D01*
D02*
G37*
G36*
X16528101Y5940407D02*
X16526401Y5939797D01*
X16524899Y5938782D01*
X16523599Y5937361D01*
X16522501Y5935533D01*
X16521600Y5933300D01*
X16520900Y5930660D01*
X16520399Y5927615D01*
X16520100Y5924163D01*
X16520000Y5920305D01*
X16500000D01*
X16499899Y5924163D01*
X16499600Y5927615D01*
X16499100Y5930660D01*
X16498399Y5933300D01*
X16497501Y5935533D01*
X16496400Y5937361D01*
X16495100Y5938782D01*
X16493600Y5939797D01*
X16491901Y5940407D01*
X16489999Y5940610D01*
X16530000D01*
X16528101Y5940407D01*
D02*
G37*
G36*
X16950600Y5940406D02*
X16948900Y5939797D01*
X16947400Y5938782D01*
X16946100Y5937361D01*
X16945000Y5935533D01*
X16944099Y5933300D01*
X16943401Y5930660D01*
X16942900Y5927614D01*
X16942599Y5924163D01*
X16942500Y5920305D01*
X16922501D01*
X16922400Y5924163D01*
X16922099Y5927614D01*
X16921600Y5930660D01*
X16920900Y5933300D01*
X16920000Y5935533D01*
X16918900Y5937361D01*
X16917599Y5938782D01*
X16916100Y5939797D01*
X16914400Y5940406D01*
X16912500Y5940609D01*
X16952499D01*
X16950600Y5940406D01*
D02*
G37*
G36*
X16808099D02*
X16806400Y5939797D01*
X16804900Y5938782D01*
X16803600Y5937361D01*
X16802499Y5935533D01*
X16801601Y5933300D01*
X16800900Y5930660D01*
X16800400Y5927614D01*
X16800101Y5924163D01*
X16800000Y5920305D01*
X16780000D01*
X16779900Y5924163D01*
X16779601Y5927614D01*
X16779100Y5930660D01*
X16778400Y5933300D01*
X16777499Y5935533D01*
X16776401Y5937361D01*
X16775101Y5938782D01*
X16773599Y5939797D01*
X16771899Y5940406D01*
X16770000Y5940609D01*
X16810001D01*
X16808099Y5940406D01*
D02*
G37*
G36*
X16670599D02*
X16668900Y5939797D01*
X16667400Y5938782D01*
X16666100Y5937361D01*
X16664999Y5935533D01*
X16664101Y5933300D01*
X16663400Y5930660D01*
X16662900Y5927614D01*
X16662601Y5924163D01*
X16662500Y5920305D01*
X16642500D01*
X16642400Y5924163D01*
X16642101Y5927614D01*
X16641600Y5930660D01*
X16640900Y5933300D01*
X16639999Y5935533D01*
X16638901Y5937361D01*
X16637601Y5938782D01*
X16636099Y5939797D01*
X16634399Y5940406D01*
X16632500Y5940609D01*
X16672501D01*
X16670599Y5940406D01*
D02*
G37*
G36*
X15464893Y5955600D02*
X15465503Y5953900D01*
X15466518Y5952400D01*
X15467940Y5951100D01*
X15469768Y5950000D01*
X15472000Y5949100D01*
X15474640Y5948400D01*
X15477686Y5947900D01*
X15481137Y5947600D01*
X15484995Y5947500D01*
Y5927500D01*
X15481137Y5927400D01*
X15477686Y5927100D01*
X15474640Y5926600D01*
X15472000Y5925900D01*
X15469768Y5925000D01*
X15467940Y5923900D01*
X15466518Y5922600D01*
X15465503Y5921100D01*
X15464893Y5919400D01*
X15464690Y5917500D01*
Y5957500D01*
X15464893Y5955600D01*
D02*
G37*
G36*
X15235910Y5911099D02*
X15235707Y5912999D01*
X15235098Y5914699D01*
X15234082Y5916199D01*
X15232661Y5917499D01*
X15230833Y5918599D01*
X15228600Y5919499D01*
X15225960Y5920199D01*
X15222916Y5920699D01*
X15219463Y5920999D01*
X15215605Y5921099D01*
Y5941099D01*
X15219463Y5941199D01*
X15222916Y5941499D01*
X15225960Y5941999D01*
X15228600Y5942699D01*
X15230833Y5943599D01*
X15232661Y5944699D01*
X15234082Y5945999D01*
X15235098Y5947499D01*
X15235707Y5949199D01*
X15235910Y5951099D01*
Y5911099D01*
D02*
G37*
G36*
X16662540Y5909669D02*
X16662860Y5905798D01*
X16663139Y5904078D01*
X16663499Y5902503D01*
X16663940Y5901071D01*
X16664461Y5899783D01*
X16665060Y5898639D01*
X16665739Y5897639D01*
X16666499Y5896783D01*
X16638499D01*
X16639259Y5897639D01*
X16639940Y5898639D01*
X16640540Y5899783D01*
X16641060Y5901071D01*
X16641499Y5902503D01*
X16641859Y5904078D01*
X16642140Y5905798D01*
X16642340Y5907662D01*
X16642500Y5911821D01*
X16662500D01*
X16662540Y5909669D01*
D02*
G37*
G36*
X16942540Y5904669D02*
X16942860Y5900798D01*
X16943140Y5899078D01*
X16943500Y5897503D01*
X16943941Y5896071D01*
X16944460Y5894783D01*
X16945061Y5893639D01*
X16945740Y5892639D01*
X16946500Y5891783D01*
X16918500D01*
X16919260Y5892639D01*
X16919940Y5893639D01*
X16920540Y5894783D01*
X16921060Y5896071D01*
X16921500Y5897503D01*
X16921860Y5899078D01*
X16922141Y5900798D01*
X16922340Y5902662D01*
X16922501Y5906821D01*
X16942500D01*
X16942540Y5904669D01*
D02*
G37*
G36*
X16520039D02*
X16520360Y5900798D01*
X16520641Y5899078D01*
X16521001Y5897503D01*
X16521440Y5896071D01*
X16521960Y5894783D01*
X16522560Y5893639D01*
X16523241Y5892639D01*
X16524001Y5891783D01*
X16496001D01*
X16496761Y5892639D01*
X16497440Y5893639D01*
X16498039Y5894783D01*
X16498560Y5896071D01*
X16499001Y5897503D01*
X16499361Y5899078D01*
X16499640Y5900798D01*
X16499840Y5902662D01*
X16500000Y5906821D01*
X16520000D01*
X16520039Y5904669D01*
D02*
G37*
G36*
X16800040Y5902169D02*
X16800360Y5898298D01*
X16800639Y5896578D01*
X16800999Y5895002D01*
X16801440Y5893571D01*
X16801961Y5892283D01*
X16802560Y5891139D01*
X16803239Y5890139D01*
X16803999Y5889283D01*
X16775999D01*
X16776759Y5890139D01*
X16777440Y5891139D01*
X16778040Y5892283D01*
X16778560Y5893571D01*
X16778999Y5895002D01*
X16779359Y5896578D01*
X16779640Y5898298D01*
X16779840Y5900161D01*
X16780000Y5904320D01*
X16800000D01*
X16800040Y5902169D01*
D02*
G37*
G36*
X14952258Y5893658D02*
X14953268Y5893005D01*
X14954420Y5892430D01*
X14955716Y5891931D01*
X14957153Y5891509D01*
X14958736Y5891163D01*
X14960460Y5890895D01*
X14964339Y5890588D01*
X14966492Y5890550D01*
X14967126Y5870550D01*
X14964977Y5870508D01*
X14961111Y5870176D01*
X14959398Y5869885D01*
X14957829Y5869512D01*
X14956406Y5869055D01*
X14955127Y5868515D01*
X14953993Y5867893D01*
X14953004Y5867187D01*
X14952162Y5866398D01*
X14951393Y5894387D01*
X14952258Y5893658D01*
D02*
G37*
G36*
X15984686Y5852500D02*
X15980887Y5852300D01*
X15977487Y5851700D01*
X15974487Y5850700D01*
X15971887Y5849300D01*
X15969687Y5847500D01*
X15967886Y5845300D01*
X15966487Y5842700D01*
X15965488Y5839700D01*
X15964886Y5836300D01*
X15964687Y5832500D01*
X15944687D01*
X15944489Y5836300D01*
X15943887Y5839700D01*
X15942886Y5842700D01*
X15941489Y5845300D01*
X15939687Y5847500D01*
X15937488Y5849300D01*
X15934888Y5850700D01*
X15931886Y5851700D01*
X15928488Y5852300D01*
X15924687Y5852500D01*
X15954688Y5872500D01*
X15984686Y5852500D01*
D02*
G37*
G36*
X14152499Y5944999D02*
X14152499Y5807500D01*
X14148749Y5803750D01*
X14125000Y5827500D01*
X13970000D01*
X13947501Y5805000D01*
Y5670000D01*
X13827499D01*
Y5832500D01*
X13852499Y5857500D01*
X13950000D01*
X13957500Y5864999D01*
X13957500Y5945000D01*
X13964999Y5952500D01*
X14145000D01*
X14152499Y5944999D01*
D02*
G37*
G36*
X15825740Y5792361D02*
X15825060Y5791361D01*
X15824460Y5790217D01*
X15823940Y5788929D01*
X15823500Y5787497D01*
X15823140Y5785922D01*
X15822861Y5784202D01*
X15822659Y5782338D01*
X15822501Y5778179D01*
X15802499D01*
X15802460Y5780331D01*
X15802139Y5784202D01*
X15801860Y5785922D01*
X15801500Y5787497D01*
X15801060Y5788929D01*
X15800540Y5790217D01*
X15799940Y5791361D01*
X15799260Y5792361D01*
X15798500Y5793217D01*
X15826500D01*
X15825740Y5792361D01*
D02*
G37*
G36*
X16253239Y5791961D02*
X16252560Y5790961D01*
X16251961Y5789817D01*
X16251440Y5788529D01*
X16250999Y5787098D01*
X16250639Y5785522D01*
X16250360Y5783802D01*
X16250160Y5781939D01*
X16250000Y5777780D01*
X16230000D01*
X16229961Y5779931D01*
X16229640Y5783802D01*
X16229359Y5785522D01*
X16228999Y5787098D01*
X16228560Y5788529D01*
X16228040Y5789817D01*
X16227440Y5790961D01*
X16226759Y5791961D01*
X16225999Y5792817D01*
X16253999D01*
X16253239Y5791961D01*
D02*
G37*
G36*
X16385100Y5760837D02*
X16385400Y5757385D01*
X16385899Y5754340D01*
X16386600Y5751700D01*
X16387500Y5749467D01*
X16388600Y5747639D01*
X16389900Y5746218D01*
X16391400Y5745203D01*
X16393100Y5744593D01*
X16395000Y5744390D01*
X16355000D01*
X16356900Y5744593D01*
X16358600Y5745203D01*
X16360100Y5746218D01*
X16361400Y5747639D01*
X16362500Y5749467D01*
X16363400Y5751700D01*
X16364101Y5754340D01*
X16364600Y5757385D01*
X16364900Y5760837D01*
X16364999Y5764695D01*
X16385001D01*
X16385100Y5760837D01*
D02*
G37*
G36*
X16250101D02*
X16250400Y5757385D01*
X16250900Y5754340D01*
X16251601Y5751700D01*
X16252499Y5749467D01*
X16253600Y5747639D01*
X16254900Y5746218D01*
X16256400Y5745203D01*
X16258099Y5744593D01*
X16260001Y5744390D01*
X16220000D01*
X16221899Y5744593D01*
X16223599Y5745203D01*
X16225101Y5746218D01*
X16226401Y5747639D01*
X16227499Y5749467D01*
X16228400Y5751700D01*
X16229100Y5754340D01*
X16229601Y5757385D01*
X16229900Y5760837D01*
X16230000Y5764695D01*
X16250000D01*
X16250101Y5760837D01*
D02*
G37*
G36*
X15822600D02*
X15822900Y5757385D01*
X15823399Y5754340D01*
X15824100Y5751700D01*
X15825000Y5749467D01*
X15826100Y5747639D01*
X15827400Y5746218D01*
X15828900Y5745203D01*
X15830600Y5744593D01*
X15832500Y5744390D01*
X15792500D01*
X15794400Y5744593D01*
X15796100Y5745203D01*
X15797600Y5746218D01*
X15798900Y5747639D01*
X15800000Y5749467D01*
X15800900Y5751700D01*
X15801601Y5754340D01*
X15802100Y5757385D01*
X15802400Y5760837D01*
X15802499Y5764695D01*
X15822501D01*
X15822600Y5760837D01*
D02*
G37*
G36*
X16105099Y5760837D02*
X16105400Y5757385D01*
X16105901Y5754339D01*
X16106599Y5751699D01*
X16107500Y5749466D01*
X16108600Y5747638D01*
X16109900Y5746217D01*
X16111400Y5745202D01*
X16113100Y5744593D01*
X16114999Y5744390D01*
X16075000D01*
X16076900Y5744593D01*
X16078600Y5745202D01*
X16080099Y5746217D01*
X16081400Y5747638D01*
X16082500Y5749466D01*
X16083400Y5751699D01*
X16084100Y5754339D01*
X16084599Y5757385D01*
X16084900Y5760837D01*
X16085001Y5764695D01*
X16105000D01*
X16105099Y5760837D01*
D02*
G37*
G36*
X15964787D02*
X15965086Y5757385D01*
X15965587Y5754339D01*
X15966287Y5751699D01*
X15967188Y5749466D01*
X15968288Y5747638D01*
X15969588Y5746217D01*
X15971088Y5745202D01*
X15972787Y5744593D01*
X15974687Y5744390D01*
X15934686D01*
X15936588Y5744593D01*
X15938287Y5745202D01*
X15939787Y5746217D01*
X15941087Y5747638D01*
X15942188Y5749466D01*
X15943086Y5751699D01*
X15943788Y5754339D01*
X15944287Y5757385D01*
X15944588Y5760837D01*
X15944687Y5764695D01*
X15964687D01*
X15964787Y5760837D01*
D02*
G37*
G36*
X15562717Y5692500D02*
X15561996Y5694400D01*
X15560950Y5696100D01*
X15559570Y5697600D01*
X15557860Y5698900D01*
X15555821Y5700000D01*
X15553452Y5700900D01*
X15550751Y5701600D01*
X15547720Y5702100D01*
X15544360Y5702400D01*
X15540669Y5702500D01*
Y5722500D01*
X15544360Y5722600D01*
X15547720Y5722900D01*
X15550751Y5723400D01*
X15553452Y5724100D01*
X15555821Y5725000D01*
X15557860Y5726100D01*
X15559570Y5727400D01*
X15560950Y5728900D01*
X15561996Y5730600D01*
X15562717Y5732500D01*
Y5692500D01*
D02*
G37*
G36*
X17313240Y5714861D02*
X17312560Y5713861D01*
X17311960Y5712717D01*
X17311440Y5711429D01*
X17311000Y5709997D01*
X17310640Y5708422D01*
X17310361Y5706702D01*
X17310159Y5704838D01*
X17310023Y5701290D01*
X17310100Y5698337D01*
X17310400Y5694885D01*
X17310899Y5691840D01*
X17311600Y5689200D01*
X17312500Y5686967D01*
X17313600Y5685139D01*
X17314900Y5683718D01*
X17316400Y5682703D01*
X17318100Y5682093D01*
X17320000Y5681890D01*
X17280000D01*
X17281900Y5682093D01*
X17283600Y5682703D01*
X17285100Y5683718D01*
X17286400Y5685139D01*
X17287500Y5686967D01*
X17288400Y5689200D01*
X17289101Y5691840D01*
X17289600Y5694885D01*
X17289900Y5698337D01*
X17289983Y5701563D01*
X17289960Y5702831D01*
X17289639Y5706702D01*
X17289360Y5708422D01*
X17289000Y5709997D01*
X17288560Y5711429D01*
X17288040Y5712717D01*
X17287440Y5713861D01*
X17286760Y5714861D01*
X17286000Y5715717D01*
X17314000D01*
X17313240Y5714861D01*
D02*
G37*
G36*
X16533099Y5662907D02*
X16531400Y5662297D01*
X16529900Y5661282D01*
X16528600Y5659861D01*
X16527499Y5658033D01*
X16526601Y5655800D01*
X16525900Y5653160D01*
X16525523Y5650867D01*
X16525800Y5649300D01*
X16526801Y5646300D01*
X16528200Y5643699D01*
X16530000Y5641500D01*
X16532201Y5639699D01*
X16534801Y5638299D01*
X16537801Y5637299D01*
X16541200Y5636699D01*
X16545000Y5636500D01*
X16514999Y5626500D01*
X16485001Y5636500D01*
X16488800Y5636699D01*
X16492200Y5637300D01*
X16495200Y5638300D01*
X16497800Y5639699D01*
X16500000Y5641500D01*
X16501801Y5643699D01*
X16503200Y5646300D01*
X16504201Y5649300D01*
X16504477Y5650867D01*
X16504100Y5653160D01*
X16503400Y5655800D01*
X16502499Y5658033D01*
X16501401Y5659861D01*
X16500101Y5661282D01*
X16498599Y5662297D01*
X16496899Y5662907D01*
X16495000Y5663110D01*
X16535001D01*
X16533099Y5662907D01*
D02*
G37*
G36*
X16247600Y5610837D02*
X16247900Y5607386D01*
X16248399Y5604340D01*
X16249100Y5601700D01*
X16250000Y5599467D01*
X16251100Y5597639D01*
X16252400Y5596218D01*
X16253900Y5595203D01*
X16255600Y5594593D01*
X16257500Y5594390D01*
X16217500D01*
X16219400Y5594593D01*
X16221100Y5595203D01*
X16222600Y5596218D01*
X16223900Y5597639D01*
X16225000Y5599467D01*
X16225900Y5601700D01*
X16226601Y5604340D01*
X16227100Y5607386D01*
X16227400Y5610837D01*
X16227499Y5614695D01*
X16247501D01*
X16247600Y5610837D01*
D02*
G37*
G36*
X15912805Y5535000D02*
X15912605Y5536900D01*
X15912006Y5538600D01*
X15911005Y5540100D01*
X15909605Y5541400D01*
X15907805Y5542500D01*
X15905605Y5543400D01*
X15903004Y5544100D01*
X15900005Y5544600D01*
X15896605Y5544900D01*
X15892805Y5545000D01*
Y5565000D01*
X15896605Y5565100D01*
X15900005Y5565400D01*
X15903004Y5565900D01*
X15905605Y5566600D01*
X15907805Y5567500D01*
X15909605Y5568600D01*
X15911005Y5569900D01*
X15912006Y5571400D01*
X15912605Y5573100D01*
X15912805Y5575000D01*
Y5535000D01*
D02*
G37*
G36*
X15852396Y5573100D02*
X15852995Y5571400D01*
X15853995Y5569900D01*
X15855396Y5568600D01*
X15857195Y5567500D01*
X15859395Y5566600D01*
X15861995Y5565900D01*
X15864995Y5565400D01*
X15868394Y5565100D01*
X15872195Y5565000D01*
Y5545000D01*
X15868394Y5544900D01*
X15864995Y5544600D01*
X15861995Y5544100D01*
X15859395Y5543400D01*
X15857195Y5542500D01*
X15855396Y5541400D01*
X15853995Y5540100D01*
X15852995Y5538600D01*
X15852396Y5536900D01*
X15852196Y5535000D01*
Y5575000D01*
X15852396Y5573100D01*
D02*
G37*
G36*
X16253101Y5515407D02*
X16251401Y5514797D01*
X16249899Y5513782D01*
X16248599Y5512361D01*
X16247501Y5510534D01*
X16246600Y5508300D01*
X16245900Y5505660D01*
X16245399Y5502615D01*
X16245100Y5499163D01*
X16245000Y5495305D01*
X16225000D01*
X16224899Y5499163D01*
X16224600Y5502615D01*
X16224100Y5505660D01*
X16223399Y5508300D01*
X16222501Y5510534D01*
X16221400Y5512361D01*
X16220100Y5513782D01*
X16218600Y5514797D01*
X16216901Y5515407D01*
X16214999Y5515610D01*
X16255000D01*
X16253101Y5515407D01*
D02*
G37*
G36*
X16010100Y5448437D02*
X16010397Y5444817D01*
X16010895Y5441623D01*
X16011591Y5438855D01*
X16012485Y5436513D01*
X16013579Y5434596D01*
X16014871Y5433106D01*
X16016362Y5432041D01*
X16018053Y5431402D01*
X16019942Y5431190D01*
X15980060D01*
X15981947Y5431402D01*
X15983638Y5432041D01*
X15985129Y5433106D01*
X15986423Y5434596D01*
X15987515Y5436513D01*
X15988409Y5438855D01*
X15989107Y5441623D01*
X15989603Y5444817D01*
X15989902Y5448437D01*
X15989999Y5452483D01*
X16010001D01*
X16010100Y5448437D01*
D02*
G37*
G36*
X16820740Y5399861D02*
X16820061Y5398861D01*
X16819460Y5397717D01*
X16818941Y5396429D01*
X16818500Y5394998D01*
X16818140Y5393422D01*
X16817860Y5391702D01*
X16817661Y5389839D01*
X16817523Y5386290D01*
X16817599Y5383337D01*
X16817900Y5379885D01*
X16818401Y5376840D01*
X16819099Y5374200D01*
X16820000Y5371966D01*
X16821100Y5370139D01*
X16822400Y5368718D01*
X16823900Y5367702D01*
X16825600Y5367093D01*
X16827499Y5366890D01*
X16787500D01*
X16789400Y5367093D01*
X16791100Y5367702D01*
X16792599Y5368718D01*
X16793900Y5370139D01*
X16795000Y5371966D01*
X16795900Y5374200D01*
X16796600Y5376840D01*
X16797099Y5379885D01*
X16797400Y5383337D01*
X16797484Y5386564D01*
X16797459Y5387831D01*
X16797141Y5391702D01*
X16796860Y5393422D01*
X16796500Y5394998D01*
X16796060Y5396429D01*
X16795540Y5397717D01*
X16794940Y5398861D01*
X16794260Y5399861D01*
X16793500Y5400717D01*
X16821500D01*
X16820740Y5399861D01*
D02*
G37*
G36*
X14546465Y5333183D02*
X14545702Y5332328D01*
X14545020Y5331328D01*
X14544417Y5330185D01*
X14543895Y5328898D01*
X14543454Y5327467D01*
X14543092Y5325892D01*
X14542812Y5324173D01*
X14542612Y5322310D01*
X14542450Y5318151D01*
X14522450Y5318208D01*
X14522411Y5320360D01*
X14522092Y5324232D01*
X14521812Y5325952D01*
X14521454Y5327528D01*
X14521016Y5328960D01*
X14520499Y5330249D01*
X14519901Y5331394D01*
X14519221Y5332395D01*
X14518465Y5333252D01*
X14546465Y5333183D01*
D02*
G37*
G36*
X14896429Y5330647D02*
X14895663Y5329794D01*
X14894978Y5328796D01*
X14894374Y5327653D01*
X14893851Y5326367D01*
X14893407Y5324937D01*
X14893045Y5323362D01*
X14892763Y5321643D01*
X14892561Y5319780D01*
X14892400Y5315622D01*
X14872400Y5315738D01*
X14872362Y5317889D01*
X14872043Y5321762D01*
X14871765Y5323482D01*
X14871407Y5325059D01*
X14870972Y5326492D01*
X14870454Y5327781D01*
X14869859Y5328927D01*
X14869183Y5329929D01*
X14868430Y5330787D01*
X14896429Y5330647D01*
D02*
G37*
G36*
X14448788Y5327035D02*
X14447823Y5326450D01*
X14446957Y5325691D01*
X14446194Y5324757D01*
X14445532Y5323649D01*
X14444974Y5322368D01*
X14444514Y5320912D01*
X14444159Y5319281D01*
X14443904Y5317477D01*
X14443752Y5315498D01*
X14443701Y5313345D01*
X14423701Y5321410D01*
X14423686Y5323633D01*
X14423164Y5332155D01*
X14422972Y5333339D01*
X14422749Y5334351D01*
X14422496Y5335189D01*
X14422214Y5335853D01*
X14448788Y5327035D01*
D02*
G37*
G36*
X14490291Y5149736D02*
X14490324Y5147574D01*
X14490590Y5143679D01*
X14490822Y5141946D01*
X14491119Y5140355D01*
X14491486Y5138907D01*
X14491917Y5137603D01*
X14492415Y5136441D01*
X14492979Y5135422D01*
X14493610Y5134545D01*
X14465765Y5137500D01*
X14466624Y5138292D01*
X14467395Y5139235D01*
X14468073Y5140328D01*
X14468661Y5141572D01*
X14469160Y5142966D01*
X14469566Y5144511D01*
X14469884Y5146207D01*
X14470110Y5148053D01*
X14470245Y5150050D01*
X14470291Y5152198D01*
X14490291Y5149736D01*
D02*
G37*
G36*
X14592490Y5144698D02*
X14592812Y5140827D01*
X14593092Y5139108D01*
X14593454Y5137533D01*
X14593895Y5136102D01*
X14594417Y5134815D01*
X14595020Y5133672D01*
X14595702Y5132672D01*
X14596465Y5131818D01*
X14568465Y5131748D01*
X14569221Y5132605D01*
X14569899Y5133606D01*
X14570497Y5134751D01*
X14571016Y5136040D01*
X14571454Y5137472D01*
X14571812Y5139048D01*
X14572092Y5140768D01*
X14572292Y5142633D01*
X14572450Y5146792D01*
X14592450Y5146849D01*
X14592490Y5144698D01*
D02*
G37*
G36*
X14330000Y4522500D02*
X14297501Y4490000D01*
X14085001Y4490000D01*
X13864999Y4490000D01*
X13847501Y4472500D01*
X13847501Y4327500D01*
X13837498Y4317500D01*
X13687500Y4317500D01*
X13677499Y4327500D01*
X13677499Y4367500D01*
X13662500Y4382500D01*
X12960001Y4382499D01*
X12959998Y4824997D01*
X13007500Y4872500D01*
X13480000D01*
X13617500Y5010000D01*
X13617500Y5097500D01*
X13637498Y5117500D01*
X14114999Y5117500D01*
X14122499Y5110000D01*
X14277499D01*
X14310001Y5142500D01*
Y5177500D01*
X14312500Y5180000D01*
X14330000D01*
X14330000Y4522500D01*
D02*
G37*
G36*
X14942500Y5090837D02*
X14942799Y5087386D01*
X14943300Y5084340D01*
X14944000Y5081700D01*
X14944901Y5079467D01*
X14946001Y5077639D01*
X14947301Y5076218D01*
X14948801Y5075203D01*
X14950500Y5074593D01*
X14952400Y5074390D01*
X14912399D01*
X14914301Y5074593D01*
X14916000Y5075203D01*
X14917500Y5076218D01*
X14918800Y5077639D01*
X14919901Y5079467D01*
X14920799Y5081700D01*
X14921500Y5084340D01*
X14922000Y5087386D01*
X14922301Y5090837D01*
X14922400Y5094695D01*
X14942400D01*
X14942500Y5090837D01*
D02*
G37*
G36*
X16540742Y5075475D02*
X16539175Y5075328D01*
X16537775Y5074796D01*
X16536539Y5073880D01*
X16535468Y5072580D01*
X16534561Y5070897D01*
X16533820Y5068829D01*
X16533241Y5066376D01*
X16532829Y5063540D01*
X16532582Y5060320D01*
X16532500Y5056716D01*
X16512500D01*
X16512419Y5060427D01*
X16511768Y5066691D01*
X16511198Y5069244D01*
X16510468Y5071411D01*
X16509573Y5073193D01*
X16508514Y5074588D01*
X16507297Y5075596D01*
X16505913Y5076219D01*
X16504369Y5076456D01*
X16540742Y5075475D01*
D02*
G37*
G36*
X17900000Y7672500D02*
X17900000Y4825000D01*
X17900000Y2877499D01*
X17820000Y2797500D01*
X13078510Y2797500D01*
X12959999Y2916010D01*
X12960001Y4354999D01*
X13517500Y4355000D01*
Y2952500D01*
X13542500Y2927500D01*
X17659999D01*
X17695000Y2962500D01*
X17695000Y4627515D01*
X17660014Y4662500D01*
X16889999D01*
X16862500Y4690000D01*
X16862500Y4870000D01*
X16830000Y4902500D01*
X16735001D01*
X16714999Y4922500D01*
Y5017500D01*
X16730000Y5032500D01*
X16852499D01*
X16877499Y5057500D01*
Y5445000D01*
X16855000Y5467500D01*
X16747501D01*
X16732500Y5452500D01*
Y5295000D01*
X16712500Y5275000D01*
X16589999D01*
X16572501Y5292501D01*
X16572501Y5432500D01*
X16559999Y5445000D01*
X16487500Y5445000D01*
X16470000Y5427500D01*
X16470000Y5305000D01*
X16457500Y5292500D01*
X16402499D01*
X16385001Y5310000D01*
Y5392500D01*
Y5407500D01*
Y5442500D01*
X16397501Y5455000D01*
X16432500D01*
X16460001Y5482500D01*
X16475000D01*
X16589999Y5482500D01*
X16600000Y5492500D01*
Y5637500D01*
X16607500Y5645000D01*
X17107500D01*
X17150000Y5602500D01*
X17149998Y5432500D01*
X17174998Y5407500D01*
X17207500D01*
X17217500Y5397500D01*
X17217499Y5035002D01*
X17392503Y4860000D01*
X17675000D01*
X17852499Y5037499D01*
X17852499Y5245000D01*
X17852499Y6965000D01*
X17830000Y6987500D01*
X17435001Y6987500D01*
X17422501Y7000000D01*
Y7080000D01*
X17422499Y7645001D01*
X17355000Y7712499D01*
X16360001Y7712500D01*
X16347501Y7700000D01*
Y7517500D01*
X16322501Y7492500D01*
X15942500D01*
Y7722500D01*
X15964999Y7745000D01*
X17827501Y7745000D01*
X17900000Y7672500D01*
D02*
G37*
G36*
X14948100Y4845407D02*
X14946400Y4844798D01*
X14944901Y4843782D01*
X14943600Y4842361D01*
X14942500Y4840534D01*
X14941600Y4838300D01*
X14940900Y4835660D01*
X14940401Y4832615D01*
X14940100Y4829163D01*
X14939999Y4825305D01*
X14920000D01*
X14919901Y4829163D01*
X14919600Y4832615D01*
X14919099Y4835660D01*
X14918401Y4838300D01*
X14917500Y4840534D01*
X14916400Y4842361D01*
X14915100Y4843782D01*
X14913600Y4844798D01*
X14911900Y4845407D01*
X14910001Y4845610D01*
X14950000D01*
X14948100Y4845407D01*
D02*
G37*
G36*
X16733110Y4800000D02*
X16732907Y4801900D01*
X16732298Y4803600D01*
X16731284Y4805100D01*
X16729861Y4806400D01*
X16728033Y4807500D01*
X16725800Y4808400D01*
X16723161Y4809100D01*
X16720116Y4809600D01*
X16716663Y4809900D01*
X16712805Y4810000D01*
Y4830000D01*
X16716663Y4830100D01*
X16720116Y4830400D01*
X16723161Y4830900D01*
X16725800Y4831600D01*
X16728033Y4832500D01*
X16729861Y4833600D01*
X16731284Y4834900D01*
X16732298Y4836400D01*
X16732907Y4838100D01*
X16733110Y4840000D01*
Y4800000D01*
D02*
G37*
G36*
X16672095Y4838100D02*
X16672704Y4836400D01*
X16673718Y4834900D01*
X16675139Y4833600D01*
X16676967Y4832500D01*
X16679201Y4831600D01*
X16681841Y4830900D01*
X16684886Y4830400D01*
X16688338Y4830100D01*
X16692195Y4830000D01*
Y4810000D01*
X16688338Y4809900D01*
X16684886Y4809600D01*
X16681841Y4809100D01*
X16679201Y4808400D01*
X16676967Y4807500D01*
X16675139Y4806400D01*
X16673718Y4805100D01*
X16672704Y4803600D01*
X16672095Y4801900D01*
X16671890Y4800000D01*
Y4840000D01*
X16672095Y4838100D01*
D02*
G37*
G36*
X14940041Y4807169D02*
X14940359Y4803298D01*
X14940640Y4801578D01*
X14941000Y4800003D01*
X14941440Y4798571D01*
X14941960Y4797283D01*
X14942560Y4796139D01*
X14943240Y4795139D01*
X14944000Y4794283D01*
X14916000D01*
X14916760Y4795139D01*
X14917439Y4796139D01*
X14918040Y4797283D01*
X14918559Y4798571D01*
X14919000Y4800003D01*
X14919360Y4801578D01*
X14919640Y4803298D01*
X14919839Y4805162D01*
X14920000Y4809321D01*
X14939999D01*
X14940041Y4807169D01*
D02*
G37*
G36*
X16118100Y4782907D02*
X16116400Y4782298D01*
X16114900Y4781282D01*
X16113600Y4779861D01*
X16112500Y4778034D01*
X16111600Y4775800D01*
X16110899Y4773160D01*
X16110400Y4770115D01*
X16110100Y4766663D01*
X16110001Y4762805D01*
X16089999D01*
X16089900Y4766663D01*
X16089600Y4770115D01*
X16089101Y4773160D01*
X16088400Y4775800D01*
X16087500Y4778034D01*
X16086400Y4779861D01*
X16085100Y4781282D01*
X16083600Y4782298D01*
X16081900Y4782907D01*
X16080000Y4783110D01*
X16120000D01*
X16118100Y4782907D01*
D02*
G37*
G36*
X15923100D02*
X15921400Y4782298D01*
X15919901Y4781282D01*
X15918600Y4779861D01*
X15917500Y4778034D01*
X15916600Y4775800D01*
X15915900Y4773160D01*
X15915401Y4770115D01*
X15915102Y4766663D01*
X15914999Y4762805D01*
X15895000D01*
X15894901Y4766663D01*
X15894600Y4770115D01*
X15894101Y4773160D01*
X15893401Y4775800D01*
X15892500Y4778034D01*
X15891402Y4779861D01*
X15890102Y4781282D01*
X15888600Y4782298D01*
X15886900Y4782907D01*
X15885001Y4783110D01*
X15925000D01*
X15923100Y4782907D01*
D02*
G37*
G36*
X16651601Y4780407D02*
X16649899Y4779797D01*
X16648399Y4778782D01*
X16647099Y4777361D01*
X16646001Y4775534D01*
X16645100Y4773300D01*
X16644400Y4770660D01*
X16643900Y4767615D01*
X16643600Y4764163D01*
X16643500Y4760305D01*
X16623500D01*
X16623399Y4764163D01*
X16623100Y4767615D01*
X16622600Y4770660D01*
X16621899Y4773300D01*
X16621001Y4775534D01*
X16619901Y4777361D01*
X16618600Y4778782D01*
X16617101Y4779797D01*
X16615401Y4780407D01*
X16613499Y4780610D01*
X16653500D01*
X16651601Y4780407D01*
D02*
G37*
G36*
X16643890Y4647361D02*
X16645058Y4642299D01*
X16647005Y4636934D01*
X16649728Y4631268D01*
X16653233Y4625299D01*
X16657515Y4619027D01*
X16662576Y4612454D01*
X16675034Y4598399D01*
X16682430Y4590918D01*
X16584570D01*
X16591966Y4598399D01*
X16604425Y4612454D01*
X16609486Y4619027D01*
X16613768Y4625299D01*
X16617271Y4631268D01*
X16619997Y4636934D01*
X16621944Y4642299D01*
X16623111Y4647361D01*
X16623500Y4652121D01*
X16643500D01*
X16643890Y4647361D01*
D02*
G37*
G36*
X16389890D02*
X16391058Y4642299D01*
X16393004Y4636934D01*
X16395729Y4631268D01*
X16399232Y4625299D01*
X16403516Y4619027D01*
X16408575Y4612454D01*
X16421034Y4598399D01*
X16428430Y4590918D01*
X16330569D01*
X16337967Y4598399D01*
X16350426Y4612454D01*
X16355486Y4619027D01*
X16359769Y4625299D01*
X16363272Y4631268D01*
X16365997Y4636934D01*
X16367943Y4642299D01*
X16369112Y4647361D01*
X16369501Y4652121D01*
X16389500D01*
X16389890Y4647361D01*
D02*
G37*
G36*
X16836247Y4493470D02*
X16829562Y4500411D01*
X16816731Y4512100D01*
X16810587Y4516849D01*
X16804622Y4520868D01*
X16798837Y4524155D01*
X16793233Y4526712D01*
X16787808Y4528539D01*
X16782564Y4529635D01*
X16777499Y4530000D01*
Y4550000D01*
X16782570Y4550370D01*
X16787788Y4551482D01*
X16793156Y4553334D01*
X16798674Y4555927D01*
X16804340Y4559261D01*
X16810156Y4563336D01*
X16816119Y4568152D01*
X16822234Y4573708D01*
X16834908Y4587044D01*
X16836247Y4493470D01*
D02*
G37*
G36*
X13997093Y4420600D02*
X13997704Y4418900D01*
X13998718Y4417400D01*
X14000139Y4416100D01*
X14001965Y4415000D01*
X14004201Y4414100D01*
X14006841Y4413400D01*
X14009885Y4412900D01*
X14013338Y4412600D01*
X14017195Y4412500D01*
Y4392500D01*
X14013338Y4392400D01*
X14009885Y4392100D01*
X14006841Y4391600D01*
X14004201Y4390900D01*
X14001965Y4390000D01*
X14000139Y4388900D01*
X13998718Y4387600D01*
X13997704Y4386100D01*
X13997093Y4384400D01*
X13996890Y4382500D01*
Y4422500D01*
X13997093Y4420600D01*
D02*
G37*
G36*
X14070610Y4357500D02*
X14070407Y4359400D01*
X14069798Y4361100D01*
X14068782Y4362600D01*
X14067361Y4363900D01*
X14065533Y4365000D01*
X14063300Y4365900D01*
X14060660Y4366600D01*
X14057616Y4367100D01*
X14054163Y4367400D01*
X14050305Y4367500D01*
Y4387500D01*
X14054163Y4387600D01*
X14057616Y4387900D01*
X14060660Y4388400D01*
X14063300Y4389100D01*
X14065533Y4390000D01*
X14067361Y4391100D01*
X14068782Y4392400D01*
X14069798Y4393900D01*
X14070407Y4395600D01*
X14070610Y4397500D01*
Y4357500D01*
D02*
G37*
G36*
X16440591Y4371089D02*
X16444945Y4368357D01*
X16450090Y4365913D01*
X16456026Y4363757D01*
X16462753Y4361889D01*
X16470274Y4360310D01*
X16478587Y4359019D01*
X16497588Y4357303D01*
X16508276Y4356877D01*
X16436671Y4290172D01*
X16436967Y4300519D01*
X16436409Y4319002D01*
X16435555Y4327138D01*
X16434317Y4334536D01*
X16432697Y4341198D01*
X16430693Y4347123D01*
X16428307Y4352310D01*
X16425536Y4356760D01*
X16422383Y4360474D01*
X16437032Y4374110D01*
X16440591Y4371089D01*
D02*
G37*
G36*
X16794624Y4225349D02*
X16789561Y4221067D01*
X16785094Y4216680D01*
X16781223Y4212186D01*
X16777946Y4207586D01*
X16775266Y4202881D01*
X16773181Y4198070D01*
X16771692Y4193152D01*
X16770798Y4188129D01*
X16770500Y4183000D01*
X16750500D01*
X16750201Y4188129D01*
X16749309Y4193152D01*
X16747820Y4198070D01*
X16745735Y4202881D01*
X16743056Y4207586D01*
X16739780Y4212186D01*
X16735907Y4216680D01*
X16731439Y4221067D01*
X16726376Y4225349D01*
X16720718Y4229525D01*
X16800282D01*
X16794624Y4225349D01*
D02*
G37*
G36*
X17674998Y4607500D02*
X17675002Y3820000D01*
X17639999Y3785000D01*
X17422501Y3785000D01*
X17352499Y3855000D01*
X16052499Y3855000D01*
X15970000Y3772500D01*
X15770000D01*
X15754999Y3787499D01*
X15755000Y3842500D01*
X15742500Y3855000D01*
X15664999Y3855000D01*
X15654999Y3865000D01*
X15655000Y4117500D01*
X16742500D01*
X16805000Y4180000D01*
X17072499Y4180000D01*
X17130000Y4237500D01*
X17130000Y4342500D01*
X17077499Y4395000D01*
X17039999D01*
X17014999Y4420000D01*
X17014999Y4612500D01*
X17039999Y4637499D01*
X17645003Y4637500D01*
X17674998Y4607500D01*
D02*
G37*
G36*
X15440610Y4173127D02*
X15440421Y4174758D01*
X15439854Y4176219D01*
X15438908Y4177507D01*
X15437587Y4178624D01*
X15435886Y4179568D01*
X15433807Y4180341D01*
X15431352Y4180943D01*
X15428519Y4181372D01*
X15425305Y4181630D01*
X15421716Y4181716D01*
Y4201716D01*
X15425305Y4201802D01*
X15428519Y4202059D01*
X15431352Y4202489D01*
X15433807Y4203090D01*
X15435886Y4203863D01*
X15437587Y4204808D01*
X15438908Y4205925D01*
X15439854Y4207213D01*
X15440421Y4208673D01*
X15440610Y4210305D01*
Y4173127D01*
D02*
G37*
G36*
X14128101Y4187907D02*
X14126401Y4187297D01*
X14124899Y4186282D01*
X14123599Y4184861D01*
X14122501Y4183034D01*
X14121600Y4180800D01*
X14120900Y4178160D01*
X14120399Y4175115D01*
X14120100Y4171663D01*
X14120000Y4167805D01*
X14100000D01*
X14099899Y4171663D01*
X14099600Y4175115D01*
X14099100Y4178160D01*
X14098399Y4180800D01*
X14097501Y4183034D01*
X14096400Y4184861D01*
X14095100Y4186282D01*
X14093600Y4187297D01*
X14091901Y4187907D01*
X14089999Y4188110D01*
X14130000D01*
X14128101Y4187907D01*
D02*
G37*
G36*
X14120039Y4157169D02*
X14120360Y4153298D01*
X14120641Y4151578D01*
X14121001Y4150003D01*
X14121440Y4148571D01*
X14121960Y4147283D01*
X14122560Y4146139D01*
X14123241Y4145139D01*
X14124001Y4144283D01*
X14096001D01*
X14096761Y4145139D01*
X14097440Y4146139D01*
X14098039Y4147283D01*
X14098560Y4148571D01*
X14099001Y4150003D01*
X14099361Y4151578D01*
X14099640Y4153298D01*
X14099840Y4155162D01*
X14100000Y4159321D01*
X14120000D01*
X14120039Y4157169D01*
D02*
G37*
G36*
X13988100Y4157605D02*
X13986400Y4157005D01*
X13984900Y4156005D01*
X13983600Y4154605D01*
X13982500Y4152805D01*
X13981599Y4150605D01*
X13980901Y4148005D01*
X13980400Y4145005D01*
X13980099Y4141605D01*
X13980000Y4137805D01*
X13960001D01*
X13959900Y4141605D01*
X13959599Y4145005D01*
X13959100Y4148005D01*
X13958400Y4150605D01*
X13957500Y4152805D01*
X13956400Y4154605D01*
X13955099Y4156005D01*
X13953600Y4157005D01*
X13951900Y4157605D01*
X13950000Y4157805D01*
X13989999D01*
X13988100Y4157605D01*
D02*
G37*
G36*
X13795599D02*
X13793900Y4157005D01*
X13792400Y4156005D01*
X13791100Y4154605D01*
X13789999Y4152805D01*
X13789101Y4150605D01*
X13788400Y4148005D01*
X13787900Y4145005D01*
X13787601Y4141605D01*
X13787500Y4137805D01*
X13767500D01*
X13767400Y4141605D01*
X13767101Y4145005D01*
X13766600Y4148005D01*
X13765900Y4150605D01*
X13764999Y4152805D01*
X13763901Y4154605D01*
X13762601Y4156005D01*
X13761099Y4157005D01*
X13759399Y4157605D01*
X13757500Y4157805D01*
X13797501D01*
X13795599Y4157605D01*
D02*
G37*
G36*
X13902499Y4097500D02*
X13898700Y4097300D01*
X13895300Y4096700D01*
X13892300Y4095700D01*
X13889700Y4094300D01*
X13887500Y4092500D01*
X13885699Y4090300D01*
X13884300Y4087700D01*
X13883299Y4084700D01*
X13882700Y4081300D01*
X13882500Y4077500D01*
X13862500D01*
X13862300Y4081300D01*
X13861700Y4084700D01*
X13860699Y4087700D01*
X13859300Y4090300D01*
X13857500Y4092500D01*
X13855299Y4094300D01*
X13852699Y4095700D01*
X13849699Y4096700D01*
X13846300Y4097300D01*
X13842500Y4097500D01*
X13872501Y4117500D01*
X13902499Y4097500D01*
D02*
G37*
G36*
X13882600Y4061207D02*
X13882899Y4057756D01*
X13883400Y4054710D01*
X13884100Y4052070D01*
X13885001Y4049837D01*
X13886099Y4048009D01*
X13887399Y4046588D01*
X13888901Y4045573D01*
X13890601Y4044963D01*
X13892500Y4044761D01*
X13852499D01*
X13854401Y4044963D01*
X13856100Y4045573D01*
X13857600Y4046588D01*
X13858900Y4048009D01*
X13860001Y4049837D01*
X13860899Y4052070D01*
X13861600Y4054710D01*
X13862100Y4057756D01*
X13862399Y4061207D01*
X13862500Y4065065D01*
X13882500D01*
X13882600Y4061207D01*
D02*
G37*
G36*
X15039999Y3954320D02*
X15040041Y3952169D01*
X15040359Y3948298D01*
X15040640Y3946578D01*
X15041000Y3945003D01*
X15041440Y3943571D01*
X15041960Y3942283D01*
X15042560Y3941139D01*
X15043240Y3940139D01*
X15044000Y3939283D01*
X15016000Y3939283D01*
X15016760Y3940139D01*
X15017439Y3941139D01*
X15018040Y3942283D01*
X15018559Y3943571D01*
X15019000Y3945003D01*
X15019360Y3946579D01*
X15019640Y3948298D01*
X15019839Y3950162D01*
X15020000Y3954321D01*
X15039999Y3954320D01*
D02*
G37*
G36*
X15197598Y3834965D02*
X15197897Y3831504D01*
X15198395Y3828450D01*
X15199091Y3825803D01*
X15199985Y3823562D01*
X15201079Y3821728D01*
X15202371Y3820301D01*
X15203862Y3819280D01*
X15205553Y3818667D01*
X15207442Y3818460D01*
X15167500Y3818529D01*
X15169400Y3818728D01*
X15171100Y3819335D01*
X15172600Y3820349D01*
X15173900Y3821769D01*
X15175000Y3823596D01*
X15175900Y3825830D01*
X15176601Y3828471D01*
X15177100Y3831518D01*
X15177400Y3834972D01*
X15177499Y3838833D01*
X15197501D01*
X15197598Y3834965D01*
D02*
G37*
G36*
X15010098Y3834892D02*
X15010393Y3831362D01*
X15010886Y3828244D01*
X15011572Y3825538D01*
X15012457Y3823245D01*
X15013539Y3821362D01*
X15014816Y3819892D01*
X15016292Y3818834D01*
X15017963Y3818188D01*
X15019830Y3817954D01*
X14980000Y3818529D01*
X14981900Y3818706D01*
X14983600Y3819295D01*
X14985100Y3820295D01*
X14986400Y3821708D01*
X14987500Y3823533D01*
X14988400Y3825769D01*
X14989101Y3828417D01*
X14989600Y3831477D01*
X14989900Y3834949D01*
X14989999Y3838833D01*
X15010001D01*
X15010098Y3834892D01*
D02*
G37*
G36*
X15715601Y3755407D02*
X15713901Y3754797D01*
X15712399Y3753782D01*
X15711099Y3752361D01*
X15710001Y3750534D01*
X15709100Y3748300D01*
X15708400Y3745660D01*
X15707899Y3742615D01*
X15707600Y3739163D01*
X15707500Y3735305D01*
X15687500D01*
X15687399Y3739163D01*
X15687100Y3742615D01*
X15686600Y3745660D01*
X15685899Y3748300D01*
X15685001Y3750534D01*
X15683900Y3752361D01*
X15682600Y3753782D01*
X15681100Y3754797D01*
X15679401Y3755407D01*
X15677499Y3755610D01*
X15717500D01*
X15715601Y3755407D01*
D02*
G37*
G36*
X15707539Y3717169D02*
X15707860Y3713298D01*
X15708141Y3711578D01*
X15708501Y3710002D01*
X15708940Y3708571D01*
X15709460Y3707283D01*
X15710060Y3706139D01*
X15710741Y3705139D01*
X15711501Y3704283D01*
X15683501D01*
X15684261Y3705139D01*
X15684940Y3706139D01*
X15685539Y3707283D01*
X15686060Y3708571D01*
X15686501Y3710002D01*
X15686861Y3711578D01*
X15687140Y3713298D01*
X15687340Y3715161D01*
X15687500Y3719320D01*
X15707500D01*
X15707539Y3717169D01*
D02*
G37*
G36*
X15635001Y4115000D02*
Y3652500D01*
X15580000Y3597500D01*
X15155000D01*
X15135001Y3577500D01*
Y3452500D01*
X15127499Y3445000D01*
X15055000Y3445000D01*
X15045000Y3455000D01*
X15045000Y3580000D01*
X15030000Y3595000D01*
X14957500D01*
X14942500Y3580000D01*
Y3480000D01*
X14930000Y3467500D01*
X14535001D01*
X14517500Y3450000D01*
Y3295000D01*
X14502499Y3310000D01*
Y3585000D01*
X14555356Y3637857D01*
X15227853Y3637856D01*
X15247498Y3657501D01*
X15247501Y3824999D01*
X15239999Y3832500D01*
X15227499D01*
X15214999Y3845000D01*
X15214999Y4070000D01*
X15260001D01*
X15267500Y4077500D01*
Y4122500D01*
X15627499D01*
X15635001Y4115000D01*
D02*
G37*
G36*
X15203101Y3447268D02*
X15201401Y3446659D01*
X15199899Y3445644D01*
X15198599Y3444222D01*
X15197501Y3442395D01*
X15196600Y3440162D01*
X15195900Y3437522D01*
X15195399Y3434476D01*
X15195100Y3431024D01*
X15195000Y3427166D01*
X15175000D01*
X15174899Y3431024D01*
X15174600Y3434476D01*
X15174100Y3437522D01*
X15173399Y3440162D01*
X15172501Y3442395D01*
X15171400Y3444222D01*
X15170100Y3445644D01*
X15168600Y3446659D01*
X15166901Y3447268D01*
X15164999Y3447471D01*
X15205000D01*
X15203101Y3447268D01*
D02*
G37*
G36*
X15013100D02*
X15011400Y3446659D01*
X15009900Y3445644D01*
X15008600Y3444222D01*
X15007500Y3442395D01*
X15006599Y3440162D01*
X15005901Y3437522D01*
X15005400Y3434476D01*
X15005099Y3431024D01*
X15005000Y3427166D01*
X14985001D01*
X14984900Y3431024D01*
X14984599Y3434476D01*
X14984100Y3437522D01*
X14983400Y3440162D01*
X14982500Y3442395D01*
X14981400Y3444222D01*
X14980099Y3445644D01*
X14978600Y3446659D01*
X14976900Y3447268D01*
X14975000Y3447471D01*
X15014999D01*
X15013100Y3447268D01*
D02*
G37*
G36*
X14567639Y3415740D02*
X14568639Y3415060D01*
X14569783Y3414460D01*
X14571071Y3413940D01*
X14572502Y3413500D01*
X14574078Y3413140D01*
X14575798Y3412860D01*
X14577661Y3412660D01*
X14581821Y3412500D01*
Y3392500D01*
X14579669Y3392460D01*
X14575798Y3392140D01*
X14574078Y3391860D01*
X14572502Y3391500D01*
X14571071Y3391060D01*
X14569783Y3390540D01*
X14568639Y3389940D01*
X14567639Y3389260D01*
X14566783Y3388500D01*
Y3416500D01*
X14567639Y3415740D01*
D02*
G37*
G36*
X15775740Y3402361D02*
X15775060Y3401361D01*
X15774460Y3400217D01*
X15773940Y3398929D01*
X15773500Y3397497D01*
X15773140Y3395922D01*
X15772861Y3394202D01*
X15772659Y3392338D01*
X15772501Y3388179D01*
X15752499D01*
X15752460Y3390331D01*
X15752139Y3394202D01*
X15751860Y3395922D01*
X15751500Y3397497D01*
X15751060Y3398929D01*
X15750540Y3400217D01*
X15749940Y3401361D01*
X15749260Y3402361D01*
X15748500Y3403217D01*
X15776500D01*
X15775740Y3402361D01*
D02*
G37*
G36*
X14847093Y3425600D02*
X14847704Y3423900D01*
X14848718Y3422400D01*
X14850139Y3421100D01*
X14851965Y3420000D01*
X14854201Y3419100D01*
X14856841Y3418400D01*
X14859885Y3417900D01*
X14863338Y3417600D01*
X14867195Y3417500D01*
Y3397500D01*
X14863338Y3397400D01*
X14859885Y3397100D01*
X14856841Y3396600D01*
X14854201Y3395900D01*
X14851965Y3395000D01*
X14850139Y3393900D01*
X14848718Y3392600D01*
X14847704Y3391100D01*
X14847093Y3389400D01*
X14846890Y3387500D01*
Y3427500D01*
X14847093Y3425600D01*
D02*
G37*
G36*
X17633240Y3397361D02*
X17632561Y3396361D01*
X17631960Y3395217D01*
X17631441Y3393929D01*
X17631000Y3392497D01*
X17630640Y3390922D01*
X17630360Y3389202D01*
X17630161Y3387338D01*
X17630000Y3383179D01*
X17610001D01*
X17609959Y3385331D01*
X17609641Y3389202D01*
X17609360Y3390922D01*
X17609000Y3392497D01*
X17608560Y3393929D01*
X17608040Y3395217D01*
X17607440Y3396361D01*
X17606760Y3397361D01*
X17606000Y3398217D01*
X17634000D01*
X17633240Y3397361D01*
D02*
G37*
G36*
X14618111Y3382500D02*
X14617908Y3384400D01*
X14617297Y3386100D01*
X14616283Y3387600D01*
X14614861Y3388900D01*
X14613034Y3390000D01*
X14610800Y3390900D01*
X14608160Y3391600D01*
X14605115Y3392100D01*
X14601663Y3392400D01*
X14597804Y3392500D01*
Y3412500D01*
X14601663Y3412600D01*
X14605115Y3412900D01*
X14608160Y3413400D01*
X14610800Y3414100D01*
X14613034Y3415000D01*
X14614861Y3416100D01*
X14616283Y3417400D01*
X14617297Y3418900D01*
X14617908Y3420600D01*
X14618111Y3422500D01*
Y3382500D01*
D02*
G37*
G36*
X15095837Y3387781D02*
X15094862Y3387549D01*
X15093823Y3387175D01*
X15092719Y3386658D01*
X15091550Y3385998D01*
X15090315Y3385194D01*
X15089017Y3384248D01*
X15086224Y3381926D01*
X15083176Y3379032D01*
X15066061Y3390203D01*
X15067545Y3391755D01*
X15069978Y3394730D01*
X15070926Y3396152D01*
X15071693Y3397530D01*
X15072284Y3398865D01*
X15072694Y3400156D01*
X15072926Y3401403D01*
X15072978Y3402607D01*
X15072852Y3403768D01*
X15095837Y3387781D01*
D02*
G37*
G36*
X15075784Y3371642D02*
X15073239Y3368814D01*
X15071259Y3365985D01*
X15069846Y3363157D01*
X15068996Y3360329D01*
X15068713Y3357500D01*
X15068996Y3354671D01*
X15069846Y3351843D01*
X15071259Y3349015D01*
X15073239Y3346186D01*
X15075784Y3343358D01*
X15047501Y3357500D01*
X15033357Y3385784D01*
X15036186Y3383239D01*
X15039015Y3381259D01*
X15041843Y3379845D01*
X15044672Y3378996D01*
X15047501Y3378713D01*
X15050330Y3378996D01*
X15053157Y3379845D01*
X15055984Y3381259D01*
X15058813Y3383239D01*
X15061642Y3385784D01*
X15075784Y3371642D01*
D02*
G37*
G36*
X15772600Y3368337D02*
X15772900Y3364886D01*
X15773399Y3361840D01*
X15774100Y3359200D01*
X15775000Y3356967D01*
X15776100Y3355139D01*
X15777400Y3353718D01*
X15778900Y3352703D01*
X15780600Y3352093D01*
X15782500Y3351890D01*
X15742500D01*
X15744400Y3352093D01*
X15746100Y3352703D01*
X15747600Y3353718D01*
X15748900Y3355139D01*
X15750000Y3356967D01*
X15750900Y3359200D01*
X15751601Y3361840D01*
X15752100Y3364886D01*
X15752400Y3368337D01*
X15752499Y3372195D01*
X15772501D01*
X15772600Y3368337D01*
D02*
G37*
G36*
X17630099Y3365837D02*
X17630400Y3362385D01*
X17630901Y3359340D01*
X17631599Y3356700D01*
X17632500Y3354466D01*
X17633600Y3352639D01*
X17634900Y3351218D01*
X17636400Y3350203D01*
X17638100Y3349593D01*
X17639999Y3349390D01*
X17600000D01*
X17601900Y3349593D01*
X17603600Y3350203D01*
X17605099Y3351218D01*
X17606400Y3352639D01*
X17607500Y3354466D01*
X17608400Y3356700D01*
X17609100Y3359340D01*
X17609599Y3362385D01*
X17609900Y3365837D01*
X17610001Y3369695D01*
X17630000D01*
X17630099Y3365837D01*
D02*
G37*
G36*
X15610716Y3316000D02*
X15609862Y3316760D01*
X15608861Y3317440D01*
X15607716Y3318040D01*
X15606429Y3318560D01*
X15604997Y3319000D01*
X15603423Y3319360D01*
X15601701Y3319640D01*
X15599838Y3319840D01*
X15595680Y3320000D01*
Y3340000D01*
X15597832Y3340040D01*
X15601701Y3340360D01*
X15603423Y3340640D01*
X15604997Y3341000D01*
X15606429Y3341440D01*
X15607716Y3341960D01*
X15608861Y3342560D01*
X15609862Y3343240D01*
X15610716Y3344000D01*
Y3316000D01*
D02*
G37*
G36*
X15562093Y3348100D02*
X15562703Y3346400D01*
X15563718Y3344900D01*
X15565138Y3343600D01*
X15566966Y3342500D01*
X15569200Y3341600D01*
X15571840Y3340900D01*
X15574886Y3340400D01*
X15578337Y3340100D01*
X15582195Y3340000D01*
Y3320000D01*
X15578337Y3319900D01*
X15574886Y3319600D01*
X15571840Y3319100D01*
X15569200Y3318400D01*
X15566966Y3317500D01*
X15565138Y3316400D01*
X15563718Y3315100D01*
X15562703Y3313600D01*
X15562093Y3311900D01*
X15561890Y3310000D01*
Y3350000D01*
X15562093Y3348100D01*
D02*
G37*
G36*
X15333110Y3310000D02*
X15332907Y3311900D01*
X15332298Y3313600D01*
X15331282Y3315100D01*
X15329861Y3316400D01*
X15328033Y3317500D01*
X15325800Y3318400D01*
X15323160Y3319100D01*
X15320116Y3319600D01*
X15316663Y3319900D01*
X15312805Y3320000D01*
Y3340000D01*
X15316663Y3340100D01*
X15320116Y3340400D01*
X15323160Y3340900D01*
X15325800Y3341600D01*
X15328033Y3342500D01*
X15329861Y3343600D01*
X15331282Y3344900D01*
X15332298Y3346400D01*
X15332907Y3348100D01*
X15333110Y3350000D01*
Y3310000D01*
D02*
G37*
G36*
X16425000Y3260000D02*
X16425000Y2970000D01*
X16400000Y2945000D01*
X15739999Y2945000D01*
X15722501Y2962500D01*
Y3202500D01*
X15922501D01*
X15935001Y3190000D01*
Y3117500D01*
X15982500Y3070000D01*
X16087500D01*
X16135001Y3117500D01*
X16134999Y3260000D01*
X16160001Y3285000D01*
X16399998D01*
X16425000Y3260000D01*
D02*
G37*
G36*
X17230000Y3295000D02*
X17255000Y3269999D01*
X17255000Y3117499D01*
X17314999Y3057500D01*
X17405000Y3057500D01*
X17464999Y3117500D01*
Y3192500D01*
X17477499Y3205000D01*
X17680000Y3204999D01*
Y2977500D01*
X17648018Y2945517D01*
X17004482D01*
X16975000Y2975000D01*
Y3265000D01*
X17005000Y3295000D01*
X17230000Y3295000D01*
D02*
G37*
D10*
X16335001Y5365000D02*
D03*
X16430000D02*
D03*
X16525000D02*
D03*
Y5135000D02*
D03*
X16430000D02*
D03*
X16335001D02*
D03*
X15905000Y5142500D02*
D03*
X16000000D02*
D03*
X16095000D02*
D03*
Y5372500D02*
D03*
X16000000D02*
D03*
X15905000D02*
D03*
D11*
X13887500Y5740000D02*
D03*
Y5520000D02*
D03*
X14057500D02*
D03*
Y5740000D02*
D03*
D12*
X13897501Y5350000D02*
D03*
X14047501D02*
D03*
X13902499Y5912500D02*
D03*
X14052499D02*
D03*
X15522501Y3330000D02*
D03*
X15372501D02*
D03*
X14807500Y3407500D02*
D03*
X14657500D02*
D03*
X13639999Y7400000D02*
D03*
X13489999D02*
D03*
Y7615000D02*
D03*
X13639999D02*
D03*
X15789999Y6702500D02*
D03*
X15939999D02*
D03*
X15789999Y6980000D02*
D03*
X15939999D02*
D03*
X17370000Y6495000D02*
D03*
X17220000D02*
D03*
X15789999Y6565000D02*
D03*
X15939999D02*
D03*
X15500000D02*
D03*
X15650000D02*
D03*
X17212500Y7012500D02*
D03*
X17362500D02*
D03*
X15789999Y6425000D02*
D03*
X15939999D02*
D03*
X17792500Y6760000D02*
D03*
X17642500D02*
D03*
X15789999Y6840000D02*
D03*
X15939999D02*
D03*
X17792500Y6900000D02*
D03*
X17642500D02*
D03*
X17642500Y6622500D02*
D03*
X17792500D02*
D03*
X14107500Y6227500D02*
D03*
X14257500D02*
D03*
X15425301Y5936700D02*
D03*
X15275301D02*
D03*
D13*
X15905000Y4822500D02*
D03*
Y4972500D02*
D03*
X16372501Y5980000D02*
D03*
Y6130000D02*
D03*
X13154700Y6950000D02*
D03*
Y7100000D02*
D03*
X13532201Y7097500D02*
D03*
Y6947500D02*
D03*
X13327200Y7100000D02*
D03*
Y6950000D02*
D03*
X15480000Y4055000D02*
D03*
Y4205000D02*
D03*
X16667500Y5177500D02*
D03*
Y5327500D02*
D03*
X16655000Y5702500D02*
D03*
Y5552500D02*
D03*
X16514999D02*
D03*
Y5702500D02*
D03*
X16237500Y5705000D02*
D03*
Y5555000D02*
D03*
X16632500Y4970000D02*
D03*
Y4820000D02*
D03*
X16772501D02*
D03*
Y4970000D02*
D03*
X15762500Y3312500D02*
D03*
Y3162500D02*
D03*
X15812500Y5555000D02*
D03*
Y5705000D02*
D03*
X16652499Y5980000D02*
D03*
Y6130000D02*
D03*
X15695000Y3795000D02*
D03*
Y3945000D02*
D03*
X16512500Y5980000D02*
D03*
Y6130000D02*
D03*
X16095000Y4822500D02*
D03*
Y4972500D02*
D03*
X16792500Y5980000D02*
D03*
Y6130000D02*
D03*
X16932500Y5980000D02*
D03*
Y6130000D02*
D03*
X17622501Y3310000D02*
D03*
Y3160000D02*
D03*
X17102499Y7412500D02*
D03*
Y7562499D02*
D03*
X16962500Y7412500D02*
D03*
Y7562499D02*
D03*
X16825000Y7412500D02*
D03*
Y7562499D02*
D03*
X16547501Y7412500D02*
D03*
Y7562499D02*
D03*
X16407401Y7411600D02*
D03*
Y7561600D02*
D03*
X16267700Y7411600D02*
D03*
Y7561600D02*
D03*
X16128000Y7411600D02*
D03*
Y7561600D02*
D03*
X15988300Y7411600D02*
D03*
Y7561600D02*
D03*
X16685001Y7412500D02*
D03*
Y7562499D02*
D03*
X16332500Y4972500D02*
D03*
Y4822500D02*
D03*
X16807500Y5177500D02*
D03*
Y5327500D02*
D03*
X15952499Y5705000D02*
D03*
Y5555000D02*
D03*
X16375000Y5705000D02*
D03*
Y5555000D02*
D03*
X16095000Y5555000D02*
D03*
Y5705000D02*
D03*
X14930000Y4885000D02*
D03*
Y5035000D02*
D03*
X14110001Y4227500D02*
D03*
Y4377500D02*
D03*
D14*
X13470000Y4452500D02*
D03*
Y4305500D02*
D03*
D15*
X13214700Y6395000D02*
D03*
Y6805000D02*
D03*
X13534700Y6395000D02*
D03*
Y6805000D02*
D03*
D16*
X14995000Y3507500D02*
D03*
X15089999D02*
D03*
X15185001D02*
D03*
Y3758500D02*
D03*
X15089999D02*
D03*
X14995000D02*
D03*
D17*
X15635001Y5712500D02*
D03*
Y5512500D02*
D03*
Y5310000D02*
D03*
D18*
X15072200Y3155000D02*
D03*
X15022200D02*
D03*
X14972200D02*
D03*
X14922200D02*
D03*
X14872200D02*
D03*
X14842200D02*
D03*
X14792200D02*
D03*
X14762199D02*
D03*
X15122200D02*
D03*
X15172200D02*
D03*
X15222200D02*
D03*
X15272200D02*
D03*
X15322200D02*
D03*
X15352200D02*
D03*
X15402200D02*
D03*
X15432201D02*
D03*
D19*
X15317000Y4107500D02*
D03*
Y4157500D02*
D03*
Y4207500D02*
D03*
Y4257500D02*
D03*
Y4307500D02*
D03*
Y4357500D02*
D03*
Y4407500D02*
D03*
X14842999D02*
D03*
Y4357500D02*
D03*
Y4307500D02*
D03*
Y4257500D02*
D03*
Y4207500D02*
D03*
Y4157500D02*
D03*
Y4107500D02*
D03*
D20*
X14930000Y4020500D02*
D03*
X14980000D02*
D03*
X15030000D02*
D03*
X15080000D02*
D03*
X15130000D02*
D03*
X15180000D02*
D03*
X15230000D02*
D03*
Y4494500D02*
D03*
X15180000D02*
D03*
X15130000D02*
D03*
X15080000D02*
D03*
X15030000D02*
D03*
X14980000D02*
D03*
X14930000D02*
D03*
D21*
X15080000Y4257500D02*
D03*
D22*
X17300000Y5562500D02*
D03*
Y6142500D02*
D03*
D23*
X16293903Y7173699D02*
D03*
X16343903D02*
D03*
X16393901D02*
D03*
X16443901D02*
D03*
X16493901D02*
D03*
X16543901D02*
D03*
X16593901D02*
D03*
X16643901D02*
D03*
X16693901D02*
D03*
X16743901D02*
D03*
X16793901D02*
D03*
X16843901D02*
D03*
Y6323701D02*
D03*
X16793901D02*
D03*
X16743901D02*
D03*
X16693901D02*
D03*
X16643901D02*
D03*
X16593901D02*
D03*
X16543901D02*
D03*
X16493901D02*
D03*
X16443901D02*
D03*
X16393901D02*
D03*
X16343903D02*
D03*
X16293903D02*
D03*
D24*
X16993900Y7023699D02*
D03*
Y6973700D02*
D03*
Y6923700D02*
D03*
Y6873700D02*
D03*
Y6823700D02*
D03*
Y6773700D02*
D03*
Y6723700D02*
D03*
Y6673700D02*
D03*
Y6623700D02*
D03*
Y6573700D02*
D03*
Y6523700D02*
D03*
Y6473701D02*
D03*
X16143903D02*
D03*
Y6523700D02*
D03*
Y6573700D02*
D03*
Y6623700D02*
D03*
Y6673700D02*
D03*
Y6723700D02*
D03*
Y6773700D02*
D03*
Y6823700D02*
D03*
Y6873700D02*
D03*
Y6923700D02*
D03*
Y6973700D02*
D03*
Y7023699D02*
D03*
D25*
X17235001Y6677500D02*
D03*
X17455000D02*
D03*
Y6847500D02*
D03*
X17235001D02*
D03*
D26*
X13967500Y4402500D02*
D03*
X13777499D02*
D03*
Y4202500D02*
D03*
X13967500D02*
D03*
X13872501D02*
D03*
D27*
X14232401Y5931099D02*
D03*
Y5881099D02*
D03*
Y5831100D02*
D03*
Y5781100D02*
D03*
Y5731100D02*
D03*
Y5681100D02*
D03*
Y5631100D02*
D03*
Y5581100D02*
D03*
Y5531100D02*
D03*
Y5481100D02*
D03*
Y5431100D02*
D03*
Y5381100D02*
D03*
X15082401D02*
D03*
Y5431100D02*
D03*
Y5481100D02*
D03*
Y5531100D02*
D03*
Y5581100D02*
D03*
Y5631100D02*
D03*
Y5681100D02*
D03*
Y5731100D02*
D03*
Y5781100D02*
D03*
Y5831100D02*
D03*
Y5881099D02*
D03*
Y5931099D02*
D03*
D28*
X14382401Y5231101D02*
D03*
X14432401D02*
D03*
X14482401D02*
D03*
X14532401D02*
D03*
X14582401D02*
D03*
X14632401D02*
D03*
X14682401D02*
D03*
X14732401D02*
D03*
X14782401D02*
D03*
X14832401D02*
D03*
X14882401D02*
D03*
X14932401D02*
D03*
Y6081099D02*
D03*
X14882401D02*
D03*
X14832401D02*
D03*
X14782401D02*
D03*
X14732401D02*
D03*
X14682401D02*
D03*
X14632401D02*
D03*
X14582401D02*
D03*
X14532401D02*
D03*
X14482401D02*
D03*
X14432401D02*
D03*
X14382401D02*
D03*
D29*
X13617500Y4450000D02*
D03*
Y4200000D02*
D03*
D30*
X16935001Y4847500D02*
X17877499D01*
X17877499Y4847500D01*
X16907500Y4875000D02*
X16935001Y4847500D01*
X16907500Y4875000D02*
Y4970000D01*
X17877499Y4847500D02*
Y7582502D01*
Y3060000D02*
Y4847500D01*
X15233000Y3919501D02*
Y4017500D01*
X15262502Y3890000D02*
X15480000D01*
X15233000Y3919501D02*
X15262502Y3890000D01*
X15480000D02*
Y4055000D01*
X15230000Y4020500D02*
X15233000Y4017500D01*
X15480000Y3680000D02*
Y3890000D01*
X15092500Y3637857D02*
X15437857D01*
X15480000Y3680000D01*
X15089999Y3507500D02*
Y3635357D01*
X14502499Y3585000D02*
X14555356Y3637857D01*
X15089999Y3635357D02*
X15092500Y3637857D01*
X14555356D02*
X15092500D01*
X14502499Y3310000D02*
Y3585000D01*
X14143750Y5746566D02*
Y5826250D01*
X14932401Y5231101D02*
Y5377600D01*
X14821249Y5488750D02*
X14932401Y5377600D01*
X14730000Y5397500D02*
X14821249Y5488750D01*
X14875000Y5542500D01*
X14882401Y5231101D02*
Y5345000D01*
X14882500D01*
X14875000Y5542500D02*
Y5931099D01*
X14914999D01*
X14421404D02*
X14875000D01*
X14937500Y5880000D02*
X14938049Y5880550D01*
X15081850D01*
X14382401Y6227500D02*
Y7297500D01*
X16337500Y6577500D02*
Y6623700D01*
X16395000D02*
X16510001D01*
X16692500D01*
X16337500D02*
Y6633125D01*
X14410001Y5397500D02*
X14730000D01*
X14382401Y6081099D02*
Y6227500D01*
X14320000Y5307500D02*
X14410001Y5397500D01*
X14914999Y5931099D02*
X15082401D01*
X14325128Y5362125D02*
Y5363472D01*
X14285001Y5167500D02*
Y5321997D01*
X14325128Y5362125D01*
X14262500Y5145000D02*
X14285001Y5167500D01*
X13712500Y5145000D02*
X14262500D01*
X13742500Y5110000D02*
X14277499D01*
X14320000Y5152500D01*
Y5307500D01*
X14325128Y5363472D02*
X14347501Y5385844D01*
Y5607500D01*
X13212500Y5532500D02*
Y6392800D01*
Y5532500D02*
X13289999Y5455000D01*
X13212500Y6392800D02*
X13214700Y6395000D01*
X13154700Y7100000D02*
Y7469700D01*
X13205000Y7520000D01*
X13489999D01*
X16993900Y6623600D02*
X17108836D01*
X13897501Y5917500D02*
X13902499Y5912500D01*
X13800000Y5917500D02*
X13897501D01*
X13797501Y5350000D02*
X13897501D01*
X14082487Y5642487D02*
X14127487D01*
X14161099Y5676100D01*
X14227402D02*
X14232401Y5681100D01*
X14161099Y5676100D02*
X14227402D01*
X14057500Y5617500D02*
X14082487Y5642487D01*
X14057500Y5520000D02*
Y5617500D01*
X14914999Y5930000D02*
X15081300D01*
X15082401Y5931099D01*
X13289999Y5455000D02*
X13460001D01*
X13625000Y5290000D01*
Y5232500D02*
Y5290000D01*
Y5232500D02*
X13712500Y5145000D01*
X14232401Y5631100D02*
X14323900D01*
X14347501Y5607500D01*
X14047501Y5350000D02*
Y5510000D01*
X14057500Y5520000D01*
X13889999Y5742500D02*
Y5825000D01*
X13887500Y5740000D02*
X13889999Y5742500D01*
X14052499Y5912500D02*
X14130785D01*
X14154216Y5736100D02*
X14227402D01*
X14143750Y5746566D02*
X14154216Y5736100D01*
X14227402D02*
X14232401Y5731100D01*
X13840001Y7404500D02*
X14128000D01*
X13644501D02*
X13840001D01*
X14128000D02*
X14182500Y7350000D01*
Y6017500D02*
Y7350000D01*
X14202499Y5997500D02*
X14317500D01*
X14182500Y6017500D02*
X14202499Y5997500D01*
X14317500D02*
X14342500Y5972500D01*
Y5907500D02*
Y5972500D01*
X14232401Y5881099D02*
X14316100D01*
X14342500Y5907500D01*
X16412500Y4897500D02*
Y5021224D01*
Y4705000D02*
Y4897500D01*
X16451717Y5552500D02*
X16514999D01*
X16439999Y5540784D02*
X16451717Y5552500D01*
X16439999Y5504645D02*
Y5540784D01*
X16415356Y5480000D02*
X16439999Y5504645D01*
X16367500Y5480000D02*
X16415356D01*
X16163506Y5372500D02*
X16228506Y5437500D01*
X16182500Y4950000D02*
Y5341997D01*
X16337500Y5450000D02*
X16367500Y5480000D01*
X16228506Y5437500D02*
X16228928D01*
X16303432Y5450000D02*
X16337500D01*
X16095000Y5372500D02*
X16163506D01*
X16182500Y5341997D02*
X16243002Y5402500D01*
X16255933D02*
X16303432Y5450000D01*
X16228928Y5437500D02*
X16281429Y5490000D01*
X16243002Y5402500D02*
X16255933D01*
X16257500Y5367500D02*
X16332500D01*
X16222501Y5005000D02*
Y5332500D01*
X16332500Y5367500D02*
X16335001Y5365000D01*
X16222501Y5332500D02*
X16257500Y5367500D01*
X16235001Y4897500D02*
X16412500D01*
X16182500Y4950000D02*
X16235001Y4897500D01*
X16525000Y5280000D02*
Y5365000D01*
Y5280000D02*
X16562500Y5242500D01*
X16807500Y5177500D02*
Y5230784D01*
X16795784Y5242500D02*
X16807500Y5230784D01*
X16562500Y5242500D02*
X16795784D01*
X16336491Y5056716D02*
Y5133509D01*
X16391225Y5042500D02*
X16412500Y5021224D01*
X16335001Y5135000D02*
X16336491Y5133509D01*
X16350706Y5042500D02*
X16391225D01*
X16336491Y5056716D02*
X16350706Y5042500D01*
X16255000Y4972500D02*
X16332500D01*
X16222501Y5005000D02*
X16255000Y4972500D01*
X16667500Y5177500D02*
X16670000Y5175000D01*
X16577837Y5045400D02*
X16650400D01*
X16670000Y5065000D02*
Y5175000D01*
X16650400Y5045400D02*
X16670000Y5065000D01*
X15952499Y5554999D02*
X15952499Y5555000D01*
X15952499Y5477500D02*
Y5554999D01*
X15905000Y5372500D02*
Y5453284D01*
X15916716Y5465000D01*
X15939999D01*
X15952499Y5477500D01*
X15888087Y5389413D02*
X15905000Y5372500D01*
X15812500Y5555000D02*
X15822195Y5545305D01*
X15905000Y4972500D02*
X15905000Y4972500D01*
X15905000Y4972500D02*
Y5142500D01*
X16095000Y4972500D02*
Y5142500D01*
X15172200Y3155000D02*
X15172350Y3155150D01*
Y3247350D01*
X15172501Y3247500D01*
X15047501Y3357500D02*
X15072200Y3332800D01*
X14995000Y3410000D02*
X15047501Y3357500D01*
X15092500Y3402500D02*
Y3407500D01*
X15047501Y3357500D02*
X15092500Y3402500D01*
X15967500Y4182500D02*
X16570000D01*
X16625000Y4237500D01*
X15905000Y4245001D02*
X15967500Y4182500D01*
X16625000Y4237500D02*
Y4372500D01*
X16664999Y4412500D01*
X16689999D01*
X16742500Y4465000D02*
Y4505000D01*
X16689999Y4412500D02*
X16742500Y4465000D01*
X15030000Y3925000D02*
Y4020500D01*
X15030000Y3925000D02*
X15030000Y3925000D01*
X16390652Y6924350D02*
X16450000Y6865002D01*
X16144553Y6924350D02*
X16390652D01*
X16450000Y6730000D02*
Y6865002D01*
X16346925Y6623700D02*
X16395000D01*
X16393901Y6323701D02*
Y6622602D01*
X16395000Y6623700D01*
X17300000Y5562500D02*
X17300000Y5562500D01*
X17300000Y5562500D02*
Y5730000D01*
X16343903Y6323701D02*
X16344450Y6324250D01*
Y6446951D01*
X16345000Y6447500D01*
X16393901Y6221401D02*
Y6323701D01*
X16372501Y6200000D02*
X16393901Y6221401D01*
X16372501Y6130000D02*
Y6200000D01*
X15864999Y5955000D02*
Y6817500D01*
X15842500Y6840000D02*
X15864999Y6817500D01*
X15812500Y5705000D02*
Y5807500D01*
X15954688Y5862500D02*
X16097501D01*
X16095000Y5860000D02*
X16097501Y5862500D01*
X16337500D02*
X16375000Y5825000D01*
X16095000Y5705000D02*
Y5860000D01*
X16097501Y5862500D02*
X16337500D01*
X16375000Y5705000D02*
Y5825000D01*
X15789999Y6840000D02*
X15842500D01*
X13662500Y2880000D02*
X17697501D01*
X17877499Y3060000D01*
X13617500Y4450000D02*
Y4985000D01*
X14432401Y6081099D02*
X14432451Y6081149D01*
Y6184951D01*
X14432500Y6185000D01*
X15081850Y5880550D02*
X15082401Y5881099D01*
X15285001Y3020000D02*
X15322200Y3057200D01*
Y3155000D01*
X14905000Y3020000D02*
X15285001D01*
X14872200Y3052800D02*
Y3155000D01*
Y3052800D02*
X14905000Y3020000D01*
X14872200Y3155000D02*
Y3235300D01*
X14839999Y3267500D02*
X14872200Y3235300D01*
X14502499Y3310000D02*
X14545000Y3267500D01*
X14839999D01*
X14930000Y4780000D02*
Y4885000D01*
X16807500Y5327500D02*
Y5415000D01*
X15677499Y6420000D02*
X15785001D01*
X17086900Y6473100D02*
X17087500Y6472500D01*
X16994501Y6473100D02*
X17086900D01*
X16993900Y6473701D02*
X16994501Y6473100D01*
X16993900Y6573700D02*
X16994501Y6573100D01*
X17086900D01*
X17087500Y6572500D01*
X15812500Y5705000D02*
X15812500Y5705000D01*
X16143903Y6823700D02*
X16230785D01*
X16246173Y6778827D02*
X16250000Y6775000D01*
X16246173Y6778827D02*
Y6808311D01*
X16230785Y6823700D02*
X16246173Y6808311D01*
X16286301Y6873700D02*
X16337500Y6822501D01*
X16143903Y6873700D02*
X16286301D01*
X16337500Y6673700D02*
Y6822501D01*
X15905000Y4245001D02*
Y4822500D01*
X16742500Y4505000D02*
X16777499Y4540000D01*
X16886501D02*
X16887500Y4541000D01*
X16777499Y4540000D02*
X16886501D01*
X15745000Y4280000D02*
Y5820000D01*
X15787500Y5862500D02*
X15954688D01*
X15745000Y5820000D02*
X15787500Y5862500D01*
X15952499Y5705000D02*
X15954688Y5707187D01*
Y5862500D01*
X15877499Y4147500D02*
X16725000D01*
X15745000Y4280000D02*
X15877499Y4147500D01*
X16760500Y4183000D02*
Y4287000D01*
X16725000Y4147500D02*
X16760500Y4183000D01*
X15426100Y5937500D02*
X15530000D01*
X15425301Y5936700D02*
X15426100Y5937500D01*
X14932401Y6081099D02*
X14932449Y6081049D01*
Y5980050D02*
Y6081049D01*
Y5980050D02*
X14932500Y5980000D01*
X16907500Y4970000D02*
Y5590000D01*
X16871001Y5626499D02*
X16907500Y5590000D01*
X16652499Y5626499D02*
X16871001D01*
X16994501Y6923100D02*
X17094400D01*
X17095000Y6922500D01*
X16993900Y6923700D02*
X16994501Y6923100D01*
X16292702Y7172500D02*
X16293903Y7173699D01*
X16237500Y7172500D02*
X16292702D01*
X16143497Y7024105D02*
X16143903Y7023699D01*
X16083395Y7024105D02*
X16143497D01*
X16037500Y7070000D02*
X16083395Y7024105D01*
X16037500Y7070000D02*
X16037500D01*
X16063902Y6973700D02*
X16143903D01*
X16035101Y7002500D02*
X16063902Y6973700D01*
X16035001Y7002500D02*
X16035101D01*
X16379500Y4541000D02*
Y4672000D01*
X16412500Y4705000D01*
X15812500Y5555000D02*
X15952499D01*
X15952499Y5555000D01*
X16310001Y5490000D02*
X16375000Y5555000D01*
X16281429Y5490000D02*
X16310001D01*
X16235001Y5493070D02*
Y5552500D01*
X16011716Y5472500D02*
X16214432D01*
X16235001Y5493070D01*
Y5552500D02*
X16237500Y5555000D01*
X16267700Y7727500D02*
X17732503D01*
X16130000D02*
X16267700D01*
X13470000Y3072500D02*
Y4305500D01*
X13472501Y4450000D02*
X13617500D01*
X13470000Y4452500D02*
X13472501Y4450000D01*
X17732503Y7727500D02*
X17877499Y7582502D01*
X16050000Y7727500D02*
X16130000D01*
X16128000Y7561600D02*
Y7725500D01*
X16130000Y7727500D01*
X15988300Y7665800D02*
X16050000Y7727500D01*
X15988300Y7561600D02*
Y7665800D01*
X15082401Y5831100D02*
X15333900D01*
X15375000Y5742500D02*
Y5790000D01*
X15333900Y5831100D02*
X15375000Y5790000D01*
Y5742500D02*
X15405000Y5712500D01*
X15635001D01*
X14480292Y5123930D02*
Y5228990D01*
X14482401Y5231101D01*
X14478180Y5121820D02*
X14480292Y5123930D01*
X14433701Y5232400D02*
Y5338701D01*
X14439999Y5345000D01*
X15785001Y6420000D02*
X15789999Y6425000D01*
X15497501Y6562500D02*
X15500000Y6565000D01*
X15397501Y6562500D02*
X15497501D01*
X14532449Y5347451D02*
X14532500Y5347500D01*
X14532449Y5231150D02*
Y5347451D01*
X15685001Y6702500D02*
X15789999D01*
X14582449Y5117550D02*
X14582500Y5117500D01*
X14582449Y5117550D02*
Y5231051D01*
X14582401Y5231101D02*
X14582449Y5231051D01*
X14532401Y5231101D02*
X14532449Y5231150D01*
X14432401Y5231101D02*
X14433701Y5232400D01*
X16993250Y6874350D02*
X16993900Y6873700D01*
X16868150Y6874350D02*
X16993250D01*
X16867500Y6875000D02*
X16868150Y6874350D01*
X16993900Y6823700D02*
X16994501Y6823100D01*
X17096899D01*
X17097501Y6822500D01*
X16993301Y6973100D02*
X16993900Y6973700D01*
X16868100Y6973100D02*
X16993301D01*
X16867500Y6972500D02*
X16868100Y6973100D01*
X14581200Y6082300D02*
X14582401Y6081099D01*
X14581200Y6082300D02*
Y6241300D01*
X14580000Y6242500D02*
X14581200Y6241300D01*
X15086301Y5635000D02*
X15252499D01*
X15280000Y4752500D02*
Y5607500D01*
X15082401Y5631100D02*
X15086301Y5635000D01*
X15252499D02*
X15280000Y5607500D01*
X15255898Y5681100D02*
X15314999Y5621997D01*
X15224496Y4647500D02*
X15314999Y4738002D01*
X15082401Y5681100D02*
X15255898D01*
X15314999Y4738002D02*
Y5621997D01*
X15210001Y4682500D02*
X15280000Y4752500D01*
X14717500Y4682500D02*
X15210001D01*
X14735001Y4647500D02*
X15224496D01*
X14639999Y4285000D02*
Y4605000D01*
X14717500Y4682500D01*
X14639999Y4285000D02*
X14717500Y4207500D01*
X14675000Y4300000D02*
Y4587500D01*
X14735001Y4647500D01*
X14675000Y4300000D02*
X14717500Y4257500D01*
Y4207500D02*
X14842999D01*
X14717500Y4257500D02*
X14842999D01*
X15462500Y4072500D02*
X15480000Y4055000D01*
X15422501Y4072500D02*
X15462500D01*
X15317000Y4107500D02*
X15387500D01*
X15422501Y4072500D01*
X15421716Y4191716D02*
X15466716D01*
X15320000Y4160500D02*
X15390500D01*
X15421716Y4191716D01*
X15466716D02*
X15480000Y4205000D01*
X15317000Y4157500D02*
X15320000Y4160500D01*
X16772501Y4970000D02*
X16907500D01*
X17792500Y6622500D02*
Y6760000D01*
X17792500Y6760000D02*
X17792500Y6760000D01*
Y6570001D02*
Y6622500D01*
X17769600Y6547100D02*
X17792500Y6570001D01*
X17490031Y6547100D02*
X17769600D01*
X17555000Y6782500D02*
X17575000Y6762500D01*
X17639999D02*
X17642500Y6760000D01*
X16545000Y7565000D02*
X16547501Y7562499D01*
X17555000Y6782500D02*
Y6847500D01*
X16545000Y7565000D02*
Y7667500D01*
X17575000Y6762500D02*
X17639999D01*
X17466731Y6570400D02*
X17490031Y6547100D01*
X16822501Y7564999D02*
Y7667500D01*
Y7564999D02*
X16825000Y7562499D01*
X16960001Y7564999D02*
Y7667500D01*
X13387500Y7615000D02*
X13489999D01*
X13327200Y7100000D02*
X13330000Y7102800D01*
Y7205000D01*
X13532201Y7097500D02*
X13532500Y7097800D01*
Y7205000D01*
X14652499Y3402500D02*
X14657500Y3407500D01*
X14552499Y3402500D02*
X14652499D01*
X15522501Y3330000D02*
X15625000D01*
X13489999Y7520000D02*
X13695000D01*
X13725000Y7550000D01*
X13532201Y6807500D02*
Y6947500D01*
Y6807500D02*
X13534700Y6805000D01*
X13154700Y6950000D02*
X13327200D01*
X13189700Y6805000D02*
X13214700D01*
X13154700Y6840000D02*
X13189700Y6805000D01*
X13154700Y6840000D02*
Y6950000D01*
X15187500Y3761000D02*
Y3851502D01*
X15135001Y3904002D02*
X15187500Y3851502D01*
X15135001Y3904002D02*
Y4020500D01*
X16692500Y6623700D02*
X16805000D01*
X16693901Y6323701D02*
Y6622299D01*
X16692500Y6623700D02*
X16693901Y6622299D01*
X16267700Y7335074D02*
Y7411600D01*
X16279416Y7323358D02*
X16336646D01*
X16267700Y7335074D02*
X16279416Y7323358D01*
X15939999Y6927116D02*
X15951717Y6915400D01*
X15939999Y6980000D02*
Y7232500D01*
X16036365Y6873700D02*
X16143903D01*
X15951717Y6915400D02*
X15994662D01*
X15939999Y6702500D02*
X16037500D01*
X15994662Y6915400D02*
X16036365Y6873700D01*
X15939999Y6927116D02*
Y6980000D01*
X16267700Y7561600D02*
Y7725000D01*
X16514999Y5626499D02*
X16652499D01*
X16655000Y5552500D02*
Y5623999D01*
X16652499Y5626499D02*
X16655000Y5623999D01*
X16247514Y5626499D02*
X16514999D01*
X16514999Y5626500D02*
Y5702500D01*
X16514999Y5626499D02*
X16514999Y5626500D01*
X16237500Y5555000D02*
Y5616485D01*
X16247514Y5626499D01*
X16655000Y5462500D02*
Y5552500D01*
Y5427500D02*
Y5462500D01*
X16435570Y5370569D02*
Y5443070D01*
X16430000Y5365000D02*
X16435570Y5370569D01*
X16000000Y5372500D02*
Y5460784D01*
X16011716Y5472500D01*
X16652499Y5705000D02*
X16655000Y5702500D01*
X16667500Y5327500D02*
Y5415000D01*
X16655000Y5427500D02*
X16667500Y5415000D01*
X13639999Y7400000D02*
X13644501Y7404500D01*
X16143903Y6523700D02*
X16283701D01*
X16337500Y6577500D01*
X16143903Y6673700D02*
X16337500D01*
Y6633125D02*
Y6673700D01*
X15300000Y3330000D02*
X15372501D01*
X15272200Y3155000D02*
Y3302200D01*
X15300000Y3330000D01*
X15018848Y3077454D02*
Y3151648D01*
X15036601Y3059700D02*
X15105370D01*
X15018848Y3077454D02*
X15036601Y3059700D01*
X15018848Y3151648D02*
X15022200Y3155000D01*
X15122200D02*
Y3332200D01*
Y3076530D02*
Y3155000D01*
X15105370Y3059700D02*
X15122200Y3076530D01*
X15185001Y3395000D02*
Y3507500D01*
X15122200Y3332200D02*
X15185001Y3395000D01*
X14995000Y3410000D02*
Y3507500D01*
X15072200Y3155000D02*
Y3332800D01*
X17362500Y7157500D02*
Y7457500D01*
Y7012500D02*
Y7157500D01*
X16805000Y6623700D02*
X16993900D01*
X16805000Y6997500D02*
X16964999Y7157500D01*
X17362500D01*
X16805000Y6623700D02*
Y6997500D01*
X16865601Y6773100D02*
X16993301D01*
X16864999Y6772500D02*
X16865601Y6773100D01*
X16993301D02*
X16993900Y6773700D01*
X17257500Y7562499D02*
X17362500Y7457500D01*
X17102499Y7562499D02*
X17257500D01*
X16871001Y6673100D02*
X16993300D01*
X16864999Y6679100D02*
X16871001Y6673100D01*
X16337500Y6633125D02*
X16346925Y6623700D01*
X16510001Y6427500D02*
Y6622500D01*
X17135277Y6495000D02*
Y6597161D01*
Y6154216D02*
Y6495000D01*
X16493901Y6323701D02*
Y6411401D01*
X16510001Y6427500D01*
X16445702Y6325500D02*
Y6448201D01*
X16447501Y6450000D01*
X16443901Y6323701D02*
X16445702Y6325500D01*
X14382401Y7297500D02*
Y7447600D01*
X14387401Y7292500D02*
X15880000D01*
X14382401Y7297500D02*
X14387401Y7292500D01*
X15880000D02*
X15939999Y7232500D01*
X13840001Y7620500D02*
X14209502D01*
X14382401Y7447600D01*
X14257500Y6227500D02*
X14372501D01*
X14382401Y5970102D02*
Y6081099D01*
Y5970102D02*
X14421404Y5931099D01*
X14930000Y5035000D02*
X14932401Y5037400D01*
Y5231101D01*
X15082401Y5931099D02*
X15269699D01*
X15275301Y5936700D01*
X13617500Y4985000D02*
X13742500Y5110000D01*
X14972200Y3155000D02*
Y3327801D01*
X14807500Y3407500D02*
X14892500D01*
X14972200Y3327801D01*
X15000000Y3758500D02*
Y3855000D01*
X15020000Y3875000D02*
X15062500D01*
X15000000Y3855000D02*
X15020000Y3875000D01*
X15085001Y3897500D02*
Y4020500D01*
X15062500Y3875000D02*
X15085001Y3897500D01*
X13722501Y7620500D02*
X13840001D01*
X13645500D02*
X13722501D01*
X13725000Y7550000D02*
Y7618000D01*
X13722501Y7620500D02*
X13725000Y7618000D01*
X13489999Y7400000D02*
Y7520000D01*
X13639999Y7615000D02*
X13645500Y7620500D01*
X13727499Y4402500D02*
X13777499D01*
X13712500Y4417500D02*
X13727499Y4402500D01*
X13617500Y4450000D02*
X13700784D01*
X13712500Y4438284D01*
Y4417500D02*
Y4438284D01*
X13872501Y4107500D02*
X13952499D01*
X13792500D02*
X13872501D01*
X13860001Y3925000D02*
X13889999Y3955000D01*
X13872501Y3967500D02*
Y4107500D01*
X13967500Y4202500D02*
X13970000Y4200000D01*
Y4125000D02*
Y4200000D01*
X13952499Y4107500D02*
X13970000Y4125000D01*
X13777499Y4122500D02*
Y4202500D01*
Y4122500D02*
X13792500Y4107500D01*
X14110001Y4130000D02*
Y4227500D01*
X13967500Y4402500D02*
X14022771D01*
X14035858Y4389412D01*
Y4389216D02*
X14047574Y4377500D01*
X14035858Y4389216D02*
Y4389412D01*
X14047574Y4377500D02*
X14110001D01*
X15762500Y3052500D02*
X15812500Y3002500D01*
X15762500Y3052500D02*
Y3162500D01*
X15812500Y3002500D02*
X16237500D01*
X16289000Y3054000D01*
Y3162000D01*
X17570000Y3025000D02*
X17622501Y3077500D01*
X17106001Y3066502D02*
X17147502Y3025000D01*
X17570000D01*
X17622501Y3077500D02*
Y3160000D01*
X17106001Y3066502D02*
Y3162000D01*
X16522501Y5132500D02*
X16525000Y5135000D01*
X16522501Y5056716D02*
Y5132500D01*
X16577437Y5045000D02*
X16577837Y5045400D01*
X16534216Y5045000D02*
X16577437D01*
X16522501Y5056716D02*
X16534216Y5045000D01*
X16100000Y4482500D02*
X16147501Y4435000D01*
X16362000D01*
X16506500Y4290498D01*
Y4287000D02*
Y4290498D01*
X16100000Y4482500D02*
Y4817500D01*
X16095000Y4822500D02*
X16100000Y4817500D01*
X17141499Y3957000D02*
X17141501Y3957000D01*
X17141499Y3957000D02*
Y4541000D01*
X15923000Y3957000D02*
X17141499D01*
X17472002D01*
X16633501Y4541000D02*
Y4819000D01*
X16632500Y4820000D02*
X16633501Y4819000D01*
X16632500Y4820000D02*
X16772501D01*
X16239999Y5707500D02*
Y5807100D01*
X16993300Y6673100D02*
X16993900Y6673700D01*
X16593901Y6323701D02*
X16594450Y6324250D01*
Y6449450D01*
X16595000Y6450000D01*
X16143903Y6623700D02*
X16144502Y6623100D01*
X16271899D01*
X16272501Y6622500D01*
X16143903Y6923700D02*
X16144553Y6924350D01*
X16066299Y6673700D02*
X16143903D01*
X16037500Y6702500D02*
X16066299Y6673700D01*
X16142603Y6775000D02*
X16143903Y6773700D01*
X16035001Y6775000D02*
X16142603D01*
X16000000Y6832500D02*
X16020000Y6812500D01*
Y6790000D02*
Y6812500D01*
Y6790000D02*
X16035001Y6775000D01*
X15947501Y6832500D02*
X16000000D01*
X15939999Y6840000D02*
X15947501Y6832500D01*
X15939999Y6565000D02*
X16033601D01*
X16042300Y6573700D01*
X16143903D01*
X16960001Y7564999D02*
X16962500Y7562499D01*
X16682500Y7564999D02*
X16685001Y7562499D01*
X16682500Y7564999D02*
Y7667500D01*
X16402499Y7566499D02*
X16407401Y7561600D01*
X16402499Y7566499D02*
Y7667500D01*
X15685001Y6980000D02*
X15789999D01*
X16932500Y5979999D02*
X16932500Y5980000D01*
X16932500Y5877500D02*
Y5979999D01*
X16789999Y5977499D02*
X16792500Y5980000D01*
X16789999Y5875000D02*
Y5977499D01*
X16652499Y5979999D02*
X16652499Y5980000D01*
X16652499Y5882500D02*
Y5979999D01*
X16510001Y5977500D02*
X16512500Y5980000D01*
X16510001Y5877500D02*
Y5977500D01*
X16237500Y5705000D02*
X16239999Y5707500D01*
X15695000Y3795000D02*
X15697501Y3792500D01*
Y3690000D02*
Y3792500D01*
X15762500Y3312500D02*
Y3417500D01*
X17620000Y3312500D02*
X17622501Y3310000D01*
X17620000Y3312500D02*
Y3412500D01*
X15695000Y3945000D02*
X15707001Y3957000D01*
X15923000D01*
X16512500Y6130000D02*
Y6225000D01*
X16493901Y6243599D02*
Y6323701D01*
Y6243599D02*
X16512500Y6225000D01*
X16932500Y6130000D02*
Y6212500D01*
X16825000Y6225000D02*
X16920000D01*
X16932500Y6212500D01*
X16793901Y6323701D02*
X16795901Y6321701D01*
Y6254099D02*
Y6321701D01*
Y6254099D02*
X16825000Y6225000D01*
X16792500Y6130000D02*
X16792500Y6130000D01*
X16743901Y6246099D02*
X16792500Y6197500D01*
Y6130000D02*
Y6197500D01*
X16743901Y6246099D02*
Y6323701D01*
X16643901Y6138599D02*
Y6323701D01*
Y6138599D02*
X16652499Y6130000D01*
X15650000Y6565000D02*
X15789999D01*
X16037500Y6452500D02*
Y6511985D01*
X16049216Y6523700D02*
X16143903D01*
X16037500Y6511985D02*
X16049216Y6523700D01*
X16010001Y6425000D02*
X16037500Y6452500D01*
X15939999Y6425000D02*
X16010001D01*
X16042500Y7137500D02*
X16091701Y7088299D01*
X16042500Y7137500D02*
Y7250000D01*
X16091701Y7088299D02*
X16428610D01*
X16572466Y7355038D02*
Y7387535D01*
X16547501Y7412500D02*
X16572466Y7387535D01*
Y7355038D02*
X16643901Y7283602D01*
Y7173699D02*
Y7283602D01*
X16593901Y7173699D02*
Y7266102D01*
X16419118Y7337099D02*
X16522903D01*
X16593901Y7266102D01*
X16357903Y7302099D02*
X16502904D01*
X16543901Y7261102D01*
Y7173699D02*
Y7261102D01*
X16407401Y7348816D02*
Y7411600D01*
Y7348816D02*
X16419118Y7337099D01*
X16336646Y7323358D02*
X16357903Y7302099D01*
X16145857Y7288358D02*
X16319060D01*
X16127499Y7306716D02*
X16145857Y7288358D01*
X16319060D02*
X16340318Y7267100D01*
X16127499Y7306716D02*
Y7411099D01*
X15987500Y7410800D02*
X15988300Y7411600D01*
X15987500Y7305000D02*
Y7410800D01*
Y7305000D02*
X16042500Y7250000D01*
X16428610Y7088299D02*
X16443901Y7103591D01*
Y7173699D01*
X16127499Y7411099D02*
X16128000Y7411600D01*
X16493901Y7173699D02*
Y7255384D01*
X16482185Y7267100D02*
X16493901Y7255384D01*
X16340318Y7267100D02*
X16482185D01*
X16693901Y7173699D02*
Y7303599D01*
X16682500Y7315000D02*
Y7410000D01*
Y7315000D02*
X16693901Y7303599D01*
X16793901Y7281184D02*
X16805617Y7292900D01*
X16793901Y7173699D02*
Y7281184D01*
X16773300Y7338300D02*
X16808299D01*
X16743901Y7308901D02*
X16773300Y7338300D01*
X16808299D02*
X16822501Y7352500D01*
X16805617Y7292900D02*
X16915401D01*
X16962500Y7340000D01*
X16743901Y7173699D02*
Y7308901D01*
X16822501Y7409999D02*
X16825000Y7412500D01*
X16822501Y7352500D02*
Y7409999D01*
X17037500Y7247500D02*
X17102499Y7312500D01*
X16845901Y7175699D02*
Y7235784D01*
X16857616Y7247500D01*
X17037500D01*
X17102499Y7312500D02*
Y7412500D01*
X16962500Y7340000D02*
Y7412500D01*
X16843901Y7173699D02*
X16845901Y7175699D01*
X16682500Y7410000D02*
X16685001Y7412500D01*
X17135277Y6495000D02*
X17220000D01*
X17135277Y6495000D02*
X17135277Y6495000D01*
X17146992Y6142500D02*
X17300000D01*
X17135277Y6154216D02*
X17146992Y6142500D01*
X17455000Y6847500D02*
X17555000D01*
Y6888284D01*
X17566716Y6900000D02*
X17642500D01*
X17555000Y6888284D02*
X17566716Y6900000D01*
X17235001Y6594999D02*
X17259599Y6570400D01*
X17466731D01*
X17108836Y6623600D02*
X17135277Y6597161D01*
X17235001Y6594999D02*
Y6677500D01*
X17188802Y6723700D02*
X17235001Y6677500D01*
X16993900Y6723700D02*
X17188802D01*
X17098801Y7023699D02*
X17110001Y7012500D01*
X17212500D01*
X16993900Y7023699D02*
X17098801D01*
D31*
X14777200Y3155000D02*
X14792200D01*
X15402200D02*
X15417200D01*
D32*
X13860001Y3325000D02*
D03*
Y3925000D02*
D03*
D33*
X14339999Y3675000D02*
D03*
D34*
X14792400Y2977200D02*
D03*
X15386200Y3048000D02*
D03*
D35*
X14664700Y3096000D02*
D03*
X15529700D02*
D03*
D36*
X14664700Y2678000D02*
D03*
X15529700D02*
D03*
D37*
X13840001Y6972500D02*
D03*
Y7188500D02*
D03*
Y7404500D02*
D03*
Y7620500D02*
D03*
D38*
X16126001Y3652000D02*
D03*
X17269000D02*
D03*
D39*
X17472002Y3957000D02*
D03*
X15923000D02*
D03*
D40*
X17106001Y3162000D02*
D03*
X17360001D02*
D03*
X16289000D02*
D03*
X16035001D02*
D03*
D41*
X17141499Y4541000D02*
D03*
X17014500Y4287000D02*
D03*
X16887500Y4541000D02*
D03*
X16760500Y4287000D02*
D03*
X16633501Y4541000D02*
D03*
X16506500Y4287000D02*
D03*
X16379500Y4541000D02*
D03*
D42*
X16252499Y4287000D02*
D03*
D43*
X17522501Y8140000D02*
D03*
X13335001D02*
D03*
X17522501Y5142500D02*
D03*
X13337500Y5145000D02*
D03*
D44*
X14882500Y5345000D02*
D03*
X14937500Y5880000D02*
D03*
X14057500Y5740000D02*
D03*
X13887500Y5520000D02*
D03*
X13797501Y5350000D02*
D03*
X13800000Y5917500D02*
D03*
X16525000Y5135000D02*
D03*
X16095000Y5372500D02*
D03*
X15172501Y3247500D02*
D03*
X15092500Y3407500D02*
D03*
X16450000Y6730000D02*
D03*
X17300000Y5730000D02*
D03*
X16372501Y5980000D02*
D03*
X16345000Y6447500D02*
D03*
X15864999Y5955000D02*
D03*
X15812500Y5807500D02*
D03*
X16807500Y5415000D02*
D03*
X15677499Y6420000D02*
D03*
X17087500Y6472500D02*
D03*
Y6572500D02*
D03*
X16250000Y6775000D02*
D03*
X16332500Y4822500D02*
D03*
X15530000Y5937500D02*
D03*
X14932500Y5980000D02*
D03*
X15635001Y5512500D02*
D03*
X17095000Y6922500D02*
D03*
X16237500Y7172500D02*
D03*
X16035001Y7002500D02*
D03*
X16037500Y7070000D02*
D03*
X14478180Y5121820D02*
D03*
X14439999Y5345000D02*
D03*
X15397501Y6562500D02*
D03*
X14532500Y5347500D02*
D03*
X15685001Y6702500D02*
D03*
X14582500Y5117500D02*
D03*
X17097501Y6822500D02*
D03*
X16867500Y6875000D02*
D03*
Y6972500D02*
D03*
X14580000Y6242500D02*
D03*
X13534700Y6395000D02*
D03*
X16545000Y7667500D02*
D03*
X16822501D02*
D03*
X16960001D02*
D03*
X14107500Y6227500D02*
D03*
X13532500Y7205000D02*
D03*
X13330000D02*
D03*
X13387500Y7615000D02*
D03*
X14552499Y3402500D02*
D03*
X15625000Y3330000D02*
D03*
X14930000Y4780000D02*
D03*
X15039999Y4147500D02*
D03*
X15122501Y4225000D02*
D03*
X15042500D02*
D03*
X14962500Y4147500D02*
D03*
X15197501D02*
D03*
X15120000D02*
D03*
X14964999Y4225000D02*
D03*
X15200000D02*
D03*
X14964999Y4302500D02*
D03*
X15200000D02*
D03*
X15042500D02*
D03*
X15122501D02*
D03*
Y4377500D02*
D03*
X15042500D02*
D03*
X15200000D02*
D03*
X14964999D02*
D03*
X15030000Y3925000D02*
D03*
X14432500Y6185000D02*
D03*
X15635001Y5310000D02*
D03*
X16655000Y5702500D02*
D03*
X15417200Y3155000D02*
D03*
X14777200D02*
D03*
X16864999Y6772500D02*
D03*
Y6679100D02*
D03*
X16447501Y6450000D02*
D03*
X15089999Y3758500D02*
D03*
X13617500Y4200000D02*
D03*
X14110001Y4130000D02*
D03*
X13872501Y4202500D02*
D03*
X16239999Y5807100D02*
D03*
X17455000Y6852500D02*
D03*
X16595000Y6450000D02*
D03*
X16272501Y6622500D02*
D03*
X15685001Y6980000D02*
D03*
X16682500Y7667500D02*
D03*
X16402499D02*
D03*
X17620000Y3412500D02*
D03*
X15762500Y3417500D02*
D03*
X15697501Y3690000D02*
D03*
X16000000Y5142500D02*
D03*
X16430000Y5135000D02*
D03*
X16632500Y4970000D02*
D03*
X16095000Y5555000D02*
D03*
X16510001Y5877500D02*
D03*
X16652499Y5882500D02*
D03*
X16789999Y5875000D02*
D03*
X16932500Y5877500D02*
D03*
X17370000Y6495000D02*
D03*
X17792500Y6900000D02*
D03*
X17642500Y6622500D02*
D03*
X17455000Y6677500D02*
D03*
X17235001Y6847500D02*
D03*
%TF.MD5,b3f1d5070ea6ea959d2f771719c429db*%
M02*
