G04*
G04 #@! TF.GenerationSoftware,Altium Limited,Altium Designer,20.0.12 (288)*
G04*
G04 Layer_Physical_Order=1*
G04 Layer_Color=6495743*
%FSLAX44Y44*%
%MOMM*%
G71*
G01*
G75*
%ADD10C,0.2000*%
%ADD16R,0.8000X0.8000*%
%ADD17R,0.8000X0.8000*%
%ADD18R,1.2000X1.2000*%
%ADD19R,1.2000X1.4000*%
%ADD20R,1.7000X0.9000*%
%ADD21R,0.3000X1.1400*%
%ADD22R,0.3000X1.2000*%
%ADD23R,1.2000X0.3000*%
G04:AMPARAMS|DCode=24|XSize=0.24mm|YSize=1mm|CornerRadius=0.06mm|HoleSize=0mm|Usage=FLASHONLY|Rotation=90.000|XOffset=0mm|YOffset=0mm|HoleType=Round|Shape=RoundedRectangle|*
%AMROUNDEDRECTD24*
21,1,0.2400,0.8800,0,0,90.0*
21,1,0.1200,1.0000,0,0,90.0*
1,1,0.1200,0.4400,0.0600*
1,1,0.1200,0.4400,-0.0600*
1,1,0.1200,-0.4400,-0.0600*
1,1,0.1200,-0.4400,0.0600*
%
%ADD24ROUNDEDRECTD24*%
G04:AMPARAMS|DCode=25|XSize=0.24mm|YSize=1mm|CornerRadius=0.06mm|HoleSize=0mm|Usage=FLASHONLY|Rotation=0.000|XOffset=0mm|YOffset=0mm|HoleType=Round|Shape=RoundedRectangle|*
%AMROUNDEDRECTD25*
21,1,0.2400,0.8800,0,0,0.0*
21,1,0.1200,1.0000,0,0,0.0*
1,1,0.1200,0.0600,-0.4400*
1,1,0.1200,-0.0600,-0.4400*
1,1,0.1200,-0.0600,0.4400*
1,1,0.1200,0.0600,0.4400*
%
%ADD25ROUNDEDRECTD25*%
G04:AMPARAMS|DCode=26|XSize=0.6mm|YSize=1.2mm|CornerRadius=0.075mm|HoleSize=0mm|Usage=FLASHONLY|Rotation=0.000|XOffset=0mm|YOffset=0mm|HoleType=Round|Shape=RoundedRectangle|*
%AMROUNDEDRECTD26*
21,1,0.6000,1.0500,0,0,0.0*
21,1,0.4500,1.2000,0,0,0.0*
1,1,0.1500,0.2250,-0.5250*
1,1,0.1500,-0.2250,-0.5250*
1,1,0.1500,-0.2250,0.5250*
1,1,0.1500,0.2250,0.5250*
%
%ADD26ROUNDEDRECTD26*%
G04:AMPARAMS|DCode=27|XSize=0.8mm|YSize=1mm|CornerRadius=0.1mm|HoleSize=0mm|Usage=FLASHONLY|Rotation=270.000|XOffset=0mm|YOffset=0mm|HoleType=Round|Shape=RoundedRectangle|*
%AMROUNDEDRECTD27*
21,1,0.8000,0.8000,0,0,270.0*
21,1,0.6000,1.0000,0,0,270.0*
1,1,0.2000,-0.4000,-0.3000*
1,1,0.2000,-0.4000,0.3000*
1,1,0.2000,0.4000,0.3000*
1,1,0.2000,0.4000,-0.3000*
%
%ADD27ROUNDEDRECTD27*%
%ADD28R,1.2000X1.2000*%
G04:AMPARAMS|DCode=29|XSize=0.97mm|YSize=0.26mm|CornerRadius=0.0325mm|HoleSize=0mm|Usage=FLASHONLY|Rotation=180.000|XOffset=0mm|YOffset=0mm|HoleType=Round|Shape=RoundedRectangle|*
%AMROUNDEDRECTD29*
21,1,0.9700,0.1950,0,0,180.0*
21,1,0.9050,0.2600,0,0,180.0*
1,1,0.0650,-0.4525,0.0975*
1,1,0.0650,0.4525,0.0975*
1,1,0.0650,0.4525,-0.0975*
1,1,0.0650,-0.4525,-0.0975*
%
%ADD29ROUNDEDRECTD29*%
G04:AMPARAMS|DCode=30|XSize=0.97mm|YSize=0.26mm|CornerRadius=0.0325mm|HoleSize=0mm|Usage=FLASHONLY|Rotation=90.000|XOffset=0mm|YOffset=0mm|HoleType=Round|Shape=RoundedRectangle|*
%AMROUNDEDRECTD30*
21,1,0.9700,0.1950,0,0,90.0*
21,1,0.9050,0.2600,0,0,90.0*
1,1,0.0650,0.0975,0.4525*
1,1,0.0650,0.0975,-0.4525*
1,1,0.0650,-0.0975,-0.4525*
1,1,0.0650,-0.0975,0.4525*
%
%ADD30ROUNDEDRECTD30*%
%ADD32R,0.9700X1.0000*%
%ADD33R,3.5000X1.4000*%
%ADD66C,0.8630*%
%ADD67R,3.1500X3.1500*%
%ADD68C,1.0000*%
%ADD69C,1.3000*%
%ADD70C,1.5240*%
%ADD71C,5.0000*%
%ADD72C,1.0670*%
%ADD73O,1.0000X2.0000*%
%ADD74O,0.9000X1.8000*%
%ADD75C,0.6500*%
%ADD76C,3.2500*%
%ADD77C,2.4450*%
%ADD78C,1.5300*%
%ADD79C,1.3980*%
%ADD80R,1.3980X1.3980*%
%ADD81O,2.4000X5.0000*%
%ADD82O,5.0000X2.4000*%
%ADD83C,0.4000*%
G36*
X1787750Y748750D02*
X1787750Y284500D01*
X1784750Y281500D01*
X1607000Y281500D01*
X1604000Y284500D01*
X1604000Y307250D01*
X1608250Y311500D01*
X1616000D01*
X1620500Y307000D01*
Y304750D01*
X1625500Y299750D01*
X1627500D01*
X1629000Y298250D01*
Y296750D01*
X1632250Y293500D01*
X1724000Y293500D01*
X1728250Y297750D01*
X1728250Y299250D01*
X1729500Y300500D01*
X1733250Y300500D01*
X1737000Y304250D01*
X1737000Y307500D01*
X1741000Y311500D01*
X1749750D01*
X1753250Y308000D01*
X1753250Y304750D01*
X1757500Y300500D01*
X1761750Y300500D01*
X1762750Y299500D01*
X1762750Y298500D01*
X1764250Y297000D01*
X1773250Y297000D01*
X1775000Y298750D01*
X1775000Y313500D01*
X1785500Y324000D01*
Y542500D01*
X1764000Y564000D01*
X1734250D01*
X1729750Y568500D01*
X1729750Y630760D01*
X1727510Y633000D01*
X1735500D01*
X1738000Y630500D01*
Y627000D01*
X1742750Y622250D01*
Y613750D01*
X1745000Y611500D01*
X1749750D01*
X1752250Y609000D01*
Y583000D01*
X1755000Y580250D01*
X1774750D01*
X1777000Y582500D01*
Y722500D01*
X1772750Y726750D01*
X1722500Y726750D01*
X1721500Y727750D01*
X1721500Y744500D01*
X1719250Y746750D01*
X1581250D01*
X1574000Y739500D01*
X1574000Y621500D01*
X1567383Y614883D01*
X1554883Y614883D01*
X1548750Y608750D01*
X1543500D01*
X1541250Y611000D01*
X1541250Y624000D01*
X1538913Y626338D01*
X1488087D01*
X1485500Y623750D01*
X1485500Y572000D01*
X1477500D01*
Y578500D01*
X1470000Y586000D01*
Y718750D01*
X1459250Y729500D01*
X1313750D01*
X1313000Y728750D01*
X1313000Y665000D01*
X1316750Y661250D01*
X1402000Y661250D01*
X1406500Y656750D01*
Y611750D01*
X1402250Y607500D01*
X1383000D01*
X1376750Y601250D01*
X1368000D01*
X1365250Y604000D01*
Y612750D01*
X1368000Y615500D01*
X1381000D01*
X1383750Y618250D01*
Y635500D01*
X1380000Y639250D01*
X1321250Y639250D01*
X1318000Y636000D01*
Y574250D01*
X1320750Y571500D01*
X1388500Y571500D01*
X1392500Y567500D01*
Y491750D01*
X1407250Y477000D01*
X1463750D01*
Y481500D01*
X1466685Y484435D01*
X1468566D01*
X1468750Y484250D01*
X1467250Y482750D01*
Y452750D01*
X1465250Y450750D01*
X1398500D01*
X1394750Y447000D01*
Y398750D01*
X1392500Y396500D01*
X1378250D01*
X1375000Y399750D01*
Y418500D01*
X1368500Y425000D01*
X1324000D01*
X1321500Y427500D01*
Y439250D01*
X1323750Y441500D01*
X1336500D01*
X1338750Y443750D01*
X1338750Y457500D01*
X1340750Y459500D01*
X1357495Y459500D01*
X1360000Y462005D01*
X1360000Y551750D01*
X1348500Y563250D01*
X1306750D01*
X1298750Y571250D01*
Y746250D01*
X1309000Y756500D01*
X1377000D01*
X1737000Y756500D01*
X1780000Y756500D01*
X1787750Y748750D01*
D02*
G37*
G36*
X1621431Y618998D02*
X1621431Y516319D01*
X1623250Y514500D01*
X1721412Y514500D01*
X1733912Y502000D01*
X1733912D01*
X1735671Y500241D01*
X1768237Y500241D01*
X1776750Y491728D01*
X1776750Y339500D01*
X1769266Y332016D01*
X1586266Y332016D01*
X1582500Y328250D01*
X1582500Y286250D01*
X1577750Y281500D01*
X1335000Y281500D01*
X1321500Y295000D01*
Y420250D01*
X1324250Y423000D01*
X1333750D01*
X1335250Y421500D01*
Y401750D01*
X1337750Y399250D01*
X1348500D01*
X1351750Y396000D01*
X1351750Y295250D01*
X1355500Y291500D01*
X1569250D01*
X1572500Y294750D01*
X1572500Y329000D01*
X1577629Y334129D01*
X1766943D01*
X1775000Y342186D01*
Y432500D01*
X1772500Y435000D01*
X1759000D01*
X1748750Y445250D01*
X1748750Y474750D01*
X1748000Y475500D01*
X1615750D01*
X1612000Y479250D01*
Y488500D01*
X1613250Y489750D01*
X1620750D01*
X1622250Y488250D01*
Y480000D01*
X1624000Y478250D01*
X1636500D01*
X1638250Y480000D01*
Y488750D01*
X1640250Y490750D01*
X1648500D01*
X1650500Y488750D01*
Y479500D01*
X1651750Y478250D01*
X1664250D01*
X1666250Y480250D01*
Y489750D01*
X1668000Y491500D01*
X1676000D01*
X1678000Y489500D01*
Y479250D01*
X1678750Y478500D01*
X1748000D01*
X1748750Y479250D01*
Y496000D01*
X1745511Y499239D01*
X1734761D01*
X1735006Y499484D01*
X1732491Y502000D01*
X1609250Y502000D01*
X1602500Y508750D01*
Y602250D01*
X1603750Y603500D01*
X1606000D01*
X1607750Y605250D01*
Y616250D01*
X1608750Y617250D01*
X1618664D01*
X1620750Y619336D01*
X1621093D01*
X1621431Y618998D01*
D02*
G37*
G36*
X1543000Y388750D02*
X1563250Y388750D01*
X1566000Y386000D01*
X1566000Y349750D01*
X1563000Y346750D01*
X1495750Y346750D01*
X1492750Y349750D01*
Y353750D01*
X1491750Y354750D01*
X1467000D01*
X1464500Y352250D01*
X1464500Y301000D01*
X1466000Y299500D01*
X1475750D01*
X1476500Y300250D01*
X1487500D01*
X1490538Y303288D01*
Y308212D01*
X1487250Y311500D01*
Y323000D01*
X1493250D01*
Y309500D01*
X1494250Y308500D01*
X1504000D01*
X1507500Y305000D01*
X1516000D01*
X1520000Y309000D01*
X1534000D01*
X1535000Y310000D01*
Y322750D01*
X1535250Y323000D01*
X1541250D01*
Y311500D01*
X1538000Y308250D01*
Y298250D01*
X1535250Y295500D01*
X1459500D01*
X1453750Y301250D01*
Y363500D01*
X1458500Y368250D01*
X1497500D01*
X1499250Y366500D01*
Y353250D01*
X1501250Y351250D01*
X1507500Y351250D01*
X1509250Y353000D01*
X1509250Y365750D01*
X1510750Y367250D01*
X1516000D01*
X1517750Y365500D01*
Y353250D01*
X1519500Y351500D01*
X1527250D01*
X1529000Y353250D01*
Y369250D01*
X1525000Y373250D01*
Y385750D01*
X1525250Y386000D01*
X1529250D01*
X1530000Y386750D01*
Y391250D01*
X1540500D01*
X1543000Y388750D01*
D02*
G37*
D10*
X1725750Y508250D02*
X1734761Y499239D01*
X1609500Y522500D02*
X1623750Y508250D01*
X1725750D01*
X1609500Y522500D02*
Y595750D01*
X1699750Y498294D02*
X1700206Y498750D01*
X1699750Y484250D02*
Y498294D01*
X1658000Y498750D02*
X1699750D01*
X1713250D01*
X1601300Y383000D02*
X1756200D01*
Y410250D01*
X1506250Y381300D02*
Y400000D01*
X1511250Y405000D01*
X1500560Y486469D02*
Y490038D01*
X1505500Y486459D02*
X1506141D01*
X1500560Y490038D02*
X1500952Y490429D01*
X1506141Y486459D02*
X1506174Y486492D01*
X1500000Y485909D02*
X1500560Y486469D01*
X1500000Y484636D02*
Y485909D01*
X1503500Y484459D02*
X1505500Y486459D01*
X1486250Y549000D02*
Y559750D01*
X1486000Y548750D02*
X1486250Y549000D01*
Y559750D02*
X1486500Y560000D01*
X1466500Y515000D02*
X1476209D01*
X1477959Y516750D01*
X1478500D01*
X1492000Y482459D02*
X1494834Y485293D01*
Y485834D01*
X1492000Y475500D02*
Y482459D01*
X1700750Y667000D02*
X1716000D01*
X1700997Y657134D02*
X1701065Y657067D01*
X1705368Y662000D02*
X1716000D01*
X1701065Y657067D02*
X1715933D01*
X1716000Y662000D02*
Y662000D01*
X1715933Y657067D02*
X1716000Y657000D01*
X1486500Y486750D02*
X1490500Y490750D01*
X1486500Y475000D02*
Y486750D01*
X1707651Y640652D02*
X1708799Y641800D01*
X1707110Y640652D02*
X1707651D01*
X1715800Y641800D02*
X1716000Y642000D01*
X1708799Y641800D02*
X1715800D01*
X1705000Y672000D02*
X1716000D01*
Y672000D02*
Y672000D01*
X1641000Y667000D02*
X1641000Y667000D01*
X1631000Y667000D02*
X1641000D01*
X1716000Y667000D02*
Y667000D01*
X1540500Y540000D02*
X1540500Y540000D01*
X1551500D01*
X1501500Y475000D02*
X1502000Y475500D01*
Y481686D01*
X1503500Y483186D01*
Y484459D01*
X1496500Y475000D02*
X1497000Y475500D01*
Y481636D01*
X1500000Y484636D01*
X1491500Y475000D02*
X1492000Y475500D01*
X1454787Y535787D02*
X1458500Y539500D01*
X1441750Y537215D02*
Y542250D01*
Y537215D02*
X1443215Y535750D01*
X1453322Y535787D02*
X1454787D01*
X1443215Y535750D02*
X1453286D01*
X1453322Y535787D01*
X1468750Y428250D02*
X1469000Y428000D01*
Y423000D02*
Y428000D01*
X1467561Y421561D02*
X1469000Y423000D01*
X1449904Y421561D02*
X1467561D01*
X1448250Y423214D02*
X1449904Y421561D01*
X1448250Y433285D02*
Y442750D01*
X1448250Y433285D02*
X1448250Y433285D01*
X1448250Y423214D02*
Y433285D01*
X1448250Y442750D02*
X1453401Y447901D01*
X1454750Y441000D02*
X1458151Y444401D01*
X1454750Y428250D02*
Y441000D01*
X1458151Y444401D02*
X1564912D01*
X1765750Y754000D02*
X1786425Y733325D01*
Y296675D02*
Y733325D01*
X1647000Y406903D02*
Y441350D01*
X1625426Y404333D02*
X1644430D01*
X1647000Y406903D01*
X1622890Y406869D02*
X1625426Y404333D01*
X1646750Y441600D02*
X1647000Y441350D01*
X1619633Y461190D02*
X1622890Y457933D01*
Y406869D02*
Y457933D01*
X1611293Y461190D02*
X1619633D01*
X1608783Y463699D02*
Y490419D01*
Y463699D02*
X1611293Y461190D01*
X1607612Y491590D02*
X1608783Y490419D01*
X1593713Y491590D02*
X1607612D01*
X1615500Y742750D02*
X1630000D01*
X1602750D02*
X1615500D01*
X1644336Y476582D02*
X1644453Y476465D01*
X1644336Y476582D02*
Y484086D01*
X1617784Y476465D02*
X1644336D01*
X1671803D01*
X1616500Y477750D02*
X1617784Y476465D01*
X1616500Y477750D02*
Y484250D01*
X1630500D02*
Y493919D01*
X1595163Y495090D02*
X1629328D01*
X1630500Y493919D01*
X1592000Y493250D02*
X1592053D01*
X1586225Y499025D02*
X1592000Y493250D01*
X1592053D02*
X1593713Y491590D01*
X1586225Y499025D02*
Y570246D01*
X1589725Y500528D02*
X1595163Y495090D01*
X1644336Y484086D02*
X1644500Y484250D01*
X1586370Y580000D02*
X1593500Y572870D01*
X1577964Y576465D02*
X1584956D01*
X1589725Y571696D01*
X1579379Y580000D02*
X1586370D01*
X1593500Y501800D02*
Y572870D01*
X1576515Y572965D02*
X1583506D01*
X1589725Y500528D02*
Y571696D01*
X1583506Y572965D02*
X1586225Y570246D01*
X1569652Y579827D02*
Y609048D01*
X1577196Y616591D01*
X1579285D01*
X1580928Y618234D01*
Y692178D01*
X1573152Y607598D02*
X1578645Y613091D01*
X1579754Y609250D02*
X1581843D01*
X1576652Y606148D02*
X1579754Y609250D01*
X1576652Y582727D02*
Y606148D01*
X1573152Y581277D02*
Y607598D01*
X1578645Y613091D02*
X1580735D01*
X1584428Y616784D01*
X1574990Y574490D02*
Y574490D01*
X1584428Y616784D02*
Y685678D01*
X1574990Y574490D02*
X1576515Y572965D01*
X1569652Y579827D02*
X1574990Y574490D01*
X1588000Y615407D02*
Y654500D01*
X1581843Y609250D02*
X1588000Y615407D01*
X1580928Y692178D02*
X1585500Y696750D01*
X1593500Y501800D02*
X1596550Y498750D01*
X1657250D01*
X1775925Y476396D02*
Y492552D01*
Y341675D02*
Y476396D01*
X1672267D02*
X1775925D01*
X1672000Y476663D02*
X1672267Y476396D01*
X1738309Y506500D02*
X1771877D01*
X1722250Y522559D02*
X1738309Y506500D01*
X1771877D02*
X1782925Y495452D01*
X1722250Y522559D02*
Y545250D01*
X1727133Y550132D01*
Y628428D01*
X1723560Y632000D02*
X1727133Y628428D01*
X1741750Y484250D02*
Y494567D01*
X1730300Y498750D02*
X1733311Y495739D01*
X1740578D01*
X1741750Y494567D01*
X1734761Y499239D02*
X1769239D01*
X1713250Y498750D02*
X1730300D01*
X1769239Y499239D02*
X1775925Y492552D01*
X1767250Y333000D02*
X1775925Y341675D01*
X1587250Y333000D02*
X1767250D01*
X1652500Y578782D02*
Y586000D01*
Y578750D02*
Y578782D01*
X1776250Y286500D02*
X1786425Y296675D01*
X1772250Y329250D02*
X1779425Y336425D01*
X1782925Y325675D02*
Y495452D01*
X1779425Y336425D02*
Y494002D01*
X1775500Y318250D02*
X1782925Y325675D01*
X1770681Y502746D02*
X1779425Y494002D01*
X1576652Y582727D02*
X1579379Y580000D01*
X1573152Y581277D02*
X1577964Y576465D01*
X1657250Y498750D02*
X1658000D01*
X1584428Y685678D02*
X1588000Y689250D01*
Y665750D02*
X1591000Y668750D01*
X1588000Y654500D02*
X1588250Y654750D01*
X1588000Y654500D02*
Y665750D01*
X1588250Y654750D02*
X1597500D01*
X1658000Y484250D02*
Y498000D01*
X1657250Y498750D02*
X1658000Y498000D01*
X1585500Y696750D02*
X1597500D01*
X1619000Y683500D02*
Y688078D01*
X1588000Y689250D02*
X1617828D01*
X1619000Y688078D01*
X1619500Y696750D02*
X1622500Y693750D01*
Y685500D02*
X1627972Y680028D01*
X1622500Y685500D02*
Y693750D01*
X1621750Y664250D02*
Y669278D01*
X1619000Y683500D02*
X1623500Y679000D01*
X1638500Y579953D02*
Y586000D01*
X1612500Y682750D02*
X1620000Y675250D01*
Y671028D02*
X1621750Y669278D01*
X1638500Y586000D02*
Y593500D01*
X1623500Y675116D02*
Y679000D01*
X1620000Y671028D02*
Y675250D01*
X1628500Y684684D02*
X1632484Y680700D01*
X1638560D02*
X1641760Y677500D01*
X1625316Y673300D02*
X1625900D01*
X1627200Y672000D02*
X1631000D01*
X1641760Y677500D02*
X1652750D01*
X1628500Y684684D02*
Y699750D01*
X1632484Y680700D02*
X1638560D01*
X1625900Y673300D02*
X1627200Y672000D01*
X1623500Y675116D02*
X1625316Y673300D01*
X1597500Y668750D02*
X1597500Y668750D01*
X1591000Y668750D02*
X1597500D01*
X1671750Y484250D02*
X1672000Y484000D01*
Y476663D02*
Y484000D01*
X1581280Y299563D02*
Y327030D01*
X1571967Y290250D02*
X1581280Y299563D01*
X1639672Y578782D02*
X1652500D01*
X1638500Y579953D02*
X1639672Y578782D01*
X1536250Y475250D02*
Y519973D01*
Y475250D02*
X1536500Y475000D01*
X1466500Y510000D02*
X1466500Y510000D01*
X1478500D01*
X1478500Y510000D01*
X1531500Y475000D02*
X1531500Y475000D01*
Y487500D01*
X1531500Y487500D01*
X1646000Y682500D02*
Y692000D01*
Y682500D02*
X1646000Y682500D01*
X1627972Y677200D02*
Y680028D01*
Y677200D02*
X1628172Y677000D01*
X1631000D01*
X1652750Y677500D02*
X1656000Y674250D01*
X1631000Y667000D02*
X1631000Y667000D01*
X1631000Y637000D02*
X1641000D01*
X1651000Y607000D02*
Y617000D01*
X1651000Y617000D01*
X1661000Y607000D02*
X1661000Y607000D01*
Y617000D01*
X1661000Y617000D01*
X1676000Y607000D02*
X1676000Y607000D01*
Y616500D01*
X1676000Y616500D01*
X1615500Y732000D02*
Y741875D01*
X1597750Y737750D02*
X1602750Y742750D01*
X1612500Y291816D02*
Y303500D01*
X1617816Y286500D02*
X1745250D01*
X1612500Y291816D02*
X1617816Y286500D01*
X1399750Y561532D02*
X1404782Y556500D01*
X1399750Y561532D02*
Y569500D01*
X1404782Y556500D02*
X1433535D01*
X1403250Y562982D02*
X1406232Y560000D01*
X1403250Y562982D02*
Y570950D01*
X1406232Y560000D02*
X1434985D01*
X1396708Y577491D02*
X1403250Y570950D01*
X1396708Y589418D02*
X1396750Y589460D01*
X1396708Y577491D02*
Y589418D01*
X1323130Y708250D02*
X1353745D01*
X1319000Y712381D02*
Y721000D01*
Y712381D02*
X1323130Y708250D01*
X1353745Y717995D02*
X1353750Y718000D01*
X1353745Y708250D02*
Y717995D01*
Y708250D02*
X1402750D01*
X1410000Y608229D02*
Y701000D01*
X1402750Y708250D02*
X1410000Y701000D01*
X1381000Y600916D02*
X1383834Y603750D01*
X1405521D01*
X1381000Y581470D02*
Y600916D01*
X1350000Y574750D02*
X1389550D01*
X1326250Y578772D02*
X1330272Y574750D01*
X1350000D01*
X1326250Y578772D02*
Y593500D01*
X1389550Y574750D02*
X1396250Y568050D01*
X1381000Y581470D02*
X1384220Y578250D01*
X1391000D01*
X1399750Y569500D01*
X1349500Y589460D02*
X1350000Y588960D01*
Y574750D02*
Y588960D01*
X1373320Y575000D02*
Y593430D01*
X1396250Y494000D02*
Y568050D01*
X1373250Y593500D02*
X1373320Y593430D01*
X1405521Y603750D02*
X1410000Y608229D01*
X1373250Y608500D02*
X1393500D01*
X1396750Y611750D02*
Y630460D01*
X1393500Y608500D02*
X1396750Y611750D01*
X1396250Y494000D02*
X1406000Y484250D01*
X1384750Y469250D02*
Y553500D01*
X1372500Y565750D02*
X1384750Y553500D01*
X1320500Y565750D02*
X1372500D01*
X1434985Y560000D02*
X1438500Y556485D01*
Y550922D02*
Y556485D01*
X1433535Y556500D02*
X1435000Y555036D01*
Y547422D02*
Y555036D01*
X1438500Y550922D02*
X1439672Y549750D01*
X1478636D01*
X1435000Y547422D02*
X1436172Y546250D01*
X1437750D01*
X1441750Y542250D01*
X1438250Y535765D02*
Y540236D01*
X1438250Y531872D02*
X1441922Y528200D01*
X1435736Y542750D02*
X1438250Y540236D01*
X1438250Y531872D02*
Y535765D01*
X1414603Y542750D02*
X1435736D01*
X1438250Y535765D02*
X1438250Y535765D01*
X1441922Y528200D02*
X1455050D01*
X1466000Y539500D02*
X1466500Y540000D01*
X1458500Y539500D02*
X1466000D01*
X1501500Y547320D02*
Y560000D01*
X1484886Y543500D02*
X1497680D01*
X1501500Y547320D01*
X1413750Y593500D02*
X1420000D01*
X1409710Y589460D02*
X1413750Y593500D01*
X1396750Y589460D02*
X1409710D01*
X1478636Y549750D02*
X1484886Y543500D01*
X1484500Y522217D02*
Y538936D01*
X1478453Y544984D02*
X1484500Y538936D01*
X1466516Y544984D02*
X1478453D01*
X1466000Y514500D02*
X1466500Y515000D01*
X1459964Y514500D02*
X1466000D01*
X1448250Y513200D02*
X1450285Y515235D01*
X1455750D01*
X1456750Y511286D02*
X1459964Y514500D01*
X1455750Y515235D02*
Y518000D01*
X1444117Y506652D02*
X1453238D01*
X1456750Y510164D02*
Y511286D01*
X1441750Y504286D02*
X1444117Y506652D01*
X1453238D02*
X1456750Y510164D01*
X1429750Y500250D02*
X1437043D01*
X1438250Y501457D01*
Y510528D02*
X1440922Y513200D01*
X1435000Y484250D02*
X1441750Y491000D01*
X1440922Y513200D02*
X1448250D01*
X1438250Y501457D02*
Y510528D01*
X1441750Y491000D02*
Y504286D01*
X1406000Y484250D02*
X1435000D01*
X1455050Y528200D02*
X1458250Y525000D01*
X1413853Y542750D02*
Y543500D01*
Y533303D02*
Y542750D01*
X1456250Y500750D02*
Y500786D01*
X1466000Y504500D02*
X1466500Y505000D01*
X1456250Y500786D02*
X1459964Y504500D01*
X1466000D01*
X1737113Y502746D02*
X1770681D01*
X1718750Y521109D02*
X1737113Y502746D01*
X1718750Y521109D02*
Y547250D01*
X1588750Y318250D02*
Y326500D01*
X1591500Y329250D02*
X1772250D01*
X1588750Y326500D02*
X1591500Y329250D01*
X1723633Y552132D02*
Y620829D01*
X1718750Y547250D02*
X1723633Y552132D01*
X1768750Y318250D02*
X1775500D01*
X1716000Y622000D02*
X1722461D01*
X1723633Y620829D01*
X1716000Y632000D02*
X1723560D01*
X1723510Y637000D02*
X1730632Y629878D01*
X1333250Y754000D02*
X1479000D01*
X1353750Y739600D02*
Y753750D01*
X1612500Y626750D02*
X1614000Y628250D01*
X1619250D01*
X1623000Y632000D02*
X1631000D01*
X1619250Y628250D02*
X1623000Y632000D01*
Y627000D02*
X1631000D01*
X1620750Y624750D02*
X1623000Y627000D01*
X1620750Y613922D02*
Y624750D01*
X1612500Y654750D02*
X1612750Y654500D01*
X1621000D01*
X1623500Y652000D02*
X1631000D01*
X1621000Y654500D02*
X1623500Y652000D01*
X1612750Y669000D02*
X1617078D01*
X1612500Y668750D02*
X1612750Y669000D01*
X1617078D02*
X1618250Y667828D01*
Y662500D02*
X1623750Y657000D01*
X1618250Y662500D02*
Y667828D01*
X1623750Y657000D02*
X1631000D01*
X1621750Y664250D02*
X1623800Y662200D01*
X1630800D01*
X1612500Y696750D02*
X1619500D01*
X1729470Y635990D02*
X1733295D01*
X1733250Y642750D02*
X1733295Y642705D01*
Y635990D02*
Y642705D01*
Y635990D02*
X1739578D01*
X1751250Y671000D02*
Y671750D01*
Y661250D02*
Y671000D01*
X1733500Y664250D02*
X1740578D01*
X1741750Y665422D01*
Y669750D01*
X1751250Y671750D02*
Y678000D01*
X1727422Y664250D02*
X1733500D01*
X1743000Y671000D02*
X1750500D01*
X1741750Y669750D02*
X1743000Y671000D01*
X1733250Y657750D02*
Y664000D01*
X1733500Y664250D01*
X1751250Y678000D02*
X1751500Y678250D01*
X1726250Y653171D02*
Y663078D01*
X1727422Y664250D01*
X1750500Y660500D02*
X1751250Y661250D01*
X1716000Y652000D02*
X1725078D01*
X1726250Y653171D01*
X1726333Y639127D02*
X1729470Y635990D01*
X1716000Y647000D02*
X1725161D01*
X1726333Y639127D02*
Y645828D01*
X1725161Y647000D02*
X1726333Y645828D01*
X1740750Y629750D02*
Y634818D01*
X1739578Y635990D02*
X1740750Y634818D01*
X1716000Y637000D02*
X1723510D01*
X1766500Y637500D02*
X1767500Y638500D01*
X1766500Y628078D02*
Y637500D01*
Y620750D02*
Y628078D01*
X1766328Y628250D02*
X1766500Y628078D01*
X1742250Y628250D02*
X1766328D01*
X1740750Y629750D02*
X1742250Y628250D01*
X1708000Y586750D02*
X1708750Y586000D01*
X1708000Y586750D02*
Y593250D01*
X1696000Y597672D02*
Y607000D01*
Y597672D02*
X1697171Y596500D01*
X1704750D01*
X1708000Y593250D01*
X1694750Y586000D02*
Y593000D01*
X1691000Y596750D02*
X1694750Y593000D01*
X1691000Y596750D02*
Y607000D01*
X1666500Y586000D02*
Y592250D01*
X1669250Y595000D01*
X1676500D01*
X1681000Y599500D02*
Y607000D01*
X1676500Y595000D02*
X1681000Y599500D01*
X1671500Y710150D02*
Y717000D01*
Y710150D02*
X1681000Y700650D01*
Y692000D02*
Y700650D01*
X1676000Y692000D02*
Y700083D01*
X1658922Y710000D02*
X1666083D01*
X1676000Y700083D01*
X1647500Y706500D02*
X1664228D01*
X1671000Y692000D02*
Y699728D01*
X1664228Y706500D02*
X1671000Y699728D01*
X1638750Y703000D02*
X1661737D01*
X1666000Y692000D02*
Y698737D01*
X1661737Y703000D02*
X1666000Y698737D01*
X1624750Y709500D02*
X1634750Y699500D01*
X1659250D01*
X1616672Y709500D02*
X1624750D01*
X1615500Y710672D02*
Y717000D01*
Y710672D02*
X1616672Y709500D01*
X1622500Y705750D02*
X1628500Y699750D01*
X1602500Y705750D02*
X1622500D01*
X1643500Y710500D02*
X1647500Y706500D01*
X1631250Y710500D02*
X1638750Y703000D01*
X1657750Y711171D02*
Y716727D01*
X1659250Y699500D02*
X1660800Y697950D01*
X1657750Y711171D02*
X1658922Y710000D01*
X1660800Y692200D02*
Y697950D01*
X1657477Y717000D02*
X1657750Y716727D01*
X1631250Y710500D02*
Y715250D01*
X1629500Y717000D02*
X1631250Y715250D01*
X1643500Y710500D02*
Y717000D01*
X1660800Y692200D02*
X1661000Y692000D01*
X1691000D02*
Y701871D01*
X1698922Y709792D02*
Y716422D01*
X1691000Y701871D02*
X1698922Y709792D01*
Y716422D02*
X1699500Y717000D01*
X1696000Y692000D02*
Y701698D01*
X1701052Y706749D01*
X1710499D01*
X1701000Y701748D02*
X1702501Y703249D01*
X1701000Y692000D02*
Y701748D01*
X1702501Y703249D02*
X1724749D01*
X1727500Y706000D02*
Y717000D01*
X1724749Y703249D02*
X1727500Y706000D01*
X1710499Y706749D02*
X1713500Y709750D01*
Y717000D01*
X1686000Y692000D02*
Y716500D01*
X1685500Y717000D02*
X1686000Y716500D01*
X1412750Y532200D02*
X1413853Y533303D01*
Y543500D02*
Y549647D01*
X1413500Y550000D02*
X1413853Y549647D01*
X1429750Y493000D02*
Y500250D01*
Y510200D01*
X1429000Y492250D02*
X1429750Y493000D01*
X1455750Y518000D02*
X1457750Y520000D01*
X1466500D01*
X1458250Y525000D02*
X1466500D01*
X1637400Y303000D02*
X1637900Y303500D01*
X1626500Y303000D02*
X1637400D01*
X1623250Y306250D02*
X1626500Y303000D01*
X1623250Y306250D02*
Y308250D01*
X1607000Y314500D02*
X1617000D01*
X1623250Y308250D01*
X1601500Y309000D02*
X1607000Y314500D01*
X1600250Y303750D02*
X1601500Y305000D01*
Y309000D01*
X1589250Y303750D02*
X1600250D01*
X1588750Y303250D02*
X1589250Y303750D01*
X1719600Y303500D02*
X1732250D01*
X1734250Y305500D01*
Y308828D01*
X1739672Y314250D02*
X1751000D01*
X1734250Y308828D02*
X1739672Y314250D01*
X1751000D02*
X1756250Y309000D01*
Y306250D02*
X1759250Y303250D01*
X1756250Y306250D02*
Y309000D01*
X1759250Y303250D02*
X1768750D01*
X1713750Y484250D02*
Y498250D01*
X1713250Y498750D02*
X1713750Y498250D01*
X1616500Y469250D02*
X1630500D01*
Y455000D02*
Y469250D01*
Y455000D02*
X1634250Y451250D01*
Y416000D02*
Y451250D01*
X1713750Y459950D02*
X1725950D01*
X1699750D02*
X1713750D01*
Y469250D01*
X1697750Y441400D02*
Y453988D01*
X1700181Y456419D02*
X1736836D01*
X1697750Y453988D02*
X1700181Y456419D01*
X1685050Y455328D02*
X1689671Y459950D01*
X1685050Y416000D02*
Y455328D01*
X1689671Y459950D02*
X1699750D01*
X1736836Y456419D02*
X1741750Y461332D01*
Y469250D01*
X1725950Y459950D02*
X1728000Y462000D01*
X1727750Y469250D02*
X1728000Y469000D01*
Y462000D02*
Y469000D01*
X1699750Y459950D02*
Y469250D01*
X1723150Y441400D02*
X1748728D01*
X1756200Y433927D01*
Y410250D02*
Y433927D01*
X1756450Y410000D02*
X1768750D01*
X1756200Y410250D02*
X1756450Y410000D01*
X1671750Y469250D02*
X1685750D01*
X1672350Y441400D02*
Y468650D01*
X1671750Y469250D02*
X1672350Y468650D01*
X1657958Y448264D02*
X1659650Y446571D01*
Y416000D02*
Y446571D01*
X1657958Y448264D02*
Y469208D01*
X1658000Y469250D01*
X1644500Y460250D02*
Y469250D01*
Y460250D02*
X1646750Y458000D01*
Y441600D02*
Y458000D01*
X1529922Y522217D02*
Y540649D01*
X1534273Y545000D02*
X1551500D01*
X1529922Y540649D02*
X1534273Y545000D01*
X1484500Y522217D02*
X1529922D01*
X1534007D01*
X1536250Y519973D01*
X1484500Y505000D02*
Y522217D01*
X1551500Y545000D02*
X1568000D01*
X1331500Y468750D02*
X1331750Y468500D01*
X1346250D01*
X1453401Y447901D02*
X1563462D01*
X1568983Y453422D01*
X1564912Y444401D02*
X1572483Y451972D01*
X1568983Y453422D02*
Y512180D01*
X1572483Y451972D02*
Y513630D01*
X1551500Y520000D02*
X1566113D01*
X1572483Y513630D01*
X1551500Y515000D02*
X1566163D01*
X1568983Y512180D01*
X1454750Y405250D02*
Y413250D01*
X1460000Y400000D02*
X1487550D01*
X1454750Y405250D02*
X1460000Y400000D01*
X1468750Y413250D02*
X1469250Y412750D01*
Y406500D02*
Y412750D01*
Y406500D02*
X1470750Y405000D01*
X1487550D01*
X1522750Y360000D02*
X1523000Y359750D01*
X1522750Y360000D02*
Y369250D01*
X1518000Y370500D02*
X1521500D01*
X1522750Y369250D01*
X1516250Y372250D02*
X1518000Y370500D01*
X1516250Y372250D02*
Y381300D01*
X1505172Y370750D02*
X1509250D01*
X1504000Y359750D02*
Y369578D01*
X1505172Y370750D01*
X1511250Y372750D02*
Y381300D01*
X1509250Y370750D02*
X1511250Y372750D01*
X1551250Y397000D02*
X1551250Y397000D01*
X1544500Y397000D02*
X1551250D01*
X1535000Y395050D02*
X1542550D01*
X1544500Y397000D01*
X1534950Y395000D02*
X1535000Y395050D01*
X1486750Y334250D02*
X1496081D01*
X1498500Y331831D01*
Y328300D02*
X1501750Y325050D01*
X1498500Y328300D02*
Y331831D01*
X1501750Y317250D02*
Y325050D01*
X1532013Y317513D02*
Y330332D01*
X1541741Y334240D02*
X1541750Y334250D01*
X1535922Y334240D02*
X1541741D01*
X1532013Y330332D02*
X1535922Y334240D01*
X1531750Y317250D02*
X1532013Y317513D01*
X1525666Y326320D02*
X1528500Y329154D01*
Y342346D01*
X1522250Y317750D02*
Y323485D01*
X1525084Y326320D01*
X1525666D01*
X1517184Y324259D02*
X1521436Y328511D01*
X1517184Y317684D02*
Y324259D01*
X1521436Y334186D02*
X1523000Y335750D01*
X1521436Y328511D02*
Y334186D01*
X1516250Y316750D02*
X1517184Y317684D01*
X1504000Y335750D02*
X1504000Y335750D01*
X1504000Y335750D02*
Y342750D01*
X1505500Y344250D02*
X1526596D01*
X1528500Y342346D01*
X1504000Y342750D02*
X1505500Y344250D01*
X1521750Y317250D02*
X1522250Y317750D01*
X1506750Y317250D02*
X1507250Y316750D01*
Y309500D02*
Y316750D01*
X1509000Y307750D02*
X1514250D01*
X1507250Y309500D02*
X1509000Y307750D01*
X1514250D02*
X1516250Y309750D01*
Y316750D01*
X1510578Y326000D02*
X1511750Y324828D01*
X1505750Y326000D02*
X1510578D01*
X1511750Y317250D02*
Y324828D01*
X1504000Y335750D02*
X1504250Y335500D01*
Y327500D02*
Y335500D01*
Y327500D02*
X1505750Y326000D01*
X1342750Y290250D02*
X1571967D01*
X1551500Y535000D02*
X1572774D01*
X1577000Y539226D02*
Y549750D01*
X1572774Y535000D02*
X1577000Y539226D01*
X1538750Y594329D02*
X1545721Y601300D01*
X1538750Y588000D02*
Y594329D01*
X1545721Y601300D02*
X1546750D01*
X1540968Y556531D02*
X1545000Y552500D01*
X1538750Y588000D02*
X1540968Y585782D01*
Y556531D02*
Y585782D01*
X1574250Y552500D02*
X1577000Y549750D01*
X1545000Y552500D02*
X1574250D01*
X1536500Y560000D02*
Y584750D01*
X1534500Y586750D02*
X1536500Y584750D01*
X1534500Y586750D02*
Y600850D01*
X1534050Y601300D02*
X1534500Y600850D01*
X1556486Y615767D02*
X1563429D01*
X1567285Y619622D02*
Y753535D01*
X1563429Y615767D02*
X1567285Y619622D01*
X1554720Y614000D02*
X1556486Y615767D01*
X1630000Y742750D02*
X1640500D01*
X1629500Y732000D02*
Y742250D01*
X1630000Y742750D01*
X1643500Y732000D02*
Y739750D01*
X1640500Y742750D02*
X1643500Y739750D01*
X1597750Y710500D02*
Y737750D01*
Y710500D02*
X1602500Y705750D01*
X1656000Y659000D02*
Y674250D01*
X1630800Y662200D02*
X1631000Y662000D01*
X1631000Y627000D02*
X1631000Y627000D01*
X1612500Y612750D02*
X1619578D01*
X1620750Y613922D01*
X1623500Y642000D02*
X1631000D01*
X1622250Y640750D02*
X1623500Y642000D01*
X1612500Y640750D02*
X1622250D01*
X1656000Y627250D02*
Y642000D01*
Y607000D02*
Y627250D01*
X1631000Y627000D02*
X1655750D01*
X1656000Y627250D01*
Y642000D02*
Y659000D01*
X1631000Y642000D02*
X1656000D01*
X1656000Y642000D01*
X1653000Y662000D02*
X1656000Y659000D01*
X1631000Y662000D02*
X1653000D01*
X1655800Y606800D02*
X1656000Y607000D01*
X1655800Y600300D02*
Y606800D01*
X1653750Y598250D02*
X1655800Y600300D01*
X1638500Y593500D02*
X1643250Y598250D01*
X1653750D01*
X1663250Y595500D02*
X1666000Y598250D01*
Y607000D01*
X1655500Y595500D02*
X1663250D01*
X1652500Y592500D02*
X1655500Y595500D01*
X1652500Y586000D02*
Y592500D01*
X1683000Y596500D02*
X1684828D01*
X1686000Y597672D02*
Y607000D01*
X1684828Y596500D02*
X1686000Y597672D01*
X1680500Y594000D02*
X1683000Y596500D01*
X1680500Y586000D02*
Y594000D01*
X1652500Y578750D02*
X1678250D01*
X1609500Y595750D02*
X1611250Y597500D01*
Y604500D01*
X1612500Y605750D02*
Y612750D01*
X1611250Y604500D02*
X1612500Y605750D01*
X1680250Y585750D02*
X1680500Y586000D01*
X1680250Y580750D02*
Y585750D01*
X1678250Y578750D02*
X1680250Y580750D01*
X1329000Y304000D02*
X1342750Y290250D01*
X1457250Y302939D02*
X1463750Y296439D01*
X1492033D01*
X1530612D01*
X1491783Y296688D02*
Y317217D01*
X1530612Y296439D02*
X1536750Y302577D01*
X1491783Y296688D02*
X1492033Y296439D01*
X1329000Y304000D02*
Y417800D01*
X1536750Y302577D02*
Y317250D01*
X1457250Y350758D02*
X1463076Y356584D01*
X1457250Y302939D02*
Y350758D01*
X1463076Y356584D02*
X1479916D01*
X1491750Y317250D02*
X1491783Y317217D01*
X1513750Y347750D02*
X1548250D01*
X1498000D02*
X1513750D01*
X1513500Y348000D02*
Y359750D01*
Y348000D02*
X1513750Y347750D01*
X1486500Y356500D02*
X1493000D01*
X1480000D02*
X1486500D01*
X1486750Y356750D02*
Y363250D01*
X1486500Y356500D02*
X1486750Y356750D01*
X1479916Y356584D02*
X1480000Y356500D01*
X1493000D02*
X1495250Y354250D01*
X1551250Y350750D02*
Y382000D01*
X1548250Y347750D02*
X1551250Y350750D01*
X1495250Y350500D02*
X1498000Y347750D01*
X1495250Y350500D02*
Y354250D01*
X1534750Y381300D02*
X1550550D01*
X1526250D02*
X1534750D01*
X1534950Y381500D02*
Y390000D01*
X1534750Y381300D02*
X1534950Y381500D01*
X1550550Y381300D02*
X1551250Y382000D01*
X1466500Y505000D02*
X1484500D01*
X1567750Y754000D02*
X1727500D01*
X1479000D02*
X1567750D01*
X1567285Y753535D02*
X1567750Y754000D01*
X1534750Y459500D02*
X1535500Y458750D01*
X1534750Y459500D02*
Y465750D01*
X1536000Y474500D02*
X1536500Y475000D01*
X1536000Y467000D02*
Y474500D01*
X1534750Y465750D02*
X1536000Y467000D01*
X1484500Y489870D02*
Y505000D01*
X1466500Y545000D02*
X1466516Y544984D01*
X1458000Y545000D02*
X1466500D01*
X1384750Y469250D02*
X1459250D01*
X1463750Y473750D01*
Y481500D01*
X1466685Y484435D01*
X1479065D01*
X1484500Y489870D01*
X1546750Y614000D02*
X1554720D01*
X1384750Y431500D02*
Y469250D01*
Y407250D02*
Y431500D01*
X1343500Y431500D02*
X1384750D01*
X1384750Y431500D01*
X1478500Y593000D02*
Y753500D01*
X1479000Y754000D01*
X1480172Y583500D02*
X1480328D01*
X1478500Y593000D02*
X1479000Y592500D01*
Y584672D02*
Y592500D01*
Y584672D02*
X1480172Y583500D01*
X1481500Y576000D02*
Y582328D01*
X1480328Y583500D02*
X1481500Y582328D01*
X1481500Y560000D02*
Y576000D01*
X1481500Y576000D02*
X1481500Y576000D01*
X1448250Y542250D02*
X1455250D01*
X1458000Y545000D01*
X1448250Y499250D02*
X1448500Y499000D01*
X1454500D01*
X1456250Y500750D01*
X1306250Y646000D02*
Y749000D01*
Y580000D02*
Y646000D01*
X1306750Y645500D01*
X1391000D01*
X1396750Y639750D01*
Y630460D02*
Y639750D01*
X1742500Y574500D02*
X1786250D01*
X1735250D02*
X1742500D01*
Y589750D01*
X1727500Y754000D02*
X1765750D01*
X1727500Y732000D02*
Y754000D01*
X1745250Y286500D02*
X1776250D01*
X1745000Y303500D02*
X1745250Y303250D01*
Y286500D02*
Y303250D01*
X1319500Y754000D02*
X1333250D01*
X1333000Y736000D02*
Y753750D01*
X1333250Y754000D01*
X1311250D02*
X1319500D01*
X1319000Y736000D02*
Y753500D01*
X1319500Y754000D01*
X1306250Y749000D02*
X1311250Y754000D01*
X1306250Y580000D02*
X1320500Y565750D01*
X1330000Y431500D02*
X1343500D01*
X1329000Y432500D02*
X1330000Y431500D01*
X1343500D02*
X1346250Y434250D01*
Y453500D01*
D16*
X1644500Y484250D02*
D03*
Y469250D02*
D03*
X1448250Y557250D02*
D03*
Y542250D02*
D03*
Y528200D02*
D03*
Y513200D02*
D03*
X1373250Y593500D02*
D03*
Y608500D02*
D03*
X1420000D02*
D03*
Y593500D02*
D03*
X1326250Y608500D02*
D03*
Y593500D02*
D03*
X1486750Y348250D02*
D03*
Y363250D02*
D03*
X1551250Y382000D02*
D03*
Y397000D02*
D03*
X1454750Y428250D02*
D03*
Y413250D02*
D03*
X1468750Y428250D02*
D03*
Y413250D02*
D03*
X1680500Y571000D02*
D03*
Y586000D02*
D03*
X1331500Y468750D02*
D03*
Y453750D02*
D03*
X1448250Y484250D02*
D03*
Y499250D02*
D03*
X1333000Y721000D02*
D03*
Y736000D02*
D03*
X1319000Y721000D02*
D03*
Y736000D02*
D03*
X1568000Y560000D02*
D03*
Y545000D02*
D03*
X1616500Y469250D02*
D03*
Y484250D02*
D03*
X1671750Y469250D02*
D03*
Y484250D02*
D03*
X1638500Y571000D02*
D03*
Y586000D02*
D03*
X1652500Y571000D02*
D03*
Y586000D02*
D03*
X1727500Y717000D02*
D03*
Y732000D02*
D03*
X1713500Y717000D02*
D03*
Y732000D02*
D03*
X1699500Y717000D02*
D03*
Y732000D02*
D03*
X1685500Y717000D02*
D03*
Y732000D02*
D03*
X1671500Y717000D02*
D03*
Y732000D02*
D03*
X1657477Y717000D02*
D03*
Y732000D02*
D03*
X1643500Y717000D02*
D03*
Y732000D02*
D03*
X1629500Y717000D02*
D03*
Y732000D02*
D03*
X1615500Y717000D02*
D03*
Y732000D02*
D03*
X1685750Y484250D02*
D03*
Y469250D02*
D03*
X1768750Y425000D02*
D03*
Y410000D02*
D03*
Y318250D02*
D03*
Y303250D02*
D03*
X1588750Y318250D02*
D03*
Y303250D02*
D03*
X1630500Y469250D02*
D03*
Y484250D02*
D03*
X1733250Y642750D02*
D03*
Y657750D02*
D03*
X1658000Y469250D02*
D03*
Y484250D02*
D03*
X1713750Y469250D02*
D03*
Y484250D02*
D03*
X1699750Y469250D02*
D03*
Y484250D02*
D03*
X1741750Y469250D02*
D03*
Y484250D02*
D03*
X1708750Y571000D02*
D03*
Y586000D02*
D03*
X1727750Y484250D02*
D03*
Y469250D02*
D03*
X1694750Y571000D02*
D03*
Y586000D02*
D03*
X1666500Y571000D02*
D03*
Y586000D02*
D03*
D17*
X1597500Y640750D02*
D03*
X1612500D02*
D03*
X1550500Y458750D02*
D03*
X1535500D02*
D03*
X1414000Y492250D02*
D03*
X1429000D02*
D03*
X1428500Y550000D02*
D03*
X1413500D02*
D03*
X1486750Y334250D02*
D03*
X1471750D02*
D03*
X1556750D02*
D03*
X1541750D02*
D03*
X1466500Y576000D02*
D03*
X1481500D02*
D03*
X1597500Y626750D02*
D03*
X1612500D02*
D03*
X1597500Y668750D02*
D03*
X1612500D02*
D03*
X1597500Y682750D02*
D03*
X1612500D02*
D03*
X1597500Y612750D02*
D03*
X1612500D02*
D03*
X1597500Y696750D02*
D03*
X1612500D02*
D03*
X1597500Y654750D02*
D03*
X1612500D02*
D03*
X1766500Y678250D02*
D03*
X1751500D02*
D03*
Y620750D02*
D03*
X1766500D02*
D03*
D18*
X1763500Y589750D02*
D03*
X1742500D02*
D03*
X1457500Y593000D02*
D03*
X1478500D02*
D03*
X1588500Y595750D02*
D03*
X1609500D02*
D03*
D19*
X1429750Y532200D02*
D03*
Y510200D02*
D03*
X1412750D02*
D03*
Y532200D02*
D03*
X1750500Y638500D02*
D03*
Y660500D02*
D03*
X1767500D02*
D03*
Y638500D02*
D03*
X1407050Y407250D02*
D03*
X1384750D02*
D03*
X1362450D02*
D03*
D20*
X1349500Y589460D02*
D03*
Y630460D02*
D03*
X1396750Y589460D02*
D03*
Y630460D02*
D03*
D21*
X1547750Y317250D02*
D03*
X1544750D02*
D03*
X1539750D02*
D03*
X1536750D02*
D03*
X1531750D02*
D03*
X1526750D02*
D03*
X1521750D02*
D03*
X1516750D02*
D03*
X1480750D02*
D03*
X1483750D02*
D03*
X1488750D02*
D03*
X1491750D02*
D03*
X1496750D02*
D03*
X1501750D02*
D03*
X1506750D02*
D03*
X1511750D02*
D03*
D22*
X1481500Y560000D02*
D03*
X1486500D02*
D03*
X1491500D02*
D03*
X1496500D02*
D03*
X1501500D02*
D03*
X1506500D02*
D03*
X1511500D02*
D03*
X1516500D02*
D03*
X1521500D02*
D03*
X1526500D02*
D03*
X1531500D02*
D03*
X1536500D02*
D03*
Y475000D02*
D03*
X1531500D02*
D03*
X1526500D02*
D03*
X1521500D02*
D03*
X1516500D02*
D03*
X1511500D02*
D03*
X1506500D02*
D03*
X1501500D02*
D03*
X1496500D02*
D03*
X1491500D02*
D03*
X1486500D02*
D03*
X1481500D02*
D03*
D23*
X1551500Y545000D02*
D03*
Y540000D02*
D03*
Y535000D02*
D03*
Y530000D02*
D03*
Y525000D02*
D03*
Y520000D02*
D03*
Y515000D02*
D03*
Y510000D02*
D03*
Y505000D02*
D03*
Y500000D02*
D03*
Y495000D02*
D03*
Y490000D02*
D03*
X1466500D02*
D03*
Y495000D02*
D03*
Y500000D02*
D03*
Y505000D02*
D03*
Y510000D02*
D03*
Y515000D02*
D03*
Y520000D02*
D03*
Y525000D02*
D03*
Y530000D02*
D03*
Y535000D02*
D03*
Y540000D02*
D03*
Y545000D02*
D03*
D24*
X1631000Y677000D02*
D03*
Y672000D02*
D03*
Y667000D02*
D03*
Y662000D02*
D03*
Y657000D02*
D03*
Y652000D02*
D03*
Y647000D02*
D03*
Y642000D02*
D03*
Y637000D02*
D03*
Y632000D02*
D03*
Y627000D02*
D03*
Y622000D02*
D03*
X1716000D02*
D03*
Y627000D02*
D03*
Y632000D02*
D03*
Y637000D02*
D03*
Y642000D02*
D03*
Y647000D02*
D03*
Y652000D02*
D03*
Y657000D02*
D03*
Y662000D02*
D03*
Y667000D02*
D03*
Y672000D02*
D03*
Y677000D02*
D03*
D25*
X1646000Y607000D02*
D03*
X1651000D02*
D03*
X1656000D02*
D03*
X1661000D02*
D03*
X1666000D02*
D03*
X1671000D02*
D03*
X1676000D02*
D03*
X1681000D02*
D03*
X1686000D02*
D03*
X1691000D02*
D03*
X1696000D02*
D03*
X1701000D02*
D03*
Y692000D02*
D03*
X1696000D02*
D03*
X1691000D02*
D03*
X1686000D02*
D03*
X1681000D02*
D03*
X1676000D02*
D03*
X1671000D02*
D03*
X1666000D02*
D03*
X1661000D02*
D03*
X1656000D02*
D03*
X1651000D02*
D03*
X1646000D02*
D03*
D26*
X1504000Y359750D02*
D03*
X1513500D02*
D03*
X1523000D02*
D03*
Y335750D02*
D03*
X1513500D02*
D03*
X1504000D02*
D03*
D27*
X1346250Y453500D02*
D03*
Y468500D02*
D03*
D28*
X1426250Y431750D02*
D03*
Y410750D02*
D03*
X1343500Y410500D02*
D03*
Y431500D02*
D03*
D29*
X1534950Y390000D02*
D03*
Y395000D02*
D03*
Y400000D02*
D03*
Y405000D02*
D03*
Y410000D02*
D03*
Y415000D02*
D03*
Y420000D02*
D03*
X1487550D02*
D03*
Y415000D02*
D03*
Y410000D02*
D03*
Y405000D02*
D03*
Y400000D02*
D03*
Y395000D02*
D03*
Y390000D02*
D03*
D30*
X1496250Y381300D02*
D03*
X1501250D02*
D03*
X1506250D02*
D03*
X1511250D02*
D03*
X1516250D02*
D03*
X1521250D02*
D03*
X1526250D02*
D03*
Y428700D02*
D03*
X1521250D02*
D03*
X1516250D02*
D03*
X1511250D02*
D03*
X1506250D02*
D03*
X1501250D02*
D03*
X1496250D02*
D03*
D32*
X1329000Y432500D02*
D03*
Y417800D02*
D03*
D33*
X1384750Y469250D02*
D03*
D66*
X1521350Y601300D02*
D03*
X1534050D02*
D03*
X1546750D02*
D03*
X1521350Y614000D02*
D03*
X1534050D02*
D03*
X1546750D02*
D03*
D67*
X1511250Y405000D02*
D03*
D68*
X1382000Y380000D02*
X1395000D01*
X1406000Y391000D01*
X1422250D01*
X1426250Y395000D01*
Y410750D01*
X1422750Y407250D02*
X1426250Y410750D01*
D69*
X1409250Y407250D02*
X1422750D01*
D70*
X1353750Y739600D02*
D03*
Y718000D02*
D03*
Y696400D02*
D03*
Y674800D02*
D03*
D71*
X1752750Y534500D02*
D03*
Y814500D02*
D03*
X1333000D02*
D03*
Y534500D02*
D03*
D72*
X1508650Y617810D02*
D03*
Y597490D02*
D03*
X1559450Y607650D02*
D03*
D73*
X1557500Y311350D02*
D03*
X1471000D02*
D03*
D74*
X1557500Y269550D02*
D03*
X1471000D02*
D03*
D75*
X1543150Y306550D02*
D03*
X1485350D02*
D03*
D76*
X1621600Y352500D02*
D03*
X1735900D02*
D03*
D77*
X1756200Y383000D02*
D03*
X1601300D02*
D03*
D78*
X1719600Y303500D02*
D03*
X1745000D02*
D03*
X1637900D02*
D03*
X1612500D02*
D03*
D79*
X1723150Y441400D02*
D03*
X1710450Y416000D02*
D03*
X1697750Y441400D02*
D03*
X1685050Y416000D02*
D03*
X1672350Y441400D02*
D03*
X1659650Y416000D02*
D03*
X1646950Y441400D02*
D03*
D80*
X1634250Y416000D02*
D03*
D81*
X1430000Y355000D02*
D03*
D82*
X1382000Y380000D02*
D03*
Y320000D02*
D03*
D83*
X1511250Y405000D02*
D03*
X1501000Y405500D02*
D03*
X1501250Y395750D02*
D03*
X1511500D02*
D03*
X1521500D02*
D03*
X1521000Y405750D02*
D03*
X1521250Y415250D02*
D03*
X1511250D02*
D03*
X1501250D02*
D03*
X1506174Y486492D02*
D03*
X1500952Y490429D02*
D03*
X1486000Y548750D02*
D03*
X1534050Y614000D02*
D03*
X1478500Y516750D02*
D03*
X1494834Y485834D02*
D03*
X1705368Y662000D02*
D03*
X1700997Y657134D02*
D03*
X1700750Y667000D02*
D03*
X1490500Y490750D02*
D03*
X1707110Y640652D02*
D03*
X1705000Y672000D02*
D03*
X1641000Y667000D02*
D03*
X1540500Y540000D02*
D03*
X1646000Y682500D02*
D03*
X1751500Y620750D02*
D03*
X1767500Y660500D02*
D03*
X1766500Y678250D02*
D03*
X1713500Y732000D02*
D03*
X1699500D02*
D03*
X1685500D02*
D03*
X1671500D02*
D03*
X1597500Y682750D02*
D03*
X1657477Y732000D02*
D03*
X1641000Y637250D02*
D03*
X1651000Y617000D02*
D03*
X1661000D02*
D03*
X1676000D02*
D03*
X1750500Y638500D02*
D03*
X1763500Y589750D02*
D03*
X1638500Y571000D02*
D03*
X1652500D02*
D03*
X1666500D02*
D03*
X1680500D02*
D03*
X1708750D02*
D03*
X1694750D02*
D03*
X1685750Y484250D02*
D03*
X1727750D02*
D03*
X1768750Y425000D02*
D03*
X1471750Y334250D02*
D03*
X1480750Y317250D02*
D03*
X1544750D02*
D03*
X1556750Y334250D02*
D03*
X1513500Y335750D02*
D03*
X1486750Y348250D02*
D03*
X1550500Y458750D02*
D03*
X1597500Y640750D02*
D03*
Y626750D02*
D03*
Y612750D02*
D03*
X1588500Y595750D02*
D03*
X1568000Y560000D02*
D03*
X1531500Y487500D02*
D03*
X1478500Y510000D02*
D03*
X1466500Y576000D02*
D03*
X1457500Y593000D02*
D03*
X1521350Y614000D02*
D03*
X1333000Y721000D02*
D03*
X1326250Y608500D02*
D03*
X1349500Y630460D02*
D03*
X1420000Y608500D02*
D03*
X1412750Y510200D02*
D03*
X1448250Y557250D02*
D03*
X1428500Y550000D02*
D03*
X1429750Y532200D02*
D03*
X1448250Y484250D02*
D03*
X1414000Y492250D02*
D03*
X1426250Y431750D02*
D03*
X1362450Y407250D02*
D03*
X1343500Y410500D02*
D03*
X1331500Y453750D02*
D03*
M02*
