G04*
G04 #@! TF.GenerationSoftware,Altium Limited,Altium Designer,20.0.12 (288)*
G04*
G04 Layer_Color=16711935*
%FSLAX44Y44*%
%MOMM*%
G71*
G01*
G75*
%ADD54O,5.2032X2.6032*%
%ADD55O,2.6032X5.2032*%
%ADD56C,0.8532*%
%ADD57O,1.2032X2.2032*%
%ADD58O,1.1032X2.0032*%
%ADD59C,1.7272*%
%ADD60C,3.4532*%
%ADD61C,2.6482*%
%ADD62C,1.7332*%
%ADD63C,1.6012*%
%ADD64R,1.6012X1.6012*%
%ADD65C,5.2032*%
%ADD66C,0.6032*%
D54*
X1386000Y332500D02*
D03*
Y392500D02*
D03*
D55*
X1434000Y367500D02*
D03*
D56*
X1479240Y297720D02*
D03*
X1538620Y304800D02*
D03*
D57*
X1466470Y309600D02*
D03*
X1552970D02*
D03*
D58*
X1466470Y267800D02*
D03*
X1552970D02*
D03*
D59*
X1384000Y697250D02*
D03*
Y718850D02*
D03*
Y740450D02*
D03*
Y762050D02*
D03*
D60*
X1612600Y365200D02*
D03*
X1726900D02*
D03*
D61*
X1747200Y395700D02*
D03*
X1592300D02*
D03*
D62*
X1710600Y316200D02*
D03*
X1736000D02*
D03*
X1628900D02*
D03*
X1603500D02*
D03*
D63*
X1714150Y454100D02*
D03*
X1701450Y428700D02*
D03*
X1688750Y454100D02*
D03*
X1676050Y428700D02*
D03*
X1663350Y454100D02*
D03*
X1650650Y428700D02*
D03*
X1637950Y454100D02*
D03*
D64*
X1625250Y428700D02*
D03*
D65*
X1752250Y814000D02*
D03*
X1333500D02*
D03*
X1752250Y514250D02*
D03*
X1333750Y514500D02*
D03*
D66*
X1579000Y656500D02*
D03*
X1744500Y647500D02*
D03*
X1736000Y640250D02*
D03*
X1719500Y497000D02*
D03*
X1481500Y371250D02*
D03*
X1365450Y420250D02*
D03*
X1321470Y639500D02*
D03*
X1401750Y639750D02*
D03*
M02*
