G04*
G04 #@! TF.GenerationSoftware,Altium Limited,Altium Designer,20.0.12 (288)*
G04*
G04 Layer_Physical_Order=2*
G04 Layer_Color=8865052*
%FSLAX44Y44*%
%MOMM*%
G71*
G01*
G75*
%ADD10C,0.2000*%
%ADD72O,5.0000X2.4000*%
%ADD73O,2.4000X5.0000*%
%ADD74C,0.6500*%
%ADD75O,1.0000X2.0000*%
%ADD76O,0.9000X1.8000*%
%ADD77C,1.5240*%
%ADD78C,3.2500*%
%ADD79C,2.4450*%
%ADD80C,1.5300*%
%ADD81C,1.3980*%
%ADD82R,1.3980X1.3980*%
%ADD83C,5.0000*%
%ADD84C,0.4000*%
G36*
X1752750Y854750D02*
X1755388Y854750D01*
X1760620Y854061D01*
X1765717Y852695D01*
X1770593Y850676D01*
X1775163Y848037D01*
X1779349Y844825D01*
X1783080Y841094D01*
X1786293Y836907D01*
X1788931Y832337D01*
X1790950Y827462D01*
X1792316Y822365D01*
X1793005Y817133D01*
X1793005Y814495D01*
X1793005Y814495D01*
X1793005Y814495D01*
X1793005Y294832D01*
X1793005Y292204D01*
X1792319Y286995D01*
X1790959Y281920D01*
X1788949Y277066D01*
X1786322Y272516D01*
X1783123Y268347D01*
X1779408Y264632D01*
X1775239Y261433D01*
X1770689Y258806D01*
X1765835Y256796D01*
X1760760Y255436D01*
X1755550Y254750D01*
X1752923Y254750D01*
X1752923Y254750D01*
X1752923Y254750D01*
X1333356D01*
X1330711Y254750D01*
X1325467Y255440D01*
X1320358Y256809D01*
X1315471Y258834D01*
X1310890Y261478D01*
X1306694Y264698D01*
X1302953Y268438D01*
X1299733Y272635D01*
X1297089Y277216D01*
X1295064Y282103D01*
X1293695Y287212D01*
X1293005Y292456D01*
X1293005Y295101D01*
X1293005Y295101D01*
X1293005Y814002D01*
Y816673D01*
X1293702Y821969D01*
X1295085Y827128D01*
X1297129Y832063D01*
X1299800Y836689D01*
X1303051Y840927D01*
X1306828Y844704D01*
X1311066Y847955D01*
X1315692Y850626D01*
X1320627Y852670D01*
X1325787Y854053D01*
X1331082Y854750D01*
X1333753Y854750D01*
X1333753Y854750D01*
X1752750Y854750D01*
D02*
G37*
%LPC*%
G36*
X1752250Y840582D02*
X1748092Y840255D01*
X1744036Y839281D01*
X1740182Y837685D01*
X1736626Y835505D01*
X1733454Y832796D01*
X1730745Y829624D01*
X1728565Y826068D01*
X1726969Y822214D01*
X1725995Y818158D01*
X1725668Y814000D01*
X1725995Y809842D01*
X1726969Y805786D01*
X1728565Y801932D01*
X1730745Y798375D01*
X1733454Y795204D01*
X1736626Y792495D01*
X1740182Y790315D01*
X1744036Y788719D01*
X1748092Y787745D01*
X1752250Y787418D01*
X1756408Y787745D01*
X1760464Y788719D01*
X1764318Y790315D01*
X1767874Y792495D01*
X1771046Y795204D01*
X1773755Y798375D01*
X1775935Y801932D01*
X1777531Y805786D01*
X1778505Y809842D01*
X1778832Y814000D01*
X1778505Y818158D01*
X1777531Y822214D01*
X1775935Y826068D01*
X1773755Y829624D01*
X1771046Y832796D01*
X1767874Y835505D01*
X1764318Y837685D01*
X1760464Y839281D01*
X1756408Y840255D01*
X1752250Y840582D01*
D02*
G37*
G36*
X1333500D02*
X1329342Y840255D01*
X1325286Y839281D01*
X1321432Y837685D01*
X1317876Y835505D01*
X1314704Y832796D01*
X1311995Y829624D01*
X1309815Y826068D01*
X1308219Y822214D01*
X1307245Y818158D01*
X1306918Y814000D01*
X1307245Y809842D01*
X1308219Y805786D01*
X1309815Y801932D01*
X1311995Y798375D01*
X1314704Y795204D01*
X1317876Y792495D01*
X1321432Y790315D01*
X1325286Y788719D01*
X1329342Y787745D01*
X1333500Y787418D01*
X1337658Y787745D01*
X1341714Y788719D01*
X1345568Y790315D01*
X1349124Y792495D01*
X1352296Y795204D01*
X1355005Y798375D01*
X1357185Y801932D01*
X1358781Y805786D01*
X1359755Y809842D01*
X1360082Y814000D01*
X1359755Y818158D01*
X1358781Y822214D01*
X1357185Y826068D01*
X1355005Y829624D01*
X1352296Y832796D01*
X1349124Y835505D01*
X1345568Y837685D01*
X1341714Y839281D01*
X1337658Y840255D01*
X1333500Y840582D01*
D02*
G37*
G36*
X1384000Y771249D02*
X1381619Y770935D01*
X1379401Y770016D01*
X1377496Y768554D01*
X1376034Y766649D01*
X1375115Y764431D01*
X1374801Y762050D01*
X1375115Y759669D01*
X1376034Y757451D01*
X1377496Y755546D01*
X1379401Y754084D01*
X1381619Y753165D01*
X1384000Y752851D01*
X1386381Y753165D01*
X1388599Y754084D01*
X1390504Y755546D01*
X1391966Y757451D01*
X1392885Y759669D01*
X1393199Y762050D01*
X1392885Y764431D01*
X1391966Y766649D01*
X1390504Y768554D01*
X1388599Y770016D01*
X1386381Y770935D01*
X1384000Y771249D01*
D02*
G37*
G36*
Y749649D02*
X1381619Y749335D01*
X1379401Y748416D01*
X1377496Y746954D01*
X1376034Y745049D01*
X1375115Y742831D01*
X1374801Y740450D01*
X1375115Y738069D01*
X1376034Y735851D01*
X1377496Y733945D01*
X1379401Y732484D01*
X1381619Y731565D01*
X1384000Y731251D01*
X1386381Y731565D01*
X1388599Y732484D01*
X1390504Y733945D01*
X1391966Y735851D01*
X1392885Y738069D01*
X1393199Y740450D01*
X1392885Y742831D01*
X1391966Y745049D01*
X1390504Y746954D01*
X1388599Y748416D01*
X1386381Y749335D01*
X1384000Y749649D01*
D02*
G37*
G36*
Y728049D02*
X1381619Y727735D01*
X1379401Y726816D01*
X1377496Y725355D01*
X1376034Y723449D01*
X1375115Y721231D01*
X1374801Y718850D01*
X1375115Y716469D01*
X1376034Y714251D01*
X1377496Y712346D01*
X1379401Y710884D01*
X1381619Y709965D01*
X1384000Y709651D01*
X1386381Y709965D01*
X1388599Y710884D01*
X1390504Y712346D01*
X1391966Y714251D01*
X1392885Y716469D01*
X1393199Y718850D01*
X1392885Y721231D01*
X1391966Y723449D01*
X1390504Y725355D01*
X1388599Y726816D01*
X1386381Y727735D01*
X1384000Y728049D01*
D02*
G37*
G36*
X1603750Y710569D02*
X1602384Y710297D01*
X1601227Y709523D01*
X1600453Y708366D01*
X1600181Y707000D01*
X1600453Y705634D01*
X1601227Y704477D01*
X1601233Y704472D01*
Y702945D01*
X1600977Y702773D01*
X1600203Y701616D01*
X1599931Y700250D01*
X1600203Y698884D01*
X1600553Y698361D01*
X1599874Y697091D01*
X1556357D01*
X1555381Y696897D01*
X1554554Y696344D01*
X1543174Y684964D01*
X1542621Y684137D01*
X1542427Y683161D01*
Y621563D01*
X1540663Y619799D01*
X1459750D01*
X1459560Y620369D01*
X1459539Y621069D01*
X1460523Y621727D01*
X1461297Y622884D01*
X1461569Y624250D01*
X1461297Y625616D01*
X1460704Y626502D01*
X1460701Y626539D01*
X1460701Y626586D01*
X1460695Y626601D01*
X1460694Y626618D01*
X1460674Y626656D01*
X1460670Y626670D01*
X1460658Y626719D01*
X1460649Y626777D01*
X1460626Y627049D01*
X1460623Y627212D01*
X1460549Y627383D01*
Y670250D01*
X1460355Y671226D01*
X1459802Y672052D01*
X1451302Y680552D01*
X1450475Y681105D01*
X1449500Y681299D01*
X1356904D01*
X1356745Y681372D01*
X1356384Y681386D01*
X1356297Y681396D01*
X1356219Y681408D01*
X1356170Y681420D01*
X1356156Y681424D01*
X1356118Y681444D01*
X1356101Y681445D01*
X1356086Y681451D01*
X1356039Y681451D01*
X1356003Y681454D01*
X1355116Y682047D01*
X1353750Y682319D01*
X1352384Y682047D01*
X1351227Y681273D01*
X1350453Y680116D01*
X1350181Y678750D01*
X1350453Y677384D01*
X1351227Y676227D01*
X1352384Y675453D01*
X1353750Y675181D01*
X1355116Y675453D01*
X1356003Y676046D01*
X1356039Y676049D01*
X1356086Y676049D01*
X1356101Y676055D01*
X1356118Y676056D01*
X1356156Y676076D01*
X1356170Y676080D01*
X1356219Y676092D01*
X1356277Y676101D01*
X1356549Y676124D01*
X1356712Y676127D01*
X1356883Y676201D01*
X1448444D01*
X1455451Y669194D01*
Y627404D01*
X1455378Y627244D01*
X1455364Y626884D01*
X1455354Y626797D01*
X1455342Y626719D01*
X1455331Y626670D01*
X1455326Y626656D01*
X1455306Y626618D01*
X1455305Y626601D01*
X1455299Y626586D01*
X1455299Y626539D01*
X1455296Y626502D01*
X1454703Y625616D01*
X1454431Y624250D01*
X1454703Y622884D01*
X1455477Y621727D01*
X1456461Y621069D01*
X1456440Y620369D01*
X1456250Y619799D01*
X1449247D01*
X1448271Y619605D01*
X1448187Y619549D01*
X1442546D01*
X1441570Y619355D01*
X1440743Y618802D01*
X1429948Y608007D01*
X1429395Y607180D01*
X1429201Y606204D01*
Y512876D01*
X1429395Y511901D01*
X1429948Y511074D01*
X1439324Y501698D01*
X1440151Y501145D01*
X1441126Y500951D01*
X1455250D01*
X1456225Y501145D01*
X1457052Y501698D01*
X1460052Y504698D01*
X1460605Y505524D01*
X1460799Y506500D01*
Y508596D01*
X1460872Y508755D01*
X1460886Y509116D01*
X1460896Y509203D01*
X1460908Y509281D01*
X1460919Y509330D01*
X1460924Y509344D01*
X1460944Y509382D01*
X1460945Y509399D01*
X1460951Y509414D01*
X1460951Y509461D01*
X1460954Y509497D01*
X1461547Y510384D01*
X1461819Y511750D01*
X1461547Y513116D01*
X1460773Y514273D01*
X1459616Y515047D01*
X1458250Y515319D01*
X1457069Y515084D01*
X1455980Y515530D01*
X1455799Y515627D01*
Y531596D01*
X1455872Y531756D01*
X1455886Y532116D01*
X1455896Y532203D01*
X1455908Y532281D01*
X1455919Y532330D01*
X1455924Y532344D01*
X1455944Y532382D01*
X1455945Y532399D01*
X1455951Y532414D01*
X1455951Y532461D01*
X1455954Y532497D01*
X1456547Y533384D01*
X1456819Y534750D01*
X1456547Y536116D01*
X1455773Y537273D01*
X1454616Y538047D01*
X1453250Y538319D01*
X1451884Y538047D01*
X1450727Y537273D01*
X1449953Y536116D01*
X1449681Y534750D01*
X1449953Y533384D01*
X1450546Y532497D01*
X1450549Y532461D01*
X1450549Y532414D01*
X1450555Y532399D01*
X1450556Y532382D01*
X1450576Y532344D01*
X1450580Y532330D01*
X1450592Y532281D01*
X1450601Y532223D01*
X1450624Y531951D01*
X1450627Y531788D01*
X1450701Y531617D01*
Y515993D01*
X1449431Y515314D01*
X1449184Y515479D01*
X1447818Y515751D01*
X1446452Y515479D01*
X1445728Y514995D01*
X1445687Y514983D01*
X1445677Y514981D01*
X1445608Y514977D01*
X1445585Y514978D01*
X1445578Y514975D01*
X1445561Y514974D01*
X1445521Y514955D01*
X1445509Y514953D01*
X1445501Y514948D01*
X1445487Y514944D01*
X1445430Y514932D01*
X1445363Y514922D01*
X1445082Y514900D01*
X1444914Y514897D01*
X1444743Y514823D01*
X1443307D01*
X1441799Y516331D01*
Y530350D01*
X1443069Y531117D01*
X1444000Y530931D01*
X1445366Y531203D01*
X1446523Y531977D01*
X1447297Y533134D01*
X1447569Y534500D01*
X1447297Y535866D01*
X1446704Y536753D01*
X1446701Y536789D01*
X1446701Y536836D01*
X1446695Y536851D01*
X1446694Y536868D01*
X1446674Y536906D01*
X1446669Y536920D01*
X1446658Y536969D01*
X1446649Y537027D01*
X1446626Y537299D01*
X1446623Y537462D01*
X1446549Y537633D01*
Y602549D01*
X1447951Y603951D01*
X1491040D01*
X1491225Y603503D01*
X1491430Y602681D01*
X1490961Y601980D01*
X1490833Y601333D01*
X1490694Y601031D01*
X1490703Y601006D01*
X1490693Y600982D01*
X1490691Y600780D01*
X1490679Y600462D01*
X1490678Y600451D01*
X1489953Y599366D01*
X1489681Y598000D01*
X1489953Y596634D01*
X1490727Y595477D01*
X1491884Y594703D01*
X1493250Y594431D01*
X1494616Y594703D01*
X1495773Y595477D01*
X1496547Y596634D01*
X1496819Y598000D01*
X1496590Y599148D01*
X1497021Y599971D01*
X1497371Y600418D01*
X1539496D01*
X1540201Y599713D01*
Y557558D01*
X1540395Y556582D01*
X1540948Y555755D01*
X1547255Y549448D01*
X1548082Y548895D01*
X1549058Y548701D01*
X1560346D01*
X1560506Y548628D01*
X1560866Y548614D01*
X1560953Y548604D01*
X1561031Y548592D01*
X1561080Y548581D01*
X1561094Y548576D01*
X1561132Y548556D01*
X1561149Y548555D01*
X1561164Y548549D01*
X1561211Y548549D01*
X1561248Y548546D01*
X1562134Y547953D01*
X1563500Y547681D01*
X1564681Y547916D01*
X1565769Y547470D01*
X1565951Y547373D01*
Y538250D01*
X1566145Y537275D01*
X1566698Y536448D01*
X1569948Y533198D01*
X1570775Y532645D01*
X1571750Y532451D01*
X1576574D01*
X1577458Y531181D01*
X1577322Y530500D01*
X1577594Y529134D01*
X1578368Y527977D01*
X1579525Y527203D01*
X1580891Y526931D01*
X1582257Y527203D01*
X1583143Y527796D01*
X1583180Y527799D01*
X1583227Y527799D01*
X1583242Y527805D01*
X1583259Y527806D01*
X1583297Y527826D01*
X1583311Y527831D01*
X1583360Y527842D01*
X1583418Y527851D01*
X1583690Y527874D01*
X1583853Y527877D01*
X1584024Y527951D01*
X1587346D01*
X1587505Y527878D01*
X1587866Y527864D01*
X1587953Y527854D01*
X1588031Y527842D01*
X1588080Y527831D01*
X1588094Y527826D01*
X1588132Y527806D01*
X1588149Y527805D01*
X1588164Y527799D01*
X1588211Y527799D01*
X1588248Y527796D01*
X1589134Y527203D01*
X1590500Y526931D01*
X1591866Y527203D01*
X1592523Y527642D01*
X1593841Y527270D01*
X1593945Y527181D01*
X1594448Y526428D01*
X1596546Y524330D01*
X1597372Y523778D01*
X1597902Y523672D01*
X1598200Y523516D01*
X1598263Y523535D01*
X1598323Y523509D01*
X1598465Y523507D01*
X1598652Y523227D01*
X1599810Y522453D01*
X1601176Y522181D01*
X1602541Y522453D01*
X1603699Y523227D01*
X1604473Y524384D01*
X1604744Y525750D01*
X1604473Y527116D01*
X1603699Y528273D01*
X1602541Y529047D01*
X1601176Y529319D01*
X1599984Y529082D01*
X1599262Y529509D01*
X1598799Y529899D01*
Y532750D01*
X1598605Y533726D01*
X1598052Y534552D01*
X1595802Y536802D01*
X1594975Y537355D01*
X1594000Y537549D01*
X1572806D01*
X1571049Y539306D01*
Y553500D01*
X1570855Y554475D01*
X1570302Y555302D01*
X1567552Y558052D01*
X1566725Y558605D01*
X1565750Y558799D01*
X1550063D01*
X1548875Y559987D01*
Y599520D01*
X1560858Y611503D01*
X1561410Y612330D01*
X1561604Y613305D01*
Y676064D01*
X1621451D01*
X1621535Y676012D01*
X1621655Y676040D01*
X1621767Y675990D01*
X1621800Y675989D01*
X1622477Y674977D01*
X1623634Y674203D01*
X1625000Y673931D01*
X1626366Y674203D01*
X1627523Y674977D01*
X1628297Y676134D01*
X1628569Y677500D01*
X1628383Y678431D01*
X1629150Y679701D01*
X1682623D01*
X1682720Y679520D01*
X1683166Y678431D01*
X1682931Y677250D01*
X1683203Y675884D01*
X1683977Y674727D01*
X1685134Y673953D01*
X1686500Y673681D01*
X1687866Y673953D01*
X1688752Y674546D01*
X1688789Y674549D01*
X1688836Y674549D01*
X1688851Y674555D01*
X1688868Y674556D01*
X1688906Y674576D01*
X1688920Y674581D01*
X1688969Y674592D01*
X1689027Y674601D01*
X1689299Y674624D01*
X1689462Y674627D01*
X1689633Y674701D01*
X1737500D01*
X1738475Y674895D01*
X1739302Y675448D01*
X1747302Y683448D01*
X1747855Y684275D01*
X1748049Y685250D01*
Y688827D01*
X1748273Y688977D01*
X1749047Y690134D01*
X1749319Y691500D01*
X1749047Y692866D01*
X1748273Y694023D01*
X1747116Y694797D01*
X1745750Y695069D01*
X1744384Y694797D01*
X1743227Y694023D01*
X1742453Y692866D01*
X1742181Y691500D01*
X1742453Y690134D01*
X1742951Y689389D01*
Y686306D01*
X1736444Y679799D01*
X1713627D01*
X1713530Y679980D01*
X1713084Y681069D01*
X1713319Y682250D01*
X1713047Y683616D01*
X1712273Y684773D01*
X1711116Y685547D01*
X1709750Y685819D01*
X1708384Y685547D01*
X1707498Y684954D01*
X1707461Y684951D01*
X1707414Y684951D01*
X1707399Y684945D01*
X1707382Y684944D01*
X1707344Y684924D01*
X1707330Y684920D01*
X1707281Y684908D01*
X1707223Y684899D01*
X1706951Y684876D01*
X1706788Y684873D01*
X1706617Y684799D01*
X1690682D01*
X1690003Y686069D01*
X1690047Y686134D01*
X1690319Y687500D01*
X1690133Y688431D01*
X1690900Y689701D01*
X1706346D01*
X1706506Y689628D01*
X1706866Y689614D01*
X1706953Y689604D01*
X1707031Y689592D01*
X1707080Y689581D01*
X1707094Y689576D01*
X1707132Y689556D01*
X1707149Y689555D01*
X1707164Y689549D01*
X1707211Y689549D01*
X1707247Y689546D01*
X1708134Y688953D01*
X1709500Y688681D01*
X1710866Y688953D01*
X1712023Y689727D01*
X1712797Y690884D01*
X1713069Y692250D01*
X1712797Y693616D01*
X1712023Y694773D01*
X1710866Y695547D01*
X1709500Y695819D01*
X1708134Y695547D01*
X1707247Y694954D01*
X1707211Y694951D01*
X1707164Y694951D01*
X1707149Y694945D01*
X1707132Y694944D01*
X1707094Y694924D01*
X1707080Y694920D01*
X1707031Y694908D01*
X1706973Y694899D01*
X1706701Y694876D01*
X1706538Y694873D01*
X1706367Y694799D01*
X1690627D01*
X1690530Y694980D01*
X1690084Y696069D01*
X1690319Y697250D01*
X1691474Y697951D01*
X1764693D01*
X1767951Y694693D01*
Y657563D01*
X1766778Y657077D01*
X1764802Y659052D01*
X1763976Y659605D01*
X1763000Y659799D01*
X1711235D01*
X1710116Y660547D01*
X1708750Y660819D01*
X1707384Y660547D01*
X1706227Y659773D01*
X1705453Y658616D01*
X1705181Y657250D01*
X1705453Y655884D01*
X1706227Y654727D01*
X1706823Y654328D01*
X1707098Y652872D01*
X1707066Y652754D01*
X1706556Y651990D01*
X1706362Y651014D01*
Y650544D01*
X1706294Y650416D01*
X1706313Y650356D01*
X1706287Y650299D01*
X1706284Y650121D01*
X1706276Y650001D01*
X1706264Y649907D01*
X1706253Y649842D01*
X1706246Y649815D01*
X1706234Y649796D01*
X1706232Y649780D01*
X1706230Y649775D01*
X1706227Y649773D01*
X1705453Y648616D01*
X1705181Y647250D01*
X1705453Y645884D01*
X1706227Y644727D01*
X1707384Y643953D01*
X1708750Y643681D01*
X1710116Y643953D01*
X1711273Y644727D01*
X1712047Y645884D01*
X1712319Y647250D01*
X1712047Y648616D01*
X1711635Y649232D01*
X1711621Y649287D01*
X1711617Y649312D01*
X1711615Y649396D01*
X1711615Y649401D01*
X1711615Y649403D01*
X1711614Y649419D01*
X1711598Y649455D01*
X1711596Y649467D01*
X1711588Y649482D01*
X1711580Y649509D01*
X1711568Y649573D01*
X1711557Y649646D01*
X1711537Y649934D01*
X1711535Y650034D01*
X1712702Y651201D01*
X1760495D01*
X1760851Y650844D01*
Y561447D01*
X1759493Y560089D01*
X1619483D01*
X1618507Y559895D01*
X1617680Y559342D01*
X1608753Y550415D01*
X1608200Y549588D01*
X1608006Y548612D01*
Y392861D01*
X1606705Y391559D01*
X1605703Y392354D01*
X1606143Y395700D01*
X1605672Y399283D01*
X1604289Y402622D01*
X1602089Y405489D01*
X1599222Y407689D01*
X1595883Y409072D01*
X1592300Y409543D01*
X1588717Y409072D01*
X1585378Y407689D01*
X1582511Y405489D01*
X1580311Y402622D01*
X1578928Y399283D01*
X1578457Y395700D01*
X1578928Y392117D01*
X1580311Y388778D01*
X1582511Y385911D01*
X1585378Y383711D01*
X1588136Y382569D01*
X1587883Y381299D01*
X1581000D01*
X1580025Y381105D01*
X1579198Y380552D01*
X1574448Y375802D01*
X1573895Y374976D01*
X1573701Y374000D01*
Y344904D01*
X1573628Y344744D01*
X1573614Y344384D01*
X1573604Y344297D01*
X1573592Y344219D01*
X1573580Y344170D01*
X1573576Y344156D01*
X1573556Y344118D01*
X1573555Y344101D01*
X1573549Y344086D01*
X1573549Y344039D01*
X1573546Y344002D01*
X1572953Y343116D01*
X1572681Y341750D01*
X1572953Y340384D01*
X1573727Y339227D01*
X1574884Y338453D01*
X1576250Y338181D01*
X1577616Y338453D01*
X1578773Y339227D01*
X1579547Y340384D01*
X1579819Y341750D01*
X1579547Y343116D01*
X1578954Y344002D01*
X1578951Y344039D01*
X1578951Y344086D01*
X1578945Y344101D01*
X1578944Y344118D01*
X1578924Y344156D01*
X1578920Y344170D01*
X1578908Y344219D01*
X1578899Y344277D01*
X1578876Y344549D01*
X1578873Y344712D01*
X1578799Y344883D01*
Y372944D01*
X1582056Y376201D01*
X1597023D01*
X1597577Y375392D01*
X1597659Y375187D01*
X1597694Y374966D01*
X1596122Y372025D01*
X1595107Y368680D01*
X1594764Y365200D01*
X1595107Y361720D01*
X1596122Y358374D01*
X1597770Y355291D01*
X1599988Y352588D01*
X1602691Y350370D01*
X1605775Y348722D01*
X1609120Y347707D01*
X1612600Y347364D01*
X1616080Y347707D01*
X1619426Y348722D01*
X1622509Y350370D01*
X1625212Y352588D01*
X1627430Y355291D01*
X1629078Y358374D01*
X1630093Y361720D01*
X1630436Y365200D01*
X1630093Y368680D01*
X1629078Y372025D01*
X1627430Y375109D01*
X1625212Y377812D01*
X1622509Y380030D01*
X1619426Y381678D01*
X1616080Y382693D01*
X1612600Y383036D01*
X1609120Y382693D01*
X1605775Y381678D01*
X1605127Y382772D01*
X1612358Y390003D01*
X1612910Y390830D01*
X1613104Y391805D01*
Y395132D01*
X1614277Y395618D01*
X1618948Y390948D01*
X1619775Y390395D01*
X1620750Y390201D01*
X1691444D01*
X1700451Y381194D01*
Y354000D01*
X1700645Y353025D01*
X1701198Y352198D01*
X1713948Y339448D01*
X1714775Y338895D01*
X1715750Y338701D01*
X1758846D01*
X1759005Y338628D01*
X1759366Y338614D01*
X1759453Y338604D01*
X1759531Y338592D01*
X1759580Y338581D01*
X1759594Y338576D01*
X1759632Y338556D01*
X1759649Y338555D01*
X1759664Y338549D01*
X1759711Y338549D01*
X1759747Y338546D01*
X1760634Y337953D01*
X1762000Y337681D01*
X1763366Y337953D01*
X1764523Y338727D01*
X1765297Y339884D01*
X1765569Y341250D01*
X1765297Y342616D01*
X1764523Y343773D01*
X1763366Y344547D01*
X1762000Y344819D01*
X1760634Y344547D01*
X1759747Y343954D01*
X1759711Y343951D01*
X1759664Y343951D01*
X1759649Y343945D01*
X1759632Y343944D01*
X1759594Y343924D01*
X1759580Y343919D01*
X1759531Y343908D01*
X1759473Y343899D01*
X1759201Y343876D01*
X1759038Y343873D01*
X1758867Y343799D01*
X1716806D01*
X1705549Y355056D01*
Y382250D01*
X1705355Y383225D01*
X1704802Y384052D01*
X1694302Y394552D01*
X1693475Y395105D01*
X1692500Y395299D01*
X1621806D01*
X1616604Y400501D01*
Y419005D01*
X1616760Y420210D01*
X1617874Y420210D01*
X1633740D01*
Y437190D01*
X1616760Y437190D01*
X1616604Y438395D01*
Y503433D01*
X1617874Y504317D01*
X1618555Y504181D01*
X1619921Y504453D01*
X1621078Y505227D01*
X1621464Y505804D01*
X1622987Y506077D01*
X1624117Y504948D01*
X1624944Y504395D01*
X1625919Y504201D01*
X1635596D01*
X1635756Y504128D01*
X1636116Y504114D01*
X1636203Y504104D01*
X1636281Y504092D01*
X1636330Y504081D01*
X1636344Y504076D01*
X1636382Y504056D01*
X1636399Y504055D01*
X1636414Y504049D01*
X1636461Y504049D01*
X1636497Y504046D01*
X1637384Y503453D01*
X1638750Y503181D01*
X1640116Y503453D01*
X1641273Y504227D01*
X1642047Y505384D01*
X1642319Y506750D01*
X1642047Y508116D01*
X1641273Y509273D01*
X1640116Y510047D01*
X1638750Y510319D01*
X1637384Y510047D01*
X1636497Y509454D01*
X1636461Y509451D01*
X1636414Y509451D01*
X1636399Y509445D01*
X1636382Y509444D01*
X1636344Y509424D01*
X1636330Y509420D01*
X1636281Y509408D01*
X1636223Y509399D01*
X1635951Y509376D01*
X1635788Y509373D01*
X1635617Y509299D01*
X1626975D01*
X1623969Y512305D01*
Y543572D01*
X1624644Y544247D01*
X1764654D01*
X1765630Y544441D01*
X1766456Y544994D01*
X1775802Y554340D01*
X1776355Y555167D01*
X1776549Y556142D01*
Y690750D01*
Y697199D01*
X1776355Y698174D01*
X1775802Y699001D01*
X1768751Y706052D01*
X1767924Y706605D01*
X1766949Y706799D01*
X1693056D01*
X1692802Y707052D01*
X1691976Y707605D01*
X1691000Y707799D01*
X1683436D01*
X1682461Y707605D01*
X1681634Y707052D01*
X1681131Y706549D01*
X1610556D01*
X1608463Y708642D01*
X1607636Y709194D01*
X1607054Y709310D01*
X1606727Y709462D01*
X1606697Y709451D01*
X1606668Y709463D01*
X1606479Y709464D01*
X1606310Y709469D01*
X1606273Y709523D01*
X1605116Y710297D01*
X1603750Y710569D01*
D02*
G37*
G36*
X1333750Y541082D02*
X1329592Y540755D01*
X1325536Y539781D01*
X1321682Y538185D01*
X1318125Y536005D01*
X1314954Y533296D01*
X1312245Y530125D01*
X1310065Y526568D01*
X1308469Y522714D01*
X1307495Y518658D01*
X1307168Y514500D01*
X1307495Y510342D01*
X1308469Y506286D01*
X1310065Y502432D01*
X1312245Y498876D01*
X1314954Y495704D01*
X1318125Y492995D01*
X1321682Y490815D01*
X1325536Y489219D01*
X1329592Y488245D01*
X1333750Y487918D01*
X1337908Y488245D01*
X1341964Y489219D01*
X1345818Y490815D01*
X1349375Y492995D01*
X1352546Y495704D01*
X1355255Y498876D01*
X1357435Y502432D01*
X1359031Y506286D01*
X1360005Y510342D01*
X1360332Y514500D01*
X1360005Y518658D01*
X1359031Y522714D01*
X1357435Y526568D01*
X1355255Y530125D01*
X1352546Y533296D01*
X1349375Y536005D01*
X1345818Y538185D01*
X1341964Y539781D01*
X1337908Y540755D01*
X1333750Y541082D01*
D02*
G37*
G36*
X1752250Y540832D02*
X1748092Y540505D01*
X1744036Y539531D01*
X1740182Y537935D01*
X1736626Y535755D01*
X1733454Y533046D01*
X1730745Y529874D01*
X1728565Y526318D01*
X1726969Y522464D01*
X1725995Y518408D01*
X1725668Y514250D01*
X1725995Y510092D01*
X1726969Y506036D01*
X1728565Y502182D01*
X1730745Y498625D01*
X1733454Y495454D01*
X1736626Y492745D01*
X1740182Y490565D01*
X1744036Y488969D01*
X1748092Y487995D01*
X1752250Y487668D01*
X1756408Y487995D01*
X1760464Y488969D01*
X1764318Y490565D01*
X1767874Y492745D01*
X1771046Y495454D01*
X1773755Y498625D01*
X1775935Y502182D01*
X1777531Y506036D01*
X1778505Y510092D01*
X1778832Y514250D01*
X1778505Y518408D01*
X1777531Y522464D01*
X1775935Y526318D01*
X1773755Y529874D01*
X1771046Y533046D01*
X1767874Y535755D01*
X1764318Y537935D01*
X1760464Y539531D01*
X1756408Y540505D01*
X1752250Y540832D01*
D02*
G37*
G36*
X1714150Y462663D02*
X1711934Y462371D01*
X1709868Y461516D01*
X1708095Y460155D01*
X1706734Y458382D01*
X1705879Y456316D01*
X1705587Y454100D01*
X1705879Y451884D01*
X1706734Y449818D01*
X1708095Y448045D01*
X1709868Y446684D01*
X1711934Y445829D01*
X1714150Y445537D01*
X1716366Y445829D01*
X1718432Y446684D01*
X1720205Y448045D01*
X1721566Y449818D01*
X1722422Y451884D01*
X1722713Y454100D01*
X1722422Y456316D01*
X1721566Y458382D01*
X1720205Y460155D01*
X1718432Y461516D01*
X1716366Y462371D01*
X1714150Y462663D01*
D02*
G37*
G36*
X1688750D02*
X1686534Y462371D01*
X1684468Y461516D01*
X1682695Y460155D01*
X1681334Y458382D01*
X1680479Y456316D01*
X1680187Y454100D01*
X1680479Y451884D01*
X1681334Y449818D01*
X1682695Y448045D01*
X1684468Y446684D01*
X1686534Y445829D01*
X1688750Y445537D01*
X1690966Y445829D01*
X1693032Y446684D01*
X1694805Y448045D01*
X1696166Y449818D01*
X1697021Y451884D01*
X1697313Y454100D01*
X1697021Y456316D01*
X1696166Y458382D01*
X1694805Y460155D01*
X1693032Y461516D01*
X1690966Y462371D01*
X1688750Y462663D01*
D02*
G37*
G36*
X1652692Y525720D02*
X1638172D01*
X1637196Y525527D01*
X1636369Y524974D01*
X1635198Y523802D01*
X1634645Y522975D01*
X1634451Y522000D01*
Y521904D01*
X1634378Y521744D01*
X1634364Y521384D01*
X1634354Y521297D01*
X1634342Y521219D01*
X1634330Y521170D01*
X1634326Y521156D01*
X1634306Y521118D01*
X1634305Y521101D01*
X1634299Y521086D01*
X1634299Y521039D01*
X1634296Y521003D01*
X1633703Y520116D01*
X1633431Y518750D01*
X1633703Y517384D01*
X1634477Y516227D01*
X1635634Y515453D01*
X1637000Y515181D01*
X1638366Y515453D01*
X1639523Y516227D01*
X1640297Y517384D01*
X1640569Y518750D01*
X1640449Y519353D01*
X1641369Y520623D01*
X1646798D01*
X1647601Y519353D01*
X1647431Y518500D01*
X1647638Y517459D01*
X1647624Y517416D01*
X1647735Y515714D01*
X1647737Y515399D01*
X1647811Y515221D01*
Y440031D01*
X1647742Y439897D01*
X1647713Y439549D01*
X1647646Y439254D01*
X1647513Y438879D01*
X1647305Y438432D01*
X1647018Y437921D01*
X1646670Y437383D01*
X1645040Y435330D01*
X1644355Y434579D01*
X1644261Y434320D01*
X1643234Y432982D01*
X1642379Y430916D01*
X1642087Y428700D01*
X1642379Y426484D01*
X1643234Y424418D01*
X1644595Y422645D01*
X1646368Y421284D01*
X1648434Y420429D01*
X1650650Y420137D01*
X1652866Y420429D01*
X1654932Y421284D01*
X1656705Y422645D01*
X1658066Y424418D01*
X1658922Y426484D01*
X1659148Y428201D01*
X1660397Y428713D01*
X1660432Y428714D01*
X1662248Y426898D01*
X1663075Y426345D01*
X1664050Y426151D01*
X1664671D01*
X1664806Y426082D01*
X1665164Y426053D01*
X1665459Y425984D01*
X1665826Y425851D01*
X1666259Y425643D01*
X1666750Y425355D01*
X1667293Y424984D01*
X1667870Y424540D01*
X1669200Y423361D01*
X1669917Y422653D01*
X1670063Y422593D01*
X1671768Y421284D01*
X1673834Y420429D01*
X1676050Y420137D01*
X1678266Y420429D01*
X1680332Y421284D01*
X1682105Y422645D01*
X1683466Y424418D01*
X1684321Y426484D01*
X1684613Y428700D01*
X1684321Y430916D01*
X1683466Y432982D01*
X1682105Y434755D01*
X1680332Y436116D01*
X1678266Y436971D01*
X1676050Y437263D01*
X1673834Y436971D01*
X1671768Y436116D01*
X1670063Y434807D01*
X1669917Y434748D01*
X1669200Y434039D01*
X1667870Y432860D01*
X1667293Y432416D01*
X1666751Y432046D01*
X1666259Y431757D01*
X1665826Y431549D01*
X1665459Y431416D01*
X1665164Y431348D01*
X1665019Y431336D01*
X1663595Y432760D01*
Y436018D01*
X1663401Y436994D01*
X1662848Y437821D01*
X1660616Y440052D01*
X1659790Y440605D01*
X1658814Y440799D01*
X1657806D01*
X1656409Y442196D01*
Y447233D01*
X1657679Y447750D01*
X1659068Y446684D01*
X1661134Y445829D01*
X1663350Y445537D01*
X1665566Y445829D01*
X1667632Y446684D01*
X1669405Y448045D01*
X1670766Y449818D01*
X1671622Y451884D01*
X1671913Y454100D01*
X1671622Y456316D01*
X1670766Y458382D01*
X1669405Y460155D01*
X1667632Y461516D01*
X1665566Y462371D01*
X1663350Y462663D01*
X1661134Y462371D01*
X1659068Y461516D01*
X1657679Y460450D01*
X1656409Y460967D01*
Y513774D01*
X1657302Y514668D01*
X1657855Y515494D01*
X1658049Y516470D01*
Y520364D01*
X1657855Y521339D01*
X1657302Y522166D01*
X1654495Y524974D01*
X1653668Y525527D01*
X1652692Y525720D01*
D02*
G37*
G36*
X1637950Y462663D02*
X1635734Y462371D01*
X1633668Y461516D01*
X1631895Y460155D01*
X1630534Y458382D01*
X1629679Y456316D01*
X1629387Y454100D01*
X1629679Y451884D01*
X1630534Y449818D01*
X1631895Y448045D01*
X1633668Y446684D01*
X1635734Y445829D01*
X1637950Y445537D01*
X1640166Y445829D01*
X1642232Y446684D01*
X1644005Y448045D01*
X1645366Y449818D01*
X1646221Y451884D01*
X1646513Y454100D01*
X1646221Y456316D01*
X1645366Y458382D01*
X1644005Y460155D01*
X1642232Y461516D01*
X1640166Y462371D01*
X1637950Y462663D01*
D02*
G37*
G36*
X1463875Y429444D02*
X1462509Y429172D01*
X1461352Y428398D01*
X1460578Y427241D01*
X1460306Y425875D01*
X1460578Y424509D01*
X1461352Y423352D01*
X1462509Y422578D01*
X1463875Y422306D01*
X1465241Y422578D01*
X1466016Y423097D01*
X1466044Y423105D01*
X1466047Y423106D01*
X1466113Y423110D01*
X1466142Y423109D01*
X1466151Y423113D01*
X1466168Y423114D01*
X1466211Y423135D01*
X1466223Y423137D01*
X1466227Y423140D01*
X1466235Y423143D01*
X1466290Y423154D01*
X1466354Y423164D01*
X1466632Y423186D01*
X1466798Y423189D01*
X1466969Y423264D01*
X1471060D01*
X1471218Y423190D01*
X1471575Y423176D01*
X1471657Y423167D01*
X1471730Y423154D01*
X1471774Y423144D01*
X1471778Y423142D01*
X1471810Y423125D01*
X1471826Y423123D01*
X1471848Y423114D01*
X1471896Y423113D01*
X1472884Y422453D01*
X1474250Y422181D01*
X1475616Y422453D01*
X1476773Y423227D01*
X1477547Y424384D01*
X1477819Y425750D01*
X1477547Y427116D01*
X1476773Y428273D01*
X1475616Y429047D01*
X1474250Y429319D01*
X1472884Y429047D01*
X1472109Y428529D01*
X1472081Y428520D01*
X1472077Y428519D01*
X1472014Y428515D01*
X1471983Y428516D01*
X1471974Y428512D01*
X1471957Y428511D01*
X1471914Y428490D01*
X1471902Y428488D01*
X1471898Y428485D01*
X1471890Y428483D01*
X1471835Y428470D01*
X1471771Y428461D01*
X1471493Y428439D01*
X1471327Y428436D01*
X1471156Y428362D01*
X1467065D01*
X1466907Y428435D01*
X1466550Y428449D01*
X1466467Y428458D01*
X1466395Y428471D01*
X1466351Y428481D01*
X1466347Y428483D01*
X1466315Y428500D01*
X1466298Y428502D01*
X1466277Y428511D01*
X1466229Y428512D01*
X1465241Y429172D01*
X1463875Y429444D01*
D02*
G37*
G36*
X1701450Y437263D02*
X1699234Y436971D01*
X1697168Y436116D01*
X1695395Y434755D01*
X1694034Y432982D01*
X1693179Y430916D01*
X1692887Y428700D01*
X1693179Y426484D01*
X1694034Y424418D01*
X1695395Y422645D01*
X1697168Y421284D01*
X1699234Y420429D01*
X1701450Y420137D01*
X1703666Y420429D01*
X1705732Y421284D01*
X1707505Y422645D01*
X1708866Y424418D01*
X1709722Y426484D01*
X1710013Y428700D01*
X1709722Y430916D01*
X1708866Y432982D01*
X1707505Y434755D01*
X1705732Y436116D01*
X1703666Y436971D01*
X1701450Y437263D01*
D02*
G37*
G36*
X1747200Y409543D02*
X1743617Y409072D01*
X1740278Y407689D01*
X1737411Y405489D01*
X1735211Y402622D01*
X1733828Y399283D01*
X1733357Y395700D01*
X1733828Y392117D01*
X1735211Y388778D01*
X1737411Y385911D01*
X1740278Y383711D01*
X1743617Y382328D01*
X1747200Y381856D01*
X1750783Y382328D01*
X1754122Y383711D01*
X1756989Y385911D01*
X1759189Y388778D01*
X1760572Y392117D01*
X1761044Y395700D01*
X1760572Y399283D01*
X1759189Y402622D01*
X1756989Y405489D01*
X1754122Y407689D01*
X1750783Y409072D01*
X1747200Y409543D01*
D02*
G37*
G36*
X1399000Y406116D02*
X1373000D01*
X1369476Y405653D01*
X1366192Y404292D01*
X1363372Y402128D01*
X1361208Y399308D01*
X1359848Y396024D01*
X1359384Y392500D01*
X1359848Y388976D01*
X1361208Y385692D01*
X1363372Y382872D01*
X1366192Y380708D01*
X1369476Y379347D01*
X1373000Y378884D01*
X1399000D01*
X1402524Y379347D01*
X1405808Y380708D01*
X1408628Y382872D01*
X1410792Y385692D01*
X1412153Y388976D01*
X1412616Y392500D01*
X1412153Y396024D01*
X1410792Y399308D01*
X1408628Y402128D01*
X1405808Y404292D01*
X1402524Y405653D01*
X1399000Y406116D01*
D02*
G37*
G36*
X1726900Y383036D02*
X1723421Y382693D01*
X1720075Y381678D01*
X1716991Y380030D01*
X1714288Y377812D01*
X1712070Y375109D01*
X1710422Y372025D01*
X1709407Y368680D01*
X1709064Y365200D01*
X1709407Y361720D01*
X1710422Y358374D01*
X1712070Y355291D01*
X1714288Y352588D01*
X1716991Y350370D01*
X1720075Y348722D01*
X1723421Y347707D01*
X1726900Y347364D01*
X1730380Y347707D01*
X1733725Y348722D01*
X1736809Y350370D01*
X1739512Y352588D01*
X1741730Y355291D01*
X1743378Y358374D01*
X1744393Y361720D01*
X1744736Y365200D01*
X1744393Y368680D01*
X1743378Y372025D01*
X1741730Y375109D01*
X1739512Y377812D01*
X1736809Y380030D01*
X1733725Y381678D01*
X1730380Y382693D01*
X1726900Y383036D01*
D02*
G37*
G36*
X1509250Y344319D02*
X1507884Y344047D01*
X1506727Y343273D01*
X1505953Y342116D01*
X1505681Y340750D01*
X1505953Y339384D01*
X1506727Y338227D01*
X1507884Y337453D01*
X1509250Y337181D01*
X1510616Y337453D01*
X1511503Y338046D01*
X1511539Y338049D01*
X1511586Y338049D01*
X1511601Y338055D01*
X1511618Y338056D01*
X1511656Y338076D01*
X1511670Y338080D01*
X1511719Y338092D01*
X1511777Y338101D01*
X1512049Y338124D01*
X1512212Y338127D01*
X1512383Y338201D01*
X1513694D01*
X1514701Y337194D01*
Y327904D01*
X1514628Y327744D01*
X1514614Y327384D01*
X1514604Y327297D01*
X1514592Y327219D01*
X1514581Y327170D01*
X1514576Y327156D01*
X1514556Y327118D01*
X1514555Y327101D01*
X1514549Y327086D01*
X1514549Y327039D01*
X1514546Y327002D01*
X1513953Y326116D01*
X1513681Y324750D01*
X1513953Y323384D01*
X1514727Y322227D01*
X1515884Y321453D01*
X1517250Y321181D01*
X1518616Y321453D01*
X1519773Y322227D01*
X1520547Y323384D01*
X1520819Y324750D01*
X1520547Y326116D01*
X1519954Y327002D01*
X1519951Y327039D01*
X1519951Y327086D01*
X1519945Y327101D01*
X1519944Y327118D01*
X1519924Y327156D01*
X1519919Y327170D01*
X1519908Y327219D01*
X1519899Y327277D01*
X1519876Y327549D01*
X1519873Y327712D01*
X1519799Y327883D01*
Y338250D01*
X1519605Y339226D01*
X1519052Y340052D01*
X1516552Y342552D01*
X1515726Y343105D01*
X1514750Y343299D01*
X1512404D01*
X1512244Y343372D01*
X1511884Y343386D01*
X1511797Y343396D01*
X1511719Y343408D01*
X1511670Y343419D01*
X1511656Y343424D01*
X1511618Y343444D01*
X1511601Y343445D01*
X1511586Y343451D01*
X1511539Y343451D01*
X1511503Y343454D01*
X1510616Y344047D01*
X1509250Y344319D01*
D02*
G37*
G36*
X1736000Y325429D02*
X1733611Y325114D01*
X1731386Y324193D01*
X1729474Y322726D01*
X1728008Y320814D01*
X1727086Y318589D01*
X1726771Y316200D01*
X1727086Y313811D01*
X1728008Y311586D01*
X1729474Y309674D01*
X1731386Y308207D01*
X1733611Y307285D01*
X1736000Y306971D01*
X1738389Y307285D01*
X1740614Y308207D01*
X1742526Y309674D01*
X1743992Y311586D01*
X1744915Y313811D01*
X1745229Y316200D01*
X1744915Y318589D01*
X1743992Y320814D01*
X1742526Y322726D01*
X1740614Y324193D01*
X1738389Y325114D01*
X1736000Y325429D01*
D02*
G37*
G36*
X1710600D02*
X1708211Y325114D01*
X1705986Y324193D01*
X1704074Y322726D01*
X1702608Y320814D01*
X1701686Y318589D01*
X1701371Y316200D01*
X1701686Y313811D01*
X1702608Y311586D01*
X1704074Y309674D01*
X1705986Y308207D01*
X1708211Y307285D01*
X1710600Y306971D01*
X1712989Y307285D01*
X1715215Y308207D01*
X1717126Y309674D01*
X1718593Y311586D01*
X1719514Y313811D01*
X1719829Y316200D01*
X1719514Y318589D01*
X1718593Y320814D01*
X1717126Y322726D01*
X1715215Y324193D01*
X1712989Y325114D01*
X1710600Y325429D01*
D02*
G37*
G36*
X1628900D02*
X1626511Y325114D01*
X1624286Y324193D01*
X1622374Y322726D01*
X1620908Y320814D01*
X1619986Y318589D01*
X1619671Y316200D01*
X1619986Y313811D01*
X1620908Y311586D01*
X1622374Y309674D01*
X1624286Y308207D01*
X1626511Y307285D01*
X1628900Y306971D01*
X1631289Y307285D01*
X1633515Y308207D01*
X1635426Y309674D01*
X1636893Y311586D01*
X1637814Y313811D01*
X1638129Y316200D01*
X1637814Y318589D01*
X1636893Y320814D01*
X1635426Y322726D01*
X1633515Y324193D01*
X1631289Y325114D01*
X1628900Y325429D01*
D02*
G37*
G36*
X1603500D02*
X1601111Y325114D01*
X1598886Y324193D01*
X1596974Y322726D01*
X1595508Y320814D01*
X1594586Y318589D01*
X1594271Y316200D01*
X1594586Y313811D01*
X1595508Y311586D01*
X1596974Y309674D01*
X1598886Y308207D01*
X1601111Y307285D01*
X1603500Y306971D01*
X1605889Y307285D01*
X1608114Y308207D01*
X1610026Y309674D01*
X1611492Y311586D01*
X1612415Y313811D01*
X1612729Y316200D01*
X1612415Y318589D01*
X1611492Y320814D01*
X1610026Y322726D01*
X1608114Y324193D01*
X1605889Y325114D01*
X1603500Y325429D01*
D02*
G37*
G36*
X1538620Y309643D02*
X1536767Y309274D01*
X1535195Y308225D01*
X1534146Y306653D01*
X1533777Y304800D01*
X1534146Y302947D01*
X1535195Y301375D01*
X1536767Y300326D01*
X1538620Y299957D01*
X1540473Y300326D01*
X1542045Y301375D01*
X1543094Y302947D01*
X1543463Y304800D01*
X1543094Y306653D01*
X1542045Y308225D01*
X1540473Y309274D01*
X1538620Y309643D01*
D02*
G37*
G36*
X1479240Y302563D02*
X1477387Y302194D01*
X1475815Y301145D01*
X1474766Y299573D01*
X1474397Y297720D01*
X1474766Y295867D01*
X1475815Y294295D01*
X1477387Y293246D01*
X1479240Y292877D01*
X1481093Y293246D01*
X1482664Y294295D01*
X1483714Y295867D01*
X1484083Y297720D01*
X1483714Y299573D01*
X1482664Y301145D01*
X1481093Y302194D01*
X1479240Y302563D01*
D02*
G37*
%LPD*%
G36*
X1605540Y707913D02*
X1605581Y707898D01*
X1605643Y707884D01*
X1605726Y707872D01*
X1605954Y707854D01*
X1606452Y707840D01*
X1606660Y707840D01*
X1606579Y705839D01*
X1605349Y705798D01*
X1605520Y707931D01*
X1605540Y707913D01*
D02*
G37*
G36*
X1604829Y701757D02*
X1604931Y701703D01*
X1605047Y701656D01*
X1605177Y701614D01*
X1605322Y701579D01*
X1605481Y701551D01*
X1605843Y701513D01*
X1606045Y701503D01*
X1606261Y701500D01*
X1606554Y699500D01*
X1606339Y699495D01*
X1605956Y699458D01*
X1605786Y699426D01*
X1605633Y699385D01*
X1605494Y699334D01*
X1605371Y699274D01*
X1605263Y699205D01*
X1605170Y699127D01*
X1605092Y699040D01*
X1604742Y701817D01*
X1604829Y701757D01*
D02*
G37*
G36*
X1685508Y695683D02*
X1685421Y695743D01*
X1685319Y695797D01*
X1685203Y695844D01*
X1685072Y695886D01*
X1684928Y695921D01*
X1684769Y695949D01*
X1684407Y695987D01*
X1684205Y695997D01*
X1683989Y696000D01*
X1683696Y698000D01*
X1683911Y698005D01*
X1684294Y698042D01*
X1684464Y698074D01*
X1684617Y698115D01*
X1684756Y698166D01*
X1684879Y698226D01*
X1684987Y698295D01*
X1685080Y698373D01*
X1685158Y698460D01*
X1685508Y695683D01*
D02*
G37*
G36*
X1708072Y690850D02*
X1707986Y690926D01*
X1707886Y690994D01*
X1707772Y691054D01*
X1707643Y691106D01*
X1707500Y691150D01*
X1707342Y691186D01*
X1707170Y691214D01*
X1706984Y691234D01*
X1706568Y691250D01*
Y693250D01*
X1706783Y693254D01*
X1707170Y693286D01*
X1707342Y693314D01*
X1707500Y693350D01*
X1707643Y693394D01*
X1707772Y693446D01*
X1707886Y693506D01*
X1707986Y693574D01*
X1708072Y693650D01*
Y690850D01*
D02*
G37*
G36*
X1708322Y680850D02*
X1708236Y680926D01*
X1708136Y680994D01*
X1708022Y681054D01*
X1707893Y681106D01*
X1707750Y681150D01*
X1707592Y681186D01*
X1707420Y681214D01*
X1707234Y681234D01*
X1706818Y681250D01*
Y683250D01*
X1707033Y683254D01*
X1707420Y683286D01*
X1707592Y683314D01*
X1707750Y683350D01*
X1707893Y683394D01*
X1708022Y683446D01*
X1708136Y683506D01*
X1708236Y683574D01*
X1708322Y683650D01*
Y680850D01*
D02*
G37*
G36*
X1355264Y680074D02*
X1355364Y680006D01*
X1355478Y679946D01*
X1355607Y679894D01*
X1355750Y679850D01*
X1355908Y679814D01*
X1356080Y679786D01*
X1356266Y679766D01*
X1356682Y679750D01*
Y677750D01*
X1356467Y677746D01*
X1356080Y677714D01*
X1355908Y677686D01*
X1355750Y677650D01*
X1355607Y677606D01*
X1355478Y677554D01*
X1355364Y677494D01*
X1355264Y677426D01*
X1355178Y677350D01*
Y680150D01*
X1355264Y680074D01*
D02*
G37*
G36*
X1624457Y679425D02*
X1623034Y677132D01*
X1623006Y677223D01*
X1622956Y677305D01*
X1622886Y677377D01*
X1622794Y677440D01*
X1622681Y677493D01*
X1622548Y677536D01*
X1622393Y677570D01*
X1622218Y677594D01*
X1622021Y677608D01*
X1621803Y677613D01*
X1622138Y679613D01*
X1624457Y679425D01*
D02*
G37*
G36*
X1688014Y678574D02*
X1688114Y678506D01*
X1688228Y678446D01*
X1688357Y678394D01*
X1688500Y678350D01*
X1688658Y678314D01*
X1688830Y678286D01*
X1689016Y678266D01*
X1689432Y678250D01*
Y676250D01*
X1689217Y676246D01*
X1688830Y676214D01*
X1688658Y676186D01*
X1688500Y676150D01*
X1688357Y676106D01*
X1688228Y676054D01*
X1688114Y675994D01*
X1688014Y675926D01*
X1687928Y675850D01*
Y678650D01*
X1688014Y678574D01*
D02*
G37*
G36*
X1709910Y650079D02*
X1709914Y649863D01*
X1709942Y649474D01*
X1709966Y649301D01*
X1709998Y649142D01*
X1710036Y648997D01*
X1710082Y648867D01*
X1710134Y648751D01*
X1710194Y648649D01*
X1710260Y648561D01*
X1707469Y648786D01*
X1707553Y648867D01*
X1707628Y648963D01*
X1707694Y649074D01*
X1707752Y649199D01*
X1707800Y649340D01*
X1707840Y649495D01*
X1707871Y649665D01*
X1707893Y649850D01*
X1707906Y650051D01*
X1707910Y650265D01*
X1709910Y650079D01*
D02*
G37*
G36*
X1459004Y626967D02*
X1459036Y626580D01*
X1459064Y626408D01*
X1459100Y626250D01*
X1459144Y626107D01*
X1459196Y625978D01*
X1459256Y625864D01*
X1459324Y625764D01*
X1459400Y625678D01*
X1456600D01*
X1456676Y625764D01*
X1456744Y625864D01*
X1456804Y625978D01*
X1456856Y626107D01*
X1456900Y626250D01*
X1456936Y626408D01*
X1456964Y626580D01*
X1456984Y626766D01*
X1457000Y627182D01*
X1459000D01*
X1459004Y626967D01*
D02*
G37*
G36*
X1494316Y600892D02*
X1494318Y600665D01*
X1494374Y599849D01*
X1494395Y599750D01*
X1494419Y599672D01*
X1494446Y599615D01*
X1494476Y599580D01*
X1492131Y599658D01*
X1492166Y599693D01*
X1492198Y599750D01*
X1492226Y599828D01*
X1492250Y599928D01*
X1492270Y600048D01*
X1492300Y600353D01*
X1492315Y600742D01*
X1492316Y600969D01*
X1494316Y600892D01*
D02*
G37*
G36*
X1562072Y549850D02*
X1561986Y549926D01*
X1561886Y549994D01*
X1561772Y550054D01*
X1561643Y550106D01*
X1561500Y550150D01*
X1561342Y550186D01*
X1561170Y550214D01*
X1560984Y550234D01*
X1560568Y550250D01*
Y552250D01*
X1560783Y552254D01*
X1561170Y552286D01*
X1561342Y552314D01*
X1561500Y552350D01*
X1561643Y552394D01*
X1561772Y552446D01*
X1561886Y552506D01*
X1561986Y552574D01*
X1562072Y552650D01*
Y549850D01*
D02*
G37*
G36*
X1445004Y537217D02*
X1445036Y536830D01*
X1445064Y536658D01*
X1445100Y536500D01*
X1445144Y536357D01*
X1445196Y536228D01*
X1445256Y536114D01*
X1445324Y536014D01*
X1445400Y535928D01*
X1442600D01*
X1442676Y536014D01*
X1442744Y536114D01*
X1442804Y536228D01*
X1442856Y536357D01*
X1442900Y536500D01*
X1442936Y536658D01*
X1442964Y536830D01*
X1442984Y537016D01*
X1443000Y537432D01*
X1445000D01*
X1445004Y537217D01*
D02*
G37*
G36*
X1454574Y533236D02*
X1454506Y533136D01*
X1454446Y533022D01*
X1454394Y532893D01*
X1454350Y532750D01*
X1454314Y532592D01*
X1454286Y532420D01*
X1454266Y532234D01*
X1454250Y531818D01*
X1452250D01*
X1452246Y532033D01*
X1452214Y532420D01*
X1452186Y532592D01*
X1452150Y532750D01*
X1452106Y532893D01*
X1452054Y533022D01*
X1451994Y533136D01*
X1451926Y533236D01*
X1451850Y533322D01*
X1454650D01*
X1454574Y533236D01*
D02*
G37*
G36*
X1589072Y529100D02*
X1588986Y529176D01*
X1588886Y529244D01*
X1588772Y529304D01*
X1588643Y529356D01*
X1588500Y529400D01*
X1588342Y529436D01*
X1588170Y529464D01*
X1587984Y529484D01*
X1587568Y529500D01*
Y531500D01*
X1587783Y531504D01*
X1588170Y531536D01*
X1588342Y531564D01*
X1588500Y531600D01*
X1588643Y531644D01*
X1588772Y531696D01*
X1588886Y531756D01*
X1588986Y531824D01*
X1589072Y531900D01*
Y529100D01*
D02*
G37*
G36*
X1582405Y531824D02*
X1582505Y531756D01*
X1582619Y531696D01*
X1582748Y531644D01*
X1582891Y531600D01*
X1583049Y531564D01*
X1583221Y531536D01*
X1583407Y531516D01*
X1583823Y531500D01*
Y529500D01*
X1583608Y529496D01*
X1583221Y529464D01*
X1583049Y529436D01*
X1582891Y529400D01*
X1582748Y529356D01*
X1582619Y529304D01*
X1582505Y529244D01*
X1582405Y529176D01*
X1582319Y529100D01*
Y531900D01*
X1582405Y531824D01*
D02*
G37*
G36*
X1599673Y527071D02*
X1599288Y525090D01*
X1599275Y525098D01*
X1599245Y525106D01*
X1599197Y525112D01*
X1599045Y525122D01*
X1598348Y525133D01*
X1598530Y527133D01*
X1599673Y527071D01*
D02*
G37*
G36*
X1446327Y510849D02*
X1446244Y510930D01*
X1446146Y511002D01*
X1446033Y511066D01*
X1445906Y511121D01*
X1445764Y511168D01*
X1445608Y511206D01*
X1445437Y511236D01*
X1445251Y511257D01*
X1444836Y511274D01*
X1444942Y513274D01*
X1445158Y513278D01*
X1445546Y513307D01*
X1445719Y513334D01*
X1445877Y513367D01*
X1446022Y513408D01*
X1446151Y513456D01*
X1446267Y513512D01*
X1446369Y513576D01*
X1446456Y513646D01*
X1446327Y510849D01*
D02*
G37*
G36*
X1459574Y510236D02*
X1459506Y510136D01*
X1459446Y510022D01*
X1459394Y509893D01*
X1459350Y509750D01*
X1459314Y509592D01*
X1459286Y509420D01*
X1459266Y509234D01*
X1459250Y508818D01*
X1457250D01*
X1457246Y509033D01*
X1457214Y509420D01*
X1457186Y509592D01*
X1457150Y509750D01*
X1457106Y509893D01*
X1457054Y510022D01*
X1456994Y510136D01*
X1456926Y510236D01*
X1456850Y510322D01*
X1459650D01*
X1459574Y510236D01*
D02*
G37*
G36*
X1618709Y510728D02*
X1618725Y510531D01*
X1618750Y510353D01*
X1618786Y510194D01*
X1618832Y510054D01*
X1618888Y509933D01*
X1618954Y509831D01*
X1619031Y509748D01*
X1619117Y509683D01*
X1619214Y509638D01*
X1616690Y508472D01*
X1616693Y508502D01*
X1616695Y508575D01*
X1616704Y510760D01*
X1618704Y510944D01*
X1618709Y510728D01*
D02*
G37*
G36*
X1637322Y505350D02*
X1637236Y505426D01*
X1637136Y505494D01*
X1637022Y505554D01*
X1636893Y505606D01*
X1636750Y505650D01*
X1636592Y505686D01*
X1636420Y505714D01*
X1636234Y505734D01*
X1635818Y505750D01*
Y507750D01*
X1636033Y507754D01*
X1636420Y507786D01*
X1636592Y507814D01*
X1636750Y507850D01*
X1636893Y507894D01*
X1637022Y507946D01*
X1637136Y508006D01*
X1637236Y508074D01*
X1637322Y508150D01*
Y505350D01*
D02*
G37*
G36*
X1577254Y344467D02*
X1577286Y344080D01*
X1577314Y343908D01*
X1577350Y343750D01*
X1577394Y343607D01*
X1577446Y343478D01*
X1577506Y343364D01*
X1577574Y343264D01*
X1577650Y343178D01*
X1574850D01*
X1574926Y343264D01*
X1574994Y343364D01*
X1575054Y343478D01*
X1575106Y343607D01*
X1575150Y343750D01*
X1575186Y343908D01*
X1575214Y344080D01*
X1575234Y344266D01*
X1575250Y344682D01*
X1577250D01*
X1577254Y344467D01*
D02*
G37*
G36*
X1760572Y339850D02*
X1760486Y339926D01*
X1760386Y339994D01*
X1760272Y340054D01*
X1760143Y340106D01*
X1760000Y340150D01*
X1759842Y340186D01*
X1759670Y340214D01*
X1759484Y340234D01*
X1759068Y340250D01*
Y342250D01*
X1759283Y342254D01*
X1759670Y342286D01*
X1759842Y342314D01*
X1760000Y342350D01*
X1760143Y342394D01*
X1760272Y342446D01*
X1760386Y342506D01*
X1760486Y342574D01*
X1760572Y342650D01*
Y339850D01*
D02*
G37*
G36*
X1638004Y521467D02*
X1638036Y521080D01*
X1638064Y520908D01*
X1638100Y520750D01*
X1638144Y520607D01*
X1638196Y520478D01*
X1638256Y520364D01*
X1638324Y520264D01*
X1638400Y520178D01*
X1635600D01*
X1635676Y520264D01*
X1635744Y520364D01*
X1635804Y520478D01*
X1635856Y520607D01*
X1635900Y520750D01*
X1635936Y520908D01*
X1635964Y521080D01*
X1635984Y521266D01*
X1636000Y521682D01*
X1638000D01*
X1638004Y521467D01*
D02*
G37*
G36*
X1651869Y516699D02*
X1651773Y516641D01*
X1651686Y516566D01*
X1651610Y516473D01*
X1651543Y516362D01*
X1651487Y516234D01*
X1651441Y516089D01*
X1651406Y515926D01*
X1651380Y515746D01*
X1651365Y515548D01*
X1651360Y515333D01*
X1649360Y515405D01*
X1649359Y515770D01*
X1649244Y517522D01*
X1649217Y517595D01*
X1651869Y516699D01*
D02*
G37*
G36*
X1651400Y439361D02*
X1651519Y438849D01*
X1651718Y438314D01*
X1651996Y437755D01*
X1652353Y437171D01*
X1652790Y436563D01*
X1653306Y435931D01*
X1654577Y434595D01*
X1655332Y433890D01*
X1645554Y433485D01*
X1646277Y434277D01*
X1647990Y436435D01*
X1648409Y437081D01*
X1648751Y437691D01*
X1649017Y438264D01*
X1649208Y438801D01*
X1649322Y439300D01*
X1649360Y439764D01*
X1651360Y439848D01*
X1651400Y439361D01*
D02*
G37*
G36*
X1671058Y423807D02*
X1670310Y424547D01*
X1668905Y425792D01*
X1668247Y426298D01*
X1667620Y426727D01*
X1667023Y427077D01*
X1666457Y427350D01*
X1665920Y427544D01*
X1665414Y427661D01*
X1664938Y427700D01*
Y429700D01*
X1665414Y429739D01*
X1665920Y429856D01*
X1666457Y430050D01*
X1667023Y430323D01*
X1667620Y430673D01*
X1668247Y431101D01*
X1668905Y431608D01*
X1670310Y432853D01*
X1671058Y433593D01*
Y423807D01*
D02*
G37*
G36*
X1465430Y427150D02*
X1465529Y427080D01*
X1465642Y427017D01*
X1465770Y426963D01*
X1465912Y426917D01*
X1466069Y426879D01*
X1466240Y426850D01*
X1466426Y426829D01*
X1466842Y426813D01*
X1466769Y424813D01*
X1466554Y424809D01*
X1466166Y424778D01*
X1465994Y424752D01*
X1465836Y424717D01*
X1465692Y424675D01*
X1465562Y424626D01*
X1465447Y424568D01*
X1465346Y424504D01*
X1465259Y424431D01*
X1465346Y427230D01*
X1465430Y427150D01*
D02*
G37*
G36*
X1472779Y424395D02*
X1472695Y424475D01*
X1472596Y424546D01*
X1472483Y424608D01*
X1472355Y424662D01*
X1472213Y424708D01*
X1472056Y424746D01*
X1471885Y424775D01*
X1471699Y424796D01*
X1471283Y424813D01*
X1471356Y426813D01*
X1471571Y426816D01*
X1471959Y426847D01*
X1472131Y426874D01*
X1472289Y426908D01*
X1472433Y426950D01*
X1472563Y426999D01*
X1472678Y427057D01*
X1472779Y427122D01*
X1472866Y427194D01*
X1472779Y424395D01*
D02*
G37*
G36*
X1510764Y342074D02*
X1510864Y342006D01*
X1510978Y341946D01*
X1511107Y341894D01*
X1511250Y341850D01*
X1511408Y341814D01*
X1511580Y341786D01*
X1511766Y341766D01*
X1512182Y341750D01*
Y339750D01*
X1511967Y339746D01*
X1511580Y339714D01*
X1511408Y339686D01*
X1511250Y339650D01*
X1511107Y339606D01*
X1510978Y339554D01*
X1510864Y339494D01*
X1510764Y339426D01*
X1510678Y339350D01*
Y342150D01*
X1510764Y342074D01*
D02*
G37*
G36*
X1518254Y327467D02*
X1518286Y327080D01*
X1518314Y326908D01*
X1518350Y326750D01*
X1518394Y326607D01*
X1518446Y326478D01*
X1518506Y326364D01*
X1518574Y326264D01*
X1518650Y326178D01*
X1515850D01*
X1515926Y326264D01*
X1515994Y326364D01*
X1516054Y326478D01*
X1516106Y326607D01*
X1516150Y326750D01*
X1516186Y326908D01*
X1516214Y327080D01*
X1516234Y327266D01*
X1516250Y327682D01*
X1518250D01*
X1518254Y327467D01*
D02*
G37*
D10*
X1575977Y691000D02*
X1607712D01*
X1608962Y692250D02*
X1709500D01*
X1607712Y691000D02*
X1608962Y692250D01*
X1690800Y700500D02*
X1765749D01*
X1556357Y694542D02*
X1605592D01*
X1603500Y700250D02*
X1603750Y700500D01*
X1765749D02*
X1770500Y695749D01*
X1605592Y694542D02*
X1608050Y697000D01*
X1603750Y700500D02*
X1683636D01*
X1684886Y701750D02*
X1689550D01*
X1690800Y700500D01*
X1608050Y697000D02*
X1686500D01*
X1598348Y526133D02*
X1600793D01*
X1596250Y528231D02*
Y532750D01*
Y528231D02*
X1598348Y526133D01*
X1600793D02*
X1601176Y525750D01*
X1571750Y535000D02*
X1594000D01*
X1596250Y532750D01*
X1580891Y530500D02*
X1590500D01*
X1568500Y538250D02*
X1571750Y535000D01*
X1568500Y538250D02*
Y553500D01*
X1549008Y556250D02*
X1565750D01*
X1568500Y553500D01*
X1745500Y685250D02*
Y691250D01*
X1745750Y691500D01*
X1737500Y677250D02*
X1745500Y685250D01*
X1686500Y677250D02*
X1737500D01*
X1542750Y557558D02*
Y600769D01*
X1495278Y602967D02*
X1540552D01*
X1542750Y600769D01*
Y557558D02*
X1549058Y551250D01*
X1546326Y558931D02*
X1549008Y556250D01*
X1546326Y558931D02*
Y600576D01*
X1559055Y613305D01*
X1610555Y391805D02*
Y548612D01*
X1614055Y399445D02*
Y547163D01*
X1617704Y509142D02*
Y545862D01*
X1621420Y511249D02*
Y544628D01*
Y511249D02*
X1625919Y506750D01*
X1621420Y544628D02*
X1623588Y546796D01*
X1764654D01*
X1625919Y506750D02*
X1638750D01*
X1617704Y509142D02*
X1618555Y508291D01*
X1617704Y545862D02*
X1622139Y550296D01*
X1763204D01*
X1618555Y507750D02*
Y508291D01*
X1614055Y547163D02*
X1620932Y554040D01*
X1761998D01*
X1610555Y548612D02*
X1619483Y557540D01*
X1760549D01*
X1575526Y690549D02*
X1575977Y691000D01*
X1548476Y681711D02*
X1557314Y690549D01*
X1575526D01*
X1544976Y683161D02*
X1556357Y694542D01*
X1493250Y598000D02*
X1493316Y598066D01*
Y601005D01*
X1495278Y602967D01*
X1446895Y606500D02*
X1546767D01*
X1555516Y615248D01*
X1442546Y617000D02*
X1448997D01*
X1450696Y613750D02*
X1543168D01*
X1452146Y610250D02*
X1544618D01*
X1448997Y617000D02*
X1449247Y617250D01*
X1443995Y613500D02*
X1450446D01*
X1445445Y610000D02*
X1451896D01*
X1544618Y610250D02*
X1551976Y617608D01*
X1449247Y617250D02*
X1541719D01*
X1544976Y620508D01*
X1450446Y613500D02*
X1450696Y613750D01*
X1543168D02*
X1548476Y619058D01*
X1451896Y610000D02*
X1452146Y610250D01*
X1549058Y551250D02*
X1563500D01*
X1555516Y615248D02*
Y678852D01*
X1559055Y677441D02*
X1560227Y678613D01*
X1548476Y619058D02*
Y681711D01*
X1555516Y678852D02*
X1558914Y682250D01*
X1709750D01*
X1560227Y678613D02*
X1623346D01*
X1544976Y620508D02*
Y683161D01*
X1551976Y680262D02*
X1558555Y686840D01*
X1684676D01*
X1551976Y617608D02*
Y680262D01*
X1559055Y613305D02*
Y677441D01*
X1623346Y678613D02*
X1624459Y677500D01*
X1625000D01*
X1597500Y378750D02*
X1610555Y391805D01*
X1614055Y399445D02*
X1620750Y392750D01*
X1692500D01*
X1684953Y687117D02*
X1686367D01*
X1686750Y687500D01*
X1684676Y686840D02*
X1684953Y687117D01*
X1763204Y550296D02*
X1770500Y557592D01*
X1763400Y560391D02*
Y651900D01*
X1770500Y557592D02*
Y695749D01*
X1764654Y546796D02*
X1774000Y556142D01*
Y690750D01*
X1761998Y554040D02*
X1767000Y559041D01*
Y653250D01*
X1760549Y557540D02*
X1763400Y560391D01*
X1766949Y704250D02*
X1774000Y697199D01*
Y695278D02*
Y697199D01*
X1765028Y704250D02*
X1766949D01*
X1774000Y690750D02*
Y695278D01*
X1760500Y704250D02*
X1765028D01*
X1692000D02*
X1760500D01*
X1708911Y647411D02*
Y651014D01*
X1761550Y653750D02*
X1763400Y651900D01*
X1708911Y651014D02*
X1711646Y653750D01*
X1761550D01*
X1708750Y657250D02*
X1763000D01*
X1708750Y647250D02*
X1708911Y647411D01*
X1763000Y657250D02*
X1767000Y653250D01*
X1431750Y512876D02*
Y606204D01*
X1439250Y515275D02*
Y603805D01*
X1435500Y605005D02*
X1443995Y613500D01*
X1431750Y606204D02*
X1442546Y617000D01*
X1435500Y514076D02*
Y605005D01*
X1444000Y534500D02*
Y603605D01*
X1446895Y606500D01*
X1439250Y603805D02*
X1445445Y610000D01*
X1435500Y514076D02*
X1442576Y507000D01*
X1451750D01*
X1442251Y512274D02*
X1447726D01*
X1431750Y512876D02*
X1441126Y503500D01*
X1455250D01*
X1439250Y515275D02*
X1442251Y512274D01*
X1447726D02*
X1447818Y512182D01*
X1451750Y507000D02*
X1453250Y508500D01*
X1653860Y441140D02*
X1656750Y438250D01*
X1658814D01*
X1661046Y436018D01*
Y431704D02*
Y436018D01*
Y431704D02*
X1664050Y428700D01*
X1653860Y441140D02*
Y514830D01*
X1655500Y516470D02*
Y520364D01*
X1653860Y514830D02*
X1655500Y516470D01*
X1638172Y523172D02*
X1652692D01*
X1655500Y520364D01*
X1650360Y428990D02*
Y517319D01*
Y428990D02*
X1650650Y428700D01*
X1650360Y517319D02*
X1651000Y517959D01*
X1637000Y522000D02*
X1638172Y523172D01*
X1637000Y518750D02*
Y522000D01*
X1651000Y517959D02*
Y518500D01*
X1664050Y428700D02*
X1676050D01*
X1463875Y425875D02*
X1463938Y425812D01*
X1474187D01*
X1474250Y425750D01*
X1576250Y341750D02*
Y374000D01*
X1581000Y378750D02*
X1597500D01*
X1576250Y374000D02*
X1581000Y378750D01*
X1703000Y354000D02*
Y382250D01*
X1692500Y392750D02*
X1703000Y382250D01*
Y354000D02*
X1715750Y341250D01*
X1762000D01*
X1353750Y678750D02*
X1449500D01*
X1458000Y624250D02*
Y670250D01*
X1449500Y678750D02*
X1458000Y670250D01*
X1509250Y340750D02*
X1514750D01*
X1517250Y324750D02*
Y338250D01*
X1514750Y340750D02*
X1517250Y338250D01*
X1609500Y704000D02*
X1682186D01*
X1603750Y707000D02*
X1603911Y706840D01*
X1606660D01*
X1609500Y704000D01*
X1691000Y705250D02*
X1692000Y704250D01*
X1683436Y705250D02*
X1691000D01*
X1682186Y704000D02*
X1683436Y705250D01*
X1683636Y700500D02*
X1684886Y701750D01*
X1453250Y508500D02*
Y534750D01*
X1455250Y503500D02*
X1458250Y506500D01*
X1686500Y697000D02*
X1686750Y697250D01*
X1458250Y506500D02*
Y511750D01*
D72*
X1386000Y332500D02*
D03*
Y392500D02*
D03*
D73*
X1434000Y367500D02*
D03*
D74*
X1479240Y297720D02*
D03*
X1538620Y304800D02*
D03*
D75*
X1466470Y309600D02*
D03*
X1552970D02*
D03*
D76*
X1466470Y267800D02*
D03*
X1552970D02*
D03*
D77*
X1384000Y697250D02*
D03*
Y718850D02*
D03*
Y740450D02*
D03*
Y762050D02*
D03*
D78*
X1612600Y365200D02*
D03*
X1726900D02*
D03*
D79*
X1747200Y395700D02*
D03*
X1592300D02*
D03*
D80*
X1710600Y316200D02*
D03*
X1736000D02*
D03*
X1628900D02*
D03*
X1603500D02*
D03*
D81*
X1714150Y454100D02*
D03*
X1701450Y428700D02*
D03*
X1688750Y454100D02*
D03*
X1676050Y428700D02*
D03*
X1663350Y454100D02*
D03*
X1650650Y428700D02*
D03*
X1637950Y454100D02*
D03*
D82*
X1625250Y428700D02*
D03*
D83*
X1752250Y814000D02*
D03*
X1333500D02*
D03*
X1752250Y514250D02*
D03*
X1333750Y514500D02*
D03*
D84*
X1769996Y754998D02*
D03*
Y749998D02*
D03*
Y744998D02*
D03*
Y739998D02*
D03*
Y734998D02*
D03*
Y729998D02*
D03*
Y724998D02*
D03*
Y719999D02*
D03*
X1764996Y754998D02*
D03*
Y749998D02*
D03*
Y744998D02*
D03*
Y739998D02*
D03*
Y734998D02*
D03*
Y729998D02*
D03*
Y724998D02*
D03*
Y719999D02*
D03*
X1759996Y754998D02*
D03*
Y749998D02*
D03*
Y744998D02*
D03*
Y739998D02*
D03*
Y734998D02*
D03*
Y729998D02*
D03*
Y724998D02*
D03*
Y719999D02*
D03*
X1754996Y754998D02*
D03*
Y749998D02*
D03*
Y744998D02*
D03*
Y739998D02*
D03*
Y734998D02*
D03*
Y729998D02*
D03*
Y724998D02*
D03*
Y719999D02*
D03*
X1749996Y754998D02*
D03*
Y749998D02*
D03*
Y744998D02*
D03*
Y739998D02*
D03*
Y734998D02*
D03*
Y729998D02*
D03*
Y724998D02*
D03*
Y719999D02*
D03*
X1744996Y754998D02*
D03*
Y749998D02*
D03*
Y744998D02*
D03*
Y739998D02*
D03*
Y734998D02*
D03*
Y729998D02*
D03*
Y724998D02*
D03*
Y719999D02*
D03*
X1739996Y754998D02*
D03*
Y749998D02*
D03*
Y744998D02*
D03*
Y739998D02*
D03*
Y734998D02*
D03*
Y729998D02*
D03*
Y724998D02*
D03*
Y719999D02*
D03*
X1734996Y754998D02*
D03*
Y749998D02*
D03*
Y744998D02*
D03*
Y739998D02*
D03*
Y734998D02*
D03*
Y729998D02*
D03*
Y724998D02*
D03*
Y719999D02*
D03*
X1729996Y754998D02*
D03*
Y749998D02*
D03*
Y744998D02*
D03*
Y739998D02*
D03*
Y734998D02*
D03*
Y729998D02*
D03*
Y724998D02*
D03*
Y719999D02*
D03*
X1779996Y609999D02*
D03*
Y604999D02*
D03*
Y599999D02*
D03*
Y594999D02*
D03*
Y589999D02*
D03*
Y584999D02*
D03*
Y579999D02*
D03*
Y574999D02*
D03*
Y569999D02*
D03*
Y564999D02*
D03*
Y559999D02*
D03*
Y554999D02*
D03*
Y549999D02*
D03*
X1774996D02*
D03*
X1754996Y609999D02*
D03*
Y604999D02*
D03*
Y599999D02*
D03*
Y594999D02*
D03*
Y589999D02*
D03*
Y584999D02*
D03*
Y579999D02*
D03*
Y574999D02*
D03*
Y569999D02*
D03*
Y564999D02*
D03*
X1749996Y609999D02*
D03*
Y604999D02*
D03*
Y599999D02*
D03*
Y594999D02*
D03*
Y589999D02*
D03*
Y584999D02*
D03*
Y579999D02*
D03*
Y574999D02*
D03*
Y569999D02*
D03*
Y564999D02*
D03*
X1744996Y609999D02*
D03*
Y604999D02*
D03*
Y599999D02*
D03*
Y594999D02*
D03*
Y589999D02*
D03*
Y584999D02*
D03*
Y579999D02*
D03*
Y574999D02*
D03*
Y569999D02*
D03*
Y564999D02*
D03*
X1739996Y609999D02*
D03*
Y604999D02*
D03*
Y599999D02*
D03*
Y564999D02*
D03*
X1734996Y609999D02*
D03*
Y604999D02*
D03*
Y599999D02*
D03*
Y564999D02*
D03*
X1729996Y609999D02*
D03*
Y604999D02*
D03*
Y599999D02*
D03*
Y564999D02*
D03*
X1724996Y609999D02*
D03*
Y604999D02*
D03*
Y599999D02*
D03*
Y564999D02*
D03*
X1719997D02*
D03*
X1544997Y699999D02*
D03*
Y694999D02*
D03*
Y689999D02*
D03*
X1539997Y699999D02*
D03*
Y694999D02*
D03*
Y689999D02*
D03*
Y684999D02*
D03*
Y679999D02*
D03*
Y674999D02*
D03*
Y669999D02*
D03*
Y664999D02*
D03*
Y659999D02*
D03*
Y654999D02*
D03*
Y649999D02*
D03*
X1534997Y699999D02*
D03*
Y694999D02*
D03*
Y689999D02*
D03*
Y684999D02*
D03*
Y679999D02*
D03*
Y674999D02*
D03*
Y669999D02*
D03*
Y664999D02*
D03*
Y659999D02*
D03*
Y654999D02*
D03*
Y649999D02*
D03*
X1529997Y699999D02*
D03*
Y694999D02*
D03*
Y689999D02*
D03*
Y684999D02*
D03*
Y679999D02*
D03*
Y674999D02*
D03*
Y669999D02*
D03*
Y664999D02*
D03*
Y659999D02*
D03*
Y654999D02*
D03*
Y649999D02*
D03*
X1524997Y699999D02*
D03*
Y694999D02*
D03*
Y689999D02*
D03*
Y684999D02*
D03*
Y679999D02*
D03*
Y674999D02*
D03*
Y669999D02*
D03*
Y664999D02*
D03*
Y659999D02*
D03*
Y654999D02*
D03*
Y649999D02*
D03*
X1519997Y699999D02*
D03*
Y694999D02*
D03*
Y689999D02*
D03*
Y684999D02*
D03*
Y679999D02*
D03*
Y674999D02*
D03*
Y669999D02*
D03*
Y664999D02*
D03*
Y659999D02*
D03*
Y654999D02*
D03*
Y649999D02*
D03*
X1514997Y699999D02*
D03*
Y694999D02*
D03*
Y689999D02*
D03*
Y684999D02*
D03*
Y679999D02*
D03*
Y674999D02*
D03*
Y669999D02*
D03*
Y664999D02*
D03*
Y659999D02*
D03*
Y654999D02*
D03*
Y649999D02*
D03*
X1509997Y699999D02*
D03*
Y694999D02*
D03*
Y689999D02*
D03*
Y684999D02*
D03*
Y679999D02*
D03*
Y674999D02*
D03*
Y669999D02*
D03*
Y664999D02*
D03*
Y659999D02*
D03*
Y654999D02*
D03*
Y649999D02*
D03*
X1504997Y699999D02*
D03*
Y694999D02*
D03*
Y689999D02*
D03*
Y684999D02*
D03*
Y679999D02*
D03*
Y674999D02*
D03*
Y669999D02*
D03*
Y664999D02*
D03*
Y659999D02*
D03*
Y654999D02*
D03*
Y649999D02*
D03*
X1499997Y699999D02*
D03*
Y694999D02*
D03*
Y689999D02*
D03*
Y684999D02*
D03*
Y679999D02*
D03*
Y674999D02*
D03*
Y669999D02*
D03*
Y664999D02*
D03*
Y659999D02*
D03*
Y654999D02*
D03*
Y649999D02*
D03*
X1494997Y699999D02*
D03*
Y694999D02*
D03*
Y689999D02*
D03*
Y684999D02*
D03*
Y679999D02*
D03*
Y674999D02*
D03*
Y669999D02*
D03*
Y664999D02*
D03*
Y659999D02*
D03*
Y654999D02*
D03*
Y649999D02*
D03*
X1489997Y699999D02*
D03*
Y694999D02*
D03*
Y689999D02*
D03*
Y684999D02*
D03*
Y679999D02*
D03*
Y674999D02*
D03*
Y669999D02*
D03*
Y664999D02*
D03*
Y659999D02*
D03*
Y654999D02*
D03*
Y649999D02*
D03*
X1484997Y699999D02*
D03*
Y694999D02*
D03*
Y689999D02*
D03*
Y684999D02*
D03*
Y679999D02*
D03*
Y674999D02*
D03*
Y669999D02*
D03*
Y664999D02*
D03*
Y659999D02*
D03*
Y654999D02*
D03*
Y649999D02*
D03*
X1479997Y699999D02*
D03*
Y694999D02*
D03*
Y689999D02*
D03*
Y684999D02*
D03*
Y679999D02*
D03*
Y674999D02*
D03*
Y669999D02*
D03*
Y664999D02*
D03*
Y659999D02*
D03*
Y654999D02*
D03*
Y649999D02*
D03*
X1474997Y699999D02*
D03*
Y694999D02*
D03*
Y689999D02*
D03*
Y684999D02*
D03*
Y679999D02*
D03*
Y674999D02*
D03*
Y669999D02*
D03*
Y664999D02*
D03*
Y659999D02*
D03*
Y654999D02*
D03*
Y649999D02*
D03*
X1469997Y699999D02*
D03*
Y694999D02*
D03*
Y689999D02*
D03*
Y684999D02*
D03*
Y679999D02*
D03*
Y674999D02*
D03*
Y669999D02*
D03*
Y664999D02*
D03*
Y659999D02*
D03*
Y654999D02*
D03*
Y649999D02*
D03*
X1464997Y699999D02*
D03*
Y694999D02*
D03*
Y689999D02*
D03*
Y684999D02*
D03*
Y679999D02*
D03*
Y674999D02*
D03*
Y669999D02*
D03*
Y664999D02*
D03*
Y659999D02*
D03*
Y654999D02*
D03*
Y649999D02*
D03*
X1459997Y699999D02*
D03*
Y694999D02*
D03*
Y689999D02*
D03*
Y684999D02*
D03*
Y679999D02*
D03*
Y674999D02*
D03*
X1454997Y699999D02*
D03*
Y694999D02*
D03*
Y689999D02*
D03*
Y684999D02*
D03*
Y679999D02*
D03*
X1449997Y699999D02*
D03*
Y694999D02*
D03*
Y689999D02*
D03*
Y684999D02*
D03*
Y669999D02*
D03*
Y664999D02*
D03*
Y659999D02*
D03*
Y654999D02*
D03*
Y649999D02*
D03*
X1444997Y699999D02*
D03*
Y694999D02*
D03*
Y689999D02*
D03*
Y684999D02*
D03*
Y669999D02*
D03*
Y664999D02*
D03*
Y659999D02*
D03*
X1439997Y699999D02*
D03*
Y694999D02*
D03*
Y689999D02*
D03*
Y684999D02*
D03*
Y669999D02*
D03*
Y664999D02*
D03*
Y659999D02*
D03*
X1434997Y699999D02*
D03*
Y694999D02*
D03*
Y689999D02*
D03*
Y684999D02*
D03*
Y669999D02*
D03*
Y664999D02*
D03*
Y659999D02*
D03*
X1429997Y699999D02*
D03*
Y694999D02*
D03*
Y689999D02*
D03*
Y684999D02*
D03*
Y669999D02*
D03*
Y664999D02*
D03*
Y659999D02*
D03*
X1686750Y697250D02*
D03*
X1579000Y656500D02*
D03*
X1744500Y647500D02*
D03*
X1736000Y640250D02*
D03*
X1580891Y530500D02*
D03*
X1590500D02*
D03*
X1601176Y525750D02*
D03*
X1745750Y691500D02*
D03*
X1719500Y497000D02*
D03*
X1481500Y371250D02*
D03*
X1365450Y420250D02*
D03*
X1321470Y639500D02*
D03*
X1401750Y639750D02*
D03*
X1698500Y594750D02*
D03*
X1684500D02*
D03*
X1670500D02*
D03*
X1656500D02*
D03*
X1642500D02*
D03*
X1628500D02*
D03*
X1567750Y670500D02*
D03*
X1568500Y699042D02*
D03*
X1553000Y593750D02*
D03*
X1567750Y642000D02*
D03*
X1463875Y425875D02*
D03*
X1618555Y507750D02*
D03*
X1638750Y506750D02*
D03*
X1708750Y657250D02*
D03*
X1443250Y621500D02*
D03*
X1447818Y512182D02*
D03*
X1637000Y518750D02*
D03*
X1651000Y518500D02*
D03*
X1474250Y425750D02*
D03*
X1558982Y333984D02*
D03*
X1455750Y332500D02*
D03*
X1576250Y341750D02*
D03*
X1627250Y662250D02*
D03*
X1493750Y588000D02*
D03*
X1353750Y678750D02*
D03*
X1488250Y534500D02*
D03*
X1405750Y574000D02*
D03*
X1388750Y552000D02*
D03*
X1379750Y535000D02*
D03*
X1380000Y591750D02*
D03*
X1517250Y324750D02*
D03*
X1509250Y340750D02*
D03*
X1645000Y673000D02*
D03*
X1634500Y644750D02*
D03*
X1708750Y647250D02*
D03*
X1625000Y677500D02*
D03*
X1493250Y598000D02*
D03*
X1563500Y551250D02*
D03*
X1709500Y692250D02*
D03*
X1623750Y717250D02*
D03*
X1603500Y700250D02*
D03*
X1603750Y707000D02*
D03*
X1444000Y534500D02*
D03*
X1453250Y534750D02*
D03*
X1458250Y511750D02*
D03*
X1709750Y682250D02*
D03*
X1686750Y687500D02*
D03*
X1458000Y624250D02*
D03*
X1654500Y766750D02*
D03*
X1682250D02*
D03*
X1696000D02*
D03*
X1410750Y622750D02*
D03*
X1353250Y720500D02*
D03*
X1333000D02*
D03*
X1338750Y761500D02*
D03*
X1493000Y478000D02*
D03*
X1504000Y414750D02*
D03*
X1512250Y422500D02*
D03*
X1504250D02*
D03*
X1496250Y414750D02*
D03*
X1519750D02*
D03*
X1512000D02*
D03*
X1496500Y422500D02*
D03*
X1520000D02*
D03*
X1496500Y430250D02*
D03*
X1520000D02*
D03*
X1504250D02*
D03*
X1512250D02*
D03*
Y437750D02*
D03*
X1504250D02*
D03*
X1520000D02*
D03*
X1496500D02*
D03*
X1503000Y392500D02*
D03*
X1563500Y531000D02*
D03*
X1431500Y464750D02*
D03*
X1541720Y315500D02*
D03*
X1477720D02*
D03*
X1686500Y677250D02*
D03*
Y667910D02*
D03*
X1644750Y645000D02*
D03*
X1509000Y375850D02*
D03*
X1344750Y463000D02*
D03*
X1659500Y645000D02*
D03*
X1668250Y766750D02*
D03*
X1640250D02*
D03*
X1762000Y341250D02*
D03*
X1569750Y369000D02*
D03*
X1663250Y497000D02*
D03*
X1779000Y699000D02*
D03*
X1764000Y671250D02*
D03*
X1745250Y676750D02*
D03*
X1723250Y693750D02*
D03*
M02*
